<?xml version="1.0" encoding="utf-8"?>
<!-- Generator: Adobe Illustrator 21.0.2, SVG Export Plug-In . SVG Version: 6.00 Build 0)  -->
<svg version="1.1" id="Layer_1" xmlns="http://www.w3.org/2000/svg" xmlns:xlink="http://www.w3.org/1999/xlink" x="0px" y="0px"
	 viewBox="0 0 115.4 99.2" style="enable-background:new 0 0 115.4 99.2;" xml:space="preserve">
<style type="text/css">
	.st0{clip-path:url(#SVGID_2_);fill:#00B5EC;}
</style>
<g>
	<defs>
		<rect id="SVGID_1_" width="115.4" height="99.2"/>
	</defs>
	<clipPath id="SVGID_2_">
		<use xlink:href="#SVGID_1_"  style="overflow:visible;"/>
	</clipPath>
	<path class="st0" d="M30.1,67.5c-1.3,0-2.6,0.3-3.7,1c-1.7,1.1-2.7,2.7-3.4,4.6c-0.1,0.2-0.2,1-0.2,1.2c-0.5-1-0.9-2.6-1.5-3.6
		c-1.4-2.1-3.3-3.2-5.9-3.2c-0.5,0-0.8,0.2-0.8,0.7c-0.1,1.6,0.1,3.1,0.6,4.6c0.8,2.4,2.2,4.2,4.6,5c0.7,0.2,1.5,0.3,2.2,0.5v4.1
		h-0.5c-1.1,0-2.3,0-3.4,0c-0.6,0-0.9,0.2-0.9,0.7c0,0.4,0.3,0.6,0.8,0.6l5.3-1.3v-4.1c0.4-0.1,0.7-0.1,1.1-0.1
		c2.3-0.4,4.1-1.6,5.2-3.7c1.1-2,1.3-4.2,1.1-6.5C30.8,67.7,30.5,67.5,30.1,67.5 M61.1,61.4c-1.8,0-3.5,0.4-5.1,1.4
		c-2.4,1.5-3.7,3.8-4.7,6.3c-0.1,0.3-0.2,1.4-0.3,1.7c-0.7-1.4-1.3-3.6-2.1-4.9c-1.9-2.9-4.6-4.4-8.1-4.4c-0.7,0-1,0.3-1.1,1
		c-0.1,2.2,0.1,4.3,0.8,6.4c1,3.3,3,5.8,6.3,6.9c1,0.3,2,0.5,3.1,0.7v5.6h-0.7c-1.6,0-3.1,0-4.7,0c-0.8,0-1.2,0.3-1.2,0.9
		c0,0.6,0.4,0.9,1.1,0.9l7.3-1.8v-5.7c0.5-0.1,1-0.1,1.5-0.2c3.2-0.5,5.7-2.1,7.1-5c1.4-2.8,1.8-5.8,1.5-8.9
		C62,61.7,61.6,61.4,61.1,61.4 M99.4,53c-2.5,0-4.8,0.6-6.9,1.9c-3.2,2.1-5.1,5.2-6.4,8.7c-0.2,0.4-0.3,2-0.4,2.3
		c-1-1.9-1.7-5-2.9-6.8c-2.6-4-6.3-6-11.1-6.1c-1,0-1.4,0.4-1.5,1.4c-0.2,3,0.2,5.9,1.1,8.8c1.4,4.5,4.1,7.9,8.7,9.5
		c1.4,0.5,2.8,0.7,4.3,1v7.7h-0.9c-2.2,0-4.3,0-6.5,0c-1.1,0-1.6,0.4-1.6,1.2c0,0.8,0.5,1.2,1.6,1.2l10-2.5v-7.8
		c0.7-0.1,1.4-0.2,2-0.3c4.4-0.7,7.8-3,9.8-6.9c2-3.8,2.5-8,2.1-12.2C100.6,53.4,100.1,53,99.4,53 M115.4,89.8c0,2.6,0,5.2,0,7.7
		c0,0.2-0.4,0.5-0.6,0.6c-3.7,1.4-7.5,1.4-11.3,0.1c-1.9-0.7-3.9-1.2-5.9-1.5c-2.5-0.4-4.9,0.3-7.3,1.1c-1.7,0.5-3.3,1-5.1,1.3
		c-2.7,0.5-5.3-0.2-7.8-1c-1.8-0.6-3.7-1.1-5.5-1.4c-2.6-0.4-5.1,0.4-7.5,1.2c-1.5,0.5-3.1,0.9-4.7,1.2c-2.8,0.5-5.4-0.2-8-1.1
		c-2.5-0.9-5.1-1.7-7.9-1.3c-1.7,0.3-3.4,0.8-5.1,1.2c-1.6,0.4-3.1,0.9-4.7,1.2c-2.8,0.5-5.4-0.2-7.9-1.1c-2.5-0.9-5.1-1.7-7.9-1.3
		c-1.7,0.2-3.4,0.8-5.1,1.2c-1.5,0.4-3,0.9-4.6,1.2c-2.9,0.5-5.6-0.2-8.3-1.2v-8c0.6,0.2,1.1,0.3,1.6,0.5c3.2,1.1,6.4,1.1,9.7,0
		c1.6-0.5,3.2-1.1,4.9-1.5c3-0.7,5.8-0.3,8.6,0.7c1.5,0.5,3.1,1,4.7,1.4c2.9,0.6,5.8,0,8.5-0.9c1.6-0.5,3.3-1,5.1-1.4
		c2.8-0.5,5.4,0.2,8,1.1c1.8,0.6,3.6,1.1,5.5,1.3c2.5,0.4,4.8-0.3,7.1-1c1.7-0.5,3.3-1,5.1-1.4c2.6-0.5,5.1,0.1,7.5,0.9
		c1.5,0.5,3.1,1,4.7,1.4c2.9,0.6,5.7,0,8.4-0.9c1.7-0.5,3.4-1.1,5.2-1.4c2.8-0.5,5.4,0.2,7.9,1c1.8,0.6,3.6,1.1,5.5,1.4
		c2.2,0.4,4.4-0.2,6.5-0.8C114.6,90.1,115,90,115.4,89.8 M21.9,52.3c7.2-5.5,14.5-10.9,21.7-16.4c2.6-2,5.3-4,8-6c1.2,1,2.4,2,3.6,3
		c1.9,1.6,3.4,1.6,5.3,0.3c9-6.2,17.9-12.3,26.9-18.5c0.3-0.2,0.5-0.3,0.8-0.6c0,0.3,0,0.5,0,0.7c0,1.9,1.1,3.4,2.8,3.7
		c1.9,0.3,3.4-0.5,4.1-2.4c1.2-3.1,2.4-6.2,3.7-9.2c0.6-1.4,0.6-2.7,0-4.1c-0.4-1.1-1.3-1.7-2.5-1.8c-0.9-0.1-1.8-0.2-2.7-0.3
		C91,0.6,88.2,0.2,85.4,0c-1.6-0.1-2.8,0.6-3.5,2c-0.6,1.2-0.4,2.7,0.6,3.8c0.8,0.9,2,1.2,3.3,1.4c-1.4,1-2.9,2-4.3,3
		c-7.5,5.2-15,10.3-22.5,15.5c-0.5,0.4-0.8,0.4-1.3-0.1c-1.1-1-2.2-1.9-3.4-2.8c-1.6-1.3-3.3-1.3-4.8-0.1c-10.6,8-21.2,16-31.8,24
		c-1.7,1.2-1.9,3.4-0.6,5C18,53.2,20.3,53.5,21.9,52.3"/>
</g>
</svg>
