<svg xmlns="http://www.w3.org/2000/svg" viewBox="0 0 74.29 82.9"><defs><style>.cls-1,.cls-2,.cls-3{fill:none;}.cls-1,.cls-2,.cls-3,.cls-4{stroke:#3ebce8;}.cls-1,.cls-3{stroke-width:5px;}.cls-2{stroke-width:4px;}.cls-3{stroke-linecap:round;}.cls-4{fill:#3ebce8;stroke-miterlimit:10;stroke-width:0.75px;}</style></defs><title>Asset 2</title><g id="Layer_2" data-name="Layer 2"><g id="Layer_1-2" data-name="Layer 1"><path class="cls-1" d="M17.38,13.55S2.5,13.55,2.5,28.43V65.52S2.5,80.4,17.38,80.4H56.92s14.88,0,14.88-14.87V28.43s0-14.87-14.87-14.87Z"/><line class="cls-1" x1="37.06" y1="0.28" x2="37.06" y2="12.46"/><line class="cls-2" x1="45.5" y1="2" x2="28.61" y2="2"/><line class="cls-3" x1="58.5" y1="6.06" x2="51.4" y2="12.57"/><line class="cls-3" x1="15.55" y1="6.06" x2="22.65" y2="12.57"/><path class="cls-4" d="M18.4,51H17.35V41.73h4.44a3.22,3.22,0,0,1,2.27.78,2.7,2.7,0,0,1,.85,2.11A2.35,2.35,0,0,1,23.47,47a4,4,0,0,1-.8.27L25.11,51H23.86l-2.24-3.56H18.4Zm0-4.55h3.21a2.19,2.19,0,0,0,2-.92,1.95,1.95,0,0,0-.39-2.29,2.38,2.38,0,0,0-1.6-.51H18.4Z"/><path class="cls-4" d="M30.69,41.73V51h-1V42.74h-2v-1Z"/><path class="cls-4" d="M39,46.05a2.72,2.72,0,0,1,1.26.92,2.15,2.15,0,0,1,.45,1.29,2.74,2.74,0,0,1-.25,1.2,2.58,2.58,0,0,1-.68.88,3.3,3.3,0,0,1-2.23.77,3.52,3.52,0,0,1-2.25-.74,2.64,2.64,0,0,1-1-1.82h1.06a1.68,1.68,0,0,0,.74,1.09,2.56,2.56,0,0,0,1.5.45,2.31,2.31,0,0,0,1.55-.5,1.54,1.54,0,0,0,.55-1.22,1.6,1.6,0,0,0-.56-1.23,2.07,2.07,0,0,0-1.44-.53H36.61v-1h.94a2,2,0,0,0,1.27-.42,1.31,1.31,0,0,0,.55-1.09A1.36,1.36,0,0,0,38.91,43a2,2,0,0,0-1.35-.41,2.25,2.25,0,0,0-1.4.39,1.49,1.49,0,0,0-.61.92h-1a2.42,2.42,0,0,1,.85-1.6,3.07,3.07,0,0,1,2.11-.74,3.13,3.13,0,0,1,2.14.7,2.21,2.21,0,0,1,.78,1.76,2,2,0,0,1-.48,1.26A1.76,1.76,0,0,1,39,46.05Z"/><path class="cls-4" d="M48.76,47.69v.94H47.52V51H46.47V48.63H42v-1l3.89-5.88h1.58v6Zm-2.3,0V42.62L43,47.69Z"/><path class="cls-4" d="M55.89,49.88a2.83,2.83,0,0,1-2.51,1.23,3.17,3.17,0,0,1-2.46-1.05,4,4,0,0,1,0-5.12,3.25,3.25,0,0,1,2.53-1.05,2.78,2.78,0,0,1,2.44,1.25V44h1v7h-1Zm-2.37.28a2.22,2.22,0,0,0,1.79-.78,3.11,3.11,0,0,0,0-3.75,2.22,2.22,0,0,0-1.79-.78,2.32,2.32,0,0,0-1.82.78,3,3,0,0,0,0,3.75A2.32,2.32,0,0,0,53.52,50.16Z"/></g></g></svg>