<?xml version="1.0" encoding="utf-8"?>
<!-- Generator: Adobe Illustrator 21.0.2, SVG Export Plug-In . SVG Version: 6.00 Build 0)  -->
<svg version="1.1" id="Layer_1" xmlns="http://www.w3.org/2000/svg" xmlns:xlink="http://www.w3.org/1999/xlink" x="0px" y="0px"
	 viewBox="0 0 79.6 88.2" style="enable-background:new 0 0 79.6 88.2;" xml:space="preserve">
<style type="text/css">
	.st0{clip-path:url(#SVGID_2_);fill:#00B5EC;}
</style>
<title>solutions_icon05</title>
<g>
	<defs>
		<rect id="SVGID_1_" x="4.3" y="4.6" width="72.5" height="80.3"/>
	</defs>
	<clipPath id="SVGID_2_">
		<use xlink:href="#SVGID_1_"  style="overflow:visible;"/>
	</clipPath>
	<path class="st0" d="M40.5,49.7c-4.9,0-8.9-4-8.9-8.9c0-4.9,4-8.9,8.9-8.9c4.9,0,8.9,4,8.9,8.9 M75.9,41.2c-0.5-0.7-1.1-1.3-1.7-2
		C64.3,28.4,54.4,17.5,44.5,6.6C42,4,39.1,3.9,36.7,6.5c-9,9.9-18.1,19.8-27.1,29.7c-1.4,1.5-2.8,3-4.2,4.6c-1,1.2-1.5,2.5-0.8,4
		c0.7,1.4,1.8,2.1,3.3,2.1c0.9,0,1.8,0,2.9,0v1.7c0,10.6,0.1,21.2,0,31.8c0,2.6,1.7,4.6,4.6,4.6c8.5-0.1,17,0,25.5,0
		c2.2,0,3-0.8,3-3c0-7.7,0-5.4,0-13.1c0-2.3,0.6-3,2.9-3c3.7,0,7.3,0,11,0c2.2,0,2.9,0.6,2.9,2.9c0,7.8,0,5.7,0,13.5
		c0,1.8,0.8,2.7,2.6,2.7c0.8,0,1.6,0,2.5,0c3,0,4.5-1.6,4.5-4.6c0-10.6,0-21.3,0-31.9v-1.5c1.1,0,2.1,0,3,0c1.5,0,2.5-0.8,3.1-2
		C77,43.5,76.8,42.3,75.9,41.2"/>
</g>
</svg>
