<?xml version="1.0" encoding="utf-8"?>
<!-- Generator: Adobe Illustrator 21.0.2, SVG Export Plug-In . SVG Version: 6.00 Build 0)  -->
<svg version="1.1" id="Layer_1" xmlns="http://www.w3.org/2000/svg" xmlns:xlink="http://www.w3.org/1999/xlink" x="0px" y="0px"
	 viewBox="0 0 85.8 59.1" style="enable-background:new 0 0 85.8 59.1;" xml:space="preserve">
<style type="text/css">
	.st0{clip-path:url(#SVGID_2_);fill:#00B5EC;}
</style>
<title>solutions_icon03</title>
<g>
	<defs>
		<rect id="SVGID_1_" width="85.8" height="59.1"/>
	</defs>
	<clipPath id="SVGID_2_">
		<use xlink:href="#SVGID_1_"  style="overflow:visible;"/>
	</clipPath>
	<path class="st0" d="M84.7,34.5c-2,0-3.8,0.4-5.5,1.5c-2.6,1.7-4,4.1-5.1,6.9c-0.1,0.4-0.3,1.6-0.3,1.8c-0.7-1.5-1.4-4-2.3-5.4
		c-2-3.2-4.9-4.8-8.7-4.8c-0.8,0-1.1,0.3-1.2,1.1c-0.1,2.4,0.1,4.7,0.8,7c1.1,3.6,3.2,6.3,6.9,7.6c1.1,0.4,2.2,0.5,3.4,0.8v6.2H72
		c-1.7,0-3.4,0-5.1,0c-0.9,0-1.3,0.3-1.3,1c0,0.6,0.4,0.9,1.2,0.9l7.9-2v-6.2c0.6-0.1,1.1-0.1,1.6-0.2c3.5-0.6,6.1-2.4,7.7-5.5
		c1.6-3.1,2-6.3,1.6-9.7C85.7,34.8,85.3,34.5,84.7,34.5 M53.9,34.5c-2,0-3.8,0.4-5.5,1.5c-2.6,1.7-4,4.1-5.1,6.9
		c-0.1,0.4-0.3,1.6-0.3,1.8c-0.7-1.5-1.4-4-2.3-5.4c-2-3.2-4.9-4.8-8.7-4.8c-0.8,0-1.1,0.3-1.2,1.1c-0.1,2.4,0.1,4.7,0.8,7
		c1.1,3.6,3.2,6.3,6.9,7.6c1.1,0.4,2.2,0.5,3.4,0.8v6.2h-0.7c-1.7,0-3.4,0-5.1,0c-0.9,0-1.3,0.3-1.3,1c0,0.6,0.4,0.9,1.2,0.9l7.9-2
		v-6.2c0.6-0.1,1.1-0.1,1.6-0.2c3.5-0.6,6.1-2.4,7.7-5.5c1.6-3.1,2-6.3,1.7-9.7C54.9,34.8,54.5,34.5,53.9,34.5 M23.1,34.5
		c-2,0-3.8,0.4-5.5,1.5c-2.6,1.7-4,4.1-5.1,6.9c-0.1,0.4-0.3,1.6-0.3,1.8c-0.7-1.5-1.4-4-2.3-5.4c-2-3.2-4.9-4.8-8.7-4.8
		c-0.8,0-1.1,0.3-1.2,1.1c-0.1,2.4,0.1,4.7,0.8,7C2,46.2,4.1,49,7.7,50.2c1.1,0.4,2.2,0.5,3.4,0.8v6.2h-0.7c-1.7,0-3.4,0-5.1,0
		c-0.9,0-1.3,0.3-1.3,1c0,0.6,0.4,0.9,1.2,0.9l7.9-2v-6.2c0.6-0.1,1.1-0.1,1.6-0.2c3.5-0.6,6.1-2.4,7.7-5.5c1.6-3.1,2-6.3,1.6-9.7
		C24.1,34.8,23.7,34.5,23.1,34.5 M69.3,15.7c1.1,0.4,2.2,0.5,3.4,0.8v6.2H72c-1.7,0-3.4,0-5.1,0c-0.9,0-1.3,0.3-1.3,1
		c0,0.6,0.4,0.9,1.2,0.9l7.9-2v-6.2c0.6-0.1,1.1-0.1,1.6-0.2c3.5-0.6,6.1-2.4,7.7-5.5c1.6-3.1,2-6.3,1.6-9.7c-0.1-0.6-0.4-0.9-1-0.9
		c-2,0-3.8,0.4-5.5,1.5c-2.6,1.7-4,4.1-5.1,6.9c-0.1,0.4-0.3,1.6-0.3,1.8c-0.7-1.5-1.4-4-2.3-5.4c-2-3.2-4.9-4.8-8.7-4.8
		c-0.8,0-1.1,0.3-1.2,1.1c-0.1,2.4,0.1,4.7,0.8,7C63.6,11.7,65.7,14.4,69.3,15.7 M53.9,0c-2,0-3.8,0.4-5.5,1.5
		c-2.6,1.7-4,4.1-5.1,6.9c-0.1,0.4-0.3,1.6-0.3,1.8c-0.7-1.5-1.4-4-2.3-5.4C38.7,1.7,35.8,0,32,0c-0.8,0-1.1,0.3-1.2,1.1
		c-0.1,2.4,0.1,4.7,0.8,7c1.1,3.6,3.2,6.3,6.9,7.6c1.1,0.4,2.2,0.5,3.4,0.8v6.2h-0.7c-1.7,0-3.4,0-5.1,0c-0.9,0-1.3,0.3-1.3,1
		c0,0.6,0.4,0.9,1.2,0.9l7.9-2v-6.2c0.6-0.1,1.1-0.1,1.6-0.2c3.5-0.6,6.1-2.4,7.7-5.5c1.6-3.1,2-6.3,1.7-9.7C54.9,0.3,54.5,0,53.9,0
		 M24.1,0.9c0.4,3.4-0.1,6.7-1.6,9.7c-1.6,3.2-4.3,4.9-7.7,5.5c-0.5,0.1-1,0.1-1.6,0.2v6.2l-7.9,2c-0.8,0-1.2-0.3-1.2-0.9
		c0-0.7,0.4-1,1.3-1c1.7,0,3.4,0,5.1,0h0.7v-6.2c-1.1-0.3-2.3-0.4-3.4-0.8c-3.7-1.3-5.7-4-6.9-7.6c-0.7-2.3-1-4.6-0.8-7
		C0.1,0.3,0.4,0,1.2,0C5,0,7.9,1.7,9.9,4.8c0.9,1.4,1.5,3,2.3,4.5c0.1-0.2,0.2,0.3,0.3-0.1c1-2.8,2.5-6.1,5.1-7.8
		C19.3,0.4,21.1,0,23.1,0C23.7,0,24.1,0.3,24.1,0.9"/>
</g>
</svg>
