<?xml version="1.0" encoding="utf-8"?>
<!-- Generator: Adobe Illustrator 21.0.2, SVG Export Plug-In . SVG Version: 6.00 Build 0)  -->
<svg version="1.1" id="Layer_1" xmlns="http://www.w3.org/2000/svg" xmlns:xlink="http://www.w3.org/1999/xlink" x="0px" y="0px"
	 viewBox="0 0 151.5 128.5" style="enable-background:new 0 0 151.5 128.5;" xml:space="preserve">
<style type="text/css">
	.st0{clip-path:url(#SVGID_2_);fill:#00B5EC;}
</style>
<g>
	<defs>
		<rect id="SVGID_1_" width="151.5" height="128.5"/>
	</defs>
	<clipPath id="SVGID_2_">
		<use xlink:href="#SVGID_1_"  style="overflow:visible;"/>
	</clipPath>
	<path class="st0" d="M96.7,109.3c-0.6,0.4-1.1,0.8-1.9,0.8c-0.8,0-1.5-0.4-2.1-1c-1-1.1-1-3.1,0.2-4c3.3-2.9,5.2-6.7,5.2-10.7
		s-1.7-7.9-5-10.9c-4.6-4-6.9-9.4-6.9-15.1s2.7-11.1,7.1-14.9c1.1-1,3.1-1,4,0.2c1,1.1,1,3.1-0.2,4c-3.3,2.9-5.2,6.7-5.2,10.7
		s1.7,7.9,5,10.9c4.6,4,6.9,9.4,6.9,15.1S101.3,105.3,96.7,109.3 M76.6,109.2c-0.6,0.4-1.1,0.8-1.9,0.8s-1.5-0.4-2.1-1
		c-1-1.1-1-3.1,0.2-4c3.3-2.9,5.2-6.7,5.2-10.7c0-4-1.7-7.9-5-10.9c-4.6-4-6.9-9.4-6.9-15.1s2.7-11.1,7.1-14.9c1.1-1,3.1-1,4,0.2
		c1,1.1,1,3.1-0.2,4c-3.3,2.9-5.2,6.7-5.2,10.7s1.7,7.9,5,10.9c4.6,4,6.9,9.4,6.9,15.1S81.2,105.1,76.6,109.2 M58.2,109.2
		c-0.6,0.4-1.1,0.8-1.9,0.8c-0.8,0-1.5-0.4-2.1-1c-1-1.1-1-3.1,0.2-4c3.3-2.9,5.2-6.7,5.2-10.7c0-4-1.7-7.9-5-10.9
		c-4.6-4-6.9-9.4-6.9-15.1s2.7-11.1,7.1-14.9c1.1-1,3.1-1,4,0.2c1,1.1,1,3.1-0.2,4c-3.3,2.9-5.2,6.7-5.2,10.7s1.7,7.9,5,10.9
		c4.6,4,6.9,9.4,6.9,15.1C65.5,99.8,62.8,105.1,58.2,109.2 M75.8,0L49.2,23.6v-9.8H34.5v22.8L0,67h16.5v61.5H135V67h16.5L75.8,0z"/>
</g>
</svg>
