<?xml version="1.0" encoding="utf-8"?>
<!-- Generator: Adobe Illustrator 21.0.2, SVG Export Plug-In . SVG Version: 6.00 Build 0)  -->
<svg version="1.1" id="Layer_1" xmlns="http://www.w3.org/2000/svg" xmlns:xlink="http://www.w3.org/1999/xlink" x="0px" y="0px"
	 viewBox="0 0 697.2 460" style="enable-background:new 0 0 697.2 460;" xml:space="preserve">
<style type="text/css">
	.st0{fill:#3EBCE8;}
</style>
<title>Asset 5</title>
<g id="Layer_2">
	<g id="Layer_1-2">
		<path class="st0" d="M338.5,280.3v47h4.1c2.3,0,4.1-1.8,4.1-4.1v-42.9c0-5.5,4.5-10,10-10l0,0l63.2,0.1h4.7h12.1l0,0
			c10,0,18.2-8.2,18.2-18.2v-83c0-5.5,4.5-10,10-10h194.7c10.1,0,18.2-8.2,18.2-18.2V89h-8.2v52.1c0,5.5-4.5,10-10,10H464.9
			c-10.1,0-18.2,8.2-18.2,18.2v83c0,5.5-4.5,10-10,10l0,0l0,0h-12.1h-4.7l-63.2-0.1l0,0c-10,0-18.2,8.2-18.2,18.2"/>
		<path class="st0" d="M328.5,0v121.9c0.1,9.9,8.3,17.9,18.2,17.8h40c5.5,0,10,4.5,10,10v46.7c0,10,3.3,18.2,13.3,18.2h40.8
			c2.3,0,4.1-1.8,4.1-4.1s-1.8-4.1-4.1-4.1l0,0H410c-5.5,0-5.1-4.5-5.1-10v-46.7c0-10.1-8.2-18.2-18.2-18.2h-40
			c-5.4,0.1-9.9-4.2-10-9.6V0H328.5z"/>
		<path class="st0" d="M0,61.5v34.2c0,10.1,8.2,18.2,18.2,18.2h20.2c5.5,0,10,4.5,10,10V227c0,10.1,8.2,18.2,18.2,18.2h216.2
			c5.5,0,10,4.5,10,10v18.5c0,10.1,8.2,18.2,18.2,18.2h31.5c2.3,0,4.1-1.8,4.1-4.1c0-2.3-1.8-4.1-4.1-4.1h-31.5c-5.5,0-10-4.5-10-10
			v-18.4c0-8.2-5.5-15.4-13.4-17.6c-1.5-0.4-3.1-0.6-4.7-0.6H66.6c-5.5,0-10-4.5-10-10V123.8c0-10.1-8.2-18.2-18.2-18.2H18.2
			c-5.5,0-10-4.5-10-10V61.5H0z"/>
		<path class="st0" d="M52,182.4c0,2.3,1.8,4.1,4.1,4.1l0,0h26.3c10.1,0,18.2-8.2,18.2-18.2v-29c0-5.5,4.5-10,10-10h6.7
			c10.1,0,18.2-8.2,18.2-18.2V83.7h-8.2v27.5c0,5.5-4.5,10-10,10h-6.7c-10.1,0-18.2,8.2-18.2,18.2v29c0,5.5-4.5,10-10,10H56.1
			C53.8,178.4,52,180.2,52,182.4"/>
		<path class="st0" d="M340.2,302c0,1.3,1.1,2.3,2.4,2.4H414c5.8,0,10.6-4.7,10.6-10.6c0,0,0,0,0,0v-31.6h-4.7v31.6
			c0,3.2-2.6,5.9-5.9,5.9h-71.5C341.3,299.7,340.2,300.7,340.2,302"/>
		<path class="st0" d="M375.2,460h8.2V340.4c0-4.5-4.4-8.1-10-8.1h-25c-1,0-1.7-0.8-1.8-1.8v-15.2h-8.2v15.2c0,5.5,4.5,10,10,10h25
			c0.6,0,1.2,0.1,1.8,0.4V460z"/>
		<polygon class="st0" points="677.8,43.5 670.4,43.5 670.4,52.1 661.8,52.1 661.8,59.5 670.4,59.5 670.4,68.1 677.8,68.1 
			677.8,59.5 686.5,59.5 686.5,52.1 677.8,52.1 		"/>
		<path class="st0" d="M674.1,75.3c-10.8,0-19.5-8.7-19.5-19.5c0-10.8,8.7-19.5,19.5-19.5c10.8,0,19.5,8.7,19.5,19.5c0,0,0,0,0,0
			C693.6,66.5,684.9,75.3,674.1,75.3 M674.1,32.7C661.4,32.7,651,43,651,55.8s10.3,23.1,23.1,23.1c12.8,0,23.1-10.3,23.1-23.1
			S686.9,32.7,674.1,32.7L674.1,32.7"/>
	</g>
</g>
</svg>
