<?xml version="1.0" encoding="utf-8"?>
<!-- Generator: Adobe Illustrator 21.0.2, SVG Export Plug-In . SVG Version: 6.00 Build 0)  -->
<svg version="1.1" id="Layer_1" xmlns="http://www.w3.org/2000/svg" xmlns:xlink="http://www.w3.org/1999/xlink" x="0px" y="0px"
	 viewBox="0 0 122.9 61.4" style="enable-background:new 0 0 122.9 61.4;" xml:space="preserve">
<style type="text/css">
	.st0{clip-path:url(#SVGID_2_);fill:#00B5EC;}
</style>
<title>solutions_bike01</title>
<g>
	<defs>
		<rect id="SVGID_1_" width="122.9" height="61.4"/>
	</defs>
	<clipPath id="SVGID_2_">
		<use xlink:href="#SVGID_1_"  style="overflow:visible;"/>
	</clipPath>
	<path class="st0" d="M77.8,54.8c0,1.2,0,2.4,0,3.6c0,0.1-0.2,0.2-0.4,0.3c-2.1,0.7-4.1,0.7-6.2,0c-1-0.3-2.1-0.6-3.2-0.7
		c-1.4-0.2-2.7,0.1-4,0.5c-0.9,0.3-1.8,0.5-2.8,0.6c-1.5,0.2-2.9-0.1-4.3-0.5c-1-0.3-2-0.5-3.1-0.7c-1.5-0.2-2.8,0.2-4.1,0.6
		c-0.8,0.2-1.7,0.4-2.6,0.6c-1.5,0.2-3-0.1-4.4-0.5c-1.4-0.4-2.8-0.8-4.3-0.6c-1,0.1-1.9,0.4-2.8,0.6c-0.9,0.2-1.7,0.4-2.6,0.6
		c-1.5,0.2-3-0.1-4.4-0.5c-1.4-0.4-2.8-0.8-4.3-0.6c-1,0.1-1.9,0.4-2.8,0.6c-0.8,0.2-1.7,0.4-2.5,0.6c-1.5,0.2-2.8,0-4.2-0.4
		c-0.2-0.1-0.4-0.3-0.4-0.5v-2.6c0-0.4,0.4-0.6,0.7-0.6c0,0,0,0,0,0c1.8,0.5,3.7,0.5,5.4,0c0.9-0.3,1.8-0.5,2.7-0.7
		c1.6-0.3,3.2-0.1,4.7,0.3c0.8,0.2,1.7,0.5,2.6,0.6c1.6,0.3,3.2,0,4.7-0.4c0.9-0.3,1.8-0.5,2.8-0.6c1.5-0.2,3,0.1,4.4,0.5
		c1,0.3,2,0.5,3,0.6c1.4,0.2,2.6-0.1,3.9-0.5c0.9-0.3,1.8-0.5,2.8-0.6c1.4-0.2,2.8,0,4.1,0.4c0.8,0.2,1.7,0.5,2.6,0.6
		c1.6,0.3,3.1,0,4.6-0.4c0.9-0.3,1.9-0.5,2.8-0.7c1.5-0.2,2.9,0.1,4.4,0.5c1,0.3,2,0.5,3,0.6c1.2,0.2,2.4-0.1,3.6-0.4
		C77.4,54.9,77.6,54.8,77.8,54.8 M77.8,49.1c0,1.2,0,2.4,0,3.6c0,0.1-0.2,0.2-0.4,0.3c-2.1,0.7-4.1,0.7-6.2,0
		c-1-0.3-2.1-0.6-3.2-0.7c-1.4-0.2-2.7,0.1-4,0.5c-0.9,0.3-1.8,0.5-2.8,0.6c-1.5,0.2-2.9-0.1-4.3-0.5c-1-0.3-2-0.5-3.1-0.7
		c-1.5-0.2-2.8,0.2-4.1,0.6c-0.8,0.2-1.7,0.4-2.6,0.6c-1.5,0.2-3-0.1-4.4-0.5c-1.4-0.4-2.8-0.8-4.3-0.6c-1,0.1-1.9,0.4-2.8,0.6
		c-0.9,0.2-1.7,0.4-2.6,0.6c-1.5,0.2-3-0.1-4.4-0.5c-1.4-0.4-2.8-0.8-4.3-0.6c-1,0.1-1.9,0.4-2.8,0.6c-0.8,0.2-1.7,0.4-2.5,0.6
		c-1.5,0.2-2.8,0-4.2-0.4c-0.2-0.1-0.4-0.3-0.4-0.5v-2.6c0-0.4,0.4-0.6,0.7-0.6c0,0,0,0,0,0c1.8,0.5,3.7,0.5,5.4,0
		c0.9-0.3,1.8-0.5,2.7-0.7c1.6-0.3,3.2-0.1,4.7,0.3c0.8,0.2,1.7,0.5,2.6,0.6c1.6,0.3,3.2,0,4.7-0.4c0.9-0.3,1.8-0.5,2.8-0.6
		c1.5-0.3,3,0.1,4.4,0.5c1,0.3,2,0.5,3,0.6c1.4,0.2,2.6-0.1,3.9-0.5c0.9-0.2,1.8-0.5,2.8-0.6c1.4-0.2,2.8,0,4.1,0.4
		c0.8,0.2,1.7,0.5,2.6,0.6c1.6,0.3,3.1,0,4.6-0.4c0.9-0.3,1.9-0.5,2.8-0.7c1.5-0.2,2.9,0.1,4.4,0.5c1,0.3,2,0.5,3,0.6
		c1.2,0.2,2.4-0.1,3.6-0.4C77.4,49.2,77.6,49.1,77.8,49.1 M77.8,43.3c0,1.2,0,2.4,0,3.6c0,0.1-0.2,0.2-0.4,0.3
		c-2.1,0.7-4.1,0.7-6.2,0c-1-0.3-2.1-0.6-3.2-0.7c-1.4-0.2-2.7,0.1-4,0.5c-0.9,0.3-1.8,0.5-2.8,0.6c-1.5,0.2-2.9-0.1-4.3-0.5
		c-1-0.3-2-0.5-3.1-0.7c-1.5-0.2-2.8,0.2-4.1,0.6c-0.8,0.2-1.7,0.4-2.6,0.6c-1.5,0.2-3-0.1-4.4-0.5c-1.4-0.4-2.8-0.8-4.3-0.6
		c-1,0.1-1.9,0.4-2.8,0.6c-0.9,0.2-1.7,0.4-2.6,0.6c-1.5,0.2-3-0.1-4.4-0.5c-1.4-0.4-2.8-0.8-4.3-0.6c-1,0.1-1.9,0.4-2.8,0.6
		c-0.8,0.2-1.7,0.4-2.5,0.6c-1.5,0.2-2.8,0-4.2-0.4c-0.2-0.1-0.4-0.3-0.4-0.5v-2.6c0-0.4,0.4-0.6,0.7-0.6c0,0,0,0,0,0
		c1.8,0.5,3.7,0.5,5.4,0c0.9-0.3,1.8-0.5,2.7-0.7c1.6-0.3,3.2-0.1,4.7,0.3c0.8,0.2,1.7,0.5,2.6,0.6c1.6,0.3,3.2,0,4.7-0.4
		c0.9-0.3,1.8-0.5,2.8-0.6c1.5-0.2,3,0.1,4.4,0.5c1,0.3,2,0.5,3,0.6c1.4,0.2,2.6-0.1,3.9-0.5c0.9-0.3,1.8-0.5,2.8-0.6
		c1.4-0.2,2.8,0,4.1,0.4c0.8,0.2,1.7,0.5,2.6,0.6c1.6,0.3,3.1,0,4.6-0.4c0.9-0.3,1.9-0.5,2.8-0.7c1.5-0.2,2.9,0.1,4.4,0.5
		c1,0.3,2,0.5,3,0.6c1.2,0.2,2.4-0.1,3.6-0.4C77.4,43.4,77.6,43.4,77.8,43.3 M104.1,10.4c-0.8,0-1.6,0-2.3,0c-0.4,0-0.6,0.2-0.6,0.5
		c0,0.3,0.2,0.4,0.6,0.4l3.6-0.9V7.5c0.3,0,0.5-0.1,0.7-0.1c1.6-0.3,2.8-1.1,3.6-2.5c0.7-1.4,0.9-2.9,0.8-4.5c0-0.3-0.2-0.4-0.5-0.4
		c-0.9,0-1.8,0.2-2.5,0.7c-1.2,0.8-1.9,1.9-2.3,3.2c-0.1,0.2-0.1,0.7-0.2,0.8c-0.3-0.7-0.6-1.8-1.1-2.5c-0.9-1.5-2.3-2.2-4-2.2
		c-0.4,0-0.5,0.1-0.5,0.5c-0.1,1.1,0.1,2.2,0.4,3.2c0.5,1.6,1.5,2.9,3.2,3.5c0.5,0.2,1,0.2,1.5,0.4v2.8H104.1z M86.7,10.4
		c-0.8,0-1.6,0-2.3,0c-0.4,0-0.6,0.2-0.6,0.5c0,0.3,0.2,0.4,0.6,0.4l3.6-0.9V7.5c0.3,0,0.5-0.1,0.7-0.1c1.6-0.3,2.8-1.1,3.6-2.5
		C93,3.5,93.2,2,93.1,0.4C93,0.1,92.9,0,92.6,0c-0.9,0-1.8,0.2-2.5,0.7c-1.2,0.8-1.9,1.9-2.3,3.2c-0.1,0.2-0.1,0.7-0.2,0.8
		c-0.3-0.7-0.6-1.8-1.1-2.5c-0.9-1.5-2.3-2.2-4-2.2C82.1,0,82,0.1,82,0.5c-0.1,1.1,0.1,2.2,0.4,3.2c0.5,1.6,1.5,2.9,3.2,3.5
		c0.5,0.2,1,0.2,1.5,0.4v2.8H86.7z M69.3,10.4c-0.8,0-1.6,0-2.3,0c-0.4,0-0.6,0.2-0.6,0.5c0,0.3,0.2,0.4,0.6,0.4l3.6-0.9V7.5
		c0.3,0,0.5-0.1,0.7-0.1c1.6-0.3,2.8-1.1,3.6-2.5c0.7-1.4,0.9-2.9,0.8-4.5c0-0.3-0.2-0.4-0.5-0.4c-0.9,0-1.8,0.2-2.5,0.7
		c-1.2,0.8-1.9,1.9-2.3,3.2c-0.1,0.2-0.1,0.7-0.2,0.8c-0.3-0.7-0.6-1.8-1.1-2.5c-0.9-1.5-2.3-2.2-4-2.2c-0.4,0-0.5,0.1-0.5,0.5
		c-0.1,1.1,0.1,2.2,0.4,3.2c0.5,1.6,1.5,2.9,3.2,3.5c0.5,0.2,1,0.2,1.5,0.4v2.8H69.3z M52,10.4c-0.8,0-1.6,0-2.3,0
		c-0.4,0-0.6,0.2-0.6,0.5c0,0.3,0.2,0.4,0.6,0.4l3.6-0.9V7.5c0.3,0,0.5-0.1,0.7-0.1c1.6-0.3,2.8-1.1,3.6-2.5
		c0.7-1.4,0.9-2.9,0.8-4.5c0-0.3-0.2-0.4-0.5-0.4c-0.9,0-1.8,0.2-2.5,0.7c-1.2,0.8-1.9,1.9-2.3,3.2c-0.1,0.2-0.1,0.7-0.2,0.8
		c-0.3-0.7-0.6-1.8-1.1-2.5c-0.9-1.5-2.3-2.2-4-2.2c-0.4,0-0.5,0.1-0.5,0.5c-0.1,1.1,0.1,2.2,0.4,3.2c0.5,1.6,1.5,2.9,3.2,3.5
		c0.5,0.2,1,0.2,1.5,0.4v2.8H52z M34.6,10.4c-0.8,0-1.6,0-2.3,0c-0.4,0-0.6,0.2-0.6,0.5c0,0.3,0.2,0.4,0.6,0.4l3.6-0.9V7.5
		c0.3,0,0.5-0.1,0.7-0.1c1.6-0.3,2.8-1.1,3.6-2.5c0.7-1.4,0.9-2.9,0.8-4.5c0-0.3-0.2-0.4-0.5-0.4c-0.9,0-1.8,0.2-2.5,0.7
		c-1.2,0.8-1.9,1.9-2.3,3.2c-0.1,0.2-0.1,0.7-0.2,0.8c-0.3-0.7-0.6-1.8-1.1-2.5c-0.9-1.5-2.3-2.2-4-2.2c-0.4,0-0.5,0.1-0.5,0.5
		c-0.1,1.1,0.1,2.2,0.4,3.2c0.5,1.6,1.5,2.9,3.2,3.5c0.5,0.2,1,0.2,1.5,0.4v2.8H34.6z M17.2,10.4c-0.8,0-1.6,0-2.3,0
		c-0.4,0-0.6,0.2-0.6,0.5c0,0.3,0.2,0.4,0.6,0.4l3.6-0.9V7.5c0.3,0,0.5-0.1,0.7-0.1c1.6-0.3,2.8-1.1,3.6-2.5
		c0.7-1.4,0.9-2.9,0.8-4.5c0-0.3-0.2-0.4-0.5-0.4c-0.9,0-1.8,0.2-2.5,0.7c-1.2,0.8-1.9,1.9-2.3,3.2c-0.1,0.2-0.1,0.7-0.2,0.8
		C17.7,4,17.4,2.9,17,2.2C16.1,0.8,14.7,0,13,0c-0.4,0-0.5,0.1-0.5,0.5c-0.1,1.1,0.1,2.2,0.4,3.2c0.5,1.6,1.5,2.9,3.2,3.5
		c0.5,0.2,1,0.2,1.5,0.4v2.8H17.2z M111.4,23.5c-0.8,0-1.6,0-2.3,0c-0.4,0-0.6,0.1-0.6,0.5c0,0.3,0.2,0.4,0.6,0.4l3.6-0.9v-2.9
		c0.3,0,0.5-0.1,0.7-0.1c1.6-0.3,2.8-1.1,3.6-2.5c0.7-1.4,0.9-2.9,0.8-4.5c0-0.3-0.2-0.4-0.5-0.4c-0.9,0-1.8,0.2-2.5,0.7
		c-1.2,0.8-1.9,1.9-2.3,3.2c-0.1,0.2-0.1,0.7-0.2,0.8c-0.3-0.7-0.6-1.8-1.1-2.5c-0.9-1.5-2.3-2.2-4-2.2c-0.4,0-0.5,0.1-0.5,0.5
		c-0.1,1.1,0.1,2.2,0.4,3.2c0.5,1.6,1.5,2.9,3.2,3.5c0.5,0.2,1,0.2,1.5,0.4v2.8H111.4z M94,23.5c-0.8,0-1.6,0-2.3,0
		c-0.4,0-0.6,0.1-0.6,0.5c0,0.3,0.2,0.4,0.6,0.4l3.6-0.9v-2.9c0.3,0,0.5-0.1,0.7-0.1c1.6-0.3,2.8-1.1,3.6-2.5
		c0.7-1.4,0.9-2.9,0.8-4.5c0-0.3-0.2-0.4-0.5-0.4c-0.9,0-1.8,0.2-2.5,0.7c-1.2,0.8-1.9,1.9-2.3,3.2c-0.1,0.2-0.1,0.7-0.2,0.8
		c-0.3-0.7-0.6-1.8-1.1-2.5c-0.9-1.5-2.3-2.2-4-2.2c-0.4,0-0.5,0.1-0.5,0.5c-0.1,1.1,0.1,2.2,0.4,3.2c0.5,1.6,1.5,2.9,3.2,3.5
		c0.5,0.2,1,0.2,1.5,0.4v2.8H94z M76.6,23.5c-0.8,0-1.6,0-2.3,0c-0.4,0-0.6,0.1-0.6,0.5c0,0.3,0.2,0.4,0.6,0.4l3.6-0.9v-2.9
		c0.3,0,0.5-0.1,0.7-0.1c1.6-0.3,2.8-1.1,3.6-2.5c0.7-1.4,0.9-2.9,0.8-4.5c0-0.3-0.2-0.4-0.5-0.4c-0.9,0-1.8,0.2-2.5,0.7
		c-1.2,0.8-1.9,1.9-2.3,3.2c-0.1,0.2-0.1,0.7-0.2,0.8c-0.3-0.7-0.6-1.8-1.1-2.5c-0.9-1.5-2.3-2.2-4-2.2c-0.4,0-0.5,0.1-0.5,0.5
		c-0.1,1.1,0.1,2.2,0.4,3.2c0.5,1.6,1.5,2.9,3.2,3.5c0.5,0.2,1,0.2,1.5,0.4v2.8H76.6z M59.2,23.5c-0.8,0-1.6,0-2.3,0
		c-0.4,0-0.6,0.1-0.6,0.5c0,0.3,0.2,0.4,0.6,0.4l3.6-0.9v-2.9c0.3,0,0.5-0.1,0.7-0.1c1.6-0.3,2.8-1.1,3.6-2.5
		c0.7-1.4,0.9-2.9,0.8-4.5c0-0.3-0.2-0.4-0.5-0.4c-0.9,0-1.8,0.2-2.5,0.7c-1.2,0.8-1.9,1.9-2.3,3.2c-0.1,0.2-0.1,0.7-0.2,0.8
		c-0.3-0.7-0.6-1.8-1.1-2.5c-0.9-1.5-2.3-2.2-4-2.2c-0.4,0-0.5,0.1-0.5,0.5c-0.1,1.1,0.1,2.2,0.4,3.2c0.5,1.6,1.5,2.9,3.2,3.5
		c0.5,0.2,1,0.2,1.5,0.4v2.8H59.2z M41.8,23.5c-0.8,0-1.6,0-2.3,0c-0.4,0-0.6,0.1-0.6,0.5c0,0.3,0.2,0.4,0.6,0.4l3.6-0.9v-2.9
		c0.3,0,0.5-0.1,0.7-0.1c1.6-0.3,2.8-1.1,3.6-2.5c0.7-1.4,0.9-2.9,0.8-4.5c0-0.3-0.2-0.4-0.5-0.4c-0.9,0-1.8,0.2-2.5,0.7
		c-1.2,0.8-1.9,1.9-2.3,3.2c-0.1,0.2-0.1,0.7-0.2,0.8c-0.3-0.7-0.6-1.8-1.1-2.5c-0.9-1.5-2.3-2.2-4-2.2c-0.4,0-0.5,0.1-0.5,0.5
		c-0.1,1.1,0.1,2.2,0.4,3.2c0.5,1.6,1.5,2.9,3.2,3.5c0.5,0.2,1,0.2,1.5,0.4v2.8H41.8z M24.5,23.5c-0.8,0-1.6,0-2.3,0
		c-0.4,0-0.6,0.1-0.6,0.5c0,0.3,0.2,0.4,0.6,0.4l3.6-0.9v-2.9c0.3,0,0.5-0.1,0.7-0.1c1.6-0.3,2.8-1.1,3.6-2.5
		c0.7-1.4,0.9-2.9,0.8-4.5c0-0.3-0.2-0.4-0.5-0.4c-0.9,0-1.8,0.2-2.5,0.7c-1.2,0.8-1.9,1.9-2.3,3.2c-0.1,0.2-0.1,0.7-0.2,0.8
		c-0.3-0.7-0.6-1.8-1.1-2.5c-0.9-1.5-2.3-2.2-4-2.2c-0.4,0-0.5,0.1-0.5,0.5c-0.1,1.1,0.1,2.2,0.4,3.2c0.5,1.6,1.5,2.9,3.2,3.5
		c0.5,0.2,1,0.2,1.5,0.4v2.8H24.5z M7.1,23.5c-0.8,0-1.6,0-2.3,0c-0.4,0-0.6,0.1-0.6,0.5c0,0.3,0.2,0.4,0.6,0.4l3.6-0.9v-2.9
		c0.3,0,0.5-0.1,0.7-0.1c1.6-0.3,2.8-1.1,3.6-2.5c0.7-1.4,0.9-2.9,0.8-4.5c0-0.3-0.2-0.4-0.5-0.4c-0.9,0-1.8,0.2-2.5,0.7
		c-1.2,0.8-1.9,1.9-2.3,3.2C8,17.1,8,17.7,7.9,17.8c-0.3-0.7-0.6-1.8-1.1-2.5c-0.9-1.5-2.3-2.2-4-2.2c-0.4,0-0.5,0.1-0.5,0.5
		c-0.1,1.1,0.1,2.2,0.4,3.2c0.5,1.6,1.5,2.9,3.2,3.5c0.5,0.2,1,0.2,1.5,0.4v2.8H7.1z M122.9,27.6c0,1.6,0,3.2,0,4.8
		c0,0.1-0.4,0.3-0.7,0.3c-4,0.9-8,0.9-12,0c-2-0.4-4.1-0.7-6.3-0.9c-2.7-0.3-5.2,0.2-7.7,0.7c-1.8,0.3-3.6,0.6-5.4,0.8
		c-2.9,0.3-5.6-0.1-8.4-0.6c-1.9-0.3-3.9-0.7-5.9-0.9c-2.8-0.3-5.4,0.2-8,0.7c-1.6,0.3-3.3,0.6-5,0.8c-3,0.3-5.8-0.1-8.5-0.7
		c-2.7-0.5-5.4-1.1-8.4-0.8c-1.8,0.2-3.6,0.5-5.4,0.8c-1.7,0.2-3.3,0.6-5,0.7c-3,0.3-5.7-0.1-8.4-0.7c-2.7-0.5-5.4-1.1-8.4-0.8
		c-1.8,0.2-3.6,0.5-5.4,0.7c-1.6,0.2-3.2,0.6-4.9,0.8c-3.1,0.3-6-0.1-8.8-0.7v-5c0.6,0.1,1.1,0.2,1.7,0.3c3.4,0.7,6.8,0.7,10.3,0
		c1.7-0.3,3.5-0.7,5.2-0.9c3.2-0.5,6.2-0.2,9.2,0.4c1.6,0.3,3.3,0.6,5,0.9c3.1,0.4,6.1,0,9.1-0.5c1.8-0.3,3.6-0.6,5.4-0.8
		c3-0.3,5.8,0.2,8.6,0.7c1.9,0.3,3.8,0.7,5.8,0.8c2.6,0.2,5.1-0.2,7.5-0.6c1.8-0.3,3.6-0.6,5.4-0.8c2.8-0.3,5.4,0.1,8,0.5
		c1.6,0.3,3.3,0.6,5,0.8c3.1,0.4,6.1,0,9-0.5c1.8-0.3,3.6-0.7,5.5-0.9c3-0.3,5.7,0.1,8.4,0.6c1.9,0.3,3.8,0.7,5.8,0.8
		c2.4,0.2,4.7-0.1,7-0.5C122.1,27.7,122.4,27.6,122.9,27.6 M84.4,28H105v2.5h-2.5v0.8c0,8.3,0,11.3,0,19.6c0,3.8-2.3,6.8-5.9,7.7
		c-0.7,0.2-1.4,0.2-2.1,0.2c-3.1,0-6.3,0-9.4,0h-0.7v2.6h-5.1V40.8h5.1v2.5h2.6V30.5h-2.5V28z"/>
</g>
</svg>
