<?xml version="1.0" encoding="utf-8"?>
<!-- Generator: Adobe Illustrator 21.0.2, SVG Export Plug-In . SVG Version: 6.00 Build 0)  -->
<svg version="1.1" id="Layer_1" xmlns="http://www.w3.org/2000/svg" xmlns:xlink="http://www.w3.org/1999/xlink" x="0px" y="0px"
	 viewBox="0 0 111.4 89.8" style="enable-background:new 0 0 111.4 89.8;" xml:space="preserve">
<style type="text/css">
	.st0{clip-path:url(#SVGID_2_);fill:#00B5EC;}
</style>
<g>
	<defs>
		<rect id="SVGID_1_" x="0.3" y="-0.1" width="110.9" height="89.9"/>
	</defs>
	<clipPath id="SVGID_2_">
		<use xlink:href="#SVGID_1_"  style="overflow:visible;"/>
	</clipPath>
	<path class="st0" d="M99.7,10.3c2.9,0,5.2-2.3,5.2-5.2c0-2.9-2.3-5.2-5.2-5.2c-2.9,0-5.2,2.3-5.2,5.2C94.5,7.9,96.8,10.3,99.7,10.3
		 M108.4,14.2c-1.2-1.7-2.7-2.7-4.9-2.6c-2.7,0.1-5.4,0-8.1,0c-1,0-2,0.3-2.8,0.9c-1.4,1-2.2,2.4-2.9,3.9c-1.1,2.8-1.5,5.8-1.5,8.8
		c-0.1,2.2,0,4.5,0.1,6.7c0,1.4,1.6,2.2,2.8,1.5c0.8-0.5,0.9-1.2,0.9-2.1c-0.2-2.8-0.2-5.6,0.1-8.4c0.2-1.7,0.4-3.5,1.1-5.1
		c0.1-0.2,0.1-0.3,0.2-0.5c0,0,0,0,0.1,0v17.1l12.5-0.1v-17c0,0,0.1,0,0.1,0c0.1,0.1,0.1,0.3,0.2,0.4c0.9,2.2,1.2,4.5,1.3,6.9
		c0.1,2.4,0,4.7-0.1,7.1c0,1,0.7,1.9,1.7,1.9c1,0.1,1.9-0.6,2-1.7c0.1-0.8,0.1-1.5,0.1-2.3c0.1-3.3,0-6.6-0.6-9.9
		C110.2,17.8,109.6,15.9,108.4,14.2 M77.9,37.5c2.9,0,5.2-2.3,5.2-5.2c0-2.8-2.3-5.2-5.2-5.2c-2.8,0-5.2,2.3-5.2,5.2
		C72.7,35.1,75.1,37.4,77.9,37.5 M86.7,41.4c-1.2-1.7-2.7-2.7-4.9-2.6c-2.7,0.1-5.4,0-8.1,0c-1,0-2,0.3-2.8,0.9
		c-1.4,1-2.2,2.4-2.9,3.9c-1.1,2.8-1.5,5.8-1.5,8.8c-0.1,2.2,0,4.5,0.1,6.7c0,1.4,1.6,2.2,2.8,1.5c0.8-0.5,0.9-1.2,0.9-2.1
		c-0.2-2.8-0.2-5.6,0.1-8.4c0.2-1.7,0.4-3.5,1.1-5.1c0.1-0.2,0.1-0.3,0.2-0.5c0,0,0,0,0.1,0v17.1l12.5-0.1v-17c0,0,0.1,0,0.1,0
		c0.1,0.1,0.1,0.3,0.2,0.4c0.9,2.2,1.2,4.5,1.3,6.9c0.1,2.4,0,4.7-0.1,7.1c0,1,0.7,1.9,1.7,1.9c1,0.1,1.9-0.7,2-1.7
		c0.1-0.8,0.1-1.5,0.1-2.3c0.1-3.3,0-6.6-0.6-9.9C88.5,45,87.9,43.1,86.7,41.4 M33.8,37.5c2.9,0,5.2-2.3,5.2-5.2
		c0-2.8-2.3-5.2-5.2-5.2c-2.9,0-5.2,2.3-5.2,5.2C28.6,35.1,31,37.4,33.8,37.5 M42.6,41.4c-1.2-1.7-2.7-2.7-4.9-2.6
		c-2.7,0.1-5.4,0-8.1,0c-1,0-2,0.3-2.8,0.9c-1.4,1-2.2,2.4-2.9,3.9c-1.1,2.8-1.5,5.8-1.5,8.8c-0.1,2.2,0,4.5,0.1,6.7
		c0,1.4,1.6,2.2,2.8,1.5c0.8-0.5,0.9-1.2,0.9-2.1c-0.2-2.8-0.2-5.6,0.1-8.4c0.2-1.7,0.4-3.5,1.1-5.1c0.1-0.2,0.1-0.3,0.2-0.5
		c0,0,0,0,0.1,0v17.1L40,61.5v-17c0,0,0.1,0,0.1,0c0.1,0.1,0.1,0.3,0.2,0.4c0.9,2.2,1.2,4.5,1.3,6.9c0.1,2.4,0,4.7-0.1,7.1
		c0,1,0.7,1.9,1.7,1.9c1,0.1,1.9-0.7,2-1.7c0.1-0.8,0.1-1.5,0.1-2.3c0.1-3.3,0-6.6-0.6-9.9C44.3,45,43.8,43.1,42.6,41.4 M55.9,65.7
		c2.9,0,5.2-2.3,5.2-5.2c0-2.8-2.3-5.2-5.2-5.2c-2.9,0-5.2,2.3-5.2,5.2C50.7,63.3,53,65.6,55.9,65.7 M64.6,69.6
		c-1.2-1.7-2.7-2.7-4.9-2.6c-2.7,0.1-5.4,0-8.1,0c-1,0-2,0.3-2.8,0.9c-1.4,1-2.2,2.4-2.9,3.9c-1.1,2.8-1.5,5.8-1.5,8.8
		c-0.1,2.2,0,4.5,0.1,6.7c0,1.4,1.6,2.2,2.8,1.5c0.8-0.5,0.9-1.2,0.9-2.1c-0.2-2.8-0.2-5.6,0.1-8.4c0.2-1.7,0.4-3.5,1.1-5.1
		c0.1-0.2,0.1-0.3,0.2-0.5c0,0,0,0,0.1,0v17.1l12.5-0.1v-17c0,0,0.1,0,0.1,0c0.1,0.1,0.1,0.3,0.2,0.4c0.9,2.2,1.2,4.5,1.3,6.9
		c0.1,2.4,0,4.7-0.1,7.1c0,1,0.7,1.9,1.7,1.9c1,0.1,1.9-0.7,2-1.7c0.1-0.8,0.1-1.5,0.1-2.3c0.1-3.3,0-6.6-0.6-9.9
		C66.4,73.2,65.8,71.3,64.6,69.6 M55.9,10.3c2.9,0,5.2-2.3,5.2-5.2c0-2.9-2.3-5.2-5.2-5.2c-2.9,0-5.2,2.3-5.2,5.2
		C50.7,7.9,53,10.3,55.9,10.3 M64.6,14.2c-1.2-1.7-2.7-2.7-4.9-2.6c-2.7,0.1-5.4,0-8.1,0c-1,0-2,0.3-2.8,0.9c-1.4,1-2.2,2.4-2.9,3.9
		c-1.1,2.8-1.5,5.8-1.5,8.8c-0.1,2.2,0,4.5,0.1,6.7c0,1.4,1.6,2.2,2.8,1.5c0.8-0.5,0.9-1.2,0.9-2.1c-0.2-2.8-0.2-5.6,0.1-8.4
		c0.2-1.7,0.4-3.5,1.1-5.1c0.1-0.2,0.1-0.3,0.2-0.5c0,0,0,0,0.1,0v17.1l12.5-0.1v-17c0,0,0.1,0,0.1,0c0.1,0.1,0.1,0.3,0.2,0.4
		c0.9,2.2,1.2,4.5,1.3,6.9c0.1,2.4,0,4.7-0.1,7.1c0,1,0.7,1.9,1.7,1.9c1,0.1,1.9-0.6,2-1.7c0.1-0.8,0.1-1.5,0.1-2.3
		c0.1-3.3,0-6.6-0.6-9.9C66.4,17.8,65.8,15.9,64.6,14.2 M11.7,10.3c2.9,0,5.2-2.3,5.2-5.2c0-2.9-2.3-5.2-5.2-5.2
		c-2.9,0-5.2,2.3-5.2,5.2C6.6,7.9,8.9,10.3,11.7,10.3 M20.5,14.2c-1.2-1.7-2.7-2.7-4.9-2.6c-2.7,0.1-5.4,0-8.1,0c-1,0-2,0.3-2.8,0.9
		c-1.4,1-2.2,2.4-2.9,3.9c-1.1,2.8-1.5,5.8-1.5,8.8c-0.1,2.2,0,4.5,0.1,6.7c0,1.4,1.6,2.2,2.8,1.5c0.8-0.5,0.9-1.2,0.9-2.1
		c-0.2-2.8-0.2-5.6,0.1-8.4c0.2-1.7,0.4-3.5,1.1-5.1c0.1-0.2,0.1-0.3,0.2-0.5c0,0,0,0,0.1,0v17.1L18,34.4v-17c0,0,0.1,0,0.1,0
		c0.1,0.1,0.1,0.3,0.2,0.4c0.9,2.2,1.2,4.5,1.3,6.9c0.1,2.4,0,4.7-0.1,7.1c0,1,0.7,1.9,1.7,1.9c1,0.1,1.9-0.6,2-1.7
		c0.1-0.8,0.1-1.5,0.1-2.3c0.1-3.3,0-6.6-0.6-9.9C22.3,17.8,21.7,15.9,20.5,14.2"/>
</g>
</svg>
