<?xml version="1.0" encoding="utf-8"?>
<!-- Generator: Adobe Illustrator 21.0.2, SVG Export Plug-In . SVG Version: 6.00 Build 0)  -->
<svg version="1.1" id="Layer_1" xmlns="http://www.w3.org/2000/svg" xmlns:xlink="http://www.w3.org/1999/xlink" x="0px" y="0px"
	 viewBox="0 0 81.4 56" style="enable-background:new 0 0 81.4 56;" xml:space="preserve">
<style type="text/css">
	.st0{clip-path:url(#SVGID_2_);fill:#00B5ED;}
</style>
<title>about_wealsoare_icon_06</title>
<g>
	<defs>
		<rect id="SVGID_1_" width="81.4" height="56"/>
	</defs>
	<clipPath id="SVGID_2_">
		<use xlink:href="#SVGID_1_"  style="overflow:visible;"/>
	</clipPath>
	<path class="st0" d="M72,49.4l-23.3,0c0.9,1.2,2.4,2.2,4,2.7h21.2v0C72.8,52,72.2,50.1,72,49.4 M68.9,48.2c-1.2,0-2.3-3.5-2.3-7.8
		s1-7.8,2.3-7.8v0H44.6c0.4,6.4,1.5,11.9,3.2,15.6H68.9z M69.7,48.2c1.2,0,2.3-3.4,2.3-7.6c0-4.2-1-7.6-2.3-7.6
		c-1.2,0-2.3,3.4-2.3,7.6C67.5,44.7,68.5,48.2,69.7,48.2 M44.5,28.1c0,1.1,0,2.1,0.1,3.1h22.5c-1.2,0-2.3-3.5-2.3-7.8s1-7.8,2.3-7.8
		v0H45.5C44.9,19.3,44.5,23.6,44.5,28.1 M67.9,31.2c1.2,0,2.3-3.4,2.3-7.6c0-4.2-1-7.6-2.3-7.6c-1.2,0-2.3,3.4-2.3,7.6
		C65.6,27.7,66.6,31.2,67.9,31.2 M73.7,35.8c1.2,0,2.3-3.4,2.3-7.6c0-4.2-1-7.6-2.3-7.6c-1.2,0-2.3,3.4-2.3,7.6
		C71.5,32.4,72.5,35.8,73.7,35.8 M45.8,14.5l24.6,0.1c-0.2-1.5-0.2-2.3-0.2-2.5c0-4.3,1-7.8,2.3-7.8v0H50.1
		C48.3,6.1,46.8,9.7,45.8,14.5 M73.3,19.8c1.2,0,2.3-3.4,2.3-7.6c0-4.2-1-7.6-2.3-7.6C72,4.5,71,7.9,71,12.2
		C71,16.4,72,19.8,73.3,19.8 M74.8,36.2c-1.2,0-2.3,3.4-2.3,7.6c0,4.2,1,7.6,2.3,7.6c1.2,0,2.3-3.4,2.3-7.6
		C77,39.7,76,36.2,74.8,36.2 M78.4,23.7c1.2,0,2.3-3.4,2.3-7.6s-1-7.6-2.3-7.6c-1.2,0-2.3,3.4-2.3,7.6S77.2,23.7,78.4,23.7
		 M79.1,24.4c-1.2,0-2.3,3.4-2.3,7.6c0,4.2,1,7.6,2.3,7.6c1.2,0,2.3-3.4,2.3-7.6C81.4,27.9,80.4,24.4,79.1,24.4 M50.1,56H9.1v0
		C4.1,55.8,0,43.4,0,28S4.1,0.2,9.1,0v0h0.1c0,0,0,0,0,0c0,0,0,0,0,0h40.9v0.1c-4.5,0-8.1,12.5-8.1,28S45.7,56,50.1,56"/>
</g>
</svg>
