<?xml version="1.0" encoding="utf-8"?>
<!-- Generator: Adobe Illustrator 21.0.2, SVG Export Plug-In . SVG Version: 6.00 Build 0)  -->
<svg version="1.1" id="Layer_1" xmlns="http://www.w3.org/2000/svg" xmlns:xlink="http://www.w3.org/1999/xlink" x="0px" y="0px"
	 viewBox="0 0 180.8 100.1" style="enable-background:new 0 0 180.8 100.1;" xml:space="preserve">
<style type="text/css">
	.st0{clip-path:url(#SVGID_2_);fill:#00B5EC;}
</style>
<g>
	<defs>
		<rect id="SVGID_1_" width="180.7" height="100.1"/>
	</defs>
	<clipPath id="SVGID_2_">
		<use xlink:href="#SVGID_1_"  style="overflow:visible;"/>
	</clipPath>
	<path class="st0" d="M119.4,22.7c5.1,0.8,9.7-2.2,10.9-7.1c0.5-1.9-0.7-3.7-2.7-4.1c-1.9-0.4-3.9,0.7-4.3,2.6
		c-0.5,2.1-2.5,1.9-2.8,1.8c-1.6-0.2-2.4-1.6-2.2-3.8c0.3-3.6,3.2-5.3,5.8-5.3h0c3,0,6.4,2.1,6.9,8.1c0.3,3.3-0.4,5.7-2.2,7.4
		c-3.4,3.4-9.6,3.3-9.8,3.3H56.5c-2,0-3.6,1.5-3.6,3.4c0,1.9,1.6,3.4,3.6,3.4H119c0,0,0.1,0,0.3,0c1.7,0,9.7-0.3,14.8-5.4
		c3.2-3.2,4.6-7.5,4.1-12.8c-0.8-9.9-7.6-14.4-14-14.4h-0.1c-5.9,0-12.2,3.9-13,11.5C110.6,18.2,115,22,119.4,22.7"/>
	<path class="st0" d="M154.8,39.1c5.7,0.9,12.4-2,14.2-9.2c0.5-1.9-0.7-3.7-2.7-4.1c-1.9-0.4-3.9,0.7-4.3,2.6
		c-0.8,3.2-3.6,4.3-6,3.9c-2.6-0.4-5.1-2.5-4.7-7.3c0.6-6.4,5.7-9.2,10.3-9.2h0c5,0,11,3.5,11.9,13.4c0.4,5.2-0.8,9.4-3.7,12.3
		c-5.5,5.6-15.5,5.4-15.7,5.4H61.7c-2,0-3.6,1.5-3.6,3.4c0,1.9,1.6,3.4,3.6,3.4H154c0,0,0.2,0,0.4,0c2.4,0,13.5-0.4,20.5-7.5
		c4.4-4.4,6.3-10.3,5.6-17.6c-1.1-13.6-10.4-19.7-19-19.7c-7.9-0.1-16.5,5.3-17.5,15.5C143.2,33.2,149,38.2,154.8,39.1"/>
	<path class="st0" d="M114.1,84.2c0.2,0,2.3-0.3,2.8,1.8c0.5,1.9,2.4,3,4.3,2.6c1.9-0.4,3.1-2.3,2.7-4.1c-1.2-4.9-5.8-7.9-10.9-7.1
		c-4.4,0.7-8.9,4.5-8.2,11.2c0.7,7.6,7.1,11.5,13,11.5h0.1c6.4,0,13.2-4.5,14-14.4c0.4-5.3-0.9-9.6-4.1-12.8
		c-5.6-5.6-14.7-5.4-15-5.4H50.1c-2,0-3.6,1.5-3.6,3.4c0,1.9,1.6,3.4,3.6,3.4h62.7c0.1,0,6.3-0.1,9.7,3.3c1.7,1.7,2.4,4.2,2.2,7.4
		c-0.5,5.9-3.9,8-6.9,8.1c-2.5,0.1-5.5-1.6-5.8-5.2C111.7,85.8,112.5,84.4,114.1,84.2"/>
	<path class="st0" d="M9.3,92.4h80.5c5.1,0,9.3-4.9,9.3-11v-3.9H59.5c-3,0-5.5-2.9-5.5-6.5c0-3.6,2.4-6.5,5.5-6.5l39.5,0v-8.3H68.6
		c-3,0-5.4-2.9-5.4-6.5c0-3.6,2.4-6.5,5.4-6.5H99V35H65c-3,0-5.4-2.9-5.4-6.5c0-3.6,2.4-6.5,5.4-6.5H99v-0.4c0-6.1-4.2-11-9.3-11
		H9.3c-5.1,0-9.3,4.9-9.3,11v59.6C0,87.4,4.2,92.4,9.3,92.4"/>
</g>
</svg>
