<?xml version="1.0" encoding="utf-8"?>
<!-- Generator: Adobe Illustrator 21.0.2, SVG Export Plug-In . SVG Version: 6.00 Build 0)  -->
<svg version="1.1" id="Layer_1" xmlns="http://www.w3.org/2000/svg" xmlns:xlink="http://www.w3.org/1999/xlink" x="0px" y="0px"
	 viewBox="0 0 165.9 85.1" style="enable-background:new 0 0 165.9 85.1;" xml:space="preserve">
<style type="text/css">
	.st0{clip-path:url(#SVGID_2_);fill:#00B5EC;}
</style>
<g>
	<defs>
		<rect id="SVGID_1_" width="165.9" height="85.1"/>
	</defs>
	<clipPath id="SVGID_2_">
		<use xlink:href="#SVGID_1_"  style="overflow:visible;"/>
	</clipPath>
	<path class="st0" d="M150.3,71.8c-1.1,0-2.1,0-3.2,0c-0.5,0-0.8,0.2-0.8,0.6c0,0.4,0.2,0.6,0.8,0.6l4.9-1.2v-3.9
		c0.4,0,0.7-0.1,1-0.1c2.2-0.4,3.8-1.5,4.8-3.4c1-1.9,1.2-3.9,1-6.1c0-0.4-0.3-0.6-0.6-0.6c-1.2,0-2.4,0.3-3.4,1
		c-1.6,1-2.5,2.6-3.2,4.3c-0.1,0.2-0.2,1-0.2,1.1c-0.5-0.9-0.9-2.5-1.4-3.4c-1.3-2-3.1-3-5.4-3c-0.5,0-0.7,0.2-0.7,0.7
		c-0.1,1.5,0.1,2.9,0.5,4.3c0.7,2.2,2,3.9,4.3,4.7c0.7,0.2,1.4,0.3,2.1,0.5v3.8H150.3z M126.9,71.8c-1.1,0-2.1,0-3.2,0
		c-0.5,0-0.8,0.2-0.8,0.6c0,0.4,0.2,0.6,0.8,0.6l4.9-1.2v-3.9c0.4,0,0.7-0.1,1-0.1c2.2-0.4,3.8-1.5,4.8-3.4c1-1.9,1.2-3.9,1-6.1
		c0-0.4-0.3-0.6-0.6-0.6c-1.2,0-2.4,0.3-3.4,1c-1.6,1-2.5,2.6-3.2,4.3c-0.1,0.2-0.2,1-0.2,1.1c-0.5-0.9-0.9-2.5-1.4-3.4
		c-1.3-2-3.1-3-5.4-3c-0.5,0-0.7,0.2-0.7,0.7c-0.1,1.5,0.1,2.9,0.5,4.3c0.7,2.2,2,3.9,4.3,4.7c0.7,0.2,1.4,0.3,2.1,0.5v3.8H126.9z
		 M103.4,71.8c-1.1,0-2.1,0-3.2,0c-0.5,0-0.8,0.2-0.8,0.6c0,0.4,0.2,0.6,0.8,0.6l4.9-1.2v-3.9c0.4,0,0.7-0.1,1-0.1
		c2.2-0.4,3.8-1.5,4.8-3.4c1-1.9,1.2-3.9,1-6.1c0-0.4-0.3-0.6-0.6-0.6c-1.2,0-2.4,0.3-3.4,1c-1.6,1-2.5,2.6-3.2,4.3
		c-0.1,0.2-0.2,1-0.2,1.1c-0.5-0.9-0.9-2.5-1.4-3.4c-1.3-2-3.1-3-5.4-3c-0.5,0-0.7,0.2-0.7,0.7c-0.1,1.5,0.1,2.9,0.5,4.3
		c0.7,2.2,2,3.9,4.3,4.7c0.7,0.2,1.4,0.3,2.1,0.5v3.8H103.4z M79.9,71.8c-1.1,0-2.1,0-3.2,0c-0.5,0-0.8,0.2-0.8,0.6
		c0,0.4,0.2,0.6,0.8,0.6l4.9-1.2v-3.9c0.4,0,0.7-0.1,1-0.1c2.2-0.4,3.8-1.5,4.8-3.4c1-1.9,1.2-3.9,1-6.1c0-0.4-0.3-0.6-0.6-0.6
		c-1.2,0-2.4,0.3-3.4,1c-1.6,1-2.5,2.6-3.2,4.3c-0.1,0.2-0.2,1-0.2,1.1c-0.5-0.9-0.9-2.5-1.4-3.4c-1.3-2-3.1-3-5.4-3
		c-0.5,0-0.7,0.2-0.7,0.7c-0.1,1.5,0.1,2.9,0.5,4.3c0.7,2.2,2,3.9,4.3,4.7c0.7,0.2,1.4,0.3,2.1,0.5v3.8H79.9z M56.5,71.8
		c-1.1,0-2.1,0-3.2,0c-0.5,0-0.8,0.2-0.8,0.6c0,0.4,0.2,0.6,0.8,0.6l4.9-1.2v-3.9c0.4,0,0.7-0.1,1-0.1c2.2-0.4,3.8-1.5,4.8-3.4
		c1-1.9,1.2-3.9,1-6.1c0-0.4-0.3-0.6-0.6-0.6c-1.2,0-2.4,0.3-3.4,1c-1.6,1-2.5,2.6-3.2,4.3c-0.1,0.2-0.2,1-0.2,1.1
		c-0.5-0.9-0.9-2.5-1.4-3.4c-1.3-2-3.1-3-5.4-3c-0.5,0-0.7,0.2-0.7,0.7c-0.1,1.5,0.1,2.9,0.5,4.3c0.7,2.2,2,3.9,4.3,4.7
		c0.7,0.2,1.4,0.3,2.1,0.5v3.8H56.5z M33,71.8c-1.1,0-2.1,0-3.2,0c-0.5,0-0.8,0.2-0.8,0.6c0,0.4,0.2,0.6,0.8,0.6l4.9-1.2v-3.9
		c0.4,0,0.7-0.1,1-0.1c2.2-0.4,3.8-1.5,4.8-3.4c1-1.9,1.2-3.9,1-6.1c0-0.4-0.3-0.6-0.6-0.6c-1.2,0-2.4,0.3-3.4,1
		c-1.6,1-2.5,2.6-3.2,4.3c-0.1,0.2-0.2,1-0.2,1.1c-0.5-0.9-0.9-2.5-1.4-3.4c-1.3-2-3.1-3-5.4-3c-0.5,0-0.7,0.2-0.7,0.7
		c-0.1,1.5,0.1,2.9,0.5,4.3c0.7,2.2,2,3.9,4.3,4.7c0.7,0.2,1.4,0.3,2.1,0.5v3.8H33z M9.6,71.8c-1.1,0-2.1,0-3.2,0
		c-0.5,0-0.8,0.2-0.8,0.6c0,0.4,0.2,0.6,0.8,0.6l4.9-1.2v-3.9c0.4,0,0.7-0.1,1-0.1c2.2-0.4,3.8-1.5,4.8-3.4c1-1.9,1.2-3.9,1-6.1
		c0-0.4-0.3-0.6-0.6-0.6c-1.2,0-2.4,0.3-3.4,1c-1.6,1-2.5,2.6-3.2,4.3c-0.1,0.2-0.2,1-0.2,1.1c-0.5-0.9-0.9-2.5-1.4-3.4
		c-1.3-2-3.1-3-5.4-3c-0.5,0-0.7,0.2-0.7,0.7c-0.1,1.5,0.1,2.9,0.5,4.3c0.7,2.2,2,3.9,4.3,4.7c0.7,0.2,1.4,0.3,2.1,0.5v3.8H9.6z
		 M165.9,77.3c0,2.2,0,4.3,0,6.4c0,0.2-0.5,0.4-0.9,0.5c-5.4,1.2-10.8,1.2-16.2,0.1c-2.7-0.6-5.6-1-8.5-1.3
		c-3.6-0.3-7.1,0.3-10.4,0.9c-2.4,0.4-4.8,0.9-7.3,1.1c-3.9,0.4-7.6-0.2-11.3-0.9c-2.6-0.5-5.3-0.9-8-1.2c-3.8-0.3-7.3,0.3-10.8,1
		c-2.2,0.4-4.5,0.8-6.8,1c-4,0.4-7.8-0.2-11.5-0.9c-3.6-0.7-7.3-1.4-11.3-1.1c-2.5,0.2-4.9,0.7-7.3,1c-2.3,0.3-4.5,0.8-6.8,1
		c-4,0.4-7.7-0.2-11.4-0.9c-3.6-0.7-7.3-1.4-11.3-1.1c-2.5,0.2-4.9,0.6-7.3,1c-2.2,0.3-4.4,0.8-6.6,1C7.7,85.4,3.8,84.8,0,84v-6.7
		c0.8,0.1,1.5,0.3,2.3,0.4c4.6,0.9,9.2,0.9,13.9,0c2.3-0.4,4.7-0.9,7.1-1.3c4.3-0.6,8.4-0.2,12.4,0.6c2.2,0.4,4.4,0.9,6.7,1.1
		c4.2,0.5,8.3,0,12.2-0.7c2.4-0.5,4.8-0.9,7.3-1.1c4-0.4,7.8,0.2,11.5,0.9c2.6,0.5,5.2,0.9,7.9,1.1c3.5,0.3,6.9-0.3,10.2-0.9
		c2.4-0.4,4.8-0.9,7.3-1.1c3.7-0.4,7.3,0.1,10.8,0.7c2.2,0.4,4.4,0.9,6.7,1.1c4.2,0.5,8.2,0,12.1-0.7c2.4-0.5,4.9-0.9,7.4-1.2
		c4-0.4,7.7,0.2,11.4,0.9c2.6,0.5,5.2,0.9,7.8,1.1c3.2,0.3,6.4-0.1,9.4-0.7C164.8,77.5,165.3,77.4,165.9,77.3 M150.3,14.1
		c-1.1,0-2.1,0-3.2,0c-0.5,0-0.8,0.2-0.8,0.6c0,0.4,0.2,0.6,0.8,0.6L152,14v-3.9c0.4,0,0.7-0.1,1-0.1c2.2-0.4,3.8-1.5,4.8-3.4
		c1-1.9,1.2-3.9,1-6.1c0-0.4-0.3-0.6-0.6-0.6c-1.2,0-2.4,0.3-3.4,1c-1.6,1-2.5,2.6-3.2,4.3c-0.1,0.2-0.2,1-0.2,1.1
		C151,5.4,150.6,3.9,150,3c-1.3-2-3.1-3-5.4-3c-0.5,0-0.7,0.2-0.7,0.7c-0.1,1.5,0.1,2.9,0.5,4.3c0.7,2.2,2,3.9,4.3,4.7
		c0.7,0.2,1.4,0.3,2.1,0.5v3.8H150.3z M126.9,14.1c-1.1,0-2.1,0-3.2,0c-0.5,0-0.8,0.2-0.8,0.6c0,0.4,0.2,0.6,0.8,0.6l4.9-1.2v-3.9
		c0.4,0,0.7-0.1,1-0.1c2.2-0.4,3.8-1.5,4.8-3.4c1-1.9,1.2-3.9,1-6.1c0-0.4-0.3-0.6-0.6-0.6c-1.2,0-2.4,0.3-3.4,1
		c-1.6,1-2.5,2.6-3.2,4.3c-0.1,0.2-0.2,1-0.2,1.1c-0.5-0.9-0.9-2.5-1.4-3.4c-1.3-2-3.1-3-5.4-3c-0.5,0-0.7,0.2-0.7,0.7
		c-0.1,1.5,0.1,2.9,0.5,4.3c0.7,2.2,2,3.9,4.3,4.7c0.7,0.2,1.4,0.3,2.1,0.5v3.8H126.9z M103.4,14.1c-1.1,0-2.1,0-3.2,0
		c-0.5,0-0.8,0.2-0.8,0.6c0,0.4,0.2,0.6,0.8,0.6l4.9-1.2v-3.9c0.4,0,0.7-0.1,1-0.1c2.2-0.4,3.8-1.5,4.8-3.4c1-1.9,1.2-3.9,1-6.1
		c0-0.4-0.3-0.6-0.6-0.6c-1.2,0-2.4,0.3-3.4,1c-1.6,1-2.5,2.6-3.2,4.3c-0.1,0.2-0.2,1-0.2,1.1c-0.5-0.9-0.9-2.5-1.4-3.4
		c-1.3-2-3.1-3-5.4-3C97.2,0,97,0.2,97,0.7C96.9,2.2,97,3.6,97.5,5c0.7,2.2,2,3.9,4.3,4.7c0.7,0.2,1.4,0.3,2.1,0.5v3.8H103.4z
		 M79.9,14.1c-1.1,0-2.1,0-3.2,0c-0.5,0-0.8,0.2-0.8,0.6c0,0.4,0.2,0.6,0.8,0.6l4.9-1.2v-3.9c0.4,0,0.7-0.1,1-0.1
		c2.2-0.4,3.8-1.5,4.8-3.4c1-1.9,1.2-3.9,1-6.1c0-0.4-0.3-0.6-0.6-0.6c-1.2,0-2.4,0.3-3.4,1c-1.6,1-2.5,2.6-3.2,4.3
		c-0.1,0.2-0.2,1-0.2,1.1c-0.5-0.9-0.9-2.5-1.4-3.4c-1.3-2-3.1-3-5.4-3c-0.5,0-0.7,0.2-0.7,0.7C73.4,2.2,73.6,3.6,74,5
		c0.7,2.2,2,3.9,4.3,4.7c0.7,0.2,1.4,0.3,2.1,0.5v3.8H79.9z M56.5,14.1c-1.1,0-2.1,0-3.2,0c-0.5,0-0.8,0.2-0.8,0.6
		c0,0.4,0.2,0.6,0.8,0.6l4.9-1.2v-3.9c0.4,0,0.7-0.1,1-0.1C61.3,9.7,63,8.6,64,6.6c1-1.9,1.2-3.9,1-6.1C65,0.2,64.8,0,64.4,0
		C63.2,0,62,0.3,61,1c-1.6,1-2.5,2.6-3.2,4.3c-0.1,0.2-0.2,1-0.2,1.1c-0.5-0.9-0.9-2.5-1.4-3.4c-1.3-2-3.1-3-5.4-3
		c-0.5,0-0.7,0.2-0.7,0.7C50,2.2,50.1,3.6,50.6,5c0.7,2.2,2,3.9,4.3,4.7c0.7,0.2,1.4,0.3,2.1,0.5v3.8H56.5z M33,14.1
		c-1.1,0-2.1,0-3.2,0c-0.5,0-0.8,0.2-0.8,0.6c0,0.4,0.2,0.6,0.8,0.6l4.9-1.2v-3.9c0.4,0,0.7-0.1,1-0.1c2.2-0.4,3.8-1.5,4.8-3.4
		c1-1.9,1.2-3.9,1-6.1c0-0.4-0.3-0.6-0.6-0.6c-1.2,0-2.4,0.3-3.4,1c-1.6,1-2.5,2.6-3.2,4.3c-0.1,0.2-0.2,1-0.2,1.1
		c-0.5-0.9-0.9-2.5-1.4-3.4c-1.3-2-3.1-3-5.4-3c-0.5,0-0.7,0.2-0.7,0.7c-0.1,1.5,0.1,2.9,0.5,4.3c0.7,2.2,2,3.9,4.3,4.7
		c0.7,0.2,1.4,0.3,2.1,0.5v3.8H33z M9.6,14.1c-1.1,0-2.1,0-3.2,0c-0.5,0-0.8,0.2-0.8,0.6c0,0.4,0.2,0.6,0.8,0.6l4.9-1.2v-3.9
		c0.4,0,0.7-0.1,1-0.1c2.2-0.4,3.8-1.5,4.8-3.4c1-1.9,1.2-3.9,1-6.1c0-0.4-0.3-0.6-0.6-0.6c-1.2,0-2.4,0.3-3.4,1
		c-1.6,1-2.5,2.6-3.2,4.3c-0.1,0.2-0.2,1-0.2,1.1C10.2,5.4,9.8,3.9,9.3,3C8,1,6.2,0,3.8,0C3.4,0,3.1,0.2,3.1,0.7
		C3,2.2,3.2,3.6,3.6,5c0.7,2.2,2,3.9,4.3,4.7c0.7,0.2,1.4,0.3,2.1,0.5v3.8H9.6z M150.3,44.6c-1.1,0-2.1,0-3.2,0
		c-0.5,0-0.8,0.2-0.8,0.6c0,0.4,0.2,0.6,0.8,0.6l4.9-1.2v-3.9c0.4,0,0.7-0.1,1-0.1c2.2-0.4,3.8-1.5,4.8-3.4c1-1.9,1.2-3.9,1-6.1
		c0-0.4-0.3-0.6-0.6-0.6c-1.2,0-2.4,0.3-3.4,1c-1.6,1-2.5,2.6-3.2,4.3c-0.1,0.2-0.2,1-0.2,1.1c-0.5-0.9-0.9-2.5-1.4-3.4
		c-1.3-2-3.1-3-5.4-3c-0.5,0-0.7,0.2-0.7,0.7c-0.1,1.5,0.1,2.9,0.5,4.3c0.7,2.2,2,3.9,4.3,4.7c0.7,0.2,1.4,0.3,2.1,0.5v3.8H150.3z
		 M126.9,44.6c-1.1,0-2.1,0-3.2,0c-0.5,0-0.8,0.2-0.8,0.6c0,0.4,0.2,0.6,0.8,0.6l4.9-1.2v-3.9c0.4,0,0.7-0.1,1-0.1
		c2.2-0.4,3.8-1.5,4.8-3.4c1-1.9,1.2-3.9,1-6.1c0-0.4-0.3-0.6-0.6-0.6c-1.2,0-2.4,0.3-3.4,1c-1.6,1-2.5,2.6-3.2,4.3
		c-0.1,0.2-0.2,1-0.2,1.1c-0.5-0.9-0.9-2.5-1.4-3.4c-1.3-2-3.1-3-5.4-3c-0.5,0-0.7,0.2-0.7,0.7c-0.1,1.5,0.1,2.9,0.5,4.3
		c0.7,2.2,2,3.9,4.3,4.7c0.7,0.2,1.4,0.3,2.1,0.5v3.8H126.9z M103.4,44.6c-1.1,0-2.1,0-3.2,0c-0.5,0-0.8,0.2-0.8,0.6
		c0,0.4,0.2,0.6,0.8,0.6l4.9-1.2v-3.9c0.4,0,0.7-0.1,1-0.1c2.2-0.4,3.8-1.5,4.8-3.4c1-1.9,1.2-3.9,1-6.1c0-0.4-0.3-0.6-0.6-0.6
		c-1.2,0-2.4,0.3-3.4,1c-1.6,1-2.5,2.6-3.2,4.3c-0.1,0.2-0.2,1-0.2,1.1c-0.5-0.9-0.9-2.5-1.4-3.4c-1.3-2-3.1-3-5.4-3
		c-0.5,0-0.7,0.2-0.7,0.7c-0.1,1.5,0.1,2.9,0.5,4.3c0.7,2.2,2,3.9,4.3,4.7c0.7,0.2,1.4,0.3,2.1,0.5v3.8H103.4z M79.9,44.6
		c-1.1,0-2.1,0-3.2,0c-0.5,0-0.8,0.2-0.8,0.6c0,0.4,0.2,0.6,0.8,0.6l4.9-1.2v-3.9c0.4,0,0.7-0.1,1-0.1c2.2-0.4,3.8-1.5,4.8-3.4
		c1-1.9,1.2-3.9,1-6.1c0-0.4-0.3-0.6-0.6-0.6c-1.2,0-2.4,0.3-3.4,1c-1.6,1-2.5,2.6-3.2,4.3c-0.1,0.2-0.2,1-0.2,1.1
		c-0.5-0.9-0.9-2.5-1.4-3.4c-1.3-2-3.1-3-5.4-3c-0.5,0-0.7,0.2-0.7,0.7c-0.1,1.5,0.1,2.9,0.5,4.3c0.7,2.2,2,3.9,4.3,4.7
		c0.7,0.2,1.4,0.3,2.1,0.5v3.8H79.9z M56.5,44.6c-1.1,0-2.1,0-3.2,0c-0.5,0-0.8,0.2-0.8,0.6c0,0.4,0.2,0.6,0.8,0.6l4.9-1.2v-3.9
		c0.4,0,0.7-0.1,1-0.1c2.2-0.4,3.8-1.5,4.8-3.4c1-1.9,1.2-3.9,1-6.1c0-0.4-0.3-0.6-0.6-0.6c-1.2,0-2.4,0.3-3.4,1
		c-1.6,1-2.5,2.6-3.2,4.3c-0.1,0.2-0.2,1-0.2,1.1c-0.5-0.9-0.9-2.5-1.4-3.4c-1.3-2-3.1-3-5.4-3c-0.5,0-0.7,0.2-0.7,0.7
		c-0.1,1.5,0.1,2.9,0.5,4.3c0.7,2.2,2,3.9,4.3,4.7c0.7,0.2,1.4,0.3,2.1,0.5v3.8H56.5z M33,44.6c-1.1,0-2.1,0-3.2,0
		c-0.5,0-0.8,0.2-0.8,0.6c0,0.4,0.2,0.6,0.8,0.6l4.9-1.2v-3.9c0.4,0,0.7-0.1,1-0.1c2.2-0.4,3.8-1.5,4.8-3.4c1-1.9,1.2-3.9,1-6.1
		c0-0.4-0.3-0.6-0.6-0.6c-1.2,0-2.4,0.3-3.4,1c-1.6,1-2.5,2.6-3.2,4.3c-0.1,0.2-0.2,1-0.2,1.1c-0.5-0.9-0.9-2.5-1.4-3.4
		c-1.3-2-3.1-3-5.4-3c-0.5,0-0.7,0.2-0.7,0.7c-0.1,1.5,0.1,2.9,0.5,4.3c0.7,2.2,2,3.9,4.3,4.7c0.7,0.2,1.4,0.3,2.1,0.5v3.8H33z
		 M9.6,44.6c-1.1,0-2.1,0-3.2,0c-0.5,0-0.8,0.2-0.8,0.6c0,0.4,0.2,0.6,0.8,0.6l4.9-1.2v-3.9c0.4,0,0.7-0.1,1-0.1
		c2.2-0.4,3.8-1.5,4.8-3.4c1-1.9,1.2-3.9,1-6.1c0-0.4-0.3-0.6-0.6-0.6c-1.2,0-2.4,0.3-3.4,1c-1.6,1-2.5,2.6-3.2,4.3
		c-0.1,0.2-0.2,1-0.2,1.1c-0.5-0.9-0.9-2.5-1.4-3.4c-1.3-2-3.1-3-5.4-3c-0.5,0-0.7,0.2-0.7,0.7c-0.1,1.5,0.1,2.9,0.5,4.3
		c0.7,2.2,2,3.9,4.3,4.7c0.7,0.2,1.4,0.3,2.1,0.5v3.8H9.6z M165.9,19.6c0,2.2,0,4.3,0,6.5c0,0.2-0.5,0.4-0.9,0.5
		c-5.4,1.2-10.8,1.2-16.2,0.1c-2.7-0.5-5.6-1-8.5-1.3c-3.6-0.3-7.1,0.2-10.4,0.9c-2.4,0.4-4.8,0.9-7.3,1.1
		c-3.9,0.4-7.6-0.2-11.3-0.9c-2.6-0.5-5.3-0.9-8-1.2c-3.8-0.3-7.3,0.3-10.8,1c-2.2,0.4-4.5,0.8-6.8,1c-4,0.4-7.8-0.2-11.5-0.9
		c-3.6-0.7-7.3-1.4-11.3-1.1c-2.5,0.2-4.9,0.7-7.3,1c-2.3,0.3-4.5,0.8-6.8,1c-4,0.4-7.7-0.2-11.4-0.9c-3.6-0.7-7.3-1.4-11.3-1.1
		c-2.5,0.2-4.9,0.6-7.3,1c-2.2,0.3-4.4,0.8-6.6,1c-4.2,0.4-8.1-0.2-11.9-1v-6.7c0.8,0.1,1.5,0.3,2.3,0.4c4.6,0.9,9.2,0.9,13.9,0
		c2.3-0.4,4.7-0.9,7.1-1.3c4.3-0.6,8.4-0.2,12.4,0.6c2.2,0.4,4.4,0.9,6.7,1.1c4.2,0.5,8.3,0,12.2-0.7c2.4-0.5,4.8-0.9,7.3-1.1
		c4-0.4,7.8,0.2,11.5,0.9c2.6,0.5,5.2,0.9,7.9,1.1c3.5,0.3,6.9-0.3,10.2-0.9c2.4-0.4,4.8-0.9,7.3-1.1c3.7-0.4,7.3,0.1,10.8,0.7
		c2.2,0.4,4.4,0.9,6.7,1.1c4.2,0.5,8.2,0,12.1-0.7c2.4-0.5,4.9-0.9,7.4-1.2c4-0.4,7.7,0.2,11.4,0.9c2.6,0.5,5.2,0.9,7.8,1.1
		c3.2,0.3,6.4-0.1,9.4-0.7C164.8,19.8,165.3,19.7,165.9,19.6 M165.9,47.2c0,2.2,0,4.3,0,6.4c0,0.2-0.5,0.4-0.9,0.5
		c-5.4,1.2-10.8,1.2-16.2,0.1c-2.7-0.5-5.6-1-8.5-1.3c-3.6-0.3-7.1,0.3-10.4,0.9c-2.4,0.4-4.8,0.9-7.3,1.1
		c-3.9,0.4-7.6-0.2-11.3-0.9c-2.6-0.5-5.3-0.9-8-1.2c-3.8-0.3-7.3,0.3-10.8,1c-2.2,0.4-4.5,0.8-6.8,1c-4,0.4-7.8-0.2-11.5-0.9
		c-3.6-0.7-7.3-1.4-11.3-1.1c-2.5,0.2-4.9,0.7-7.3,1c-2.3,0.3-4.5,0.8-6.8,1c-4,0.4-7.7-0.2-11.4-0.9c-3.6-0.7-7.3-1.4-11.3-1.1
		c-2.5,0.2-4.9,0.6-7.3,1c-2.2,0.3-4.4,0.8-6.6,1C7.7,55.4,3.8,54.8,0,54v-6.7c0.8,0.1,1.5,0.3,2.3,0.4c4.6,0.9,9.2,0.9,13.9,0
		c2.3-0.4,4.7-0.9,7.1-1.3c4.3-0.6,8.4-0.2,12.4,0.6c2.2,0.4,4.4,0.9,6.7,1.1c4.2,0.5,8.3,0,12.2-0.7c2.4-0.5,4.8-0.9,7.3-1.1
		c4-0.4,7.8,0.2,11.5,0.9c2.6,0.5,5.2,0.9,7.9,1.1c3.5,0.3,6.9-0.3,10.2-0.9c2.4-0.4,4.8-0.9,7.3-1.1c3.7-0.4,7.3,0.1,10.8,0.7
		c2.2,0.4,4.4,0.9,6.7,1.1c4.2,0.5,8.2,0,12.1-0.7c2.4-0.5,4.9-0.9,7.4-1.2c4-0.4,7.7,0.2,11.4,0.9c2.6,0.5,5.2,0.9,7.8,1.1
		c3.2,0.3,6.4-0.1,9.4-0.7C164.8,47.4,165.3,47.4,165.9,47.2"/>
</g>
</svg>
