<?xml version="1.0" encoding="utf-8"?>
<!-- Generator: Adobe Illustrator 21.0.2, SVG Export Plug-In . SVG Version: 6.00 Build 0)  -->
<svg version="1.1" id="Layer_1" xmlns="http://www.w3.org/2000/svg" xmlns:xlink="http://www.w3.org/1999/xlink" x="0px" y="0px"
	 viewBox="0 0 73.6 49.2" style="enable-background:new 0 0 73.6 49.2;" xml:space="preserve">
<style type="text/css">
	.st0{clip-path:url(#SVGID_2_);fill:#00B5EC;}
</style>
<title>solutions_bike01</title>
<g>
	<defs>
		<rect id="SVGID_1_" width="73.6" height="49.2"/>
	</defs>
	<clipPath id="SVGID_2_">
		<use xlink:href="#SVGID_1_"  style="overflow:visible;"/>
	</clipPath>
	<path class="st0" d="M23,28.9c-1,1.1-1.8,2-2.7,3h4C23.8,30.8,23.4,29.9,23,28.9 M26.3,25.1c0.7,1.2,1.4,2.2,1.9,3.3
		c0.5,1.1,0.8,2.3,1.2,3.5h2.5V18.8C30,21,28.1,23.1,26.3,25.1 M36.9,14.8v13.1c3.9-4.4,7.7-8.7,11.6-13.1H36.9z M19.1,25.7
		c-2.7-1.7-7.4-1.7-10.7,1.1C5,29.7,3.9,34.6,5.9,38.7c1.9,3.9,6.1,6.2,10.7,5.4c4.3-0.8,7.1-4.3,7.6-7.2c-0.3,0-0.5,0-0.8,0
		c-2.8,0-5.7,0-8.5,0c-1.1,0-1.9-0.5-2.4-1.5c-0.5-1-0.1-1.9,0.5-2.7c0.3-0.4,0.7-0.8,1-1.1C15.7,29.6,17.4,27.7,19.1,25.7 M55,25.6
		c-3.1,1-6.7,5.4-5.6,10.8c1,5.3,6.4,8.8,11.9,7.7c5.3-1,8.7-6.1,7.8-11.4c-0.9-5.3-5.8-8.2-9.2-8c0.3,1.9,0.7,3.8,1,5.7
		c0.2,1.3,0.5,2.6,0.6,3.8c0.1,1.3-0.8,2.4-2,2.6c-1.4,0.2-2.7-0.6-2.9-1.9c-0.2-0.9-0.3-1.7-0.4-2.6C55.7,30.1,55.4,27.8,55,25.6
		 M53.4,16.6c-1.6,1.9-3.2,3.6-4.7,5.3c-4.2,4.7-8.3,9.4-12.5,14.1c-0.5,0.6-1.3,0.9-2.1,0.9c-1.3,0-2.7,0-4,0
		c-0.7,0-0.9,0.2-1.1,0.8c-1.5,6-5.3,9.8-11.2,11.1C9.6,50.7,1.5,45.1,0.2,36.7c-1.3-8,4.2-15.6,12.1-16.8c3.6-0.6,7.1,0.1,10.3,2
		c0.7-0.7,1.3-1.5,2-2.2c2.3-2.6,4.7-5.3,7-7.9c0.2-0.3,0.4-0.7,0.4-1.1c0-1.1,0-2.2,0-3.3c-0.7,0-1.4,0-2.1,0c-1,0-1.8-0.3-2.4-1
		C26.8,5.7,26,5,25.4,4.3c-1.1-1.1-1.1-2.6,0-3.6c1-0.9,2.6-1,3.5,0.2c1.1,1.3,2.3,1.8,4,1.7c2.1-0.1,4.2,0,6.3,0
		c1.5,0,2.6,1,2.6,2.5c0,1.4-1.1,2.4-2.7,2.5c-0.7,0-1.4,0-2.2,0v2.4h15.4c-0.2-1.4-0.4-2.7-0.7-4.1c-0.4-2,1-3.3,2.7-3.3
		c3.9,0.1,7.8,0,11.7,0c1.8,0,2.8,1,2.8,2.8c0,2.3,0,4.5,0,6.8c0,1.5-0.9,2.5-2.4,2.6c-1.7,0.1-3.4,0.1-5.1,0
		c-1.4-0.1-2.3-1.1-2.3-2.4c0-1.3,0.9-2.3,2.3-2.5c0.8-0.1,1.7,0,2.6,0V7.4h-6.9c0.5,2.7,0.9,5.4,1.3,8.2c0.2,1.2,0.4,2.3,0.6,3.5
		c0.1,0.4,0.2,0.6,0.7,0.6c5,0.2,8.9,2.5,11.7,6.7c5.7,8.6,0.7,20.5-9.5,22.5c-8.3,1.6-16.2-3.9-17.4-12.3c-1-6.7,2.7-13.3,9-15.8
		c0.7-0.3,0.8-0.6,0.7-1.3C53.7,18.6,53.6,17.7,53.4,16.6"/>
</g>
</svg>
