<?xml version="1.0" encoding="utf-8"?>
<!-- Generator: Adobe Illustrator 21.0.2, SVG Export Plug-In . SVG Version: 6.00 Build 0)  -->
<svg version="1.1" id="Layer_1" xmlns="http://www.w3.org/2000/svg" xmlns:xlink="http://www.w3.org/1999/xlink" x="0px" y="0px"
	 viewBox="0 0 107.3 95.6" style="enable-background:new 0 0 107.3 95.6;" xml:space="preserve">
<style type="text/css">
	.st0{clip-path:url(#SVGID_2_);fill:#00B5EC;}
</style>
<g>
	<defs>
		<rect id="SVGID_1_" x="1.2" y="1.6" width="106.1" height="93.9"/>
	</defs>
	<clipPath id="SVGID_2_">
		<use xlink:href="#SVGID_1_"  style="overflow:visible;"/>
	</clipPath>
	<path class="st0" d="M84.6,74.3c-2.8,0-5-2.2-5-5c0-2.8,2.2-5,5-5c2.8,0,5,2.2,5,5C89.6,72,87.4,74.3,84.6,74.3 M106.6,71
		c-5.5-6.7-11.1-13.3-16.6-20c-0.7-0.9-1.5-1.8-2.2-2.7c-1.8-2.2-4.3-2.2-6.1,0c-5.9,7.1-11.8,14.1-17.8,21.2
		c-0.5,0.6-1,1.1-1.4,1.7c-1.1,1.5-0.5,2.9,1.4,3c1.2,0.1,2.4,0,3.9,0v1.5c0,5.7,0,11.4,0,17.1c0,2.2,0.5,2.7,2.7,2.7
		c0.9,0,1.8,0,2.7,0c1.8,0,2.2-0.4,2.2-2.2c0-3.4,0-6.7,0-10.1c0-1.2,0.4-1.7,1.6-1.7c2,0,4.1,0,6.1,0c1.2,0,1.6,0.5,1.6,1.7
		c-0.1,3.4,0,6.7,0,10.1c0,1.8,0.4,2.2,2.2,2.2c4.1,0,8.1,0,12.2,0c2.1,0,2.6-0.6,2.6-2.7c0-5.6,0-11.3,0-16.9c0-0.5,0-1,0-1.7
		c1.3,0,2.4,0.1,3.4,0c0.8-0.1,1.8-0.5,2.1-1.1C107.5,72.7,107.1,71.5,106.6,71 M77.1,25c-2.4,0-4.3-1.9-4.3-4.3
		c0-2.4,1.9-4.3,4.3-4.3c2.4,0,4.3,1.9,4.3,4.3C81.3,23.1,79.4,25,77.1,25 M95.8,22.2c-4.7-5.7-9.4-11.3-14.1-17
		C81,4.5,80.4,3.8,79.7,3c-1.5-1.8-3.6-1.9-5.2,0c-5,6-10.1,12-15.1,18c-0.4,0.5-0.8,1-1.2,1.5c-0.9,1.3-0.4,2.5,1.2,2.6
		c1,0.1,2.1,0,3.3,0v1.3c0,4.8,0,9.7,0,14.5c0,1.9,0.4,2.3,2.3,2.3c0.8,0,1.5,0,2.3,0c1.6,0,1.9-0.3,1.9-1.9c0-2.9,0-5.7,0-8.6
		c0-1,0.3-1.5,1.4-1.4c1.7,0,3.5,0,5.2,0c1,0,1.4,0.4,1.4,1.4c0,2.9,0,5.7,0,8.6c0,1.5,0.4,1.9,1.9,1.9c3.4,0,6.9,0,10.3,0
		c1.7,0,2.2-0.5,2.2-2.3c0-4.8,0-9.6,0-14.4V25c1.1,0,2,0.1,2.9,0c0.7-0.1,1.5-0.4,1.8-0.9C96.5,23.7,96.2,22.7,95.8,22.2 M29.7,56
		c-3.9,0-7-3.1-7-7c0-3.9,3.1-7,7-7c3.9,0,7,3.1,7,7C36.7,52.9,33.6,56,29.7,56 M57.6,49.3c-0.4-0.5-0.9-1-1.3-1.5
		c-7.8-8.6-15.6-17.1-23.5-25.7c-1.9-2.1-4.2-2.2-6.1-0.1c-7.1,7.8-14.2,15.6-21.4,23.4c-1.1,1.2-2.2,2.4-3.3,3.6
		c-0.8,0.9-1.2,1.9-0.6,3.1c0.5,1.1,1.4,1.6,2.6,1.6c0.7,0,1.4,0,2.3,0v1.3c0,8.3,0,16.7,0,25c0,2.1,1.4,3.6,3.6,3.6
		c6.7-0.1,13.4,0,20.1,0c1.7,0,2.3-0.6,2.3-2.3c0-6,0-4.3,0-10.3c0-1.8,0.5-2.3,2.3-2.3c2.9,0,5.8,0,8.7,0c1.8,0,2.3,0.5,2.3,2.3
		c0,6.1,0,4.5,0,10.6c0,1.4,0.7,2.1,2.1,2.1c0.6,0,1.3,0,1.9,0c2.3,0,3.6-1.3,3.6-3.6c0-8.4,0-16.8,0-25.1v-1.2c0.9,0,1.6,0,2.4,0
		c1.2,0,2-0.6,2.5-1.6C58.5,51.1,58.3,50.2,57.6,49.3"/>
</g>
</svg>
