<svg xmlns="http://www.w3.org/2000/svg" viewBox="0 0 70.55 70.55"><defs><style>.cls-1{fill:#3ebce8;}.cls-2{fill:#fff;}</style></defs><title>solutions_Asset 4</title><g id="Layer_2" data-name="Layer 2"><g id="Layer_1-2" data-name="Layer 1"><path class="cls-1" d="M0,35.27A35.27,35.27,0,1,1,35.27,70.55,35.27,35.27,0,0,1,0,35.27"/><path class="cls-2" d="M66.79,34.84c0-2.88-1.62-5.84-5.22-6H55.74a.3.3,0,0,0-.3.3v2.91a.3.3,0,0,0,.31.3c.88,0,3.88,0,4.46.05,1.34.17,2.94.72,2.94,2.4s-1.47,2.18-2.7,2.37a26.1,26.1,0,0,1-2.71.09h-.57a.18.18,0,0,1-.16-.09A.19.19,0,0,1,57,37l.7-1.36a.31.31,0,0,0-.11-.4l-.74-.46a.31.31,0,0,0-.41.09l-2.73,4a.3.3,0,0,0,0,.34l2.73,4a.3.3,0,0,0,.25.13.3.3,0,0,0,.16,0l.74-.46a.31.31,0,0,0,.11-.4L57,41.14a.19.19,0,0,1,.17-.27H61a6,6,0,0,0,5.8-6"/><path class="cls-2" d="M3.5,37.52c0,2.88,1.61,5.84,5.22,6h5.83a.31.31,0,0,0,.3-.3V40.28a.3.3,0,0,0-.31-.3c-.88,0-3.88,0-4.46-.05-1.34-.17-2.94-.72-2.94-2.4s1.47-2.18,2.7-2.37a26.09,26.09,0,0,1,2.71-.09h.57a.18.18,0,0,1,.16.09.19.19,0,0,1,0,.18l-.7,1.36a.31.31,0,0,0,.11.4l.74.46a.31.31,0,0,0,.41-.09l2.73-4a.3.3,0,0,0,0-.34l-2.73-4a.3.3,0,0,0-.41-.09l-.74.46a.31.31,0,0,0-.11.4l.7,1.35a.19.19,0,0,1-.17.27H9.3a6,6,0,0,0-5.8,6"/><path class="cls-2" d="M32.7,40.88H31c1.2,1.11,2.54,2.31,3.85,3.47h2.34c-1.56-1.15-3.1-2.32-4.52-3.47m-4.15-3.67H27.32c.53.63,1.46,1.55,2.61,2.64h1.52c-.62-.52-1.2-1-1.75-1.55-.38-.36-.8-.72-1.15-1.08m-.26-3.43c-1.18.66-2,1.52-1.47,2.71H28c-.47-.77-.4-1.56,1.09-2.41.18-.1.38-.2.58-.3Zm5.34-2c-1,.32-2,.65-3,1l-.78.29h1.59c1.24-.44,2.52-.87,3.81-1.28Zm5.61-1.67-3.92,1.15h1.59l3.61-1.15Zm4.4-1.52h-.49c-.24.53-1.79.9-2.49,1.11H41.8c.68-.23,1.68-.53,1.85-1.11m-1.57-1.31H40.94a4.43,4.43,0,0,1,2.14.89h.51a3,3,0,0,0-1.5-.89m-3.83-.72H36.87l3,.52h1.45c-1-.21-2-.35-3-.52M34.81,26h-.73l1.61.34H37Zm15.6.79c4.52,1.11,3.39,2.74.71,3.94A113.31,113.31,0,0,1,39,34.61c-3.8,1.06-2.15,2.65.14,3.95L59.14,49H43.69l-5-3.65H36.06L40.21,49H24.9c-.92-2-4.88-8.4-6.49-12.17-1.06-2.53.69-4.4,4.66-5.35l10-2.39c1.71-.37,1.86-1.14.43-1.79s-4.42-1.83-4.88-2c6.57,0,15.69-.1,21.8,1.4"/></g></g></svg>