<?xml version="1.0" encoding="utf-8"?>
<!-- Generator: Adobe Illustrator 21.0.2, SVG Export Plug-In . SVG Version: 6.00 Build 0)  -->
<svg version="1.1" id="Layer_1" xmlns="http://www.w3.org/2000/svg" xmlns:xlink="http://www.w3.org/1999/xlink" x="0px" y="0px"
	 viewBox="0 0 200.9 175.7" style="enable-background:new 0 0 200.9 175.7;" xml:space="preserve">
<style type="text/css">
	.st0{clip-path:url(#SVGID_2_);fill:#00B5EC;}
</style>
<g>
	<defs>
		<rect id="SVGID_1_" x="16.4" width="167.5" height="176"/>
	</defs>
	<clipPath id="SVGID_2_">
		<use xlink:href="#SVGID_1_"  style="overflow:visible;"/>
	</clipPath>
	<path class="st0" d="M101.9,80.3c11.4,0,20.7-9.2,20.7-20.6c0-11.2-9.3-20.5-20.6-20.5c-11.3,0-20.6,9.3-20.6,20.6
		C81.4,71.1,90.6,80.3,101.9,80.3 M126.7,108.6V176H77.3v-67.3c-0.1-0.1-0.2-0.1-0.4-0.2c-0.2,0.4-0.5,0.8-0.7,1.3
		c-2.1,4.9-3.2,10-3.9,15.2c-1.9,13-1.8,26.1-1.1,39.1c0.3,4.5-1.5,7.5-5.1,8.7c-4.1,1.3-8.5-1.3-9.3-5.5c-0.1-0.6-0.2-1.2-0.2-1.8
		c0-10.4-0.3-20.8,0-31.2c0.4-11,2.4-21.8,6.9-32c1.8-4.1,4.3-7.8,7.7-11c4-3.7,8.6-5.6,14.1-5.6c10.9,0,21.7-0.1,32.6-0.1
		c8.3,0,14.4,3.9,19,10.6c4.4,6.4,6.7,13.6,8.1,21.1c2.6,13.4,3.2,26.8,2.5,40.4c-0.1,2.8-0.2,5.5-0.4,8.3c-0.2,4-3.1,7-7.1,7
		c-4,0-7.4-2.8-7.4-6.8c-0.1-6,0.2-12,0.2-18c0.1-9.3,0-18.7-2.1-27.9c-0.8-3.5-2-6.9-3.1-10.4c-0.2-0.5-0.5-0.9-0.7-1.4
		C127,108.6,126.9,108.6,126.7,108.6"/>
	<path class="st0" d="M158.3,23.8c-1.5-0.7-3.1-0.5-4.3,0.7c-3.8,3.8-7.6,7.5-11.4,11.4c-1.8,1.8-1.7,4,0,5.7c1.5,1.5,4,1.4,5.6-0.1
		c3.7-3.6,7.4-7.3,11-11c0.7-0.8,1.1-1.8,1.4-2.4C160.5,25.7,159.7,24.4,158.3,23.8 M179.4,87.7c0.1,0,0.1,0,0.2,0
		c2.6-0.1,4.3-1.7,4.4-3.9c0-2.2-1.7-4-4.2-4.1c-5.1-0.1-10.3-0.1-15.4,0c-2.7,0.1-4.3,1.7-4.2,4.2c0.1,2.3,1.7,3.8,4.4,3.8
		c2.5,0,4.9,0,7.4,0C174.4,87.7,176.9,87.7,179.4,87.7 M57.5,35.4c-3.5-3.6-7-7.1-10.5-10.6c-1.9-1.9-4.3-2-5.9-0.4
		c-1.7,1.7-1.6,3.9,0.3,5.9c1.7,1.7,3.4,3.4,5.1,5.1c1.9,1.9,3.9,3.9,5.8,5.8c1.3,1.3,2.9,1.5,4.5,0.9c1.5-0.6,2.3-1.9,2.4-4.2
		C58.8,37.4,58.3,36.2,57.5,35.4 M35.8,87.6c1.3-0.1,2.7-0.7,3.7-1.5c1.2-1,1.3-2.6,0.6-4c-0.8-1.7-2.3-2.4-4.1-2.4
		c-5,0-10.1-0.1-15.1,0.1c-1.2,0-2.5,0.7-3.4,1.5c-1.2,1-1.3,2.6-0.7,4c0.7,1.7,2.1,2.4,3.9,2.4c2.6,0.1,5.1,0,7.7,0
		C30.8,87.7,33.3,87.9,35.8,87.6 M96.3,19.9c0,2.2,1.5,3.8,3.7,4c2.2,0.2,4.1-1.4,4.2-3.7c0.1-5.5,0.1-11,0-16.4
		c0-2.3-2-3.8-4.1-3.7c-2.2,0.1-3.7,1.7-3.8,4.1c0,2.6,0,5.1,0,7.7C96.3,14.5,96.2,17.2,96.3,19.9"/>
</g>
</svg>
