<svg xmlns="http://www.w3.org/2000/svg" viewBox="0 0 72.57 78.47"><defs><style>.cls-1{fill:#3ebce8;}.cls-2{fill:none;stroke:#3ebce8;stroke-miterlimit:11;stroke-width:1.11px;}</style></defs><title>Asset 1</title><g id="Layer_2" data-name="Layer 2"><g id="Layer_1-2" data-name="Layer 1"><path class="cls-1" d="M27.73,63.15a.67.67,0,0,1-.68.66H14.75a.66.66,0,1,1,0-1.32H27a.67.67,0,0,1,.68.66m0,2.89a.67.67,0,0,1-.68.66H14.75a.66.66,0,1,1,0-1.31H27a.67.67,0,0,1,.68.66m0,2.89a.67.67,0,0,1-.68.66H14.75a.66.66,0,1,1,0-1.31H27a.67.67,0,0,1,.68.66m41.55.4a1.34,1.34,0,0,1-1.36,1.32H59.06v-9.2h8.85a1.34,1.34,0,0,1,1.36,1.31ZM56.33,74A1.34,1.34,0,0,1,55,75.28H37.52L35.78,56.8H55.34a1.35,1.35,0,0,1,1,1.32Zm-27.4,1.31h-19a1.66,1.66,0,0,1-1.6-1.42l-5-56.8,26,16.6a4.85,4.85,0,0,1,1.89,3.1l3.63,38.52H28.93ZM7.5,4.6l17.11-1.4a1.41,1.41,0,0,1,1,.31,1.3,1.3,0,0,1,.48.89l.2,2.3L6.47,8.32,6.26,6A1.33,1.33,0,0,1,7.5,4.6M7.2,16.4l-.5-5.46L26.53,9.32l1.82,20.6Zm60.72,42.4H59.06v-.69a3.94,3.94,0,0,0-3.73-3.95H35.53L33.87,36.54a7.39,7.39,0,0,0-2.61-4.7L28.81,4.17a3.87,3.87,0,0,0-1.44-2.68,4.17,4.17,0,0,0-3-.92L7.27,2A4,4,0,0,0,3.54,6.24l.76,8.34a2.57,2.57,0,0,0-3.06.34A2.78,2.78,0,0,0,.57,17.2l5,56.89a4.36,4.36,0,0,0,4.32,3.83H55A4,4,0,0,0,59.06,74v-.69h8.85A4,4,0,0,0,72,69.32V62.75a4,4,0,0,0-4.1-3.95"/><path class="cls-2" d="M27.73,63.15a.67.67,0,0,1-.68.66H14.75a.66.66,0,1,1,0-1.32H27A.67.67,0,0,1,27.73,63.15Zm0,2.89a.67.67,0,0,1-.68.66H14.75a.66.66,0,1,1,0-1.31H27A.67.67,0,0,1,27.73,66Zm0,2.89a.67.67,0,0,1-.68.66H14.75a.66.66,0,1,1,0-1.31H27A.67.67,0,0,1,27.73,68.93Zm41.55.4a1.34,1.34,0,0,1-1.36,1.32H59.06v-9.2h8.85a1.34,1.34,0,0,1,1.36,1.31ZM56.33,74A1.34,1.34,0,0,1,55,75.28H37.52L35.78,56.8H55.34a1.35,1.35,0,0,1,1,1.32Zm-27.4,1.31h-19a1.66,1.66,0,0,1-1.6-1.42l-5-56.8,26,16.6a4.85,4.85,0,0,1,1.89,3.1l3.63,38.52H28.93ZM7.5,4.6l17.11-1.4a1.41,1.41,0,0,1,1,.31,1.3,1.3,0,0,1,.48.89l.2,2.3L6.47,8.32,6.26,6A1.33,1.33,0,0,1,7.5,4.6ZM7.2,16.4l-.5-5.46L26.53,9.32l1.82,20.6Zm60.72,42.4H59.06v-.69a3.94,3.94,0,0,0-3.73-3.95H35.53L33.87,36.54a7.39,7.39,0,0,0-2.61-4.7L28.81,4.17a3.87,3.87,0,0,0-1.44-2.68,4.17,4.17,0,0,0-3-.92L7.27,2A4,4,0,0,0,3.54,6.24l.76,8.34a2.57,2.57,0,0,0-3.06.34A2.78,2.78,0,0,0,.57,17.2l5,56.89a4.36,4.36,0,0,0,4.32,3.83H55A4,4,0,0,0,59.06,74v-.69h8.85A4,4,0,0,0,72,69.32V62.75A4,4,0,0,0,67.92,58.81Z"/></g></g></svg>