<?xml version="1.0" encoding="utf-8"?>
<!-- Generator: Adobe Illustrator 21.0.2, SVG Export Plug-In . SVG Version: 6.00 Build 0)  -->
<svg version="1.1" id="Layer_1" xmlns="http://www.w3.org/2000/svg" xmlns:xlink="http://www.w3.org/1999/xlink" x="0px" y="0px"
	 viewBox="0 0 200.9 175.7" style="enable-background:new 0 0 200.9 175.7;" xml:space="preserve">
<style type="text/css">
	.st0{clip-path:url(#SVGID_2_);fill:#00B5EC;}
</style>
<g>
	<defs>
		<rect id="SVGID_1_" x="48.7" width="108.5" height="176"/>
	</defs>
	<clipPath id="SVGID_2_">
		<use xlink:href="#SVGID_1_"  style="overflow:visible;"/>
	</clipPath>
	<path class="st0" d="M86.8,36.3c-5.8-5.8-15.2-5.8-21,0c-5.8,5.8-5.8,15.2,0,21c5.8,5.8,15.2,5.8,21,0
		C92.7,51.5,92.7,42.1,86.8,36.3 M156.9,57.9c-1.2,13.8-7.1,25.5-15.2,36.5c-3.6,4.9-6.9,10.1-9.9,15.5c-2.8,5-4,10.5-4,16.3H78.1
		c0-5.7-1.1-11.2-3.8-16C71,104.6,67.4,99,63.6,93.7C57,84.3,51.8,74.5,49.7,63C45,37.7,57.2,14.8,81.2,4.5
		c24.5-10.6,53.8-1.8,68.3,20.6C155.9,35.1,158,46.2,156.9,57.9 M102.9,176c5,0.1,9.2-4,9-8.8H94.1C93.8,171.9,97.9,175.9,102.9,176
		 M87.5,162.5c5.4,0.1,10.9,0,16.3,0c4.9,0,9.9,0.1,14.8,0c5.2-0.1,9.5-4.4,9-9H78.2C78.3,158.8,82.2,162.5,87.5,162.5 M127.7,144.3
		H78.2v-8.7h49.5V144.3z"/>
</g>
</svg>
