<?xml version="1.0" encoding="utf-8"?>
<!-- Generator: Adobe Illustrator 21.0.2, SVG Export Plug-In . SVG Version: 6.00 Build 0)  -->
<svg version="1.1" id="Layer_1" xmlns="http://www.w3.org/2000/svg" xmlns:xlink="http://www.w3.org/1999/xlink" x="0px" y="0px"
	 viewBox="0 0 55 88.5" style="enable-background:new 0 0 55 88.5;" xml:space="preserve">
<style type="text/css">
	.st0{clip-path:url(#SVGID_2_);fill:#00B5EC;}
</style>
<title>solutions_icon04</title>
<g>
	<defs>
		<rect id="SVGID_1_" width="55" height="88.5"/>
	</defs>
	<clipPath id="SVGID_2_">
		<use xlink:href="#SVGID_1_"  style="overflow:visible;"/>
	</clipPath>
	<path class="st0" d="M39.8,12.6c4.5,1.5,8.5,2,11.4,1.5l1.5-5.8C52.3,9.5,47.4,9,41.7,7.1c-5.7-1.9-10-4.4-9.6-5.7l0,0L30.7,7
		C31.5,8.6,33.8,10.6,39.8,12.6 M52.9,7.4c0.4-1.2-3.8-3.8-9.4-5.6C38-0.1,33.1-0.6,32.7,0.7c-0.4,1.2,3.8,3.8,9.4,5.6
		S52.5,8.7,52.9,7.4 M11.4,58.9l21,12.1l-3.2,1.6c0,0-0.1,0.4-0.3,2.7c-1.3-3.6-5.8-7.5-7.4-8.9C13.9,61.2,8,64.6,8,64.6L8,61.4
		L11.4,58.9z M40.8,67.8c-0.9,4.2-2.3,7.9-4.1,9.7c-1.8,1.8-7.7,4.6-7.7,4.6l0.8-8.6C29.8,73.5,33.9,71.5,40.8,67.8 M55,14.4
		L40.8,66.7l-7,3.6l14.3-54.1C48.2,16.2,52.3,16.7,55,14.4 M11.8,58.4L25.3,4.9c0,0,7.3,9.1,22.1,11.2
		c-3.9,16.5-14.5,54.6-14.5,54.6L11.8,58.4z M1.5,69.9l7.3-5.2c0,0,6.3-2.1,12.1,2.2c3,1.8,6.9,6.7,7.6,9.5c-0.2,3-0.4,4.9-0.4,4.9
		l-11.6,7.1l1.5-9.5C17.9,79,11.6,70.9,1.5,69.9 M0.9,70.9c0,0,6,0.4,9.2,2.8c3.3,2.4,5.8,4.5,6.4,6.1c-0.7,4.6-1.1,8.1-1.1,8.1
		s-4.7-0.1-10.2-3.4c-4.9-4.3-4.6-5.1-5.1-6.4C0.3,73.9,0.9,70.9,0.9,70.9"/>
</g>
</svg>
