<?xml version="1.0" encoding="utf-8"?>
<!-- Generator: Adobe Illustrator 21.0.2, SVG Export Plug-In . SVG Version: 6.00 Build 0)  -->
<svg version="1.1" id="Layer_1" xmlns="http://www.w3.org/2000/svg" xmlns:xlink="http://www.w3.org/1999/xlink" x="0px" y="0px"
	 viewBox="0 0 200.9 175.7" style="enable-background:new 0 0 200.9 175.7;" xml:space="preserve">
<style type="text/css">
	.st0{clip-path:url(#SVGID_2_);fill:#00B5EC;}
</style>
<g>
	<defs>
		<rect id="SVGID_1_" width="200.9" height="175.7"/>
	</defs>
	<clipPath id="SVGID_2_">
		<use xlink:href="#SVGID_1_"  style="overflow:visible;"/>
	</clipPath>
	<path class="st0" d="M69.1,81.4c0,1.8,0,3.7,0,5.5c0,1.6,0.8,2.6,2.5,2.6c2.5,0,5.1,0,7.6,0c1.6,0,2.4-0.9,2.5-2.4
		c0.1-3.8,0.1-7.6,0-11.4c0-1.4-0.9-2.3-2.4-2.3c-2.5,0-5.1-0.1-7.6,0c-1.8,0-2.5,0.9-2.6,2.7C69.1,77.8,69.1,79.6,69.1,81.4
		 M131.8,81.5c0-1.8,0-3.7,0-5.5c0-1.6-0.8-2.6-2.5-2.6c-2.5,0-5.1,0-7.6,0c-1.5,0-2.4,0.8-2.4,2.3c-0.1,3.8-0.1,7.7,0,11.5
		c0,1.4,0.9,2.3,2.4,2.3c2.5,0,5.1,0.1,7.6,0c1.8,0,2.5-0.9,2.6-2.7C131.8,85,131.8,83.2,131.8,81.5 M131.8,23.9c0-1.8,0-3.7,0-5.5
		c0-1.8-0.8-2.6-2.6-2.7c-2.5-0.1-5,0-7.5,0c-1.6,0-2.5,0.8-2.5,2.4c-0.1,3.8-0.1,7.6,0,11.4c0,1.5,0.9,2.4,2.5,2.4c2.5,0,5,0,7.5,0
		c1.9,0,2.6-0.9,2.6-2.8C131.8,27.3,131.8,25.6,131.8,23.9 M106.7,23.8c0-1.8,0-3.6,0-5.3c-0.1-1.9-0.8-2.7-2.7-2.7
		c-2.4,0-4.9,0-7.3,0c-1.8,0-2.6,0.9-2.6,2.6c0,3.6,0,7.2,0,10.8c0,1.8,0.8,2.6,2.6,2.6c2.4,0.1,4.9,0,7.3,0c1.9,0,2.7-0.8,2.7-2.7
		C106.7,27.3,106.7,25.6,106.7,23.8 M69.1,23.8c0,1.8,0,3.7,0,5.5c0,1.6,0.9,2.5,2.5,2.6c2.5,0,5.1,0,7.6,0c1.6,0,2.4-0.9,2.4-2.5
		c0-3.7,0-7.5,0-11.2c0-1.5-0.8-2.4-2.4-2.5c-2.5,0-5.1,0-7.6,0c-1.7,0-2.5,0.9-2.5,2.6C69.1,20.1,69.1,21.9,69.1,23.8 M28.3,110.4
		c0-1.8,0-3.6,0-5.3c0-1.9-0.8-2.8-2.7-2.8c-2.4,0-4.9,0-7.3,0c-1.8,0-2.6,0.9-2.6,2.6c0,3.6,0,7.2,0,10.8c0,1.6,0.7,2.6,2.2,2.7
		c2.7,0.1,5.4,0.1,8.1,0c1.4-0.1,2.2-1,2.2-2.5C28.3,114.1,28.3,112.2,28.3,110.4 M15.7,139.2c0,1.8,0,3.6,0,5.3
		c0,1.9,0.8,2.8,2.6,2.8c2.4,0.1,4.9,0.1,7.3,0c1.8-0.1,2.6-0.9,2.6-2.8c0-3.6,0-7.1,0-10.7c0-1.8-0.9-2.7-2.6-2.8
		c-2.5-0.1-5-0.1-7.5,0c-1.8,0.1-2.5,1-2.6,2.9C15.7,135.8,15.7,137.5,15.7,139.2 M15.7,52.7c0,1.8,0,39.9,0,41.7
		c0,1.7,0.8,2.7,2.4,2.7c2.6,0.1,5.2,0.1,7.8,0c1.6-0.1,2.4-1,2.4-2.7c0-3.6,0-43.6,0-47.2c0-1.8-0.8-2.6-2.6-2.7
		c-2.4-0.1-4.9-0.1-7.3,0c-1.8,0-2.6,0.9-2.7,2.8C15.7,49.2,15.7,50.9,15.7,52.7 M131.8,110.3c0-1.8,0-3.6,0-5.3
		c0-1.8-0.9-2.7-2.7-2.7c-2.4,0-4.7,0-7.1,0c-1.9,0-2.7,0.8-2.8,2.7c-0.1,3.6,0,7.2,0,10.8c0,1.5,0.8,2.6,2.3,2.6
		c2.7,0.1,5.3,0.1,8,0c1.6-0.1,2.4-1.1,2.3-2.8C131.8,113.9,131.8,112.1,131.8,110.3 M94,110.3c0,1.8,0,3.6,0,5.3
		c-0.1,1.7,0.8,2.8,2.5,2.8c2.6,0.1,5.2,0.1,7.8,0c1.5-0.1,2.4-1,2.4-2.6c0-3.7,0.1-7.3,0-11c0-1.8-0.9-2.6-2.7-2.6
		c-2.4,0-4.9,0-7.3,0c-1.7,0-2.6,1-2.6,2.7C94,106.7,94,108.5,94,110.3 M131.8,52.7c0-1.8,0-3.6,0-5.3c0-1.8-0.9-2.7-2.7-2.8
		c-2.4,0-4.7,0-7.1,0c-1.9,0-2.8,0.9-2.8,2.7c-0.1,3.6,0,7.2,0,10.8c0,1.5,0.8,2.6,2.3,2.6c2.7,0.1,5.3,0.1,8,0
		c1.6-0.1,2.4-1.1,2.3-2.8C131.8,56.2,131.8,54.5,131.8,52.7 M94,52.6c0,1.8,0,32.9,0,34.6c0,1.9,0.7,2.8,2.6,2.9
		c2.5,0.1,5,0.1,7.5,0c1.7-0.1,2.6-1,2.6-2.8c0-3.6,0-36.5,0-40.2c0-1.8-0.9-2.6-2.7-2.6c-2.4,0-4.7,0-7.1,0c-1.9,0-2.8,0.9-2.8,2.8
		C94,49.1,94,50.9,94,52.6 M69.1,110.4c0,1.8,0,3.6,0,5.3c0,1.7,0.8,2.7,2.4,2.7c2.7,0.1,5.3,0.1,8,0c1.4-0.1,2.2-1,2.3-2.5
		c0-3.7,0-7.5,0-11.2c0-1.5-0.9-2.4-2.4-2.5c-2.5-0.1-5.1-0.1-7.6,0c-1.6,0-2.5,0.9-2.5,2.6C69.1,106.7,69.1,108.5,69.1,110.4
		 M69.1,52.7c0,1.8,0,3.6,0,5.3c0,1.7,0.8,2.7,2.4,2.7c2.7,0.1,5.3,0.1,8,0c1.4-0.1,2.2-1,2.3-2.5c0-3.7,0-7.5,0-11.2
		c0-1.5-0.9-2.4-2.4-2.5c-2.5-0.1-5.1-0.1-7.6,0c-1.6,0-2.5,0.9-2.5,2.6C69.1,49,69.1,50.9,69.1,52.7 M172.3,81.4c0,1.8,0,33,0,34.8
		c0,1.8,0.9,2.8,2.7,2.8c2.4,0.1,4.7,0.1,7.1,0c1.9,0,2.8-0.9,2.9-2.9c0-3.5,0-36.3,0-39.8c0-1.9-0.9-2.9-2.8-2.9
		c-2.4-0.1-4.7-0.1-7.1,0c-1.9,0.1-2.7,1-2.8,3C172.3,78.1,172.3,79.8,172.3,81.4 M172.3,139.2c0,1.8,0,3.6,0,5.3
		c0,1.9,0.9,2.9,2.8,2.9c2.4,0.1,4.7,0.1,7.1,0c1.8-0.1,2.7-1,2.8-2.8c0.1-3.6,0-7.1,0-10.7c0-1.7-0.9-2.7-2.6-2.8
		c-2.5-0.1-5.1-0.1-7.6,0c-1.7,0.1-2.5,1.1-2.5,2.8C172.4,135.8,172.3,137.5,172.3,139.2 M112.2,175.7c0-7.8,0-34.6,0-42.3
		c0-1.6-1-2.4-2.9-2.4c-6,0-12,0-18,0c-2.2,0-3,0.8-3,3c0,5.6,0,11.3,0,16.9v24.8H112.2z M147.2,156.6h9.5V57.8c0.7,0,1.4-0.1,2-0.1
		c10.7,0,21.5,0.2,32.2-0.1c6.1-0.2,10.1,5,10.1,10.1c-0.2,30.8-0.2,61.6,0,92.3c0,4.4-3.6,9.5-9.3,9.5c-60.7-0.1-121.5-0.1-182.2,0
		c-5.7,0-9.4-5.1-9.4-9.4c0.1-40.7,0.1-81.4,0.1-122.1c0-5.2,3.7-9.1,8.9-9.1c11.3-0.1,22.5,0,33.8,0c0.3,0,0.6,0.1,1.1,0.1v127.8
		h9.4v-2.4c0-48.2,0-96.4-0.1-144.7c0-5,3.7-9.9,9.8-9.8c24.9,0.2,49.8,0.1,74.7,0c5.5,0,9.6,4.5,9.6,9.7
		c-0.1,48.2-0.1,96.4-0.1,144.7V156.6z"/>
</g>
</svg>
