<?xml version="1.0" encoding="utf-8"?>
<!-- Generator: Adobe Illustrator 21.0.2, SVG Export Plug-In . SVG Version: 6.00 Build 0)  -->
<svg version="1.1" id="Layer_1" xmlns="http://www.w3.org/2000/svg" xmlns:xlink="http://www.w3.org/1999/xlink" x="0px" y="0px"
	 viewBox="0 0 181.8 57.7" style="enable-background:new 0 0 181.8 57.7;" xml:space="preserve">
<style type="text/css">
	.st0{fill:#0072CE;stroke:#0072CE;stroke-width:0.75;stroke-miterlimit:10;}
	.st1{clip-path:url(#SVGID_2_);fill:url(#SVGID_3_);}
</style>
<title>plastic_road_award01solutions_</title>
<g>
	<g>
		<path class="st0" d="M81.3,37.7h-1.1v-9.3h4.2c1,0,1.8,0.3,2.3,0.8c0.6,0.5,0.9,1.3,0.9,2.2c0,0.9-0.3,1.6-0.9,2.2
			c-0.6,0.5-1.4,0.8-2.3,0.8h-3.1V37.7z M81.3,29.4v4h3.1c0.7,0,1.3-0.2,1.7-0.5c0.4-0.4,0.6-0.8,0.6-1.5c0-0.6-0.2-1.1-0.6-1.5
			c-0.4-0.4-0.9-0.5-1.7-0.5H81.3z"/>
		<path class="st0" d="M90.4,28.4v8.3h5.1v1h-6.1v-9.3H90.4z"/>
		<path class="st0" d="M105.2,37.7H104l-1.1-2.7h-4.6l-1.1,2.7H96l3.9-9.3h1.3L105.2,37.7z M102.5,34.1l-1.9-4.5l-1.9,4.5H102.5z"/>
		<path class="st0" d="M107.7,29.9c-0.2,0.2-0.3,0.3-0.4,0.5s-0.1,0.4-0.1,0.6s0.1,0.4,0.3,0.6c0.2,0.2,0.4,0.3,0.7,0.4
			s0.6,0.2,1,0.3c0.4,0.1,0.8,0.2,1.2,0.3c0.4,0.1,0.8,0.2,1.2,0.3s0.7,0.3,1,0.5c0.7,0.4,1,1,1,1.7c0,0.9-0.3,1.5-1,2
			c-0.6,0.5-1.5,0.7-2.7,0.7c-1.3,0-2.3-0.3-3-0.8c-0.6-0.5-1-1.2-1-2.1h1.1c0,0.6,0.3,1.1,0.9,1.5c0.5,0.3,1.2,0.4,2,0.4
			c1.7,0,2.6-0.5,2.6-1.6c0-0.4-0.2-0.7-0.5-0.9c-0.3-0.2-0.7-0.4-1.2-0.5c-0.5-0.1-1-0.3-1.5-0.4s-1.1-0.3-1.5-0.5
			s-0.9-0.4-1.2-0.8s-0.5-0.7-0.5-1.3c0-0.8,0.3-1.4,0.9-1.8c0.6-0.5,1.5-0.7,2.6-0.7c1.2,0,2.1,0.3,2.7,0.8
			c0.6,0.5,0.9,1.1,0.9,1.8h-1.1c-0.1-0.8-0.6-1.3-1.5-1.5c-0.3-0.1-0.7-0.1-1.2-0.1c-0.5,0-0.9,0.1-1.2,0.2
			C108.1,29.6,107.9,29.7,107.7,29.9z"/>
		<path class="st0" d="M122.1,29.5h-3.2v8.3h-1v-8.3h-3.2v-1h7.5V29.5z"/>
		<path class="st0" d="M124.7,37.7h-1.1v-9.3h1.1V37.7z"/>
		<path class="st0" d="M131.4,36.8c0.7,0,1.2-0.2,1.7-0.5s0.9-0.8,1.1-1.4h1.1c-0.3,0.9-0.8,1.6-1.5,2.1c-0.8,0.5-1.6,0.8-2.7,0.8
			c-1.4,0-2.4-0.5-3.3-1.4c-0.8-0.9-1.2-2-1.2-3.4s0.4-2.5,1.2-3.4c0.8-0.9,1.9-1.4,3.3-1.4c1,0,1.9,0.3,2.7,0.8
			c0.7,0.5,1.2,1.2,1.5,2.1h-1.1c-0.2-0.6-0.6-1-1.1-1.4c-0.5-0.3-1.1-0.5-1.7-0.5s-1.2,0.1-1.7,0.3c-0.4,0.2-0.8,0.5-1.1,0.8
			c-0.6,0.7-0.9,1.6-0.9,2.6s0.3,2,0.9,2.6C129.3,36.4,130.2,36.8,131.4,36.8z"/>
	</g>
	<g>
		<path class="st0" d="M81.6,54.7h-1.1v-9.3H85c0.9,0,1.7,0.3,2.3,0.8c0.6,0.5,0.9,1.2,0.9,2.1c0,1.2-0.5,1.9-1.4,2.4
			c-0.3,0.1-0.5,0.2-0.8,0.3l2.4,3.7h-1.2l-2.2-3.6h-3.2V54.7z M81.6,50.2h3.2c1,0,1.7-0.3,2-0.9c0.1-0.2,0.2-0.5,0.2-0.9
			c0-0.6-0.2-1.1-0.6-1.4s-0.9-0.5-1.6-0.5h-3.3V50.2z"/>
		<path class="st0" d="M94.4,45.4c1.4,0,2.5,0.5,3.4,1.4c0.9,0.9,1.3,2,1.3,3.4s-0.4,2.5-1.3,3.4c-0.9,0.9-2,1.4-3.4,1.4
			s-2.5-0.5-3.4-1.4c-0.9-0.9-1.3-2-1.3-3.4s0.4-2.5,1.3-3.4C91.8,45.8,93,45.4,94.4,45.4z M94.4,53.8c1.1,0,2-0.4,2.7-1.1
			c0.7-0.7,1-1.6,1-2.6s-0.3-2-1-2.6c-0.7-0.7-1.6-1.1-2.7-1.1s-2,0.4-2.7,1.1c-0.7,0.7-1,1.6-1,2.6s0.3,2,1,2.6
			C92.4,53.5,93.3,53.8,94.4,53.8z"/>
		<path class="st0" d="M108.9,54.7h-1.2l-1.1-2.7H102l-1.1,2.7h-1.2l3.9-9.3h1.3L108.9,54.7z M106.2,51.1l-1.9-4.5l-1.9,4.5H106.2z"
			/>
		<path class="st0" d="M114.3,45.5c0.6,0,1.1,0.1,1.6,0.3s1,0.5,1.4,0.9c0.9,0.9,1.3,2,1.3,3.4c0,1.4-0.4,2.5-1.3,3.4
			c-0.4,0.4-0.8,0.7-1.4,0.9s-1,0.3-1.6,0.3h-3.9v-9.3H114.3z M114.2,53.7c1,0,1.8-0.4,2.4-1.1c0.6-0.7,0.9-1.5,0.9-2.6
			s-0.3-1.9-0.9-2.6c-0.6-0.7-1.4-1.1-2.4-1.1h-2.8v7.3H114.2z"/>
		<path class="st0" d="M131.6,54.7h-1.2l-1.1-2.7h-4.6l-1.1,2.7h-1.2l3.9-9.3h1.3L131.6,54.7z M128.9,51.1l-1.9-4.5l-1.9,4.5H128.9z
			"/>
		<path class="st0" d="M135.3,54.7h-1.2l-2.9-9.3h1.1l2.4,7.8l2.5-7.8h1.2l2.5,7.8l2.4-7.8h1.1l-2.9,9.3h-1.2l-2.5-7.8L135.3,54.7z"
			/>
		<path class="st0" d="M153.3,54.7h-1.2L151,52h-4.6l-1.1,2.7h-1.2l3.9-9.3h1.3L153.3,54.7z M150.6,51.1l-1.9-4.5l-1.9,4.5H150.6z"
			/>
		<path class="st0" d="M155.7,54.7h-1v-9.3h4.4c0.9,0,1.7,0.3,2.3,0.8c0.6,0.5,0.9,1.2,0.9,2.1c0,1.2-0.5,1.9-1.4,2.4
			c-0.3,0.1-0.5,0.2-0.8,0.3l2.4,3.7h-1.2l-2.2-3.6h-3.2V54.7z M155.7,50.2h3.2c1,0,1.7-0.3,2-0.9c0.1-0.2,0.2-0.5,0.2-0.9
			c0-0.6-0.2-1.1-0.6-1.4s-0.9-0.5-1.6-0.5h-3.3V50.2z"/>
		<path class="st0" d="M168.2,45.5c0.6,0,1.1,0.1,1.6,0.3c0.5,0.2,1,0.5,1.4,0.9c0.9,0.9,1.3,2,1.3,3.4c0,1.4-0.4,2.5-1.3,3.4
			c-0.4,0.4-0.8,0.7-1.4,0.9c-0.5,0.2-1,0.3-1.6,0.3h-3.9v-9.3H168.2z M168.2,53.7c1,0,1.8-0.4,2.4-1.1c0.6-0.7,0.9-1.5,0.9-2.6
			s-0.3-1.9-0.9-2.6c-0.6-0.7-1.4-1.1-2.4-1.1h-2.8v7.3H168.2z"/>
		<path class="st0" d="M175.5,46.9c-0.2,0.2-0.3,0.3-0.4,0.5s-0.1,0.4-0.1,0.6s0.1,0.4,0.3,0.6c0.2,0.2,0.4,0.3,0.7,0.4
			s0.6,0.2,1,0.3c0.4,0.1,0.8,0.2,1.2,0.3c0.4,0.1,0.8,0.2,1.2,0.3s0.7,0.3,1,0.5c0.7,0.4,1,1,1,1.7c0,0.9-0.3,1.5-1,2
			c-0.6,0.5-1.5,0.7-2.7,0.7c-1.3,0-2.3-0.3-3-0.8c-0.6-0.5-1-1.2-1-2.1h1.1c0,0.6,0.3,1.1,0.9,1.5c0.5,0.3,1.2,0.4,2,0.4
			c1.7,0,2.6-0.5,2.6-1.6c0-0.4-0.2-0.7-0.5-0.9c-0.3-0.2-0.7-0.4-1.2-0.5c-0.5-0.1-1-0.3-1.5-0.4s-1.1-0.3-1.5-0.5
			c-0.5-0.2-0.9-0.4-1.2-0.8s-0.5-0.7-0.5-1.3c0-0.8,0.3-1.4,0.9-1.8s1.5-0.7,2.6-0.7c1.2,0,2.1,0.3,2.7,0.8
			c0.6,0.5,0.9,1.1,0.9,1.8h-1.1c-0.1-0.8-0.6-1.3-1.5-1.5c-0.3-0.1-0.7-0.1-1.2-0.1s-0.9,0.1-1.2,0.2
			C176,46.6,175.7,46.7,175.5,46.9z"/>
	</g>
	<g>
		<defs>
			<path id="SVGID_1_" d="M33.3,17.1h5.7c0.5,5,1,10,1.4,15h-8.5C32.3,27.1,32.8,22.1,33.3,17.1 M16.1,0c-3,19.2-5.9,38.4-8.9,57.7
				h22.2c0-0.4,0.1-0.8,0.1-1.2c0.3-3.6,0.7-7.2,1-10.7c0-0.5,0.3-0.6,0.9-0.6c2.3,0,4.5,0,6.8,0c0.9,0,1.8,0,2.7,0
				c0.2,0,0.4,0,0.7,0c0.4,4.2,0.8,8.4,1.2,12.6H65C62,38.5,59.1,19.3,56.1,0H37.3c0.2,2.6,0.5,5.1,0.7,7.6h-3.9
				c0.2-2.6,0.5-5.1,0.7-7.6H16.1z M58.8,0c3,19.2,5.9,38.4,8.9,57.7h4.5c-3-19.2-5.9-38.4-8.9-57.7H58.8z M9.5,0
				C9,0,8.9,0.2,8.8,0.6C8.6,1.8,8.4,3,8.3,4.2C7.8,7,7.4,9.7,7,12.5c-0.4,2.8-0.9,5.6-1.3,8.4c-0.4,2.8-0.9,5.5-1.3,8.3
				c-0.4,2.8-0.9,5.6-1.3,8.3c-0.4,2.8-0.9,5.6-1.3,8.4c-0.4,2.8-0.9,5.6-1.3,8.3c-0.2,1.1-0.3,2.3-0.5,3.5h4.5
				c3-19.2,5.9-38.4,8.9-57.7C12.1,0,10.8,0,9.5,0C9.6,0,9.6,0,9.5,0L9.5,0z"/>
		</defs>
		<clipPath id="SVGID_2_">
			<use xlink:href="#SVGID_1_"  style="overflow:visible;"/>
		</clipPath>
		
			<linearGradient id="SVGID_3_" gradientUnits="userSpaceOnUse" x1="-584.8917" y1="418.8921" x2="-583.8917" y2="418.8921" gradientTransform="matrix(72.3941 0 0 -72.3941 42342.6016 30354.1562)">
			<stop  offset="0" style="stop-color:#3151A3"/>
			<stop  offset="1" style="stop-color:#51AED0"/>
		</linearGradient>
		<rect x="0" class="st1" width="72.2" height="57.7"/>
	</g>
</g>
</svg>
