<?xml version="1.0" encoding="utf-8"?>
<!-- Generator: Adobe Illustrator 21.0.2, SVG Export Plug-In . SVG Version: 6.00 Build 0)  -->
<svg version="1.1" id="Layer_1" xmlns="http://www.w3.org/2000/svg" xmlns:xlink="http://www.w3.org/1999/xlink" x="0px" y="0px"
	 viewBox="0 0 123.4 99.9" style="enable-background:new 0 0 123.4 99.9;" xml:space="preserve">
<style type="text/css">
	.st0{clip-path:url(#SVGID_2_);fill:#00B5EC;}
</style>
<title>solutions_bike01</title>
<g>
	<defs>
		<rect id="SVGID_1_" width="123.4" height="99.9"/>
	</defs>
	<clipPath id="SVGID_2_">
		<use xlink:href="#SVGID_1_"  style="overflow:visible;"/>
	</clipPath>
	<path class="st0" d="M105.1,17.3h-3.4v7.6h3.4V17.3z M63.4,17.4h-3.5V25h3.5V17.4z M21.7,17.4h-3.5v7.6h3.5V17.4z M75.4,19.8
		c-1.8-1.9-3.5-3.7-5.2-5.5c-0.8,0.8-1.7,1.6-2.4,2.3c1.8,1.9,3.6,3.8,5.3,5.7C73.9,21.5,74.7,20.6,75.4,19.8 M11.4,14.2
		c-1.8,1.9-3.5,3.8-5.2,5.5c0.7,0.8,1.5,1.7,2.2,2.5c1.7-1.8,3.5-3.7,5.2-5.5C12.9,15.9,12.1,15,11.4,14.2 M89.6,19.7
		c0.7,0.8,1.6,1.7,2.3,2.5c1.7-1.8,3.5-3.7,5.3-5.6c-0.8-0.8-1.6-1.6-2.4-2.4C93.1,16.1,91.3,17.9,89.6,19.7 M109.6,16.6
		c1.8,1.9,3.6,3.8,5.3,5.6c0.7-0.7,1.5-1.6,2.3-2.3c-1.7-1.9-3.5-3.8-5.2-5.6C111.1,15,110.3,15.9,109.6,16.6 M53.2,14.2
		c-1.8,1.9-3.6,3.8-5.2,5.5c0.7,0.8,1.5,1.7,2.2,2.5c1.7-1.9,3.5-3.7,5.3-5.6C54.7,15.8,53.9,15,53.2,14.2 M28.3,14.2
		c-0.7,0.8-1.5,1.6-2.2,2.3c1.8,1.9,3.6,3.8,5.2,5.5c0.8-0.7,1.6-1.6,2.3-2.3C31.9,18,30.1,16.1,28.3,14.2 M65.2,3.9h-7.1v3.7h7.1
		V3.9z M23.5,3.9h-7.1v3.6h7.1V3.9z M99.8,7.6h7.1V3.9h-7.1V7.6z M96.1,3.9H68.9c0,1.8,0,3.5,0,5.2c0,1.7-0.7,2.4-2.2,2.4
		c-3.4,0-6.7,0-10.1,0c-1.5,0-2.2-0.7-2.2-2.3c0-1.7,0-3.4,0-5.3H27.2c0,1.7,0,3.3,0,5c0,2-0.6,2.7-2.5,2.7c-3.2,0-6.4,0-9.6,0
		c-1.8,0-2.4-0.7-2.4-2.5c0-1.6,0-3.2,0-4.8c0-0.1,0-0.1-0.1-0.3H7.3V0H116v3.8h-5.4c0,1.7,0,3.3,0,4.9c0,2.2-0.5,2.8-2.6,2.8
		c-3.2,0-6.3,0-9.5,0c-1.7,0-2.4-0.7-2.4-2.5C96.1,7.4,96.1,5.7,96.1,3.9 M59.1,71.4c-2.5,0-5,0-7.5,0c-1.3,0-1.9,0.5-1.9,1.5
		c0,1,0.6,1.5,1.8,1.5l11.6-3.1v-9.8c0.8-0.1,1.6-0.2,2.4-0.3c5.1-0.9,9.1-3.7,11.5-8.7c2.3-4.8,3-10,2.4-15.3
		c-0.1-1-0.7-1.4-1.5-1.4c-2.9,0-5.6,0.7-8.1,2.4c-3.8,2.6-6,6.5-7.5,10.8c-0.2,0.6-0.4,2.5-0.5,2.8c-1.1-2.4-2-6.3-3.4-8.5
		c-3-5-7.3-7.5-12.9-7.6c-1.2,0-1.7,0.5-1.7,1.7c-0.2,3.7,0.2,7.4,1.3,11c1.7,5.6,4.7,9.9,10.2,11.9c1.6,0.6,3.3,0.8,5,1.2v9.7H59.1
		z"/>
	<path class="st0" d="M123.4,93.9c0,1.7,0,3.3,0,4.9c0,0.1-0.4,0.3-0.7,0.4c-4,0.9-8,0.9-12.1,0c-2-0.4-4.2-0.8-6.3-1
		c-2.7-0.3-5.3,0.2-7.8,0.7c-1.8,0.3-3.6,0.7-5.4,0.9c-2.9,0.3-5.7-0.2-8.4-0.7c-1.9-0.4-3.9-0.7-5.9-0.9c-2.8-0.3-5.4,0.2-8.1,0.7
		c-1.6,0.3-3.3,0.6-5,0.8c-3,0.3-5.8-0.1-8.6-0.7c-2.7-0.6-5.5-1.1-8.4-0.8c-1.9,0.2-3.6,0.5-5.5,0.8c-1.7,0.3-3.3,0.6-5,0.8
		c-3,0.3-5.8-0.1-8.5-0.7c-2.7-0.6-5.4-1.1-8.4-0.8c-1.9,0.2-3.7,0.5-5.5,0.8c-1.7,0.2-3.3,0.6-4.9,0.8c-2.8,0.3-5.5-0.1-8.1-0.6
		C0.3,99.1,0,98.8,0,98.5v-3.5c0-0.5,0.7-0.9,1.4-0.7c0,0,0,0,0,0c3.5,0.6,7.1,0.7,10.6,0c1.7-0.3,3.5-0.7,5.3-1
		c3.2-0.5,6.2-0.2,9.2,0.4c1.6,0.3,3.3,0.7,5,0.9c3.2,0.4,6.2,0,9.1-0.6c1.8-0.3,3.6-0.7,5.4-0.9c3-0.3,5.8,0.2,8.6,0.7
		c1.9,0.4,3.9,0.7,5.8,0.9c2.6,0.2,5.1-0.2,7.6-0.7c1.8-0.3,3.6-0.7,5.4-0.9c2.8-0.3,5.4,0.1,8,0.6c1.6,0.3,3.3,0.6,5,0.9
		c3.1,0.4,6.1,0,9-0.5c1.8-0.3,3.6-0.7,5.5-0.9c3-0.3,5.7,0.2,8.5,0.7c1.9,0.4,3.9,0.7,5.8,0.9c2.4,0.2,4.7-0.1,7-0.5
		C122.6,94.1,122.9,94,123.4,93.9 M123.4,86.2c0,1.7,0,3.3,0,4.9c0,0.1-0.4,0.3-0.7,0.4c-4,0.9-8,0.9-12.1,0c-2-0.4-4.2-0.8-6.3-1
		c-2.7-0.3-5.3,0.2-7.8,0.7c-1.8,0.3-3.6,0.7-5.4,0.9c-2.9,0.3-5.7-0.2-8.4-0.7c-1.9-0.4-3.9-0.7-5.9-0.9c-2.8-0.3-5.4,0.2-8.1,0.7
		c-1.6,0.3-3.3,0.6-5,0.8c-3,0.3-5.8-0.1-8.6-0.7c-2.7-0.6-5.5-1.1-8.4-0.8c-1.9,0.2-3.6,0.5-5.5,0.8c-1.7,0.3-3.3,0.6-5,0.8
		c-3,0.3-5.8-0.1-8.5-0.7c-2.7-0.6-5.4-1.1-8.4-0.8c-1.9,0.2-3.7,0.5-5.5,0.8c-1.7,0.2-3.3,0.6-4.9,0.8C6,92.4,3.4,92,0.8,91.5
		C0.3,91.4,0,91.1,0,90.7v-3.6c0-0.5,0.7-0.9,1.4-0.7c0,0,0,0,0,0c3.5,0.6,7.1,0.7,10.6,0c1.7-0.3,3.5-0.7,5.3-1
		c3.2-0.5,6.2-0.2,9.2,0.4c1.6,0.3,3.3,0.7,5,0.9c3.2,0.4,6.2,0,9.1-0.6c1.8-0.3,3.6-0.7,5.4-0.9c3-0.3,5.8,0.2,8.6,0.7
		c1.9,0.4,3.9,0.7,5.8,0.9c2.6,0.2,5.1-0.2,7.6-0.7c1.8-0.3,3.6-0.7,5.4-0.9c2.8-0.3,5.4,0.1,8,0.6c1.6,0.3,3.3,0.7,5,0.9
		c3.1,0.4,6.1,0,9-0.5c1.8-0.3,3.6-0.7,5.5-0.9c3-0.3,5.7,0.2,8.5,0.7c1.9,0.4,3.9,0.7,5.8,0.9c2.4,0.2,4.7-0.1,7-0.5
		C122.6,86.3,122.9,86.3,123.4,86.2 M123.4,78.5c0,1.7,0,3.3,0,4.9c0,0.1-0.4,0.3-0.7,0.4c-4,0.9-8,0.9-12.1,0c-2-0.4-4.2-0.8-6.3-1
		c-2.7-0.3-5.3,0.2-7.8,0.7c-1.8,0.3-3.6,0.7-5.4,0.9c-2.9,0.3-5.7-0.2-8.4-0.7c-1.9-0.4-3.9-0.7-5.9-0.9c-2.8-0.3-5.4,0.2-8.1,0.7
		c-1.6,0.3-3.3,0.6-5,0.8c-3,0.3-5.8-0.1-8.6-0.7c-2.7-0.6-5.5-1.1-8.4-0.8c-1.9,0.2-3.6,0.5-5.5,0.8c-1.7,0.3-3.3,0.6-5,0.8
		c-3,0.3-5.8-0.1-8.5-0.7c-2.7-0.6-5.4-1.1-8.4-0.8c-1.9,0.2-3.7,0.5-5.5,0.8c-1.7,0.3-3.3,0.6-4.9,0.8c-2.8,0.3-5.5-0.1-8.1-0.6
		C0.3,83.7,0,83.4,0,83v-3.5c0-0.5,0.7-0.9,1.4-0.7c0,0,0,0,0,0c3.5,0.6,7.1,0.7,10.6,0c1.7-0.3,3.5-0.7,5.3-1
		c3.2-0.5,6.2-0.2,9.2,0.4c1.6,0.3,3.3,0.7,5,0.9c3.2,0.4,6.2,0,9.1-0.6c1.8-0.3,3.6-0.7,5.4-0.9c3-0.3,5.8,0.2,8.6,0.7
		c1.9,0.4,3.9,0.7,5.8,0.9c2.6,0.2,5.1-0.2,7.6-0.7c1.8-0.3,3.6-0.7,5.4-0.9c2.8-0.3,5.4,0.1,8,0.6c1.6,0.3,3.3,0.7,5,0.9
		c3.1,0.4,6.1,0,9-0.5c1.8-0.4,3.6-0.7,5.5-0.9c3-0.3,5.7,0.2,8.5,0.7c1.9,0.4,3.9,0.7,5.8,0.9c2.4,0.2,4.7-0.1,7-0.5
		C122.6,78.6,122.9,78.6,123.4,78.5"/>
</g>
</svg>
