<?xml version="1.0" encoding="utf-8"?>
<!-- Generator: Adobe Illustrator 21.0.2, SVG Export Plug-In . SVG Version: 6.00 Build 0)  -->
<svg version="1.1" id="Layer_1" xmlns="http://www.w3.org/2000/svg" xmlns:xlink="http://www.w3.org/1999/xlink" x="0px" y="0px"
	 viewBox="0 0 200.9 175.7" style="enable-background:new 0 0 200.9 175.7;" xml:space="preserve">
<style type="text/css">
	.st0{clip-path:url(#SVGID_2_);fill-rule:evenodd;clip-rule:evenodd;fill:#00B5EC;}
</style>
<g>
	<defs>
		<rect id="SVGID_1_" x="17.4" width="168.5" height="176"/>
	</defs>
	<clipPath id="SVGID_2_">
		<use xlink:href="#SVGID_1_"  style="overflow:visible;"/>
	</clipPath>
	<path class="st0" d="M136.1,81.5c26.1,0,47.2,21.1,47.2,47.2c0,26.1-21.2,47.2-47.2,47.2c-26.1,0-47.2-21.2-47.2-47.2
		C88.9,102.7,110,81.5,136.1,81.5 M120.1,55.8l8.4-0.8c1,5.3,3.8,8.2,9.3,8.2c3.6,0,8.3-1.5,8.3-5.9c0-4.6-7.4-5.4-10.8-6.3
		c-6.8-1.7-13.6-4.7-13.6-12.8c0-7.3,5.7-10.8,12.1-11.7v-4.8h7.3v4.8c6.9,1,12.2,4.7,12.4,12.8l-8.6,0.3c-0.8-4.6-3.2-6.2-7.8-6.2
		c-2.6,0-7.2,0.8-7.2,4.2c0,3.7,6.5,4.8,9.2,5.5c8.3,1.9,15.7,4.4,15.7,14.2c0,8.4-6.5,12.1-13.7,13v4.5h-7.3v-4.6
		C126,69,121.1,64.6,120.1,55.8 M49.4,95.5l8.4-0.8c1,5.3,3.8,8.1,9.3,8.1c3.6,0,8.3-1.5,8.3-5.9c0-4.6-7.4-5.4-10.8-6.3
		C57.8,89,51,86,51,77.8c0-7.3,5.7-10.8,12.1-11.7v-4.8h7.3v4.8c6.9,1,12.2,4.7,12.4,12.8l-8.6,0.3c-0.8-4.6-3.2-6.2-7.8-6.2
		c-2.6,0-7.2,0.8-7.2,4.2c0,3.7,6.5,4.8,9.2,5.5c8.3,1.9,15.7,4.4,15.7,14.2c0,8.4-6.5,12.1-13.7,13v4.5h-7.3v-4.6
		C55.4,108.8,50.5,104.3,49.4,95.5 M89,31.4C96.7,12.4,115.1,0,135.6,0c27.8,0,50.3,22.5,50.3,50.3c0,12.7-4.7,24.8-13.3,34.1
		c-3.2-2.6-6.7-4.9-10.4-6.8c7.4-7.2,11.5-17,11.5-27.3c0-21-17-38-38-38c-15.5,0-29.4,9.3-35.2,23.7L89,31.4z M79.2,136.8
		c-3.8,0.9-7.7,1.4-11.6,1.4c-27.8,0-50.3-22.5-50.3-50.3c0-27.8,22.5-50.3,50.3-50.3c22.8,0,42.7,15.3,48.5,37.3
		c-4,1.5-7.8,3.4-11.3,5.7c-3.5-17.8-19.2-30.6-37.3-30.6c-21,0-38,17-38,38c0,21,17,38,38,38c3.8,0,7.6-0.6,11.2-1.7
		C78.5,128.4,78.7,132.6,79.2,136.8 M136.1,94.1c19.1,0,34.7,15.5,34.7,34.7c0,19.1-15.5,34.7-34.7,34.7s-34.7-15.5-34.7-34.7
		C101.4,109.6,117,94.1,136.1,94.1 M120,135.8l7.8-0.8c0.9,4.9,3.5,7.6,8.6,7.6c3.4,0,7.7-1.4,7.7-5.4c0-4.2-6.8-5-10-5.8
		c-6.3-1.6-12.6-4.3-12.6-11.9c0-6.7,5.3-10,11.2-10.8v-4.4h6.7v4.4c6.4,0.9,11.3,4.4,11.5,11.8l-8,0.3c-0.7-4.3-3-5.7-7.2-5.7
		c-2.4,0-6.7,0.7-6.7,3.9c0,3.4,6,4.5,8.5,5.1c7.7,1.8,14.5,4.1,14.5,13.2c0,7.8-6,11.3-12.7,12v4.2h-6.7v-4.2
		C125.6,148.1,121,144,120,135.8"/>
</g>
</svg>
