<svg xmlns="http://www.w3.org/2000/svg" viewBox="0 0 72.43 72.43"><defs><style>.cls-1{fill:#00b5ec;}.cls-2{fill:#fff;}.cls-3{fill:#3ebce8;}</style></defs><title>solutions_plasticroad_icon01solutions_</title><g id="Layer_2" data-name="Layer 2"><g id="Layer_1-2" data-name="Layer 1"><path class="cls-1" d="M0,36.21A36.21,36.21,0,1,1,36.21,72.43,36.21,36.21,0,0,1,0,36.21"/><path class="cls-2" d="M42.83,13.31H34.54C9.86,21.58,2.76,46.58,13.23,54.85H64.15C39.47,46.58,32.36,21.58,42.83,13.31"/><path class="cls-3" d="M41.21,54.85h-5a22.27,22.27,0,0,1-3.35-2h4.74a25.67,25.67,0,0,0,3.65,2"/><path class="cls-3" d="M28.37,25.12H26.21a23.49,23.49,0,0,1,3.42-5.36h1.64a21.45,21.45,0,0,0-2.9,5.36m-1.06,12H24.11a23.67,23.67,0,0,1,.26-6.1H27a23.67,23.67,0,0,0,.26,6.1M32.56,48.4H28.34A21.44,21.44,0,0,1,25.43,43h3.71a23.44,23.44,0,0,0,3.42,5.36"/><path class="cls-3" d="M35.75,15.32H34.63a25.82,25.82,0,0,1,3.65-2h.82a22.36,22.36,0,0,0-3.35,2"/><path class="cls-3" d="M16.36,54.85H14.81c-10.91-8.27-4.25-33.27,20-41.54h.25C11.25,21.58,5,46.58,16.36,54.85"/><path class="cls-3" d="M62.57,54.85H61C37.21,46.58,31,21.58,42.32,13.31h.25c-10.91,8.27-4.25,33.27,20,41.54"/></g></g></svg>