<?xml version="1.0" encoding="utf-8"?>
<!-- Generator: Adobe Illustrator 21.0.2, SVG Export Plug-In . SVG Version: 6.00 Build 0)  -->
<svg version="1.1" id="Layer_1" xmlns="http://www.w3.org/2000/svg" xmlns:xlink="http://www.w3.org/1999/xlink" x="0px" y="0px"
	 viewBox="0 0 71.3 38.6" style="enable-background:new 0 0 71.3 38.6;" xml:space="preserve">
<style type="text/css">
	.st0{clip-path:url(#SVGID_2_);fill:#00B5ED;}
</style>
<title>solutions_icon01</title>
<g>
	<defs>
		<rect id="SVGID_1_" width="71.3" height="38.6"/>
	</defs>
	<clipPath id="SVGID_2_">
		<use xlink:href="#SVGID_1_"  style="overflow:visible;"/>
	</clipPath>
	<path class="st0" d="M46.6,0h24.7v2.8h-3v0.9c0,9.6,0,13.1,0,22.7c0,4.4-2.7,7.9-7,8.9c-0.8,0.2-1.6,0.3-2.5,0.3
		c-3.8,0-7.5,0-11.3,0h-0.9v3h-6.1V14.8h6.1v2.9h3.1V2.9h-3V0z"/>
	<path class="st0" d="M0,18.4c1.6,0.2,3.2-0.2,4.7-0.6c1.1-0.3,2.2-0.6,3.3-0.7c1.7-0.3,3.3,0.1,4.9,0.5c1,0.3,2,0.6,3.1,0.7
		c1.9,0.3,3.7,0,5.5-0.5c1.1-0.3,2.2-0.6,3.4-0.8c1.8-0.3,3.5,0.1,5.2,0.6c1.2,0.3,2.4,0.6,3.6,0.7c1.5,0.2,2.9-0.1,4.3-0.5
		c0.2-0.1,0.4-0.1,0.7-0.2c0,1.4,0,2.8,0,4.2c0,0.1-0.2,0.3-0.4,0.3c-2.5,0.8-4.9,0.8-7.4,0c-1.2-0.4-2.6-0.7-3.9-0.8
		c-1.7-0.2-3.2,0.2-4.8,0.6c-1.1,0.3-2.2,0.6-3.3,0.7c-1.8,0.3-3.5-0.1-5.2-0.6c-1.2-0.3-2.4-0.6-3.7-0.8c-1.7-0.2-3.4,0.2-5,0.6
		c-1,0.3-2,0.5-3.1,0.7"/>
	<path class="st0" d="M0,25c1.6,0.2,3.2-0.2,4.7-0.6c1.1-0.3,2.2-0.6,3.3-0.7c1.7-0.3,3.3,0.1,4.9,0.5c1,0.3,2,0.6,3.1,0.7
		c1.9,0.3,3.7,0,5.5-0.5c1.1-0.3,2.2-0.6,3.4-0.8c1.8-0.3,3.5,0.1,5.2,0.6c1.2,0.3,2.4,0.6,3.6,0.7c1.5,0.2,2.9-0.1,4.3-0.5
		c0.2-0.1,0.4-0.1,0.7-0.2c0,1.4,0,2.8,0,4.2c0,0.1-0.2,0.3-0.4,0.3c-2.5,0.8-4.9,0.8-7.4,0c-1.2-0.4-2.6-0.7-3.9-0.8
		c-1.7-0.2-3.2,0.2-4.8,0.6c-1.1,0.3-2.2,0.6-3.3,0.7c-1.8,0.3-3.5-0.1-5.2-0.6c-1.2-0.3-2.4-0.6-3.7-0.8c-1.7-0.2-3.4,0.2-5,0.6
		c-1,0.3-2,0.5-3.1,0.7"/>
	<path class="st0" d="M0,31.6c1.6,0.2,3.2-0.2,4.7-0.6c1.1-0.3,2.2-0.6,3.3-0.7c1.7-0.3,3.3,0.1,4.9,0.5c1,0.3,2,0.6,3.1,0.7
		c1.9,0.3,3.7,0,5.5-0.5c1.1-0.3,2.2-0.6,3.4-0.8c1.8-0.3,3.5,0.1,5.2,0.6c1.2,0.3,2.4,0.6,3.6,0.7c1.5,0.2,2.9-0.1,4.3-0.5
		c0.2-0.1,0.4-0.1,0.7-0.2c0,1.4,0,2.8,0,4.2c0,0.1-0.2,0.3-0.4,0.3c-2.5,0.8-4.9,0.8-7.4,0c-1.2-0.4-2.6-0.7-3.9-0.8
		c-1.7-0.2-3.2,0.2-4.8,0.6c-1.1,0.3-2.2,0.6-3.3,0.7c-1.8,0.3-3.5-0.1-5.2-0.6c-1.2-0.3-2.4-0.6-3.7-0.8c-1.7-0.2-3.4,0.2-5,0.6
		c-1,0.3-2,0.5-3.1,0.7"/>
</g>
</svg>
