<?xml version="1.0" encoding="utf-8"?>
<!-- Generator: Adobe Illustrator 21.0.2, SVG Export Plug-In . SVG Version: 6.00 Build 0)  -->
<svg version="1.1" id="Layer_1" xmlns="http://www.w3.org/2000/svg" xmlns:xlink="http://www.w3.org/1999/xlink" x="0px" y="0px"
	 viewBox="0 0 148.1 128.5" style="enable-background:new 0 0 148.1 128.5;" xml:space="preserve">
<style type="text/css">
	.st0{clip-path:url(#SVGID_2_);fill:#00B5EC;}
</style>
<g>
	<defs>
		<rect id="SVGID_1_" width="148.1" height="128.5"/>
	</defs>
	<clipPath id="SVGID_2_">
		<use xlink:href="#SVGID_1_"  style="overflow:visible;"/>
	</clipPath>
	<path class="st0" d="M139.5,68.3h-8.8v27h8.8c4.8,0,8.6-3.8,8.6-8.6v-10C148.1,72.1,144.3,68.3,139.5,68.3"/>
	<path class="st0" d="M139.5,10.3h-9.1v0.5v26.8h8.8c4.8,0,8.6-3.8,8.6-8.6v-10C148.1,14.1,144.3,10.3,139.5,10.3"/>
	<path class="st0" d="M0,110.1v11c0,4.1,3.3,7.4,7.4,7.4h6.7c4.1,0,7.4-3.3,7.4-7.4v-11c-2.9,2.6-6.7,4.3-10.7,4.3
		S2.9,112.7,0,110.1"/>
	<path class="st0" d="M104.4,109.9v11.2c0,4.1,3.3,7.4,7.4,7.4h6.7c4.1,0,7.4-3.3,7.4-7.4v-11c-2.9,2.6-6.4,4.3-10.7,4.3
		C111.1,114.2,107.2,112.5,104.4,109.9"/>
	<path class="st0" d="M12.4,17H8.8c-1.4,0-2.4-1-2.4-2.4c0-1.4,1-2.4,2.4-2.4h3.6c1.4,0,2.4,1,2.4,2.4C14.8,16,13.9,17,12.4,17
		 M12.4,99.1H8.8c-1.4,0-2.4-1-2.4-2.4c0-1.4,1-2.4,2.4-2.4h3.6c1.4,0,2.4,1,2.4,2.4C14.8,97.9,13.9,99.1,12.4,99.1 M10.7,0.2
		C4.8,0.2,0,5,0,11v87.9c0,6,4.8,10.7,10.7,10.7s10.7-4.8,10.7-10.7V11C21.3,5,16.5,0.2,10.7,0.2"/>
	<path class="st0" d="M38.7,17h-3.6c-1.4,0-2.4-1-2.4-2.4c0-1.4,1-2.4,2.4-2.4h3.6c1.4,0,2.4,1,2.4,2.4C41.1,16,39.9,17,38.7,17
		 M38.7,99.1h-3.6c-1.4,0-2.4-1-2.4-2.4c0-1.4,1-2.4,2.4-2.4h3.6c1.4,0,2.4,1,2.4,2.4C41.1,97.9,39.9,99.1,38.7,99.1 M36.8,0.2
		C30.8,0.2,26,5,26,11v87.9c0,6,4.8,10.7,10.7,10.7s10.7-4.8,10.7-10.7V11C47.5,5,42.8,0.2,36.8,0.2"/>
	<path class="st0" d="M64.7,17h-3.6c-1.4,0-2.4-1-2.4-2.4c0-1.4,1-2.4,2.4-2.4h3.6c1.4,0,2.4,1,2.4,2.4C67.1,16,65.9,17,64.7,17
		 M64.7,99.1h-3.6c-1.4,0-2.4-1-2.4-2.4c0-1.4,1-2.4,2.4-2.4h3.6c1.4,0,2.4,1,2.4,2.4C67.1,97.9,65.9,99.1,64.7,99.1 M62.8,0.2
		c-6,0-10.7,4.8-10.7,10.7v87.9c0,6,4.8,10.7,10.7,10.7s10.7-4.8,10.7-10.7V11C73.6,5,68.8,0.2,62.8,0.2"/>
	<path class="st0" d="M117,16.7h-3.6c-1.4,0-2.4-1-2.4-2.4c0-1.4,1-2.4,2.4-2.4h3.6c1.4,0,2.4,1,2.4,2.4
		C119.4,15.8,118.2,16.7,117,16.7 M117,98.9h-3.6c-1.4,0-2.4-1-2.4-2.4c0-1.4,1-2.4,2.4-2.4h3.6c1.4,0,2.4,1,2.4,2.4
		C119.4,97.7,118.2,98.9,117,98.9 M115.1,0c-6,0-10.7,4.8-10.7,10.7v87.9c0,6,4.8,10.7,10.7,10.7c6,0,10.7-4.8,10.7-10.7V10.7
		C125.9,4.8,121.1,0,115.1,0"/>
	<path class="st0" d="M90.8,16.7h-3.6c-1.4,0-2.4-1-2.4-2.4s1-2.4,2.4-2.4h3.6c1.4,0,2.4,1,2.4,2.4S92.2,16.7,90.8,16.7 M90.8,98.9
		h-3.6c-1.4,0-2.4-1-2.4-2.4c0-1.4,1-2.4,2.4-2.4h3.6c1.4,0,2.4,1,2.4,2.4C93.2,97.7,92.2,98.9,90.8,98.9 M89.1,0.2
		c-6,0-10.7,4.8-10.7,10.7v87.9c0,6,4.8,10.7,10.7,10.7s10.7-4.8,10.7-10.7V11C99.6,5,94.8,0.2,89.1,0.2"/>
</g>
</svg>
