<?xml version="1.0" encoding="utf-8"?>
<!-- Generator: Adobe Illustrator 21.0.2, SVG Export Plug-In . SVG Version: 6.00 Build 0)  -->
<svg version="1.1" id="Layer_1" xmlns="http://www.w3.org/2000/svg" xmlns:xlink="http://www.w3.org/1999/xlink" x="0px" y="0px"
	 viewBox="0 0 116 115.5" style="enable-background:new 0 0 116 115.5;" xml:space="preserve">
<style type="text/css">
	.st0{clip-path:url(#SVGID_2_);fill:#00B5EC;}
</style>
<g>
	<defs>
		<rect id="SVGID_1_" width="116" height="115.5"/>
	</defs>
	<clipPath id="SVGID_2_">
		<use xlink:href="#SVGID_1_"  style="overflow:visible;"/>
	</clipPath>
	<path class="st0" d="M66.2,17.3c1-2.7,3-4.6,6.1-5.6c3.8-1.3,3.8-1.3,6.8-3.7c0.7-0.6,0.8-1,0.5-1.8c-1.4-3.5-4.3-5.6-8.6-6.1
		c-6-0.8-11.3,3.3-11.3,8.5c0,30.1,0,60.1,0,90.2c0,1.9,0,3.9,0.3,5.7c1.3,6.4,8.4,11.7,17.4,10.9c7.9-0.7,14.4-6.9,14.1-13.8
		c0-1.2-0.4-1.9-1.8-2.1c-0.7-0.1-1.3-0.5-1.9-0.7c-0.3-0.1-0.8-0.2-1.1-0.1c-2.1,0.7-4.2,1-6.4,0.7C77.3,99.2,75,98,73,96.1
		c-0.4-0.4-0.3-1,0.2-1.3l2.3-1.4c0.3-0.2,0.7-0.2,0.9,0.1c4.5,3.9,11.2,3.4,12.5-1.6c0.1-0.4,0.4-0.6,0.8-0.6l3-1.3
		c0.5,0,0.9,0.5,0.8,1c-0.2,0.7-0.3,1.4-0.6,2.1c-0.3,0.6-0.6,1.2-1,1.9c-0.3,0.5,0,1.1,0.6,1.2c0.7,0.1,1.3,0.2,2,0.3
		c4.2,0.3,8.2-1.7,10-5c1.8-3.4,1-7.4-2-9.9c-0.5-0.4-1.3-0.7-1.9-0.7c-3.3,0-6.4-0.6-9.4-1.8c-0.3-0.1-0.9-0.1-1.2,0
		c-2.6,1.5-5.3,2.2-8.4,1.9c-2-0.2-2.6-0.7-4.3-1.7c-0.5-0.3-0.5-0.9-0.2-1.3l0.4-1.9c0.2-0.3,0.6-0.3,0.9-0.2
		c3.9,1.6,7.6,1.2,9.9-1.2c2.6-2.6,2.7-5.4,0.3-8.7c-0.3-0.4-0.2-0.9,0.2-1.1l0.9-0.4c0.3-0.3,0.8-0.2,1.1,0.1
		c3.4,3.6,5.3,6.4,2.9,10.9c0.2,0.1,0.4,0.2,0.6,0.3c8.9,2.9,17.6-0.3,20.7-8.6c1.9-5,0.2-9.5-4.1-13.1c-4.5-3.7-9.8-4.5-15.7-2.9
		c-0.8,0.2-1.2,0.5-0.9,1.3c0.1,0.3,0.1,0.6,0.1,0.9c0,0.5-0.4,0.8-0.8,0.8h-3c-0.4,0-0.8-0.3-0.8-0.7c-0.5-4-2.7-7-6.9-8.7
		c-4.3-1.7-8.4-2.5-12.3-0.1c-0.3,0.2-0.7,0.2-1-0.1c-0.6-0.6-1.3,0.1-1.9-0.5c-0.4-0.4-0.3-1,0.1-1.3c8.4-5.4,1.8-3.4,10.9-3
		C84.6,40,89,42.6,92.1,47c0.2,0.3,0.6,0.4,0.9,0.3c7.1-2,13.5-1.1,19.5,2.6c0.4,0.2,0.8,0.1,1.1-0.2c5.7-7.9,0.7-18.2-9.9-20.1
		c-1-0.2-1.6-0.1-2.4,0.5c-1.5,1.1-3.2,2-5.1,2.5c-0.4,0.1-0.9-0.1-1-0.5l-0.8-2.2c-0.1-0.4,0.1-0.9,0.5-1c6.9-2.5,8.5-8,7.8-11.5
		c-0.9-4.8-5.2-8.4-10.6-9c-4.2-0.5-8.6,1.2-10.6,3.4c-0.3,0.4-0.3,0.9,0.1,1.2c2.7,1.9,4,4.3,3.9,7.4c0,0.5-0.5,0.8-0.9,0.8
		c-0.9-0.1-1.8-0.3-2.7-0.4c-0.7-0.1-1-0.3-1.1-0.9c-0.4-1.9-1.6-3.1-3.8-3.6c-2.5-0.6-4.4,0.1-6.2,2.5c-0.2,0.2-0.5,0.4-0.8,0.3
		l-3.1-0.4C66.3,18.3,66,17.8,66.2,17.3 M32.9,93.4l-2.5-1.2c-0.3-0.2-0.7-0.1-1,0.2c-1.3,1.6-2.9,2.8-5.1,3.5
		c-4.7,1.5-9.6,0.1-12.3-3.6c-2.5-3.4-1.9-8,1.6-10.9c0.4-0.3,1-0.6,1.6-0.6c5.8-0.1,10.7-1.7,14.9-5.3c0.3-0.3,1.1-0.2,1.7-0.2
		c1.8,0,2.2-1.3,4.1-1.3c0.6,0,0.9-0.5,0.8-1.1l0.6-0.9c-0.1-0.4-0.5-0.6-0.9-0.5c-3,0.6-5.6-0.4-8-1.8c-2.5-1.5-3.5-3.8-3.8-6.4
		c0-0.4-0.4-0.7-0.8-0.7l-3-0.2c-0.5,0-0.9,0.4-0.9,0.9c0.2,3.8,2,6.9,5.2,9.3c0.4,0.3,0.4,1,0,1.3c-5.2,3.6-13.7,3.9-19.5-0.4
		C0.2,69.4-1.3,62,2.5,57c0.3-0.3,0.7-0.4,1.1-0.2c2.5,1.5,5.2,2.6,8.4,3c0.4,0.1,0.8-0.3,0.9-0.7l0.4-2.4c0.1-0.4-0.2-0.8-0.7-0.9
		c-4.1-0.8-7.4-2.6-9.9-5.6c-1.9-2.3-2.7-4.9-2.7-7.8C0.1,36.7,4.5,31.6,10.8,30c5.6-1.5,12.2,0,15.5,3.3c0.3,0.3,0.3,0.9-0.1,1.2
		c-3.4,2.6-2.4,6-2.5,10c0,0.5,0.4,0.9,0.9,0.8c1-0.1-0.7-0.1,0.3-0.2c0.4,0,0.7-0.3,0.8-0.8c0.2-2.9,1.3-5.5,4.2-7.3
		c2.9-1.9,6-3.6,9.5-2.9c0.4,0.1,0.8-0.1,0.9-0.5l0.9-0.9c0.2-0.5-0.1-1-0.6-1.1c-2.9-0.7-5.8-0.7-8.6,0c-0.8,0.2-1.2,0.1-1.8-0.5
		c-3.7-3.5-8.3-5.5-13.9-5.8c-0.5,0-1.2-0.4-1.5-0.8c-2.8-3.6-2.8-8.2,0-11.7c2.8-3.6,7.7-5.4,12.7-4.5c4,0.7,7,2.7,9,6.3
		c0.2,0.3,0.6,0.5,0.9,0.4c0.5-0.2,1-0.3,1.5-0.5c0.4-0.1,0.8-0.3,1.2-0.4c0.5-0.1,0.7-0.7,0.5-1.2c-0.9-2-2.3-3.6-4.1-5
		C36,7.5,35.9,7,36.2,6.2C37.6,2.5,41.6,0,46.1,0c4.5,0,8.4,2.5,9.7,6.1c0.2,0.6,0.3,1.2,0.3,1.8c0,30.5,0,60.9,0,91.4
		c0,2.6-0.1,5.2-1.3,7.7c-3,6.2-10.7,9.6-18.5,8c-7.2-1.4-12.5-7.6-12-14c0.1-0.8,0.3-1.2,1.2-1.4c3.2-0.8,5.6-2.6,7.5-4.9
		c0.1-0.1,0.1-0.2,0.2-0.2C33.5,94.2,33.4,93.6,32.9,93.4"/>
</g>
</svg>
