<?xml version="1.0" encoding="utf-8"?>
<!-- Generator: Adobe Illustrator 21.0.2, SVG Export Plug-In . SVG Version: 6.00 Build 0)  -->
<svg version="1.1" xmlns="http://www.w3.org/2000/svg" xmlns:xlink="http://www.w3.org/1999/xlink" x="0px" y="0px"
	 viewBox="0 0 1519 982.6" style="enable-background:new 0 0 1519 982.6;" xml:space="preserve">
<style type="text/css">
	.st0{fill:#5B7F95;}
	.st1{fill-rule:evenodd;clip-rule:evenodd;fill:#00B5EC;}
	.st2{fill:#00B5EC;}
	.st3{opacity:0.15;fill-rule:evenodd;clip-rule:evenodd;fill:#5B7F95;}
	.st4{opacity:5.000000e-02;fill-rule:evenodd;clip-rule:evenodd;fill:#5B7F95;}
	.st5{opacity:8.000000e-02;fill-rule:evenodd;clip-rule:evenodd;fill:#5B7F95;}
	.st6{opacity:0.12;fill-rule:evenodd;clip-rule:evenodd;fill:#5B7F95;}
	.st7{opacity:9.000000e-02;fill-rule:evenodd;clip-rule:evenodd;fill:#5B7F95;}
	.st8{fill:#0273D2;}
	.st9{fill:#FFFFFF;}
	.st10{fill-rule:evenodd;clip-rule:evenodd;fill:#0072CE;}
</style>
<g id="INFOGRAFÃA">
</g>
<g id="PISO">
</g>
<g id="TEXTO">
	<g>
		<g>
			<g>
				<rect x="1050.3" y="656.2" class="st0" width="4" height="253.9"/>
			</g>
			<g>
				<rect x="635" y="645.2" class="st0" width="4" height="264.9"/>
			</g>
			<g>
				<rect x="655.3" y="655.1" class="st0" width="3" height="277"/>
			</g>
			<g>
				<path class="st0" d="M435.4,934.7c-3.4,0-9.4-0.7-14.3-4.9c-4.9-4.2-7.3-10.8-7.3-19.6V807c0-0.1-0.1-8.2-5.5-16.3
					c-7.2-10.7-20.1-16.2-38.2-16.2c-46.3,0-55.3,13.1-55.3,35.8h-3c0-28.2,15.8-38.8,58.3-38.8c13.2,0,31.1,3.1,40.8,17.6
					c5.8,8.8,5.9,17.4,5.9,17.8v103.1c0,7.9,2.1,13.7,6.3,17.3c6.1,5.2,14.5,4.1,14.6,4.1c0.1,0,0.1,0,0.2,0h557.6
					c6.6,0,11.8-1.9,15.5-5.7c6.1-6.2,5.9-15.6,5.9-15.7l0-255.1h3v255c0,0.4,0.2,10.6-6.7,17.8c-4.2,4.4-10.2,6.6-17.6,6.6H437.9
					C437.6,934.6,436.7,934.7,435.4,934.7z"/>
			</g>
			<g>
				<path class="st0" d="M876.4,625.8h-71.8c-1.1,0-2-0.9-2-2v-9.5c0-1.1,0.9-2,2-2h71.8c1.1,0,2,0.9,2,2v9.5
					C878.4,624.9,877.5,625.8,876.4,625.8z M806.6,621.8h67.8v-5.5h-67.8V621.8z"/>
			</g>
			<g>
				<path class="st0" d="M1051.2,678.2l-89.1-58.5h-85.7v-4h86.3c0.4,0,0.8,0.1,1.1,0.3l89.6,58.9L1051.2,678.2z"/>
			</g>
			<g>
				<path class="st0" d="M638,668.5l-2.1-3.4l77.7-49.2c0.3-0.2,0.7-0.3,1.1-0.3h89.9v4h-89.3L638,668.5z"/>
			</g>
			<g>
				<rect x="260.5" y="777.7" class="st0" width="7" height="33.9"/>
			</g>
			<g>
				<rect x="78" y="865.2" class="st0" width="7" height="44.9"/>
			</g>
			<g>
				<rect x="62.4" y="861.7" class="st0" width="38.1" height="7"/>
			</g>
			<g>
				<rect x="31.9" y="844.4" class="st0" width="7" height="65.8"/>
			</g>
			<g>
				<rect x="16.4" y="840.9" class="st0" width="38.1" height="7"/>
			</g>
			<g>
				<path class="st1" d="M1480.8,901.7v6.7c0,1.6-1.2,2.9-2.7,2.9c-1.5,0-2.7-1.3-2.7-2.9v-6.9l-10.8-9.1c-1.2-1-1.4-2.8-0.4-4
					c0.9-1.2,2.7-1.4,3.8-0.4l7.4,6.2v-11.5c0-1.6,1.2-2.9,2.7-2.9c1.5,0,2.7,1.3,2.7,2.9v12.1l6.6-4.6c1.3-0.9,2.9-0.5,3.8,0.8
					c0.8,1.3,0.5,3.1-0.8,4L1480.8,901.7z M1444.7,901.7v6.7c0,1.6-1.2,2.9-2.7,2.9s-2.7-1.3-2.7-2.9v-6.9l-10.8-9.1
					c-1.2-1-1.4-2.8-0.4-4c0.9-1.2,2.7-1.4,3.8-0.4l7.4,6.2v-11.5c0-1.6,1.2-2.9,2.7-2.9s2.7,1.3,2.7,2.9v12.1l6.6-4.6
					c1.3-0.9,2.9-0.5,3.8,0.8c0.8,1.3,0.5,3.1-0.8,4L1444.7,901.7z M1408.6,901.7v6.7c0,1.6-1.2,2.9-2.7,2.9s-2.7-1.3-2.7-2.9v-6.9
					l-10.8-9.1c-1.2-1-1.4-2.8-0.4-4c0.9-1.2,2.7-1.4,3.8-0.4l7.4,6.2v-11.5c0-1.6,1.2-2.9,2.7-2.9s2.7,1.3,2.7,2.9v12.1l6.6-4.6
					c1.3-0.9,2.9-0.5,3.8,0.8c0.8,1.3,0.5,3.1-0.8,4L1408.6,901.7z M1372.5,901.7v6.7c0,1.6-1.2,2.9-2.7,2.9c-1.5,0-2.7-1.3-2.7-2.9
					v-6.9l-10.8-9.1c-1.2-1-1.4-2.8-0.4-4c0.9-1.2,2.7-1.4,3.8-0.4l7.4,6.2v-11.5c0-1.6,1.2-2.9,2.7-2.9c1.5,0,2.7,1.3,2.7,2.9v12.1
					l6.6-4.6c1.3-0.9,2.9-0.5,3.8,0.8c0.8,1.3,0.5,3.1-0.8,4L1372.5,901.7z M1336.4,901.7v6.7c0,1.6-1.2,2.9-2.7,2.9
					c-1.5,0-2.7-1.3-2.7-2.9v-6.9l-10.8-9.1c-1.2-1-1.4-2.8-0.4-4c0.9-1.2,2.7-1.4,3.8-0.4l7.4,6.2v-11.5c0-1.6,1.2-2.9,2.7-2.9
					c1.5,0,2.7,1.3,2.7,2.9v12.1l6.6-4.6c1.3-0.9,2.9-0.5,3.8,0.8c0.8,1.3,0.5,3.1-0.8,4L1336.4,901.7z M1300.3,901.7v6.7
					c0,1.6-1.2,2.9-2.7,2.9c-1.5,0-2.7-1.3-2.7-2.9v-6.9l-10.8-9.1c-1.2-1-1.4-2.8-0.4-4c0.9-1.2,2.7-1.4,3.8-0.4l7.4,6.2v-11.5
					c0-1.6,1.2-2.9,2.7-2.9c1.5,0,2.7,1.3,2.7,2.9v12.1l6.6-4.6c1.3-0.9,2.9-0.5,3.8,0.8c0.8,1.3,0.5,3.1-0.8,4L1300.3,901.7z"/>
			</g>
			<g>
				<path class="st1" d="M1396.7,506.3h-68.8c-2.2,0-4-1.8-4-4c0-2.2,1.8-4,4-4h68.8c2.2,0,4,1.8,4,4
					C1400.7,504.5,1398.9,506.3,1396.7,506.3z"/>
				<path class="st1" d="M1337.8,484.2h-26.8c-2.2,0-4-1.8-4-4c0-2.2,1.8-4,4-4h26.8c2.2,0,4,1.8,4,4
					C1341.8,482.4,1340,484.2,1337.8,484.2z"/>
				<path class="st1" d="M1306.9,524.5c0-2.2,1.8-4,4-4h53.6c2.2,0,4,1.8,4,4s-1.8,4-4,4h-53.6
					C1308.7,528.5,1306.9,526.7,1306.9,524.5z"/>
				<path class="st1" d="M1324.4,550.6h-36.7c-2.2,0-4-1.8-4-4s1.8-4,4-4h36.7c2.2,0,4,1.8,4,4S1326.6,550.6,1324.4,550.6z"/>
				<g>
					<path class="st2" d="M1249.5,465.5c-21.8,0-39.5,17.7-39.5,39.5c0,21.8,17.7,39.5,39.5,39.5c21.8,0,39.5-17.7,39.5-39.5
						C1289,483.2,1271.3,465.5,1249.5,465.5z M1249.5,536.5c-17.4,0-31.5-14.1-31.5-31.5c0-17.4,14.1-31.5,31.5-31.5
						c17.4,0,31.5,14.1,31.5,31.5C1281,522.4,1266.9,536.5,1249.5,536.5z"/>
				</g>
				<path class="st1" d="M1189.1,530h-21.9c-2.2,0-4-1.8-4-4c0-2.2,1.8-4,4-4h21.9c2.2,0,4,1.8,4,4
					C1193.1,528.2,1191.3,530,1189.1,530z"/>
				<path class="st1" d="M1185,514.8h-35.6c-2.2,0-4-1.8-4-4c0-2.2,1.8-4,4-4h35.6c2.2,0,4,1.8,4,4
					C1189,513,1187.2,514.8,1185,514.8z"/>
			</g>
			<g>
				<path class="st2" d="M680.7,524.1c-1.8,1-2.4,3.4-1.3,5.1c0.7,1.1,1.9,1.9,3.2,1.9c0.7,0,1.3-0.2,1.9-0.5l155-91.2l0.5,0.3
					l154.6,90.9l0,0c1.8,1,4.1,0.4,5.1-1.3c1-1.8,0.5-4.1-1.3-5.1l-157-92.3c-0.6-0.3-1.2-0.5-1.9-0.5s-1.3,0.2-1.9,0.5L680.7,524.1
					z"/>
				<path class="st2" d="M1287.8,800.4c0-55.9-53.3-100.1-55.5-102c-1.4-1.1-3.4-1.1-4.7,0c-2.3,1.9-55.5,46.1-55.5,102
					c0,13.6,1.4,25.7,4.3,36l0.3,1.1l-1.2,0.1c-1,0.1-1.9,0.6-2.5,1.4c-9.5,11.8-23.5,19-38.5,19.7l-1.1,0.1v-35.4l0.9-0.1
					c16.2-2.3,28.5-16.4,28.5-32.8c0-2.1-1.7-3.8-3.7-3.8s-3.7,1.7-3.7,3.8c0,12.2-8.7,22.8-20.7,25.2l-1.2,0.2v-50.5l0.8-0.2
					c8.1-2.1,13.7-9.3,13.7-17.6c0-2.1-1.7-3.8-3.7-3.8s-3.7,1.7-3.7,3.8c0,3.9-2.1,7.4-5.5,9.3l-1.5,0.8v-28.9
					c0-2.1-1.7-3.8-3.7-3.8s-3.7,1.7-3.7,3.8v28.9l-1.5-0.8c-3.4-1.9-5.5-5.5-5.5-9.3c0-2.1-1.7-3.8-3.7-3.8s-3.7,1.7-3.7,3.8
					c0,8.3,5.6,15.6,13.7,17.6l0.8,0.2v50.5l-1.2-0.2c-12-2.4-20.7-12.9-20.7-25.2c0-2.1-1.7-3.8-3.7-3.8s-3.7,1.7-3.7,3.8
					c0,16.4,12.2,30.5,28.5,32.8l0.9,0.1v35.4l-1.1-0.1c-28.1-1.4-50.2-24.7-50.2-52.9c0-16.5,7.5-31.8,20.7-42
					c0.8-0.6,1.3-1.6,1.4-2.6c0.1-1-0.3-2.1-0.9-2.9c-5.4-5.9-8.3-13.6-8.3-21.5c0-14.1,9-26.5,22.5-30.7c1.2-0.4,2.1-1.3,2.5-2.6
					c0.3-1.2,0-2.5-0.8-3.5c-3.9-4.4-6-10-6-15.8c0-13.2,10.7-24,23.9-24s23.9,10.8,23.9,24c0,5.8-2.1,11.4-6,15.8
					c-0.8,1-1.1,2.3-0.8,3.5c0.3,1.2,1.3,2.2,2.5,2.6c13.4,4.3,22.5,16.6,22.5,30.7c0,7.9-3,15.6-8.3,21.5c-1.4,1.5-1.3,3.9,0.3,5.3
					c1.5,1.4,3.9,1.3,5.3-0.3c6.6-7.3,10.2-16.8,10.2-26.6c0-15.2-8.4-28.8-21.9-35.5l-1-0.5l0.5-0.9c2.7-4.8,4.2-10.2,4.2-15.7
					c0-17.4-14.1-31.5-31.4-31.5s-31.4,14.1-31.4,31.5c0,5.5,1.5,10.9,4.2,15.7l0.5,0.9l-1,0.5c-13.5,6.7-21.9,20.3-21.9,35.5
					c0,8.2,2.5,16.1,7.2,22.8l0.5,0.7l-0.7,0.6c-12.9,11.6-20,27.5-20,44.9c0,32.5,25.4,59,57.8,60.4l1,0v42.5
					c0,2.1,1.7,3.8,3.7,3.8s3.7-1.7,3.7-3.8v-42.5l1,0c16.9-0.7,32.3-8.2,43.3-21.1l1.1-1.3l0.6,1.5c10.8,26.9,30.9,34,45.9,35.2
					l0.9,0.1v28.3c0,2.1,1.7,3.8,3.7,3.8s3.7-1.7,3.7-3.8v-28.3l0.9-0.1C1254.4,879.1,1287.8,866.6,1287.8,800.4z M1234.7,873.1
					l-1.1,0.1v-98.1c0-2.1-1.7-3.8-3.7-3.8s-3.7,1.7-3.7,3.8v51.3l-17.6-15.4c-1.6-1.4-3.9-1.2-5.3,0.4c-1.4,1.6-1.2,3.9,0.4,5.3
					l22.5,19.7v36.9l-1.1-0.1c-29-2.6-45.6-29.1-45.6-72.7c0-44.7,38.1-82.9,49.7-93.5l0.7-0.6l0.7,0.6
					c11.7,10.6,49.7,48.8,49.7,93.5C1280.3,844,1263.7,870.5,1234.7,873.1z"/>
				<path class="st2" d="M728.4,681.8l-49.7,0c-1,0-2,0.4-2.7,1.1c-0.7,0.7-1.1,1.7-1.1,2.7v57c0,2.1,1.7,3.8,3.7,3.8h49.7
					c2.1,0,3.7-1.7,3.7-3.8v-57C732.1,683.5,730.5,681.8,728.4,681.8z M724.6,738.7h-42.2v-32.8h42.2V738.7z M724.6,698.4h-42.2
					v-9.1l42.2,0V698.4z"/>
				<path class="st2" d="M919,644.1l-156.9,0c-1,0-2,0.4-2.6,1.1c-0.7,0.7-1.1,1.7-1.1,2.7v65c0,2.1,1.7,3.8,3.7,3.8H919
					c2.1,0,3.7-1.7,3.7-3.8v-64.9C922.8,645.8,921.1,644.1,919,644.1z M908.4,651.6L879,675.9l-29.5-24.2L908.4,651.6z M831.4,651.6
					l-29.5,24.2l-29.5-24.3L831.4,651.6z M765.8,655.9l30.2,24.8l-30.2,24.8V655.9z M773.4,709l28.5-23.5l28.5,23.5H773.4z
					 M836.7,704.4l-28.9-23.7l28.9-23.7V704.4z M844.2,656.9l28.9,23.8l-28.9,23.8V656.9z M850.4,709l28.5-23.5l28.5,23.5H850.4z
					 M915.3,705.7l-30.4-25l30.4-25V705.7z"/>
				<path class="st2" d="M1072.2,855.3c-2.1,0-3.7,1.7-3.7,3.8v46H956.6V768.3c0-2.1-1.7-3.8-3.7-3.8H728.2c-2.1,0-3.7,1.7-3.7,3.8
					v136.8H612.7v-92.9l0.1-0.2c0.2-0.4,0.3-0.9,0.3-1.4s-0.1-0.9-0.3-1.4l-0.1-0.2v-138l0.4-0.3l92.9-66.4h269.1l93.3,66.7v25.9
					c0,2.1,1.7,3.8,3.7,3.8s3.7-1.7,3.7-3.8v-27.9c0-1.2-0.6-2.3-1.6-3.1l-94.3-67.4v-65.2c0-1.3-0.7-2.6-1.9-3.2l-136.8-79.6
					c-1.2-0.7-2.6-0.7-3.8,0l-134.7,79.6c-1.1,0.7-1.8,1.9-1.8,3.2v65.2l-0.4,0.3l-93.9,67.1c-1,0.7-1.6,1.8-1.6,3.1v95H456.4
					c-2.1,0-3.7,1.7-3.7,3.8v141.4c0,2.1,1.7,3.8,3.7,3.8h152.5c0.6,0,1.1-0.1,1.6-0.4l0.2-0.1h461.4c2.1,0,3.7-1.7,3.7-3.8v-49.8
					C1075.9,857,1074.2,855.3,1072.2,855.3z M708.5,535.7l0.5-0.3l130.5-77.1l133.1,77.4v61.2h-264V535.7z M605.2,806.9H494.4
					c-2.1,0-3.7,1.7-3.7,3.8s1.7,3.8,3.7,3.8h110.8v91.2h-145v-91.2h10.4c2.1,0,3.7-1.7,3.7-3.8s-1.7-3.8-3.7-3.8h-10.4v-35.2h145
					V806.9z M949.1,905.1H732v-133h217.1V905.1z"/>
			</g>
			<g>
				<path class="st2" d="M718.1,509.4h-6v-96.1c0-3,2.4-5.4,5.4-5.4h63.9c3,0,5.4,2.4,5.4,5.4v53.8h-6V414h-62.6V509.4z"/>
			</g>
			<g>
				<polygon class="st2" points="1073.6,668.7 1070.6,668.7 1070.6,640.5 975.4,567.8 977.2,565.4 1073.6,639.1 				"/>
			</g>
			<g>
				<rect x="1045.3" y="620.5" class="st2" width="3" height="29.4"/>
			</g>
			<g>
				<rect x="1011.1" y="593.7" class="st2" width="3" height="31.6"/>
			</g>
			<g>
				<polygon class="st2" points="610.4,671.8 607.4,671.8 607.4,642.2 607.9,641.7 703.8,568.5 705.6,570.9 610.4,643.7 				"/>
			</g>
			<g>
				<rect x="634.3" y="623.1" class="st2" width="3" height="27.9"/>
			</g>
			<g>
				<rect x="655.3" y="606.3" class="st2" width="3" height="29.1"/>
			</g>
			<g>
				<rect x="678.2" y="588.8" class="st2" width="3" height="30.1"/>
			</g>
			<g>
				<path class="st2" d="M384,910.1h-6v-92.2c0-2.3-1.8-4.1-4.1-4.1H156c-2.3,0-4.1,1.8-4.1,4.1v92.2h-6v-92.2
					c0-5.6,4.5-10.1,10.1-10.1h217.9c5.6,0,10.1,4.5,10.1,10.1V910.1z"/>
			</g>
			<path class="st3" d="M238.3,496.8h-47.8c-10.6,0-19.1-8.5-19.1-19.1c0-11.2,9.9-20.2,21.1-19c3.7-8.6,12.3-14.4,22-14.4
				s18.3,5.8,22,14.4c11.2-1.2,21.1,7.8,21.1,19C257.5,488.3,248.9,496.8,238.3,496.8z M190.5,468.3c-5.3,0-9.6,4.3-9.6,9.5
				c0,5.3,4.3,9.5,9.6,9.5h47.8c5.3,0,9.6-4.3,9.6-9.5c0-6.4-6.5-11.4-13-8.9c-1.3,0.5-2.8,0.4-4-0.3c-1.2-0.7-2.1-1.9-2.4-3.2
				c-1.3-6.6-7.3-11.5-14.1-11.5c-6.8,0-12.7,4.8-14.1,11.5c-0.3,1.4-1.2,2.6-2.4,3.2c-1.2,0.7-2.7,0.8-4,0.3
				C192.8,468.5,191.6,468.3,190.5,468.3z"/>
			<path class="st4" d="M418.7,606.9h-47.8c-10.6,0-19.1-8.5-19.1-19.1c0-11.2,9.9-20.2,21.1-19c3.7-8.6,12.3-14.4,22-14.4
				c9.7,0,18.3,5.8,22,14.4c11.2-1.2,21.1,7.8,21.1,19C437.8,598.3,429.3,606.9,418.7,606.9z M370.9,578.3c-5.3,0-9.6,4.3-9.6,9.5
				c0,5.3,4.3,9.5,9.6,9.5h47.8c5.3,0,9.6-4.3,9.6-9.5c0-6.4-6.5-11.4-13-8.9c-1.3,0.5-2.8,0.4-4-0.3c-1.2-0.7-2.1-1.9-2.4-3.2
				c-1.3-6.6-7.3-11.5-14.1-11.5c-6.8,0-12.7,4.8-14.1,11.5c-0.3,1.4-1.2,2.6-2.4,3.2c-1.2,0.7-2.7,0.8-4,0.3
				C373.1,578.5,372,578.3,370.9,578.3z"/>
			<path class="st5" d="M1052,424h-47.8c-10.6,0-19.1-8.5-19.1-19.1c0-11.2,9.9-20.2,21.1-19c3.7-8.6,12.3-14.4,22-14.4
				c9.7,0,18.3,5.8,22,14.4c11.2-1.2,21.1,7.8,21.1,19C1071.1,415.4,1062.6,424,1052,424z M1004.2,395.4c-5.3,0-9.6,4.3-9.6,9.5
				s4.3,9.5,9.6,9.5h47.8c5.3,0,9.6-4.3,9.6-9.5c0-6.4-6.5-11.4-13-8.9c-1.3,0.5-2.8,0.4-4-0.3c-1.2-0.7-2.1-1.9-2.4-3.2
				c-1.3-6.6-7.3-11.5-14.1-11.5c-6.8,0-12.7,4.8-14.1,11.5c-0.3,1.4-1.2,2.6-2.4,3.2c-1.2,0.7-2.7,0.8-4,0.3
				C1006.4,395.6,1005.3,395.4,1004.2,395.4z"/>
			<path class="st6" d="M1445.3,720.6h-97.8c-21.6,0-39.1-17.5-39.1-38.9c0-22.8,20.2-41.2,43.1-38.7c7.6-17.5,25.1-29.4,44.9-29.4
				s37.3,11.9,44.9,29.4c22.9-2.5,43.1,15.9,43.1,38.7C1484.4,703.1,1466.8,720.6,1445.3,720.6z M1347.5,662.2
				c-10.8,0-19.6,8.7-19.6,19.5c0,10.7,8.8,19.5,19.6,19.5h97.8c10.8,0,19.6-8.7,19.6-19.5c0-13-13.2-23.2-26.6-18.1
				c-2.7,1.1-5.7,0.9-8.2-0.5c-2.5-1.4-4.3-3.8-4.9-6.6c-2.7-13.6-14.8-23.4-28.7-23.4c-13.9,0-26,9.9-28.7,23.4
				c-0.6,2.8-2.4,5.2-4.9,6.6c-2.5,1.4-5.6,1.6-8.2,0.5C1352.2,662.7,1349.8,662.2,1347.5,662.2z"/>
			<path class="st7" d="M1473.5,474.2h-46.9c-10.4,0-18.8-8.4-18.8-18.7c0-11,9.7-19.8,20.7-18.6c3.6-8.4,12.1-14.1,21.6-14.1
				c9.5,0,17.9,5.7,21.6,14.1c11-1.2,20.7,7.6,20.7,18.6C1492.3,465.9,1483.8,474.2,1473.5,474.2z M1426.5,446.2
				c-5.2,0-9.4,4.2-9.4,9.3c0,5.2,4.2,9.3,9.4,9.3h46.9c5.2,0,9.4-4.2,9.4-9.3c0-6.3-6.4-11.1-12.8-8.7c-1.3,0.5-2.7,0.4-4-0.3
				c-1.2-0.7-2.1-1.8-2.3-3.2c-1.3-6.5-7.1-11.2-13.8-11.2c-6.7,0-12.5,4.7-13.8,11.2c-0.3,1.4-1.1,2.5-2.3,3.2
				c-1.2,0.7-2.7,0.8-4,0.3C1428.8,446.4,1427.6,446.2,1426.5,446.2z"/>
			<path class="st7" d="M160.7,661.5H73c-19.3,0-35-15.7-35-34.9c0-20.4,18.1-36.9,38.6-34.7c6.8-15.7,22.5-26.4,40.2-26.4
				s33.4,10.7,40.2,26.4c20.5-2.2,38.6,14.3,38.6,34.7C195.7,645.8,180,661.5,160.7,661.5z M73,609.1c-9.7,0-17.5,7.8-17.5,17.4
				S63.4,644,73,644h87.6c9.7,0,17.5-7.8,17.5-17.4c0-11.7-11.9-20.8-23.8-16.2c-2.4,0.9-5.1,0.8-7.4-0.5c-2.3-1.2-3.9-3.4-4.4-5.9
				c-2.5-12.2-13.3-21-25.8-21c-12.5,0-23.3,8.8-25.8,21c-0.5,2.5-2.1,4.7-4.4,5.9c-2.3,1.2-5,1.4-7.4,0.5
				C77.2,609.5,75.1,609.1,73,609.1z"/>
			<g>
				<path class="st8" d="M668.3,618.9h-47.5c-2.9,0-5.3-2.4-5.3-5.3V566c0-2.9,2.4-5.3,5.3-5.3h47.5c2.9,0,5.3,2.4,5.3,5.3v47.5
					C673.7,616.5,671.3,618.9,668.3,618.9z"/>
				<g>
					<path class="st9" d="M651,611.1h-7.6v-28.8c-2.8,2.6-6.1,4.5-9.9,5.8v-6.9c2-0.7,4.2-1.9,6.5-3.7s3.9-4,4.8-6.4h6.2V611.1z"/>
				</g>
			</g>
			<g>
				<path class="st8" d="M1051.8,641.5h-47.5c-2.9,0-5.3-2.4-5.3-5.3v-47.5c0-2.9,2.4-5.3,5.3-5.3h47.5c2.9,0,5.3,2.4,5.3,5.3v47.5
					C1057.2,639.1,1054.8,641.5,1051.8,641.5z"/>
				<g>
					<path class="st9" d="M1034.5,633.7h-7.7v-28.8c-2.8,2.6-6.1,4.5-9.9,5.8v-6.9c2-0.7,4.2-1.9,6.5-3.7c2.3-1.8,3.9-4,4.8-6.4h6.2
						V633.7z"/>
				</g>
			</g>
			<g>
				<path class="st8" d="M231.1,888h-47.5c-2.9,0-5.3-2.4-5.3-5.3v-47.5c0-2.9,2.4-5.3,5.3-5.3h47.5c2.9,0,5.3,2.4,5.3,5.3v47.5
					C236.4,885.6,234,888,231.1,888z"/>
				<g>
					<path class="st9" d="M220.1,850.1l-7.4,0.8c-0.2-1.5-0.7-2.7-1.4-3.4c-0.8-0.7-1.8-1.1-3-1.1c-1.6,0-3,0.7-4.1,2.2
						s-1.8,4.5-2.1,9.1c1.9-2.3,4.3-3.4,7.1-3.4c3.2,0,5.9,1.2,8.2,3.6c2.3,2.4,3.4,5.6,3.4,9.4c0,4.1-1.2,7.4-3.6,9.8
						c-2.4,2.5-5.5,3.7-9.2,3.7c-4,0-7.3-1.6-9.9-4.7c-2.6-3.1-3.9-8.3-3.9-15.4c0-7.3,1.4-12.6,4.1-15.8c2.7-3.2,6.2-4.8,10.5-4.8
						c3,0,5.5,0.8,7.5,2.5C218.3,844.4,219.5,846.9,220.1,850.1z M202.7,866.8c0,2.5,0.6,4.4,1.7,5.8c1.1,1.4,2.5,2,3.9,2
						c1.4,0,2.6-0.6,3.5-1.7c0.9-1.1,1.4-2.9,1.4-5.4c0-2.6-0.5-4.5-1.5-5.7c-1-1.2-2.3-1.8-3.8-1.8c-1.5,0-2.7,0.6-3.7,1.7
						C203.3,862.8,202.7,864.5,202.7,866.8z"/>
				</g>
			</g>
			<g>
				<path class="st8" d="M85.1,823.8H37.6c-2.9,0-5.3-2.4-5.3-5.3v-47.5c0-2.9,2.4-5.3,5.3-5.3h47.5c2.9,0,5.3,2.4,5.3,5.3v47.5
					C90.4,821.4,88.1,823.8,85.1,823.8z"/>
				<g>
					<path class="st9" d="M49.3,782.6v-7.1h26.2v5.6c-2.2,2.1-4.4,5.2-6.6,9.1s-3.9,8.2-5.1,12.7c-1.2,4.5-1.7,8.5-1.7,12h-7.4
						c0.1-5.5,1.3-11.1,3.4-16.9c2.2-5.7,5-10.9,8.6-15.4H49.3z"/>
				</g>
			</g>
			<g>
				<path class="st8" d="M737.8,482.6h-47.5c-2.9,0-5.3-2.4-5.3-5.3v-47.5c0-2.9,2.4-5.3,5.3-5.3h47.5c2.9,0,5.3,2.4,5.3,5.3v47.5
					C743.1,480.2,740.7,482.6,737.8,482.6z"/>
				<g>
					<path class="st9" d="M707.4,452.1c-2-0.8-3.4-2-4.3-3.4s-1.3-3.1-1.3-4.8c0-3,1-5.4,3.1-7.4c2.1-1.9,5-2.9,8.9-2.9
						c3.8,0,6.7,1,8.8,2.9c2.1,1.9,3.1,4.4,3.1,7.4c0,1.9-0.5,3.5-1.4,4.9c-1,1.4-2.3,2.5-4.1,3.3c2.2,0.9,3.9,2.2,5.1,3.9
						c1.2,1.7,1.7,3.7,1.7,5.9c0,3.7-1.2,6.7-3.5,9s-5.5,3.5-9.4,3.5c-3.6,0-6.7-1-9.1-2.9c-2.8-2.3-4.3-5.3-4.3-9.3
						c0-2.2,0.5-4.1,1.6-5.9C703.4,454.5,705.1,453.1,707.4,452.1z M708.3,461.5c0,2.1,0.5,3.7,1.6,4.9c1.1,1.2,2.4,1.8,4,1.8
						c1.6,0,2.9-0.6,3.9-1.7s1.6-2.8,1.6-4.9c0-1.9-0.5-3.4-1.6-4.5s-2.4-1.7-4-1.7c-1.9,0-3.3,0.6-4.2,1.9S708.3,460,708.3,461.5z
						 M709,444.4c0,1.5,0.4,2.7,1.3,3.6c0.9,0.9,2,1.3,3.4,1.3c1.5,0,2.6-0.4,3.5-1.3c0.9-0.9,1.3-2.1,1.3-3.6
						c0-1.4-0.4-2.6-1.3-3.4c-0.9-0.9-2-1.3-3.4-1.3c-1.5,0-2.6,0.4-3.5,1.3C709.4,441.8,709,443,709,444.4z"/>
				</g>
			</g>
			<g>
				<path class="st8" d="M752.3,772.3h-47.5c-2.9,0-5.3-2.4-5.3-5.3v-47.5c0-2.9,2.4-5.3,5.3-5.3h47.5c2.9,0,5.3,2.4,5.3,5.3V767
					C757.6,769.9,755.2,772.3,752.3,772.3z"/>
				<g>
					<path class="st9" d="M716,753.5l7.4-0.8c0.2,1.5,0.7,2.6,1.4,3.3s1.8,1.1,3,1.1c1.6,0,2.9-0.7,4-2.2c1.1-1.5,1.8-4.5,2.1-9
						c-1.9,2.2-4.3,3.3-7.2,3.3c-3.1,0-5.8-1.2-8.1-3.6c-2.3-2.4-3.4-5.6-3.4-9.5c0-4,1.2-7.3,3.6-9.8c2.4-2.5,5.5-3.7,9.2-3.7
						c4,0,7.4,1.6,10,4.7c2.6,3.1,3.9,8.3,3.9,15.5c0,7.3-1.4,12.6-4.1,15.8c-2.7,3.2-6.2,4.8-10.6,4.8c-3.1,0-5.6-0.8-7.6-2.5
						S716.5,756.8,716,753.5z M733.3,736.8c0-2.5-0.6-4.4-1.7-5.7s-2.4-2-3.9-2c-1.4,0-2.6,0.6-3.5,1.7c-0.9,1.1-1.4,2.9-1.4,5.5
						c0,2.6,0.5,4.5,1.5,5.7c1,1.2,2.3,1.8,3.8,1.8c1.5,0,2.7-0.6,3.7-1.7S733.3,739.1,733.3,736.8z"/>
				</g>
			</g>
			<g>
				<path class="st8" d="M1411.1,862.3h-47.5c-2.9,0-5.3-2.4-5.3-5.3v-47.5c0-2.9,2.4-5.3,5.3-5.3h47.5c2.9,0,5.3,2.4,5.3,5.3V857
					C1416.4,859.9,1414.1,862.3,1411.1,862.3z"/>
				<g>
					<path class="st9" d="M1381.4,853.3h-7.7v-28.8c-2.8,2.6-6.1,4.5-9.9,5.8v-6.9c2-0.7,4.2-1.9,6.5-3.7c2.3-1.8,3.9-4,4.8-6.4h6.2
						V853.3z"/>
					<path class="st9" d="M1398.6,813.2c3.9,0,6.9,1.4,9.1,4.1c2.6,3.3,3.9,8.7,3.9,16.3c0,7.6-1.3,13-3.9,16.3
						c-2.2,2.7-5.2,4.1-9,4.1c-3.9,0-7-1.5-9.4-4.5c-2.4-3-3.6-8.3-3.6-16c0-7.5,1.3-12.9,3.9-16.2
						C1391.7,814.6,1394.7,813.2,1398.6,813.2z M1398.6,819.6c-0.9,0-1.8,0.3-2.5,0.9c-0.7,0.6-1.3,1.6-1.7,3.2
						c-0.5,2-0.8,5.3-0.8,10s0.2,7.9,0.7,9.7c0.5,1.8,1.1,2.9,1.8,3.5c0.7,0.6,1.5,0.9,2.5,0.9s1.8-0.3,2.5-0.9
						c0.7-0.6,1.3-1.6,1.7-3.2c0.5-2,0.8-5.3,0.8-10s-0.2-7.9-0.7-9.7c-0.5-1.8-1.1-2.9-1.8-3.5
						C1400.3,819.9,1399.5,819.6,1398.6,819.6z"/>
				</g>
			</g>
			<g>
				<path class="st8" d="M1076.9,771.2h-47.5c-2.9,0-5.3-2.4-5.3-5.3v-47.5c0-2.9,2.4-5.3,5.3-5.3h47.5c2.9,0,5.3,2.4,5.3,5.3v47.5
					C1082.3,768.8,1079.9,771.2,1076.9,771.2z"/>
				<g>
					<path class="st9" d="M1065.9,755.2v7.1h-26.8c0.3-2.7,1.2-5.2,2.6-7.6c1.5-2.4,4.3-5.6,8.6-9.6c3.4-3.2,5.6-5.4,6.3-6.5
						c1.1-1.6,1.6-3.1,1.6-4.7c0-1.7-0.5-3-1.4-3.9c-0.9-0.9-2.2-1.4-3.8-1.4c-1.6,0-2.9,0.5-3.8,1.4c-0.9,1-1.5,2.6-1.6,4.8
						l-7.6-0.8c0.5-4.2,1.9-7.2,4.3-9.1c2.4-1.8,5.4-2.7,9-2.7c3.9,0,7,1.1,9.3,3.2c2.3,2.1,3.4,4.8,3.4,7.9c0,1.8-0.3,3.5-1,5.1
						c-0.6,1.6-1.7,3.3-3.1,5.1c-0.9,1.2-2.6,2.9-5,5.1c-2.4,2.2-3.9,3.7-4.6,4.4c-0.6,0.7-1.2,1.4-1.6,2.1H1065.9z"/>
				</g>
			</g>
			<g>
				<path class="st8" d="M642.5,865.2H595c-2.9,0-5.3-2.4-5.3-5.3v-47.5c0-2.9,2.4-5.3,5.3-5.3h47.5c2.9,0,5.3,2.4,5.3,5.3v47.5
					C647.9,862.8,645.5,865.2,642.5,865.2z"/>
				<g>
					<path class="st9" d="M631.5,849.2v7.1h-26.8c0.3-2.7,1.2-5.2,2.6-7.6c1.5-2.4,4.3-5.6,8.6-9.6c3.4-3.2,5.6-5.4,6.3-6.5
						c1.1-1.6,1.6-3.1,1.6-4.7c0-1.7-0.5-3-1.4-3.9c-0.9-0.9-2.2-1.4-3.8-1.4c-1.6,0-2.9,0.5-3.8,1.4c-0.9,1-1.5,2.6-1.6,4.8
						l-7.6-0.8c0.5-4.2,1.9-7.2,4.3-9.1c2.4-1.8,5.4-2.7,9-2.7c3.9,0,7,1.1,9.3,3.2c2.2,2.1,3.4,4.8,3.4,7.9c0,1.8-0.3,3.5-1,5.1
						c-0.6,1.6-1.7,3.3-3.1,5.1c-0.9,1.2-2.6,2.9-5,5.1c-2.4,2.2-3.9,3.7-4.6,4.4c-0.6,0.7-1.2,1.4-1.6,2.1H631.5z"/>
				</g>
			</g>
			<g>
				<path class="st8" d="M1022.7,882.7h-47.5c-2.9,0-5.3-2.4-5.3-5.3v-47.5c0-2.9,2.4-5.3,5.3-5.3h47.5c2.9,0,5.3,2.4,5.3,5.3v47.5
					C1028.1,880.3,1025.7,882.7,1022.7,882.7z"/>
				<g>
					<path class="st9" d="M985.6,863.2l7.4-0.9c0.2,1.9,0.9,3.3,1.9,4.3c1,1,2.3,1.5,3.8,1.5c1.6,0,2.9-0.6,4-1.8
						c1.1-1.2,1.6-2.8,1.6-4.8c0-1.9-0.5-3.4-1.6-4.6c-1-1.1-2.3-1.7-3.8-1.7c-1,0-2.2,0.2-3.5,0.6l0.8-6.2c2.1,0.1,3.6-0.4,4.7-1.3
						s1.6-2.2,1.6-3.8c0-1.3-0.4-2.4-1.2-3.2c-0.8-0.8-1.9-1.2-3.2-1.2c-1.3,0-2.4,0.5-3.3,1.4c-0.9,0.9-1.5,2.2-1.7,4l-7.1-1.2
						c0.5-2.4,1.2-4.3,2.2-5.8s2.4-2.6,4.1-3.4c1.8-0.8,3.8-1.2,5.9-1.2c3.8,0,6.8,1.2,9,3.6c1.9,2,2.8,4.2,2.8,6.6
						c0,3.5-1.9,6.3-5.7,8.4c2.3,0.5,4.1,1.6,5.5,3.3c1.4,1.7,2.1,3.8,2.1,6.2c0,3.5-1.3,6.5-3.8,9c-2.6,2.5-5.7,3.7-9.6,3.7
						c-3.6,0-6.6-1-9-3.1S985.9,866.5,985.6,863.2z"/>
				</g>
			</g>
			<g>
				<path class="st8" d="M389.6,795.9h-47.5c-2.9,0-5.3-2.4-5.3-5.3V743c0-2.9,2.4-5.3,5.3-5.3h47.5c2.9,0,5.3,2.4,5.3,5.3v47.5
					C394.9,793.5,392.5,795.9,389.6,795.9z"/>
				<g>
					<path class="st9" d="M367.7,786.8v-8h-16.3v-6.7l17.3-25.3h6.4V772h5v6.7h-5v8H367.7z M367.7,772v-13.6l-9.2,13.6H367.7z"/>
				</g>
			</g>
			<g>
				<path class="st8" d="M288,770.1h-47.5c-2.9,0-5.3-2.4-5.3-5.3v-47.5c0-2.9,2.4-5.3,5.3-5.3H288c2.9,0,5.3,2.4,5.3,5.3v47.5
					C293.3,767.7,290.9,770.1,288,770.1z"/>
				<g>
					<path class="st9" d="M251.4,750.1l7.6-0.8c0.2,1.7,0.9,3.1,1.9,4.1c1.1,1,2.3,1.5,3.7,1.5c1.6,0,2.9-0.6,4.1-1.9
						s1.7-3.3,1.7-5.9c0-2.5-0.5-4.3-1.6-5.5c-1.1-1.2-2.5-1.8-4.3-1.8c-2.2,0-4.2,1-5.9,2.9l-6.2-0.9l3.9-20.8h20.2v7.2H262
						l-1.2,6.8c1.7-0.9,3.4-1.3,5.2-1.3c3.4,0,6.3,1.2,8.6,3.7c2.4,2.5,3.5,5.7,3.5,9.6c0,3.3-1,6.2-2.9,8.8
						c-2.6,3.5-6.2,5.3-10.8,5.3c-3.7,0-6.7-1-9-3C253.2,756.1,251.8,753.4,251.4,750.1z"/>
				</g>
			</g>
		</g>
		<path class="st10" d="M1513.9,913.3H5c-2.8,0-5-2-5-4.5s2.2-4.5,5-4.5h1508.9c2.8,0,5,2,5,4.5S1516.7,913.3,1513.9,913.3z
			 M4.4,925.3h356.1c2.4,0,4.4,2,4.4,4.4s-2,4.4-4.4,4.4H4.4c-2.4,0-4.4-2-4.4-4.4S2,925.3,4.4,925.3z M73.9,949.5H737
			c2.4,0,4.4,2,4.4,4.4c0,2.5-2,4.4-4.4,4.4H73.9c-2.4,0-4.4-2-4.4-4.4C69.5,951.5,71.5,949.5,73.9,949.5z M207.7,973.7h77
			c2.4,0,4.4,2,4.4,4.4s-2,4.4-4.4,4.4h-77c-2.4,0-4.4-2-4.4-4.4S205.3,973.7,207.7,973.7z M346.6,973.7h277.7c2.4,0,4.4,2,4.4,4.4
			s-2,4.4-4.4,4.4H346.6c-2.4,0-4.4-2-4.4-4.4S344.2,973.7,346.6,973.7z M682.1,973.7h502.8c2.4,0,4.4,2,4.4,4.4
			c0,2.5-2,4.4-4.4,4.4H682.1c-2.4,0-4.4-2-4.4-4.4C677.6,975.7,679.6,973.7,682.1,973.7z M1217.6,973.7h93.5c2.4,0,4.4,2,4.4,4.4
			c0,2.5-2,4.4-4.4,4.4h-93.5c-2.4,0-4.4-2-4.4-4.4C1213.1,975.7,1215.1,973.7,1217.6,973.7z M1371.9,973.7h37c2.4,0,4.4,2,4.4,4.4
			s-2,4.4-4.4,4.4h-37c-2.4,0-4.4-2-4.4-4.4S1369.5,973.7,1371.9,973.7z M1422.7,958.4H759.6c-2.4,0-4.4-2-4.4-4.4
			c0-2.5,2-4.4,4.4-4.4H1388c0,0,0,0,0.1,0h80.7c2.4,0,4.4,2,4.4,4.4c0,2.5-2,4.4-4.4,4.4L1422.7,958.4
			C1422.7,958.4,1422.7,958.4,1422.7,958.4z M1310.3,934.2c-0.1,0-0.2,0-0.3,0h-265.7c-2.4,0-4.4-2-4.4-4.4c0-2.5,2-4.4,4.4-4.4
			H1310c0.1,0,0.2,0,0.3,0c0.1,0,0.2,0,0.3,0h197.1c2.4,0,4.4,2,4.4,4.4s-2,4.4-4.4,4.4h-197.1
			C1310.5,934.2,1310.4,934.2,1310.3,934.2z"/>
		<g>
			<path class="st8" d="M151.1,52.8h-42.2c-2.9,0-5.3-2.4-5.3-5.3V5.3c0-2.9,2.4-5.3,5.3-5.3h42.2c2.9,0,5.3,2.4,5.3,5.3v42.2
				C156.4,50.5,154,52.8,151.1,52.8z"/>
			<path class="st8" d="M151.1,127.6h-42.2c-2.9,0-5.3-2.4-5.3-5.3V80.1c0-2.9,2.4-5.3,5.3-5.3h42.2c2.9,0,5.3,2.4,5.3,5.3v42.2
				C156.4,125.2,154,127.6,151.1,127.6z"/>
			<path class="st8" d="M151.1,202.4h-42.2c-2.9,0-5.3-2.4-5.3-5.3v-42.2c0-2.9,2.4-5.3,5.3-5.3h42.2c2.9,0,5.3,2.4,5.3,5.3v42.2
				C156.4,200,154,202.4,151.1,202.4z"/>
			<path class="st8" d="M151.1,277.2h-42.2c-2.9,0-5.3-2.4-5.3-5.3v-42.2c0-2.9,2.4-5.3,5.3-5.3h42.2c2.9,0,5.3,2.4,5.3,5.3v42.2
				C156.4,274.8,154,277.2,151.1,277.2z"/>
			<path class="st8" d="M152.4,352.8h-42.2c-2.9,0-5.3-2.4-5.3-5.3v-42.2c0-2.9,2.4-5.3,5.3-5.3h42.2c2.9,0,5.3,2.4,5.3,5.3v42.2
				C157.7,350.4,155.3,352.8,152.4,352.8z"/>
			<path class="st8" d="M908.8,53.4h-42.2c-2.9,0-5.3-2.4-5.3-5.3V5.8c0-2.9,2.4-5.3,5.3-5.3h42.2c2.9,0,5.3,2.4,5.3,5.3V48
				C914.1,51,911.7,53.4,908.8,53.4z"/>
			<path class="st8" d="M908.8,128.1h-42.2c-2.9,0-5.3-2.4-5.3-5.3V80.6c0-2.9,2.4-5.3,5.3-5.3h42.2c2.9,0,5.3,2.4,5.3,5.3v42.2
				C914.1,125.7,911.7,128.1,908.8,128.1z"/>
			<path class="st8" d="M908.8,202.9h-42.2c-2.9,0-5.3-2.4-5.3-5.3v-42.2c0-2.9,2.4-5.3,5.3-5.3h42.2c2.9,0,5.3,2.4,5.3,5.3v42.2
				C914.1,200.5,911.7,202.9,908.8,202.9z"/>
			<g>
				<path class="st0" d="M189.9,45.7V9.5h13.7c2.4,0,4.2,0.1,5.5,0.3c1.8,0.3,3.3,0.9,4.5,1.7c1.2,0.8,2.2,2,2.9,3.5
					s1.1,3.1,1.1,4.9c0,3.1-1,5.7-2.9,7.8c-2,2.1-5.5,3.2-10.6,3.2h-9.3v14.7H189.9z M194.7,26.7h9.4c3.1,0,5.3-0.6,6.6-1.7
					c1.3-1.2,2-2.8,2-4.9c0-1.5-0.4-2.8-1.1-3.9c-0.8-1.1-1.8-1.8-3-2.1c-0.8-0.2-2.3-0.3-4.5-0.3h-9.3V26.7z"/>
				<path class="st0" d="M234,45.7L220,9.5h5.2l9.4,26.3c0.8,2.1,1.4,4.1,1.9,5.9c0.6-2,1.2-4,2-5.9l9.8-26.3h4.9l-14.2,36.2H234z"
					/>
				<path class="st0" d="M283.3,33l4.8,1.2c-1,3.9-2.8,6.9-5.4,9c-2.6,2.1-5.8,3.1-9.6,3.1c-3.9,0-7.1-0.8-9.5-2.4
					c-2.4-1.6-4.3-3.9-5.6-6.9c-1.3-3-1.9-6.3-1.9-9.7c0-3.8,0.7-7.1,2.2-9.9c1.4-2.8,3.5-4.9,6.2-6.4c2.7-1.5,5.6-2.2,8.8-2.2
					c3.6,0,6.7,0.9,9.1,2.8c2.5,1.8,4.2,4.4,5.2,7.8l-4.7,1.1c-0.8-2.6-2.1-4.6-3.7-5.8c-1.6-1.2-3.6-1.8-6-1.8c-2.8,0-5.1,0.7-7,2
					s-3.2,3.1-3.9,5.4c-0.8,2.2-1.1,4.6-1.1,7c0,3.1,0.4,5.8,1.3,8.1c0.9,2.3,2.3,4,4.2,5.2c1.9,1.1,3.9,1.7,6.2,1.7
					c2.7,0,5-0.8,6.8-2.3C281.3,38.4,282.6,36.1,283.3,33z"/>
				<path class="st0" d="M324.6,36.1l4.4,0.6c-0.5,3-1.7,5.4-3.7,7.1c-2,1.7-4.4,2.6-7.3,2.6c-3.6,0-6.5-1.2-8.7-3.5
					c-2.2-2.3-3.3-5.7-3.3-10.1c0-2.8,0.5-5.3,1.4-7.4s2.4-3.7,4.3-4.8c1.9-1.1,4-1.6,6.3-1.6c2.9,0,5.2,0.7,7,2.2
					c1.8,1.4,3,3.5,3.5,6.1l-4.3,0.7c-0.4-1.8-1.1-3.1-2.2-4c-1-0.9-2.3-1.3-3.8-1.3c-2.2,0-4.1,0.8-5.5,2.4
					c-1.4,1.6-2.1,4.1-2.1,7.6c0,3.5,0.7,6.1,2,7.7c1.4,1.6,3.1,2.4,5.3,2.4c1.7,0,3.2-0.5,4.4-1.6C323.5,40,324.3,38.4,324.6,36.1z
					"/>
				<path class="st0" d="M332.8,45.7V9.5h4.4v13c2.1-2.4,4.7-3.6,7.9-3.6c1.9,0,3.6,0.4,5.1,1.1c1.4,0.8,2.5,1.8,3.1,3.2
					c0.6,1.4,0.9,3.3,0.9,5.9v16.6h-4.4V29.1c0-2.2-0.5-3.8-1.4-4.9c-1-1-2.3-1.5-4.1-1.5c-1.3,0-2.6,0.3-3.7,1
					c-1.2,0.7-2,1.6-2.5,2.8c-0.5,1.2-0.7,2.8-0.7,4.8v14.4H332.8z"/>
				<path class="st0" d="M378.1,42.5c-1.6,1.4-3.2,2.4-4.8,3c-1.5,0.6-3.2,0.9-4.9,0.9c-2.9,0-5.1-0.7-6.6-2.1
					c-1.5-1.4-2.3-3.2-2.3-5.4c0-1.3,0.3-2.5,0.9-3.5c0.6-1.1,1.4-1.9,2.3-2.6c0.9-0.6,2-1.1,3.2-1.5c0.9-0.2,2.2-0.5,4-0.7
					c3.6-0.4,6.2-0.9,7.9-1.5c0-0.6,0-1,0-1.2c0-1.8-0.4-3.1-1.3-3.8c-1.1-1-2.8-1.5-5.1-1.5c-2.1,0-3.6,0.4-4.6,1.1
					c-1,0.7-1.7,2-2.2,3.9l-4.4-0.6c0.4-1.9,1-3.4,2-4.5c0.9-1.1,2.2-2,3.9-2.6c1.7-0.6,3.7-0.9,6-0.9c2.2,0,4.1,0.3,5.5,0.8
					c1.4,0.5,2.4,1.2,3.1,2c0.7,0.8,1.1,1.8,1.4,3c0.1,0.8,0.2,2.1,0.2,4.1v5.9c0,4.1,0.1,6.8,0.3,7.8c0.2,1.1,0.6,2.1,1.1,3.2H379
					C378.5,44.8,378.2,43.7,378.1,42.5z M377.7,32.6c-1.6,0.7-4,1.2-7.3,1.7c-1.8,0.3-3.1,0.6-3.9,0.9c-0.8,0.3-1.3,0.8-1.8,1.4
					c-0.4,0.6-0.6,1.3-0.6,2.1c0,1.2,0.4,2.2,1.3,3c0.9,0.8,2.2,1.2,3.9,1.2c1.7,0,3.2-0.4,4.6-1.1c1.3-0.7,2.3-1.8,2.9-3.1
					c0.5-1,0.7-2.5,0.7-4.4V32.6z"/>
				<path class="st0" d="M389.1,45.7V19.5h4v3.7c1.9-2.9,4.7-4.3,8.4-4.3c1.6,0,3,0.3,4.4,0.9c1.3,0.6,2.3,1.3,3,2.2
					c0.7,0.9,1.1,2,1.4,3.3c0.2,0.8,0.2,2.3,0.2,4.3v16.1H406v-16c0-1.8-0.2-3.2-0.5-4.1c-0.3-0.9-1-1.6-1.8-2.2
					c-0.9-0.5-1.9-0.8-3.1-0.8c-1.9,0-3.5,0.6-4.9,1.8c-1.4,1.2-2.1,3.5-2.1,6.8v14.3H389.1z"/>
				<path class="st0" d="M417.2,45.7V19.5h4v3.7c1.9-2.9,4.7-4.3,8.4-4.3c1.6,0,3,0.3,4.4,0.9c1.3,0.6,2.3,1.3,3,2.2
					c0.7,0.9,1.1,2,1.4,3.3c0.2,0.8,0.2,2.3,0.2,4.3v16.1h-4.4v-16c0-1.8-0.2-3.2-0.5-4.1c-0.3-0.9-1-1.6-1.8-2.2
					c-0.9-0.5-1.9-0.8-3.1-0.8c-1.9,0-3.5,0.6-4.9,1.8c-1.4,1.2-2.1,3.5-2.1,6.8v14.3H417.2z"/>
				<path class="st0" d="M463.4,37.3l4.6,0.6c-0.7,2.7-2.1,4.8-4,6.3c-2,1.5-4.5,2.2-7.5,2.2c-3.8,0-6.9-1.2-9.1-3.5
					s-3.4-5.7-3.4-9.9c0-4.4,1.1-7.8,3.4-10.3s5.2-3.7,8.8-3.7c3.5,0,6.4,1.2,8.6,3.6c2.2,2.4,3.3,5.8,3.3,10.1c0,0.3,0,0.7,0,1.2
					h-19.6c0.2,2.9,1,5.1,2.4,6.6c1.5,1.5,3.3,2.3,5.5,2.3c1.6,0,3-0.4,4.2-1.3C461.8,40.5,462.7,39.2,463.4,37.3z M448.8,30.1h14.7
					c-0.2-2.2-0.8-3.9-1.7-5c-1.4-1.7-3.3-2.6-5.5-2.6c-2,0-3.8,0.7-5.2,2.1C449.7,26,448.9,27.8,448.8,30.1z"/>
				<path class="st0" d="M473.4,45.7V9.5h4.4v36.2H473.4z"/>
				<path class="st0" d="M483,37.9l4.4-0.7c0.2,1.8,0.9,3.1,2.1,4.1c1.1,0.9,2.7,1.4,4.7,1.4c2,0,3.6-0.4,4.5-1.2
					c1-0.8,1.5-1.8,1.5-2.9c0-1-0.4-1.8-1.3-2.4c-0.6-0.4-2.1-0.9-4.5-1.5c-3.3-0.8-5.5-1.5-6.8-2.1c-1.3-0.6-2.2-1.4-2.9-2.5
					c-0.7-1.1-1-2.2-1-3.5c0-1.2,0.3-2.3,0.8-3.3c0.5-1,1.3-1.8,2.2-2.5c0.7-0.5,1.6-0.9,2.8-1.3c1.2-0.4,2.5-0.5,3.8-0.5
					c2.1,0,3.9,0.3,5.4,0.9c1.6,0.6,2.7,1.4,3.4,2.4c0.7,1,1.3,2.4,1.5,4.1l-4.4,0.6c-0.2-1.4-0.8-2.4-1.7-3.2
					c-0.9-0.8-2.3-1.1-4-1.1c-2,0-3.5,0.3-4.4,1c-0.9,0.7-1.3,1.5-1.3,2.4c0,0.6,0.2,1.1,0.5,1.6c0.4,0.5,0.9,0.9,1.7,1.2
					c0.4,0.2,1.8,0.5,3.9,1.1c3.1,0.8,5.3,1.5,6.6,2.1c1.2,0.5,2.2,1.3,2.9,2.3c0.7,1,1.1,2.3,1.1,3.8c0,1.5-0.4,2.9-1.3,4.2
					c-0.9,1.3-2.1,2.3-3.7,3c-1.6,0.7-3.5,1.1-5.5,1.1c-3.4,0-6-0.7-7.8-2.1C484.6,42.8,483.5,40.7,483,37.9z"/>
				<path class="st0" d="M522.5,32.6c0-4.9,1.4-8.5,4.1-10.8c2.3-1.9,5-2.9,8.3-2.9c3.6,0,6.6,1.2,8.8,3.5c2.3,2.4,3.4,5.6,3.4,9.8
					c0,3.4-0.5,6-1.5,8c-1,1.9-2.5,3.4-4.4,4.5c-1.9,1.1-4.1,1.6-6.3,1.6c-3.7,0-6.6-1.2-8.9-3.5C523.6,40.5,522.5,37.1,522.5,32.6z
					 M527.1,32.6c0,3.4,0.7,5.9,2.2,7.6c1.5,1.7,3.3,2.5,5.5,2.5c2.2,0,4-0.8,5.5-2.5c1.5-1.7,2.2-4.2,2.2-7.7
					c0-3.2-0.7-5.7-2.2-7.4c-1.5-1.7-3.3-2.5-5.5-2.5c-2.2,0-4.1,0.8-5.5,2.5C527.8,26.7,527.1,29.3,527.1,32.6z"/>
				<path class="st0" d="M552.3,45.7V19.5h4v4c1-1.9,2-3.1,2.8-3.7c0.9-0.6,1.8-0.9,2.9-0.9c1.5,0,3,0.5,4.6,1.4l-1.5,4.1
					c-1.1-0.6-2.2-1-3.3-1c-1,0-1.8,0.3-2.6,0.9c-0.8,0.6-1.3,1.4-1.7,2.4c-0.5,1.6-0.7,3.3-0.7,5.2v13.7H552.3z"/>
				<path class="st0" d="M582.4,47.9l4.3,0.6c0.2,1.3,0.7,2.3,1.5,2.9c1.1,0.8,2.6,1.2,4.5,1.2c2.1,0,3.6-0.4,4.8-1.2
					c1.1-0.8,1.9-2,2.3-3.5c0.2-0.9,0.3-2.8,0.3-5.7c-1.9,2.3-4.4,3.4-7.3,3.4c-3.6,0-6.4-1.3-8.4-3.9c-2-2.6-3-5.7-3-9.4
					c0-2.5,0.5-4.8,1.4-6.9c0.9-2.1,2.2-3.8,3.9-4.9c1.7-1.2,3.7-1.7,6.1-1.7c3.1,0,5.7,1.3,7.7,3.8v-3.2h4.1v22.7
					c0,4.1-0.4,7-1.2,8.7c-0.8,1.7-2.2,3.1-4,4c-1.8,1-4,1.5-6.7,1.5c-3.1,0-5.7-0.7-7.6-2.1C583.3,52.9,582.4,50.8,582.4,47.9z
					 M586.1,32.2c0,3.4,0.7,6,2.1,7.5c1.4,1.6,3.1,2.4,5.1,2.4c2,0,3.8-0.8,5.1-2.4s2.1-4,2.1-7.4c0-3.2-0.7-5.6-2.1-7.3
					s-3.1-2.4-5.2-2.4c-2,0-3.7,0.8-5,2.4C586.8,26.6,586.1,29,586.1,32.2z"/>
				<path class="st0" d="M628.6,45.7v-3.9c-2,3-4.8,4.4-8.3,4.4c-1.5,0-3-0.3-4.3-0.9c-1.3-0.6-2.3-1.3-3-2.2
					c-0.7-0.9-1.1-2-1.4-3.3c-0.2-0.9-0.3-2.3-0.3-4.2V19.5h4.4v14.6c0,2.3,0.1,3.9,0.3,4.7c0.3,1.2,0.9,2.1,1.8,2.8
					c0.9,0.7,2,1,3.4,1c1.3,0,2.6-0.3,3.8-1c1.2-0.7,2-1.6,2.5-2.8s0.7-2.9,0.7-5.1V19.5h4.4v26.2H628.6z"/>
				<path class="st0" d="M649.3,41.8l0.6,3.9c-1.3,0.3-2.4,0.4-3.4,0.4c-1.6,0-2.9-0.3-3.8-0.8s-1.5-1.2-1.9-2
					c-0.4-0.8-0.5-2.6-0.5-5.3V23h-3.3v-3.5h3.3V13l4.4-2.7v9.2h4.5V23h-4.5v15.3c0,1.3,0.1,2.1,0.2,2.4c0.2,0.4,0.4,0.7,0.8,0.9
					c0.4,0.2,0.9,0.3,1.5,0.3C647.8,41.9,648.5,41.9,649.3,41.8z"/>
				<path class="st0" d="M663.3,41.8l0.6,3.9c-1.3,0.3-2.4,0.4-3.4,0.4c-1.6,0-2.9-0.3-3.8-0.8s-1.5-1.2-1.9-2
					c-0.4-0.8-0.5-2.6-0.5-5.3V23h-3.3v-3.5h3.3V13l4.4-2.7v9.2h4.5V23h-4.5v15.3c0,1.3,0.1,2.1,0.2,2.4c0.2,0.4,0.4,0.7,0.8,0.9
					c0.4,0.2,0.9,0.3,1.5,0.3C661.9,41.9,662.5,41.9,663.3,41.8z"/>
				<path class="st0" d="M685.6,37.3l4.6,0.6c-0.7,2.7-2.1,4.8-4,6.3c-2,1.5-4.5,2.2-7.5,2.2c-3.8,0-6.9-1.2-9.1-3.5
					s-3.4-5.7-3.4-9.9c0-4.4,1.1-7.8,3.4-10.3s5.2-3.7,8.8-3.7c3.5,0,6.4,1.2,8.6,3.6c2.2,2.4,3.3,5.8,3.3,10.1c0,0.3,0,0.7,0,1.2
					h-19.6c0.2,2.9,1,5.1,2.4,6.6c1.5,1.5,3.3,2.3,5.5,2.3c1.6,0,3-0.4,4.2-1.3C684.1,40.5,685,39.2,685.6,37.3z M671,30.1h14.7
					c-0.2-2.2-0.8-3.9-1.7-5c-1.4-1.7-3.3-2.6-5.5-2.6c-2,0-3.8,0.7-5.2,2.1C672,26,671.2,27.8,671,30.1z"/>
				<path class="st0" d="M695.8,45.7V19.5h4v4c1-1.9,2-3.1,2.8-3.7c0.9-0.6,1.8-0.9,2.9-0.9c1.5,0,3,0.5,4.6,1.4l-1.5,4.1
					c-1.1-0.6-2.2-1-3.3-1c-1,0-1.8,0.3-2.6,0.9c-0.8,0.6-1.3,1.4-1.7,2.4c-0.5,1.6-0.7,3.3-0.7,5.2v13.7H695.8z"/>
				<path class="st0" d="M710.9,37.9l4.4-0.7c0.2,1.8,0.9,3.1,2.1,4.1c1.1,0.9,2.7,1.4,4.7,1.4c2,0,3.6-0.4,4.5-1.2
					c1-0.8,1.5-1.8,1.5-2.9c0-1-0.4-1.8-1.3-2.4c-0.6-0.4-2.1-0.9-4.5-1.5c-3.3-0.8-5.5-1.5-6.8-2.1s-2.2-1.4-2.9-2.5
					c-0.7-1.1-1-2.2-1-3.5c0-1.2,0.3-2.3,0.8-3.3c0.5-1,1.3-1.8,2.2-2.5c0.7-0.5,1.6-0.9,2.8-1.3c1.2-0.4,2.5-0.5,3.8-0.5
					c2.1,0,3.9,0.3,5.4,0.9c1.6,0.6,2.7,1.4,3.4,2.4c0.7,1,1.3,2.4,1.5,4.1l-4.4,0.6c-0.2-1.4-0.8-2.4-1.7-3.2
					c-0.9-0.8-2.3-1.1-4-1.1c-2,0-3.5,0.3-4.4,1c-0.9,0.7-1.3,1.5-1.3,2.4c0,0.6,0.2,1.1,0.5,1.6c0.4,0.5,0.9,0.9,1.7,1.2
					c0.4,0.2,1.8,0.5,3.9,1.1c3.1,0.8,5.3,1.5,6.6,2.1c1.2,0.5,2.2,1.3,2.9,2.3c0.7,1,1.1,2.3,1.1,3.8c0,1.5-0.4,2.9-1.3,4.2
					c-0.9,1.3-2.1,2.3-3.7,3c-1.6,0.7-3.5,1.1-5.5,1.1c-3.4,0-6-0.7-7.8-2.1S711.4,40.7,710.9,37.9z"/>
			</g>
			<g>
				<path class="st0" d="M188.3,107.9l4.5-0.4c0.2,1.8,0.7,3.3,1.5,4.5c0.8,1.2,2,2.1,3.6,2.8c1.6,0.7,3.5,1.1,5.6,1.1
					c1.8,0,3.4-0.3,4.8-0.8c1.4-0.5,2.4-1.3,3.1-2.2c0.7-0.9,1-2,1-3.1c0-1.1-0.3-2.1-1-3c-0.7-0.8-1.7-1.6-3.3-2.1
					c-1-0.4-3.1-1-6.5-1.8c-3.3-0.8-5.7-1.6-7-2.3c-1.7-0.9-3-2-3.9-3.4c-0.8-1.3-1.3-2.8-1.3-4.5c0-1.8,0.5-3.5,1.6-5.1
					c1-1.6,2.6-2.8,4.5-3.6c2-0.8,4.2-1.2,6.6-1.2c2.7,0,5.1,0.4,7.1,1.3c2.1,0.9,3.6,2.1,4.7,3.8c1.1,1.7,1.7,3.6,1.8,5.7l-4.6,0.3
					c-0.2-2.3-1.1-4-2.5-5.2c-1.4-1.2-3.5-1.8-6.3-1.8c-2.9,0-5,0.5-6.3,1.6c-1.3,1.1-2,2.3-2,3.8c0,1.3,0.5,2.4,1.4,3.2
					c0.9,0.8,3.3,1.7,7.2,2.6c3.9,0.9,6.6,1.7,8,2.3c2.1,1,3.7,2.2,4.7,3.7c1,1.5,1.5,3.2,1.5,5.2c0,1.9-0.6,3.7-1.7,5.5
					c-1.1,1.7-2.7,3-4.8,4c-2.1,0.9-4.4,1.4-7,1.4c-3.3,0-6-0.5-8.2-1.4c-2.2-1-4-2.4-5.2-4.3C189,112.5,188.3,110.3,188.3,107.9z"
					/>
				<path class="st0" d="M241.1,111.1l4.6,0.6c-0.7,2.7-2.1,4.8-4,6.3c-2,1.5-4.5,2.2-7.5,2.2c-3.8,0-6.9-1.2-9.1-3.5
					c-2.2-2.4-3.4-5.7-3.4-9.9c0-4.4,1.1-7.8,3.4-10.3c2.3-2.4,5.2-3.7,8.8-3.7c3.5,0,6.4,1.2,8.6,3.6c2.2,2.4,3.3,5.8,3.3,10.1
					c0,0.3,0,0.7,0,1.2h-19.6c0.2,2.9,1,5.1,2.4,6.6c1.5,1.5,3.3,2.3,5.5,2.3c1.6,0,3-0.4,4.2-1.3
					C239.5,114.3,240.4,113,241.1,111.1z M226.4,103.9h14.7c-0.2-2.2-0.8-3.9-1.7-5c-1.4-1.7-3.3-2.6-5.5-2.6c-2,0-3.8,0.7-5.2,2.1
					C227.4,99.8,226.6,101.6,226.4,103.9z"/>
				<path class="st0" d="M268.3,119.5v-3.3c-1.7,2.6-4.1,3.9-7.3,3.9c-2.1,0-4-0.6-5.8-1.7c-1.8-1.2-3.1-2.8-4.1-4.8
					c-1-2.1-1.4-4.4-1.4-7.1c0-2.6,0.4-5,1.3-7.1c0.9-2.1,2.2-3.8,3.9-4.9c1.7-1.1,3.7-1.7,5.9-1.7c1.6,0,3,0.3,4.2,1
					c1.2,0.7,2.2,1.5,3,2.6v-13h4.4v36.2H268.3z M254.2,106.4c0,3.4,0.7,5.9,2.1,7.5c1.4,1.7,3.1,2.5,5,2.5c1.9,0,3.6-0.8,5-2.4
					c1.4-1.6,2-4,2-7.3c0-3.6-0.7-6.2-2.1-7.9c-1.4-1.7-3.1-2.5-5.1-2.5c-2,0-3.6,0.8-5,2.4C254.9,100.4,254.2,102.9,254.2,106.4z"
					/>
				<path class="st0" d="M279.4,88.4v-5.1h4.4v5.1H279.4z M279.4,119.5V93.3h4.4v26.2H279.4z"/>
				<path class="st0" d="M290.6,119.5V93.3h4V97c0.8-1.3,1.9-2.3,3.3-3.1c1.4-0.8,2.9-1.2,4.7-1.2c1.9,0,3.5,0.4,4.8,1.2
					c1.2,0.8,2.1,1.9,2.6,3.4c2.1-3.1,4.8-4.6,8.1-4.6c2.6,0,4.6,0.7,6,2.2c1.4,1.4,2.1,3.7,2.1,6.7v18h-4.4V103
					c0-1.8-0.1-3.1-0.4-3.8c-0.3-0.8-0.8-1.4-1.6-1.9c-0.8-0.5-1.6-0.7-2.7-0.7c-1.8,0-3.4,0.6-4.6,1.8c-1.2,1.2-1.8,3.2-1.8,5.9
					v15.3h-4.4v-17.1c0-2-0.4-3.5-1.1-4.4c-0.7-1-1.9-1.5-3.6-1.5c-1.3,0-2.4,0.3-3.5,1s-1.8,1.6-2.3,2.9c-0.5,1.3-0.7,3.1-0.7,5.5
					v13.6H290.6z"/>
				<path class="st0" d="M350.8,111.1l4.6,0.6c-0.7,2.7-2.1,4.8-4,6.3c-2,1.5-4.5,2.2-7.5,2.2c-3.8,0-6.9-1.2-9.1-3.5
					s-3.4-5.7-3.4-9.9c0-4.4,1.1-7.8,3.4-10.3c2.3-2.4,5.2-3.7,8.8-3.7c3.5,0,6.4,1.2,8.6,3.6c2.2,2.4,3.3,5.8,3.3,10.1
					c0,0.3,0,0.7,0,1.2h-19.6c0.2,2.9,1,5.1,2.4,6.6c1.5,1.5,3.3,2.3,5.5,2.3c1.6,0,3-0.4,4.2-1.3
					C349.2,114.3,350.1,113,350.8,111.1z M336.2,103.9h14.7c-0.2-2.2-0.8-3.9-1.7-5c-1.4-1.7-3.3-2.6-5.5-2.6c-2,0-3.8,0.7-5.2,2.1
					C337.1,99.8,336.3,101.6,336.2,103.9z"/>
				<path class="st0" d="M361,119.5V93.3h4V97c1.9-2.9,4.7-4.3,8.4-4.3c1.6,0,3,0.3,4.4,0.9c1.3,0.6,2.3,1.3,3,2.2
					c0.7,0.9,1.1,2,1.4,3.3c0.2,0.8,0.2,2.3,0.2,4.3v16.1h-4.4v-16c0-1.8-0.2-3.2-0.5-4.1c-0.3-0.9-1-1.6-1.8-2.2
					c-0.9-0.5-1.9-0.8-3.1-0.8c-1.9,0-3.5,0.6-4.9,1.8c-1.4,1.2-2.1,3.5-2.1,6.8v14.3H361z"/>
				<path class="st0" d="M398.8,115.5l0.6,3.9c-1.3,0.3-2.4,0.4-3.4,0.4c-1.6,0-2.9-0.3-3.8-0.8c-0.9-0.5-1.5-1.2-1.9-2
					c-0.4-0.8-0.5-2.6-0.5-5.3V96.7h-3.3v-3.5h3.3v-6.5l4.4-2.7v9.2h4.5v3.5h-4.5v15.3c0,1.3,0.1,2.1,0.2,2.4
					c0.2,0.4,0.4,0.7,0.8,0.9c0.4,0.2,0.9,0.3,1.5,0.3C397.4,115.7,398,115.7,398.8,115.5z"/>
				<path class="st0" d="M418.3,119.5V96.7h-3.9v-3.5h3.9v-2.8c0-1.8,0.2-3.1,0.5-3.9c0.4-1.2,1.2-2.1,2.3-2.8
					c1.1-0.7,2.6-1.1,4.5-1.1c1.3,0,2.6,0.1,4.2,0.4l-0.7,3.9c-0.9-0.2-1.8-0.2-2.6-0.2c-1.4,0-2.3,0.3-2.9,0.9
					c-0.6,0.6-0.8,1.7-0.8,3.2v2.4h5.1v3.5h-5.1v22.8H418.3z"/>
				<path class="st0" d="M431.3,88.4v-5.1h4.4v5.1H431.3z M431.3,119.5V93.3h4.4v26.2H431.3z"/>
				<path class="st0" d="M442.4,119.5V83.3h4.4v36.2H442.4z"/>
				<path class="st0" d="M463.5,115.5l0.6,3.9c-1.3,0.3-2.4,0.4-3.4,0.4c-1.6,0-2.9-0.3-3.8-0.8c-0.9-0.5-1.5-1.2-1.9-2
					c-0.4-0.8-0.5-2.6-0.5-5.3V96.7h-3.3v-3.5h3.3v-6.5l4.4-2.7v9.2h4.5v3.5H459v15.3c0,1.3,0.1,2.1,0.2,2.4
					c0.2,0.4,0.4,0.7,0.8,0.9c0.4,0.2,0.9,0.3,1.5,0.3C462.1,115.7,462.7,115.7,463.5,115.5z"/>
				<path class="st0" d="M485.8,111.1l4.6,0.6c-0.7,2.7-2.1,4.8-4,6.3c-2,1.5-4.5,2.2-7.5,2.2c-3.8,0-6.9-1.2-9.1-3.5
					s-3.4-5.7-3.4-9.9c0-4.4,1.1-7.8,3.4-10.3c2.3-2.4,5.2-3.7,8.8-3.7c3.5,0,6.4,1.2,8.6,3.6c2.2,2.4,3.3,5.8,3.3,10.1
					c0,0.3,0,0.7,0,1.2H471c0.2,2.9,1,5.1,2.4,6.6c1.5,1.5,3.3,2.3,5.5,2.3c1.6,0,3-0.4,4.2-1.3C484.2,114.3,485.2,113,485.8,111.1z
					 M471.2,103.9h14.7c-0.2-2.2-0.8-3.9-1.7-5c-1.4-1.7-3.3-2.6-5.5-2.6c-2,0-3.8,0.7-5.2,2.1C472.1,99.8,471.4,101.6,471.2,103.9z
					"/>
				<path class="st0" d="M496,119.5V93.3h4v4c1-1.9,2-3.1,2.8-3.7c0.9-0.6,1.8-0.9,2.9-0.9c1.5,0,3,0.5,4.6,1.4l-1.5,4.1
					c-1.1-0.6-2.2-1-3.3-1c-1,0-1.8,0.3-2.6,0.9c-0.8,0.6-1.3,1.4-1.7,2.4c-0.5,1.6-0.7,3.3-0.7,5.2v13.7H496z"/>
			</g>
			<g>
				<path class="st0" d="M190.1,194.3v-36.2h24.4v4.3h-19.7v11.2h17v4.3h-17v16.5H190.1z"/>
				<path class="st0" d="M220.1,194.3v-36.2h4.4v36.2H220.1z"/>
				<path class="st0" d="M229.8,181.2c0-4.9,1.4-8.5,4.1-10.8c2.3-1.9,5-2.9,8.3-2.9c3.6,0,6.6,1.2,8.8,3.5c2.3,2.4,3.4,5.6,3.4,9.8
					c0,3.4-0.5,6-1.5,8c-1,1.9-2.5,3.4-4.4,4.5c-1.9,1.1-4.1,1.6-6.3,1.6c-3.7,0-6.6-1.2-8.9-3.5C231,189,229.8,185.6,229.8,181.2z
					 M234.4,181.2c0,3.4,0.7,5.9,2.2,7.6c1.5,1.7,3.3,2.5,5.5,2.5c2.2,0,4-0.8,5.5-2.5c1.5-1.7,2.2-4.2,2.2-7.7
					c0-3.2-0.7-5.7-2.2-7.4c-1.5-1.7-3.3-2.5-5.5-2.5c-2.2,0-4.1,0.8-5.5,2.5C235.1,175.3,234.4,177.8,234.4,181.2z"/>
				<path class="st0" d="M264.5,194.3l-8-26.2h4.6l4.2,15.2l1.6,5.6c0.1-0.3,0.5-2.1,1.4-5.4l4.2-15.4h4.6l3.9,15.2l1.3,5l1.5-5.1
					l4.5-15.2h4.3l-8.2,26.2h-4.6l-4.2-15.7l-1-4.5l-5.3,20.2H264.5z"/>
				<path class="st0" d="M296.1,194.3v-36.2h4.4v36.2H296.1z"/>
				<path class="st0" d="M307.5,163.2v-5.1h4.4v5.1H307.5z M307.5,194.3V168h4.4v26.2H307.5z"/>
				<path class="st0" d="M318.7,194.3V168h4v3.7c1.9-2.9,4.7-4.3,8.4-4.3c1.6,0,3,0.3,4.4,0.9c1.3,0.6,2.3,1.3,3,2.2
					c0.7,0.9,1.1,2,1.4,3.3c0.2,0.8,0.2,2.3,0.2,4.3v16.1h-4.4v-16c0-1.8-0.2-3.2-0.5-4.1c-0.3-0.9-1-1.6-1.8-2.2
					c-0.9-0.5-1.9-0.8-3.1-0.8c-1.9,0-3.5,0.6-4.9,1.8c-1.4,1.2-2.1,3.5-2.1,6.8v14.3H318.7z"/>
				<path class="st0" d="M364.8,185.8l4.6,0.6c-0.7,2.7-2.1,4.8-4,6.3c-2,1.5-4.5,2.2-7.5,2.2c-3.8,0-6.9-1.2-9.1-3.5
					c-2.2-2.4-3.4-5.7-3.4-9.9c0-4.4,1.1-7.8,3.4-10.3s5.2-3.7,8.8-3.7c3.5,0,6.4,1.2,8.6,3.6c2.2,2.4,3.3,5.8,3.3,10.1
					c0,0.3,0,0.7,0,1.2H350c0.2,2.9,1,5.1,2.4,6.6c1.5,1.5,3.3,2.3,5.5,2.3c1.6,0,3-0.4,4.2-1.3
					C363.2,189.1,364.1,187.7,364.8,185.8z M350.2,178.7h14.7c-0.2-2.2-0.8-3.9-1.7-5c-1.4-1.7-3.3-2.6-5.5-2.6
					c-2,0-3.8,0.7-5.2,2.1C351.1,174.5,350.4,176.4,350.2,178.7z"/>
				<path class="st0" d="M373.2,186.5l4.4-0.7c0.2,1.8,0.9,3.1,2.1,4.1c1.1,0.9,2.7,1.4,4.7,1.4c2,0,3.6-0.4,4.5-1.2
					c1-0.8,1.5-1.8,1.5-2.9c0-1-0.4-1.8-1.3-2.4c-0.6-0.4-2.1-0.9-4.5-1.5c-3.3-0.8-5.5-1.5-6.8-2.1c-1.3-0.6-2.2-1.4-2.9-2.5
					c-0.7-1.1-1-2.2-1-3.5c0-1.2,0.3-2.3,0.8-3.3c0.5-1,1.3-1.8,2.2-2.5c0.7-0.5,1.6-0.9,2.8-1.3c1.2-0.4,2.5-0.5,3.8-0.5
					c2.1,0,3.9,0.3,5.4,0.9c1.6,0.6,2.7,1.4,3.4,2.4s1.3,2.4,1.5,4.1l-4.4,0.6c-0.2-1.4-0.8-2.4-1.7-3.2c-0.9-0.8-2.3-1.1-4-1.1
					c-2,0-3.5,0.3-4.4,1c-0.9,0.7-1.3,1.5-1.3,2.4c0,0.6,0.2,1.1,0.5,1.6c0.4,0.5,0.9,0.9,1.7,1.2c0.4,0.2,1.8,0.5,3.9,1.1
					c3.1,0.8,5.3,1.5,6.6,2.1c1.2,0.5,2.2,1.3,2.9,2.3c0.7,1,1.1,2.3,1.1,3.8c0,1.5-0.4,2.9-1.3,4.2c-0.9,1.3-2.1,2.3-3.7,3
					c-1.6,0.7-3.5,1.1-5.5,1.1c-3.4,0-6-0.7-7.8-2.1C374.9,191.3,373.7,189.2,373.2,186.5z"/>
			</g>
			<g>
				<path class="st0" d="M189.7,268.9v-36.2h7.2l8.6,25.7c0.8,2.4,1.4,4.2,1.7,5.4c0.4-1.3,1.1-3.3,1.9-5.8l8.7-25.2h6.5v36.2h-4.6
					v-30.3l-10.5,30.3h-4.3L194.4,238v30.8H189.7z"/>
				<path class="st0" d="M249.5,260.4l4.6,0.6c-0.7,2.7-2.1,4.8-4,6.3c-2,1.5-4.5,2.2-7.5,2.2c-3.8,0-6.9-1.2-9.1-3.5
					c-2.2-2.4-3.4-5.7-3.4-9.9c0-4.4,1.1-7.8,3.4-10.3c2.3-2.4,5.2-3.7,8.8-3.7c3.5,0,6.4,1.2,8.6,3.6c2.2,2.4,3.3,5.8,3.3,10.1
					c0,0.3,0,0.7,0,1.2h-19.6c0.2,2.9,1,5.1,2.4,6.6c1.5,1.5,3.3,2.3,5.5,2.3c1.6,0,3-0.4,4.2-1.3
					C247.9,263.7,248.8,262.3,249.5,260.4z M234.8,253.2h14.7c-0.2-2.2-0.8-3.9-1.7-5c-1.4-1.7-3.3-2.6-5.5-2.6
					c-2,0-3.8,0.7-5.2,2.1C235.8,249.1,235,250.9,234.8,253.2z"/>
				<path class="st0" d="M257.9,261l4.4-0.7c0.2,1.8,0.9,3.1,2.1,4.1c1.1,0.9,2.7,1.4,4.7,1.4c2,0,3.6-0.4,4.5-1.2
					c1-0.8,1.5-1.8,1.5-2.9c0-1-0.4-1.8-1.3-2.4c-0.6-0.4-2.1-0.9-4.5-1.5c-3.3-0.8-5.5-1.5-6.8-2.1c-1.3-0.6-2.2-1.4-2.9-2.5
					c-0.7-1.1-1-2.2-1-3.5c0-1.2,0.3-2.3,0.8-3.3c0.5-1,1.3-1.8,2.2-2.5c0.7-0.5,1.6-0.9,2.8-1.3c1.2-0.4,2.5-0.5,3.8-0.5
					c2.1,0,3.9,0.3,5.4,0.9c1.6,0.6,2.7,1.4,3.4,2.4c0.7,1,1.3,2.4,1.5,4.1l-4.4,0.6c-0.2-1.4-0.8-2.4-1.7-3.2
					c-0.9-0.8-2.3-1.1-4-1.1c-2,0-3.5,0.3-4.4,1c-0.9,0.7-1.3,1.5-1.3,2.4c0,0.6,0.2,1.1,0.5,1.6c0.4,0.5,0.9,0.9,1.7,1.2
					c0.4,0.2,1.8,0.5,3.9,1.1c3.1,0.8,5.3,1.5,6.6,2.1c1.2,0.5,2.2,1.3,2.9,2.3c0.7,1,1.1,2.3,1.1,3.8c0,1.5-0.4,2.9-1.3,4.2
					c-0.9,1.3-2.1,2.3-3.7,3c-1.6,0.7-3.5,1.1-5.5,1.1c-3.4,0-6-0.7-7.8-2.1C259.5,265.9,258.4,263.8,257.9,261z"/>
				<path class="st0" d="M284.9,268.9v-36.2h4.4v13c2.1-2.4,4.7-3.6,7.9-3.6c1.9,0,3.6,0.4,5.1,1.1c1.4,0.8,2.5,1.8,3.1,3.2
					c0.6,1.4,0.9,3.3,0.9,5.9v16.6h-4.4v-16.6c0-2.2-0.5-3.8-1.4-4.9c-1-1-2.3-1.5-4.1-1.5c-1.3,0-2.6,0.3-3.7,1
					c-1.2,0.7-2,1.6-2.5,2.8c-0.5,1.2-0.7,2.8-0.7,4.8v14.4H284.9z"/>
				<path class="st0" d="M325.5,255.7c0-4.9,1.4-8.5,4.1-10.8c2.3-1.9,5-2.9,8.3-2.9c3.6,0,6.6,1.2,8.8,3.5c2.3,2.4,3.4,5.6,3.4,9.8
					c0,3.4-0.5,6-1.5,8c-1,1.9-2.5,3.4-4.4,4.5c-1.9,1.1-4.1,1.6-6.3,1.6c-3.7,0-6.6-1.2-8.9-3.5
					C326.6,263.6,325.5,260.2,325.5,255.7z M330.1,255.7c0,3.4,0.7,5.9,2.2,7.6c1.5,1.7,3.3,2.5,5.5,2.5c2.2,0,4-0.8,5.5-2.5
					c1.5-1.7,2.2-4.2,2.2-7.7c0-3.2-0.7-5.7-2.2-7.4c-1.5-1.7-3.3-2.5-5.5-2.5c-2.2,0-4.1,0.8-5.5,2.5
					C330.8,249.9,330.1,252.4,330.1,255.7z"/>
				<path class="st0" d="M355.3,268.9v-26.2h4v4c1-1.9,2-3.1,2.8-3.7c0.9-0.6,1.8-0.9,2.9-0.9c1.5,0,3,0.5,4.6,1.4l-1.5,4.1
					c-1.1-0.6-2.2-1-3.3-1c-1,0-1.8,0.3-2.6,0.9c-0.8,0.6-1.3,1.4-1.7,2.4c-0.5,1.6-0.7,3.3-0.7,5.2v13.7H355.3z"/>
				<path class="st0" d="M384.5,261l4.4-0.7c0.2,1.8,0.9,3.1,2.1,4.1c1.1,0.9,2.7,1.4,4.7,1.4c2,0,3.6-0.4,4.5-1.2
					c1-0.8,1.5-1.8,1.5-2.9c0-1-0.4-1.8-1.3-2.4c-0.6-0.4-2.1-0.9-4.5-1.5c-3.3-0.8-5.5-1.5-6.8-2.1c-1.3-0.6-2.2-1.4-2.9-2.5
					c-0.7-1.1-1-2.2-1-3.5c0-1.2,0.3-2.3,0.8-3.3c0.5-1,1.3-1.8,2.2-2.5c0.7-0.5,1.6-0.9,2.8-1.3c1.2-0.4,2.5-0.5,3.8-0.5
					c2.1,0,3.9,0.3,5.4,0.9c1.6,0.6,2.7,1.4,3.4,2.4c0.7,1,1.3,2.4,1.5,4.1l-4.4,0.6c-0.2-1.4-0.8-2.4-1.7-3.2
					c-0.9-0.8-2.3-1.1-4-1.1c-2,0-3.5,0.3-4.4,1c-0.9,0.7-1.3,1.5-1.3,2.4c0,0.6,0.2,1.1,0.5,1.6c0.4,0.5,0.9,0.9,1.7,1.2
					c0.4,0.2,1.8,0.5,3.9,1.1c3.1,0.8,5.3,1.5,6.6,2.1c1.2,0.5,2.2,1.3,2.9,2.3c0.7,1,1.1,2.3,1.1,3.8c0,1.5-0.4,2.9-1.3,4.2
					c-0.9,1.3-2.1,2.3-3.7,3c-1.6,0.7-3.5,1.1-5.5,1.1c-3.4,0-6-0.7-7.8-2.1C386.1,265.9,385,263.8,384.5,261z"/>
				<path class="st0" d="M411.6,237.8v-5.1h4.4v5.1H411.6z M411.6,268.9v-26.2h4.4v26.2H411.6z"/>
				<path class="st0" d="M440.8,260.4l4.6,0.6c-0.7,2.7-2.1,4.8-4,6.3c-2,1.5-4.5,2.2-7.5,2.2c-3.8,0-6.9-1.2-9.1-3.5
					c-2.2-2.4-3.4-5.7-3.4-9.9c0-4.4,1.1-7.8,3.4-10.3c2.3-2.4,5.2-3.7,8.8-3.7c3.5,0,6.4,1.2,8.6,3.6c2.2,2.4,3.3,5.8,3.3,10.1
					c0,0.3,0,0.7,0,1.2h-19.6c0.2,2.9,1,5.1,2.4,6.6c1.5,1.5,3.3,2.3,5.5,2.3c1.6,0,3-0.4,4.2-1.3
					C439.2,263.7,440.1,262.3,440.8,260.4z M426.2,253.2h14.7c-0.2-2.2-0.8-3.9-1.7-5c-1.4-1.7-3.3-2.6-5.5-2.6
					c-2,0-3.8,0.7-5.2,2.1C427.1,249.1,426.3,250.9,426.2,253.2z"/>
				<path class="st0" d="M458.2,268.9l-10-26.2h4.7l5.6,15.7c0.6,1.7,1.2,3.5,1.7,5.3c0.4-1.4,0.9-3,1.7-5l5.8-16h4.6l-9.9,26.2
					H458.2z"/>
				<path class="st0" d="M494.2,260.4l4.6,0.6c-0.7,2.7-2.1,4.8-4,6.3c-2,1.5-4.5,2.2-7.5,2.2c-3.8,0-6.9-1.2-9.1-3.5
					c-2.2-2.4-3.4-5.7-3.4-9.9c0-4.4,1.1-7.8,3.4-10.3c2.3-2.4,5.2-3.7,8.8-3.7c3.5,0,6.4,1.2,8.6,3.6c2.2,2.4,3.3,5.8,3.3,10.1
					c0,0.3,0,0.7,0,1.2h-19.6c0.2,2.9,1,5.1,2.4,6.6c1.5,1.5,3.3,2.3,5.5,2.3c1.6,0,3-0.4,4.2-1.3
					C492.6,263.7,493.6,262.3,494.2,260.4z M479.6,253.2h14.7c-0.2-2.2-0.8-3.9-1.7-5c-1.4-1.7-3.3-2.6-5.5-2.6
					c-2,0-3.8,0.7-5.2,2.1C480.5,249.1,479.8,250.9,479.6,253.2z"/>
				<path class="st0" d="M519.5,268.9v-22.8h-3.9v-3.5h3.9v-2.8c0-1.8,0.2-3.1,0.5-3.9c0.4-1.2,1.2-2.1,2.3-2.8
					c1.1-0.7,2.6-1.1,4.5-1.1c1.3,0,2.6,0.1,4.2,0.4l-0.7,3.9c-0.9-0.2-1.8-0.2-2.6-0.2c-1.4,0-2.3,0.3-2.9,0.9
					c-0.6,0.6-0.8,1.7-0.8,3.2v2.4h5.1v3.5H524v22.8H519.5z"/>
				<path class="st0" d="M532.6,237.8v-5.1h4.4v5.1H532.6z M532.6,268.9v-26.2h4.4v26.2H532.6z"/>
				<path class="st0" d="M543.7,268.9v-36.2h4.4v36.2H543.7z"/>
				<path class="st0" d="M564.8,264.9l0.6,3.9c-1.3,0.3-2.4,0.4-3.4,0.4c-1.6,0-2.9-0.3-3.8-0.8s-1.5-1.2-1.9-2
					c-0.4-0.8-0.5-2.6-0.5-5.3v-15.1h-3.3v-3.5h3.3v-6.5l4.4-2.7v9.2h4.5v3.5h-4.5v15.3c0,1.3,0.1,2.1,0.2,2.4
					c0.2,0.4,0.4,0.7,0.8,0.9c0.4,0.2,0.9,0.3,1.5,0.3C563.3,265.1,563.9,265,564.8,264.9z"/>
				<path class="st0" d="M587.1,260.4l4.6,0.6c-0.7,2.7-2.1,4.8-4,6.3c-2,1.5-4.5,2.2-7.5,2.2c-3.8,0-6.9-1.2-9.1-3.5
					c-2.2-2.4-3.4-5.7-3.4-9.9c0-4.4,1.1-7.8,3.4-10.3c2.3-2.4,5.2-3.7,8.8-3.7c3.5,0,6.4,1.2,8.6,3.6c2.2,2.4,3.3,5.8,3.3,10.1
					c0,0.3,0,0.7,0,1.2h-19.6c0.2,2.9,1,5.1,2.4,6.6c1.5,1.5,3.3,2.3,5.5,2.3c1.6,0,3-0.4,4.2-1.3
					C585.5,263.7,586.4,262.3,587.1,260.4z M572.5,253.2h14.7c-0.2-2.2-0.8-3.9-1.7-5c-1.4-1.7-3.3-2.6-5.5-2.6
					c-2,0-3.8,0.7-5.2,2.1C573.4,249.1,572.6,250.9,572.5,253.2z"/>
				<path class="st0" d="M597.2,268.9v-26.2h4v4c1-1.9,2-3.1,2.8-3.7c0.9-0.6,1.8-0.9,2.9-0.9c1.5,0,3,0.5,4.6,1.4l-1.5,4.1
					c-1.1-0.6-2.2-1-3.3-1c-1,0-1.8,0.3-2.6,0.9c-0.8,0.6-1.3,1.4-1.7,2.4c-0.5,1.6-0.7,3.3-0.7,5.2v13.7H597.2z"/>
			</g>
			<g>
				<path class="st0" d="M964.5,31.1v-4.3l15.3,0v13.4c-2.4,1.9-4.8,3.3-7.3,4.2c-2.5,0.9-5.1,1.4-7.7,1.4c-3.6,0-6.8-0.8-9.7-2.3
					c-2.9-1.5-5.1-3.7-6.6-6.6c-1.5-2.9-2.2-6.1-2.2-9.7c0-3.5,0.7-6.8,2.2-9.9s3.6-5.3,6.4-6.8c2.8-1.5,6-2.2,9.6-2.2
					c2.6,0,5,0.4,7.1,1.3c2.1,0.8,3.8,2,5,3.5c1.2,1.5,2.1,3.5,2.7,5.9l-4.3,1.2c-0.5-1.8-1.2-3.3-2-4.4s-2-1.9-3.5-2.5
					c-1.5-0.6-3.2-1-5-1c-2.2,0-4.1,0.3-5.7,1c-1.6,0.7-2.9,1.5-3.9,2.6c-1,1.1-1.7,2.3-2.3,3.6c-0.9,2.2-1.4,4.7-1.4,7.3
					c0,3.2,0.6,5.9,1.7,8.1c1.1,2.2,2.7,3.8,4.9,4.8c2.1,1.1,4.4,1.6,6.8,1.6c2.1,0,4.1-0.4,6.1-1.2c2-0.8,3.5-1.7,4.5-2.6v-6.7
					H964.5z"/>
				<path class="st0" d="M1004.4,36.8l4.6,0.6c-0.7,2.7-2.1,4.8-4,6.3c-2,1.5-4.5,2.2-7.5,2.2c-3.8,0-6.9-1.2-9.1-3.5
					c-2.2-2.4-3.4-5.7-3.4-9.9c0-4.4,1.1-7.8,3.4-10.3s5.2-3.7,8.8-3.7c3.5,0,6.4,1.2,8.6,3.6c2.2,2.4,3.3,5.8,3.3,10.1
					c0,0.3,0,0.7,0,1.2h-19.6c0.2,2.9,1,5.1,2.4,6.6c1.5,1.5,3.3,2.3,5.5,2.3c1.6,0,3-0.4,4.2-1.3
					C1002.8,40.1,1003.7,38.7,1004.4,36.8z M989.8,29.6h14.7c-0.2-2.2-0.8-3.9-1.7-5c-1.4-1.7-3.3-2.6-5.5-2.6c-2,0-3.8,0.7-5.2,2.1
					C990.7,25.5,989.9,27.3,989.8,29.6z"/>
				<path class="st0" d="M1012.9,32.1c0-4.9,1.4-8.5,4.1-10.8c2.3-1.9,5-2.9,8.3-2.9c3.6,0,6.6,1.2,8.8,3.5c2.3,2.4,3.4,5.6,3.4,9.8
					c0,3.4-0.5,6-1.5,8c-1,1.9-2.5,3.4-4.4,4.5c-1.9,1.1-4.1,1.6-6.3,1.6c-3.7,0-6.6-1.2-8.9-3.5C1014,40,1012.9,36.6,1012.9,32.1z
					 M1017.5,32.1c0,3.4,0.7,5.9,2.2,7.6c1.5,1.7,3.3,2.5,5.5,2.5c2.2,0,4-0.8,5.5-2.5c1.5-1.7,2.2-4.2,2.2-7.7
					c0-3.2-0.7-5.7-2.2-7.4c-1.5-1.7-3.3-2.5-5.5-2.5c-2.2,0-4.1,0.8-5.5,2.5C1018.2,26.3,1017.5,28.8,1017.5,32.1z"/>
				<path class="st0" d="M1042.7,45.3V19h4v3.7c0.8-1.3,1.9-2.3,3.3-3.1c1.4-0.8,2.9-1.2,4.7-1.2c1.9,0,3.5,0.4,4.8,1.2
					c1.2,0.8,2.1,1.9,2.6,3.4c2.1-3.1,4.8-4.6,8.1-4.6c2.6,0,4.6,0.7,6,2.2s2.1,3.7,2.1,6.7v18h-4.4V28.7c0-1.8-0.1-3.1-0.4-3.8
					c-0.3-0.8-0.8-1.4-1.6-1.9c-0.8-0.5-1.6-0.7-2.7-0.7c-1.8,0-3.4,0.6-4.6,1.8c-1.2,1.2-1.8,3.2-1.8,5.9v15.3h-4.4V28.2
					c0-2-0.4-3.5-1.1-4.4c-0.7-1-1.9-1.5-3.6-1.5c-1.3,0-2.4,0.3-3.5,1c-1.1,0.7-1.8,1.6-2.3,2.9c-0.5,1.3-0.7,3.1-0.7,5.5v13.6
					H1042.7z"/>
				<path class="st0" d="M1102.8,36.8l4.6,0.6c-0.7,2.7-2.1,4.8-4,6.3c-2,1.5-4.5,2.2-7.5,2.2c-3.8,0-6.9-1.2-9.1-3.5
					c-2.2-2.4-3.4-5.7-3.4-9.9c0-4.4,1.1-7.8,3.4-10.3c2.3-2.4,5.2-3.7,8.8-3.7c3.5,0,6.4,1.2,8.6,3.6c2.2,2.4,3.3,5.8,3.3,10.1
					c0,0.3,0,0.7,0,1.2H1088c0.2,2.9,1,5.1,2.4,6.6c1.5,1.5,3.3,2.3,5.5,2.3c1.6,0,3-0.4,4.2-1.3
					C1101.3,40.1,1102.2,38.7,1102.8,36.8z M1088.2,29.6h14.7c-0.2-2.2-0.8-3.9-1.7-5c-1.4-1.7-3.3-2.6-5.5-2.6
					c-2,0-3.8,0.7-5.2,2.1C1089.2,25.5,1088.4,27.3,1088.2,29.6z"/>
				<path class="st0" d="M1113,45.3V19h4v3.7c0.8-1.3,1.9-2.3,3.3-3.1c1.4-0.8,2.9-1.2,4.7-1.2c1.9,0,3.5,0.4,4.8,1.2
					c1.2,0.8,2.1,1.9,2.6,3.4c2.1-3.1,4.8-4.6,8.1-4.6c2.6,0,4.6,0.7,6,2.2s2.1,3.7,2.1,6.7v18h-4.4V28.7c0-1.8-0.1-3.1-0.4-3.8
					c-0.3-0.8-0.8-1.4-1.6-1.9c-0.8-0.5-1.6-0.7-2.7-0.7c-1.8,0-3.4,0.6-4.6,1.8c-1.2,1.2-1.8,3.2-1.8,5.9v15.3h-4.4V28.2
					c0-2-0.4-3.5-1.1-4.4c-0.7-1-1.9-1.5-3.6-1.5c-1.3,0-2.4,0.3-3.5,1c-1.1,0.7-1.8,1.6-2.3,2.9c-0.5,1.3-0.7,3.1-0.7,5.5v13.6
					H1113z"/>
				<path class="st0" d="M1159.3,45.3h-4.1V9h4.4V22c1.9-2.4,4.3-3.5,7.2-3.5c1.6,0,3.1,0.3,4.6,1c1.4,0.7,2.6,1.6,3.6,2.7
					c0.9,1.2,1.7,2.6,2.2,4.3c0.5,1.7,0.8,3.4,0.8,5.3c0,4.5-1.1,8-3.3,10.4s-4.9,3.7-8,3.7c-3.1,0-5.5-1.3-7.3-3.9V45.3z
					 M1159.2,31.9c0,3.1,0.4,5.4,1.3,6.8c1.4,2.3,3.3,3.4,5.7,3.4c1.9,0,3.6-0.8,5-2.5c1.4-1.7,2.1-4.2,2.1-7.6c0-3.4-0.7-6-2-7.6
					c-1.4-1.6-3-2.4-4.9-2.4c-1.9,0-3.6,0.8-5,2.5C1160,26.3,1159.2,28.7,1159.2,31.9z"/>
				<path class="st0" d="M1183.3,45.3V19h4v4c1-1.9,2-3.1,2.8-3.7c0.9-0.6,1.8-0.9,2.9-0.9c1.5,0,3,0.5,4.6,1.4L1196,24
					c-1.1-0.6-2.2-1-3.3-1c-1,0-1.8,0.3-2.6,0.9c-0.8,0.6-1.3,1.4-1.7,2.4c-0.5,1.6-0.7,3.3-0.7,5.2v13.7H1183.3z"/>
				<path class="st0" d="M1217.3,42c-1.6,1.4-3.2,2.4-4.8,3c-1.5,0.6-3.2,0.9-4.9,0.9c-2.9,0-5.1-0.7-6.6-2.1
					c-1.5-1.4-2.3-3.2-2.3-5.4c0-1.3,0.3-2.5,0.9-3.5c0.6-1.1,1.4-1.9,2.3-2.6c0.9-0.6,2-1.1,3.2-1.5c0.9-0.2,2.2-0.5,4-0.7
					c3.6-0.4,6.2-0.9,7.9-1.5c0-0.6,0-1,0-1.2c0-1.8-0.4-3.1-1.3-3.8c-1.1-1-2.8-1.5-5.1-1.5c-2.1,0-3.6,0.4-4.6,1.1
					c-1,0.7-1.7,2-2.2,3.9l-4.3-0.6c0.4-1.9,1-3.4,2-4.5c0.9-1.1,2.2-2,3.9-2.6c1.7-0.6,3.7-0.9,6-0.9c2.2,0,4.1,0.3,5.5,0.8
					c1.4,0.5,2.4,1.2,3.1,2c0.7,0.8,1.1,1.8,1.4,3c0.1,0.8,0.2,2.1,0.2,4.1v5.9c0,4.1,0.1,6.8,0.3,7.8c0.2,1.1,0.6,2.1,1.1,3.2h-4.6
					C1217.8,44.3,1217.5,43.3,1217.3,42z M1217,32.1c-1.6,0.7-4,1.2-7.3,1.7c-1.8,0.3-3.1,0.6-3.9,0.9c-0.8,0.3-1.3,0.8-1.8,1.4
					c-0.4,0.6-0.6,1.3-0.6,2.1c0,1.2,0.4,2.2,1.3,3c0.9,0.8,2.2,1.2,3.9,1.2c1.7,0,3.2-0.4,4.6-1.1c1.3-0.7,2.3-1.8,2.9-3.1
					c0.5-1,0.7-2.5,0.7-4.4V32.1z"/>
				<path class="st0" d="M1228.4,45.3V19h4v3.7c1.9-2.9,4.7-4.3,8.4-4.3c1.6,0,3,0.3,4.4,0.9c1.3,0.6,2.3,1.3,3,2.2
					c0.7,0.9,1.1,2,1.4,3.3c0.2,0.8,0.2,2.3,0.2,4.3v16.1h-4.4v-16c0-1.8-0.2-3.2-0.5-4.1c-0.3-0.9-1-1.6-1.8-2.2
					c-0.9-0.5-1.9-0.8-3.1-0.8c-1.9,0-3.5,0.6-4.9,1.8c-1.4,1.2-2.1,3.5-2.1,6.8v14.3H1228.4z"/>
				<path class="st0" d="M1274.5,36.8l4.6,0.6c-0.7,2.7-2.1,4.8-4,6.3c-2,1.5-4.5,2.2-7.5,2.2c-3.8,0-6.9-1.2-9.1-3.5
					c-2.2-2.4-3.4-5.7-3.4-9.9c0-4.4,1.1-7.8,3.4-10.3c2.3-2.4,5.2-3.7,8.8-3.7c3.5,0,6.4,1.2,8.6,3.6c2.2,2.4,3.3,5.8,3.3,10.1
					c0,0.3,0,0.7,0,1.2h-19.6c0.2,2.9,1,5.1,2.4,6.6c1.5,1.5,3.3,2.3,5.5,2.3c1.6,0,3-0.4,4.2-1.3S1273.8,38.7,1274.5,36.8z
					 M1259.9,29.6h14.7c-0.2-2.2-0.8-3.9-1.7-5c-1.4-1.7-3.3-2.6-5.5-2.6c-2,0-3.8,0.7-5.2,2.1C1260.8,25.5,1260,27.3,1259.9,29.6z"
					/>
				<path class="st0" d="M1302.8,45.3h-4.1V9h4.4V22c1.9-2.4,4.3-3.5,7.2-3.5c1.6,0,3.1,0.3,4.6,1c1.4,0.7,2.6,1.6,3.6,2.7
					c0.9,1.2,1.7,2.6,2.2,4.3c0.5,1.7,0.8,3.4,0.8,5.3c0,4.5-1.1,8-3.3,10.4c-2.2,2.5-4.9,3.7-8,3.7c-3.1,0-5.5-1.3-7.3-3.9V45.3z
					 M1302.8,31.9c0,3.1,0.4,5.4,1.3,6.8c1.4,2.3,3.3,3.4,5.7,3.4c1.9,0,3.6-0.8,5-2.5c1.4-1.7,2.1-4.2,2.1-7.6c0-3.4-0.7-6-2-7.6
					c-1.4-1.6-3-2.4-4.9-2.4c-1.9,0-3.6,0.8-5,2.5C1303.5,26.3,1302.8,28.7,1302.8,31.9z"/>
				<path class="st0" d="M1344,42c-1.6,1.4-3.2,2.4-4.8,3c-1.5,0.6-3.2,0.9-4.9,0.9c-2.9,0-5.1-0.7-6.6-2.1
					c-1.5-1.4-2.3-3.2-2.3-5.4c0-1.3,0.3-2.5,0.9-3.5c0.6-1.1,1.4-1.9,2.3-2.6s2-1.1,3.2-1.5c0.9-0.2,2.2-0.5,4-0.7
					c3.6-0.4,6.2-0.9,7.9-1.5c0-0.6,0-1,0-1.2c0-1.8-0.4-3.1-1.3-3.8c-1.1-1-2.8-1.5-5.1-1.5c-2.1,0-3.6,0.4-4.6,1.1
					c-1,0.7-1.7,2-2.2,3.9l-4.3-0.6c0.4-1.9,1-3.4,2-4.5c0.9-1.1,2.2-2,3.9-2.6c1.7-0.6,3.7-0.9,6-0.9c2.2,0,4.1,0.3,5.5,0.8
					c1.4,0.5,2.4,1.2,3.1,2c0.7,0.8,1.1,1.8,1.4,3c0.1,0.8,0.2,2.1,0.2,4.1v5.9c0,4.1,0.1,6.8,0.3,7.8c0.2,1.1,0.6,2.1,1.1,3.2h-4.6
					C1344.4,44.3,1344.1,43.3,1344,42z M1343.6,32.1c-1.6,0.7-4,1.2-7.3,1.7c-1.8,0.3-3.1,0.6-3.9,0.9c-0.8,0.3-1.3,0.8-1.8,1.4
					c-0.4,0.6-0.6,1.3-0.6,2.1c0,1.2,0.4,2.2,1.3,3c0.9,0.8,2.2,1.2,3.9,1.2c1.7,0,3.2-0.4,4.6-1.1c1.3-0.7,2.3-1.8,2.9-3.1
					c0.5-1,0.7-2.5,0.7-4.4V32.1z"/>
				<path class="st0" d="M1354.2,47.4l4.3,0.6c0.2,1.3,0.7,2.3,1.5,2.9c1.1,0.8,2.6,1.2,4.5,1.2c2.1,0,3.6-0.4,4.8-1.2
					c1.1-0.8,1.9-2,2.3-3.5c0.2-0.9,0.3-2.8,0.3-5.7c-1.9,2.3-4.4,3.4-7.3,3.4c-3.6,0-6.4-1.3-8.4-3.9c-2-2.6-3-5.7-3-9.4
					c0-2.5,0.5-4.8,1.4-6.9c0.9-2.1,2.2-3.8,3.9-4.9c1.7-1.2,3.7-1.7,6.1-1.7c3.1,0,5.7,1.3,7.7,3.8V19h4.1v22.7
					c0,4.1-0.4,7-1.2,8.7c-0.8,1.7-2.2,3.1-4,4c-1.8,1-4,1.5-6.7,1.5c-3.1,0-5.7-0.7-7.6-2.1C1355.1,52.4,1354.2,50.3,1354.2,47.4z
					 M1357.9,31.7c0,3.4,0.7,6,2.1,7.5c1.4,1.6,3.1,2.4,5.1,2.4c2,0,3.8-0.8,5.1-2.4c1.4-1.6,2.1-4,2.1-7.4c0-3.2-0.7-5.6-2.1-7.3
					c-1.4-1.6-3.1-2.4-5.2-2.4c-2,0-3.7,0.8-5,2.4C1358.6,26.1,1357.9,28.5,1357.9,31.7z"/>
			</g>
			<g>
				<path class="st0" d="M947.4,120V83.8h7.2l8.6,25.7c0.8,2.4,1.4,4.2,1.7,5.4c0.4-1.3,1.1-3.3,1.9-5.8l8.7-25.2h6.5V120h-4.6V89.7
					L966.9,120h-4.3l-10.5-30.8V120H947.4z"/>
				<path class="st0" d="M1006.3,116.8c-1.6,1.4-3.2,2.4-4.8,3c-1.5,0.6-3.2,0.9-4.9,0.9c-2.9,0-5.1-0.7-6.6-2.1
					c-1.5-1.4-2.3-3.2-2.3-5.4c0-1.3,0.3-2.5,0.9-3.5c0.6-1.1,1.4-1.9,2.3-2.6c0.9-0.6,2-1.1,3.2-1.5c0.9-0.2,2.2-0.5,4-0.7
					c3.6-0.4,6.2-0.9,7.9-1.5c0-0.6,0-1,0-1.2c0-1.8-0.4-3.1-1.3-3.8c-1.1-1-2.8-1.5-5.1-1.5c-2.1,0-3.6,0.4-4.6,1.1
					c-1,0.7-1.7,2-2.2,3.9l-4.4-0.6c0.4-1.9,1-3.4,2-4.5c0.9-1.1,2.2-2,3.9-2.6c1.7-0.6,3.7-0.9,6-0.9c2.2,0,4.1,0.3,5.5,0.8
					c1.4,0.5,2.4,1.2,3.1,2c0.7,0.8,1.1,1.8,1.4,3c0.1,0.8,0.2,2.1,0.2,4.1v5.9c0,4.1,0.1,6.8,0.3,7.8c0.2,1.1,0.6,2.1,1.1,3.2h-4.6
					C1006.7,119.1,1006.5,118,1006.3,116.8z M1005.9,106.9c-1.6,0.7-4,1.2-7.3,1.7c-1.8,0.3-3.1,0.6-3.9,0.9
					c-0.8,0.3-1.3,0.8-1.8,1.4c-0.4,0.6-0.6,1.3-0.6,2.1c0,1.2,0.4,2.2,1.3,3c0.9,0.8,2.2,1.2,3.9,1.2c1.7,0,3.2-0.4,4.6-1.1
					c1.3-0.7,2.3-1.8,2.9-3.1c0.5-1,0.7-2.5,0.7-4.4V106.9z"/>
				<path class="st0" d="M1017.3,120V93.8h4v3.7c1.9-2.9,4.7-4.3,8.4-4.3c1.6,0,3,0.3,4.4,0.9c1.3,0.6,2.3,1.3,3,2.2
					c0.7,0.9,1.1,2,1.4,3.3c0.2,0.8,0.2,2.3,0.2,4.3V120h-4.4v-16c0-1.8-0.2-3.2-0.5-4.1c-0.3-0.9-1-1.6-1.8-2.2
					c-0.9-0.5-1.9-0.8-3.1-0.8c-1.9,0-3.5,0.6-4.9,1.8c-1.4,1.2-2.1,3.5-2.1,6.8V120H1017.3z"/>
				<path class="st0" d="M1062.7,120v-3.9c-2,3-4.8,4.4-8.3,4.4c-1.5,0-3-0.3-4.3-0.9c-1.3-0.6-2.3-1.3-3-2.2
					c-0.7-0.9-1.1-2-1.4-3.3c-0.2-0.9-0.3-2.3-0.3-4.2V93.8h4.4v14.6c0,2.3,0.1,3.9,0.3,4.7c0.3,1.2,0.9,2.1,1.8,2.8
					c0.9,0.7,2,1,3.4,1c1.3,0,2.6-0.3,3.8-1s2-1.6,2.5-2.8c0.5-1.2,0.7-2.9,0.7-5.1V93.8h4.4V120H1062.7z"/>
				<path class="st0" d="M1090.8,116.8c-1.6,1.4-3.2,2.4-4.8,3c-1.5,0.6-3.2,0.9-4.9,0.9c-2.9,0-5.1-0.7-6.6-2.1
					c-1.5-1.4-2.3-3.2-2.3-5.4c0-1.3,0.3-2.5,0.9-3.5c0.6-1.1,1.4-1.9,2.3-2.6c0.9-0.6,2-1.1,3.2-1.5c0.9-0.2,2.2-0.5,4-0.7
					c3.6-0.4,6.2-0.9,7.9-1.5c0-0.6,0-1,0-1.2c0-1.8-0.4-3.1-1.3-3.8c-1.1-1-2.8-1.5-5.1-1.5c-2.1,0-3.6,0.4-4.6,1.1
					c-1,0.7-1.7,2-2.2,3.9l-4.3-0.6c0.4-1.9,1-3.4,2-4.5c0.9-1.1,2.2-2,3.9-2.6c1.7-0.6,3.7-0.9,6-0.9c2.2,0,4.1,0.3,5.5,0.8
					c1.4,0.5,2.4,1.2,3.1,2c0.7,0.8,1.1,1.8,1.4,3c0.1,0.8,0.2,2.1,0.2,4.1v5.9c0,4.1,0.1,6.8,0.3,7.8c0.2,1.1,0.6,2.1,1.1,3.2h-4.6
					C1091.2,119.1,1090.9,118,1090.8,116.8z M1090.4,106.9c-1.6,0.7-4,1.2-7.3,1.7c-1.8,0.3-3.1,0.6-3.9,0.9s-1.3,0.8-1.8,1.4
					c-0.4,0.6-0.6,1.3-0.6,2.1c0,1.2,0.4,2.2,1.3,3c0.9,0.8,2.2,1.2,3.9,1.2c1.7,0,3.2-0.4,4.6-1.1c1.3-0.7,2.3-1.8,2.9-3.1
					c0.5-1,0.7-2.5,0.7-4.4V106.9z"/>
				<path class="st0" d="M1101.7,120V83.8h4.4V120H1101.7z"/>
				<path class="st0" d="M1127.1,130.1V93.8h4.1v3.4c1-1.3,2-2.3,3.2-3c1.2-0.7,2.7-1,4.4-1c2.2,0,4.2,0.6,5.9,1.7
					c1.7,1.2,3,2.8,3.9,4.9c0.9,2.1,1.3,4.4,1.3,6.9c0,2.7-0.5,5.1-1.4,7.3c-1,2.2-2.4,3.8-4.2,4.9c-1.8,1.1-3.8,1.7-5.8,1.7
					c-1.5,0-2.8-0.3-4-0.9c-1.2-0.6-2.1-1.4-2.9-2.4v12.8H1127.1z M1131.1,107.1c0,3.4,0.7,5.9,2.1,7.5c1.4,1.6,3,2.4,5,2.4
					c2,0,3.7-0.8,5.1-2.5c1.4-1.7,2.1-4.3,2.1-7.8c0-3.3-0.7-5.8-2.1-7.5c-1.4-1.7-3-2.5-4.9-2.5c-1.9,0-3.6,0.9-5,2.7
					C1131.9,101.1,1131.1,103.7,1131.1,107.1z"/>
				<path class="st0" d="M1172.5,120v-3.9c-2,3-4.8,4.4-8.3,4.4c-1.5,0-3-0.3-4.3-0.9c-1.3-0.6-2.3-1.3-3-2.2
					c-0.7-0.9-1.1-2-1.4-3.3c-0.2-0.9-0.3-2.3-0.3-4.2V93.8h4.4v14.6c0,2.3,0.1,3.9,0.3,4.7c0.3,1.2,0.9,2.1,1.8,2.8
					c0.9,0.7,2,1,3.4,1c1.3,0,2.6-0.3,3.8-1s2-1.6,2.5-2.8c0.5-1.2,0.7-2.9,0.7-5.1V93.8h4.4V120H1172.5z"/>
				<path class="st0" d="M1183.4,120V93.8h4v3.7c0.8-1.3,1.9-2.3,3.3-3.1c1.4-0.8,2.9-1.2,4.7-1.2c1.9,0,3.5,0.4,4.8,1.2
					s2.1,1.9,2.6,3.4c2.1-3.1,4.8-4.6,8.1-4.6c2.6,0,4.6,0.7,6,2.2c1.4,1.4,2.1,3.7,2.1,6.7v18h-4.4v-16.5c0-1.8-0.1-3.1-0.4-3.8
					c-0.3-0.8-0.8-1.4-1.6-1.9c-0.8-0.5-1.6-0.7-2.7-0.7c-1.8,0-3.4,0.6-4.6,1.8c-1.2,1.2-1.8,3.2-1.8,5.9V120h-4.4V103
					c0-2-0.4-3.5-1.1-4.4c-0.7-1-1.9-1.5-3.6-1.5c-1.3,0-2.4,0.3-3.5,1c-1.1,0.7-1.8,1.6-2.3,2.9c-0.5,1.3-0.7,3.1-0.7,5.5V120
					H1183.4z"/>
				<path class="st0" d="M1225.6,130.1V93.8h4.1v3.4c1-1.3,2-2.3,3.2-3c1.2-0.7,2.7-1,4.4-1c2.2,0,4.2,0.6,5.9,1.7
					c1.7,1.2,3,2.8,3.9,4.9c0.9,2.1,1.3,4.4,1.3,6.9c0,2.7-0.5,5.1-1.4,7.3c-1,2.2-2.4,3.8-4.2,4.9c-1.8,1.1-3.8,1.7-5.8,1.7
					c-1.5,0-2.8-0.3-4-0.9c-1.2-0.6-2.1-1.4-2.9-2.4v12.8H1225.6z M1229.6,107.1c0,3.4,0.7,5.9,2.1,7.5c1.4,1.6,3,2.4,5,2.4
					c2,0,3.7-0.8,5.1-2.5c1.4-1.7,2.1-4.3,2.1-7.8c0-3.3-0.7-5.8-2.1-7.5c-1.4-1.7-3-2.5-4.9-2.5c-1.9,0-3.6,0.9-5,2.7
					C1230.3,101.1,1229.6,103.7,1229.6,107.1z"/>
			</g>
			<g>
				<path class="st0" d="M947.7,194.2V158h26.2v4.3h-21.4v11.1h20v4.3h-20v12.3h22.2v4.3H947.7z"/>
				<path class="st0" d="M980.7,194.2V158h4.4v36.2H980.7z"/>
				<path class="st0" d="M1010,185.8l4.6,0.6c-0.7,2.7-2.1,4.8-4,6.3c-2,1.5-4.5,2.2-7.5,2.2c-3.8,0-6.9-1.2-9.1-3.5
					s-3.4-5.7-3.4-9.9c0-4.4,1.1-7.8,3.4-10.3s5.2-3.7,8.8-3.7c3.5,0,6.4,1.2,8.6,3.6c2.2,2.4,3.3,5.8,3.3,10.1c0,0.3,0,0.7,0,1.2
					h-19.6c0.2,2.9,1,5.1,2.4,6.6c1.5,1.5,3.3,2.3,5.5,2.3c1.6,0,3-0.4,4.2-1.3C1008.4,189,1009.3,187.7,1010,185.8z M995.4,178.6
					h14.7c-0.2-2.2-0.8-3.9-1.7-5c-1.4-1.7-3.3-2.6-5.5-2.6c-2,0-3.8,0.7-5.2,2.1C996.3,174.5,995.5,176.3,995.4,178.6z"/>
				<path class="st0" d="M1027.5,194.2l-10-26.2h4.7l5.6,15.7c0.6,1.7,1.2,3.5,1.7,5.3c0.4-1.4,0.9-3,1.7-5l5.8-16h4.6l-9.9,26.2
					H1027.5z"/>
				<path class="st0" d="M1062.6,191c-1.6,1.4-3.2,2.4-4.8,3c-1.5,0.6-3.2,0.9-4.9,0.9c-2.9,0-5.1-0.7-6.6-2.1
					c-1.5-1.4-2.3-3.2-2.3-5.4c0-1.3,0.3-2.5,0.9-3.5c0.6-1.1,1.4-1.9,2.3-2.6c0.9-0.6,2-1.1,3.2-1.5c0.9-0.2,2.2-0.5,4-0.7
					c3.6-0.4,6.2-0.9,7.9-1.5c0-0.6,0-1,0-1.2c0-1.8-0.4-3.1-1.3-3.8c-1.1-1-2.8-1.5-5.1-1.5c-2.1,0-3.6,0.4-4.6,1.1
					c-1,0.7-1.7,2-2.2,3.9l-4.3-0.6c0.4-1.9,1-3.4,2-4.5c0.9-1.1,2.2-2,3.9-2.6c1.7-0.6,3.7-0.9,6-0.9c2.2,0,4.1,0.3,5.5,0.8
					c1.4,0.5,2.4,1.2,3.1,2c0.7,0.8,1.1,1.8,1.4,3c0.1,0.8,0.2,2.1,0.2,4.1v5.9c0,4.1,0.1,6.8,0.3,7.8c0.2,1.1,0.6,2.1,1.1,3.2h-4.6
					C1063.1,193.3,1062.8,192.2,1062.6,191z M1062.3,181.1c-1.6,0.7-4,1.2-7.3,1.7c-1.8,0.3-3.1,0.6-3.9,0.9s-1.3,0.8-1.8,1.4
					c-0.4,0.6-0.6,1.3-0.6,2.1c0,1.2,0.4,2.2,1.3,3c0.9,0.8,2.2,1.2,3.9,1.2c1.7,0,3.2-0.4,4.6-1.1c1.3-0.7,2.3-1.8,2.9-3.1
					c0.5-1,0.7-2.5,0.7-4.4V181.1z"/>
				<path class="st0" d="M1083.4,190.2l0.6,3.9c-1.3,0.3-2.4,0.4-3.4,0.4c-1.6,0-2.9-0.3-3.8-0.8c-0.9-0.5-1.5-1.2-1.9-2
					c-0.4-0.8-0.5-2.6-0.5-5.3v-15.1h-3.3V168h3.3v-6.5l4.4-2.7v9.2h4.5v3.5h-4.5v15.3c0,1.3,0.1,2.1,0.2,2.4
					c0.2,0.4,0.4,0.7,0.8,0.9c0.4,0.2,0.9,0.3,1.5,0.3C1081.9,190.4,1082.6,190.4,1083.4,190.2z"/>
				<path class="st0" d="M1105.7,185.8l4.6,0.6c-0.7,2.7-2.1,4.8-4,6.3c-2,1.5-4.5,2.2-7.5,2.2c-3.8,0-6.9-1.2-9.1-3.5
					s-3.4-5.7-3.4-9.9c0-4.4,1.1-7.8,3.4-10.3c2.3-2.4,5.2-3.7,8.8-3.7c3.5,0,6.4,1.2,8.6,3.6c2.2,2.4,3.3,5.8,3.3,10.1
					c0,0.3,0,0.7,0,1.2h-19.6c0.2,2.9,1,5.1,2.4,6.6c1.5,1.5,3.3,2.3,5.5,2.3c1.6,0,3-0.4,4.2-1.3
					C1104.1,189,1105,187.7,1105.7,185.8z M1091.1,178.6h14.7c-0.2-2.2-0.8-3.9-1.7-5c-1.4-1.7-3.3-2.6-5.5-2.6
					c-2,0-3.8,0.7-5.2,2.1C1092,174.5,1091.2,176.3,1091.1,178.6z"/>
				<path class="st0" d="M1132.9,194.2v-3.3c-1.7,2.6-4.1,3.9-7.3,3.9c-2.1,0-4-0.6-5.8-1.7c-1.8-1.2-3.1-2.8-4.1-4.8
					c-1-2.1-1.4-4.4-1.4-7.1c0-2.6,0.4-5,1.3-7.1s2.2-3.8,3.9-4.9c1.7-1.1,3.7-1.7,5.9-1.7c1.6,0,3,0.3,4.2,1c1.2,0.7,2.2,1.5,3,2.6
					v-13h4.4v36.2H1132.9z M1118.8,181.1c0,3.4,0.7,5.9,2.1,7.5c1.4,1.7,3.1,2.5,5,2.5c1.9,0,3.6-0.8,5-2.4c1.4-1.6,2-4,2-7.3
					c0-3.6-0.7-6.2-2.1-7.9c-1.4-1.7-3.1-2.5-5.1-2.5c-2,0-3.6,0.8-5,2.4C1119.5,175.1,1118.8,177.6,1118.8,181.1z"/>
				<path class="st0" d="M1167.8,190.2l0.6,3.9c-1.3,0.3-2.4,0.4-3.4,0.4c-1.6,0-2.9-0.3-3.8-0.8c-0.9-0.5-1.5-1.2-1.9-2
					c-0.4-0.8-0.5-2.6-0.5-5.3v-15.1h-3.3V168h3.3v-6.5l4.4-2.7v9.2h4.5v3.5h-4.5v15.3c0,1.3,0.1,2.1,0.2,2.4
					c0.2,0.4,0.4,0.7,0.8,0.9c0.4,0.2,0.9,0.3,1.5,0.3C1166.3,190.4,1167,190.4,1167.8,190.2z"/>
				<path class="st0" d="M1189.3,191c-1.6,1.4-3.2,2.4-4.8,3c-1.5,0.6-3.2,0.9-4.9,0.9c-2.9,0-5.1-0.7-6.6-2.1
					c-1.5-1.4-2.3-3.2-2.3-5.4c0-1.3,0.3-2.5,0.9-3.5c0.6-1.1,1.4-1.9,2.3-2.6c0.9-0.6,2-1.1,3.2-1.5c0.9-0.2,2.2-0.5,4-0.7
					c3.6-0.4,6.2-0.9,7.9-1.5c0-0.6,0-1,0-1.2c0-1.8-0.4-3.1-1.3-3.8c-1.1-1-2.8-1.5-5.1-1.5c-2.1,0-3.6,0.4-4.6,1.1
					c-1,0.7-1.7,2-2.2,3.9l-4.3-0.6c0.4-1.9,1-3.4,2-4.5c0.9-1.1,2.2-2,3.9-2.6c1.7-0.6,3.7-0.9,6-0.9c2.2,0,4.1,0.3,5.5,0.8
					c1.4,0.5,2.4,1.2,3.1,2c0.7,0.8,1.1,1.8,1.4,3c0.1,0.8,0.2,2.1,0.2,4.1v5.9c0,4.1,0.1,6.8,0.3,7.8c0.2,1.1,0.6,2.1,1.1,3.2h-4.6
					C1189.7,193.3,1189.4,192.2,1189.3,191z M1188.9,181.1c-1.6,0.7-4,1.2-7.3,1.7c-1.8,0.3-3.1,0.6-3.9,0.9s-1.3,0.8-1.8,1.4
					c-0.4,0.6-0.6,1.3-0.6,2.1c0,1.2,0.4,2.2,1.3,3c0.9,0.8,2.2,1.2,3.9,1.2c1.7,0,3.2-0.4,4.6-1.1c1.3-0.7,2.3-1.8,2.9-3.1
					c0.5-1,0.7-2.5,0.7-4.4V181.1z"/>
				<path class="st0" d="M1200.3,194.2V168h4v3.7c1.9-2.9,4.7-4.3,8.4-4.3c1.6,0,3,0.3,4.4,0.9c1.3,0.6,2.3,1.3,3,2.2
					c0.7,0.9,1.1,2,1.4,3.3c0.2,0.8,0.2,2.3,0.2,4.3v16.1h-4.4v-16c0-1.8-0.2-3.2-0.5-4.1s-1-1.6-1.8-2.2c-0.9-0.5-1.9-0.8-3.1-0.8
					c-1.9,0-3.5,0.6-4.9,1.8c-1.4,1.2-2.1,3.5-2.1,6.8v14.3H1200.3z"/>
				<path class="st0" d="M1228.5,194.2V158h4.4v20.7l10.5-10.7h5.8l-10,9.7l11,16.5h-5.5l-8.7-13.4l-3.1,3v10.4H1228.5z"/>
			</g>
			<g>
				<path class="st0" d="M187.2,345.7l13.9-36.2h5.2l14.8,36.2h-5.5l-4.2-11h-15.2l-4,11H187.2z M197.7,330.8H210l-3.8-10
					c-1.2-3-2-5.6-2.6-7.5c-0.5,2.3-1.1,4.6-2,6.9L197.7,330.8z"/>
				<path class="st0" d="M224.4,314.6v-5.1h4.4v5.1H224.4z M224.4,345.7v-26.2h4.4v26.2H224.4z"/>
				<path class="st0" d="M235.6,345.7v-26.2h4v4c1-1.9,2-3.1,2.8-3.7c0.9-0.6,1.8-0.9,2.9-0.9c1.5,0,3,0.5,4.6,1.4l-1.5,4.1
					c-1.1-0.6-2.2-1-3.3-1c-1,0-1.8,0.3-2.6,0.9c-0.8,0.6-1.3,1.4-1.7,2.4c-0.5,1.6-0.7,3.3-0.7,5.2v13.7H235.6z"/>
				<path class="st0" d="M273.9,345.7l-10-26.2h4.7l5.6,15.7c0.6,1.7,1.2,3.5,1.7,5.3c0.4-1.4,0.9-3,1.7-5l5.8-16h4.6l-9.9,26.2
					H273.9z"/>
				<path class="st0" d="M309,342.4c-1.6,1.4-3.2,2.4-4.8,3c-1.5,0.6-3.2,0.9-4.9,0.9c-2.9,0-5.1-0.7-6.6-2.1
					c-1.5-1.4-2.3-3.2-2.3-5.4c0-1.3,0.3-2.5,0.9-3.5s1.4-1.9,2.3-2.6c0.9-0.6,2-1.1,3.2-1.5c0.9-0.2,2.2-0.5,4-0.7
					c3.6-0.4,6.2-0.9,7.9-1.5c0-0.6,0-1,0-1.2c0-1.8-0.4-3.1-1.3-3.8c-1.1-1-2.8-1.5-5.1-1.5c-2.1,0-3.6,0.4-4.6,1.1
					c-1,0.7-1.7,2-2.2,3.9l-4.3-0.6c0.4-1.9,1-3.4,2-4.5c0.9-1.1,2.2-2,3.9-2.6c1.7-0.6,3.7-0.9,6-0.9c2.2,0,4.1,0.3,5.5,0.8
					c1.4,0.5,2.4,1.2,3.1,2c0.7,0.8,1.1,1.8,1.4,3c0.1,0.8,0.2,2.1,0.2,4.1v5.9c0,4.1,0.1,6.8,0.3,7.8c0.2,1.1,0.6,2.1,1.1,3.2h-4.6
					C309.4,344.8,309.1,343.7,309,342.4z M308.6,332.5c-1.6,0.7-4,1.2-7.3,1.7c-1.8,0.3-3.1,0.6-3.9,0.9c-0.8,0.3-1.3,0.8-1.8,1.4
					c-0.4,0.6-0.6,1.3-0.6,2.1c0,1.2,0.4,2.2,1.3,3c0.9,0.8,2.2,1.2,3.9,1.2c1.7,0,3.2-0.4,4.6-1.1c1.3-0.7,2.3-1.8,2.9-3.1
					c0.5-1,0.7-2.5,0.7-4.4V332.5z"/>
				<path class="st0" d="M319.9,345.7v-36.2h4.4v36.2H319.9z"/>
				<path class="st0" d="M338.6,345.7l-10-26.2h4.7l5.6,15.7c0.6,1.7,1.2,3.5,1.7,5.3c0.4-1.4,0.9-3,1.7-5l5.8-16h4.6l-9.9,26.2
					H338.6z"/>
				<path class="st0" d="M374.6,337.2l4.6,0.6c-0.7,2.7-2.1,4.8-4,6.3c-2,1.5-4.5,2.2-7.5,2.2c-3.8,0-6.9-1.2-9.1-3.5
					c-2.2-2.4-3.4-5.7-3.4-9.9c0-4.4,1.1-7.8,3.4-10.3c2.3-2.4,5.2-3.7,8.8-3.7c3.5,0,6.4,1.2,8.6,3.6c2.2,2.4,3.3,5.8,3.3,10.1
					c0,0.3,0,0.7,0,1.2h-19.6c0.2,2.9,1,5.1,2.4,6.6c1.5,1.5,3.3,2.3,5.5,2.3c1.6,0,3-0.4,4.2-1.3
					C373,340.5,373.9,339.1,374.6,337.2z M360,330h14.7c-0.2-2.2-0.8-3.9-1.7-5c-1.4-1.7-3.3-2.6-5.5-2.6c-2,0-3.8,0.7-5.2,2.1
					C360.9,325.9,360.1,327.7,360,330z"/>
			</g>
			<g>
				<path class="st9" d="M135.8,45.7h-6.9V19.6c-2.5,2.4-5.5,4.1-9,5.3v-6.3c1.8-0.6,3.8-1.7,5.9-3.4c2.1-1.7,3.6-3.6,4.4-5.8h5.6
					V45.7z"/>
			</g>
			<g>
				<path class="st9" d="M119.5,336.4l6.9-0.7c0.2,1.6,0.8,2.8,1.8,3.7c1,0.9,2.1,1.4,3.4,1.4c1.4,0,2.7-0.6,3.7-1.8s1.5-3,1.5-5.3
					c0-2.2-0.5-3.9-1.5-5c-1-1.1-2.3-1.7-3.9-1.7c-2,0-3.8,0.9-5.4,2.6l-5.6-0.8l3.6-18.9h18.4v6.5h-13.1l-1.1,6.2
					c1.5-0.8,3.1-1.2,4.7-1.2c3.1,0,5.7,1.1,7.8,3.4c2.1,2.2,3.2,5.1,3.2,8.7c0,3-0.9,5.6-2.6,8c-2.4,3.2-5.6,4.8-9.8,4.8
					c-3.3,0-6.1-0.9-8.2-2.7C121.2,341.8,119.9,339.4,119.5,336.4z"/>
			</g>
			<g>
				<path class="st9" d="M900.3,17.9l-6.7,0.7c-0.2-1.4-0.6-2.4-1.3-3.1c-0.7-0.7-1.6-1-2.7-1c-1.5,0-2.7,0.7-3.7,2
					c-1,1.3-1.7,4.1-1.9,8.2c1.7-2,3.9-3.1,6.5-3.1c2.9,0,5.4,1.1,7.5,3.3c2.1,2.2,3.1,5.1,3.1,8.6c0,3.7-1.1,6.7-3.3,8.9
					c-2.2,2.2-5,3.4-8.4,3.4c-3.7,0-6.7-1.4-9-4.3c-2.4-2.8-3.5-7.5-3.5-14c0-6.6,1.2-11.4,3.7-14.4c2.5-2.9,5.6-4.4,9.6-4.4
					c2.8,0,5,0.8,6.8,2.3C898.7,12.7,899.8,15,900.3,17.9z M884.6,33.1c0,2.3,0.5,4,1.6,5.2c1,1.2,2.2,1.8,3.6,1.8
					c1.3,0,2.4-0.5,3.2-1.5c0.9-1,1.3-2.7,1.3-4.9c0-2.4-0.5-4.1-1.4-5.2c-0.9-1.1-2.1-1.6-3.5-1.6c-1.3,0-2.5,0.5-3.4,1.6
					C885,29.5,884.6,31,884.6,33.1z"/>
			</g>
			<path class="st8" d="M909.2,278.8H867c-2.9,0-5.3-2.4-5.3-5.3v-42.2c0-2.9,2.4-5.3,5.3-5.3h42.2c2.9,0,5.3,2.4,5.3,5.3v42.2
				C914.5,276.5,912.1,278.8,909.2,278.8z"/>
			<path class="st8" d="M909.2,353.6H867c-2.9,0-5.3-2.4-5.3-5.3v-42.2c0-2.9,2.4-5.3,5.3-5.3h42.2c2.9,0,5.3,2.4,5.3,5.3v42.2
				C914.5,351.2,912.1,353.6,909.2,353.6z"/>
			<g>
				<path class="st0" d="M948.8,345.5v-36.2h4.8v36.2H948.8z"/>
				<path class="st0" d="M961.4,345.5v-26.2h4v4c1-1.9,2-3.1,2.8-3.7c0.9-0.6,1.8-0.9,2.9-0.9c1.5,0,3,0.5,4.6,1.4l-1.5,4.1
					c-1.1-0.6-2.2-1-3.3-1c-1,0-1.8,0.3-2.6,0.9c-0.8,0.6-1.3,1.4-1.7,2.4c-0.5,1.6-0.7,3.3-0.7,5.2v13.7H961.4z"/>
				<path class="st0" d="M978.3,345.5v-26.2h4v4c1-1.9,2-3.1,2.8-3.7c0.9-0.6,1.8-0.9,2.9-0.9c1.5,0,3,0.5,4.6,1.4l-1.5,4.1
					c-1.1-0.6-2.2-1-3.3-1c-1,0-1.8,0.3-2.6,0.9c-0.8,0.6-1.3,1.4-1.7,2.4c-0.5,1.6-0.7,3.3-0.7,5.2v13.7H978.3z"/>
				<path class="st0" d="M995.2,314.4v-5.1h4.4v5.1H995.2z M995.2,345.5v-26.2h4.4v26.2H995.2z"/>
				<path class="st0" d="M1005.6,347.7l4.3,0.6c0.2,1.3,0.7,2.3,1.5,2.9c1.1,0.8,2.6,1.2,4.5,1.2c2.1,0,3.6-0.4,4.8-1.2
					c1.1-0.8,1.9-2,2.3-3.5c0.2-0.9,0.3-2.8,0.3-5.7c-1.9,2.3-4.4,3.4-7.3,3.4c-3.6,0-6.4-1.3-8.4-3.9c-2-2.6-3-5.7-3-9.4
					c0-2.5,0.5-4.8,1.4-6.9c0.9-2.1,2.2-3.8,3.9-4.9c1.7-1.2,3.7-1.7,6.1-1.7c3.1,0,5.7,1.3,7.7,3.8v-3.2h4.1V342
					c0,4.1-0.4,7-1.2,8.7c-0.8,1.7-2.2,3.1-4,4c-1.8,1-4,1.5-6.7,1.5c-3.1,0-5.7-0.7-7.6-2.1
					C1006.5,352.7,1005.6,350.5,1005.6,347.7z M1009.3,331.9c0,3.4,0.7,6,2.1,7.5c1.4,1.6,3.1,2.4,5.1,2.4c2,0,3.8-0.8,5.1-2.4
					c1.4-1.6,2.1-4,2.1-7.4c0-3.2-0.7-5.6-2.1-7.3c-1.4-1.6-3.1-2.4-5.2-2.4c-2,0-3.7,0.8-5,2.4
					C1010,326.4,1009.3,328.8,1009.3,331.9z"/>
				<path class="st0" d="M1051.7,342.3c-1.6,1.4-3.2,2.4-4.8,3c-1.5,0.6-3.2,0.9-4.9,0.9c-2.9,0-5.1-0.7-6.6-2.1
					c-1.5-1.4-2.3-3.2-2.3-5.4c0-1.3,0.3-2.5,0.9-3.5c0.6-1.1,1.4-1.9,2.3-2.6c0.9-0.6,2-1.1,3.2-1.5c0.9-0.2,2.2-0.5,4-0.7
					c3.6-0.4,6.2-0.9,7.9-1.5c0-0.6,0-1,0-1.2c0-1.8-0.4-3.1-1.3-3.8c-1.1-1-2.8-1.5-5.1-1.5c-2.1,0-3.6,0.4-4.6,1.1
					c-1,0.7-1.7,2-2.2,3.9l-4.3-0.6c0.4-1.9,1-3.4,2-4.5c0.9-1.1,2.2-2,3.9-2.6c1.7-0.6,3.7-0.9,6-0.9c2.2,0,4.1,0.3,5.5,0.8
					c1.4,0.5,2.4,1.2,3.1,2c0.7,0.8,1.1,1.8,1.4,3c0.1,0.8,0.2,2.1,0.2,4.1v5.9c0,4.1,0.1,6.8,0.3,7.8c0.2,1.1,0.6,2.1,1.1,3.2h-4.6
					C1052.2,344.6,1051.9,343.5,1051.7,342.3z M1051.4,332.4c-1.6,0.7-4,1.2-7.3,1.7c-1.8,0.3-3.1,0.6-3.9,0.9s-1.3,0.8-1.8,1.4
					c-0.4,0.6-0.6,1.3-0.6,2.1c0,1.2,0.4,2.2,1.3,3c0.9,0.8,2.2,1.2,3.9,1.2c1.7,0,3.2-0.4,4.6-1.1c1.3-0.7,2.3-1.8,2.9-3.1
					c0.5-1,0.7-2.5,0.7-4.4V332.4z"/>
				<path class="st0" d="M1072.5,341.6l0.6,3.9c-1.3,0.3-2.4,0.4-3.4,0.4c-1.6,0-2.9-0.3-3.8-0.8c-0.9-0.5-1.5-1.2-1.9-2
					c-0.4-0.8-0.5-2.6-0.5-5.3v-15.1h-3.3v-3.5h3.3v-6.5l4.4-2.7v9.2h4.5v3.5h-4.5v15.3c0,1.3,0.1,2.1,0.2,2.4
					c0.2,0.4,0.4,0.7,0.8,0.9c0.4,0.2,0.9,0.3,1.5,0.3C1071,341.7,1071.7,341.7,1072.5,341.6z"/>
				<path class="st0" d="M1076.9,314.4v-5.1h4.4v5.1H1076.9z M1076.9,345.5v-26.2h4.4v26.2H1076.9z"/>
				<path class="st0" d="M1086.4,332.4c0-4.9,1.4-8.5,4.1-10.8c2.3-1.9,5-2.9,8.3-2.9c3.6,0,6.6,1.2,8.8,3.5
					c2.3,2.4,3.4,5.6,3.4,9.8c0,3.4-0.5,6-1.5,8c-1,1.9-2.5,3.4-4.4,4.5c-1.9,1.1-4,1.6-6.3,1.6c-3.7,0-6.6-1.2-8.9-3.5
					C1087.6,340.2,1086.4,336.8,1086.4,332.4z M1091,332.4c0,3.4,0.7,5.9,2.2,7.6c1.5,1.7,3.3,2.5,5.5,2.5c2.2,0,4-0.8,5.5-2.5
					c1.5-1.7,2.2-4.2,2.2-7.7c0-3.2-0.7-5.7-2.2-7.4c-1.5-1.7-3.3-2.5-5.5-2.5c-2.2,0-4.1,0.8-5.5,2.5
					C1091.7,326.5,1091,329,1091,332.4z"/>
				<path class="st0" d="M1116.2,345.5v-26.2h4v3.7c1.9-2.9,4.7-4.3,8.4-4.3c1.6,0,3,0.3,4.4,0.9c1.3,0.6,2.3,1.3,3,2.2
					c0.7,0.9,1.1,2,1.4,3.3c0.2,0.8,0.2,2.3,0.2,4.3v16.1h-4.4v-16c0-1.8-0.2-3.2-0.5-4.1c-0.3-0.9-1-1.6-1.8-2.2
					c-0.9-0.5-1.9-0.8-3.1-0.8c-1.9,0-3.5,0.6-4.9,1.8c-1.4,1.2-2.1,3.5-2.1,6.8v14.3H1116.2z"/>
				<path class="st0" d="M1158.5,345.5v-36.2h4.4V330l10.5-10.7h5.8l-10,9.7l11,16.5h-5.5l-8.7-13.4l-3.1,3v10.4H1158.5z"/>
				<path class="st0" d="M1183.8,314.4v-5.1h4.4v5.1H1183.8z M1183.8,345.5v-26.2h4.4v26.2H1183.8z"/>
				<path class="st0" d="M1204.7,341.6l0.6,3.9c-1.3,0.3-2.4,0.4-3.4,0.4c-1.6,0-2.9-0.3-3.8-0.8c-0.9-0.5-1.5-1.2-1.9-2
					c-0.4-0.8-0.5-2.6-0.5-5.3v-15.1h-3.3v-3.5h3.3v-6.5l4.4-2.7v9.2h4.5v3.5h-4.5v15.3c0,1.3,0.1,2.1,0.2,2.4
					c0.2,0.4,0.4,0.7,0.8,0.9c0.4,0.2,0.9,0.3,1.5,0.3C1203.3,341.7,1203.9,341.7,1204.7,341.6z"/>
			</g>
			<g>
				<path class="st0" d="M948.1,271.8v-36.2h26.2v4.3h-21.4v11.1h20v4.3h-20v12.3h22.2v4.3H948.1z"/>
				<path class="st0" d="M998.3,262.1l4.4,0.6c-0.5,3-1.7,5.4-3.7,7.1c-2,1.7-4.4,2.6-7.3,2.6c-3.6,0-6.5-1.2-8.7-3.5
					c-2.2-2.3-3.3-5.7-3.3-10.1c0-2.8,0.5-5.3,1.4-7.4c0.9-2.1,2.4-3.7,4.3-4.8c1.9-1.1,4-1.6,6.3-1.6c2.9,0,5.2,0.7,7,2.2
					c1.8,1.4,3,3.5,3.5,6.1l-4.3,0.7c-0.4-1.8-1.1-3.1-2.2-4c-1-0.9-2.3-1.3-3.8-1.3c-2.2,0-4.1,0.8-5.5,2.4s-2.1,4.1-2.1,7.6
					c0,3.5,0.7,6.1,2,7.7c1.4,1.6,3.1,2.4,5.3,2.4c1.7,0,3.2-0.5,4.4-1.6S998,264.4,998.3,262.1z"/>
				<path class="st0" d="M1004.9,258.6c0-4.9,1.4-8.5,4.1-10.8c2.3-1.9,5-2.9,8.3-2.9c3.6,0,6.6,1.2,8.8,3.5
					c2.3,2.4,3.4,5.6,3.4,9.8c0,3.4-0.5,6-1.5,8c-1,1.9-2.5,3.4-4.4,4.5c-1.9,1.1-4,1.6-6.3,1.6c-3.7,0-6.6-1.2-8.9-3.5
					C1006,266.5,1004.9,263.1,1004.9,258.6z M1009.4,258.6c0,3.4,0.7,5.9,2.2,7.6c1.5,1.7,3.3,2.5,5.5,2.5c2.2,0,4-0.8,5.5-2.5
					c1.5-1.7,2.2-4.2,2.2-7.7c0-3.2-0.7-5.7-2.2-7.4c-1.5-1.7-3.3-2.5-5.5-2.5c-2.2,0-4.1,0.8-5.5,2.5S1009.4,255.3,1009.4,258.6z"
					/>
				<path class="st0" d="M1032.9,260.9v-4.5h13.7v4.5H1032.9z"/>
				<path class="st0" d="M1052.6,271.8V249h-3.9v-3.5h3.9v-2.8c0-1.8,0.2-3.1,0.5-3.9c0.4-1.2,1.2-2.1,2.3-2.8
					c1.1-0.7,2.6-1.1,4.5-1.1c1.3,0,2.6,0.1,4.2,0.4l-0.7,3.9c-0.9-0.2-1.8-0.2-2.6-0.2c-1.4,0-2.3,0.3-2.9,0.9
					c-0.6,0.6-0.8,1.7-0.8,3.2v2.4h5.1v3.5h-5.1v22.8H1052.6z"/>
				<path class="st0" d="M1065.5,271.8v-26.2h4v4c1-1.9,2-3.1,2.8-3.7c0.9-0.6,1.8-0.9,2.9-0.9c1.5,0,3,0.5,4.6,1.4l-1.5,4.1
					c-1.1-0.6-2.2-1-3.3-1c-1,0-1.8,0.3-2.6,0.9c-0.8,0.6-1.3,1.4-1.7,2.4c-0.5,1.6-0.7,3.3-0.7,5.2v13.7H1065.5z"/>
				<path class="st0" d="M1082.5,240.6v-5.1h4.4v5.1H1082.5z M1082.5,271.8v-26.2h4.4v26.2H1082.5z"/>
				<path class="st0" d="M1111.7,263.3l4.6,0.6c-0.7,2.7-2.1,4.8-4,6.3c-2,1.5-4.5,2.2-7.5,2.2c-3.8,0-6.9-1.2-9.1-3.5
					c-2.2-2.4-3.4-5.7-3.4-9.9c0-4.4,1.1-7.8,3.4-10.3c2.3-2.4,5.2-3.7,8.8-3.7c3.5,0,6.4,1.2,8.6,3.6c2.2,2.4,3.3,5.8,3.3,10.1
					c0,0.3,0,0.7,0,1.2h-19.6c0.2,2.9,1,5.1,2.4,6.6c1.5,1.5,3.3,2.3,5.5,2.3c1.6,0,3-0.4,4.2-1.3
					C1110.1,266.6,1111,265.2,1111.7,263.3z M1097,256.1h14.7c-0.2-2.2-0.8-3.9-1.7-5c-1.4-1.7-3.3-2.6-5.5-2.6
					c-2,0-3.8,0.7-5.2,2.1C1098,252,1097.2,253.8,1097,256.1z"/>
				<path class="st0" d="M1121.8,271.8v-26.2h4v3.7c1.9-2.9,4.7-4.3,8.4-4.3c1.6,0,3,0.3,4.4,0.9s2.3,1.3,3,2.2
					c0.7,0.9,1.1,2,1.4,3.3c0.2,0.8,0.2,2.3,0.2,4.3v16.1h-4.4v-16c0-1.8-0.2-3.2-0.5-4.1c-0.3-0.9-1-1.6-1.8-2.2
					c-0.9-0.5-1.9-0.8-3.1-0.8c-1.9,0-3.5,0.6-4.9,1.8c-1.4,1.2-2.1,3.5-2.1,6.8v14.3H1121.8z"/>
				<path class="st0" d="M1167,271.8v-3.3c-1.7,2.6-4.1,3.9-7.3,3.9c-2.1,0-4-0.6-5.8-1.7c-1.8-1.2-3.1-2.8-4.1-4.8
					c-1-2.1-1.4-4.4-1.4-7.1c0-2.6,0.4-5,1.3-7.1c0.9-2.1,2.2-3.8,3.9-4.9c1.7-1.1,3.7-1.7,5.9-1.7c1.6,0,3,0.3,4.2,1
					c1.2,0.7,2.2,1.5,3,2.6v-13h4.4v36.2H1167z M1153,258.7c0,3.4,0.7,5.9,2.1,7.5c1.4,1.7,3.1,2.5,5,2.5c1.9,0,3.6-0.8,5-2.4
					c1.4-1.6,2-4,2-7.3c0-3.6-0.7-6.2-2.1-7.9c-1.4-1.7-3.1-2.5-5.1-2.5c-2,0-3.6,0.8-5,2.4C1153.6,252.6,1153,255.2,1153,258.7z"/>
				<path class="st0" d="M1178,271.8v-36.2h4.4v36.2H1178z"/>
				<path class="st0" d="M1189.2,281.9l-0.5-4.2c1,0.3,1.8,0.4,2.5,0.4c1,0,1.8-0.2,2.4-0.5c0.6-0.3,1.1-0.8,1.5-1.4
					c0.3-0.4,0.7-1.5,1.4-3.3c0.1-0.2,0.2-0.6,0.4-1.1l-10-26.3h4.8l5.5,15.2c0.7,1.9,1.3,4,1.9,6.1c0.5-2,1.1-4,1.8-6l5.6-15.3h4.4
					l-10,26.7c-1.1,2.9-1.9,4.9-2.5,6c-0.8,1.5-1.7,2.5-2.7,3.2c-1,0.7-2.2,1-3.7,1C1191.2,282.4,1190.2,282.2,1189.2,281.9z"/>
				<path class="st0" d="M1229.8,271.8V249h-3.9v-3.5h3.9v-2.8c0-1.8,0.2-3.1,0.5-3.9c0.4-1.2,1.2-2.1,2.3-2.8
					c1.1-0.7,2.6-1.1,4.5-1.1c1.3,0,2.6,0.1,4.2,0.4l-0.7,3.9c-0.9-0.2-1.8-0.2-2.6-0.2c-1.4,0-2.3,0.3-2.9,0.9
					c-0.6,0.6-0.8,1.7-0.8,3.2v2.4h5.1v3.5h-5.1v22.8H1229.8z"/>
				<path class="st0" d="M1242.9,240.6v-5.1h4.4v5.1H1242.9z M1242.9,271.8v-26.2h4.4v26.2H1242.9z"/>
				<path class="st0" d="M1254,271.8v-36.2h4.4v36.2H1254z"/>
				<path class="st0" d="M1275,267.8l0.6,3.9c-1.3,0.3-2.4,0.4-3.4,0.4c-1.6,0-2.9-0.3-3.8-0.8s-1.5-1.2-1.9-2
					c-0.4-0.8-0.5-2.6-0.5-5.3V249h-3.3v-3.5h3.3V239l4.4-2.7v9.2h4.5v3.5h-4.5v15.3c0,1.3,0.1,2.1,0.2,2.4c0.2,0.4,0.4,0.7,0.8,0.9
					c0.4,0.2,0.9,0.3,1.5,0.3C1273.6,268,1274.2,267.9,1275,267.8z"/>
				<path class="st0" d="M1297.4,263.3l4.6,0.6c-0.7,2.7-2.1,4.8-4,6.3s-4.5,2.2-7.5,2.2c-3.8,0-6.9-1.2-9.1-3.5
					c-2.2-2.4-3.4-5.7-3.4-9.9c0-4.4,1.1-7.8,3.4-10.3c2.3-2.4,5.2-3.7,8.8-3.7c3.5,0,6.4,1.2,8.6,3.6c2.2,2.4,3.3,5.8,3.3,10.1
					c0,0.3,0,0.7,0,1.2h-19.6c0.2,2.9,1,5.1,2.4,6.6c1.5,1.5,3.3,2.3,5.5,2.3c1.6,0,3-0.4,4.2-1.3S1296.7,265.2,1297.4,263.3z
					 M1282.7,256.1h14.7c-0.2-2.2-0.8-3.9-1.7-5c-1.4-1.7-3.3-2.6-5.5-2.6c-2,0-3.8,0.7-5.2,2.1
					C1283.7,252,1282.9,253.8,1282.7,256.1z"/>
				<path class="st0" d="M1307.5,271.8v-26.2h4v4c1-1.9,2-3.1,2.8-3.7c0.9-0.6,1.8-0.9,2.9-0.9c1.5,0,3,0.5,4.6,1.4l-1.5,4.1
					c-1.1-0.6-2.2-1-3.3-1c-1,0-1.8,0.3-2.6,0.9c-0.8,0.6-1.3,1.4-1.7,2.4c-0.5,1.6-0.7,3.3-0.7,5.2v13.7H1307.5z"/>
			</g>
			<g>
				<path class="st9" d="M875.8,90.7v-6.5h23.8v5c-2,1.9-4,4.7-6,8.3c-2,3.6-3.6,7.4-4.6,11.5c-1.1,4.1-1.6,7.7-1.6,10.9h-6.7
					c0.1-5,1.1-10.1,3.1-15.3c2-5.2,4.6-9.9,7.8-14H875.8z"/>
			</g>
			<g>
				<path class="st9" d="M882.1,174.7c-1.8-0.8-3.1-1.8-3.9-3.1c-0.8-1.3-1.2-2.8-1.2-4.4c0-2.7,0.9-4.9,2.8-6.7
					c1.9-1.8,4.6-2.6,8-2.6c3.4,0,6.1,0.9,8,2.6c1.9,1.8,2.9,4,2.9,6.7c0,1.7-0.4,3.2-1.3,4.5c-0.9,1.3-2.1,2.3-3.7,3
					c2,0.8,3.5,2,4.6,3.5c1,1.5,1.6,3.3,1.6,5.4c0,3.3-1.1,6.1-3.2,8.2c-2.1,2.1-5,3.1-8.5,3.1c-3.3,0-6-0.9-8.2-2.6
					c-2.6-2-3.9-4.8-3.9-8.4c0-2,0.5-3.8,1.5-5.4C878.5,176.8,880,175.6,882.1,174.7z M882.9,183.2c0,1.9,0.5,3.4,1.5,4.5
					c1,1.1,2.2,1.6,3.7,1.6c1.4,0,2.6-0.5,3.6-1.5c0.9-1,1.4-2.5,1.4-4.5c0-1.7-0.5-3.1-1.4-4.1c-1-1-2.2-1.5-3.6-1.5
					c-1.7,0-3,0.6-3.8,1.8C883.3,180.6,882.9,181.8,882.9,183.2z M883.6,167.7c0,1.4,0.4,2.5,1.2,3.2c0.8,0.8,1.8,1.2,3.1,1.2
					c1.3,0,2.4-0.4,3.2-1.2c0.8-0.8,1.2-1.9,1.2-3.2c0-1.3-0.4-2.3-1.2-3.1c-0.8-0.8-1.8-1.2-3.1-1.2c-1.3,0-2.4,0.4-3.2,1.2
					C884,165.3,883.6,166.4,883.6,167.7z"/>
			</g>
			<g>
				<path class="st9" d="M141.5,113.1v6.5h-24.3c0.3-2.4,1.1-4.7,2.4-6.9c1.3-2.2,3.9-5.1,7.8-8.7c3.1-2.9,5.1-4.9,5.8-5.9
					c1-1.4,1.4-2.9,1.4-4.3c0-1.5-0.4-2.7-1.2-3.6c-0.8-0.8-2-1.2-3.4-1.2c-1.5,0-2.6,0.4-3.5,1.3c-0.9,0.9-1.4,2.3-1.5,4.4
					l-6.9-0.7c0.4-3.8,1.7-6.6,3.9-8.2c2.2-1.7,4.9-2.5,8.2-2.5c3.6,0,6.4,1,8.4,2.9c2,1.9,3.1,4.3,3.1,7.2c0,1.6-0.3,3.2-0.9,4.7
					c-0.6,1.5-1.5,3-2.8,4.6c-0.8,1.1-2.4,2.6-4.5,4.6c-2.2,2-3.6,3.3-4.2,4c-0.6,0.7-1.1,1.3-1.4,1.9H141.5z"/>
			</g>
			<g>
				<path class="st9" d="M117.8,184.7l6.7-0.8c0.2,1.7,0.8,3,1.7,3.9c0.9,0.9,2.1,1.4,3.4,1.4c1.4,0,2.6-0.5,3.6-1.6
					c1-1.1,1.5-2.6,1.5-4.4c0-1.7-0.5-3.1-1.4-4.2c-0.9-1-2.1-1.5-3.4-1.5c-0.9,0-2,0.2-3.2,0.5l0.8-5.7c1.9,0,3.3-0.4,4.3-1.2
					s1.5-2,1.5-3.4c0-1.2-0.4-2.2-1.1-2.9c-0.7-0.7-1.7-1.1-2.9-1.1c-1.2,0-2.2,0.4-3,1.2c-0.8,0.8-1.4,2-1.5,3.6l-6.4-1.1
					c0.4-2.2,1.1-3.9,2-5.3c0.9-1.3,2.2-2.3,3.8-3.1c1.6-0.7,3.4-1.1,5.4-1.1c3.4,0,6.1,1.1,8.2,3.3c1.7,1.8,2.5,3.8,2.5,6
					c0,3.2-1.7,5.7-5.2,7.6c2.1,0.4,3.7,1.4,5,3c1.2,1.5,1.9,3.4,1.9,5.6c0,3.2-1.2,5.9-3.5,8.1c-2.3,2.2-5.2,3.4-8.7,3.4
					c-3.3,0-6-0.9-8.2-2.8C119.4,190.2,118.2,187.7,117.8,184.7z"/>
			</g>
			<g>
				<path class="st9" d="M131.7,268.9v-7.3h-14.8v-6.1l15.7-23h5.8v23h4.5v6.1h-4.5v7.3H131.7z M131.7,255.5v-12.4l-8.3,12.4H131.7z
					"/>
			</g>
			<g>
				<path class="st9" d="M876.3,263.4l6.7-0.7c0.2,1.4,0.6,2.4,1.3,3c0.7,0.7,1.6,1,2.7,1c1.4,0,2.7-0.7,3.7-2
					c1-1.3,1.6-4.1,1.9-8.2c-1.7,2-3.9,3-6.5,3c-2.9,0-5.3-1.1-7.4-3.3c-2.1-2.2-3.1-5.1-3.1-8.6c0-3.7,1.1-6.6,3.3-8.9
					c2.2-2.2,5-3.4,8.3-3.4c3.7,0,6.7,1.4,9,4.3c2.4,2.8,3.5,7.5,3.5,14c0,6.6-1.2,11.4-3.7,14.3c-2.5,2.9-5.7,4.4-9.6,4.4
					c-2.8,0-5.1-0.8-6.9-2.3C877.9,268.6,876.8,266.4,876.3,263.4z M892,248.2c0-2.2-0.5-4-1.5-5.2c-1-1.2-2.2-1.9-3.6-1.9
					c-1.3,0-2.4,0.5-3.2,1.5c-0.8,1-1.3,2.7-1.3,5c0,2.3,0.5,4.1,1.4,5.2c0.9,1.1,2.1,1.6,3.5,1.6c1.3,0,2.5-0.5,3.4-1.6
					C891.6,251.8,892,250.2,892,248.2z"/>
			</g>
			<g>
				<path class="st9" d="M881.8,347h-6.9v-26.2c-2.5,2.4-5.5,4.1-9,5.3v-6.3c1.8-0.6,3.8-1.7,5.9-3.4c2.1-1.7,3.6-3.6,4.4-5.8h5.6
					V347z"/>
				<path class="st9" d="M897.4,310.6c3.5,0,6.3,1.3,8.2,3.8c2.4,3,3.5,7.9,3.5,14.8c0,6.9-1.2,11.8-3.6,14.8
					c-2,2.5-4.7,3.7-8.2,3.7c-3.5,0-6.4-1.4-8.5-4.1c-2.2-2.7-3.2-7.5-3.2-14.5c0-6.8,1.2-11.7,3.6-14.7
					C891.1,311.9,893.9,310.6,897.4,310.6z M897.4,316.4c-0.8,0-1.6,0.3-2.2,0.8c-0.7,0.5-1.2,1.5-1.5,2.9c-0.5,1.8-0.7,4.8-0.7,9.1
					c0,4.3,0.2,7.2,0.6,8.8s1,2.6,1.6,3.2c0.7,0.5,1.4,0.8,2.2,0.8c0.8,0,1.6-0.3,2.2-0.8c0.7-0.5,1.2-1.5,1.5-2.9
					c0.5-1.8,0.7-4.8,0.7-9c0-4.3-0.2-7.2-0.6-8.8c-0.4-1.6-1-2.7-1.6-3.2C899,316.7,898.2,316.4,897.4,316.4z"/>
			</g>
		</g>
	</g>
</g>
</svg>
