<svg xmlns="http://www.w3.org/2000/svg" viewBox="0 0 70.02 70.02"><defs><style>.cls-1{fill:#3ebce8;}.cls-2{fill:#fff;}</style></defs><title>Asset 5</title><g id="Layer_2" data-name="Layer 2"><g id="Layer_1-2" data-name="Layer 1"><path class="cls-1" d="M0,35A35,35,0,1,1,35,70,35,35,0,0,1,0,35"/><path class="cls-2" d="M35,27.14c-6.68,0-10.8-1.47-11.29-2.26l.52-1.6c1.61.81,4.73,1.54,10.77,1.54s9.16-.73,10.77-1.54l.51,1.58c-.55.85-4.66,2.29-11.28,2.29M43.53,33A25.32,25.32,0,0,1,35,34.12,25.31,25.31,0,0,1,26.49,33l-.42-4.55a37.35,37.35,0,0,0,8.94,1,37.36,37.36,0,0,0,8.94-1ZM41.82,51.4c-.45.48-2.84,1.32-6.81,1.32s-6.36-.85-6.81-1.32l-.61-6.59a27.48,27.48,0,0,0,7.42.94,27.61,27.61,0,0,0,7.42-.93ZM35,20.16c5,0,8.29.64,9.65,1.16-1.36.53-4.63,1.16-9.65,1.16s-8.29-.64-9.65-1.16C26.72,20.8,30,20.16,35,20.16m13.53,4.29h0L47.42,21c-.3-1.05-2.19-3.14-12.41-3.14S22.9,19.92,22.6,21l-1.13,3.48h0a1.09,1.09,0,0,0-.07.36c0,1.19.91,2.1,2.3,2.78L26,51.67s0,.06,0,.09C26.3,54.95,34.1,55,35,55s8.71-.1,9-3.29a.68.68,0,0,0,0-.09L46.3,27.6c1.39-.68,2.3-1.59,2.3-2.78a1.19,1.19,0,0,0-.07-.36"/></g></g></svg>