<?xml version="1.0" encoding="utf-8"?>
<!-- Generator: Adobe Illustrator 21.0.2, SVG Export Plug-In . SVG Version: 6.00 Build 0)  -->
<svg version="1.1" id="Layer_1" xmlns="http://www.w3.org/2000/svg" xmlns:xlink="http://www.w3.org/1999/xlink" x="0px" y="0px"
	 viewBox="0 0 99.2 100.3" style="enable-background:new 0 0 99.2 100.3;" xml:space="preserve">
<style type="text/css">
	.st0{clip-path:url(#SVGID_2_);fill:#00B5EC;}
</style>
<g>
	<defs>
		<rect id="SVGID_1_" width="99.2" height="100.3"/>
	</defs>
	<clipPath id="SVGID_2_">
		<use xlink:href="#SVGID_1_"  style="overflow:visible;"/>
	</clipPath>
	<path class="st0" d="M81.3,46.6c-1.9,0-3.5,1.6-3.5,3.5c0,15.7-12.7,28.5-28.2,28.5S21.4,65.9,21.4,50.2s12.7-28.5,28.2-28.5
		c1.9,0,3.5-1.6,3.5-3.5c0-2-1.6-3.5-3.5-3.5c-19.4,0-35.2,16-35.2,35.6s15.8,35.6,35.2,35.6s35.2-16,35.2-35.6
		C84.8,48.2,83.3,46.6,81.3,46.6"/>
	<path class="st0" d="M51.9,50.2c0,1.3-1,2.3-2.3,2.3c-1.3,0-2.3-1-2.3-2.3c0-1.3,1-2.3,2.3-2.3C50.9,47.9,51.9,48.9,51.9,50.2
		 M47.8,41L41,30.7c-1.1-1.6-3.2-2.1-4.8-1c-1.6,1.1-2,3.3-1,4.9L42,44.9c-1,1.5-1.6,3.3-1.6,5.2c0,5.2,4.2,9.4,9.3,9.4
		c5.1,0,9.3-4.2,9.3-9.4c0-5.2-4.2-9.4-9.3-9.4C49,40.8,48.4,40.9,47.8,41"/>
	<path class="st0" d="M53.1,93.1v-2.1c0-2-1.6-3.5-3.5-3.5c-1.9,0-3.5,1.6-3.5,3.5v2.1c-20.7-1.7-37.3-18.5-39-39.4h2.1
		c1.9,0,3.5-1.6,3.5-3.5c0-2-1.6-3.5-3.5-3.5H7.1c1.7-20.9,18.3-37.7,39-39.4v2.1c0,1.9,1.6,3.5,3.5,3.5c1.9,0,3.5-1.6,3.5-3.5V7.2
		c20.7,1.7,37.3,18.5,39,39.4H90c-1.9,0-3.5,1.6-3.5,3.5c0,1.9,1.6,3.5,3.5,3.5h2.1C90.4,74.6,73.8,91.4,53.1,93.1 M49.6,0
		C22.3,0,0,22.5,0,50.2s22.3,50.1,49.6,50.1s49.6-22.5,49.6-50.1S77,0,49.6,0"/>
</g>
</svg>
