<svg xmlns="http://www.w3.org/2000/svg" xmlns:xlink="http://www.w3.org/1999/xlink" viewBox="0 0 302.46 202.6"><defs><style>.cls-1{fill:none;}.cls-2{clip-path:url(#clip-path);}.cls-3{fill:#3ebce8;}</style><clipPath id="clip-path" transform="translate(0 0)"><rect class="cls-1" width="302.46" height="202.6"/></clipPath></defs><title>Asset 1</title><g id="Layer_2" data-name="Layer 2"><g id="Layer_1-2" data-name="Layer 1"><g class="cls-2"><path class="cls-3" d="M13.51,195.35v4.75l-5.64.81v-4.67Zm1.59-5.48h23l-23,3.64Zm-2.63-37.31v-1.05H69.1v1.05H12.47ZM15.1,99.08h8.3v16.57H15.1Zm-3.93-6.32V91.34H68.67v1.41H11.17Zm57.49-4.41v1.43H13.34l6.19-3.54H68.67Zm2.45-13.61h14V75a.78.78,0,0,0,.66.76v.17H70.25V74.73ZM65.05,64.39v-.9H82.53v.9H65.05Zm6.86-9.77H83.43l-4.06,1.48a.79.79,0,0,0-.52.74v2.63H78a.79.79,0,0,0-.79.78v1.68H71.91ZM70.25,53v-.78H89.9L87.74,53H70.25ZM91,50.69H71.91v-1H91ZM78,45.31a4.89,4.89,0,0,1-1.36-3.38v-.78a.24.24,0,0,1,.47,0,2.41,2.41,0,0,0,2.06,2.39l2.29.37a.8.8,0,0,0,.64-.18.78.78,0,0,0,.28-.6v-2a.78.78,0,0,0-.32-.63l-1.34-1v-.26a8.36,8.36,0,0,1,1.69-4.69l.34.42a.8.8,0,0,0,.62.3.79.79,0,0,0,.49-.17A.78.78,0,0,0,84,34l-.5-.62a8.28,8.28,0,0,1,1-.79l.7-.46a1.73,1.73,0,0,1,2.38.53.79.79,0,0,0,.67.36h.24a2.35,2.35,0,0,0,1.72-.75.74.74,0,0,1,.74-.22l1.43.38A7,7,0,0,1,96,34.68l.89,1a.42.42,0,0,1,0,.51.43.43,0,0,1-.45.17l-.6-.15A11.69,11.69,0,0,1,91.25,34a.8.8,0,0,0-.93-.06l-1.21.75a1.71,1.71,0,0,0,0,2.92l1.44.9a.91.91,0,0,1,.43.77v2.36a.91.91,0,0,1-.42.77A1.56,1.56,0,0,0,90,44.45l.07.12A2.4,2.4,0,0,1,90.36,46l-.27,2.08H88l-.54-3.38.78-2.4a4.71,4.71,0,0,0-.33-3.68,3.14,3.14,0,0,1-.36-1.77l.22-2.52a.79.79,0,0,0-.72-.85.8.8,0,0,0-.86.71l-.22,2.52a4.68,4.68,0,0,0,.54,2.64,3.16,3.16,0,0,1,.22,2.46l-.84,2.57a.75.75,0,0,0,0,.36l.53,3.32H78.21V45.85a.78.78,0,0,0-.22-.54m69.72-17.5h.35a.79.79,0,0,0,.79-.78V25.64h6.78V27a.79.79,0,0,0,.79.78h.35v4.05L152,30.12a.8.8,0,0,0-.52-.19h-.14a.8.8,0,0,0-.52.19l-3.09,1.12Zm2.76-5.43-3.63-1.61a.8.8,0,0,0-.32-.07h-.68L147.5,19a.78.78,0,0,0,.22-.49l.15-2.33a.78.78,0,0,0-.29-.66l-.75-.61,2.07-3.27a.78.78,0,0,0,.12-.42V9.77a.79.79,0,0,0-.44-.7L144.4,7l.49-.17,3.71,1.35a.81.81,0,0,0,.73-.09.79.79,0,0,0,.34-.64V6.22h1.72a.8.8,0,0,0,.62-.29l3.58-4.36h.91L155.26,3a.8.8,0,0,0-.17.33l-.62,2.61-1.89,3.19a.78.78,0,0,0-.11.4v2.32A5,5,0,0,0,153,14l.32.64a3.11,3.11,0,0,1,.15,2.39L153,18.42a.77.77,0,0,0,0,.62l1.62,3.08a1.6,1.6,0,0,1,.17,1l-.15,1h-3.71v-1a.78.78,0,0,0-.47-.71m79.76,28.31H211.18v-1h19.06ZM214.38,46a2.38,2.38,0,0,1,.28-1.46l.06-.12a1.56,1.56,0,0,0-.53-2.07.91.91,0,0,1-.42-.77V39.25a.91.91,0,0,1,.43-.77l1.44-.9a1.71,1.71,0,0,0,0-2.92l-1.21-.75a.8.8,0,0,0-.93.06,11.71,11.71,0,0,1-4.58,2.28l-.6.15a.43.43,0,0,1-.45-.17.42.42,0,0,1,0-.51l.89-1a7,7,0,0,1,3.56-2.22l1.43-.38a.74.74,0,0,1,.74.22,2.34,2.34,0,0,0,1.72.75h.24a.89.89,0,0,0,.7-.41,1.74,1.74,0,0,1,2.36-.49l.69.46a8.37,8.37,0,0,1,1,.8l-.5.62a.78.78,0,0,0,.13,1.1A.8.8,0,0,0,222,35l.34-.42A8.4,8.4,0,0,1,224,39.28v.26l-1.34,1a.78.78,0,0,0-.32.63v2a.78.78,0,0,0,.28.6.8.8,0,0,0,.64.18l2.29-.37a2.41,2.41,0,0,0,2.06-2.39.23.23,0,0,1,.47,0v.78a4.9,4.9,0,0,1-1.35,3.38.77.77,0,0,0-.22.54v2.27H218.4l.53-3.32a.76.76,0,0,0,0-.36l-.83-2.57a3.16,3.16,0,0,1,.22-2.46,4.68,4.68,0,0,0,.54-2.64l-.22-2.52a.77.77,0,0,0-.86-.71.78.78,0,0,0-.72.85l.22,2.52a3.14,3.14,0,0,1-.36,1.77,4.72,4.72,0,0,0-.33,3.68l.78,2.4-.54,3.38h-2.14Zm17.52,6.23V53H215.34a.75.75,0,0,0-.19,0l-2.27-.82h19Zm-5.17,9.66V60.24a.79.79,0,0,0-.8-.78h-2V56.83a.79.79,0,0,0-.52-.74l-4.06-1.48h10.88v7.31Zm10.37,2.47H221.23v-.9H237.1Zm-5.2,10.34v1.21H216.62v-.17a.78.78,0,0,0,.66-.76v-.29H231.9Zm50.73,11.5,6.19,3.54H233.49V86.23ZM291,92.75H233.49V91.34H291Zm-12.22,6.32h8.3v16.57h-8.3Zm10.92,52.43v1.05H233.05v-1.05h56.63ZM264,189.87h23v3.64Zm30.23,11-5.64-.81v-4.75l5.64.9Zm-191.54-2.48h96.86V201H102.74ZM95.54,201v-9h5.62v9ZM32,197.44l-7.51,1.08v-4.91L32,192.42ZM42.21,196l-8.62,1.24v-5l8.62-1.36ZM15.1,158.84h54V185L58,186.72V168.51a9.24,9.24,0,0,0-18.48,0V188.3H15.1Zm50.11-9.3a.77.77,0,0,0,.15.4h-.15Zm-14.72-4.25H52v4.65H50.49ZM28.06,99.08v1.63a.79.79,0,0,0,.76.78v1.85H25V99.08ZM86.59,80.94h.73v50H84.19a.79.79,0,0,0-.8.78v2.14a.79.79,0,0,0,.8.78h.94v3.51H70.25v-8H83.32a.79.79,0,0,0,.8-.78v-41a.79.79,0,0,0-.8-.78H70.25v-10H85.79v2.64a.79.79,0,0,0,.8.78M231.9,87.56H218.83a.79.79,0,0,0-.79.78v41a.79.79,0,0,0,.79.78H231.9v8H217.28v-3.51h.94a.79.79,0,0,0,.79-.78v-2.14a.79.79,0,0,0-.79-.78h-3.13v-50h.73a.79.79,0,0,0,.79-.78V77.51H231.9Zm45.27,15.78h-3.84v-1.85a.79.79,0,0,0,.76-.78V99.08h3.08Zm-17.64,41.95h1.55v4.65h-1.55Zm-22.59,4.26v.4h-.15a.76.76,0,0,0,.15-.4m50.12,7.73h-54v-3.14h54Zm-24.38,26V168.51a9.24,9.24,0,0,0-18.48,0v18.21L233.05,185V158.84h54V188.3H262.68Zm5.89,13.93L259.94,196V190.8l8.62,1.36Zm9.1,1.31-7.51-1.08v-5l7.51,1.19Zm1.59.23v-4.88l7.81,1.24v4.77Zm-77.94-5V192h5.17v9H201.3Zm-98.56.78h96.86v2.28H102.74Zm-8.15-4.14v-.57h6.57v.57H94.59Zm-46.46-.57h4.53v4.59l-8.86,1.28v-5.18Zm8.24-7.37h-1.5V168.44a6.33,6.33,0,0,0-12.66,0v14.05H41.06v-14a7.66,7.66,0,0,1,15.31,0ZM43.8,170.31h4.12v12.18H43.8Zm9.48-1.57H43.8v-.3a4.74,4.74,0,0,1,9.48,0Zm0,13.75H49.51V170.31h3.77Zm-4.8,5.73H41.06v-4.16H56.38V187Zm13.58.07H58l4-.64Zm7,0H63.65v-.79a.62.62,0,0,0,0-.09l5.47-.87Zm-5.45,1.57H69.1v2.23l-5.45.79Zm-1.59,0v3.24l-7.81,1.13v-4.37Zm10.14-3.81v5.52s0,0,0,.07l-1.53.22V186.3ZM70.69,155.2H85.13v27.22l-14.44,2.29Zm-18-26.75a6.11,6.11,0,0,0-5.19-6h5.85v21.26h-.66ZM40.27,143.72h-.55V122.45H45.6a6.11,6.11,0,0,0-5.19,6v15.26ZM30.51,143h3.23v3.16H30.51Zm4.49-43H29.65v-.85H35Zm29.17,0H58.82v-.85h5.34Zm-4.49,43h3.23v3.16H59.68Zm-1,4.73h5v1.86h-5Zm-5-2.42h3.44v4.28H53.63ZM55,122.45h.8v21.26H55Zm-16-1.57H37.34v-2.63H55.79v2.63H38.93Zm-.8,22.83h-.8V122.46h.8ZM36,146.92v-1.64h3.44v4.28H36Zm-2.89-5.62h-2V104.91h2Zm25.59-36.39V115l-11.89-5.16a.8.8,0,0,0-.64,0l-11.48,5v-9.89Zm4.33-1.57h-3.5v-1.85h3.5Zm-.76,38h-2V104.91h2Zm-5-19.49a.87.87,0,0,0,0-.13v-3.42h1.37v23.07a.78.78,0,0,0-.66.76v1.68a.79.79,0,0,0-.23,0h-.51Zm-21.6-.13v22h-.43v-1.64a.77.77,0,0,0-.58-.74V118.25h1Zm-5.34-20.18h3.5v1.85h-3.5Zm-.93,46.21h5v1.86h-5ZM51.13,130H42v-1.56a4.57,4.57,0,0,1,9.14,0Zm34,11.39H68.3v-1.67H85.13Zm6.64-6.75h1.64v8.6h-6.7v-8.6Zm-3.66-2.14H91v.57H85v-.57Zm.79-51.58H93v50H88.9Zm5.62-5.14v3.57H87.38V75.8Zm.66-1.57H86.77a.72.72,0,0,0,0-.57h8.42Zm120.2,0h-8.17v-.57h8.17a.72.72,0,0,0,0,.57M215,79.37h-7.15V75.8H215Zm-1.52,51.58h-4.1v-50h4.1Zm3,2.14h-5.05v-.57h6v.57Zm-.79,5.3a.76.76,0,0,0,0,1.14v2.09a.76.76,0,0,0,0,1.14v.49H209v-8.6h6.7Zm17,1.36h1.16v1.67H217.28v-1.67Zm4.5-38.24h.29v1.85h-4V99.08h2.91v1.63a.79.79,0,0,0,.79.78m6.14-1.57H238v-.85h5.34Zm29.17,0h-5.34v-.85h5.34Zm-4.09,43h3.23v3.16h-3.23Zm-6.67-14.52a6.11,6.11,0,0,0-5.19-6h5.87v21.26h-.68Zm-12.43,15.26h-.55V122.45h5.85a6.11,6.11,0,0,0-5.19,6v15.26Zm-6.74-40.38h-3.5v-1.85h3.5Zm24.84,1.57v9.89l-11.48-5a.8.8,0,0,0-.64,0L243.4,115V104.91ZM271,141.29h-2V116h0v-11.1h2Zm-8.31,4h3.44v4.28h-3.44ZM264,122.45h.8v21.26H264Zm-16-1.57h-1.62v-2.63h18.45v2.63H248Zm-.79,22.83h-.8V122.46h.8Zm-2.1,3.2v-1.64h3.44v4.28h-3.44Zm-6.56.78h5v1.86h-5Zm.72-4.73h3.23v3.16h-3.23Zm2.57-1.68h-2V104.91h2Zm3-19.49v21.91h-.51a.79.79,0,0,0-.23,0v-1.68a.78.78,0,0,0-.66-.76V118.25h1.37v3.42a.66.66,0,0,0,0,.14m22,20.27v1.64h-.43V118.25h1v23.08a.78.78,0,0,0-.58.74M260.15,130H251v-1.56a4.57,4.57,0,0,1,9.14,0Zm12.52,17.69v1.86h-5V147.7h5Zm-.93-44.37h-3.5v-1.85h3.5Zm-38.47,41.28V143h1.37a.79.79,0,0,0,.79-.78V139a.79.79,0,0,0-.79-.78h-1.16V104.91h4.75v36.43a.78.78,0,0,0-.58.74v4.07a.77.77,0,0,0-.71.72V145.4a.79.79,0,0,0-.79-.78Zm-1,4.09H217v-1.16h2.06a.79.79,0,0,0,.79-.78v-.58h15.49v2.52ZM217,182.42V155.2h14.44v29.51Zm-15.72,7.45h6.08v.57H201.3ZM97.52,150.28h4.61V152a.77.77,0,0,0,.65.75v33.34H102a.79.79,0,0,0-.79.78v1.46H97.52Zm-27.84-4.09H82.53v.58a.79.79,0,0,0,.79.78h1.81v1.16H66.79v-2.52Zm24.53-1.36h1.32V146H84.12v-1.16H94.21Zm.79-3.69H207v2.12H95Zm100.24,11.61H198v33.32h-2.74Zm-26.21,0h2.74v33.32H169Zm-7.37,0h2.75v33.32h-2.75Zm-23.83,0h2.74v33.32h-2.74Zm-7.37,0h2.74v33.32h-2.74Zm-26.1,0h2.74v33.32h-2.74Zm1.58-2.46h1.93v.89h-4.15v-.89Zm23.34.89v-.89h5.23v.89h-5.23Zm12.06,0H136.1v-.89h5.24Zm24.37,0h-5.23v-.89h5.23Zm1.59,0v-.89h5.23v.89H167.3Zm31.45,0h-4.15v-.89h4.15Zm5.79-2.46H203v-3.89h1.57Zm-3.15-3.89v3.89H196.5v-3.89Zm-6.47,0v3.89h-1.57v-3.89Zm-3.15,3.89h-4.88v-3.89h4.88Zm-6.47,0h-1.57v-3.89h1.57Zm-3.15,0h-4.88v-3.89h4.88Zm-6.47,0H174.1v-3.89h1.57Zm-3.15,0h-4.88v-3.89h4.88Zm-6.47,0h-1.57v-3.89H166Zm-3.15-3.89v3.89H158v-3.89Zm-6.47,3.89h-1.57v-3.89h1.57Zm-3.15,0h-4.88v-3.89h4.88Zm-6.47,0h-1.57v-3.89h1.57Zm-3.15-3.89v3.89h-4.88v-3.89Zm-6.47,3.89h-1.57v-3.89h1.57Zm-3.15,0h-4.88v-3.89H134Zm-6.47,0H126v-3.89h1.57Zm-3.15,0h-4.88v-3.89h4.88Zm-6.47,0h-1.57v-3.89h1.57Zm-3.15,0h-4.88v-3.89h4.88Zm-6.47,0h-1.57v-3.89h1.57Zm-8-3.89h4.88v3.89h-4.88Zm-3.15,3.89v-3.89h1.56v3.89ZM114,183h11.84v6.14H114Zm11.84-17.14H114v-1.19a5.92,5.92,0,0,1,11.84,0Zm-5.13,4.3h5.13v11.27h-5.13Zm5.13-1.57H114v-1.16h11.84ZM114,170.18h5.13v11.27H114Zm14,15.87a.79.79,0,0,0-.61.31V164.69a7.51,7.51,0,0,0-15,0v24.47h-2v-2.32a.79.79,0,0,0-.8-.78h-.94V152.73a.79.79,0,0,0,.76-.78v-1.68h18.23V152a.79.79,0,0,0,.8.78h.4v33.31Zm6.75,0V152.74h1.45v33.31Zm10.83-3h11.84v6.14H145.63Zm11.84-17.14H145.63v-1.19a5.92,5.92,0,0,1,11.84,0Zm-5,4.3h5v11.27h-5Zm5-1.57H145.63v-1.16h11.84Zm-11.84,1.57h5.29v11.27h-5.29Zm13.61,15.87a.78.78,0,0,0-.18,0v-3.4a.71.71,0,0,0,0-.9V169.84a.71.71,0,0,0,0-.9v-1.82a.72.72,0,0,0,0-.9v-1.53a7.51,7.51,0,0,0-15,0v21.67a.79.79,0,0,0-.61-.31h-1.26V152.73a.79.79,0,0,0,.76-.78v-1.68h16V152a.79.79,0,0,0,.79.78h.4v33.31Zm6.75,0V152.74h1.45v33.31Zm10.18-3H188v6.14H176.18ZM188,165.88H176.18v-1.19a5.92,5.92,0,0,1,11.85,0Zm-5.13,4.3H188v11.27h-5.13Zm5.13-1.57H176.18v-1.16H188Zm-11.85,1.57h5.13v11.27h-5.13Zm16.65,15.87a.79.79,0,0,0-.79.78v2.32h-2.42V164.69a7.51,7.51,0,0,0-15,0v21.36h-1.23V152.73a.78.78,0,0,0,.76-.78v-1.68H193V152a.77.77,0,0,0,.65.75v33.34Zm8.48,2.25v-1.46a.79.79,0,0,0-.79-.78h-.94V152.73a.79.79,0,0,0,.76-.78v-1.68h4.26v38Zm30.16-34.67H217v-3.35h14.44Zm-13.17-8.81h0a.76.76,0,0,0,0,1.14H206.88v-1.16h11.41Zm-1-1.85h14.4v1.64h-11.8V144a.79.79,0,0,0-.79-.78h-1.8Zm-111.81-62h4.1v50h-4.1Zm5.62-5.14v3.57h-7.15V75.8Zm50.58,0v4.38a.79.79,0,0,0,.79.78h.73v23.44h-3.79V89.12h.38a.79.79,0,0,0,.8-.78V85.45a.79.79,0,0,0-.8-.78h-5.49a2.91,2.91,0,0,0,.56-1.7,3,3,0,0,0-6,0,2.91,2.91,0,0,0,.56,1.7H144a.79.79,0,0,0-.79.78v2.89a.79.79,0,0,0,.79.78h.55v15.26h-4.37l-.1,0V80.94h.73a.79.79,0,0,0,.79-.78V75.77a.77.77,0,0,0,.66-.76V73.45H161V75a.78.78,0,0,0,.66.76m28.87,0v4.38a.79.79,0,0,0,.79.78h.73v23.44H189V89.12h.39a.79.79,0,0,0,.79-.78V85.45a.79.79,0,0,0-.79-.78h-5.49a2.91,2.91,0,0,0,.56-1.7,3,3,0,0,0-6,0,2.9,2.9,0,0,0,.56,1.7h-5.49a.79.79,0,0,0-.8.78v2.89a.79.79,0,0,0,.8.78h.55v15.26h-3.58V80.94h.73a.79.79,0,0,0,.79-.78V75.77a.78.78,0,0,0,.66-.76V73.45h17.22V75a.77.77,0,0,0,.66.76m8.73,3.59h-7.15V75.8h7.15Zm-34.49,1.57h4.1v50h-4.1Zm-30.45,0h4.1v50h-4.1Zm-18.81,25h.14v1.91h-4.52v-1.91Zm12.53-16.83v13.24a5.52,5.52,0,0,0-2.72-1.71A6.62,6.62,0,0,0,127.13,96c0-3.35-2.29-6.08-5.1-6.08h-.11c-2.76.07-5,2.76-5,6.07a6.63,6.63,0,0,0,1.8,4.63,5.51,5.51,0,0,0-2.41,1.43v-13Zm-10.8,16.83h9.86v1.91h-9.86Zm2.23-3.84v2.27h-3a4.49,4.49,0,0,1,3-2.27m1.67-3.88h-.88a.79.79,0,0,0-.79.78v.13a5.23,5.23,0,0,1-1-3.1,4.45,4.45,0,0,1,2.64-4.37Zm2.53,0h-.95v-6.6c1.59.43,2.79,2.25,2.79,4.42a5.2,5.2,0,0,1-1.05,3.21V99a.79.79,0,0,0-.8-.78m.8,3.86a4.41,4.41,0,0,1,3.08,2.29h-3.08Zm-3.41-2.29h1.82v4.58h-1.82Zm11.68,8.06h-4v-1.91h4ZM140,75.8v3.57h-7.15V75.8Zm.66-1.57h-8.47v-.57h8.47Zm4.67,31.72h.14v1.91h-5.31l-.1,0v-2l.1,0Zm12.53-16.83v13.24a5.52,5.52,0,0,0-2.72-1.71A6.62,6.62,0,0,0,156.89,96c0-3.35-2.29-6.08-5.1-6.08h-.11c-2.76.07-5,2.76-5,6.07a6.63,6.63,0,0,0,1.8,4.63,5.45,5.45,0,0,0-2.41,1.42v-13ZM147,105.95h9.86v1.91H147Zm2.23-3.83v2.27h-2.95a4.51,4.51,0,0,1,2.95-2.27m1.67-3.89H150a.79.79,0,0,0-.79.78v.13a5.23,5.23,0,0,1-1-3.1,4.45,4.45,0,0,1,2.64-4.37Zm2.53,0h-.95v-6.6c1.59.43,2.79,2.25,2.79,4.42a5.19,5.19,0,0,1-1.05,3.21V99a.79.79,0,0,0-.8-.78m.8,3.86a4.41,4.41,0,0,1,3.08,2.29h-3.08Zm-3.41-2.29h1.82v4.58h-1.82Zm12.36,8.06h-4.72v-1.91h4.72Zm7.21-32.06v3.57h-7.15V75.8Zm.66-1.57H162.6v-.57h8.47Zm3.78,31.72H175v1.91h-4.51v-1.91Zm12.53-16.83v13.27a5.57,5.57,0,0,0-2.72-1.73A6.63,6.63,0,0,0,186.44,96c0-3.35-2.29-6.08-5.1-6.08h-.1c-2.76.07-5,2.76-5,6.07a6.63,6.63,0,0,0,1.8,4.63,5.49,5.49,0,0,0-2.41,1.43v-13Zm-10.8,16.83h9.87v1.91h-9.87Zm2.23-3.84v2.27h-2.95a4.52,4.52,0,0,1,2.95-2.27m1.67-3.88h-.88a.79.79,0,0,0-.79.78v.13a5.23,5.23,0,0,1-1-3.1,4.46,4.46,0,0,1,2.64-4.37Zm2.53,0h-.95v-6.6c1.59.43,2.79,2.25,2.79,4.42a5.18,5.18,0,0,1-1.05,3.21V99a.79.79,0,0,0-.79-.78m.79,3.86a4.37,4.37,0,0,1,3.08,2.29H183.8Zm-3.41-2.29h1.82v4.58h-1.82Zm11.68,8.06h-4v-1.91h4Zm7.87-33.63h-8.47v-.57h8.47ZM180,83a1.4,1.4,0,1,1,1.4,1.38A1.39,1.39,0,0,1,180,83m-5.72,4.59V86.23h14.25v1.32H174.3ZM150.48,83a1.4,1.4,0,1,1,1.4,1.38,1.39,1.39,0,0,1-1.4-1.38m-5.73,4.59V86.23H159v1.32H144.75Zm-24-4.59a1.4,1.4,0,1,1,1.4,1.38,1.39,1.39,0,0,1-1.4-1.38M115,87.56V86.23h14.25v1.32H115Zm-3.23-13.32h-8.47v-.57h8.47ZM122.5,125.8H128v5.15H122.5Zm-7-7a6.27,6.27,0,0,1,12.41,0Zm7,1.57H128v3.9H122.5Zm-7.06,0h5.47v3.9h-5.47Zm0,5.47h5.47v5.15h-5.47Zm14.11,5.15v-11.4a7.85,7.85,0,0,0-15.7,0v11.4h-2.7V109.43h21.6v21.52Zm22.71-5.15h5.47v5.15h-5.47Zm-7-7a6.27,6.27,0,0,1,12.41,0Zm7,1.57h5.47v3.9h-5.47Zm-7.06,0h5.47v3.9H145.2Zm0,5.47h5.47v5.15H145.2Zm14.11,5.15v-11.4a7.85,7.85,0,0,0-15.7,0v11.4H140V109.41l.1,0H163.2v21.52Zm22.5-5.15h5.47v5.15h-5.47Zm-7-7a6.27,6.27,0,0,1,12.41,0Zm7,1.57h5.47v3.9h-5.47Zm-7.05,0h5.47v3.9h-5.47Zm0,5.47h5.47v5.15h-5.47Zm14.11,5.15v-11.4a7.85,7.85,0,0,0-15.7,0v11.4h-2.69V109.43h21.59v21.52Zm8.89,0h-4.1v-50h4.1ZM130.57,73.45V75a.77.77,0,0,0,.66.76v4.38a.79.79,0,0,0,.79.78h.73v23.44h-3.11V89.12H130a.79.79,0,0,0,.8-.78V85.45a.79.79,0,0,0-.8-.78h-5.49a2.9,2.9,0,0,0,.56-1.7,3,3,0,0,0-6,0,2.91,2.91,0,0,0,.56,1.7h-5.49a.79.79,0,0,0-.79.78v2.89a.79.79,0,0,0,.79.78h.55v15.26h-3.58V80.94h.73a.79.79,0,0,0,.79-.78V75.78a.78.78,0,0,0,.66-.76V73.45Zm-38,59.06H208.81v.57H92.57ZM85.13,143v.28H83.32a.79.79,0,0,0-.79.78v.58H70.47V143Zm-14.44,7.3H85.13v3.35H70.69Zm16,33.48,4.26-.68v5.19a.77.77,0,0,0,.34.63l-4.6.66Zm-5.12.81v5.65a.69.69,0,0,0,0,.07l-7.82,1.13v-5.62Zm1.59,5.5v-5.75l1.95-.31v5.78Zm10.61-1.77a.78.78,0,0,0-.63.33l-.78.11a.77.77,0,0,0,.18-.47v-5.44l3.37-.53v6ZM110.44,193v-2.29h16.21a.78.78,0,0,0,.61-.31V193Zm33.79,0v-2.59a.78.78,0,0,0,.61.31h13.43a.78.78,0,0,0,.18,0V193Zm31.19,0v-2.28H192V193Zm33.37-4.4a.78.78,0,0,0-.61-.3h-2v-6l9.26,1.47v5.8Zm22.68,3.26L217,189.79V184l14.44,2.29Zm7-4.36v.79h-5.45v-1.75l5.47.87a.61.61,0,0,0,0,.09m1.59.79v-.64l4,.64Zm5.69-4.24h15.31v4.16h-7.42L245.78,187Zm8.45-13.75h4.12v12.18h-4.12Zm4.12-1.57h-9.49v-.3a4.74,4.74,0,0,1,9.49,0Zm-9.49,1.57h3.77v12.18h-3.77Zm12.22,12.18h-1.15V168.44a6.33,6.33,0,0,0-12.66,0v14.05h-1.5v-14a7.65,7.65,0,0,1,15.31,0Zm-21,7.37h7.81v4.37l-7.81-1.12Zm-7,0h5.45v3l-5.45-.79Zm16.44,4.59v-4.59H254l4.33.69v5.18Zm3-50.75H251V131.58h3.78v12.14Zm6.28,0h-2.36V131.58h3.77v12.14Zm6.83-44.64v1.63a.79.79,0,0,0,.79.78h.29v1.85H244.16v-1.85a.79.79,0,0,0,.76-.78V99.08ZM85.92,71H219.65v.9H84.12V71Zm130.69-1.57H196.5V66h20.11ZM86.72,66h20v3.46h-20Zm-18,33.12v4.26h-4v-1.85H65a.79.79,0,0,0,.79-.78V99.08Zm-11.43,0v1.63a.79.79,0,0,0,.76.78v1.85H35.5v-1.85h.29a.79.79,0,0,0,.8-.78V99.08ZM43.41,143.72H42V131.58h3.78v12.14Zm6.28,0H47.36V131.58h3.77v12.14ZM65.2,145.4v1.47a.77.77,0,0,0-.71-.72v-4.07a.78.78,0,0,0-.58-.74V104.91h4.76v33.26H67.51a.79.79,0,0,0-.8.78v3.24a.79.79,0,0,0,.8.78h1.37v1.64H66a.79.79,0,0,0-.8.78m184.91,4.54v-4.65h1.55v4.65Zm3.14-4.65h1.55v4.65h-1.55Zm3.14,0h1.55v4.65h-1.55Zm32.64-.05H277.46v-.64H289Zm-2,4.71h-8.3V146.8h8.3Zm-10.39-34.29a.79.79,0,0,0-.79.78v2.09a.79.79,0,0,0,.79.78h.51V143h-.51a.79.79,0,0,0-.79.78V146a.79.79,0,0,0,.79.78h.51v3.14h-2.91v-3a.79.79,0,0,0-.79-.78h-.23v-4.06a.78.78,0,0,0-.66-.76V104.91h4.6v10.74Zm11.18,1.57h.52v.52H277.46v-.52Zm.52-19.7H233.49V94.32h54.88ZM230.24,73.16H221a.77.77,0,0,0,.19-.5V70.2a.79.79,0,0,0-.79-.78H218.2V66h12ZM84.12,63.49H219.65v.9H84.12ZM81.59,61H225.14v.9H78.78V61Zm130-1.57L151.9,36.83a.8.8,0,0,0-.56,0L89,59.45H86l65.6-24,63.35,24ZM88.11,54.61a.8.8,0,0,0,.57-.24l8.37-3h0a.78.78,0,0,0,.49-.18L110,46.62a.77.77,0,0,0,.39-.14l6.21-2.26h0a.79.79,0,0,0,.49-.18l12.31-4.47h0a.79.79,0,0,0,.55-.22l21.38-7.77,71,25.79v2.08h-3.13a.77.77,0,0,0-.24-.15L151.9,33.84a.81.81,0,0,0-.56,0L81.45,59.45h-1V57.37L88,54.61ZM71.91,66H85.13v3.46H83.32a.79.79,0,0,0-.79.78v2.47a.77.77,0,0,0,.19.5H71.91ZM14.31,97.51h-.52V94.32H68.67v3.19H14.31Zm0,20.22h-.52v-.52H24.69v.52ZM25,146.8h.51a.79.79,0,0,0,.79-.78v-2.21a.79.79,0,0,0-.79-.78H25V119.3h.51a.79.79,0,0,0,.79-.78v-2.09a.79.79,0,0,0-.79-.78H25V104.91h4.6v36.41a.78.78,0,0,0-.66.76v4.06h-.23a.79.79,0,0,0-.79.78v3H25Zm-.29-1.57H13.12v-.64H24.69Zm-9.6,1.57h8.3v3.14H15.1Zm26,3.14v-4.65h1.55v4.65Zm3.14-4.65h1.55v4.65H44.21Zm3.14,0H48.9v4.65H47.35Zm21.75,12h-54v-3.14h54ZM22.91,193.86v4.88l-7.81,1.13V195.1ZM301.67,201h-5.8v-5.4a.79.79,0,0,0-.67-.78l-6.6-1a.78.78,0,0,0,0-.22V154.13h1.83a.79.79,0,0,0,.8-.78v-2.62a.79.79,0,0,0-.8-.78h-1.83v-3.11h1.18a.79.79,0,0,0,.79-.78v-2.49a.79.79,0,0,0-.79-.78h-1.18V119.3h.52a.79.79,0,0,0,.79-.78v-2.09a.79.79,0,0,0-.79-.78h-.52V99.08h.52a.79.79,0,0,0,.79-.78v-4h1.82a.79.79,0,0,0,.79-.78V86.89a.79.79,0,0,0-1.59,0v2.3L283.71,85V80.15a.79.79,0,0,0-1.59,0v4.51H233.49V73.95a.79.79,0,0,0-.79-.78h-.87V66h6.07a.79.79,0,0,0,.8-.78V62.7a.79.79,0,0,0-.8-.78h-6.07V54.61h.87a.79.79,0,0,0,.79-.78V51.48a.79.79,0,0,0-.79-.78h-.87V48.9a.79.79,0,0,0-.79-.78h-2.91v-2a6.44,6.44,0,0,0,1.57-4.22v-.78a1.82,1.82,0,0,0-3.64,0,.85.85,0,0,1-.73.84l-1.37.22v-.66l1.36-1a.78.78,0,0,0,.32-.66l0-.67a9.94,9.94,0,0,0-2.26-5.88l1.41-1.75a.78.78,0,0,0-.13-1.1.8.8,0,0,0-1.11.12l-1.27,1.58a10.16,10.16,0,0,0-1.11-.87l-.69-.46a3.29,3.29,0,0,0-4.33.62.75.75,0,0,1-.4-.23,2.34,2.34,0,0,0-2.32-.68l-1.43.38a8.59,8.59,0,0,0-4.37,2.72l-.9,1a2,2,0,0,0-.13,2.41,2,2,0,0,0,2.14.8l.6-.15a13.3,13.3,0,0,0,4.75-2.24l.74.46a.15.15,0,0,1,.08.13.15.15,0,0,1-.07.13l-1.44.9a2.46,2.46,0,0,0-1.17,2.1v2.36a2.48,2.48,0,0,0,1.15,2.09l-.06.12a3.94,3.94,0,0,0-.46,2.41l.24,1.88h-2.67a.79.79,0,0,0-.8.78v2.16l-2.51-.91v-2.9a.79.79,0,0,0-1.59,0v2.32l-5-1.81V44.67a.79.79,0,0,0-1.59,0v2.51l-4.75-1.73V42.54a.79.79,0,0,0-1.59,0v2.34L187.5,43v-2.9a.79.79,0,0,0-1.59,0v2.32l-4.83-1.75V37.57a.79.79,0,0,0-1.59,0v2.56l-4.83-1.76V35.48a.79.79,0,0,0-1.59,0v2.31L168.25,36V32.92a.79.79,0,0,0-1.59,0v2.54l-4.91-1.78v-3a.79.79,0,0,0-1.59,0V33.1l-1.82-.66s0,0,0-.07V27a.79.79,0,0,0-.8-.78h-.35V24.86a.79.79,0,0,0-.79-.78h-.17l.11-.74A3.13,3.13,0,0,0,156,21.4l-1.46-2.78.36-1a4.68,4.68,0,0,0-.22-3.59l-.32-.64a3.4,3.4,0,0,1-.35-1.49V9.74l1.84-3.1a.76.76,0,0,0,.09-.22l.61-2.54,2.23-2.59a.77.77,0,0,0,.12-.84.79.79,0,0,0-.72-.46h-3a.8.8,0,0,0-.62.29L151,4.66h-2.14a.79.79,0,0,0-.79.78v.88l-2.91-1.06a.8.8,0,0,0-.54,0l-2.52.88A.78.78,0,0,0,142,7.59l5.41,2.67V11l-2,3.2a1.39,1.39,0,0,0,.3,1.82l.55.45-.11,1.64-2.72,2.84a.78.78,0,0,0-.15.85.79.79,0,0,0,.73.47h2.35l3,1.33v.47h-1.29a.79.79,0,0,0-.79.78v1.38h-.35a.79.79,0,0,0-.79.78v4.8l-3,1.07V30.72a.79.79,0,0,0-1.59,0v2.76l-4.91,1.79V32.92a.79.79,0,0,0-1.59,0v2.92l-4.83,1.76V35.48a.79.79,0,0,0-1.59,0v2.69l-4.83,1.75V37.57a.79.79,0,0,0-1.59,0V40.5l-4.83,1.76V40.14a.79.79,0,0,0-1.59,0v2.7l-5.07,1.84V42.54a.79.79,0,0,0-1.59,0v2.71L104.42,47V44.67a.79.79,0,0,0-1.59,0v2.88l-5,1.82V47.25a.79.79,0,0,0-1.59,0V50l-3.69,1.34V48.9a.79.79,0,0,0-.8-.78H91.7l.24-1.88a3.9,3.9,0,0,0-.46-2.41l-.07-.12a2.47,2.47,0,0,0,1.15-2.09V39.25a2.46,2.46,0,0,0-1.17-2.1L90,36.26A.16.16,0,0,1,90,36l.74-.46a13.32,13.32,0,0,0,4.75,2.24l.6.15a2,2,0,0,0,2.14-.8,2,2,0,0,0-.13-2.41l-.89-1a8.6,8.6,0,0,0-4.37-2.72l-1.44-.38a2.34,2.34,0,0,0-2.31.68.75.75,0,0,1-.4.22,3.3,3.3,0,0,0-4.33-.61l-.69.46a9.67,9.67,0,0,0-1.11.87L81.24,30.6a.8.8,0,0,0-1.11-.12.78.78,0,0,0-.13,1.1l1.41,1.75a9.94,9.94,0,0,0-2.26,5.88l0,.68a.78.78,0,0,0,.32.66l1.36,1v.66L79.42,42a.85.85,0,0,1-.72-.84,1.82,1.82,0,0,0-3.65,0v.78a6.44,6.44,0,0,0,1.57,4.22v2h-5.5a.79.79,0,0,0-.79.78v1.79h-.87a.79.79,0,0,0-.79.78v2.35a.79.79,0,0,0,.79.78h.87v7.31H64.26a.79.79,0,0,0-.79.78v2.47a.79.79,0,0,0,.79.78h6.07v7.21h-.87a.79.79,0,0,0-.79.78V84.67H20V80.15a.79.79,0,0,0-1.59,0V85L11.17,89.2v-2.3a.79.79,0,0,0-1.59,0v6.64a.79.79,0,0,0,.8.78H12.2v4a.79.79,0,0,0,.79.78h.52v16.57H13a.79.79,0,0,0-.79.78v2.09a.79.79,0,0,0,.79.78h.52v23.47H12.33a.79.79,0,0,0-.79.78V146a.79.79,0,0,0,.79.78h1.18v3.11H11.68a.79.79,0,0,0-.79.78v2.62a.79.79,0,0,0,.79.78h1.83v39.41a.74.74,0,0,0,0,.21l-6.61,1a.79.79,0,0,0-.67.78V201H.79a.78.78,0,1,0,0,1.57h6a.78.78,0,0,0,.28.05h288a.79.79,0,0,0,.28-.05h6.31a.78.78,0,1,0,0-1.57" transform="translate(0 0)"/><path class="cls-3" d="M152.25,21.5a.8.8,0,0,0,.48-.16.78.78,0,0,0,.15-1.1,30.53,30.53,0,0,1-2.63-5.57.8.8,0,0,0-1-.46.78.78,0,0,0-.47,1,32.8,32.8,0,0,0,2.86,6,.8.8,0,0,0,.63.31" transform="translate(0 0)"/></g></g></g></svg>