<?xml version="1.0" encoding="utf-8"?>
<!-- Generator: Adobe Illustrator 21.0.2, SVG Export Plug-In . SVG Version: 6.00 Build 0)  -->
<svg version="1.1" id="Layer_1" xmlns="http://www.w3.org/2000/svg" xmlns:xlink="http://www.w3.org/1999/xlink" x="0px" y="0px"
	 viewBox="0 0 55.2 54.9" style="enable-background:new 0 0 55.2 54.9;" xml:space="preserve">
<style type="text/css">
	.st0{clip-path:url(#SVGID_2_);fill:#00B5EC;}
</style>
<g>
	<defs>
		<rect id="SVGID_1_" x="0.1" y="2.9" width="55" height="49.1"/>
	</defs>
	<clipPath id="SVGID_2_">
		<use xlink:href="#SVGID_1_"  style="overflow:visible;"/>
	</clipPath>
	<path class="st0" d="M27.6,8.2c0.7-0.6,1.4-1.3,2.2-1.9c3.2-2.5,6.9-3.6,10.9-3.2c7,0.6,12.8,5.9,14.1,13c1,5.6-0.4,10.5-4.3,14.6
		c-6.5,6.7-13,13.4-19.6,20.1c-1.7,1.8-4.8,1.8-6.5,0c-6.5-6.7-13-13.3-19.6-20c-3.4-3.5-5-7.7-4.6-12.5C0.7,11.5,3.9,6.7,9.9,4.2
		c5.5-2.3,10.8-1.5,15.7,2.2C26.3,7,26.9,7.6,27.6,8.2"/>
</g>
</svg>
