<?xml version="1.0" encoding="utf-8"?>
<!-- Generator: Adobe Illustrator 21.0.2, SVG Export Plug-In . SVG Version: 6.00 Build 0)  -->
<svg version="1.1" id="Layer_1" xmlns="http://www.w3.org/2000/svg" xmlns:xlink="http://www.w3.org/1999/xlink" x="0px" y="0px"
	 viewBox="0 0 55.2 54.9" style="enable-background:new 0 0 55.2 54.9;" xml:space="preserve">
<style type="text/css">
	.st0{clip-path:url(#SVGID_2_);fill:#00B5EC;}
</style>
<g>
	<defs>
		<rect id="SVGID_1_" y="4.9" width="54.9" height="46.1"/>
	</defs>
	<clipPath id="SVGID_2_">
		<use xlink:href="#SVGID_1_"  style="overflow:visible;"/>
	</clipPath>
	<path class="st0" d="M42.3,27.4c-1.7,1-2.1,3.3-0.6,4.9c1.3,1.4,2.7,2.9,4.1,4.3c0.3,0.3,0.7,0.6,1.1,0.6c1.1,0.3,2.4-0.1,3.2-1.5
		c0.7-1.2,0.6-2.5-0.4-3.5c-1.3-1.4-2.6-2.9-4-4.3c-0.6-0.6-1.2-0.9-2.2-0.9C43.3,27,42.8,27.2,42.3,27.4 M33.8,47.5
		c-0.1-0.8-0.5-1.4-1-1.9c-1.7-1.7-3.3-3.4-5-5.1c-0.8-0.8-1.7-1-2.7-0.9c-1.5,0.3-2.6,1.8-2.4,3.4c0.1,0.8,0.5,1.4,1,1.9
		c1.6,1.7,3.2,3.4,4.9,5c0.6,0.6,1.4,1,1.9,1C32.7,51,34.1,49.3,33.8,47.5 M39.3,42c-1.5-1.5-2.9-3-4.4-4.5
		c-1.2-1.3-2.5-2.6-3.7-3.9c-0.9-1-2.3-1.2-3.5-0.7c-1.1,0.6-1.9,1.9-1.7,3.2c0.1,0.8,0.4,1.4,0.9,1.9c2.6,2.7,5.3,5.4,7.9,8.1
		c0.6,0.6,1.2,1,1.9,1.2c0.2,0.1,0.4,0,0.6,0c0.1,0,0.3-0.1,0.4-0.1c1.3-0.3,2.3-1.6,2.3-3C40.2,43.3,39.9,42.6,39.3,42 M45.2,37.5
		c-2.8-2.8-5.5-5.6-8.3-8.4c-0.8-0.8-1.7-1-2.7-0.8c-1.2,0.3-1.9,1-2.2,2.2c-0.3,1.1,0,2.1,0.8,3c2.5,2.6,5.1,5.3,7.6,7.9
		c0.4,0.4,0.8,0.8,1.2,1.1c1,0.8,2.1,0.8,3.2,0.2c1.1-0.5,1.5-1.6,1.6-2.6C46.4,38.9,45.9,38.1,45.2,37.5 M4.3,41.7
		c0-0.8,0-1.5,0-2.3c0.1-0.9-0.2-1.7-0.7-2.4c-0.8-1-1-2.2-0.8-3.5c0.2-1,0.7-1.8,1.4-2.6c4.2-4.4,8.5-8.7,12.7-13.1
		c0.2-0.2,0.5-0.4,0.8-0.5c1.8-0.7,3.6-1.4,5.4-2.2c0.5-0.2,0.9-0.2,1.4,0c0.6,0.3,1.3,0.7,2,0.9c1.9,0.7,3.8,1.3,5.8,1.1
		c0.8-0.1,1.6-0.2,2.4-0.6c0.7-0.4,0.8-1.1,0.2-1.6c-3.7-3-7.3-5.9-11-8.9c-0.3-0.2-0.6-0.4-0.9-0.4c-1.1-0.1-2.1-0.2-3.2-0.3
		c-1.5-0.1-3.1-0.2-4.6-0.4c-0.8-0.1-1.4,0.1-2,0.6C10.4,7.7,7.6,9.8,4.9,12c-0.1,0.1-0.2,0.2-0.4,0.3c0-0.2,0-0.3-0.1-0.4
		c-0.2-1.2-0.9-2.2-2.1-2.4C1.6,9.4,0.8,9.4,0,9.4v32.7h4.3C4.3,42,4.3,41.8,4.3,41.7 M48.6,11.9c0.2-0.8,0.5-1.5,1.2-2
		c0.5-0.4,1.2-0.6,1.8-0.6c1,0,2,0,3.1,0h0.3v0.4V42c0,0.6-0.2,0.8-0.8,0.8c-1.1,0-2.2,0-3.3,0c-0.4,0-0.8,0-1.3,0
		c-0.6,0-0.9-0.4-0.9-0.9c0-0.8,0-1.6,0-2.4c0-0.6,0.4-1,0.9-1.3c0.6-0.3,1.1-0.8,1.5-1.3c1.2-1.7,1.1-4-0.2-5.5
		c-1.3-1.5-2.7-3-4-4.4c-1.9-2-5.2-1.6-6.6,0.8c-0.3,0.5-0.6,1.1-1,1.7c-0.2-0.2-0.4-0.4-0.5-0.6c-0.7-0.9-1.6-1.6-2.7-1.9
		c-2.4-0.6-4.7,0.8-5.3,3.4c-0.1,0.3-0.1,0.7-0.2,1c-0.3,0-0.5,0-0.8-0.1c-2.4-0.3-4.3,1.2-4.9,3.6c-0.2,0.9-0.1,1.7,0.2,2.5
		c0.1,0.2,0.2,0.4,0.1,0.5c-0.2,0.2-0.4,0.4-0.6,0.5c-1.6,0.5-2.5,1.7-3,3.2c-0.2,0.6-0.2,1.2-0.1,1.8c0.1,0.4-0.1,0.7-0.3,0.9
		c-1,1-2,2.1-3,3.1c-1.1,1.1-3.3,1.1-4.3-0.6c-0.5-0.8-0.7-1.7-0.5-2.6c0.1-0.5,0.4-1,0.7-1.4c2.2-2.2,4.4-4.5,6.6-6.7
		c0.2-0.2,0.4-0.4,0.5-0.6c0.2-0.2,0.1-0.4,0-0.6c-0.2-0.2-0.4-0.1-0.5,0c-0.2,0.2-0.5,0.3-0.7,0.5c-2.8,2.9-5.6,5.8-8.4,8.6
		c-0.8,0.8-1.8,1.1-2.9,0.8C6.7,44.3,6,42,7.2,40.4c0.2-0.3,0.5-0.6,0.8-0.8c2.5-2.6,5.1-5.3,7.6-7.9c0.2-0.2,0.3-0.3,0.4-0.5
		c0.1-0.1,0.1-0.3,0.1-0.4c0-0.2-0.1-0.4-0.3-0.5c-0.1-0.1-0.4,0-0.5,0.1c-0.2,0.1-0.3,0.3-0.5,0.4c-2,2-4,4.1-5.9,6.1
		c-0.5,0.6-1.2,0.9-1.9,1c-1.4,0.1-2.8-1.1-3.1-2.6c-0.2-0.9,0.1-1.7,0.7-2.3c4.1-4.3,8.2-8.6,12.3-12.9c0.3-0.3,0.7-0.6,1.1-0.7
		c1.5-0.5,3-1.1,4.5-1.6c0.9-0.3,1.9-0.3,2.8,0.1c2,1,4.1,1.2,6.2,0.9c1.3-0.1,2.5-0.4,3.7-0.9c0.7-0.3,1.3-0.7,1.9-1.3
		c0.6-0.6,0.6-0.9,0-1.4c-0.7-0.6-1.3-1.1-2-1.7c-2.3-1.8-4.6-3.7-6.8-5.5c-0.5-0.4-0.6-0.8-0.4-1.3c0.2-0.4,0.6-0.7,1.2-0.6
		c2.3,0.4,4.7,0.7,7,1.1c1.1,0.2,2.3,0.4,3.4,0.6c1.4,0.3,2.7,1,3.7,2c0.8,0.9,1.8,1.5,2.9,1.9c0.2,0.1,0.4,0.2,0.6,0.3
		c0.1,0,0.2,0.1,0.2,0.1C47.3,11.9,47.9,11.9,48.6,11.9"/>
</g>
</svg>
