<?xml version="1.0" encoding="utf-8"?>
<!-- Generator: Adobe Illustrator 21.0.2, SVG Export Plug-In . SVG Version: 6.00 Build 0)  -->
<svg version="1.1" id="Layer_1" xmlns="http://www.w3.org/2000/svg" xmlns:xlink="http://www.w3.org/1999/xlink" x="0px" y="0px"
	 viewBox="0 0 772.6 415.4" style="enable-background:new 0 0 772.6 415.4;" xml:space="preserve">
<style type="text/css">
	.st0{fill:#FFFFFF;}
	.st1{fill:#0072CE;}
	.st2{fill:#981D97;}
	.st3{fill:#E7C223;}
	.st4{fill:#AFB9C5;}
	.st5{fill:url(#SVGID_1_);}
	.st6{fill:url(#SVGID_2_);}
	.st7{fill:url(#SVGID_3_);}
	.st8{fill:url(#SVGID_4_);}
	.st9{fill:url(#SVGID_5_);}
	.st10{fill:url(#SVGID_6_);}
	.st11{fill:url(#SVGID_7_);}
	.st12{fill:#5C7F93;}
	.st13{fill:url(#SVGID_8_);}
	.st14{fill:url(#SVGID_9_);}
	.st15{fill:url(#SVGID_10_);}
	.st16{fill:url(#SVGID_11_);}
	.st17{fill:url(#SVGID_12_);}
	.st18{fill:url(#SVGID_13_);}
	.st19{fill:url(#SVGID_14_);}
	.st20{fill:url(#SVGID_15_);}
	.st21{fill:url(#SVGID_16_);}
	.st22{fill:url(#SVGID_17_);}
	.st23{fill:url(#SVGID_18_);}
	.st24{fill:url(#SVGID_19_);}
	.st25{fill:url(#SVGID_20_);}
	.st26{fill:url(#SVGID_21_);}
	.st27{fill:url(#SVGID_22_);}
	.st28{fill:url(#SVGID_23_);}
	.st29{fill:url(#SVGID_24_);}
	.st30{fill:url(#SVGID_25_);}
	.st31{fill:url(#SVGID_26_);}
	.st32{fill:url(#SVGID_27_);}
	.st33{fill:url(#SVGID_28_);}
	.st34{fill:url(#SVGID_29_);}
	.st35{opacity:0.5;fill:#0072CE;}
	.st36{fill:url(#SVGID_30_);}
	.st37{fill:url(#SVGID_31_);}
	.st38{fill:url(#SVGID_32_);}
	.st39{fill:url(#SVGID_33_);}
	.st40{fill:url(#SVGID_34_);}
	.st41{fill:url(#SVGID_35_);}
	.st42{fill:url(#SVGID_36_);}
	.st43{fill:url(#SVGID_37_);}
	.st44{fill:url(#SVGID_38_);}
	.st45{fill:url(#SVGID_39_);}
	.st46{fill:url(#SVGID_40_);}
	.st47{fill:url(#SVGID_41_);}
	.st48{fill:url(#SVGID_42_);}
	.st49{fill:url(#SVGID_43_);}
	.st50{fill:url(#SVGID_44_);}
	.st51{fill:url(#SVGID_45_);}
	.st52{fill:url(#SVGID_46_);}
	.st53{fill:url(#SVGID_47_);}
	.st54{fill:url(#SVGID_48_);}
	.st55{fill:url(#SVGID_49_);}
	.st56{fill:url(#SVGID_50_);}
	.st57{fill:url(#SVGID_51_);}
	.st58{fill:url(#SVGID_52_);}
	.st59{fill:url(#SVGID_53_);}
	.st60{fill:url(#SVGID_54_);}
	.st61{fill:url(#SVGID_55_);}
	.st62{fill:url(#SVGID_56_);}
	.st63{fill:url(#SVGID_57_);}
</style>
<g>
	
		<rect x="282.4" y="213.8" transform="matrix(0.3814 -0.9244 0.9244 0.3814 -49.0215 413.1359)" class="st0" width="3.6" height="58.7"/>
	<path class="st1" d="M140.5,177.6l4.2-140.4C220.2,39.4,281,102.1,281,177.6c0,15-2.4,29.9-7.1,44.1L140.5,177.6z"/>
	<path class="st2" d="M140.5,177.6L272,227.2c-20.6,54.6-73.1,91-131.5,91C63.4,318.1,0,254.7,0,177.6c0-42.3,19.1-82.5,52-109.2
		L140.5,177.6z"/>
	<path class="st3" d="M140.5,177.6L56.6,64.9c11.8-8.8,24.8-15.6,38.7-20.3s28.4-7.2,43.1-7.4L140.5,177.6z"/>
	<g>
		<g>
			<circle class="st4" cx="140.2" cy="177.6" r="106"/>
		</g>
		<g>
			
				<radialGradient id="SVGID_1_" cx="190.4168" cy="287.5666" r="106.398" gradientTransform="matrix(1 0 0 -1 0 418)" gradientUnits="userSpaceOnUse">
				<stop  offset="0" style="stop-color:#FFFFFF"/>
				<stop  offset="0.5053" style="stop-color:#FDFDFE"/>
				<stop  offset="0.6873" style="stop-color:#F6F8F9"/>
				<stop  offset="0.817" style="stop-color:#EBEDF0"/>
				<stop  offset="0.9211" style="stop-color:#DADFE3"/>
				<stop  offset="1" style="stop-color:#C7CFD5"/>
			</radialGradient>
			<circle class="st5" cx="140.5" cy="177.6" r="106.4"/>
			
				<radialGradient id="SVGID_2_" cx="192.401" cy="293.6393" r="124.1496" gradientTransform="matrix(1 0 0 -1 0 418)" gradientUnits="userSpaceOnUse">
				<stop  offset="0" style="stop-color:#F6F7F8"/>
				<stop  offset="0.4318" style="stop-color:#F4F5F6"/>
				<stop  offset="0.6764" style="stop-color:#EBEEF0"/>
				<stop  offset="0.8736" style="stop-color:#DEE2E6"/>
				<stop  offset="1" style="stop-color:#D0D7DC"/>
			</radialGradient>
			<circle class="st6" cx="140.5" cy="177.6" r="105.3"/>
			
				<radialGradient id="SVGID_3_" cx="194.333" cy="299.575" r="142.5799" gradientTransform="matrix(1 0 0 -1 0 418)" gradientUnits="userSpaceOnUse">
				<stop  offset="0" style="stop-color:#ECEFF1"/>
				<stop  offset="0.4869" style="stop-color:#E9ECEE"/>
				<stop  offset="0.8802" style="stop-color:#DFE3E7"/>
				<stop  offset="1" style="stop-color:#DADFE3"/>
			</radialGradient>
			<circle class="st7" cx="140.5" cy="177.6" r="104.2"/>
			
				<radialGradient id="SVGID_4_" cx="196.2128" cy="305.3737" r="161.6772" gradientTransform="matrix(1 0 0 -1 0 418)" gradientUnits="userSpaceOnUse">
				<stop  offset="0" style="stop-color:#E3E7EA"/>
				<stop  offset="1" style="stop-color:#E3E7EA"/>
			</radialGradient>
			<circle class="st8" cx="140.5" cy="177.6" r="103.1"/>
			
				<radialGradient id="SVGID_5_" cx="198.0405" cy="311.0355" r="181.4259" gradientTransform="matrix(1 0 0 -1 0 418)" gradientUnits="userSpaceOnUse">
				<stop  offset="0" style="stop-color:#DADFE3"/>
				<stop  offset="0.5245" style="stop-color:#E1E5E8"/>
				<stop  offset="1" style="stop-color:#ECEFF1"/>
			</radialGradient>
			<circle class="st9" cx="140.5" cy="177.6" r="102"/>
			
				<radialGradient id="SVGID_6_" cx="199.8159" cy="316.5603" r="201.8075" gradientTransform="matrix(1 0 0 -1 0 418)" gradientUnits="userSpaceOnUse">
				<stop  offset="0" style="stop-color:#D0D7DC"/>
				<stop  offset="0.433" style="stop-color:#DEE3E6"/>
				<stop  offset="1" style="stop-color:#F6F7F8"/>
			</radialGradient>
			<circle class="st10" cx="140.5" cy="177.6" r="100.9"/>
			
				<radialGradient id="SVGID_7_" cx="201.5391" cy="321.9481" r="222.8003" gradientTransform="matrix(1 0 0 -1 0 418)" gradientUnits="userSpaceOnUse">
				<stop  offset="0" style="stop-color:#C7CFD5"/>
				<stop  offset="1" style="stop-color:#FFFFFF"/>
			</radialGradient>
			<circle class="st11" cx="140.5" cy="177.6" r="99.8"/>
		</g>
	</g>
	<g>
		<g>
			<path class="st12" d="M78.7,155.8l4.4-0.4c0.3,1.5,0.8,2.5,1.6,3.2c0.8,0.7,1.9,1,3.2,1c1.4,0,2.5-0.3,3.3-0.9
				c0.7-0.6,1.1-1.3,1.1-2.1c0-0.5-0.2-1-0.5-1.3c-0.3-0.4-0.8-0.7-1.6-1c-0.5-0.2-1.7-0.5-3.6-1c-2.4-0.6-4.1-1.3-5.1-2.2
				c-1.4-1.2-2-2.7-2-4.5c0-1.1,0.3-2.2,1-3.2c0.6-1,1.6-1.7,2.8-2.2c1.2-0.5,2.7-0.8,4.4-0.8c2.8,0,4.9,0.6,6.3,1.8
				s2.1,2.9,2.2,4.9l-4.5,0.2c-0.2-1.1-0.6-2-1.2-2.5s-1.6-0.7-2.8-0.7c-1.3,0-2.3,0.3-3.1,0.8c-0.5,0.3-0.7,0.8-0.7,1.4
				c0,0.5,0.2,1,0.7,1.3c0.6,0.5,1.9,1,4.1,1.5s3.8,1,4.8,1.6c1,0.5,1.9,1.3,2.5,2.3s0.9,2.1,0.9,3.5c0,1.3-0.4,2.5-1.1,3.6
				s-1.7,1.9-3,2.5c-1.3,0.5-2.9,0.8-4.8,0.8c-2.8,0-5-0.6-6.5-1.9C79.9,160.2,79,158.3,78.7,155.8z"/>
			<path class="st12" d="M103.7,151.8l-3.9-0.7c0.4-1.6,1.2-2.7,2.2-3.5s2.6-1.1,4.7-1.1c1.9,0,3.3,0.2,4.2,0.7c0.9,0.4,1.6,1,2,1.7
				s0.6,2,0.6,3.8v5c0,1.4,0.1,2.5,0.2,3.1c0.1,0.7,0.4,1.4,0.8,2.2h-4.2c-0.1-0.3-0.2-0.7-0.4-1.3c-0.1-0.3-0.1-0.4-0.2-0.5
				c-0.7,0.7-1.5,1.2-2.3,1.6c-0.8,0.4-1.7,0.5-2.6,0.5c-1.7,0-3-0.4-3.9-1.3c-1-0.9-1.4-2-1.4-3.4c0-0.9,0.2-1.7,0.7-2.4
				c0.4-0.7,1-1.3,1.8-1.6c0.8-0.4,1.9-0.7,3.4-1c2-0.4,3.4-0.7,4.1-1v-0.4c0-0.8-0.2-1.4-0.6-1.7s-1.2-0.5-2.3-0.5
				c-0.8,0-1.3,0.1-1.8,0.4S103.9,151.1,103.7,151.8z M109.4,155.3c-0.5,0.2-1.4,0.4-2.6,0.7s-2,0.5-2.3,0.7
				c-0.6,0.4-0.8,0.9-0.8,1.5s0.2,1.1,0.7,1.5c0.4,0.4,1,0.7,1.7,0.7c0.8,0,1.5-0.3,2.2-0.8c0.5-0.4,0.9-0.9,1-1.4
				c0.1-0.4,0.2-1.1,0.2-2.1L109.4,155.3L109.4,155.3z"/>
			<path class="st12" d="M117.7,163v-22.2h4.3V163H117.7z"/>
			<path class="st12" d="M135.7,157.9l4.2,0.7c-0.5,1.6-1.4,2.7-2.6,3.5c-1.2,0.8-2.6,1.2-4.4,1.2c-2.8,0-4.9-0.9-6.2-2.7
				c-1.1-1.5-1.6-3.3-1.6-5.5c0-2.7,0.7-4.8,2.1-6.3c1.4-1.5,3.2-2.3,5.3-2.3c2.4,0,4.3,0.8,5.7,2.4c1.4,1.6,2,4,2,7.3h-10.7
				c0,1.3,0.4,2.2,1,2.9c0.7,0.7,1.5,1.1,2.5,1.1c0.7,0,1.2-0.2,1.7-0.5S135.4,158.7,135.7,157.9z M135.9,153.6c0-1.2-0.3-2.2-1-2.8
				s-1.3-1-2.2-1s-1.7,0.3-2.3,1s-0.9,1.6-0.9,2.8H135.9z"/>
			<path class="st12" d="M142.1,158.4l4.3-0.7c0.2,0.8,0.5,1.5,1.1,1.9s1.3,0.6,2.3,0.6c1.1,0,1.9-0.2,2.5-0.6
				c0.4-0.3,0.6-0.7,0.6-1.1c0-0.3-0.1-0.6-0.3-0.8s-0.7-0.4-1.4-0.6c-3.4-0.8-5.6-1.4-6.5-2.1c-1.3-0.9-1.9-2.1-1.9-3.6
				c0-1.4,0.5-2.6,1.6-3.5s2.8-1.4,5.1-1.4c2.2,0,3.8,0.4,4.9,1.1c1.1,0.7,1.8,1.8,2.2,3.2l-4,0.7c-0.2-0.6-0.5-1.1-1-1.4
				c-0.5-0.3-1.2-0.5-2.1-0.5c-1.1,0-1.9,0.2-2.4,0.5c-0.3,0.2-0.5,0.5-0.5,0.9c0,0.3,0.1,0.6,0.4,0.8c0.4,0.3,1.7,0.7,4,1.2
				s3.8,1.1,4.7,1.9c0.9,0.8,1.3,1.8,1.3,3.2c0,1.5-0.6,2.7-1.8,3.8s-3.1,1.6-5.5,1.6c-2.2,0-3.9-0.4-5.2-1.3
				C143.3,161.1,142.5,159.9,142.1,158.4z"/>
			<path class="st12" d="M169.3,163v-22.2h4.3v8c1.3-1.5,2.9-2.2,4.7-2.2c2,0,3.6,0.7,4.9,2.1c1.3,1.4,1.9,3.5,1.9,6.1
				c0,2.7-0.7,4.9-2,6.3c-1.3,1.5-2.9,2.2-4.8,2.2c-0.9,0-1.8-0.2-2.7-0.7s-1.7-1.1-2.3-2v2.4L169.3,163L169.3,163z M173.5,154.6
				c0,1.7,0.3,2.9,0.8,3.7c0.7,1.1,1.7,1.7,2.9,1.7c0.9,0,1.7-0.4,2.4-1.2s1-2.1,1-3.8c0-1.8-0.3-3.2-1-4s-1.5-1.2-2.6-1.2
				c-1,0-1.9,0.4-2.5,1.2C173.8,151.8,173.5,153,173.5,154.6z"/>
			<path class="st12" d="M186.4,146.9h4.5l3.8,11.4l3.8-11.4h4.4l-5.7,15.5l-1,2.8c-0.4,0.9-0.7,1.7-1.1,2.1
				c-0.3,0.5-0.7,0.9-1.2,1.2c-0.4,0.3-1,0.5-1.6,0.7s-1.4,0.3-2.2,0.3s-1.6-0.1-2.4-0.3l-0.4-3.3c0.7,0.1,1.3,0.2,1.8,0.2
				c1,0,1.7-0.3,2.2-0.9c0.5-0.6,0.8-1.3,1.1-2.2L186.4,146.9z"/>
			<path class="st12" d="M73.9,169.8h8.9c1.8,0,3.1,0.1,3.9,0.2c0.9,0.1,1.6,0.5,2.3,0.9c0.7,0.5,1.2,1.1,1.7,1.9
				c0.5,0.8,0.7,1.6,0.7,2.6s-0.3,2-0.8,2.9c-0.6,0.9-1.3,1.5-2.3,2c1.4,0.4,2.4,1.1,3.1,2s1.1,2.1,1.1,3.3c0,1-0.2,2-0.7,2.9
				c-0.5,1-1.1,1.7-1.9,2.3s-1.8,0.9-3,1.1c-0.7,0.1-2.5,0.1-5.4,0.2h-7.6C73.9,192.1,73.9,169.8,73.9,169.8z M78.3,173.5v5.1h2.9
				c1.7,0,2.8,0,3.3-0.1c0.8-0.1,1.4-0.4,1.8-0.8c0.4-0.4,0.7-1,0.7-1.7s-0.2-1.2-0.6-1.7c-0.4-0.4-0.9-0.7-1.7-0.8
				c-0.4,0-1.7-0.1-3.8-0.1h-2.6V173.5z M78.3,182.3v5.9h4.1c1.6,0,2.6,0,3.1-0.1c0.7-0.1,1.2-0.4,1.6-0.9s0.6-1.1,0.6-1.9
				c0-0.7-0.2-1.2-0.5-1.7s-0.8-0.8-1.4-1s-1.9-0.3-4-0.3H78.3z"/>
			<path class="st12" d="M106.8,192v-2.4c-0.6,0.9-1.4,1.5-2.3,2c-1,0.5-2,0.7-3,0.7c-1.1,0-2-0.2-2.9-0.7s-1.5-1.1-1.9-2
				s-0.6-2-0.6-3.6v-10.2h4.3v7.4c0,2.3,0.1,3.6,0.2,4.2c0.2,0.5,0.4,0.9,0.9,1.2c0.4,0.3,0.9,0.4,1.6,0.4s1.4-0.2,2-0.6
				s1-0.9,1.2-1.5s0.3-2,0.3-4.3v-6.8h4.3V192H106.8z"/>
			<path class="st12" d="M113.6,187.4l4.3-0.7c0.2,0.8,0.5,1.5,1.1,1.9s1.3,0.6,2.3,0.6c1.1,0,1.9-0.2,2.5-0.6
				c0.4-0.3,0.6-0.7,0.6-1.1c0-0.3-0.1-0.6-0.3-0.8c-0.2-0.2-0.7-0.4-1.4-0.6c-3.4-0.8-5.6-1.4-6.5-2.1c-1.3-0.9-1.9-2.1-1.9-3.6
				c0-1.4,0.5-2.6,1.6-3.5s2.8-1.4,5.1-1.4c2.2,0,3.8,0.4,4.9,1.1c1.1,0.7,1.8,1.8,2.2,3.2l-4,0.7c-0.2-0.6-0.5-1.1-1-1.4
				c-0.5-0.3-1.2-0.5-2.1-0.5c-1.1,0-1.9,0.2-2.4,0.5c-0.3,0.2-0.5,0.5-0.5,0.9c0,0.3,0.1,0.6,0.4,0.8c0.4,0.3,1.7,0.7,4,1.2
				s3.8,1.1,4.7,1.9c0.9,0.8,1.3,1.8,1.3,3.2c0,1.5-0.6,2.7-1.8,3.8c-1.2,1.1-3.1,1.6-5.5,1.6c-2.2,0-3.9-0.4-5.2-1.3
				C114.9,190.1,114,188.9,113.6,187.4z"/>
			<path class="st12" d="M132.4,173.8v-3.9h4.3v3.9H132.4z M132.4,192v-16.1h4.3V192H132.4z"/>
			<path class="st12" d="M155.6,192h-4.3v-8.2c0-1.7-0.1-2.9-0.3-3.4s-0.5-0.9-0.9-1.2s-0.9-0.4-1.5-0.4c-0.7,0-1.4,0.2-2,0.6
				c-0.6,0.4-1,0.9-1.2,1.6c-0.2,0.7-0.3,1.9-0.3,3.7v7.3H141v-16.1h4v2.4c1.4-1.8,3.2-2.7,5.3-2.7c0.9,0,1.8,0.2,2.6,0.5
				s1.4,0.8,1.8,1.3c0.4,0.5,0.7,1.1,0.8,1.8c0.2,0.7,0.2,1.6,0.2,2.9v9.9H155.6z"/>
			<path class="st12" d="M169.2,186.9l4.2,0.7c-0.5,1.6-1.4,2.7-2.6,3.5c-1.2,0.8-2.6,1.2-4.4,1.2c-2.8,0-4.9-0.9-6.2-2.7
				c-1.1-1.5-1.6-3.3-1.6-5.5c0-2.7,0.7-4.8,2.1-6.3c1.4-1.5,3.2-2.3,5.3-2.3c2.4,0,4.3,0.8,5.7,2.4c1.4,1.6,2,4,2,7.3H163
				c0,1.3,0.4,2.2,1,2.9c0.7,0.7,1.5,1.1,2.5,1.1c0.7,0,1.2-0.2,1.7-0.5S169,187.7,169.2,186.9z M169.5,182.6c0-1.2-0.3-2.2-1-2.8
				s-1.3-1-2.2-1s-1.7,0.3-2.3,1s-0.9,1.6-0.9,2.8H169.5z"/>
			<path class="st12" d="M175.7,187.4l4.3-0.7c0.2,0.8,0.5,1.5,1.1,1.9s1.3,0.6,2.3,0.6c1.1,0,1.9-0.2,2.5-0.6
				c0.4-0.3,0.6-0.7,0.6-1.1c0-0.3-0.1-0.6-0.3-0.8s-0.7-0.4-1.4-0.6c-3.4-0.8-5.6-1.4-6.5-2.1c-1.3-0.9-1.9-2.1-1.9-3.6
				c0-1.4,0.5-2.6,1.6-3.5s2.8-1.4,5.1-1.4c2.2,0,3.8,0.4,4.9,1.1c1.1,0.7,1.8,1.8,2.2,3.2l-4,0.7c-0.2-0.6-0.5-1.1-1-1.4
				c-0.5-0.3-1.2-0.5-2.1-0.5c-1.1,0-1.9,0.2-2.4,0.5c-0.3,0.2-0.5,0.5-0.5,0.9c0,0.3,0.1,0.6,0.4,0.8c0.4,0.3,1.7,0.7,4,1.2
				s3.8,1.1,4.7,1.9c0.9,0.8,1.3,1.8,1.3,3.2c0,1.5-0.6,2.7-1.8,3.8s-3.1,1.6-5.5,1.6c-2.2,0-3.9-0.4-5.2-1.3
				C176.9,190.1,176.1,188.9,175.7,187.4z"/>
			<path class="st12" d="M192.9,187.4l4.3-0.7c0.2,0.8,0.5,1.5,1.1,1.9s1.3,0.6,2.3,0.6c1.1,0,1.9-0.2,2.5-0.6
				c0.4-0.3,0.6-0.7,0.6-1.1c0-0.3-0.1-0.6-0.3-0.8s-0.7-0.4-1.4-0.6c-3.4-0.8-5.6-1.4-6.5-2.1c-1.3-0.9-1.9-2.1-1.9-3.6
				c0-1.4,0.5-2.6,1.6-3.5s2.8-1.4,5.1-1.4c2.2,0,3.8,0.4,4.9,1.1c1.1,0.7,1.8,1.8,2.2,3.2l-4,0.7c-0.2-0.6-0.5-1.1-1-1.4
				c-0.5-0.3-1.2-0.5-2.1-0.5c-1.1,0-1.9,0.2-2.4,0.5c-0.3,0.2-0.5,0.5-0.5,0.9c0,0.3,0.1,0.6,0.4,0.8c0.4,0.3,1.7,0.7,4,1.2
				s3.8,1.1,4.7,1.9c0.9,0.8,1.3,1.8,1.3,3.2c0,1.5-0.6,2.7-1.8,3.8s-3.1,1.6-5.5,1.6c-2.2,0-3.9-0.4-5.2-1.3
				C194.1,190.1,193.3,188.9,192.9,187.4z"/>
			<path class="st12" d="M100.6,212.8v-3.7h9.7v8.8c-0.9,0.9-2.3,1.7-4.1,2.4c-1.8,0.7-3.6,1-5.4,1c-2.3,0-4.3-0.5-6.1-1.5
				s-3-2.4-3.9-4.2s-1.3-3.8-1.3-5.9c0-2.3,0.5-4.4,1.5-6.2s2.4-3.2,4.3-4.1c1.4-0.7,3.2-1.1,5.3-1.1c2.8,0,4.9,0.6,6.5,1.7
				c1.5,1.2,2.5,2.8,3,4.8l-4.5,0.8c-0.3-1.1-0.9-1.9-1.8-2.6c-0.9-0.6-1.9-0.9-3.2-0.9c-2,0-3.5,0.6-4.7,1.9
				c-1.2,1.2-1.7,3.1-1.7,5.5c0,2.6,0.6,4.6,1.8,5.9c1.2,1.3,2.7,2,4.6,2c0.9,0,1.9-0.2,2.8-0.6c0.9-0.4,1.8-0.8,2.4-1.3v-2.8h-5.2
				V212.8z"/>
			<path class="st12" d="M118.4,221h-4.3v-16.1h4v2.3c0.7-1.1,1.3-1.8,1.8-2.1s1.2-0.5,1.8-0.5c1,0,1.9,0.3,2.8,0.8l-1.3,3.7
				c-0.7-0.5-1.4-0.7-2-0.7s-1.1,0.2-1.5,0.5s-0.7,0.9-1,1.8c-0.2,0.9-0.4,2.7-0.4,5.4L118.4,221L118.4,221z"/>
			<path class="st12" d="M125.4,212.7c0-1.4,0.3-2.8,1-4.1s1.7-2.3,3-3c1.3-0.7,2.7-1,4.3-1c2.4,0,4.4,0.8,6,2.4
				c1.6,1.6,2.3,3.6,2.3,6s-0.8,4.4-2.4,6c-1.6,1.6-3.5,2.4-5.9,2.4c-1.5,0-2.9-0.3-4.2-1s-2.4-1.6-3.1-2.9
				C125.7,216.2,125.4,214.6,125.4,212.7z M129.8,213c0,1.6,0.4,2.8,1.1,3.7s1.7,1.3,2.8,1.3s2-0.4,2.8-1.3c0.8-0.8,1.1-2.1,1.1-3.7
				c0-1.6-0.4-2.8-1.1-3.6c-0.8-0.8-1.7-1.3-2.8-1.3s-2,0.4-2.8,1.3C130.1,210.2,129.8,211.4,129.8,213z"/>
			<path class="st12" d="M155.9,221v-2.4c-0.6,0.9-1.4,1.5-2.3,2c-1,0.5-2,0.7-3,0.7c-1.1,0-2-0.2-2.9-0.7s-1.5-1.1-1.9-2
				s-0.6-2-0.6-3.6v-10.2h4.3v7.4c0,2.3,0.1,3.6,0.2,4.2c0.2,0.5,0.4,0.9,0.9,1.2c0.4,0.3,0.9,0.4,1.6,0.4c0.7,0,1.4-0.2,2-0.6
				s1-0.9,1.2-1.5s0.3-2,0.3-4.3v-6.8h4.3V221H155.9z"/>
			<path class="st12" d="M164.1,204.9h4v2.4c0.5-0.8,1.2-1.5,2.1-2s1.9-0.8,2.9-0.8c1.9,0,3.5,0.7,4.8,2.2s2,3.5,2,6.1
				c0,2.7-0.7,4.8-2,6.3s-2.9,2.2-4.8,2.2c-0.9,0-1.7-0.2-2.4-0.5c-0.7-0.4-1.5-1-2.3-1.8v8.1h-4.3V204.9z M168.3,212.7
				c0,1.8,0.4,3.1,1.1,4c0.7,0.9,1.6,1.3,2.6,1.3s1.8-0.4,2.5-1.2s1-2.1,1-3.9c0-1.7-0.3-2.9-1-3.8c-0.7-0.8-1.5-1.2-2.5-1.2
				s-1.9,0.4-2.6,1.2C168.7,209.9,168.3,211.1,168.3,212.7z"/>
			<path class="st12" d="M184.7,209l-2.3-1.8c0.7-0.8,1.5-1.6,2.3-2.3c0.3-0.3,0.5-0.5,0.6-0.6c-0.3,0-1-0.2-2.2-0.5
				c-0.9-0.2-1.4-0.4-1.7-0.5l0.9-2.7c1.3,0.5,2.5,1.1,3.5,1.8c-0.2-1.6-0.4-3-0.4-4h2.7c0,0.7-0.1,2.1-0.4,4.1
				c0.2-0.1,0.6-0.3,1.3-0.6c0.9-0.4,1.7-0.8,2.5-1.1l0.8,2.7c-1.1,0.3-2.4,0.5-3.9,0.7l1.8,2c0.4,0.4,0.7,0.8,0.9,1l-2.3,1.5
				l-2-3.4C186.2,206.6,185.5,207.8,184.7,209z"/>
		</g>
	</g>
	<g>
		<g>
			<path class="st12" d="M4.6,371.2l0.2-0.7c0.5,0.2,0.8,0.3,1.1,0.5c-0.1-0.6-0.1-0.9-0.1-1.2h0.7c0,0.3,0,0.7-0.1,1.2
				c0.3-0.2,0.7-0.3,1.1-0.4l0.2,0.7c-0.4,0.1-0.8,0.2-1.2,0.3c0.2,0.2,0.5,0.5,0.8,0.9l-0.6,0.4c-0.2-0.2-0.4-0.6-0.6-1
				c-0.2,0.4-0.4,0.8-0.6,1L5,372.5c0.4-0.4,0.6-0.7,0.8-0.9C5.3,371.4,4.9,371.3,4.6,371.2z"/>
			<path class="st12" d="M8,376.7l2.6-6.8h1l2.8,6.8h-1l-0.8-2.1H9.7L9,376.7H8z M9.9,374h2.3l-0.7-1.9c-0.2-0.6-0.4-1-0.5-1.4
				c-0.1,0.4-0.2,0.9-0.4,1.3L9.9,374z"/>
			<path class="st12" d="M15.1,376.7v-4.3h-0.7v-0.7h0.7v-0.5c0-0.3,0-0.6,0.1-0.7c0.1-0.2,0.2-0.4,0.4-0.5s0.5-0.2,0.9-0.2
				c0.2,0,0.5,0,0.8,0.1l-0.1,0.7c-0.2,0-0.3,0-0.5,0c-0.3,0-0.4,0.1-0.5,0.2s-0.2,0.3-0.2,0.6v0.5h1v0.7h-1v4.3h-0.9V376.7z"/>
			<path class="st12" d="M19.4,376l0.1,0.7c-0.2,0-0.4,0.1-0.6,0.1c-0.3,0-0.5,0-0.7-0.1s-0.3-0.2-0.4-0.4s-0.1-0.5-0.1-1v-2.8h-0.6
				v-0.7h0.6v-1.2l0.8-0.5v1.7h0.8v0.7h-0.8v2.9c0,0.2,0,0.4,0,0.5s0.1,0.1,0.1,0.2s0.2,0.1,0.3,0.1C19.1,376,19.3,376,19.4,376z"/>
			<path class="st12" d="M23.6,375.2l0.9,0.1c-0.1,0.5-0.4,0.9-0.8,1.2c-0.4,0.3-0.8,0.4-1.4,0.4c-0.7,0-1.3-0.2-1.7-0.7
				c-0.4-0.4-0.6-1.1-0.6-1.9s0.2-1.5,0.6-1.9c0.4-0.5,1-0.7,1.7-0.7s1.2,0.2,1.6,0.7c0.4,0.4,0.6,1.1,0.6,1.9c0,0,0,0.1,0,0.2h-3.7
				c0,0.5,0.2,1,0.5,1.2c0.3,0.3,0.6,0.4,1,0.4c0.3,0,0.6-0.1,0.8-0.2C23.3,375.8,23.5,375.5,23.6,375.2z M20.9,373.8h2.8
				c0-0.4-0.1-0.7-0.3-0.9c-0.3-0.3-0.6-0.5-1-0.5s-0.7,0.1-1,0.4C21,373,20.9,373.4,20.9,373.8z"/>
			<path class="st12" d="M25.5,376.7v-4.9h0.8v0.7c0.2-0.3,0.4-0.6,0.5-0.7c0.2-0.1,0.3-0.2,0.5-0.2c0.3,0,0.6,0.1,0.9,0.3l-0.3,0.8
				c-0.2-0.1-0.4-0.2-0.6-0.2s-0.3,0.1-0.5,0.2s-0.2,0.3-0.3,0.5c-0.1,0.3-0.1,0.6-0.1,1v2.6L25.5,376.7L25.5,376.7z"/>
			<path class="st12" d="M34.7,375.2l0.9,0.1c-0.1,0.5-0.4,0.9-0.8,1.2c-0.4,0.3-0.8,0.4-1.4,0.4c-0.7,0-1.3-0.2-1.7-0.7
				c-0.4-0.4-0.6-1.1-0.6-1.9s0.2-1.5,0.6-1.9c0.4-0.5,1-0.7,1.7-0.7s1.2,0.2,1.6,0.7c0.4,0.4,0.6,1.1,0.6,1.9c0,0,0,0.1,0,0.2h-3.7
				c0,0.5,0.2,1,0.5,1.2c0.3,0.3,0.6,0.4,1,0.4c0.3,0,0.6-0.1,0.8-0.2C34.4,375.8,34.6,375.5,34.7,375.2z M31.9,373.8h2.8
				c0-0.4-0.1-0.7-0.3-0.9c-0.3-0.3-0.6-0.5-1-0.5s-0.7,0.1-1,0.4C32.1,373,32,373.4,31.9,373.8z"/>
			<path class="st12" d="M36.6,376.7v-6.8h0.8v6.8H36.6z"/>
			<path class="st12" d="M38.7,370.9v-1h0.8v1H38.7z M38.7,376.7v-4.9h0.8v4.9H38.7z"/>
			<path class="st12" d="M40.8,376.7v-4.9h0.7v0.7c0.2-0.2,0.4-0.4,0.6-0.6c0.3-0.1,0.5-0.2,0.9-0.2s0.7,0.1,0.9,0.2
				s0.4,0.4,0.5,0.6c0.4-0.6,0.9-0.9,1.5-0.9c0.5,0,0.9,0.1,1.1,0.4c0.3,0.3,0.4,0.7,0.4,1.3v3.4h-0.8v-3.1c0-0.3,0-0.6-0.1-0.7
				s-0.2-0.3-0.3-0.4s-0.3-0.1-0.5-0.1c-0.3,0-0.6,0.1-0.9,0.3c-0.2,0.2-0.3,0.6-0.3,1.1v2.9h-0.8v-3.2c0-0.4-0.1-0.6-0.2-0.8
				c-0.1-0.2-0.4-0.3-0.7-0.3c-0.2,0-0.5,0.1-0.7,0.2s-0.3,0.3-0.4,0.5s-0.1,0.6-0.1,1v2.6H40.8z"/>
			<path class="st12" d="M48.7,370.9v-1h0.8v1H48.7z M48.7,376.7v-4.9h0.8v4.9H48.7z"/>
			<path class="st12" d="M50.9,376.7v-4.9h0.8v0.7c0.4-0.5,0.9-0.8,1.6-0.8c0.3,0,0.6,0.1,0.8,0.2s0.4,0.2,0.6,0.4
				c0.1,0.2,0.2,0.4,0.3,0.6c0,0.2,0,0.4,0,0.8v3h-1v-3c0-0.3,0-0.6-0.1-0.8c-0.1-0.2-0.2-0.3-0.3-0.4c-0.2-0.1-0.4-0.2-0.6-0.2
				c-0.4,0-0.7,0.1-0.9,0.3c-0.3,0.2-0.4,0.7-0.4,1.3v2.7L50.9,376.7L50.9,376.7z"/>
			<path class="st12" d="M59.4,376.1c-0.3,0.3-0.6,0.4-0.9,0.6c-0.3,0.1-0.6,0.2-0.9,0.2c-0.5,0-1-0.1-1.2-0.4
				c-0.3-0.3-0.4-0.6-0.4-1c0-0.2,0.1-0.5,0.2-0.7c0.1-0.2,0.3-0.4,0.4-0.5c0.2-0.1,0.4-0.2,0.6-0.3c0.2,0,0.4-0.1,0.7-0.1
				c0.7-0.1,1.2-0.2,1.5-0.3c0-0.1,0-0.2,0-0.2c0-0.3-0.1-0.6-0.2-0.7c-0.2-0.2-0.5-0.3-1-0.3c-0.4,0-0.7,0.1-0.9,0.2
				s-0.3,0.4-0.4,0.7l-0.8-0.1c0.1-0.3,0.2-0.6,0.4-0.8c0.2-0.2,0.4-0.4,0.7-0.5s0.7-0.2,1.1-0.2c0.4,0,0.8,0,1,0.1
				c0.3,0.1,0.5,0.2,0.6,0.4c0.1,0.2,0.2,0.3,0.3,0.6c0,0.1,0,0.4,0,0.8v1.1c0,0.8,0,1.3,0.1,1.5s0.1,0.4,0.2,0.6h-0.9
				C59.4,376.6,59.4,376.4,59.4,376.1z M59.3,374.3c-0.3,0.1-0.8,0.2-1.4,0.3c-0.3,0-0.6,0.1-0.7,0.2c-0.1,0.1-0.3,0.2-0.3,0.3
				s-0.1,0.3-0.1,0.4c0,0.2,0.1,0.4,0.3,0.6c0.2,0.1,0.4,0.2,0.7,0.2s0.6-0.1,0.9-0.2c0.2-0.1,0.4-0.3,0.6-0.6
				c0.1-0.2,0.1-0.5,0.1-0.8L59.3,374.3L59.3,374.3z"/>
			<path class="st12" d="M63.3,376l0.1,0.7c-0.2,0-0.4,0.1-0.6,0.1c-0.3,0-0.5,0-0.7-0.1s-0.3-0.2-0.4-0.4s-0.1-0.5-0.1-1v-2.8H61
				v-0.7h0.6v-1.2l0.8-0.5v1.7h0.8v0.7h-0.8v2.9c0,0.2,0,0.4,0,0.5s0.1,0.1,0.1,0.2s0.2,0.1,0.3,0.1C63,376,63.1,376,63.3,376z"/>
			<path class="st12" d="M64.1,370.9v-1h0.8v1H64.1z M64.1,376.7v-4.9h0.8v4.9H64.1z"/>
			<path class="st12" d="M65.9,374.3c0-0.9,0.3-1.6,0.8-2c0.4-0.4,0.9-0.5,1.5-0.5c0.7,0,1.2,0.2,1.7,0.7c0.4,0.4,0.6,1.1,0.6,1.8
				c0,0.6-0.1,1.1-0.3,1.5c-0.2,0.4-0.5,0.6-0.8,0.8c-0.4,0.2-0.8,0.3-1.2,0.3c-0.7,0-1.2-0.2-1.7-0.7
				C66.1,375.8,65.9,375.1,65.9,374.3z M66.7,374.3c0,0.6,0.1,1.1,0.4,1.4s0.6,0.5,1,0.5s0.8-0.2,1-0.5s0.4-0.8,0.4-1.4
				s-0.1-1.1-0.4-1.4s-0.6-0.5-1-0.5s-0.8,0.2-1,0.5C66.9,373.2,66.7,373.7,66.7,374.3z"/>
			<path class="st12" d="M71.5,376.7v-4.9h0.8v0.7c0.4-0.5,0.9-0.8,1.6-0.8c0.3,0,0.6,0.1,0.8,0.2s0.4,0.2,0.6,0.4
				c0.1,0.2,0.2,0.4,0.3,0.6c0,0.2,0,0.4,0,0.8v3h-0.8v-3c0-0.3,0-0.6-0.1-0.8c-0.1-0.2-0.2-0.3-0.3-0.4c-0.2-0.1-0.4-0.2-0.6-0.2
				c-0.4,0-0.7,0.1-0.9,0.3c-0.3,0.2-0.4,0.7-0.4,1.3v2.7L71.5,376.7L71.5,376.7z"/>
			<path class="st12" d="M76.4,375.3l0.8-0.1c0,0.3,0.2,0.6,0.4,0.8c0.2,0.2,0.5,0.3,0.9,0.3s0.7-0.1,0.9-0.2s0.3-0.3,0.3-0.6
				c0-0.2-0.1-0.3-0.2-0.4s-0.4-0.2-0.9-0.3c-0.6-0.2-1-0.3-1.3-0.4c-0.2-0.1-0.4-0.3-0.5-0.5s-0.2-0.4-0.2-0.7
				c0-0.2,0.1-0.4,0.2-0.6s0.2-0.3,0.4-0.5c0.1-0.1,0.3-0.2,0.5-0.2c0.2-0.1,0.5-0.1,0.7-0.1c0.4,0,0.7,0.1,1,0.2s0.5,0.3,0.6,0.5
				s0.2,0.4,0.3,0.8l-0.8,0.1c0-0.3-0.1-0.5-0.3-0.6c-0.2-0.1-0.4-0.2-0.8-0.2s-0.7,0.1-0.8,0.2c-0.2,0.1-0.2,0.3-0.2,0.4
				s0,0.2,0.1,0.3c0.1,0.1,0.2,0.2,0.3,0.2c0.1,0,0.3,0.1,0.7,0.2c0.6,0.2,1,0.3,1.2,0.4s0.4,0.2,0.5,0.4c0.1,0.2,0.2,0.4,0.2,0.7
				c0,0.3-0.1,0.5-0.2,0.8s-0.4,0.4-0.7,0.6s-0.7,0.2-1,0.2c-0.6,0-1.1-0.1-1.5-0.4C76.7,376.2,76.5,375.8,76.4,375.3z"/>
			<path class="st12" d="M85.7,378.7c-0.5-0.6-0.9-1.3-1.2-2c-0.3-0.8-0.5-1.6-0.5-2.4c0-0.7,0.1-1.4,0.4-2.1
				c0.3-0.8,0.7-1.6,1.3-2.3h0.6c-0.4,0.6-0.6,1.1-0.7,1.4c-0.2,0.4-0.3,0.9-0.4,1.3c-0.1,0.6-0.2,1.2-0.2,1.7c0,1.5,0.5,3,1.4,4.5
				h-0.7V378.7z"/>
			<path class="st12" d="M90.7,375.2l0.9,0.1c-0.1,0.5-0.4,0.9-0.8,1.2c-0.4,0.3-0.8,0.4-1.4,0.4c-0.7,0-1.3-0.2-1.7-0.7
				c-0.4-0.4-0.6-1.1-0.6-1.9s0.2-1.5,0.6-1.9c0.4-0.5,1-0.7,1.7-0.7s1.2,0.2,1.6,0.7c0.4,0.4,0.6,1.1,0.6,1.9c0,0,0,0.1,0,0.2h-3.7
				c0,0.5,0.2,1,0.5,1.2c0.3,0.3,0.6,0.4,1,0.4c0.3,0,0.6-0.1,0.8-0.2C90.4,375.8,90.6,375.5,90.7,375.2z M87.9,373.8h2.8
				c0-0.4-0.1-0.7-0.3-0.9c-0.3-0.3-0.6-0.5-1-0.5s-0.7,0.1-1,0.4C88.1,373,88,373.4,87.9,373.8z"/>
			<path class="st12" d="M92.6,376.7v-6.8h0.8v6.8H92.6z"/>
			<path class="st12" d="M94.7,370.9v-1h0.8v1H94.7z M94.7,376.7v-4.9h0.8v4.9H94.7z"/>
			<path class="st12" d="M96.8,376.7v-4.9h0.7v0.7c0.2-0.2,0.4-0.4,0.6-0.6c0.3-0.1,0.5-0.2,0.9-0.2s0.7,0.1,0.9,0.2
				s0.4,0.4,0.5,0.6c0.4-0.6,0.9-0.9,1.5-0.9c0.5,0,0.9,0.1,1.1,0.4c0.3,0.3,0.4,0.7,0.4,1.3v3.4h-0.8v-3.1c0-0.3,0-0.6-0.1-0.7
				s-0.2-0.3-0.3-0.4c-0.1-0.1-0.3-0.1-0.5-0.1c-0.3,0-0.6,0.1-0.9,0.3c-0.2,0.2-0.3,0.6-0.3,1.1v2.9h-0.8v-3.2
				c0-0.4-0.1-0.6-0.2-0.8c-0.1-0.2-0.4-0.3-0.7-0.3c-0.2,0-0.5,0.1-0.7,0.2s-0.3,0.3-0.4,0.5s-0.1,0.6-0.1,1v2.6H96.8z"/>
			<path class="st12" d="M104.8,370.9v-1h0.8v1H104.8z M104.8,376.7v-4.9h0.8v4.9H104.8z"/>
			<path class="st12" d="M106.9,376.7v-4.9h0.8v0.7c0.4-0.5,0.9-0.8,1.6-0.8c0.3,0,0.6,0.1,0.8,0.2s0.4,0.2,0.6,0.4
				c0.1,0.2,0.2,0.4,0.3,0.6c0,0.2,0,0.4,0,0.8v3h-1v-3c0-0.3,0-0.6-0.1-0.8c-0.1-0.2-0.2-0.3-0.3-0.4c-0.2-0.1-0.4-0.2-0.6-0.2
				c-0.4,0-0.7,0.1-0.9,0.3c-0.3,0.2-0.4,0.7-0.4,1.3v2.7L106.9,376.7L106.9,376.7z"/>
			<path class="st12" d="M115.4,376.1c-0.3,0.3-0.6,0.4-0.9,0.6c-0.3,0.1-0.6,0.2-0.9,0.2c-0.5,0-1-0.1-1.2-0.4
				c-0.3-0.3-0.4-0.6-0.4-1c0-0.2,0.1-0.5,0.2-0.7s0.3-0.4,0.4-0.5c0.2-0.1,0.4-0.2,0.6-0.3c0.2,0,0.4-0.1,0.7-0.1
				c0.7-0.1,1.2-0.2,1.5-0.3c0-0.1,0-0.2,0-0.2c0-0.3-0.1-0.6-0.2-0.7c-0.2-0.2-0.5-0.3-1-0.3c-0.4,0-0.7,0.1-0.9,0.2
				s-0.3,0.4-0.4,0.7l-0.8-0.1c0.1-0.3,0.2-0.6,0.4-0.8c0.2-0.2,0.4-0.4,0.7-0.5c0.3-0.1,0.7-0.2,1.1-0.2s0.8,0,1,0.1
				c0.3,0.1,0.5,0.2,0.6,0.4c0.1,0.2,0.2,0.3,0.3,0.6c0,0.1,0,0.4,0,0.8v1.1c0,0.8,0,1.3,0.1,1.5s0.1,0.4,0.2,0.6h-0.9
				C115.4,376.6,115.4,376.4,115.4,376.1z M115.3,374.3c-0.3,0.1-0.8,0.2-1.4,0.3c-0.3,0-0.6,0.1-0.7,0.2s-0.3,0.2-0.3,0.3
				s-0.1,0.3-0.1,0.4c0,0.2,0.1,0.4,0.3,0.6c0.2,0.1,0.4,0.2,0.7,0.2c0.3,0,0.6-0.1,0.9-0.2c0.2-0.1,0.4-0.3,0.6-0.6
				c0.1-0.2,0.1-0.5,0.1-0.8L115.3,374.3L115.3,374.3z"/>
			<path class="st12" d="M119.3,376l0.1,0.7c-0.2,0-0.4,0.1-0.6,0.1c-0.3,0-0.5,0-0.7-0.1s-0.3-0.2-0.4-0.4s-0.1-0.5-0.1-1v-2.8H117
				v-0.7h0.6v-1.2l0.8-0.5v1.7h0.8v0.7h-0.8v2.9c0,0.2,0,0.4,0,0.5s0.1,0.1,0.1,0.2s0.2,0.1,0.3,0.1C119,376,119.1,376,119.3,376z"
				/>
			<path class="st12" d="M120.1,370.9v-1h0.8v1H120.1z M120.1,376.7v-4.9h0.8v4.9H120.1z"/>
			<path class="st12" d="M121.9,374.3c0-0.9,0.3-1.6,0.8-2c0.4-0.4,0.9-0.5,1.5-0.5c0.7,0,1.2,0.2,1.7,0.7c0.4,0.4,0.6,1.1,0.6,1.8
				c0,0.6-0.1,1.1-0.3,1.5c-0.2,0.4-0.5,0.6-0.8,0.8c-0.4,0.2-0.8,0.3-1.2,0.3c-0.7,0-1.2-0.2-1.7-0.7
				C122.1,375.8,121.9,375.1,121.9,374.3z M122.7,374.3c0,0.6,0.1,1.1,0.4,1.4s0.6,0.5,1,0.5s0.8-0.2,1-0.5s0.4-0.8,0.4-1.4
				s-0.1-1.1-0.4-1.4s-0.6-0.5-1-0.5s-0.8,0.2-1,0.5C122.9,373.2,122.7,373.7,122.7,374.3z"/>
			<path class="st12" d="M127.5,376.7v-4.9h0.8v0.7c0.4-0.5,0.9-0.8,1.6-0.8c0.3,0,0.6,0.1,0.8,0.2s0.4,0.2,0.6,0.4
				c0.1,0.2,0.2,0.4,0.3,0.6c0,0.2,0,0.4,0,0.8v3h-0.8v-3c0-0.3,0-0.6-0.1-0.8c-0.1-0.2-0.2-0.3-0.3-0.4c-0.2-0.1-0.4-0.2-0.6-0.2
				c-0.4,0-0.7,0.1-0.9,0.3c-0.3,0.2-0.4,0.7-0.4,1.3v2.7L127.5,376.7L127.5,376.7z"/>
			<path class="st12" d="M132.4,375.3l0.8-0.1c0,0.3,0.2,0.6,0.4,0.8c0.2,0.2,0.5,0.3,0.9,0.3s0.7-0.1,0.9-0.2s0.3-0.3,0.3-0.6
				c0-0.2-0.1-0.3-0.2-0.4c-0.1-0.1-0.4-0.2-0.9-0.3c-0.6-0.2-1-0.3-1.3-0.4c-0.2-0.1-0.4-0.3-0.5-0.5s-0.2-0.4-0.2-0.7
				c0-0.2,0.1-0.4,0.2-0.6c0.1-0.2,0.2-0.3,0.4-0.5c0.1-0.1,0.3-0.2,0.5-0.2c0.2-0.1,0.5-0.1,0.7-0.1c0.4,0,0.7,0.1,1,0.2
				s0.5,0.3,0.6,0.5s0.2,0.4,0.3,0.8l-0.8,0.1c0-0.3-0.1-0.5-0.3-0.6s-0.4-0.2-0.8-0.2c-0.4,0-0.7,0.1-0.8,0.2
				c-0.2,0.1-0.2,0.3-0.2,0.4s0,0.2,0.1,0.3c0.1,0.1,0.2,0.2,0.3,0.2s0.3,0.1,0.7,0.2c0.6,0.2,1,0.3,1.2,0.4s0.4,0.2,0.5,0.4
				c0.1,0.2,0.2,0.4,0.2,0.7c0,0.3-0.1,0.5-0.2,0.8s-0.4,0.4-0.7,0.6s-0.7,0.2-1,0.2c-0.6,0-1.1-0.1-1.5-0.4
				C132.7,376.2,132.5,375.8,132.4,375.3z"/>
			<path class="st12" d="M141.1,376.7l-1.5-4.9h0.9l0.8,2.8l0.3,1.1c0-0.1,0.1-0.4,0.3-1l0.8-2.9h0.9l0.7,2.9l0.2,0.9l0.3-1l0.8-2.9
				h0.8l-1.5,4.9H144l-0.8-3l-0.2-0.8l-1,3.8h-0.9V376.7z"/>
			<path class="st12" d="M150.4,375.2l0.9,0.1c-0.1,0.5-0.4,0.9-0.8,1.2c-0.4,0.3-0.8,0.4-1.4,0.4c-0.7,0-1.3-0.2-1.7-0.7
				c-0.4-0.4-0.6-1.1-0.6-1.9s0.2-1.5,0.6-1.9c0.4-0.5,1-0.7,1.7-0.7s1.2,0.2,1.6,0.7c0.4,0.4,0.6,1.1,0.6,1.9c0,0,0,0.1,0,0.2h-3.7
				c0,0.5,0.2,1,0.5,1.2c0.3,0.3,0.6,0.4,1,0.4c0.3,0,0.6-0.1,0.8-0.2C150.1,375.8,150.3,375.5,150.4,375.2z M147.7,373.8h2.8
				c0-0.4-0.1-0.7-0.3-0.9c-0.3-0.3-0.6-0.5-1-0.5s-0.7,0.1-1,0.4C147.8,373,147.7,373.4,147.7,373.8z"/>
			<path class="st12" d="M152.3,376.7v-4.9h0.8v0.7c0.2-0.3,0.4-0.6,0.5-0.7c0.2-0.1,0.3-0.2,0.5-0.2c0.3,0,0.6,0.1,0.9,0.3
				l-0.3,0.8c-0.2-0.1-0.4-0.2-0.6-0.2c-0.2,0-0.3,0.1-0.5,0.2s-0.2,0.3-0.3,0.5c-0.1,0.3-0.1,0.6-0.1,1v2.6L152.3,376.7
				L152.3,376.7z"/>
			<path class="st12" d="M158.8,375.2l0.9,0.1c-0.1,0.5-0.4,0.9-0.8,1.2c-0.4,0.3-0.8,0.4-1.4,0.4c-0.7,0-1.3-0.2-1.7-0.7
				c-0.4-0.4-0.6-1.1-0.6-1.9s0.2-1.5,0.6-1.9c0.4-0.5,1-0.7,1.7-0.7s1.2,0.2,1.6,0.7c0.4,0.4,0.6,1.1,0.6,1.9c0,0,0,0.1,0,0.2H156
				c0,0.5,0.2,1,0.5,1.2c0.3,0.3,0.6,0.4,1,0.4c0.3,0,0.6-0.1,0.8-0.2C158.5,375.8,158.7,375.5,158.8,375.2z M156.1,373.8h2.8
				c0-0.4-0.1-0.7-0.3-0.9c-0.3-0.3-0.6-0.5-1-0.5s-0.7,0.1-1,0.4C156.3,373,156.1,373.4,156.1,373.8z"/>
			<path class="st12" d="M166.3,376.7h-0.8v-5.3c-0.2,0.2-0.5,0.4-0.8,0.6s-0.6,0.3-0.9,0.4v-0.8c0.5-0.2,0.9-0.5,1.2-0.8
				s0.6-0.6,0.7-0.9h0.5v6.8H166.3z"/>
			<path class="st12" d="M168.5,370.8V370h4.4v0.7c-0.4,0.5-0.9,1.1-1.3,1.8c-0.4,0.8-0.8,1.5-1,2.4c-0.2,0.6-0.3,1.2-0.3,1.9h-0.9
				c0-0.5,0.1-1.2,0.3-1.9c0.2-0.8,0.5-1.5,0.9-2.2s0.8-1.3,1.2-1.8h-3.3V370.8z"/>
			<path class="st12" d="M178.1,371.6l-0.8,0.1c-0.1-0.3-0.2-0.6-0.3-0.7c-0.2-0.2-0.5-0.4-0.8-0.4s-0.5,0.1-0.7,0.2
				c-0.3,0.2-0.5,0.5-0.6,0.8c-0.2,0.4-0.2,0.9-0.2,1.6c0.2-0.3,0.4-0.5,0.7-0.7c0.3-0.1,0.6-0.2,0.9-0.2c0.6,0,1,0.2,1.4,0.6
				s0.6,0.9,0.6,1.6c0,0.4-0.1,0.8-0.3,1.2c-0.2,0.4-0.4,0.6-0.8,0.8c-0.3,0.2-0.7,0.3-1.1,0.3c-0.7,0-1.3-0.3-1.7-0.8
				s-0.7-1.4-0.7-2.5c0-1.3,0.2-2.3,0.7-2.9c0.4-0.5,1-0.8,1.7-0.8c0.5,0,1,0.2,1.3,0.5C177.8,370.7,178,371.1,178.1,371.6z
				 M174.7,374.5c0,0.3,0.1,0.6,0.2,0.8c0.1,0.3,0.3,0.5,0.5,0.6s0.5,0.2,0.7,0.2c0.4,0,0.7-0.1,0.9-0.4c0.3-0.3,0.4-0.7,0.4-1.2
				s-0.1-0.8-0.4-1.1c-0.2-0.3-0.6-0.4-0.9-0.4c-0.4,0-0.7,0.1-1,0.4C174.8,373.7,174.7,374.1,174.7,374.5z"/>
			<path class="st12" d="M181.9,376.7v-4.9h0.7v0.7c0.2-0.2,0.4-0.4,0.6-0.6c0.3-0.1,0.5-0.2,0.9-0.2s0.7,0.1,0.9,0.2
				s0.4,0.4,0.5,0.6c0.4-0.6,0.9-0.9,1.5-0.9c0.5,0,0.9,0.1,1.1,0.4c0.3,0.3,0.4,0.7,0.4,1.3v3.4h-0.8v-3.1c0-0.3,0-0.6-0.1-0.7
				s-0.2-0.3-0.3-0.4s-0.3-0.1-0.5-0.1c-0.3,0-0.6,0.1-0.9,0.3c-0.2,0.2-0.3,0.6-0.3,1.1v2.9h-0.8v-3.2c0-0.4-0.1-0.6-0.2-0.8
				c-0.1-0.2-0.4-0.3-0.7-0.3c-0.2,0-0.5,0.1-0.7,0.2s-0.3,0.3-0.4,0.5s-0.1,0.6-0.1,1v2.6H181.9z"/>
			<path class="st12" d="M189.8,370.9v-1h0.8v1H189.8z M189.8,376.7v-4.9h0.8v4.9H189.8z"/>
			<path class="st12" d="M191.9,376.7v-6.8h0.8v6.8H191.9z"/>
			<path class="st12" d="M194,376.7v-6.8h0.8v6.8H194z"/>
			<path class="st12" d="M196.2,370.9v-1h0.8v1H196.2z M196.2,376.7v-4.9h0.8v4.9H196.2z"/>
			<path class="st12" d="M198,374.3c0-0.9,0.3-1.6,0.8-2c0.4-0.4,0.9-0.5,1.5-0.5c0.7,0,1.2,0.2,1.7,0.7c0.4,0.4,0.6,1.1,0.6,1.8
				c0,0.6-0.1,1.1-0.3,1.5s-0.5,0.6-0.8,0.8c-0.4,0.2-0.8,0.3-1.2,0.3c-0.7,0-1.2-0.2-1.7-0.7C198.2,375.8,198,375.1,198,374.3z
				 M198.8,374.3c0,0.6,0.1,1.1,0.4,1.4c0.3,0.3,0.6,0.5,1,0.5s0.8-0.2,1-0.5s0.4-0.8,0.4-1.4s-0.1-1.1-0.4-1.4
				c-0.3-0.3-0.6-0.5-1-0.5s-0.8,0.2-1,0.5C199,373.2,198.8,373.7,198.8,374.3z"/>
			<path class="st12" d="M203.6,376.7v-4.9h0.8v0.7c0.4-0.5,0.9-0.8,1.6-0.8c0.3,0,0.6,0.1,0.8,0.2s0.4,0.2,0.6,0.4
				c0.1,0.2,0.2,0.4,0.3,0.6c0,0.2,0,0.4,0,0.8v3h-0.8v-3c0-0.3,0-0.6-0.1-0.8c-0.1-0.2-0.2-0.3-0.3-0.4c-0.2-0.1-0.4-0.2-0.6-0.2
				c-0.4,0-0.7,0.1-0.9,0.3c-0.3,0.2-0.4,0.7-0.4,1.3v2.7L203.6,376.7L203.6,376.7z"/>
			<path class="st12" d="M211.5,370.9v-1h0.8v1H211.5z M211.5,376.7v-4.9h0.8v4.9H211.5z"/>
			<path class="st12" d="M213.6,376.7v-4.9h0.8v0.7c0.4-0.5,0.9-0.8,1.6-0.8c0.3,0,0.6,0.1,0.8,0.2s0.4,0.2,0.6,0.4
				c0.1,0.2,0.2,0.4,0.3,0.6c0,0.2,0,0.4,0,0.8v3h-0.8v-3c0-0.3,0-0.6-0.1-0.8c-0.1-0.2-0.2-0.3-0.3-0.4c-0.2-0.1-0.4-0.2-0.6-0.2
				c-0.4,0-0.7,0.1-0.9,0.3c-0.3,0.2-0.4,0.7-0.4,1.3v2.7L213.6,376.7L213.6,376.7z"/>
			<path class="st12" d="M223.3,376l0.1,0.7c-0.2,0-0.4,0.1-0.6,0.1c-0.3,0-0.5,0-0.7-0.1s-0.3-0.2-0.4-0.4s-0.1-0.5-0.1-1v-2.8H221
				v-0.7h0.6v-1.2l0.8-0.5v1.7h0.8v0.7h-0.8v2.9c0,0.2,0,0.4,0,0.5s0.1,0.1,0.1,0.2s0.2,0.1,0.3,0.1C223.1,376,223.2,376,223.3,376z
				"/>
			<path class="st12" d="M224.2,376.7v-6.8h0.8v2.4c0.4-0.5,0.9-0.7,1.5-0.7c0.4,0,0.7,0.1,1,0.2s0.5,0.3,0.6,0.6s0.2,0.6,0.2,1.1
				v3.1h-0.8v-3.1c0-0.4-0.1-0.7-0.3-0.9c-0.2-0.2-0.4-0.3-0.8-0.3c-0.2,0-0.5,0.1-0.7,0.2s-0.4,0.3-0.5,0.5s-0.1,0.5-0.1,0.9v2.7
				L224.2,376.7L224.2,376.7z"/>
			<path class="st12" d="M232.8,375.2l0.9,0.1c-0.1,0.5-0.4,0.9-0.8,1.2c-0.4,0.3-0.8,0.4-1.4,0.4c-0.7,0-1.3-0.2-1.7-0.7
				c-0.4-0.4-0.6-1.1-0.6-1.9s0.2-1.5,0.6-1.9c0.4-0.5,1-0.7,1.7-0.7s1.2,0.2,1.6,0.7c0.4,0.4,0.6,1.1,0.6,1.9c0,0,0,0.1,0,0.2H230
				c0,0.5,0.2,1,0.5,1.2c0.3,0.3,0.6,0.4,1,0.4c0.3,0,0.6-0.1,0.8-0.2C232.5,375.8,232.7,375.5,232.8,375.2z M230.1,373.8h2.8
				c0-0.4-0.1-0.7-0.3-0.9c-0.3-0.3-0.6-0.5-1-0.5s-0.7,0.1-1,0.4C230.3,373,230.1,373.4,230.1,373.8z"/>
			<path class="st12" d="M239.4,376.7l-2.6-6.8h1l1.8,4.9c0.1,0.4,0.3,0.8,0.4,1.1c0.1-0.4,0.2-0.7,0.4-1.1l1.8-4.9h0.9l-2.7,6.8
				H239.4z"/>
			<path class="st12" d="M243.6,370.9v-1h0.8v1H243.6z M243.6,376.7v-4.9h0.8v4.9H243.6z"/>
			<path class="st12" d="M245.7,376.7v-4.9h0.8v0.7c0.4-0.5,0.9-0.8,1.6-0.8c0.3,0,0.6,0.1,0.8,0.2s0.4,0.2,0.6,0.4
				c0.1,0.2,0.2,0.4,0.3,0.6c0,0.2,0,0.4,0,0.8v3H249v-3c0-0.3,0-0.6-0.1-0.8c-0.1-0.2-0.2-0.3-0.3-0.4c-0.2-0.1-0.4-0.2-0.6-0.2
				c-0.4,0-0.7,0.1-0.9,0.3c-0.3,0.2-0.4,0.7-0.4,1.3v2.7L245.7,376.7L245.7,376.7z"/>
			<path class="st12" d="M250.9,378.6l-0.1-0.8c0.2,0,0.3,0.1,0.5,0.1s0.3,0,0.4-0.1c0.1-0.1,0.2-0.1,0.3-0.3
				c0.1-0.1,0.1-0.3,0.3-0.6c0,0,0-0.1,0.1-0.2l-1.9-4.9h0.9l1,2.9c0.1,0.4,0.3,0.7,0.4,1.1c0.1-0.4,0.2-0.8,0.3-1.1l1.1-2.9h0.8
				l-1.9,5c-0.2,0.5-0.4,0.9-0.5,1.1c-0.1,0.3-0.3,0.5-0.5,0.6s-0.4,0.2-0.7,0.2C251.3,378.7,251.1,378.7,250.9,378.6z"/>
			<path class="st12" d="M255.7,376.7v-6.8h0.8v6.8H255.7z"/>
			<path class="st12" d="M260.5,376.7v-6.8h2.6c0.5,0,0.9,0.1,1.3,0.2c0.3,0.1,0.6,0.4,0.7,0.6s0.3,0.6,0.3,0.9s-0.1,0.6-0.2,0.8
				c-0.2,0.3-0.4,0.5-0.7,0.6c0.4,0.1,0.7,0.3,0.9,0.6c0.2,0.3,0.3,0.6,0.3,1c0,0.3-0.1,0.6-0.2,0.9s-0.3,0.5-0.5,0.6
				s-0.4,0.3-0.7,0.3c-0.3,0.1-0.7,0.1-1.1,0.1h-2.7V376.7z M261.4,372.8h1.5c0.4,0,0.7,0,0.9-0.1c0.2-0.1,0.4-0.2,0.5-0.3
				s0.2-0.4,0.2-0.6s-0.1-0.4-0.2-0.6s-0.3-0.3-0.5-0.4s-0.5-0.1-1-0.1h-1.4V372.8z M261.4,375.9h1.7c0.3,0,0.5,0,0.6,0
				c0.2,0,0.4-0.1,0.5-0.2s0.3-0.2,0.3-0.4c0.1-0.2,0.1-0.4,0.1-0.6c0-0.3-0.1-0.5-0.2-0.7s-0.3-0.3-0.5-0.4s-0.6-0.1-1-0.1h-1.6
				v2.4H261.4z"/>
			<path class="st12" d="M270.1,374.1v-0.8h2.9v2.5c-0.4,0.4-0.9,0.6-1.4,0.8c-0.5,0.2-1,0.3-1.4,0.3c-0.7,0-1.3-0.1-1.8-0.4
				s-1-0.7-1.2-1.2c-0.3-0.5-0.4-1.1-0.4-1.8c0-0.7,0.1-1.3,0.4-1.9s0.7-1,1.2-1.3s1.1-0.4,1.8-0.4c0.5,0,0.9,0.1,1.3,0.2
				s0.7,0.4,0.9,0.7c0.2,0.3,0.4,0.7,0.5,1.1l-0.8,0.2c-0.1-0.3-0.2-0.6-0.4-0.8c-0.2-0.2-0.4-0.4-0.6-0.5c-0.3-0.1-0.6-0.2-0.9-0.2
				c-0.4,0-0.8,0.1-1.1,0.2c-0.3,0.1-0.5,0.3-0.7,0.5s-0.3,0.4-0.4,0.7c-0.2,0.4-0.3,0.9-0.3,1.4c0,0.6,0.1,1.1,0.3,1.5
				c0.2,0.4,0.5,0.7,0.9,0.9c0.4,0.2,0.8,0.3,1.3,0.3c0.4,0,0.8-0.1,1.1-0.2c0.4-0.2,0.7-0.3,0.8-0.5v-1.3L270.1,374.1L270.1,374.1z
				"/>
			<path class="st12" d="M274.7,378.7h-0.6c0.9-1.5,1.4-3,1.4-4.5c0-0.6-0.1-1.2-0.2-1.7s-0.3-0.9-0.4-1.3c-0.1-0.3-0.4-0.7-0.7-1.4
				h0.6c0.6,0.8,1,1.6,1.3,2.3c0.2,0.7,0.4,1.4,0.4,2.1c0,0.8-0.2,1.6-0.5,2.4C275.6,377.5,275.2,378.2,274.7,378.7z"/>
		</g>
		<g>
			<g>
				<g>
					<path class="st12" d="M143.1,408.3v-7.9h5.4v1.3h-3.8v1.9h3.3v1.3h-3.3v3.3h-1.6V408.3z"/>
					<path class="st12" d="M149.8,408.3v-7.9h1.5v7.9H149.8z"/>
					<path class="st12" d="M156.6,408.3v-0.9c-0.2,0.3-0.5,0.5-0.8,0.7s-0.7,0.3-1.1,0.3c-0.4,0-0.7-0.1-1-0.3s-0.5-0.4-0.7-0.7
						s-0.2-0.7-0.2-1.3v-3.6h1.5v2.6c0,0.8,0,1.3,0.1,1.5s0.2,0.3,0.3,0.4s0.3,0.2,0.6,0.2s0.5-0.1,0.7-0.2s0.3-0.3,0.4-0.5
						s0.1-0.7,0.1-1.5v-2.4h1.5v5.7L156.6,408.3L156.6,408.3z"/>
					<path class="st12" d="M162.8,406.5l1.5,0.3c-0.2,0.5-0.5,1-0.9,1.3s-0.9,0.4-1.6,0.4c-1,0-1.7-0.3-2.2-1
						c-0.4-0.5-0.6-1.2-0.6-2c0-0.9,0.2-1.7,0.7-2.2s1.1-0.8,1.9-0.8c0.8,0,1.5,0.3,2,0.8c0.5,0.6,0.7,1.4,0.7,2.6h-3.8
						c0,0.4,0.1,0.8,0.4,1c0.2,0.2,0.5,0.4,0.9,0.4c0.2,0,0.4-0.1,0.6-0.2C162.6,407,162.8,406.7,162.8,406.5z M162.9,404.9
						c0-0.4-0.1-0.8-0.3-1s-0.5-0.3-0.8-0.3s-0.6,0.1-0.8,0.4c-0.2,0.2-0.3,0.6-0.3,1h2.2V404.9z"/>
					<path class="st12" d="M170.8,408.3h-1.5v-2.9c0-0.6,0-1-0.1-1.2s-0.2-0.3-0.3-0.4s-0.3-0.1-0.5-0.1c-0.3,0-0.5,0.1-0.7,0.2
						s-0.3,0.3-0.4,0.6c-0.1,0.2-0.1,0.7-0.1,1.3v2.6h-1.5v-5.7h1.4v0.8c0.5-0.6,1.1-1,1.9-1c0.3,0,0.6,0.1,0.9,0.2
						c0.3,0.1,0.5,0.3,0.6,0.5s0.2,0.4,0.3,0.6s0.1,0.6,0.1,1L170.8,408.3L170.8,408.3z"/>
					<path class="st12" d="M175,402.6v1.2h-1v2.3c0,0.5,0,0.7,0,0.8c0,0.1,0.1,0.1,0.1,0.2c0.1,0,0.2,0.1,0.3,0.1s0.3,0,0.6-0.1
						l0.1,1.2c-0.4,0.2-0.7,0.2-1.2,0.2c-0.3,0-0.5,0-0.7-0.1s-0.4-0.2-0.5-0.4c-0.1-0.1-0.2-0.3-0.2-0.6c0-0.2,0-0.5,0-1.1v-2.5
						h-0.7v-1.2h0.7v-1.1l1.5-0.9v2H175z"/>
				</g>
			</g>
			<g>
				<g>
					<path class="st12" d="M228.1,408.3v-7.9h5.4v1.3h-3.8v1.9h3.3v1.3h-3.3v3.3h-1.6V408.3z"/>
					<path class="st12" d="M234.8,408.3v-7.9h1.5v7.9H234.8z"/>
					<path class="st12" d="M241.6,408.3v-0.9c-0.2,0.3-0.5,0.5-0.8,0.7s-0.7,0.3-1.1,0.3c-0.4,0-0.7-0.1-1-0.3s-0.5-0.4-0.7-0.7
						s-0.2-0.7-0.2-1.3v-3.6h1.5v2.6c0,0.8,0,1.3,0.1,1.5s0.2,0.3,0.3,0.4s0.3,0.2,0.6,0.2s0.5-0.1,0.7-0.2s0.3-0.3,0.4-0.5
						s0.1-0.7,0.1-1.5v-2.4h1.5v5.7L241.6,408.3L241.6,408.3z"/>
					<path class="st12" d="M244.2,405.3c0-0.5,0.1-1,0.4-1.5c0.2-0.5,0.6-0.8,1-1.1c0.5-0.2,1-0.4,1.5-0.4c0.9,0,1.6,0.3,2.1,0.8
						c0.5,0.6,0.8,1.3,0.8,2.1c0,0.9-0.3,1.6-0.8,2.1s-1.3,0.8-2.1,0.8c-0.5,0-1-0.1-1.5-0.4c-0.5-0.2-0.8-0.6-1.1-1
						C244.3,406.6,244.2,406,244.2,405.3z M245.7,405.4c0,0.6,0.1,1,0.4,1.3c0.3,0.3,0.6,0.5,1,0.5s0.7-0.2,1-0.5s0.4-0.7,0.4-1.3
						c0-0.6-0.1-1-0.4-1.3c-0.3-0.3-0.6-0.5-1-0.5s-0.7,0.1-1,0.5C245.9,404.4,245.7,404.9,245.7,405.4z"/>
					<path class="st12" d="M252.7,408.3h-1.5v-5.7h1.4v0.8c0.2-0.4,0.5-0.6,0.6-0.8c0.2-0.1,0.4-0.2,0.7-0.2s0.7,0.1,1,0.3l-0.5,1.3
						c-0.3-0.2-0.5-0.2-0.7-0.2s-0.4,0.1-0.5,0.2s-0.3,0.3-0.3,0.6s-0.1,0.9-0.1,1.9L252.7,408.3L252.7,408.3z"/>
				</g>
			</g>
			<g>
				<g>
					<g>
						<path class="st12" d="M56.7,408.3l-2.8-7.9h1.7l2,5.8l1.9-5.8h1.7l-2.8,7.9H56.7z"/>
						<path class="st12" d="M61.8,401.8v-1.4h1.5v1.4H61.8z M61.8,408.3v-5.7h1.5v5.7H61.8z"/>
						<path class="st12" d="M70,408.3h-1.5v-2.9c0-0.6,0-1-0.1-1.2s-0.2-0.3-0.3-0.4c-0.1-0.1-0.3-0.1-0.5-0.1
							c-0.3,0-0.5,0.1-0.7,0.2s-0.3,0.3-0.4,0.6c-0.1,0.2-0.1,0.7-0.1,1.3v2.6h-1.5v-5.7h1.4v0.8c0.5-0.6,1.1-1,1.9-1
							c0.3,0,0.6,0.1,0.9,0.2s0.5,0.3,0.6,0.5s0.2,0.4,0.3,0.6c0.1,0.2,0.1,0.6,0.1,1v3.5H70z"/>
						<path class="st12" d="M70.8,402.6h1.6l1.4,4l1.3-4h1.6l-2,5.5l-0.4,1c-0.1,0.3-0.3,0.6-0.4,0.8c-0.1,0.2-0.3,0.3-0.4,0.4
							c-0.2,0.1-0.3,0.2-0.6,0.3c-0.2,0.1-0.5,0.1-0.8,0.1s-0.6,0-0.9-0.1l-0.1-1.2c0.2,0,0.4,0.1,0.6,0.1c0.4,0,0.6-0.1,0.8-0.3
							c0.2-0.2,0.3-0.5,0.4-0.8L70.8,402.6z"/>
						<path class="st12" d="M77.6,408.3v-7.9h1.5v7.9H77.6z"/>
					</g>
				</g>
				<path class="st1" d="M42.9,414.7H30c-2.1,0-3.8-1.7-3.8-3.8V398c0-2.1,1.7-3.8,3.8-3.8h12.9c2.1,0,3.8,1.7,3.8,3.8v12.9
					C46.7,413,45,414.7,42.9,414.7z"/>
			</g>
			<path class="st2" d="M132.1,414.7h-12.9c-2.1,0-3.8-1.7-3.8-3.8V398c0-2.1,1.7-3.8,3.8-3.8h12.9c2.1,0,3.8,1.7,3.8,3.8v12.9
				C135.9,413,134.2,414.7,132.1,414.7z"/>
			<path class="st3" d="M217.3,414.7h-12.9c-2.1,0-3.8-1.7-3.8-3.8V398c0-2.1,1.7-3.8,3.8-3.8h12.9c2.1,0,3.8,1.7,3.8,3.8v12.9
				C221.1,413,219.4,414.7,217.3,414.7z"/>
		</g>
	</g>
	<g>
		<g>
			<circle class="st4" cx="90.1" cy="31.6" r="31.5"/>
		</g>
		<g>
			
				<radialGradient id="SVGID_8_" cx="105.0078" cy="400.4217" r="31.5843" gradientTransform="matrix(1 0 0 -1 0 418)" gradientUnits="userSpaceOnUse">
				<stop  offset="0" style="stop-color:#FFFFFF"/>
				<stop  offset="0.5053" style="stop-color:#FDFDFE"/>
				<stop  offset="0.6873" style="stop-color:#F6F8F9"/>
				<stop  offset="0.817" style="stop-color:#EBEDF0"/>
				<stop  offset="0.9211" style="stop-color:#DADFE3"/>
				<stop  offset="1" style="stop-color:#C7CFD5"/>
			</radialGradient>
			<circle class="st13" cx="90.2" cy="31.6" r="31.6"/>
			
				<radialGradient id="SVGID_9_" cx="105.5968" cy="402.2244" r="36.8538" gradientTransform="matrix(1 0 0 -1 0 418)" gradientUnits="userSpaceOnUse">
				<stop  offset="0" style="stop-color:#F6F7F8"/>
				<stop  offset="0.4318" style="stop-color:#F4F5F6"/>
				<stop  offset="0.6764" style="stop-color:#EBEEF0"/>
				<stop  offset="0.8736" style="stop-color:#DEE2E6"/>
				<stop  offset="1" style="stop-color:#D0D7DC"/>
			</radialGradient>
			<circle class="st14" cx="90.2" cy="31.6" r="31.3"/>
			
				<radialGradient id="SVGID_10_" cx="106.1703" cy="403.9864" r="42.3249" gradientTransform="matrix(1 0 0 -1 0 418)" gradientUnits="userSpaceOnUse">
				<stop  offset="0" style="stop-color:#ECEFF1"/>
				<stop  offset="0.4869" style="stop-color:#E9ECEE"/>
				<stop  offset="0.8802" style="stop-color:#DFE3E7"/>
				<stop  offset="1" style="stop-color:#DADFE3"/>
			</radialGradient>
			<circle class="st15" cx="90.2" cy="31.6" r="30.9"/>
			
				<radialGradient id="SVGID_11_" cx="106.7284" cy="405.7078" r="47.9939" gradientTransform="matrix(1 0 0 -1 0 418)" gradientUnits="userSpaceOnUse">
				<stop  offset="0" style="stop-color:#E3E7EA"/>
				<stop  offset="1" style="stop-color:#E3E7EA"/>
			</radialGradient>
			<circle class="st16" cx="90.2" cy="31.6" r="30.6"/>
			
				<radialGradient id="SVGID_12_" cx="107.2709" cy="407.3885" r="53.8563" gradientTransform="matrix(1 0 0 -1 0 418)" gradientUnits="userSpaceOnUse">
				<stop  offset="0" style="stop-color:#DADFE3"/>
				<stop  offset="0.5245" style="stop-color:#E1E5E8"/>
				<stop  offset="1" style="stop-color:#ECEFF1"/>
			</radialGradient>
			<circle class="st17" cx="90.2" cy="31.6" r="30.3"/>
			
				<radialGradient id="SVGID_13_" cx="107.7979" cy="409.0285" r="59.9066" gradientTransform="matrix(1 0 0 -1 0 418)" gradientUnits="userSpaceOnUse">
				<stop  offset="0" style="stop-color:#D0D7DC"/>
				<stop  offset="0.433" style="stop-color:#DEE3E6"/>
				<stop  offset="1" style="stop-color:#F6F7F8"/>
			</radialGradient>
			<circle class="st18" cx="90.2" cy="31.6" r="30"/>
			
				<radialGradient id="SVGID_14_" cx="108.3095" cy="410.6279" r="66.1383" gradientTransform="matrix(1 0 0 -1 0 418)" gradientUnits="userSpaceOnUse">
				<stop  offset="0" style="stop-color:#C7CFD5"/>
				<stop  offset="1" style="stop-color:#FFFFFF"/>
			</radialGradient>
			<circle class="st19" cx="90.2" cy="31.6" r="29.6"/>
		</g>
	</g>
	<g>
		<g>
			<path class="st12" d="M81.7,37.8h-2.3V29c-0.9,0.8-1.9,1.4-3,1.8v-2.1c0.6-0.2,1.3-0.6,2-1.1c0.7-0.6,1.2-1.2,1.5-1.9h1.9
				L81.7,37.8L81.7,37.8z"/>
			<path class="st12" d="M93,35.6v2.2h-8.2c0.1-0.8,0.4-1.6,0.8-2.3s1.3-1.7,2.6-2.9c1.1-1,1.7-1.6,1.9-2c0.3-0.5,0.5-1,0.5-1.4
				c0-0.5-0.1-0.9-0.4-1.2s-0.7-0.4-1.2-0.4s-0.9,0.1-1.2,0.4s-0.5,0.8-0.5,1.5L85,29.3c0.1-1.3,0.6-2.2,1.3-2.8
				c0.7-0.6,1.6-0.8,2.7-0.8c1.2,0,2.1,0.3,2.8,1c0.7,0.6,1,1.5,1,2.4c0,0.5-0.1,1.1-0.3,1.6s-0.5,1-0.9,1.6
				c-0.3,0.4-0.8,0.9-1.5,1.6c-0.7,0.7-1.2,1.1-1.4,1.3c-0.2,0.2-0.4,0.4-0.5,0.6H93V35.6z"/>
			<path class="st12" d="M94.6,28.6c0-1.1,0.2-1.9,0.7-2.4s1.1-0.8,1.9-0.8s1.5,0.3,2,0.8s0.7,1.3,0.7,2.4s-0.2,1.9-0.7,2.4
				s-1.1,0.8-1.9,0.8s-1.5-0.3-2-0.8C94.8,30.5,94.6,29.7,94.6,28.6z M96.4,28.6c0,0.8,0.1,1.3,0.3,1.6c0.1,0.2,0.3,0.3,0.6,0.3
				c0.2,0,0.4-0.1,0.6-0.3c0.2-0.3,0.3-0.8,0.3-1.6S98,27.3,97.9,27c-0.1-0.2-0.3-0.3-0.6-0.3c-0.2,0-0.4,0.1-0.6,0.3
				C96.5,27.3,96.4,27.8,96.4,28.6z M99.1,38.3h-1.7l6.5-12.8h1.7L99.1,38.3z M102.8,35.1c0-1.1,0.2-1.9,0.7-2.4s1.1-0.8,2-0.8
				c0.8,0,1.5,0.3,2,0.8s0.7,1.3,0.7,2.4c0,1.1-0.2,1.9-0.7,2.4s-1.1,0.8-1.9,0.8s-1.5-0.3-2-0.8S102.8,36.2,102.8,35.1z M104.6,35
				c0,0.8,0.1,1.3,0.3,1.6c0.1,0.2,0.3,0.3,0.6,0.3c0.2,0,0.4-0.1,0.6-0.3c0.2-0.3,0.3-0.8,0.3-1.6s-0.1-1.3-0.3-1.6
				c-0.1-0.2-0.3-0.3-0.6-0.3c-0.2,0-0.4,0.1-0.6,0.3C104.7,33.7,104.6,34.3,104.6,35z"/>
		</g>
	</g>
	<g>
		<g>
			<circle class="st4" cx="269.9" cy="94.3" r="31.5"/>
		</g>
		<g>
			
				<radialGradient id="SVGID_15_" cx="284.8553" cy="337.7504" r="31.5843" gradientTransform="matrix(1 0 0 -1 0 418)" gradientUnits="userSpaceOnUse">
				<stop  offset="0" style="stop-color:#FFFFFF"/>
				<stop  offset="0.5053" style="stop-color:#FDFDFE"/>
				<stop  offset="0.6873" style="stop-color:#F6F8F9"/>
				<stop  offset="0.817" style="stop-color:#EBEDF0"/>
				<stop  offset="0.9211" style="stop-color:#DADFE3"/>
				<stop  offset="1" style="stop-color:#C7CFD5"/>
			</radialGradient>
			<circle class="st20" cx="270" cy="94.3" r="31.6"/>
			
				<radialGradient id="SVGID_16_" cx="285.4443" cy="339.553" r="36.8538" gradientTransform="matrix(1 0 0 -1 0 418)" gradientUnits="userSpaceOnUse">
				<stop  offset="0" style="stop-color:#F6F7F8"/>
				<stop  offset="0.4318" style="stop-color:#F4F5F6"/>
				<stop  offset="0.6764" style="stop-color:#EBEEF0"/>
				<stop  offset="0.8736" style="stop-color:#DEE2E6"/>
				<stop  offset="1" style="stop-color:#D0D7DC"/>
			</radialGradient>
			<circle class="st21" cx="270" cy="94.3" r="31.3"/>
			
				<radialGradient id="SVGID_17_" cx="286.0179" cy="341.315" r="42.3185" gradientTransform="matrix(1 0 0 -1 0 418)" gradientUnits="userSpaceOnUse">
				<stop  offset="0" style="stop-color:#ECEFF1"/>
				<stop  offset="0.4869" style="stop-color:#E9ECEE"/>
				<stop  offset="0.8802" style="stop-color:#DFE3E7"/>
				<stop  offset="1" style="stop-color:#DADFE3"/>
			</radialGradient>
			<circle class="st22" cx="270" cy="94.3" r="30.9"/>
			
				<radialGradient id="SVGID_18_" cx="286.5759" cy="343.0364" r="47.9939" gradientTransform="matrix(1 0 0 -1 0 418)" gradientUnits="userSpaceOnUse">
				<stop  offset="0" style="stop-color:#E3E7EA"/>
				<stop  offset="1" style="stop-color:#E3E7EA"/>
			</radialGradient>
			<circle class="st23" cx="270" cy="94.3" r="30.6"/>
			
				<radialGradient id="SVGID_19_" cx="287.1184" cy="344.7171" r="53.8563" gradientTransform="matrix(1 0 0 -1 0 418)" gradientUnits="userSpaceOnUse">
				<stop  offset="0" style="stop-color:#DADFE3"/>
				<stop  offset="0.5245" style="stop-color:#E1E5E8"/>
				<stop  offset="1" style="stop-color:#ECEFF1"/>
			</radialGradient>
			<circle class="st24" cx="270" cy="94.3" r="30.3"/>
			
				<radialGradient id="SVGID_20_" cx="287.6454" cy="346.3571" r="59.9066" gradientTransform="matrix(1 0 0 -1 0 418)" gradientUnits="userSpaceOnUse">
				<stop  offset="0" style="stop-color:#D0D7DC"/>
				<stop  offset="0.433" style="stop-color:#DEE3E6"/>
				<stop  offset="1" style="stop-color:#F6F7F8"/>
			</radialGradient>
			<circle class="st25" cx="270" cy="94.3" r="30"/>
			
				<radialGradient id="SVGID_21_" cx="288.157" cy="347.9565" r="66.1383" gradientTransform="matrix(1 0 0 -1 0 418)" gradientUnits="userSpaceOnUse">
				<stop  offset="0" style="stop-color:#C7CFD5"/>
				<stop  offset="1" style="stop-color:#FFFFFF"/>
			</radialGradient>
			<circle class="st26" cx="270" cy="94.3" r="29.6"/>
		</g>
	</g>
	<g>
		<g>
			<path class="st12" d="M253.7,97l2.3-0.3c0.1,0.6,0.3,1,0.6,1.3c0.3,0.3,0.7,0.5,1.1,0.5c0.5,0,0.9-0.2,1.2-0.5s0.5-0.9,0.5-1.5
				s-0.2-1.1-0.5-1.4s-0.7-0.5-1.2-0.5c-0.3,0-0.7,0.1-1.1,0.2l0.3-1.9c0.6,0,1.1-0.1,1.4-0.4s0.5-0.7,0.5-1.2c0-0.4-0.1-0.7-0.4-1
				c-0.2-0.2-0.6-0.4-1-0.4s-0.7,0.1-1,0.4s-0.5,0.7-0.5,1.2l-2.1-0.4c0.1-0.7,0.4-1.3,0.7-1.8c0.3-0.4,0.7-0.8,1.3-1
				c0.5-0.3,1.1-0.4,1.8-0.4c1.1,0,2.1,0.4,2.8,1.1c0.6,0.6,0.9,1.3,0.9,2c0,1.1-0.6,1.9-1.8,2.6c0.7,0.1,1.3,0.5,1.7,1
				c0.4,0.5,0.6,1.1,0.6,1.9c0,1.1-0.4,2-1.2,2.7c-0.8,0.8-1.8,1.1-2.9,1.1s-2-0.3-2.7-1C254.2,98.8,253.8,98,253.7,97z"/>
			<path class="st12" d="M269.2,100.2h-2.3v-8.8c-0.9,0.8-1.9,1.4-3,1.8V91c0.6-0.2,1.3-0.6,2-1.1c0.7-0.6,1.2-1.2,1.5-1.9h1.9v12.2
				H269.2z"/>
			<path class="st12" d="M272.7,91c0-1.1,0.2-1.9,0.7-2.4s1.1-0.8,1.9-0.8s1.5,0.3,2,0.8s0.7,1.3,0.7,2.4s-0.2,1.9-0.7,2.4
				s-1.1,0.8-1.9,0.8s-1.5-0.3-2-0.8C272.9,92.9,272.7,92.1,272.7,91z M274.5,91c0,0.8,0.1,1.3,0.3,1.6c0.1,0.2,0.3,0.3,0.6,0.3
				c0.2,0,0.4-0.1,0.6-0.3c0.2-0.3,0.3-0.8,0.3-1.6s-0.1-1.3-0.3-1.6c-0.1-0.2-0.3-0.3-0.6-0.3c-0.2,0-0.4,0.1-0.6,0.3
				C274.6,89.7,274.5,90.2,274.5,91z M277.1,100.7h-1.7l6.5-12.8h1.7L277.1,100.7z M280.9,97.5c0-1.1,0.2-1.9,0.7-2.4s1.1-0.8,2-0.8
				c0.8,0,1.5,0.3,2,0.8s0.7,1.3,0.7,2.4s-0.2,1.9-0.7,2.4s-1.1,0.8-1.9,0.8s-1.5-0.3-2-0.8S280.9,98.6,280.9,97.5z M282.7,97.4
				c0,0.8,0.1,1.3,0.3,1.6c0.1,0.2,0.3,0.3,0.6,0.3c0.2,0,0.4-0.1,0.6-0.3c0.2-0.3,0.3-0.8,0.3-1.6s-0.1-1.3-0.3-1.6
				c-0.1-0.2-0.3-0.3-0.6-0.3c-0.2,0-0.4,0.1-0.6,0.3C282.8,96.1,282.7,96.7,282.7,97.4z"/>
		</g>
	</g>
	<g>
		<g>
			<circle class="st4" cx="38.5" cy="290.4" r="31.5"/>
		</g>
		<g>
			
				<radialGradient id="SVGID_22_" cx="53.4055" cy="141.6061" r="31.5843" gradientTransform="matrix(1 0 0 -1 0 418)" gradientUnits="userSpaceOnUse">
				<stop  offset="0" style="stop-color:#FFFFFF"/>
				<stop  offset="0.5053" style="stop-color:#FDFDFE"/>
				<stop  offset="0.6873" style="stop-color:#F6F8F9"/>
				<stop  offset="0.817" style="stop-color:#EBEDF0"/>
				<stop  offset="0.9211" style="stop-color:#DADFE3"/>
				<stop  offset="1" style="stop-color:#C7CFD5"/>
			</radialGradient>
			<circle class="st27" cx="38.6" cy="290.4" r="31.6"/>
			
				<radialGradient id="SVGID_23_" cx="53.9945" cy="143.4088" r="36.8538" gradientTransform="matrix(1 0 0 -1 0 418)" gradientUnits="userSpaceOnUse">
				<stop  offset="0" style="stop-color:#F6F7F8"/>
				<stop  offset="0.4318" style="stop-color:#F4F5F6"/>
				<stop  offset="0.6764" style="stop-color:#EBEEF0"/>
				<stop  offset="0.8736" style="stop-color:#DEE2E6"/>
				<stop  offset="1" style="stop-color:#D0D7DC"/>
			</radialGradient>
			<circle class="st28" cx="38.6" cy="290.4" r="31.3"/>
			
				<radialGradient id="SVGID_24_" cx="54.568" cy="145.1707" r="42.3249" gradientTransform="matrix(1 0 0 -1 0 418)" gradientUnits="userSpaceOnUse">
				<stop  offset="0" style="stop-color:#ECEFF1"/>
				<stop  offset="0.4869" style="stop-color:#E9ECEE"/>
				<stop  offset="0.8802" style="stop-color:#DFE3E7"/>
				<stop  offset="1" style="stop-color:#DADFE3"/>
			</radialGradient>
			<circle class="st29" cx="38.6" cy="290.4" r="30.9"/>
			
				<radialGradient id="SVGID_25_" cx="55.1261" cy="146.8921" r="47.9939" gradientTransform="matrix(1 0 0 -1 0 418)" gradientUnits="userSpaceOnUse">
				<stop  offset="0" style="stop-color:#E3E7EA"/>
				<stop  offset="1" style="stop-color:#E3E7EA"/>
			</radialGradient>
			<circle class="st30" cx="38.6" cy="290.4" r="30.6"/>
			
				<radialGradient id="SVGID_26_" cx="55.6686" cy="148.5728" r="53.8563" gradientTransform="matrix(1 0 0 -1 0 418)" gradientUnits="userSpaceOnUse">
				<stop  offset="0" style="stop-color:#DADFE3"/>
				<stop  offset="0.5245" style="stop-color:#E1E5E8"/>
				<stop  offset="1" style="stop-color:#ECEFF1"/>
			</radialGradient>
			<circle class="st31" cx="38.6" cy="290.4" r="30.3"/>
			
				<radialGradient id="SVGID_27_" cx="56.1956" cy="150.2129" r="59.9066" gradientTransform="matrix(1 0 0 -1 0 418)" gradientUnits="userSpaceOnUse">
				<stop  offset="0" style="stop-color:#D0D7DC"/>
				<stop  offset="0.433" style="stop-color:#DEE3E6"/>
				<stop  offset="1" style="stop-color:#F6F7F8"/>
			</radialGradient>
			<circle class="st32" cx="38.6" cy="290.4" r="30"/>
			
				<radialGradient id="SVGID_28_" cx="56.7072" cy="151.8122" r="66.1383" gradientTransform="matrix(1 0 0 -1 0 418)" gradientUnits="userSpaceOnUse">
				<stop  offset="0" style="stop-color:#C7CFD5"/>
				<stop  offset="1" style="stop-color:#FFFFFF"/>
			</radialGradient>
			<circle class="st33" cx="38.6" cy="290.4" r="29.6"/>
		</g>
	</g>
	<g>
		<g>
			<path class="st12" d="M22.3,294.2l2.3-0.2c0.1,0.5,0.3,0.9,0.6,1.2c0.3,0.3,0.7,0.5,1.1,0.5c0.5,0,0.9-0.2,1.2-0.6
				c0.3-0.4,0.5-1,0.5-1.8c0-0.7-0.2-1.3-0.5-1.7c-0.3-0.4-0.8-0.6-1.3-0.6c-0.7,0-1.3,0.3-1.8,0.9l-1.9-0.3l1.2-6.3H30v2.2h-4.4
				l-0.4,2.1c0.5-0.3,1.1-0.4,1.6-0.4c1,0,1.9,0.4,2.6,1.1c0.7,0.8,1.1,1.7,1.1,2.9c0,1-0.3,1.9-0.9,2.7c-0.8,1.1-1.9,1.6-3.3,1.6
				c-1.1,0-2-0.3-2.7-0.9S22.5,295.2,22.3,294.2z"/>
			<path class="st12" d="M31.8,287.5v-2.2h8v1.7c-0.7,0.6-1.3,1.6-2,2.8s-1.2,2.5-1.6,3.9c-0.4,1.4-0.5,2.6-0.5,3.7h-2.2
				c0-1.7,0.4-3.4,1-5.1c0.7-1.7,1.5-3.3,2.6-4.7L31.8,287.5L31.8,287.5z"/>
			<path class="st12" d="M41.2,288.2c0-1.1,0.2-1.9,0.7-2.4s1.1-0.8,1.9-0.8c0.8,0,1.5,0.3,2,0.8s0.7,1.3,0.7,2.4s-0.2,1.9-0.7,2.4
				s-1.1,0.8-1.9,0.8c-0.8,0-1.5-0.3-2-0.8C41.5,290.1,41.2,289.3,41.2,288.2z M43,288.2c0,0.8,0.1,1.3,0.3,1.6
				c0.1,0.2,0.3,0.3,0.6,0.3c0.2,0,0.4-0.1,0.6-0.3c0.2-0.3,0.3-0.8,0.3-1.6s-0.1-1.3-0.3-1.6c-0.1-0.2-0.3-0.3-0.6-0.3
				c-0.2,0-0.4,0.1-0.6,0.3C43.1,286.8,43,287.4,43,288.2z M45.7,297.8H44l6.5-12.8h1.7L45.7,297.8z M49.4,294.6
				c0-1.1,0.2-1.9,0.7-2.4s1.1-0.8,2-0.8c0.8,0,1.5,0.3,2,0.8s0.7,1.3,0.7,2.4s-0.2,1.9-0.7,2.4s-1.1,0.8-1.9,0.8
				c-0.8,0-1.5-0.3-2-0.8S49.4,295.7,49.4,294.6z M51.3,294.6c0,0.8,0.1,1.3,0.3,1.6c0.1,0.2,0.3,0.3,0.6,0.3c0.2,0,0.4-0.1,0.6-0.3
				c0.2-0.3,0.3-0.8,0.3-1.6s-0.1-1.3-0.3-1.6c-0.1-0.2-0.3-0.3-0.6-0.3c-0.2,0-0.4,0.1-0.6,0.3C51.3,293.3,51.3,293.8,51.3,294.6z"
				/>
		</g>
	</g>
	<linearGradient id="SVGID_29_" gradientUnits="userSpaceOnUse" x1="628.482" y1="139.6424" x2="769.712" y2="139.6424">
		<stop  offset="0" style="stop-color:#2B70B7"/>
		<stop  offset="1.606572e-02" style="stop-color:#2875BB"/>
		<stop  offset="0.1025" style="stop-color:#1C8BCB"/>
		<stop  offset="0.2046" style="stop-color:#139CD7"/>
		<stop  offset="0.3309" style="stop-color:#0CA7E0"/>
		<stop  offset="0.5081" style="stop-color:#08AEE5"/>
		<stop  offset="1" style="stop-color:#07B0E6"/>
	</linearGradient>
	<path class="st34" d="M733.1,174.6c-1-27.2-12.3-51.7-30.2-69.8C720.8,122.8,732.1,147.4,733.1,174.6z"/>
	<path class="st35" d="M733.1,174.6c-1-27.2-12.3-51.7-30.2-69.8C720.8,122.8,732.1,147.4,733.1,174.6z"/>
	<path class="st35" d="M733.1,174.6c-1-27.2-12.3-51.7-30.2-69.8C720.8,122.8,732.1,147.4,733.1,174.6z"/>
	<path class="st35" d="M733.1,174.6c-1-27.2-12.3-51.7-30.2-69.8C720.8,122.8,732.1,147.4,733.1,174.6z"/>
	<path class="st1" d="M628.5,178.3l140.4,4.1c-2.2,75.5-64.9,136.4-140.4,136.4c-39.2,0-76.7-16.4-103.3-45.2L628.5,178.3z"/>
	<path class="st2" d="M628.5,178.3l-107.7,90.2c-21.2-25.3-32.8-57.2-32.8-90.2c0-76.1,61.8-139.1,137.9-140.5L628.5,178.3z"/>
	<path class="st3" d="M628.5,178.3l3.3-140.5c36.3,0.9,71,15.8,96.5,41.6s40.2,60.6,40.7,96.9L628.5,178.3z"/>
	<g>
		<g>
			<circle class="st4" cx="628.1" cy="177.6" r="106"/>
		</g>
		<g>
			<radialGradient id="SVGID_30_" cx="678.3771" cy="130.4115" r="106.398" gradientUnits="userSpaceOnUse">
				<stop  offset="0" style="stop-color:#FFFFFF"/>
				<stop  offset="0.5053" style="stop-color:#FDFDFE"/>
				<stop  offset="0.6873" style="stop-color:#F6F8F9"/>
				<stop  offset="0.817" style="stop-color:#EBEDF0"/>
				<stop  offset="0.9211" style="stop-color:#DADFE3"/>
				<stop  offset="1" style="stop-color:#C7CFD5"/>
			</radialGradient>
			<circle class="st36" cx="628.5" cy="177.6" r="106.4"/>
			<radialGradient id="SVGID_31_" cx="680.3614" cy="124.3388" r="124.1496" gradientUnits="userSpaceOnUse">
				<stop  offset="0" style="stop-color:#F6F7F8"/>
				<stop  offset="0.4318" style="stop-color:#F4F5F6"/>
				<stop  offset="0.6764" style="stop-color:#EBEEF0"/>
				<stop  offset="0.8736" style="stop-color:#DEE2E6"/>
				<stop  offset="1" style="stop-color:#D0D7DC"/>
			</radialGradient>
			<circle class="st37" cx="628.5" cy="177.6" r="105.3"/>
			<radialGradient id="SVGID_32_" cx="682.2934" cy="118.4031" r="142.5799" gradientUnits="userSpaceOnUse">
				<stop  offset="0" style="stop-color:#ECEFF1"/>
				<stop  offset="0.4869" style="stop-color:#E9ECEE"/>
				<stop  offset="0.8802" style="stop-color:#DFE3E7"/>
				<stop  offset="1" style="stop-color:#DADFE3"/>
			</radialGradient>
			<circle class="st38" cx="628.5" cy="177.6" r="104.2"/>
			<radialGradient id="SVGID_33_" cx="684.1732" cy="112.6044" r="161.6772" gradientUnits="userSpaceOnUse">
				<stop  offset="0" style="stop-color:#E3E7EA"/>
				<stop  offset="1" style="stop-color:#E3E7EA"/>
			</radialGradient>
			<circle class="st39" cx="628.5" cy="177.6" r="103.1"/>
			<radialGradient id="SVGID_34_" cx="686.0008" cy="106.9426" r="181.4259" gradientUnits="userSpaceOnUse">
				<stop  offset="0" style="stop-color:#DADFE3"/>
				<stop  offset="0.5245" style="stop-color:#E1E5E8"/>
				<stop  offset="1" style="stop-color:#ECEFF1"/>
			</radialGradient>
			<circle class="st40" cx="628.5" cy="177.6" r="102"/>
			<radialGradient id="SVGID_35_" cx="687.7762" cy="101.4178" r="201.8075" gradientUnits="userSpaceOnUse">
				<stop  offset="0" style="stop-color:#D0D7DC"/>
				<stop  offset="0.433" style="stop-color:#DEE3E6"/>
				<stop  offset="1" style="stop-color:#F6F7F8"/>
			</radialGradient>
			<circle class="st41" cx="628.5" cy="177.6" r="100.9"/>
			<radialGradient id="SVGID_36_" cx="689.4995" cy="96.03" r="222.8003" gradientUnits="userSpaceOnUse">
				<stop  offset="0" style="stop-color:#C7CFD5"/>
				<stop  offset="1" style="stop-color:#FFFFFF"/>
			</radialGradient>
			<circle class="st42" cx="628.5" cy="177.6" r="99.8"/>
		</g>
	</g>
	<g>
		<path class="st12" d="M553.1,193.8v-27.2h20.2v4.6h-14.7v6h13.7v4.6h-13.7v7.4h15.2v4.6H553.1z"/>
		<path class="st12" d="M578.5,166.6h10.9c2.2,0,3.8,0.1,4.8,0.3c1.1,0.2,2,0.6,2.8,1.1c0.8,0.6,1.5,1.3,2.1,2.3
			c0.6,0.9,0.8,2,0.8,3.2c0,1.3-0.3,2.4-1,3.5c-0.7,1.1-1.6,1.9-2.8,2.4c1.7,0.5,2.9,1.3,3.8,2.5c0.9,1.2,1.3,2.5,1.3,4.1
			c0,1.2-0.3,2.4-0.9,3.6c-0.6,1.2-1.4,2.1-2.4,2.8c-1,0.7-2.2,1.1-3.7,1.3c-0.9,0.1-3.1,0.2-6.6,0.2h-9.3V166.6z M584,171.2v6.3
			h3.6c2.1,0,3.5,0,4-0.1c0.9-0.1,1.7-0.4,2.2-1c0.5-0.5,0.8-1.2,0.8-2.1c0-0.8-0.2-1.5-0.7-2c-0.5-0.5-1.2-0.8-2.1-1
			c-0.5-0.1-2.1-0.1-4.7-0.1H584z M584,182v7.3h5.1c2,0,3.2-0.1,3.8-0.2c0.8-0.1,1.5-0.5,2-1.1c0.5-0.6,0.8-1.3,0.8-2.3
			c0-0.8-0.2-1.5-0.6-2.1c-0.4-0.6-1-1-1.7-1.2s-2.4-0.4-4.9-0.4H584z"/>
		<path class="st12" d="M605.7,193.8v-27.2h5.5v27.2H605.7z"/>
		<path class="st12" d="M622.6,193.8v-22.6h-8.1v-4.6h21.6v4.6h-8.1v22.6H622.6z"/>
		<path class="st12" d="M639.6,166.6h10c2.3,0,4,0.2,5.2,0.5c1.6,0.5,3,1.3,4.1,2.5c1.1,1.2,2,2.7,2.6,4.4c0.6,1.7,0.9,3.9,0.9,6.4
			c0,2.2-0.3,4.2-0.8,5.8c-0.7,2-1.7,3.6-2.9,4.8c-1,0.9-2.2,1.7-3.9,2.2c-1.2,0.4-2.8,0.6-4.9,0.6h-10.3V166.6z M645.1,171.2v18
			h4.1c1.5,0,2.6-0.1,3.3-0.3c0.9-0.2,1.6-0.6,2.2-1.1c0.6-0.5,1.1-1.4,1.4-2.6c0.4-1.2,0.6-2.9,0.6-5c0-2.1-0.2-3.7-0.6-4.8
			c-0.4-1.1-0.9-2-1.6-2.6s-1.5-1.1-2.5-1.3c-0.8-0.2-2.3-0.3-4.5-0.3H645.1z"/>
		<path class="st12" d="M691.6,193.8h-6l-2.4-6.2h-10.9l-2.2,6.2h-5.8l10.6-27.2h5.8L691.6,193.8z M681.5,183.1l-3.7-10.1l-3.7,10.1
			H681.5z"/>
		<path class="st12" d="M696.3,179.1l-2.8-2.2c0.9-1,1.8-2,2.8-2.9c0.4-0.4,0.6-0.6,0.7-0.7c-0.3,0-1.2-0.3-2.7-0.6
			c-1.1-0.3-1.7-0.5-2.1-0.6l1.1-3.3c1.6,0.7,3.1,1.4,4.3,2.2c-0.3-2-0.4-3.7-0.4-4.9h3.3c0,0.9-0.2,2.6-0.5,5
			c0.2-0.1,0.8-0.3,1.6-0.7c1.1-0.5,2.1-0.9,3.1-1.3l1,3.4c-1.4,0.3-3,0.6-4.8,0.9l2.2,2.5c0.4,0.5,0.8,0.9,1.1,1.2l-2.8,1.9
			l-2.5-4.1C698.2,176.2,697.3,177.6,696.3,179.1z"/>
	</g>
	<g>
		<g>
			<path class="st12" d="M531.1,371.2l0.2-0.7c0.5,0.2,0.8,0.3,1.1,0.5c-0.1-0.6-0.1-0.9-0.1-1.2h0.7c0,0.3,0,0.7-0.1,1.2
				c0.3-0.2,0.7-0.3,1.1-0.4l0.2,0.7c-0.4,0.1-0.8,0.2-1.2,0.3c0.2,0.2,0.5,0.5,0.8,0.9l-0.6,0.4c-0.2-0.2-0.4-0.6-0.6-1
				c-0.2,0.4-0.4,0.8-0.6,1l-0.5-0.4c0.4-0.4,0.6-0.7,0.8-0.9C531.9,371.4,531.5,371.3,531.1,371.2z"/>
			<path class="st12" d="M535.3,376.7v-6.8h4.6v0.8h-3.7v2.1h3.2v0.8h-3.2v3.1H535.3z"/>
			<path class="st12" d="M541,370.9v-1h0.8v1H541z M541,376.7v-4.9h0.8v4.9H541z"/>
			<path class="st12" d="M542.9,377.1l0.8,0.1c0,0.3,0.1,0.4,0.3,0.5c0.2,0.2,0.5,0.2,0.8,0.2c0.4,0,0.7-0.1,0.9-0.2
				c0.2-0.2,0.4-0.4,0.4-0.7c0-0.2,0.1-0.5,0.1-1.1c-0.4,0.4-0.8,0.6-1.4,0.6c-0.7,0-1.2-0.2-1.6-0.7s-0.6-1.1-0.6-1.8
				c0-0.5,0.1-0.9,0.3-1.3c0.2-0.4,0.4-0.7,0.7-0.9c0.3-0.2,0.7-0.3,1.1-0.3c0.6,0,1.1,0.2,1.4,0.7v-0.6h0.8v4.3
				c0,0.8-0.1,1.3-0.2,1.6s-0.4,0.6-0.7,0.8c-0.3,0.2-0.8,0.3-1.3,0.3c-0.6,0-1.1-0.1-1.4-0.4C543.1,378.1,542.9,377.7,542.9,377.1z
				 M543.6,374.2c0,0.6,0.1,1.1,0.4,1.4c0.3,0.3,0.6,0.4,1,0.4c0.4,0,0.7-0.1,1-0.4s0.4-0.8,0.4-1.4c0-0.6-0.1-1.1-0.4-1.4
				s-0.6-0.5-1-0.5c-0.4,0-0.7,0.2-0.9,0.5S543.6,373.6,543.6,374.2z"/>
			<path class="st12" d="M551.6,376.7V376c-0.4,0.6-0.9,0.8-1.6,0.8c-0.3,0-0.6-0.1-0.8-0.2s-0.4-0.3-0.6-0.4
				c-0.1-0.2-0.2-0.4-0.3-0.6c0-0.2-0.1-0.4-0.1-0.8v-3.1h0.8v2.7c0,0.4,0,0.7,0.1,0.9c0.1,0.2,0.2,0.4,0.3,0.5s0.4,0.2,0.6,0.2
				c0.3,0,0.5-0.1,0.7-0.2c0.2-0.1,0.4-0.3,0.5-0.5c0.1-0.2,0.1-0.5,0.1-1v-2.6h0.8v4.9H551.6z"/>
			<path class="st12" d="M553.6,376.7v-4.9h0.8v0.7c0.2-0.3,0.4-0.6,0.5-0.7c0.2-0.1,0.3-0.2,0.5-0.2c0.3,0,0.6,0.1,0.9,0.3
				l-0.3,0.8c-0.2-0.1-0.4-0.2-0.6-0.2c-0.2,0-0.3,0.1-0.5,0.2c-0.1,0.1-0.2,0.3-0.3,0.5c-0.1,0.3-0.1,0.6-0.1,1v2.6H553.6z"/>
			<path class="st12" d="M560.2,375.1l0.9,0.1c-0.1,0.5-0.4,0.9-0.8,1.2c-0.4,0.3-0.8,0.4-1.4,0.4c-0.7,0-1.3-0.2-1.7-0.7
				s-0.6-1.1-0.6-1.9c0-0.8,0.2-1.5,0.6-1.9c0.4-0.5,1-0.7,1.7-0.7c0.7,0,1.2,0.2,1.6,0.7c0.4,0.4,0.6,1.1,0.6,1.9c0,0,0,0.1,0,0.2
				h-3.7c0,0.5,0.2,1,0.5,1.2c0.3,0.3,0.6,0.4,1,0.4c0.3,0,0.6-0.1,0.8-0.2C559.9,375.7,560.1,375.5,560.2,375.1z M557.4,373.8h2.8
				c0-0.4-0.1-0.7-0.3-0.9c-0.3-0.3-0.6-0.5-1-0.5c-0.4,0-0.7,0.1-1,0.4C557.6,373,557.5,373.4,557.4,373.8z"/>
			<path class="st12" d="M561.8,375.3l0.8-0.1c0,0.3,0.2,0.6,0.4,0.8c0.2,0.2,0.5,0.3,0.9,0.3c0.4,0,0.7-0.1,0.9-0.2
				s0.3-0.3,0.3-0.6c0-0.2-0.1-0.3-0.2-0.4c-0.1-0.1-0.4-0.2-0.9-0.3c-0.6-0.2-1-0.3-1.3-0.4s-0.4-0.3-0.5-0.5
				c-0.1-0.2-0.2-0.4-0.2-0.7c0-0.2,0.1-0.4,0.2-0.6c0.1-0.2,0.2-0.3,0.4-0.5c0.1-0.1,0.3-0.2,0.5-0.2c0.2-0.1,0.5-0.1,0.7-0.1
				c0.4,0,0.7,0.1,1,0.2s0.5,0.3,0.6,0.5c0.1,0.2,0.2,0.4,0.3,0.8l-0.8,0.1c0-0.3-0.1-0.5-0.3-0.6c-0.2-0.1-0.4-0.2-0.8-0.2
				c-0.4,0-0.7,0.1-0.8,0.2c-0.2,0.1-0.2,0.3-0.2,0.4c0,0.1,0,0.2,0.1,0.3c0.1,0.1,0.2,0.2,0.3,0.2c0.1,0,0.3,0.1,0.7,0.2
				c0.6,0.2,1,0.3,1.2,0.4c0.2,0.1,0.4,0.2,0.6,0.4c0.1,0.2,0.2,0.4,0.2,0.7c0,0.3-0.1,0.5-0.2,0.8s-0.4,0.4-0.7,0.6s-0.7,0.2-1,0.2
				c-0.6,0-1.1-0.1-1.5-0.4C562.1,376.2,561.9,375.8,561.8,375.3z"/>
			<path class="st12" d="M572.7,376.1c-0.3,0.3-0.6,0.4-0.9,0.6s-0.6,0.2-0.9,0.2c-0.5,0-1-0.1-1.2-0.4s-0.4-0.6-0.4-1
				c0-0.2,0.1-0.5,0.2-0.7c0.1-0.2,0.3-0.4,0.4-0.5c0.2-0.1,0.4-0.2,0.6-0.3c0.2,0,0.4-0.1,0.7-0.1c0.7-0.1,1.2-0.2,1.5-0.3
				c0-0.1,0-0.2,0-0.2c0-0.3-0.1-0.6-0.2-0.7c-0.2-0.2-0.5-0.3-1-0.3c-0.4,0-0.7,0.1-0.9,0.2s-0.3,0.4-0.4,0.7l-0.8-0.1
				c0.1-0.3,0.2-0.6,0.4-0.8s0.4-0.4,0.7-0.5c0.3-0.1,0.7-0.2,1.1-0.2c0.4,0,0.8,0,1,0.1c0.3,0.1,0.5,0.2,0.6,0.4s0.2,0.3,0.3,0.6
				c0,0.1,0,0.4,0,0.8v1.1c0,0.8,0,1.3,0.1,1.5s0.1,0.4,0.2,0.6h-0.9C572.8,376.6,572.7,376.3,572.7,376.1z M572.6,374.3
				c-0.3,0.1-0.8,0.2-1.4,0.3c-0.3,0-0.6,0.1-0.7,0.2s-0.3,0.2-0.3,0.3c-0.1,0.1-0.1,0.3-0.1,0.4c0,0.2,0.1,0.4,0.3,0.6
				c0.2,0.1,0.4,0.2,0.7,0.2c0.3,0,0.6-0.1,0.9-0.2c0.2-0.1,0.4-0.3,0.6-0.6c0.1-0.2,0.1-0.5,0.1-0.8V374.3z"/>
			<path class="st12" d="M574.8,376.7v-4.9h0.8v0.7c0.2-0.3,0.4-0.6,0.5-0.7s0.3-0.2,0.5-0.2c0.3,0,0.6,0.1,0.9,0.3l-0.3,0.8
				c-0.2-0.1-0.4-0.2-0.6-0.2c-0.2,0-0.3,0.1-0.5,0.2c-0.1,0.1-0.2,0.3-0.3,0.5c-0.1,0.3-0.1,0.6-0.1,1v2.6H574.8z"/>
			<path class="st12" d="M581.3,375.1l0.9,0.1c-0.1,0.5-0.4,0.9-0.8,1.2s-0.8,0.4-1.4,0.4c-0.7,0-1.3-0.2-1.7-0.7
				c-0.4-0.4-0.6-1.1-0.6-1.9c0-0.8,0.2-1.5,0.6-1.9s1-0.7,1.7-0.7c0.7,0,1.2,0.2,1.6,0.7c0.4,0.4,0.6,1.1,0.6,1.9c0,0,0,0.1,0,0.2
				h-3.7c0,0.5,0.2,1,0.5,1.2c0.3,0.3,0.6,0.4,1,0.4c0.3,0,0.6-0.1,0.8-0.2C581,375.7,581.2,375.5,581.3,375.1z M578.6,373.8h2.8
				c0-0.4-0.1-0.7-0.3-0.9c-0.3-0.3-0.6-0.5-1-0.5c-0.4,0-0.7,0.1-1,0.4S578.6,373.4,578.6,373.8z"/>
			<path class="st12" d="M586.6,376.7h-0.8v-6.8h0.8v2.4c0.4-0.4,0.8-0.7,1.4-0.7c0.3,0,0.6,0.1,0.9,0.2c0.3,0.1,0.5,0.3,0.7,0.5
				c0.2,0.2,0.3,0.5,0.4,0.8s0.1,0.6,0.1,1c0,0.8-0.2,1.5-0.6,2s-0.9,0.7-1.5,0.7c-0.6,0-1-0.2-1.4-0.7V376.7z M586.6,374.2
				c0,0.6,0.1,1,0.2,1.3c0.3,0.4,0.6,0.6,1.1,0.6c0.4,0,0.7-0.2,0.9-0.5c0.3-0.3,0.4-0.8,0.4-1.4c0-0.6-0.1-1.1-0.4-1.4
				c-0.3-0.3-0.6-0.5-0.9-0.5c-0.4,0-0.7,0.2-0.9,0.5C586.8,373.2,586.6,373.6,586.6,374.2z"/>
			<path class="st12" d="M594.5,375.1l0.9,0.1c-0.1,0.5-0.4,0.9-0.8,1.2s-0.8,0.4-1.4,0.4c-0.7,0-1.3-0.2-1.7-0.7
				c-0.4-0.4-0.6-1.1-0.6-1.9c0-0.8,0.2-1.5,0.6-1.9s1-0.7,1.7-0.7c0.7,0,1.2,0.2,1.6,0.7c0.4,0.4,0.6,1.1,0.6,1.9c0,0,0,0.1,0,0.2
				h-3.7c0,0.5,0.2,1,0.5,1.2c0.3,0.3,0.6,0.4,1,0.4c0.3,0,0.6-0.1,0.8-0.2C594.2,375.7,594.4,375.5,594.5,375.1z M591.8,373.8h2.8
				c0-0.4-0.1-0.7-0.3-0.9c-0.3-0.3-0.6-0.5-1-0.5c-0.4,0-0.7,0.1-1,0.4S591.8,373.4,591.8,373.8z"/>
			<path class="st12" d="M596.6,376.7v-4.3h-0.7v-0.7h0.7v-0.5c0-0.3,0-0.6,0.1-0.7c0.1-0.2,0.2-0.4,0.4-0.5
				c0.2-0.1,0.5-0.2,0.9-0.2c0.2,0,0.5,0,0.8,0.1l-0.1,0.7c-0.2,0-0.3,0-0.5,0c-0.3,0-0.4,0.1-0.5,0.2s-0.2,0.3-0.2,0.6v0.5h1v0.7
				h-1v4.3H596.6z"/>
			<path class="st12" d="M598.8,374.3c0-0.9,0.3-1.6,0.8-2c0.4-0.4,0.9-0.5,1.6-0.5c0.7,0,1.2,0.2,1.7,0.7c0.4,0.4,0.6,1.1,0.6,1.8
				c0,0.6-0.1,1.1-0.3,1.5c-0.2,0.4-0.5,0.6-0.8,0.8c-0.4,0.2-0.8,0.3-1.2,0.3c-0.7,0-1.2-0.2-1.7-0.7
				C599,375.7,598.8,375.1,598.8,374.3z M599.6,374.3c0,0.6,0.1,1.1,0.4,1.4c0.3,0.3,0.6,0.5,1,0.5c0.4,0,0.8-0.2,1-0.5
				s0.4-0.8,0.4-1.4c0-0.6-0.1-1.1-0.4-1.4c-0.3-0.3-0.6-0.5-1-0.5c-0.4,0-0.8,0.2-1,0.5C599.8,373.2,599.6,373.6,599.6,374.3z"/>
			<path class="st12" d="M604.4,376.7v-4.9h0.8v0.7c0.2-0.3,0.4-0.6,0.5-0.7s0.3-0.2,0.5-0.2c0.3,0,0.6,0.1,0.9,0.3l-0.3,0.8
				c-0.2-0.1-0.4-0.2-0.6-0.2c-0.2,0-0.3,0.1-0.5,0.2c-0.1,0.1-0.2,0.3-0.3,0.5c-0.1,0.3-0.1,0.6-0.1,1v2.6H604.4z"/>
			<path class="st12" d="M610.9,375.1l0.9,0.1c-0.1,0.5-0.4,0.9-0.8,1.2c-0.4,0.3-0.8,0.4-1.4,0.4c-0.7,0-1.3-0.2-1.7-0.7
				s-0.6-1.1-0.6-1.9c0-0.8,0.2-1.5,0.6-1.9c0.4-0.5,1-0.7,1.7-0.7c0.7,0,1.2,0.2,1.6,0.7c0.4,0.4,0.6,1.1,0.6,1.9c0,0,0,0.1,0,0.2
				h-3.7c0,0.5,0.2,1,0.5,1.2c0.3,0.3,0.6,0.4,1,0.4c0.3,0,0.6-0.1,0.8-0.2C610.6,375.7,610.8,375.5,610.9,375.1z M608.2,373.8h2.8
				c0-0.4-0.1-0.7-0.3-0.9c-0.3-0.3-0.6-0.5-1-0.5c-0.4,0-0.7,0.1-1,0.4C608.3,373,608.2,373.4,608.2,373.8z"/>
			<path class="st12" d="M615.5,370.9v-1h0.8v1H615.5z M615.5,376.7v-4.9h0.8v4.9H615.5z"/>
			<path class="st12" d="M617.6,376.7v-4.9h0.8v0.7c0.4-0.5,0.9-0.8,1.6-0.8c0.3,0,0.6,0.1,0.8,0.2c0.2,0.1,0.4,0.2,0.6,0.4
				c0.1,0.2,0.2,0.4,0.3,0.6c0,0.2,0,0.4,0,0.8v3h-0.8v-3c0-0.3,0-0.6-0.1-0.8c-0.1-0.2-0.2-0.3-0.3-0.4s-0.4-0.2-0.6-0.2
				c-0.4,0-0.7,0.1-0.9,0.3c-0.3,0.2-0.4,0.7-0.4,1.3v2.7H617.6z"/>
			<path class="st12" d="M624.7,376l0.1,0.7c-0.2,0-0.4,0.1-0.6,0.1c-0.3,0-0.5,0-0.7-0.1c-0.2-0.1-0.3-0.2-0.4-0.4s-0.1-0.5-0.1-1
				v-2.8h-0.6v-0.7h0.6v-1.2l0.8-0.5v1.7h0.8v0.7h-0.8v2.9c0,0.2,0,0.4,0,0.5s0.1,0.1,0.1,0.2s0.2,0.1,0.3,0.1
				C624.4,376,624.5,376,624.7,376z"/>
			<path class="st12" d="M628.9,375.1l0.9,0.1c-0.1,0.5-0.4,0.9-0.8,1.2c-0.4,0.3-0.8,0.4-1.4,0.4c-0.7,0-1.3-0.2-1.7-0.7
				s-0.6-1.1-0.6-1.9c0-0.8,0.2-1.5,0.6-1.9c0.4-0.5,1-0.7,1.7-0.7c0.7,0,1.2,0.2,1.6,0.7c0.4,0.4,0.6,1.1,0.6,1.9c0,0,0,0.1,0,0.2
				h-3.7c0,0.5,0.2,1,0.5,1.2c0.3,0.3,0.6,0.4,1,0.4c0.3,0,0.6-0.1,0.8-0.2C628.6,375.7,628.8,375.5,628.9,375.1z M626.1,373.8h2.8
				c0-0.4-0.1-0.7-0.3-0.9c-0.3-0.3-0.6-0.5-1-0.5c-0.4,0-0.7,0.1-1,0.4C626.3,373,626.2,373.4,626.1,373.8z"/>
			<path class="st12" d="M630.8,376.7v-4.9h0.8v0.7c0.2-0.3,0.4-0.6,0.5-0.7s0.3-0.2,0.5-0.2c0.3,0,0.6,0.1,0.9,0.3l-0.3,0.8
				c-0.2-0.1-0.4-0.2-0.6-0.2c-0.2,0-0.3,0.1-0.5,0.2c-0.1,0.1-0.2,0.3-0.3,0.5c-0.1,0.3-0.1,0.6-0.1,1v2.6H630.8z"/>
			<path class="st12" d="M637.2,374.9l0.8,0.1c-0.1,0.6-0.3,1-0.7,1.3c-0.4,0.3-0.8,0.5-1.4,0.5c-0.7,0-1.2-0.2-1.6-0.7
				c-0.4-0.4-0.6-1.1-0.6-1.9c0-0.5,0.1-1,0.3-1.4c0.2-0.4,0.4-0.7,0.8-0.9c0.4-0.2,0.8-0.3,1.2-0.3c0.5,0,1,0.1,1.3,0.4
				c0.3,0.3,0.6,0.7,0.7,1.2l-0.8,0.1c-0.1-0.3-0.2-0.6-0.4-0.7c-0.2-0.2-0.4-0.2-0.7-0.2c-0.4,0-0.8,0.2-1,0.5
				c-0.3,0.3-0.4,0.8-0.4,1.4c0,0.7,0.1,1.1,0.4,1.4c0.3,0.3,0.6,0.5,1,0.5c0.3,0,0.6-0.1,0.8-0.3
				C637,375.6,637.1,375.3,637.2,374.9z"/>
			<path class="st12" d="M638.4,374.3c0-0.9,0.3-1.6,0.8-2c0.4-0.4,0.9-0.5,1.5-0.5c0.7,0,1.2,0.2,1.7,0.7c0.4,0.4,0.6,1.1,0.6,1.8
				c0,0.6-0.1,1.1-0.3,1.5c-0.2,0.4-0.5,0.6-0.8,0.8s-0.8,0.3-1.2,0.3c-0.7,0-1.2-0.2-1.7-0.7C638.6,375.7,638.4,375.1,638.4,374.3z
				 M639.3,374.3c0,0.6,0.1,1.1,0.4,1.4c0.3,0.3,0.6,0.5,1,0.5c0.4,0,0.8-0.2,1-0.5s0.4-0.8,0.4-1.4c0-0.6-0.1-1.1-0.4-1.4
				c-0.3-0.3-0.6-0.5-1-0.5c-0.4,0-0.8,0.2-1,0.5C639.4,373.2,639.3,373.6,639.3,374.3z"/>
			<path class="st12" d="M644,376.7v-4.9h0.7v0.7c0.2-0.2,0.4-0.4,0.6-0.6c0.3-0.1,0.5-0.2,0.9-0.2c0.4,0,0.7,0.1,0.9,0.2
				c0.2,0.2,0.4,0.4,0.5,0.6c0.4-0.6,0.9-0.9,1.5-0.9c0.5,0,0.9,0.1,1.1,0.4s0.4,0.7,0.4,1.3v3.4h-0.8v-3.1c0-0.3,0-0.6-0.1-0.7
				c-0.1-0.1-0.2-0.3-0.3-0.4c-0.1-0.1-0.3-0.1-0.5-0.1c-0.3,0-0.6,0.1-0.9,0.3c-0.2,0.2-0.3,0.6-0.3,1.1v2.9h-0.8v-3.2
				c0-0.4-0.1-0.6-0.2-0.8s-0.4-0.3-0.7-0.3c-0.2,0-0.5,0.1-0.7,0.2s-0.3,0.3-0.4,0.5s-0.1,0.6-0.1,1v2.6H644z"/>
			<path class="st12" d="M651.9,378.6v-6.8h0.8v0.6c0.2-0.3,0.4-0.4,0.6-0.6c0.2-0.1,0.5-0.2,0.8-0.2c0.4,0,0.8,0.1,1.1,0.3
				c0.3,0.2,0.6,0.5,0.7,0.9s0.2,0.8,0.2,1.3c0,0.5-0.1,1-0.3,1.4c-0.2,0.4-0.4,0.7-0.8,0.9c-0.3,0.2-0.7,0.3-1.1,0.3
				c-0.3,0-0.5-0.1-0.7-0.2c-0.2-0.1-0.4-0.3-0.5-0.4v2.4H651.9z M652.7,374.3c0,0.6,0.1,1.1,0.4,1.4c0.3,0.3,0.6,0.5,0.9,0.5
				c0.4,0,0.7-0.2,1-0.5c0.3-0.3,0.4-0.8,0.4-1.5c0-0.6-0.1-1.1-0.4-1.4s-0.6-0.5-0.9-0.5c-0.4,0-0.7,0.2-0.9,0.5
				C652.8,373.2,652.7,373.7,652.7,374.3z"/>
			<path class="st12" d="M660.4,376.1c-0.3,0.3-0.6,0.4-0.9,0.6c-0.3,0.1-0.6,0.2-0.9,0.2c-0.5,0-1-0.1-1.2-0.4
				c-0.3-0.3-0.4-0.6-0.4-1c0-0.2,0.1-0.5,0.2-0.7c0.1-0.2,0.3-0.4,0.4-0.5c0.2-0.1,0.4-0.2,0.6-0.3c0.2,0,0.4-0.1,0.7-0.1
				c0.7-0.1,1.2-0.2,1.5-0.3c0-0.1,0-0.2,0-0.2c0-0.3-0.1-0.6-0.2-0.7c-0.2-0.2-0.5-0.3-1-0.3c-0.4,0-0.7,0.1-0.9,0.2
				s-0.3,0.4-0.4,0.7l-0.8-0.1c0.1-0.3,0.2-0.6,0.4-0.8c0.2-0.2,0.4-0.4,0.7-0.5c0.3-0.1,0.7-0.2,1.1-0.2c0.4,0,0.8,0,1,0.1
				c0.3,0.1,0.5,0.2,0.6,0.4c0.1,0.2,0.2,0.3,0.3,0.6c0,0.1,0,0.4,0,0.8v1.1c0,0.8,0,1.3,0.1,1.5s0.1,0.4,0.2,0.6h-0.9
				C660.5,376.6,660.4,376.3,660.4,376.1z M660.3,374.3c-0.3,0.1-0.8,0.2-1.4,0.3c-0.3,0-0.6,0.1-0.7,0.2c-0.1,0.1-0.3,0.2-0.3,0.3
				c-0.1,0.1-0.1,0.3-0.1,0.4c0,0.2,0.1,0.4,0.3,0.6s0.4,0.2,0.7,0.2c0.3,0,0.6-0.1,0.9-0.2c0.2-0.1,0.4-0.3,0.6-0.6
				c0.1-0.2,0.1-0.5,0.1-0.8V374.3z"/>
			<path class="st12" d="M662.5,376.7v-4.9h0.8v0.7c0.4-0.5,0.9-0.8,1.6-0.8c0.3,0,0.6,0.1,0.8,0.2c0.2,0.1,0.4,0.2,0.6,0.4
				c0.1,0.2,0.2,0.4,0.3,0.6c0,0.2,0,0.4,0,0.8v3h-0.8v-3c0-0.3,0-0.6-0.1-0.8c-0.1-0.2-0.2-0.3-0.3-0.4c-0.2-0.1-0.4-0.2-0.6-0.2
				c-0.4,0-0.7,0.1-0.9,0.3c-0.3,0.2-0.4,0.7-0.4,1.3v2.7H662.5z"/>
			<path class="st12" d="M667.7,378.6l-0.1-0.8c0.2,0,0.3,0.1,0.5,0.1c0.2,0,0.3,0,0.4-0.1c0.1-0.1,0.2-0.1,0.3-0.3
				c0.1-0.1,0.1-0.3,0.3-0.6c0,0,0-0.1,0.1-0.2l-1.9-4.9h0.9l1,2.9c0.1,0.4,0.3,0.7,0.4,1.1c0.1-0.4,0.2-0.8,0.3-1.1l1.1-2.9h0.8
				l-1.9,5c-0.2,0.5-0.4,0.9-0.5,1.1c-0.1,0.3-0.3,0.5-0.5,0.6c-0.2,0.1-0.4,0.2-0.7,0.2C668.1,378.7,667.9,378.7,667.7,378.6z"/>
			<path class="st12" d="M678.5,375.1l0.9,0.1c-0.1,0.5-0.4,0.9-0.8,1.2s-0.8,0.4-1.4,0.4c-0.7,0-1.3-0.2-1.7-0.7
				c-0.4-0.4-0.6-1.1-0.6-1.9c0-0.8,0.2-1.5,0.6-1.9s1-0.7,1.7-0.7c0.7,0,1.2,0.2,1.6,0.7c0.4,0.4,0.6,1.1,0.6,1.9c0,0,0,0.1,0,0.2
				h-3.7c0,0.5,0.2,1,0.5,1.2c0.3,0.3,0.6,0.4,1,0.4c0.3,0,0.6-0.1,0.8-0.2C678.2,375.7,678.4,375.5,678.5,375.1z M675.8,373.8h2.8
				c0-0.4-0.1-0.7-0.3-0.9c-0.3-0.3-0.6-0.5-1-0.5c-0.4,0-0.7,0.1-1,0.4S675.8,373.4,675.8,373.8z"/>
			<path class="st12" d="M680.4,376.7v-6.8h0.8v6.8H680.4z"/>
			<path class="st12" d="M682.6,370.9v-1h0.8v1H682.6z M682.6,376.7v-4.9h0.8v4.9H682.6z"/>
			<path class="st12" d="M684.7,376.7v-4.9h0.7v0.7c0.2-0.2,0.4-0.4,0.6-0.6c0.3-0.1,0.5-0.2,0.9-0.2c0.4,0,0.7,0.1,0.9,0.2
				c0.2,0.2,0.4,0.4,0.5,0.6c0.4-0.6,0.9-0.9,1.5-0.9c0.5,0,0.9,0.1,1.1,0.4s0.4,0.7,0.4,1.3v3.4h-0.8v-3.1c0-0.3,0-0.6-0.1-0.7
				c-0.1-0.1-0.2-0.3-0.3-0.4c-0.1-0.1-0.3-0.1-0.5-0.1c-0.3,0-0.6,0.1-0.9,0.3c-0.2,0.2-0.3,0.6-0.3,1.1v2.9h-0.8v-3.2
				c0-0.4-0.1-0.6-0.2-0.8s-0.4-0.3-0.7-0.3c-0.2,0-0.5,0.1-0.7,0.2s-0.3,0.3-0.4,0.5s-0.1,0.6-0.1,1v2.6H684.7z"/>
			<path class="st12" d="M692.6,370.9v-1h0.8v1H692.6z M692.6,376.7v-4.9h0.8v4.9H692.6z"/>
			<path class="st12" d="M694.7,376.7v-4.9h0.8v0.7c0.4-0.5,0.9-0.8,1.6-0.8c0.3,0,0.6,0.1,0.8,0.2c0.2,0.1,0.4,0.2,0.6,0.4
				c0.1,0.2,0.2,0.4,0.3,0.6c0,0.2,0,0.4,0,0.8v3h-0.8v-3c0-0.3,0-0.6-0.1-0.8c-0.1-0.2-0.2-0.3-0.3-0.4c-0.2-0.1-0.4-0.2-0.6-0.2
				c-0.4,0-0.7,0.1-0.9,0.3c-0.3,0.2-0.4,0.7-0.4,1.3v2.7H694.7z"/>
			<path class="st12" d="M703.2,376.1c-0.3,0.3-0.6,0.4-0.9,0.6c-0.3,0.1-0.6,0.2-0.9,0.2c-0.5,0-1-0.1-1.2-0.4
				c-0.3-0.3-0.4-0.6-0.4-1c0-0.2,0.1-0.5,0.2-0.7c0.1-0.2,0.3-0.4,0.4-0.5c0.2-0.1,0.4-0.2,0.6-0.3c0.2,0,0.4-0.1,0.7-0.1
				c0.7-0.1,1.2-0.2,1.5-0.3c0-0.1,0-0.2,0-0.2c0-0.3-0.1-0.6-0.2-0.7c-0.2-0.2-0.5-0.3-1-0.3c-0.4,0-0.7,0.1-0.9,0.2
				s-0.3,0.4-0.4,0.7l-0.8-0.1c0.1-0.3,0.2-0.6,0.4-0.8c0.2-0.2,0.4-0.4,0.7-0.5c0.3-0.1,0.7-0.2,1.1-0.2c0.4,0,0.8,0,1,0.1
				c0.3,0.1,0.5,0.2,0.6,0.4c0.1,0.2,0.2,0.3,0.3,0.6c0,0.1,0,0.4,0,0.8v1.1c0,0.8,0,1.3,0.1,1.5s0.1,0.4,0.2,0.6h-0.9
				C703.3,376.6,703.2,376.3,703.2,376.1z M703.1,374.3c-0.3,0.1-0.8,0.2-1.4,0.3c-0.3,0-0.6,0.1-0.7,0.2c-0.1,0.1-0.3,0.2-0.3,0.3
				c-0.1,0.1-0.1,0.3-0.1,0.4c0,0.2,0.1,0.4,0.3,0.6s0.4,0.2,0.7,0.2c0.3,0,0.6-0.1,0.9-0.2c0.2-0.1,0.4-0.3,0.6-0.6
				c0.1-0.2,0.1-0.5,0.1-0.8V374.3z"/>
			<path class="st12" d="M707.1,376l0.1,0.7c-0.2,0-0.4,0.1-0.6,0.1c-0.3,0-0.5,0-0.7-0.1c-0.2-0.1-0.3-0.2-0.4-0.4s-0.1-0.5-0.1-1
				v-2.8h-0.6v-0.7h0.6v-1.2l0.8-0.5v1.7h0.8v0.7h-0.8v2.9c0,0.2,0,0.4,0,0.5s0.1,0.1,0.1,0.2s0.2,0.1,0.3,0.1
				C706.8,376,707,376,707.1,376z"/>
			<path class="st12" d="M707.9,370.9v-1h0.8v1H707.9z M707.9,376.7v-4.9h0.8v4.9H707.9z"/>
			<path class="st12" d="M709.7,374.3c0-0.9,0.3-1.6,0.8-2c0.4-0.4,0.9-0.5,1.5-0.5c0.7,0,1.2,0.2,1.7,0.7c0.4,0.4,0.6,1.1,0.6,1.8
				c0,0.6-0.1,1.1-0.3,1.5c-0.2,0.4-0.5,0.6-0.8,0.8s-0.8,0.3-1.2,0.3c-0.7,0-1.2-0.2-1.7-0.7C709.9,375.7,709.7,375.1,709.7,374.3z
				 M710.6,374.3c0,0.6,0.1,1.1,0.4,1.4c0.3,0.3,0.6,0.5,1,0.5c0.4,0,0.8-0.2,1-0.5s0.4-0.8,0.4-1.4c0-0.6-0.1-1.1-0.4-1.4
				c-0.3-0.3-0.6-0.5-1-0.5c-0.4,0-0.8,0.2-1,0.5C710.7,373.2,710.6,373.6,710.6,374.3z"/>
			<path class="st12" d="M715.3,376.7v-4.9h0.8v0.7c0.4-0.5,0.9-0.8,1.6-0.8c0.3,0,0.6,0.1,0.8,0.2c0.2,0.1,0.4,0.2,0.6,0.4
				c0.1,0.2,0.2,0.4,0.3,0.6c0,0.2,0,0.4,0,0.8v3h-0.8v-3c0-0.3,0-0.6-0.1-0.8c-0.1-0.2-0.2-0.3-0.3-0.4c-0.2-0.1-0.4-0.2-0.6-0.2
				c-0.4,0-0.7,0.1-0.9,0.3c-0.3,0.2-0.4,0.7-0.4,1.3v2.7H715.3z"/>
			<path class="st12" d="M720.3,375.3l0.8-0.1c0,0.3,0.2,0.6,0.4,0.8c0.2,0.2,0.5,0.3,0.9,0.3c0.4,0,0.7-0.1,0.9-0.2
				s0.3-0.3,0.3-0.6c0-0.2-0.1-0.3-0.2-0.4c-0.1-0.1-0.4-0.2-0.9-0.3c-0.6-0.2-1-0.3-1.3-0.4s-0.4-0.3-0.5-0.5
				c-0.1-0.2-0.2-0.4-0.2-0.7c0-0.2,0.1-0.4,0.2-0.6c0.1-0.2,0.2-0.3,0.4-0.5c0.1-0.1,0.3-0.2,0.5-0.2c0.2-0.1,0.5-0.1,0.7-0.1
				c0.4,0,0.7,0.1,1,0.2s0.5,0.3,0.6,0.5c0.1,0.2,0.2,0.4,0.3,0.8l-0.8,0.1c0-0.3-0.1-0.5-0.3-0.6c-0.2-0.1-0.4-0.2-0.8-0.2
				c-0.4,0-0.7,0.1-0.8,0.2c-0.2,0.1-0.2,0.3-0.2,0.4c0,0.1,0,0.2,0.1,0.3c0.1,0.1,0.2,0.2,0.3,0.2c0.1,0,0.3,0.1,0.7,0.2
				c0.6,0.2,1,0.3,1.2,0.4c0.2,0.1,0.4,0.2,0.6,0.4c0.1,0.2,0.2,0.4,0.2,0.7c0,0.3-0.1,0.5-0.2,0.8s-0.4,0.4-0.7,0.6s-0.7,0.2-1,0.2
				c-0.6,0-1.1-0.1-1.5-0.4C720.6,376.2,720.4,375.8,720.3,375.3z"/>
			<path class="st12" d="M725.6,376.7v-1h1v1H725.6z"/>
		</g>
		<g>
			<g>
				<path class="st12" d="M631.7,408.9v-7.9h5.4v1.3h-3.8v1.9h3.3v1.3h-3.3v3.3H631.7z"/>
				<path class="st12" d="M638.4,408.9v-7.9h1.5v7.9H638.4z"/>
				<path class="st12" d="M645.2,408.9v-0.9c-0.2,0.3-0.5,0.5-0.8,0.7s-0.7,0.3-1.1,0.3c-0.4,0-0.7-0.1-1-0.3s-0.5-0.4-0.7-0.7
					s-0.2-0.7-0.2-1.3v-3.6h1.5v2.6c0,0.8,0,1.3,0.1,1.5c0.1,0.2,0.2,0.3,0.3,0.4s0.3,0.2,0.6,0.2c0.3,0,0.5-0.1,0.7-0.2
					c0.2-0.1,0.3-0.3,0.4-0.5s0.1-0.7,0.1-1.5v-2.4h1.5v5.7H645.2z"/>
				<path class="st12" d="M651.4,407.1l1.5,0.3c-0.2,0.5-0.5,1-0.9,1.3c-0.4,0.3-0.9,0.4-1.6,0.4c-1,0-1.7-0.3-2.2-1
					c-0.4-0.5-0.6-1.2-0.6-2c0-0.9,0.2-1.7,0.7-2.2s1.1-0.8,1.9-0.8c0.8,0,1.5,0.3,2,0.8c0.5,0.6,0.7,1.4,0.7,2.6h-3.8
					c0,0.4,0.1,0.8,0.4,1c0.2,0.2,0.5,0.4,0.9,0.4c0.2,0,0.4-0.1,0.6-0.2C651.2,407.6,651.4,407.4,651.4,407.1z M651.5,405.6
					c0-0.4-0.1-0.8-0.3-1c-0.2-0.2-0.5-0.3-0.8-0.3c-0.3,0-0.6,0.1-0.8,0.4c-0.2,0.2-0.3,0.6-0.3,1H651.5z"/>
				<path class="st12" d="M659.4,408.9h-1.5V406c0-0.6,0-1-0.1-1.2c-0.1-0.2-0.2-0.3-0.3-0.4c-0.1-0.1-0.3-0.1-0.5-0.1
					c-0.3,0-0.5,0.1-0.7,0.2c-0.2,0.1-0.3,0.3-0.4,0.6c-0.1,0.2-0.1,0.7-0.1,1.3v2.6h-1.5v-5.7h1.4v0.8c0.5-0.6,1.1-1,1.9-1
					c0.3,0,0.6,0.1,0.9,0.2c0.3,0.1,0.5,0.3,0.6,0.5c0.1,0.2,0.2,0.4,0.3,0.6c0.1,0.2,0.1,0.6,0.1,1V408.9z"/>
				<path class="st12" d="M663.6,403.2v1.2h-1v2.3c0,0.5,0,0.7,0,0.8c0,0.1,0.1,0.1,0.1,0.2c0.1,0,0.2,0.1,0.3,0.1
					c0.1,0,0.3,0,0.6-0.1l0.1,1.2c-0.4,0.2-0.7,0.2-1.2,0.2c-0.3,0-0.5,0-0.7-0.1c-0.2-0.1-0.4-0.2-0.5-0.4
					c-0.1-0.1-0.2-0.3-0.2-0.6c0-0.2,0-0.5,0-1.1v-2.5h-0.7v-1.2h0.7v-1.1l1.5-0.9v2H663.6z"/>
			</g>
			<g>
				<path class="st12" d="M716.7,408.9v-7.9h5.4v1.3h-3.8v1.9h3.3v1.3h-3.3v3.3H716.7z"/>
				<path class="st12" d="M723.4,408.9v-7.9h1.5v7.9H723.4z"/>
				<path class="st12" d="M730.2,408.9v-0.9c-0.2,0.3-0.5,0.5-0.8,0.7s-0.7,0.3-1.1,0.3c-0.4,0-0.7-0.1-1-0.3s-0.5-0.4-0.7-0.7
					s-0.2-0.7-0.2-1.3v-3.6h1.5v2.6c0,0.8,0,1.3,0.1,1.5c0.1,0.2,0.2,0.3,0.3,0.4s0.3,0.2,0.6,0.2c0.3,0,0.5-0.1,0.7-0.2
					c0.2-0.1,0.3-0.3,0.4-0.5s0.1-0.7,0.1-1.5v-2.4h1.5v5.7H730.2z"/>
				<path class="st12" d="M732.8,406c0-0.5,0.1-1,0.4-1.5c0.2-0.5,0.6-0.8,1-1.1c0.5-0.2,1-0.4,1.5-0.4c0.9,0,1.6,0.3,2.1,0.8
					c0.5,0.6,0.8,1.3,0.8,2.1c0,0.9-0.3,1.6-0.8,2.1s-1.3,0.8-2.1,0.8c-0.5,0-1-0.1-1.5-0.4c-0.5-0.2-0.8-0.6-1.1-1
					C732.9,407.2,732.8,406.7,732.8,406z M734.3,406.1c0,0.6,0.1,1,0.4,1.3c0.3,0.3,0.6,0.5,1,0.5c0.4,0,0.7-0.2,1-0.5
					c0.3-0.3,0.4-0.7,0.4-1.3c0-0.6-0.1-1-0.4-1.3c-0.3-0.3-0.6-0.5-1-0.5c-0.4,0-0.7,0.1-1,0.5
					C734.5,405.1,734.3,405.5,734.3,406.1z"/>
				<path class="st12" d="M741.3,408.9h-1.5v-5.7h1.4v0.8c0.2-0.4,0.5-0.6,0.6-0.8c0.2-0.1,0.4-0.2,0.7-0.2c0.3,0,0.7,0.1,1,0.3
					l-0.5,1.3c-0.3-0.2-0.5-0.2-0.7-0.2c-0.2,0-0.4,0.1-0.5,0.2s-0.3,0.3-0.3,0.6s-0.1,0.9-0.1,1.9V408.9z"/>
			</g>
			<g>
				<g>
					<path class="st12" d="M545.3,408.9l-2.8-7.9h1.7l2,5.8l1.9-5.8h1.7l-2.8,7.9H545.3z"/>
					<path class="st12" d="M550.4,402.5v-1.4h1.5v1.4H550.4z M550.4,408.9v-5.7h1.5v5.7H550.4z"/>
					<path class="st12" d="M558.6,408.9h-1.5V406c0-0.6,0-1-0.1-1.2c-0.1-0.2-0.2-0.3-0.3-0.4c-0.1-0.1-0.3-0.1-0.5-0.1
						c-0.3,0-0.5,0.1-0.7,0.2c-0.2,0.1-0.3,0.3-0.4,0.6c-0.1,0.2-0.1,0.7-0.1,1.3v2.6h-1.5v-5.7h1.4v0.8c0.5-0.6,1.1-1,1.9-1
						c0.3,0,0.6,0.1,0.9,0.2c0.3,0.1,0.5,0.3,0.6,0.5c0.1,0.2,0.2,0.4,0.3,0.6c0.1,0.2,0.1,0.6,0.1,1V408.9z"/>
					<path class="st12" d="M559.4,403.2h1.6l1.4,4l1.3-4h1.6l-2,5.5l-0.4,1c-0.1,0.3-0.3,0.6-0.4,0.8c-0.1,0.2-0.3,0.3-0.4,0.4
						c-0.2,0.1-0.3,0.2-0.6,0.3c-0.2,0.1-0.5,0.1-0.8,0.1c-0.3,0-0.6,0-0.9-0.1l-0.1-1.2c0.2,0,0.4,0.1,0.6,0.1
						c0.4,0,0.6-0.1,0.8-0.3c0.2-0.2,0.3-0.5,0.4-0.8L559.4,403.2z"/>
					<path class="st12" d="M566.2,408.9v-7.9h1.5v7.9H566.2z"/>
				</g>
				<path class="st1" d="M531.5,415.4h-12.9c-2.1,0-3.8-1.7-3.8-3.8v-12.9c0-2.1,1.7-3.8,3.8-3.8h12.9c2.1,0,3.8,1.7,3.8,3.8v12.9
					C535.3,413.7,533.6,415.4,531.5,415.4z"/>
			</g>
			<path class="st2" d="M620.7,415.4h-12.9c-2.1,0-3.8-1.7-3.8-3.8v-12.9c0-2.1,1.7-3.8,3.8-3.8h12.9c2.1,0,3.8,1.7,3.8,3.8v12.9
				C624.5,413.7,622.8,415.4,620.7,415.4z"/>
			<path class="st3" d="M705.9,415.4h-12.9c-2.1,0-3.8-1.7-3.8-3.8v-12.9c0-2.1,1.7-3.8,3.8-3.8h12.9c2.1,0,3.8,1.7,3.8,3.8v12.9
				C709.7,413.7,708,415.4,705.9,415.4z"/>
		</g>
	</g>
	<g>
		<g>
			<g>
				<circle class="st4" cx="482.3" cy="129.7" r="31.5"/>
			</g>
			<g>
				<radialGradient id="SVGID_37_" cx="497.2444" cy="115.7337" r="31.5843" gradientUnits="userSpaceOnUse">
					<stop  offset="0" style="stop-color:#FFFFFF"/>
					<stop  offset="0.5053" style="stop-color:#FDFDFE"/>
					<stop  offset="0.6873" style="stop-color:#F6F8F9"/>
					<stop  offset="0.817" style="stop-color:#EBEDF0"/>
					<stop  offset="0.9211" style="stop-color:#DADFE3"/>
					<stop  offset="1" style="stop-color:#C7CFD5"/>
				</radialGradient>
				<circle class="st43" cx="482.4" cy="129.7" r="31.6"/>
				<radialGradient id="SVGID_38_" cx="497.8334" cy="113.9311" r="36.8538" gradientUnits="userSpaceOnUse">
					<stop  offset="0" style="stop-color:#F6F7F8"/>
					<stop  offset="0.4318" style="stop-color:#F4F5F6"/>
					<stop  offset="0.6764" style="stop-color:#EBEEF0"/>
					<stop  offset="0.8736" style="stop-color:#DEE2E6"/>
					<stop  offset="1" style="stop-color:#D0D7DC"/>
				</radialGradient>
				<circle class="st44" cx="482.4" cy="129.7" r="31.3"/>
				<radialGradient id="SVGID_39_" cx="498.4069" cy="112.169" r="42.3249" gradientUnits="userSpaceOnUse">
					<stop  offset="0" style="stop-color:#ECEFF1"/>
					<stop  offset="0.4869" style="stop-color:#E9ECEE"/>
					<stop  offset="0.8802" style="stop-color:#DFE3E7"/>
					<stop  offset="1" style="stop-color:#DADFE3"/>
				</radialGradient>
				<circle class="st45" cx="482.4" cy="129.7" r="30.9"/>
				<radialGradient id="SVGID_40_" cx="498.9649" cy="110.4477" r="47.9939" gradientUnits="userSpaceOnUse">
					<stop  offset="0" style="stop-color:#E3E7EA"/>
					<stop  offset="1" style="stop-color:#E3E7EA"/>
				</radialGradient>
				<circle class="st46" cx="482.4" cy="129.7" r="30.6"/>
				<radialGradient id="SVGID_41_" cx="499.5074" cy="108.767" r="53.8563" gradientUnits="userSpaceOnUse">
					<stop  offset="0" style="stop-color:#DADFE3"/>
					<stop  offset="0.5245" style="stop-color:#E1E5E8"/>
					<stop  offset="1" style="stop-color:#ECEFF1"/>
				</radialGradient>
				<circle class="st47" cx="482.4" cy="129.7" r="30.3"/>
				<radialGradient id="SVGID_42_" cx="500.0345" cy="107.127" r="59.9066" gradientUnits="userSpaceOnUse">
					<stop  offset="0" style="stop-color:#D0D7DC"/>
					<stop  offset="0.433" style="stop-color:#DEE3E6"/>
					<stop  offset="1" style="stop-color:#F6F7F8"/>
				</radialGradient>
				<circle class="st48" cx="482.4" cy="129.7" r="30"/>
				<radialGradient id="SVGID_43_" cx="500.546" cy="105.5276" r="66.1383" gradientUnits="userSpaceOnUse">
					<stop  offset="0" style="stop-color:#C7CFD5"/>
					<stop  offset="1" style="stop-color:#FFFFFF"/>
				</radialGradient>
				<circle class="st49" cx="482.4" cy="129.7" r="29.6"/>
			</g>
		</g>
		<g>
			<g>
				<path class="st12" d="M466.1,133.7l2.3-0.3c0.1,0.6,0.3,1,0.6,1.3c0.3,0.3,0.7,0.5,1.1,0.5c0.5,0,0.9-0.2,1.2-0.5
					s0.5-0.9,0.5-1.5c0-0.6-0.2-1.1-0.5-1.4s-0.7-0.5-1.2-0.5c-0.3,0-0.7,0.1-1.1,0.2l0.3-1.9c0.6,0,1.1-0.1,1.4-0.4
					c0.3-0.3,0.5-0.7,0.5-1.2c0-0.4-0.1-0.7-0.4-1c-0.2-0.2-0.6-0.4-1-0.4c-0.4,0-0.7,0.1-1,0.4c-0.3,0.3-0.5,0.7-0.5,1.2l-2.1-0.4
					c0.1-0.7,0.4-1.3,0.7-1.8c0.3-0.4,0.7-0.8,1.3-1c0.5-0.3,1.1-0.4,1.8-0.4c1.1,0,2.1,0.4,2.8,1.1c0.6,0.6,0.9,1.3,0.9,2
					c0,1.1-0.6,1.9-1.8,2.6c0.7,0.1,1.3,0.5,1.7,1c0.4,0.5,0.6,1.1,0.6,1.9c0,1.1-0.4,2-1.2,2.7c-0.8,0.8-1.8,1.1-2.9,1.1
					c-1.1,0-2-0.3-2.7-1C466.6,135.6,466.2,134.7,466.1,133.7z"/>
				<path class="st12" d="M477.6,130.4c-0.6-0.3-1-0.6-1.3-1c-0.3-0.4-0.4-0.9-0.4-1.5c0-0.9,0.3-1.7,1-2.2c0.6-0.6,1.5-0.9,2.7-0.9
					c1.2,0,2.1,0.3,2.7,0.9c0.6,0.6,1,1.3,1,2.2c0,0.6-0.1,1.1-0.4,1.5c-0.3,0.4-0.7,0.8-1.2,1c0.7,0.3,1.2,0.7,1.5,1.2
					s0.5,1.1,0.5,1.8c0,1.1-0.4,2-1.1,2.7c-0.7,0.7-1.7,1.1-2.9,1.1c-1.1,0-2-0.3-2.8-0.9c-0.9-0.7-1.3-1.6-1.3-2.8
					c0-0.7,0.2-1.3,0.5-1.8S476.9,130.7,477.6,130.4z M477.9,133.2c0,0.6,0.2,1.1,0.5,1.5c0.3,0.4,0.7,0.5,1.2,0.5
					c0.5,0,0.9-0.2,1.2-0.5s0.5-0.8,0.5-1.5c0-0.6-0.2-1-0.5-1.4c-0.3-0.3-0.7-0.5-1.2-0.5c-0.6,0-1,0.2-1.3,0.6
					S477.9,132.8,477.9,133.2z M478.1,128c0,0.5,0.1,0.8,0.4,1.1c0.3,0.3,0.6,0.4,1,0.4c0.4,0,0.8-0.1,1.1-0.4s0.4-0.6,0.4-1.1
					c0-0.4-0.1-0.8-0.4-1s-0.6-0.4-1-0.4c-0.4,0-0.8,0.1-1.1,0.4S478.1,127.6,478.1,128z"/>
				<path class="st12" d="M485.1,127.8c0-1.1,0.2-1.9,0.7-2.4s1.1-0.8,1.9-0.8c0.8,0,1.5,0.3,2,0.8c0.5,0.5,0.7,1.3,0.7,2.4
					c0,1.1-0.2,1.9-0.7,2.4s-1.1,0.8-1.9,0.8c-0.8,0-1.5-0.3-2-0.8C485.3,129.7,485.1,128.9,485.1,127.8z M486.9,127.8
					c0,0.8,0.1,1.3,0.3,1.6c0.1,0.2,0.3,0.3,0.6,0.3c0.2,0,0.4-0.1,0.6-0.3c0.2-0.3,0.3-0.8,0.3-1.6s-0.1-1.3-0.3-1.6
					c-0.1-0.2-0.3-0.3-0.6-0.3c-0.2,0-0.4,0.1-0.6,0.3C487,126.4,486.9,127,486.9,127.8z M489.5,137.4h-1.7l6.5-12.8h1.7
					L489.5,137.4z M493.3,134.2c0-1.1,0.2-1.9,0.7-2.4c0.5-0.5,1.1-0.8,2-0.8c0.8,0,1.5,0.3,2,0.8c0.5,0.5,0.7,1.3,0.7,2.4
					c0,1.1-0.2,1.9-0.7,2.4s-1.1,0.8-1.9,0.8c-0.8,0-1.5-0.3-2-0.8S493.3,135.3,493.3,134.2z M495.1,134.2c0,0.8,0.1,1.3,0.3,1.6
					c0.1,0.2,0.3,0.3,0.6,0.3c0.2,0,0.4-0.1,0.6-0.3c0.2-0.3,0.3-0.8,0.3-1.6s-0.1-1.3-0.3-1.6c-0.1-0.2-0.3-0.3-0.6-0.3
					c-0.2,0-0.4,0.1-0.6,0.3C495.2,132.9,495.1,133.4,495.1,134.2z"/>
			</g>
		</g>
	</g>
	<g>
		<g>
			<g>
				<circle class="st4" cx="740.9" cy="71.9" r="31.5"/>
			</g>
			<g>
				<radialGradient id="SVGID_44_" cx="755.8336" cy="57.8832" r="31.5843" gradientUnits="userSpaceOnUse">
					<stop  offset="0" style="stop-color:#FFFFFF"/>
					<stop  offset="0.5053" style="stop-color:#FDFDFE"/>
					<stop  offset="0.6873" style="stop-color:#F6F8F9"/>
					<stop  offset="0.817" style="stop-color:#EBEDF0"/>
					<stop  offset="0.9211" style="stop-color:#DADFE3"/>
					<stop  offset="1" style="stop-color:#C7CFD5"/>
				</radialGradient>
				<circle class="st50" cx="741" cy="71.9" r="31.6"/>
				<radialGradient id="SVGID_45_" cx="756.4225" cy="56.0806" r="36.8538" gradientUnits="userSpaceOnUse">
					<stop  offset="0" style="stop-color:#F6F7F8"/>
					<stop  offset="0.4318" style="stop-color:#F4F5F6"/>
					<stop  offset="0.6764" style="stop-color:#EBEEF0"/>
					<stop  offset="0.8736" style="stop-color:#DEE2E6"/>
					<stop  offset="1" style="stop-color:#D0D7DC"/>
				</radialGradient>
				<circle class="st51" cx="741" cy="71.9" r="31.3"/>
				<radialGradient id="SVGID_46_" cx="756.9961" cy="54.3186" r="42.3249" gradientUnits="userSpaceOnUse">
					<stop  offset="0" style="stop-color:#ECEFF1"/>
					<stop  offset="0.4869" style="stop-color:#E9ECEE"/>
					<stop  offset="0.8802" style="stop-color:#DFE3E7"/>
					<stop  offset="1" style="stop-color:#DADFE3"/>
				</radialGradient>
				<circle class="st52" cx="741" cy="71.9" r="30.9"/>
				<radialGradient id="SVGID_47_" cx="757.5541" cy="52.5972" r="47.9939" gradientUnits="userSpaceOnUse">
					<stop  offset="0" style="stop-color:#E3E7EA"/>
					<stop  offset="1" style="stop-color:#E3E7EA"/>
				</radialGradient>
				<circle class="st53" cx="741" cy="71.9" r="30.6"/>
				<radialGradient id="SVGID_48_" cx="758.0966" cy="50.9165" r="53.8563" gradientUnits="userSpaceOnUse">
					<stop  offset="0" style="stop-color:#DADFE3"/>
					<stop  offset="0.5245" style="stop-color:#E1E5E8"/>
					<stop  offset="1" style="stop-color:#ECEFF1"/>
				</radialGradient>
				<circle class="st54" cx="741" cy="71.9" r="30.3"/>
				<radialGradient id="SVGID_49_" cx="758.6237" cy="49.2765" r="59.9066" gradientUnits="userSpaceOnUse">
					<stop  offset="0" style="stop-color:#D0D7DC"/>
					<stop  offset="0.433" style="stop-color:#DEE3E6"/>
					<stop  offset="1" style="stop-color:#F6F7F8"/>
				</radialGradient>
				<circle class="st55" cx="741" cy="71.9" r="30"/>
				<radialGradient id="SVGID_50_" cx="759.1352" cy="47.6771" r="66.1383" gradientUnits="userSpaceOnUse">
					<stop  offset="0" style="stop-color:#C7CFD5"/>
					<stop  offset="1" style="stop-color:#FFFFFF"/>
				</radialGradient>
				<circle class="st56" cx="741" cy="71.9" r="29.6"/>
			</g>
		</g>
		<g>
			<g>
				<path class="st12" d="M732.6,76.7v2.2h-8.2c0.1-0.8,0.4-1.6,0.8-2.3c0.4-0.7,1.3-1.7,2.6-2.9c1.1-1,1.7-1.6,1.9-2
					c0.3-0.5,0.5-1,0.5-1.4c0-0.5-0.1-0.9-0.4-1.2s-0.7-0.4-1.2-0.4c-0.5,0-0.9,0.1-1.2,0.4s-0.5,0.8-0.5,1.5l-2.3-0.2
					c0.1-1.3,0.6-2.2,1.3-2.8c0.7-0.6,1.6-0.8,2.7-0.8c1.2,0,2.1,0.3,2.8,1c0.7,0.6,1,1.5,1,2.4c0,0.5-0.1,1.1-0.3,1.6
					s-0.5,1-0.9,1.6c-0.3,0.4-0.8,0.9-1.5,1.6c-0.7,0.7-1.2,1.1-1.4,1.3c-0.2,0.2-0.4,0.4-0.5,0.6H732.6z"/>
				<path class="st12" d="M742.1,69.6l-2.3,0.2c-0.1-0.5-0.2-0.8-0.4-1c-0.2-0.2-0.5-0.3-0.9-0.3c-0.5,0-0.9,0.2-1.2,0.7
					c-0.3,0.4-0.6,1.4-0.6,2.8c0.6-0.7,1.3-1,2.2-1c1,0,1.8,0.4,2.5,1.1s1,1.7,1,2.9c0,1.2-0.4,2.2-1.1,3c-0.7,0.8-1.7,1.1-2.8,1.1
					c-1.2,0-2.2-0.5-3-1.4c-0.8-1-1.2-2.5-1.2-4.7c0-2.2,0.4-3.8,1.2-4.8s1.9-1.5,3.2-1.5c0.9,0,1.7,0.3,2.3,0.8
					C741.5,67.9,741.9,68.6,742.1,69.6z M736.8,74.7c0,0.8,0.2,1.3,0.5,1.8c0.3,0.4,0.7,0.6,1.2,0.6c0.4,0,0.8-0.2,1.1-0.5
					c0.3-0.3,0.4-0.9,0.4-1.7c0-0.8-0.2-1.4-0.5-1.7c-0.3-0.4-0.7-0.6-1.2-0.6c-0.4,0-0.8,0.2-1.1,0.5S736.8,74,736.8,74.7z"/>
				<path class="st12" d="M743.7,69.7c0-1.1,0.2-1.9,0.7-2.4s1.1-0.8,1.9-0.8c0.8,0,1.5,0.3,2,0.8c0.5,0.5,0.7,1.3,0.7,2.4
					c0,1.1-0.2,1.9-0.7,2.4s-1.1,0.8-1.9,0.8c-0.8,0-1.5-0.3-2-0.8C743.9,71.6,743.7,70.8,743.7,69.7z M745.5,69.6
					c0,0.8,0.1,1.3,0.3,1.6c0.1,0.2,0.3,0.3,0.6,0.3c0.2,0,0.4-0.1,0.6-0.3c0.2-0.3,0.3-0.8,0.3-1.6s-0.1-1.3-0.3-1.6
					c-0.1-0.2-0.3-0.3-0.6-0.3c-0.2,0-0.4,0.1-0.6,0.3C745.6,68.3,745.5,68.8,745.5,69.6z M748.1,79.3h-1.7l6.5-12.8h1.7L748.1,79.3
					z M751.9,76.1c0-1.1,0.2-1.9,0.7-2.4c0.5-0.5,1.1-0.8,2-0.8c0.8,0,1.5,0.3,2,0.8c0.5,0.5,0.7,1.3,0.7,2.4c0,1.1-0.2,1.9-0.7,2.4
					s-1.1,0.8-1.9,0.8c-0.8,0-1.5-0.3-2-0.8S751.9,77.2,751.9,76.1z M753.7,76.1c0,0.8,0.1,1.3,0.3,1.6c0.1,0.2,0.3,0.3,0.6,0.3
					c0.2,0,0.4-0.1,0.6-0.3c0.2-0.3,0.3-0.8,0.3-1.6s-0.1-1.3-0.3-1.6c-0.1-0.2-0.3-0.3-0.6-0.3c-0.2,0-0.4,0.1-0.6,0.3
					C753.8,74.8,753.7,75.3,753.7,76.1z"/>
			</g>
		</g>
	</g>
	<g>
		<g>
			<g>
				<circle class="st4" cx="686.4" cy="320.1" r="31.5"/>
			</g>
			<g>
				<radialGradient id="SVGID_51_" cx="701.3589" cy="306.0768" r="31.5843" gradientUnits="userSpaceOnUse">
					<stop  offset="0" style="stop-color:#FFFFFF"/>
					<stop  offset="0.5053" style="stop-color:#FDFDFE"/>
					<stop  offset="0.6873" style="stop-color:#F6F8F9"/>
					<stop  offset="0.817" style="stop-color:#EBEDF0"/>
					<stop  offset="0.9211" style="stop-color:#DADFE3"/>
					<stop  offset="1" style="stop-color:#C7CFD5"/>
				</radialGradient>
				<circle class="st57" cx="686.5" cy="320.1" r="31.6"/>
				<radialGradient id="SVGID_52_" cx="701.9479" cy="304.2741" r="36.8538" gradientUnits="userSpaceOnUse">
					<stop  offset="0" style="stop-color:#F6F7F8"/>
					<stop  offset="0.4318" style="stop-color:#F4F5F6"/>
					<stop  offset="0.6764" style="stop-color:#EBEEF0"/>
					<stop  offset="0.8736" style="stop-color:#DEE2E6"/>
					<stop  offset="1" style="stop-color:#D0D7DC"/>
				</radialGradient>
				<circle class="st58" cx="686.5" cy="320.1" r="31.3"/>
				<radialGradient id="SVGID_53_" cx="702.5215" cy="302.5121" r="42.3249" gradientUnits="userSpaceOnUse">
					<stop  offset="0" style="stop-color:#ECEFF1"/>
					<stop  offset="0.4869" style="stop-color:#E9ECEE"/>
					<stop  offset="0.8802" style="stop-color:#DFE3E7"/>
					<stop  offset="1" style="stop-color:#DADFE3"/>
				</radialGradient>
				<circle class="st59" cx="686.5" cy="320.1" r="30.9"/>
				<radialGradient id="SVGID_54_" cx="703.0795" cy="300.7907" r="47.9939" gradientUnits="userSpaceOnUse">
					<stop  offset="0" style="stop-color:#E3E7EA"/>
					<stop  offset="1" style="stop-color:#E3E7EA"/>
				</radialGradient>
				<circle class="st60" cx="686.5" cy="320.1" r="30.6"/>
				<radialGradient id="SVGID_55_" cx="703.622" cy="299.11" r="53.8563" gradientUnits="userSpaceOnUse">
					<stop  offset="0" style="stop-color:#DADFE3"/>
					<stop  offset="0.5245" style="stop-color:#E1E5E8"/>
					<stop  offset="1" style="stop-color:#ECEFF1"/>
				</radialGradient>
				<circle class="st61" cx="686.5" cy="320.1" r="30.3"/>
				<radialGradient id="SVGID_56_" cx="704.149" cy="297.47" r="59.9066" gradientUnits="userSpaceOnUse">
					<stop  offset="0" style="stop-color:#D0D7DC"/>
					<stop  offset="0.433" style="stop-color:#DEE3E6"/>
					<stop  offset="1" style="stop-color:#F6F7F8"/>
				</radialGradient>
				<circle class="st62" cx="686.5" cy="320.1" r="30"/>
				<radialGradient id="SVGID_57_" cx="704.6606" cy="295.8706" r="66.1383" gradientUnits="userSpaceOnUse">
					<stop  offset="0" style="stop-color:#C7CFD5"/>
					<stop  offset="1" style="stop-color:#FFFFFF"/>
				</radialGradient>
				<circle class="st63" cx="686.5" cy="320.1" r="29.6"/>
			</g>
		</g>
		<g>
			<g>
				<path class="st12" d="M674.8,327v-2.4h-5v-2l5.3-7.7h2v7.7h1.5v2h-1.5v2.4H674.8z M674.8,322.5v-4.2l-2.8,4.2H674.8z"/>
				<path class="st12" d="M683.6,314.8c1.2,0,2.1,0.4,2.8,1.3c0.8,1,1.2,2.6,1.2,5c0,2.3-0.4,4-1.2,5c-0.7,0.8-1.6,1.2-2.8,1.2
					c-1.2,0-2.1-0.5-2.9-1.4c-0.7-0.9-1.1-2.5-1.1-4.9c0-2.3,0.4-3.9,1.2-4.9C681.6,315.2,682.5,314.8,683.6,314.8z M683.6,316.7
					c-0.3,0-0.5,0.1-0.8,0.3c-0.2,0.2-0.4,0.5-0.5,1c-0.2,0.6-0.2,1.6-0.2,3s0.1,2.4,0.2,2.9s0.3,0.9,0.5,1.1s0.5,0.3,0.8,0.3
					s0.5-0.1,0.8-0.3c0.2-0.2,0.4-0.5,0.5-1c0.2-0.6,0.2-1.6,0.2-3s-0.1-2.4-0.2-2.9s-0.3-0.9-0.5-1.1S683.9,316.7,683.6,316.7z"/>
				<path class="st12" d="M689.2,317.8c0-1.1,0.2-1.9,0.7-2.4s1.1-0.8,1.9-0.8c0.8,0,1.5,0.3,2,0.8c0.5,0.5,0.7,1.3,0.7,2.4
					c0,1.1-0.2,1.9-0.7,2.4s-1.1,0.8-1.9,0.8c-0.8,0-1.5-0.3-2-0.8C689.4,319.8,689.2,318.9,689.2,317.8z M691,317.8
					c0,0.8,0.1,1.3,0.3,1.6c0.1,0.2,0.3,0.3,0.6,0.3c0.2,0,0.4-0.1,0.6-0.3c0.2-0.3,0.3-0.8,0.3-1.6s-0.1-1.3-0.3-1.6
					c-0.1-0.2-0.3-0.3-0.6-0.3c-0.2,0-0.4,0.1-0.6,0.3C691.1,316.5,691,317,691,317.8z M693.6,327.5h-1.7l6.5-12.8h1.7L693.6,327.5z
					 M697.4,324.3c0-1.1,0.2-1.9,0.7-2.4c0.5-0.5,1.1-0.8,2-0.8c0.8,0,1.5,0.3,2,0.8c0.5,0.5,0.7,1.3,0.7,2.4c0,1.1-0.2,1.9-0.7,2.4
					s-1.1,0.8-1.9,0.8c-0.8,0-1.5-0.3-2-0.8S697.4,325.4,697.4,324.3z M699.2,324.3c0,0.8,0.1,1.3,0.3,1.6c0.1,0.2,0.3,0.3,0.6,0.3
					c0.2,0,0.4-0.1,0.6-0.3c0.2-0.3,0.3-0.8,0.3-1.6s-0.1-1.3-0.3-1.6c-0.1-0.2-0.3-0.3-0.6-0.3c-0.2,0-0.4,0.1-0.6,0.3
					C699.3,323,699.2,323.5,699.2,324.3z"/>
			</g>
		</g>
	</g>
</g>
</svg>
