<?xml version="1.0" encoding="utf-8"?>
<!-- Generator: Adobe Illustrator 21.0.2, SVG Export Plug-In . SVG Version: 6.00 Build 0)  -->
<svg version="1.1" id="Layer_1" xmlns="http://www.w3.org/2000/svg" xmlns:xlink="http://www.w3.org/1999/xlink" x="0px" y="0px"
	 viewBox="0 0 284.9 116.2" style="enable-background:new 0 0 284.9 116.2;" xml:space="preserve">
<style type="text/css">
	.st0{fill:#00B5EC;}
	.st1{fill:none;stroke:#00B5EC;stroke-width:4;stroke-miterlimit:10;}
	.st2{fill:#5B7F95;}
</style>
<g>
	<g>
		<path class="st0" d="M11.7,4.9v8.6h-1.4V6h0L8,13.5H6.7L4.4,6h0v7.5H3V4.9h2.3l2,6.7h0l2.1-6.7H11.7z"/>
		<path class="st0" d="M13.5,4.9h6.3v1.2h-4.9v2.3h4.5v1.2h-4.5v2.7h5v1.2h-6.5V4.9z"/>
		<path class="st0" d="M23.7,9.1l-2.8-4.1h1.7l1.6,2.5c0.3,0.4,0.3,0.4,0.4,0.6c0.1-0.1,0.1-0.2,0.3-0.5l1.7-2.5h1.6L25.4,9l3.1,4.5
			h-1.7l-2-3c-0.1-0.2-0.1-0.2-0.2-0.3c-0.1,0.1-0.1,0.2-0.2,0.3l-2,3h-1.7L23.7,9.1z"/>
		<path class="st0" d="M29.5,4.9H31v8.6h-1.4V4.9z"/>
		<path class="st0" d="M38.6,7.6c-0.3-1-0.9-1.6-2.1-1.6C34.3,6,34,8,34,9.2c0,0.5,0.1,1.5,0.4,2.2c0.4,0.6,1.1,1.1,2,1.1
			c1.4,0,2-1,2.2-2l1.4,0.4c-0.1,0.3-0.3,1-0.8,1.6c-0.9,1-2.2,1.2-2.8,1.2c-2.8,0-4-2.1-4-4.4c0-2.8,1.7-4.4,4-4.4
			c2.4,0,3.1,1.5,3.4,2.5L38.6,7.6z"/>
		<path class="st0" d="M41.5,4.9h1.4v3.5h4V4.9h1.4v8.6h-1.4V9.6h-4v3.9h-1.4V4.9z"/>
		<path class="st0" d="M50.1,4.9h6.3v1.2h-4.9v2.3h4.5v1.2h-4.5v2.7h5v1.2h-6.5V4.9z"/>
		<path class="st0" d="M66.7,4.9v8.6h-1.4V6h0L63,13.5h-1.3L59.4,6h0v7.5H58V4.9h2.3l2,6.7h0l2.1-6.7H66.7z"/>
	</g>
	<g>
		<path class="st0" d="M1.4,26.6c0,0.2,0.1,0.6,0.4,1c0.6,0.8,1.6,0.8,1.8,0.8c1.1,0,1.9-0.5,1.9-1.3c0-0.9-0.8-1.1-2.1-1.4
			c-1.2-0.3-3.1-0.7-3.1-2.6c0-1.2,1-2.4,3.1-2.4c1.8,0,3.2,0.8,3.3,2.6l-1.4,0.1c0-0.4-0.2-1.5-1.8-1.5c-0.9,0-1.7,0.3-1.7,1.1
			c0,0.6,0.5,0.9,2,1.2C5,24.7,6.9,25.1,6.9,27c0,1.1-0.7,2.6-3.4,2.6c-2.7,0-3.4-1.6-3.5-2.9L1.4,26.6z"/>
		<path class="st0" d="M12.2,20.8c2.7,0,4.1,1.9,4.1,4.4c0,2.6-1.5,4.4-4.1,4.4c-2.6,0-4.1-1.9-4.1-4.5C8.1,23,9.3,20.8,12.2,20.8z
			 M12.2,28.5c1.1,0,1.9-0.6,2.2-1.2c0.2-0.3,0.4-0.9,0.4-2c0-1.9-1-3.2-2.7-3.2c-1.3,0-2.7,0.8-2.7,3.2
			C9.5,27.6,10.9,28.5,12.2,28.5z"/>
		<path class="st0" d="M17.8,20.9h1.4v7.4h4.3v1.2h-5.7V20.9z"/>
		<path class="st0" d="M26.2,20.9v4.8c0,1.2,0,2.7,2,2.7c1.9,0,2-1.3,2-2.6v-4.9h1.4v4.7c0,1.6,0,4-3.4,4c-3.4,0-3.4-2.4-3.4-3.9
			v-4.8H26.2z"/>
		<path class="st0" d="M35.5,22.1h-2.7v-1.2h6.8v1.2h-2.7v7.4h-1.4V22.1z"/>
		<path class="st0" d="M40.9,20.9h1.4v8.6h-1.4V20.9z"/>
		<path class="st0" d="M47.9,20.8c2.7,0,4.1,1.9,4.1,4.4c0,2.6-1.5,4.4-4.1,4.4c-2.6,0-4.1-1.9-4.1-4.5C43.8,23,45.1,20.8,47.9,20.8
			z M47.9,28.5c1.1,0,1.9-0.6,2.2-1.2c0.2-0.3,0.4-0.9,0.4-2c0-1.9-1-3.2-2.7-3.2c-1.3,0-2.7,0.8-2.7,3.2
			C45.3,27.6,46.6,28.5,47.9,28.5z"/>
		<path class="st0" d="M53.6,20.9H55l3.6,5.6c0.2,0.4,0.3,0.4,0.5,0.8l0,0c0-0.1,0-0.5,0-1v-5.4h1.3v8.6h-1.4l-3.9-6
			c-0.1-0.1-0.1-0.2-0.2-0.3l0,0c0,0.1,0,0.4,0,0.6v5.7h-1.3V20.9z"/>
		<path class="st0" d="M63.1,26.6c0,0.2,0.1,0.6,0.4,1c0.6,0.8,1.6,0.8,1.8,0.8c1.1,0,1.9-0.5,1.9-1.3c0-0.9-0.8-1.1-2.1-1.4
			c-1.2-0.3-3.1-0.7-3.1-2.6c0-1.2,1-2.4,3.1-2.4c1.8,0,3.2,0.8,3.3,2.6L67,23.5c0-0.4-0.2-1.5-1.8-1.5c-0.9,0-1.7,0.3-1.7,1.1
			c0,0.6,0.5,0.9,2,1.2c1.4,0.3,3.2,0.7,3.2,2.7c0,1.1-0.7,2.6-3.4,2.6c-2.7,0-3.4-1.6-3.5-2.9L63.1,26.6z"/>
	</g>
	<g>
		<line class="st1" x1="88.9" y1="0" x2="88.9" y2="103.9"/>
	</g>
	<polygon class="st0" points="99.4,51.1 88.9,39.4 88.9,62.9 	"/>
	<g>
		<path class="st2" d="M106.9,9.3c0-0.4,0.1-0.8,0.4-1s0.6-0.4,1-0.4c0.4,0,0.8,0.1,1.1,0.4s0.4,0.6,0.4,1s-0.1,0.8-0.4,1.1
			s-0.6,0.4-1.1,0.4c-0.4,0-0.8-0.1-1-0.4S106.9,9.7,106.9,9.3z"/>
	</g>
	<g>
		<path class="st2" d="M113.8,10.6c0,0.2,0.1,0.6,0.4,1c0.6,0.8,1.6,0.8,1.8,0.8c1.1,0,1.9-0.5,1.9-1.3c0-0.9-0.8-1.1-2.1-1.4
			c-1.2-0.3-3.1-0.7-3.1-2.6c0-1.2,1-2.4,3.1-2.4c1.8,0,3.2,0.8,3.3,2.6l-1.4,0.1c0-0.4-0.2-1.5-1.8-1.5c-0.9,0-1.7,0.3-1.7,1.1
			c0,0.6,0.5,0.9,2,1.2c1.4,0.3,3.2,0.7,3.2,2.7c0,1.1-0.7,2.6-3.4,2.6c-2.7,0-3.4-1.6-3.5-2.9L113.8,10.6z"/>
		<path class="st2" d="M124.8,13.5v-0.9h0c-0.7,1-1.6,1.1-2,1.1c-0.7,0-1.5-0.3-1.8-0.9c-0.3-0.5-0.3-1-0.3-1.6V7.3h1.3v3.2
			c0,0.9,0,1.3,0.2,1.6c0.3,0.4,0.7,0.5,1,0.5c0.6,0,1.1-0.3,1.2-0.7c0.2-0.4,0.2-0.8,0.2-1.6v-3h1.3v6.2H124.8z"/>
		<path class="st2" d="M131.1,9.1c-0.1-0.8-0.9-0.9-1.3-0.9c-0.4,0-1.2,0.1-1.2,0.7c0,0.4,0.4,0.6,1.5,0.8c1.5,0.3,2.6,0.7,2.6,1.9
			c0,1-0.7,2.1-2.7,2.1c-1.9,0-2.6-1.1-2.8-2l1.3-0.2c0.2,1,1,1.2,1.5,1.2c0.2,0,1.3,0,1.3-0.9c0-0.3-0.2-0.5-0.9-0.7
			c-1.9-0.4-3.1-0.8-3.1-2.1c0-1.2,1.1-1.9,2.3-1.9c0.8,0,2.4,0.1,2.7,1.7L131.1,9.1z"/>
		<path class="st2" d="M135.3,7.3h1.1v1h-1.1v3.1c0,0.7,0,1,0.5,1c0.3,0,0.5-0.1,0.6-0.1l0.1,1.1c-0.2,0.1-0.5,0.2-1,0.2
			c-1.6,0-1.6-1-1.6-2.1V8.3h-0.8v-1h0.8V5.9l1.3-0.8V7.3z"/>
		<path class="st2" d="M137.1,8.9c0.3-0.8,0.8-1.8,2.8-1.8c0.9,0,1.6,0.2,2,0.6c0.3,0.3,0.5,0.7,0.5,1.8l0,2.2
			c0,1.1,0.2,1.5,0.4,1.8h-1.4c-0.1-0.3-0.2-0.5-0.2-0.7c-0.3,0.3-1,0.9-2.1,0.9c-1.3,0-2.1-0.7-2.1-1.8c0-1.6,1.7-1.8,2.4-2
			c0.4-0.1,1.3-0.2,1.7-0.4c0-0.2,0-0.4,0-0.6c-0.1-0.7-0.9-0.7-1.2-0.7c-1.1,0-1.3,0.4-1.5,1L137.1,8.9z M139.6,10.8
			c-0.5,0.1-1.3,0.2-1.3,0.9c0,0.3,0.2,0.9,1.1,0.9c0.6,0,1.1-0.3,1.4-0.7c0.2-0.3,0.2-0.7,0.2-1.5
			C140.6,10.6,140.1,10.7,139.6,10.8z"/>
		<path class="st2" d="M143.8,4.9h1.3v1.4h-1.3V4.9z M143.8,7.3h1.3v6.2h-1.3V7.3z"/>
		<path class="st2" d="M146.7,7.3h1.2v0.9h0c0.4-0.7,1.2-1,2-1c0.7,0,1.5,0.3,1.8,0.9s0.3,1,0.3,1.8v3.6h-1.3V10
			c0-0.8,0-1.8-1.2-1.8c-0.6,0-1.1,0.3-1.3,0.7c-0.2,0.4-0.3,0.8-0.3,1.5v3.1h-1.3V7.3z"/>
		<path class="st2" d="M153.4,8.9c0.3-0.8,0.8-1.8,2.8-1.8c0.9,0,1.6,0.2,2,0.6c0.3,0.3,0.5,0.7,0.5,1.8l0,2.2
			c0,1.1,0.2,1.5,0.4,1.8h-1.4c-0.1-0.3-0.2-0.5-0.2-0.7c-0.3,0.3-1,0.9-2.1,0.9c-1.3,0-2.1-0.7-2.1-1.8c0-1.6,1.7-1.8,2.4-2
			c0.4-0.1,1.3-0.2,1.7-0.4c0-0.2,0-0.4,0-0.6c-0.1-0.7-0.9-0.7-1.2-0.7c-1.1,0-1.3,0.4-1.5,1L153.4,8.9z M155.8,10.8
			c-0.5,0.1-1.3,0.2-1.3,0.9c0,0.3,0.2,0.9,1.1,0.9c0.6,0,1.1-0.3,1.4-0.7c0.2-0.3,0.2-0.7,0.2-1.5
			C156.9,10.6,156.3,10.7,155.8,10.8z"/>
		<path class="st2" d="M160.1,13.5V4.9h1.3V8h0c0.2-0.2,0.7-0.9,1.7-0.9c1.5,0,2.6,1.2,2.6,3.2c0,2.3-1.4,3.3-2.6,3.3
			c-0.4,0-1.2-0.1-1.8-1h0v0.8H160.1z M162.9,12.5c0.7,0,1.5-0.5,1.5-2.2c0-0.8-0.2-2.2-1.5-2.2c-0.8,0-1.2,0.5-1.4,1
			c-0.2,0.5-0.2,1.1-0.2,1.2C161.4,12.3,162.4,12.5,162.9,12.5z"/>
		<path class="st2" d="M167,4.9h1.3v8.6H167V4.9z"/>
		<path class="st2" d="M170.8,10.8c0,1.1,0.6,1.8,1.6,1.8c0.9,0,1.2-0.7,1.4-1.1l1.3,0.2c-0.3,1.1-1.2,1.9-2.7,1.9
			c-2.4,0-3-1.9-3-3.2c0-1.6,0.8-3.3,2.9-3.3c2.1,0,3,1.6,2.9,3.6H170.8z M173.8,9.8c0-0.6-0.3-1.6-1.5-1.6c-1.3,0-1.5,1.4-1.5,1.6
			H173.8z"/>
		<path class="st2" d="M184.9,11.4c-0.2,1.1-1,2.3-2.7,2.3c-2.6,0-2.9-2.4-2.9-3.2c0-1.8,0.9-3.2,2.9-3.2c0.4,0,1.5,0.1,2.1,0.9
			c0.4,0.5,0.5,0.9,0.5,1.2l-1.3,0.2c-0.1-0.3-0.3-1.2-1.3-1.2c-1.4,0-1.6,1.5-1.6,2.1c0,0.7,0.2,2.2,1.6,2.2c1.2,0,1.3-1,1.4-1.4
			L184.9,11.4z"/>
		<path class="st2" d="M188.5,7.1c1.8,0,3,1.3,3,3.2c0,2-1.3,3.3-3.1,3.3c-1.5,0-3-0.9-3-3.2C185.4,8.2,186.9,7.1,188.5,7.1z
			 M188.5,12.5c0.6,0,1.7-0.4,1.7-2.2c0-1.5-0.8-2.1-1.7-2.1c-0.8,0-1.7,0.5-1.7,2.2S187.8,12.5,188.5,12.5z"/>
		<path class="st2" d="M192.7,7.3h1.2v0.9h0c0.4-0.7,1.2-1,2-1c0.7,0,1.5,0.3,1.8,0.9c0.3,0.6,0.3,1,0.3,1.8v3.6h-1.3V10
			c0-0.8,0-1.8-1.2-1.8c-0.6,0-1.1,0.3-1.3,0.7s-0.3,0.8-0.3,1.5v3.1h-1.3V7.3z"/>
		<path class="st2" d="M203.2,9.1c-0.1-0.8-0.9-0.9-1.3-0.9s-1.2,0.1-1.2,0.7c0,0.4,0.4,0.6,1.5,0.8c1.5,0.3,2.6,0.7,2.6,1.9
			c0,1-0.7,2.1-2.7,2.1c-1.9,0-2.6-1.1-2.8-2l1.3-0.2c0.2,1,1,1.2,1.5,1.2c0.2,0,1.3,0,1.3-0.9c0-0.3-0.2-0.5-0.9-0.7
			c-1.9-0.4-3.1-0.8-3.1-2.1c0-1.2,1.1-1.9,2.3-1.9c0.8,0,2.4,0.1,2.7,1.7L203.2,9.1z"/>
		<path class="st2" d="M207.3,7.3h1.1v1h-1.1v3.1c0,0.7,0,1,0.5,1c0.3,0,0.5-0.1,0.6-0.1l0.1,1.1c-0.2,0.1-0.5,0.2-1,0.2
			c-1.6,0-1.6-1-1.6-2.1V8.3h-0.8v-1h0.8V5.9l1.3-0.8V7.3z"/>
		<path class="st2" d="M210.6,13.5h-1.3V7.3h1.2v0.9h0c0.2-0.4,0.6-1.1,1.3-1.1c0.5,0,0.9,0.2,1.1,0.3l-0.4,1.2
			c-0.2-0.1-0.4-0.3-0.8-0.3c-1,0-1.1,1.5-1.1,2.5V13.5z"/>
		<path class="st2" d="M217.6,13.5v-0.9h0c-0.7,1-1.6,1.1-2,1.1c-0.7,0-1.5-0.3-1.8-0.9c-0.3-0.5-0.3-1-0.3-1.6V7.3h1.3v3.2
			c0,0.9,0,1.3,0.2,1.6c0.3,0.4,0.7,0.5,1,0.5c0.6,0,1.1-0.3,1.2-0.7c0.2-0.4,0.2-0.8,0.2-1.6v-3h1.3v6.2H217.6z"/>
		<path class="st2" d="M225.7,11.4c-0.2,1.1-1,2.3-2.7,2.3c-2.6,0-2.9-2.4-2.9-3.2c0-1.8,0.9-3.2,2.9-3.2c0.4,0,1.5,0.1,2.1,0.9
			c0.4,0.5,0.5,0.9,0.5,1.2l-1.3,0.2c-0.1-0.3-0.3-1.2-1.3-1.2c-1.4,0-1.6,1.5-1.6,2.1c0,0.7,0.2,2.2,1.6,2.2c1.2,0,1.3-1,1.4-1.4
			L225.7,11.4z"/>
		<path class="st2" d="M228.1,7.3h1.1v1h-1.1v3.1c0,0.7,0,1,0.5,1c0.3,0,0.5-0.1,0.6-0.1l0.1,1.1c-0.2,0.1-0.5,0.2-1,0.2
			c-1.6,0-1.6-1-1.6-2.1V8.3H226v-1h0.8V5.9l1.3-0.8V7.3z"/>
		<path class="st2" d="M230.1,4.9h1.3v1.4h-1.3V4.9z M230.1,7.3h1.3v6.2h-1.3V7.3z"/>
		<path class="st2" d="M235.7,7.1c1.8,0,3,1.3,3,3.2c0,2-1.3,3.3-3.1,3.3c-1.5,0-3-0.9-3-3.2C232.6,8.2,234.1,7.1,235.7,7.1z
			 M235.7,12.5c0.6,0,1.7-0.4,1.7-2.2c0-1.5-0.8-2.1-1.7-2.1c-0.8,0-1.7,0.5-1.7,2.2S235,12.5,235.7,12.5z"/>
		<path class="st2" d="M239.9,7.3h1.2v0.9h0c0.4-0.7,1.2-1,2-1c0.7,0,1.5,0.3,1.8,0.9s0.3,1,0.3,1.8v3.6h-1.3V10
			c0-0.8,0-1.8-1.2-1.8c-0.6,0-1.1,0.3-1.3,0.7c-0.2,0.4-0.3,0.8-0.3,1.5v3.1h-1.3V7.3z"/>
	</g>
	<g>
		<path class="st2" d="M106.9,27.3c0-0.4,0.1-0.8,0.4-1s0.6-0.4,1-0.4c0.4,0,0.8,0.1,1.1,0.4s0.4,0.6,0.4,1s-0.1,0.8-0.4,1.1
			s-0.6,0.4-1.1,0.4c-0.4,0-0.8-0.1-1-0.4S106.9,27.7,106.9,27.3z"/>
	</g>
	<g>
		<path class="st2" d="M112.9,22.9h3.3c1.1,0,1.6,0.1,2,0.4c0.6,0.4,1.1,1.1,1.1,1.8c0,0.2,0,1.3-1.2,1.8c1.5,0.4,1.6,1.6,1.6,2.1
			c0,1-0.6,1.9-1.4,2.2c-0.6,0.3-1.8,0.3-2.3,0.3h-3.1V22.9z M114.3,26.4h1.5c0.9,0,2.1,0,2.1-1.2c0-0.3-0.1-0.6-0.3-0.8
			c-0.3-0.3-0.9-0.3-1.9-0.3h-1.4V26.4z M114.3,30.3h1.9c0.8,0,2.1,0,2.1-1.3c0-1.3-1.4-1.3-2.2-1.3h-1.7V30.3z"/>
		<path class="st2" d="M122.3,31.5H121v-6.2h1.2v0.9h0c0.2-0.4,0.6-1.1,1.3-1.1c0.5,0,0.9,0.2,1.1,0.3l-0.4,1.2
			c-0.2-0.1-0.4-0.3-0.8-0.3c-1,0-1.1,1.5-1.1,2.5V31.5z"/>
		<path class="st2" d="M127.9,25.1c1.8,0,3,1.3,3,3.2c0,2-1.3,3.3-3.1,3.3c-1.5,0-3-0.9-3-3.2C124.8,26.2,126.3,25.1,127.9,25.1z
			 M127.9,30.5c0.6,0,1.7-0.4,1.7-2.2c0-1.5-0.8-2.1-1.7-2.1c-0.8,0-1.7,0.5-1.7,2.2S127.1,30.5,127.9,30.5z"/>
		<path class="st2" d="M131.8,26.9c0.3-0.8,0.8-1.8,2.8-1.8c0.9,0,1.6,0.2,2,0.6c0.3,0.3,0.5,0.7,0.5,1.8l0,2.2
			c0,1.1,0.2,1.5,0.4,1.8h-1.4c-0.1-0.3-0.2-0.5-0.2-0.7c-0.3,0.3-1,0.9-2.1,0.9c-1.3,0-2.1-0.7-2.1-1.8c0-1.6,1.7-1.8,2.4-2
			c0.4-0.1,1.3-0.2,1.7-0.4c0-0.2,0-0.4,0-0.6c-0.1-0.7-0.9-0.7-1.2-0.7c-1.1,0-1.3,0.4-1.5,1L131.8,26.9z M134.3,28.8
			c-0.5,0.1-1.3,0.2-1.3,0.9c0,0.3,0.2,0.9,1.1,0.9c0.6,0,1.1-0.3,1.4-0.7c0.2-0.3,0.2-0.7,0.2-1.5
			C135.4,28.6,134.8,28.7,134.3,28.8z"/>
		<path class="st2" d="M143.9,31.5h-1.2v-0.9h0c-0.6,1-1.6,1-1.8,1c-1.6,0-2.6-1.5-2.6-3.2c0-2.1,1.1-3.3,2.6-3.3
			c0.7,0,1.4,0.3,1.8,0.9h0v-3.1h1.3V31.5z M139.5,28.4c0,1.9,1,2.2,1.5,2.2c0.5,0,1.5-0.3,1.5-2.1c0-1.4-0.6-2.3-1.5-2.3
			C139.5,26.2,139.5,28,139.5,28.4z"/>
		<path class="st2" d="M145.4,31.5v-8.6h1.3V26h0c0.2-0.2,0.7-0.9,1.7-0.9c1.5,0,2.6,1.2,2.6,3.2c0,2.3-1.4,3.3-2.6,3.3
			c-0.4,0-1.2-0.1-1.8-1h0v0.8H145.4z M148.3,30.5c0.7,0,1.5-0.5,1.5-2.2c0-0.8-0.2-2.2-1.5-2.2c-0.8,0-1.2,0.5-1.4,1
			c-0.2,0.5-0.2,1.1-0.2,1.2C146.7,30.3,147.8,30.5,148.3,30.5z"/>
		<path class="st2" d="M152.1,26.9c0.3-0.8,0.8-1.8,2.8-1.8c0.9,0,1.6,0.2,2,0.6c0.3,0.3,0.5,0.7,0.5,1.8l0,2.2
			c0,1.1,0.2,1.5,0.4,1.8h-1.4c-0.1-0.3-0.2-0.5-0.2-0.7c-0.3,0.3-1,0.9-2.1,0.9c-1.3,0-2.1-0.7-2.1-1.8c0-1.6,1.7-1.8,2.4-2
			c0.4-0.1,1.3-0.2,1.7-0.4c0-0.2,0-0.4,0-0.6c-0.1-0.7-0.9-0.7-1.2-0.7c-1.1,0-1.3,0.4-1.5,1L152.1,26.9z M154.5,28.8
			c-0.5,0.1-1.3,0.2-1.3,0.9c0,0.3,0.2,0.9,1.1,0.9c0.6,0,1.1-0.3,1.4-0.7c0.2-0.3,0.2-0.7,0.2-1.5C155.6,28.6,155,28.7,154.5,28.8z
			"/>
		<path class="st2" d="M158.8,25.3h1.2v0.9h0c0.4-0.7,1.2-1,2-1c0.7,0,1.5,0.3,1.8,0.9s0.3,1,0.3,1.8v3.6h-1.3V28
			c0-0.8,0-1.8-1.2-1.8c-0.6,0-1.1,0.3-1.3,0.7c-0.2,0.4-0.3,0.8-0.3,1.5v3.1h-1.3V25.3z"/>
		<path class="st2" d="M171,31.5h-1.2v-0.9h0c-0.6,1-1.6,1-1.8,1c-1.6,0-2.6-1.5-2.6-3.2c0-2.1,1.1-3.3,2.6-3.3
			c0.7,0,1.4,0.3,1.8,0.9h0v-3.1h1.3V31.5z M166.7,28.4c0,1.9,1,2.2,1.5,2.2c0.5,0,1.5-0.3,1.5-2.1c0-1.4-0.6-2.3-1.5-2.3
			C166.7,26.2,166.7,28,166.7,28.4z"/>
		<path class="st2" d="M175.8,22.9h1.3v1.4h-1.3V22.9z M175.8,25.3h1.3v6.2h-1.3V25.3z"/>
		<path class="st2" d="M178.7,25.3h1.2v0.9h0c0.4-0.7,1.2-1,2-1c0.7,0,1.5,0.3,1.8,0.9c0.3,0.6,0.3,1,0.3,1.8v3.6h-1.3V28
			c0-0.8,0-1.8-1.2-1.8c-0.6,0-1.1,0.3-1.3,0.7s-0.3,0.8-0.3,1.5v3.1h-1.3V25.3z"/>
		<path class="st2" d="M187,25.3h1.1v1H187v3.1c0,0.7,0,1,0.5,1c0.3,0,0.5-0.1,0.6-0.1l0.1,1.1c-0.2,0.1-0.5,0.2-1,0.2
			c-1.6,0-1.6-1-1.6-2.1v-3.2h-0.8v-1h0.8v-1.4l1.3-0.8V25.3z"/>
		<path class="st2" d="M190,28.8c0,1.1,0.6,1.8,1.6,1.8c0.9,0,1.2-0.7,1.4-1.1l1.3,0.2c-0.3,1.1-1.2,1.9-2.7,1.9c-2.4,0-3-1.9-3-3.2
			c0-1.6,0.8-3.3,2.9-3.3c2.1,0,3,1.6,2.9,3.6H190z M193,27.8c0-0.6-0.3-1.6-1.5-1.6c-1.3,0-1.5,1.4-1.5,1.6H193z"/>
		<path class="st2" d="M196.8,31.5h-1.3v-6.2h1.2v0.9h0c0.2-0.4,0.6-1.1,1.3-1.1c0.5,0,0.9,0.2,1.1,0.3l-0.4,1.2
			c-0.2-0.1-0.4-0.3-0.8-0.3c-1,0-1.1,1.5-1.1,2.5V31.5z"/>
		<path class="st2" d="M199.7,25.3h1.2v0.9h0c0.4-0.7,1.2-1,2-1c0.7,0,1.5,0.3,1.8,0.9c0.3,0.6,0.3,1,0.3,1.8v3.6h-1.3V28
			c0-0.8,0-1.8-1.2-1.8c-0.6,0-1.1,0.3-1.3,0.7s-0.3,0.8-0.3,1.5v3.1h-1.3V25.3z"/>
		<path class="st2" d="M207.5,28.8c0,1.1,0.6,1.8,1.6,1.8c0.9,0,1.2-0.7,1.4-1.1l1.3,0.2c-0.3,1.1-1.2,1.9-2.7,1.9
			c-2.4,0-3-1.9-3-3.2c0-1.6,0.8-3.3,2.9-3.3c2.1,0,3,1.6,2.9,3.6H207.5z M210.5,27.8c0-0.6-0.3-1.6-1.5-1.6c-1.3,0-1.5,1.4-1.5,1.6
			H210.5z"/>
		<path class="st2" d="M214.5,25.3h1.1v1h-1.1v3.1c0,0.7,0,1,0.5,1c0.3,0,0.5-0.1,0.6-0.1l0.1,1.1c-0.2,0.1-0.5,0.2-1,0.2
			c-1.6,0-1.6-1-1.6-2.1v-3.2h-0.8v-1h0.8v-1.4l1.3-0.8V25.3z"/>
	</g>
	<g>
		<path class="st2" d="M106.9,45.3c0-0.4,0.1-0.8,0.4-1s0.6-0.4,1-0.4c0.4,0,0.8,0.1,1.1,0.4s0.4,0.6,0.4,1s-0.1,0.8-0.4,1.1
			s-0.6,0.4-1.1,0.4c-0.4,0-0.8-0.1-1-0.4S106.9,45.7,106.9,45.3z"/>
	</g>
	<g>
		<path class="st2" d="M112.9,40.9h1.4v3.5h4v-3.5h1.4v8.6h-1.4v-3.9h-4v3.9h-1.4V40.9z"/>
		<path class="st2" d="M122.3,46.8c0,1.1,0.6,1.8,1.6,1.8c0.9,0,1.2-0.7,1.4-1.1l1.3,0.2c-0.3,1.1-1.2,1.9-2.7,1.9
			c-2.4,0-3-1.9-3-3.2c0-1.6,0.8-3.3,2.9-3.3c2.1,0,3,1.6,2.9,3.6H122.3z M125.3,45.8c0-0.6-0.3-1.6-1.5-1.6c-1.3,0-1.5,1.4-1.5,1.6
			H125.3z"/>
		<path class="st2" d="M127.6,44.9c0.3-0.8,0.8-1.8,2.8-1.8c0.9,0,1.6,0.2,2,0.6c0.3,0.3,0.5,0.7,0.5,1.8l0,2.2
			c0,1.1,0.2,1.5,0.4,1.8h-1.4c-0.1-0.3-0.2-0.5-0.2-0.7c-0.3,0.3-1,0.9-2.1,0.9c-1.3,0-2.1-0.7-2.1-1.8c0-1.6,1.7-1.8,2.4-2
			c0.4-0.1,1.3-0.2,1.7-0.4c0-0.2,0-0.4,0-0.6c-0.1-0.7-0.9-0.7-1.2-0.7c-1.1,0-1.3,0.4-1.5,1L127.6,44.9z M130,46.8
			c-0.5,0.1-1.3,0.2-1.3,0.9c0,0.3,0.2,0.9,1.1,0.9c0.6,0,1.1-0.3,1.4-0.7c0.2-0.3,0.2-0.7,0.2-1.5C131.1,46.6,130.5,46.7,130,46.8z
			"/>
		<path class="st2" d="M134.3,40.9h1.3v8.6h-1.3V40.9z"/>
		<path class="st2" d="M138.6,43.3h1.1v1h-1.1v3.1c0,0.7,0,1,0.5,1c0.3,0,0.5-0.1,0.6-0.1l0.1,1.1c-0.2,0.1-0.5,0.2-1,0.2
			c-1.6,0-1.6-1-1.6-2.1v-3.2h-0.8v-1h0.8v-1.4l1.3-0.8V43.3z"/>
		<path class="st2" d="M140.7,40.9h1.3V44c0.7-0.8,1.5-0.9,1.9-0.9c0.6,0,1.4,0.2,1.8,0.8c0.3,0.5,0.3,1,0.3,1.7v3.8h-1.3v-3.6
			c0-0.7,0-1.7-1.2-1.7c-0.5,0-1,0.3-1.3,0.7c-0.2,0.4-0.3,0.8-0.3,1.4v3.3h-1.3V40.9z"/>
		<path class="st2" d="M152.9,47.4c-0.2,1.1-1,2.3-2.7,2.3c-2.6,0-2.9-2.4-2.9-3.2c0-1.8,0.9-3.2,2.9-3.2c0.4,0,1.5,0.1,2.1,0.9
			c0.4,0.5,0.5,0.9,0.5,1.2l-1.3,0.2c-0.1-0.3-0.3-1.2-1.3-1.2c-1.4,0-1.6,1.5-1.6,2.1c0,0.7,0.2,2.2,1.6,2.2c1.2,0,1.3-1,1.4-1.4
			L152.9,47.4z"/>
		<path class="st2" d="M153.6,44.9c0.3-0.8,0.8-1.8,2.8-1.8c0.9,0,1.6,0.2,2,0.6c0.3,0.3,0.5,0.7,0.5,1.8l0,2.2
			c0,1.1,0.2,1.5,0.4,1.8h-1.4c-0.1-0.3-0.2-0.5-0.2-0.7c-0.3,0.3-1,0.9-2.1,0.9c-1.3,0-2.1-0.7-2.1-1.8c0-1.6,1.7-1.8,2.4-2
			c0.4-0.1,1.3-0.2,1.7-0.4c0-0.2,0-0.4,0-0.6c-0.1-0.7-0.9-0.7-1.2-0.7c-1.1,0-1.3,0.4-1.5,1L153.6,44.9z M156.1,46.8
			c-0.5,0.1-1.3,0.2-1.3,0.9c0,0.3,0.2,0.9,1.1,0.9c0.6,0,1.1-0.3,1.4-0.7c0.2-0.3,0.2-0.7,0.2-1.5
			C157.1,46.6,156.6,46.7,156.1,46.8z"/>
		<path class="st2" d="M161.6,49.5h-1.3v-6.2h1.2v0.9h0c0.2-0.4,0.6-1.1,1.3-1.1c0.5,0,0.9,0.2,1.1,0.3l-0.4,1.2
			c-0.2-0.1-0.4-0.3-0.8-0.3c-1,0-1.1,1.5-1.1,2.5V49.5z"/>
		<path class="st2" d="M165.4,46.8c0,1.1,0.6,1.8,1.6,1.8c0.9,0,1.2-0.7,1.4-1.1l1.3,0.2c-0.3,1.1-1.2,1.9-2.7,1.9
			c-2.4,0-3-1.9-3-3.2c0-1.6,0.8-3.3,2.9-3.3c2.1,0,2.9,1.6,2.9,3.6H165.4z M168.5,45.8c0-0.6-0.3-1.6-1.5-1.6
			c-1.3,0-1.5,1.4-1.5,1.6H168.5z"/>
	</g>
	<g>
		<path class="st2" d="M106.9,63.3c0-0.4,0.1-0.8,0.4-1s0.6-0.4,1-0.4c0.4,0,0.8,0.1,1.1,0.4s0.4,0.6,0.4,1s-0.1,0.8-0.4,1.1
			s-0.6,0.4-1.1,0.4c-0.4,0-0.8-0.1-1-0.4S106.9,63.7,106.9,63.3z"/>
	</g>
	<g>
		<path class="st2" d="M112.9,58.9h6.3v1.2h-4.9v2.3h4.5v1.2h-4.5v2.7h5v1.2h-6.5V58.9z"/>
		<path class="st2" d="M120.7,61.3h1.2v0.9h0c0.4-0.7,1.2-1,2-1c0.7,0,1.5,0.3,1.8,0.9s0.3,1,0.3,1.8v3.6h-1.3V64
			c0-0.8,0-1.8-1.2-1.8c-0.6,0-1.1,0.3-1.3,0.7s-0.3,0.8-0.3,1.5v3.1h-1.3V61.3z"/>
		<path class="st2" d="M128.5,64.8c0,1.1,0.6,1.8,1.6,1.8c0.9,0,1.2-0.7,1.4-1.1l1.3,0.2c-0.3,1.1-1.2,1.9-2.7,1.9
			c-2.4,0-3-1.9-3-3.2c0-1.6,0.8-3.3,2.9-3.3c2.1,0,3,1.6,2.9,3.6H128.5z M131.5,63.8c0-0.6-0.3-1.6-1.5-1.6c-1.3,0-1.5,1.4-1.5,1.6
			H131.5z"/>
		<path class="st2" d="M135.3,67.5H134v-6.2h1.2v0.9h0c0.2-0.4,0.6-1.1,1.3-1.1c0.5,0,0.9,0.2,1.1,0.3l-0.4,1.2
			c-0.2-0.1-0.4-0.3-0.8-0.3c-1,0-1.1,1.5-1.1,2.5V67.5z"/>
		<path class="st2" d="M139.4,68.1c0,0.3,0.1,0.8,1.2,0.8c0.3,0,1.1-0.1,1.4-0.6c0.2-0.3,0.2-0.6,0.2-1.8h0
			c-0.2,0.3-0.7,0.9-1.8,0.9c-1.8,0-2.6-1.6-2.6-3.1c0-1.9,1-3.2,2.7-3.2c1.1,0,1.6,0.7,1.8,0.9h0v-0.8h1.2v5.5
			c0,0.9-0.1,1.8-0.5,2.4c-0.5,0.7-1.4,0.9-2.3,0.9c-1,0-2.8-0.2-2.8-2.1L139.4,68.1z M139.2,64.4c0,1.1,0.5,2.1,1.5,2.1
			c0.6,0,0.9-0.3,1.1-0.5c0.5-0.5,0.5-1.4,0.5-1.7c0-0.8-0.3-2.1-1.6-2.1C139.5,62.2,139.2,63.4,139.2,64.4z"/>
		<path class="st2" d="M145.8,61.3l1.6,4.6h0l1.6-4.6h1.4l-2.3,6.2c-0.6,1.7-0.9,2.6-2.3,2.6c-0.4,0-0.7-0.1-0.9-0.1l-0.1-1.1
			c0.1,0,0.4,0.1,0.7,0.1c0.7,0,0.9-0.3,1.3-1.4l-2.4-6.2H145.8z"/>
		<path class="st2" d="M154.6,58.9h6.3v1.2H156v2.3h4.5v1.2H156v2.7h5v1.2h-6.5V58.9z"/>
		<path class="st2" d="M165.2,61.3v1H164v5.2h-1.3v-5.2h-0.9v-1h0.9v-0.6c0-0.7,0-1.9,1.8-1.9c0.5,0,0.9,0.1,1.2,0.2l-0.2,1
			c-0.3-0.1-0.6-0.1-0.7-0.1c-0.8,0-0.8,0.5-0.8,0.9v0.5H165.2z"/>
		<path class="st2" d="M168.5,61.3v1h-1.2v5.2H166v-5.2h-0.9v-1h0.9v-0.6c0-0.7,0-1.9,1.8-1.9c0.5,0,0.9,0.1,1.2,0.2l-0.2,1
			c-0.3-0.1-0.6-0.1-0.7-0.1c-0.8,0-0.8,0.5-0.8,0.9v0.5H168.5z M169.3,58.9h1.3v1.4h-1.3V58.9z M169.3,61.3h1.3v6.2h-1.3V61.3z"/>
		<path class="st2" d="M177.5,65.4c-0.2,1.1-1,2.3-2.7,2.3c-2.6,0-2.9-2.4-2.9-3.2c0-1.8,0.9-3.2,2.9-3.2c0.4,0,1.5,0.1,2.1,0.9
			c0.4,0.5,0.5,0.9,0.5,1.2l-1.3,0.2c-0.1-0.3-0.3-1.2-1.3-1.2c-1.4,0-1.6,1.5-1.6,2.1c0,0.7,0.2,2.2,1.6,2.2c1.2,0,1.3-1,1.4-1.4
			L177.5,65.4z"/>
		<path class="st2" d="M178.5,58.9h1.3v1.4h-1.3V58.9z M178.5,61.3h1.3v6.2h-1.3V61.3z"/>
		<path class="st2" d="M182.3,64.8c0,1.1,0.6,1.8,1.6,1.8c0.9,0,1.2-0.7,1.4-1.1l1.3,0.2c-0.3,1.1-1.2,1.9-2.7,1.9
			c-2.4,0-3-1.9-3-3.2c0-1.6,0.8-3.3,2.9-3.3c2.1,0,3,1.6,2.9,3.6H182.3z M185.3,63.8c0-0.6-0.3-1.6-1.5-1.6c-1.3,0-1.5,1.4-1.5,1.6
			H185.3z"/>
		<path class="st2" d="M187.9,61.3h1.2v0.9h0c0.4-0.7,1.2-1,2-1c0.7,0,1.5,0.3,1.8,0.9s0.3,1,0.3,1.8v3.6h-1.3V64
			c0-0.8,0-1.8-1.2-1.8c-0.6,0-1.1,0.3-1.3,0.7c-0.2,0.4-0.3,0.8-0.3,1.5v3.1h-1.3V61.3z"/>
		<path class="st2" d="M200.1,65.4c-0.2,1.1-1,2.3-2.7,2.3c-2.6,0-2.9-2.4-2.9-3.2c0-1.8,0.9-3.2,2.9-3.2c0.4,0,1.5,0.1,2.1,0.9
			c0.4,0.5,0.5,0.9,0.5,1.2l-1.3,0.2c-0.1-0.3-0.3-1.2-1.3-1.2c-1.4,0-1.6,1.5-1.6,2.1c0,0.7,0.2,2.2,1.6,2.2c1.2,0,1.3-1,1.4-1.4
			L200.1,65.4z"/>
		<path class="st2" d="M201.8,61.3l1.6,4.6h0l1.6-4.6h1.4l-2.3,6.2c-0.6,1.7-0.9,2.6-2.3,2.6c-0.4,0-0.7-0.1-0.9-0.1l-0.1-1.1
			c0.1,0,0.4,0.1,0.7,0.1c0.7,0,0.9-0.3,1.3-1.4l-2.4-6.2H201.8z"/>
	</g>
	<g>
		<path class="st2" d="M106.9,81.3c0-0.4,0.1-0.8,0.4-1s0.6-0.4,1-0.4c0.4,0,0.8,0.1,1.1,0.4s0.4,0.6,0.4,1s-0.1,0.8-0.4,1.1
			s-0.6,0.4-1.1,0.4c-0.4,0-0.8-0.1-1-0.4S106.9,81.7,106.9,81.3z"/>
	</g>
	<g>
		<path class="st2" d="M114.2,85.5l-2.2-8.6h1.5l1.3,5.8l0.2,0.9h0c0-0.3,0.1-0.6,0.2-0.9l1.6-5.8h1.7l1.4,5.1
			c0.2,0.8,0.3,1.2,0.3,1.6h0c0-0.3,0.1-0.4,0.2-1l1.3-5.7h1.4l-2.2,8.6h-1.5l-1.8-6.5c-0.1-0.3-0.1-0.4-0.1-0.5h0l-0.1,0.5
			l-1.8,6.5H114.2z"/>
		<path class="st2" d="M123.4,80.9c0.3-0.8,0.8-1.8,2.8-1.8c0.9,0,1.6,0.2,2,0.6c0.3,0.3,0.5,0.7,0.5,1.8l0,2.2
			c0,1.1,0.2,1.5,0.4,1.8h-1.4c-0.1-0.3-0.2-0.5-0.2-0.7c-0.3,0.3-1,0.9-2.1,0.9c-1.3,0-2.1-0.7-2.1-1.8c0-1.6,1.7-1.8,2.4-2
			c0.4-0.1,1.3-0.2,1.7-0.4c0-0.2,0-0.4,0-0.6c-0.1-0.7-0.9-0.7-1.2-0.7c-1.1,0-1.3,0.4-1.5,1L123.4,80.9z M125.8,82.8
			c-0.5,0.1-1.3,0.2-1.3,0.9c0,0.3,0.2,0.9,1.1,0.9c0.6,0,1.1-0.3,1.4-0.7c0.2-0.3,0.2-0.7,0.2-1.5
			C126.9,82.6,126.3,82.7,125.8,82.8z"/>
		<path class="st2" d="M131.6,79.3h1.1v1h-1.1v3.1c0,0.7,0,1,0.5,1c0.3,0,0.5-0.1,0.6-0.1l0.1,1.1c-0.2,0.1-0.5,0.2-1,0.2
			c-1.6,0-1.6-1-1.6-2.1v-3.2h-0.8v-1h0.8v-1.4l1.3-0.8V79.3z"/>
		<path class="st2" d="M134.6,82.8c0,1.1,0.6,1.8,1.6,1.8c0.9,0,1.2-0.7,1.4-1.1l1.3,0.2c-0.3,1.1-1.2,1.9-2.7,1.9
			c-2.4,0-3-1.9-3-3.2c0-1.6,0.8-3.3,2.9-3.3c2.1,0,3,1.6,2.9,3.6H134.6z M137.6,81.8c0-0.6-0.3-1.6-1.5-1.6c-1.3,0-1.5,1.4-1.5,1.6
			H137.6z"/>
		<path class="st2" d="M141.4,85.5H140v-6.2h1.2v0.9h0c0.2-0.4,0.6-1.1,1.3-1.1c0.5,0,0.9,0.2,1.1,0.3l-0.4,1.2
			c-0.2-0.1-0.4-0.3-0.8-0.3c-1,0-1.1,1.5-1.1,2.5V85.5z"/>
		<path class="st2" d="M147.4,79.3h1.2v0.9h0c0.4-0.6,1-1,1.9-1c0.3,0,1.3,0,1.8,1c0.2-0.3,0.7-1,1.9-1c2,0,2,1.7,2,2.2v4.1h-1.3
			v-3.8c0-0.6,0-1.5-1-1.5c-0.5,0-0.9,0.3-1.1,0.6c-0.2,0.4-0.3,0.8-0.3,1.3v3.3h-1.3v-3.7c0-0.6,0-1.5-1-1.5c-0.5,0-1,0.3-1.2,0.6
			c-0.2,0.4-0.3,0.8-0.3,1.5v3.1h-1.3V79.3z"/>
		<path class="st2" d="M157.4,80.9c0.3-0.8,0.8-1.8,2.8-1.8c0.9,0,1.6,0.2,2,0.6c0.3,0.3,0.5,0.7,0.5,1.8l0,2.2
			c0,1.1,0.2,1.5,0.4,1.8h-1.4c-0.1-0.3-0.2-0.5-0.2-0.7c-0.3,0.3-1,0.9-2.1,0.9c-1.3,0-2.1-0.7-2.1-1.8c0-1.6,1.7-1.8,2.4-2
			c0.4-0.1,1.3-0.2,1.7-0.4c0-0.2,0-0.4,0-0.6c-0.1-0.7-0.9-0.7-1.2-0.7c-1.1,0-1.3,0.4-1.5,1L157.4,80.9z M159.8,82.8
			c-0.5,0.1-1.3,0.2-1.3,0.9c0,0.3,0.2,0.9,1.1,0.9c0.6,0,1.1-0.3,1.4-0.7c0.2-0.3,0.2-0.7,0.2-1.5
			C160.9,82.6,160.3,82.7,159.8,82.8z"/>
		<path class="st2" d="M164.1,79.3h1.2v0.9h0c0.4-0.7,1.2-1,2-1c0.7,0,1.5,0.3,1.8,0.9s0.3,1,0.3,1.8v3.6h-1.3V82
			c0-0.8,0-1.8-1.2-1.8c-0.6,0-1.1,0.3-1.3,0.7c-0.2,0.4-0.3,0.8-0.3,1.5v3.1h-1.3V79.3z"/>
		<path class="st2" d="M170.7,80.9c0.3-0.8,0.8-1.8,2.8-1.8c0.9,0,1.6,0.2,2,0.6c0.3,0.3,0.5,0.7,0.5,1.8l0,2.2
			c0,1.1,0.2,1.5,0.4,1.8H175c-0.1-0.3-0.2-0.5-0.2-0.7c-0.3,0.3-1,0.9-2.1,0.9c-1.3,0-2.1-0.7-2.1-1.8c0-1.6,1.7-1.8,2.4-2
			c0.4-0.1,1.3-0.2,1.7-0.4c0-0.2,0-0.4,0-0.6c-0.1-0.7-0.9-0.7-1.2-0.7c-1.1,0-1.3,0.4-1.5,1L170.7,80.9z M173.2,82.8
			c-0.5,0.1-1.3,0.2-1.3,0.9c0,0.3,0.2,0.9,1.1,0.9c0.6,0,1.1-0.3,1.4-0.7c0.2-0.3,0.2-0.7,0.2-1.5
			C174.3,82.6,173.7,82.7,173.2,82.8z"/>
		<path class="st2" d="M178.7,86.1c0,0.3,0.1,0.8,1.2,0.8c0.3,0,1.1-0.1,1.4-0.6c0.2-0.3,0.2-0.6,0.2-1.8h0
			c-0.2,0.3-0.7,0.9-1.8,0.9c-1.8,0-2.6-1.6-2.6-3.1c0-1.9,1-3.2,2.7-3.2c1.1,0,1.6,0.7,1.8,0.9h0v-0.8h1.2v5.5
			c0,0.9-0.1,1.8-0.5,2.4c-0.5,0.7-1.4,0.9-2.3,0.9c-1,0-2.8-0.2-2.8-2.1L178.7,86.1z M178.4,82.4c0,1.1,0.5,2.1,1.5,2.1
			c0.6,0,0.9-0.3,1.1-0.5c0.5-0.5,0.5-1.4,0.5-1.7c0-0.8-0.3-2.1-1.6-2.1C178.8,80.2,178.4,81.4,178.4,82.4z"/>
		<path class="st2" d="M185.3,82.8c0,1.1,0.6,1.8,1.6,1.8c0.9,0,1.2-0.7,1.4-1.1l1.3,0.2c-0.3,1.1-1.2,1.9-2.7,1.9
			c-2.4,0-3-1.9-3-3.2c0-1.6,0.8-3.3,2.9-3.3c2.1,0,3,1.6,2.9,3.6H185.3z M188.3,81.8c0-0.6-0.3-1.6-1.5-1.6c-1.3,0-1.5,1.4-1.5,1.6
			H188.3z"/>
		<path class="st2" d="M190.8,79.3h1.2v0.9h0c0.4-0.6,1-1,1.9-1c0.3,0,1.3,0,1.8,1c0.2-0.3,0.7-1,1.9-1c2,0,2,1.7,2,2.2v4.1h-1.3
			v-3.8c0-0.6,0-1.5-1-1.5c-0.5,0-0.9,0.3-1.1,0.6c-0.2,0.4-0.3,0.8-0.3,1.3v3.3h-1.3v-3.7c0-0.6,0-1.5-1-1.5c-0.5,0-1,0.3-1.2,0.6
			c-0.2,0.4-0.3,0.8-0.3,1.5v3.1h-1.3V79.3z"/>
		<path class="st2" d="M201.9,82.8c0,1.1,0.6,1.8,1.6,1.8c0.9,0,1.2-0.7,1.4-1.1l1.3,0.2c-0.3,1.1-1.2,1.9-2.7,1.9
			c-2.4,0-3-1.9-3-3.2c0-1.6,0.8-3.3,2.9-3.3c2.1,0,3,1.6,2.9,3.6H201.9z M205,81.8c0-0.6-0.3-1.6-1.5-1.6c-1.3,0-1.5,1.4-1.5,1.6
			H205z"/>
		<path class="st2" d="M207.5,79.3h1.2v0.9h0c0.4-0.7,1.2-1,2-1c0.7,0,1.5,0.3,1.8,0.9c0.3,0.6,0.3,1,0.3,1.8v3.6h-1.3V82
			c0-0.8,0-1.8-1.2-1.8c-0.6,0-1.1,0.3-1.3,0.7s-0.3,0.8-0.3,1.5v3.1h-1.3V79.3z"/>
		<path class="st2" d="M215.8,79.3h1.1v1h-1.1v3.1c0,0.7,0,1,0.5,1c0.3,0,0.5-0.1,0.6-0.1l0.1,1.1c-0.2,0.1-0.5,0.2-1,0.2
			c-1.6,0-1.6-1-1.6-2.1v-3.2h-0.8v-1h0.8v-1.4l1.3-0.8V79.3z"/>
		<path class="st2" d="M218.1,79.3h1.4v1.4h-1.4V79.3z M218.1,84.1h1.4v1.4h-1.4V84.1z"/>
	</g>
	<g>
		<path class="st0" d="M223.1,81.5c0-0.4,0.1-0.8,0.4-1s0.6-0.4,1-0.4c0.4,0,0.8,0.1,1.1,0.4s0.4,0.6,0.4,1s-0.1,0.8-0.4,1.1
			S225,83,224.6,83c-0.4,0-0.8-0.1-1-0.4S223.1,81.9,223.1,81.5z"/>
	</g>
	<g>
		<path class="st0" d="M231.5,77.1h1.5l3.5,8.6h-1.6l-0.9-2.3h-3.5l-0.8,2.3h-1.5L231.5,77.1z M230.9,82.2h2.6l-0.8-2.1
			c-0.2-0.5-0.4-1-0.6-1.6h0c-0.1,0.6-0.2,0.9-0.4,1.5L230.9,82.2z"/>
		<path class="st0" d="M242.7,83.6c-0.2,1.1-1,2.3-2.7,2.3c-2.6,0-2.9-2.4-2.9-3.2c0-1.8,0.9-3.2,2.9-3.2c0.4,0,1.5,0.1,2.1,0.9
			c0.4,0.5,0.5,0.9,0.5,1.2l-1.3,0.2c-0.1-0.3-0.3-1.2-1.3-1.2c-1.4,0-1.6,1.5-1.6,2.1c0,0.7,0.2,2.2,1.6,2.2c1.2,0,1.3-1,1.4-1.4
			L242.7,83.6z"/>
		<path class="st0" d="M249,83.6c-0.2,1.1-1,2.3-2.7,2.3c-2.6,0-2.9-2.4-2.9-3.2c0-1.8,0.9-3.2,2.9-3.2c0.4,0,1.5,0.1,2.1,0.9
			c0.4,0.5,0.5,0.9,0.5,1.2l-1.3,0.2c-0.1-0.3-0.3-1.2-1.3-1.2c-1.4,0-1.6,1.5-1.6,2.1c0,0.7,0.2,2.2,1.6,2.2c1.2,0,1.3-1,1.4-1.4
			L249,83.6z"/>
		<path class="st0" d="M251,83c0,1.1,0.6,1.8,1.6,1.8c0.9,0,1.2-0.7,1.4-1.1l1.3,0.2c-0.3,1.1-1.2,1.9-2.7,1.9c-2.4,0-3-1.9-3-3.2
			c0-1.6,0.8-3.3,2.9-3.3c2.1,0,3,1.6,2.9,3.6H251z M254.1,82c0-0.6-0.3-1.6-1.5-1.6c-1.3,0-1.5,1.4-1.5,1.6H254.1z"/>
		<path class="st0" d="M260.3,81.3c-0.1-0.8-0.9-0.9-1.3-0.9c-0.4,0-1.2,0.1-1.2,0.7c0,0.4,0.4,0.6,1.5,0.8c1.5,0.3,2.6,0.7,2.6,1.9
			c0,1-0.7,2.1-2.7,2.1c-1.9,0-2.6-1.1-2.8-2l1.3-0.2c0.2,1,1,1.2,1.5,1.2c0.2,0,1.3,0,1.3-0.9c0-0.3-0.2-0.5-0.9-0.7
			c-1.9-0.4-3.1-0.8-3.1-2.1c0-1.2,1.1-1.9,2.3-1.9c0.8,0,2.4,0.1,2.7,1.7L260.3,81.3z"/>
		<path class="st0" d="M266.7,81.3c-0.1-0.8-0.9-0.9-1.3-0.9s-1.2,0.1-1.2,0.7c0,0.4,0.4,0.6,1.5,0.8c1.5,0.3,2.6,0.7,2.6,1.9
			c0,1-0.7,2.1-2.7,2.1c-1.9,0-2.6-1.1-2.8-2l1.3-0.2c0.2,1,1,1.2,1.5,1.2c0.2,0,1.3,0,1.3-0.9c0-0.3-0.2-0.5-0.9-0.7
			c-1.9-0.4-3.1-0.8-3.1-2.1c0-1.2,1.1-1.9,2.3-1.9c0.8,0,2.4,0.1,2.7,1.7L266.7,81.3z"/>
	</g>
	<g>
		<path class="st0" d="M223.1,95.5c0-0.4,0.1-0.8,0.4-1s0.6-0.4,1-0.4c0.4,0,0.8,0.1,1.1,0.4s0.4,0.6,0.4,1s-0.1,0.8-0.4,1.1
			S225,97,224.6,97c-0.4,0-0.8-0.1-1-0.4S223.1,95.9,223.1,95.5z"/>
	</g>
	<g>
		<path class="st0" d="M229.1,91.1h1.4v8.6h-1.4V91.1z"/>
		<path class="st0" d="M233.6,99.7h-1.3v-6.2h1.2v0.9h0c0.2-0.4,0.6-1.1,1.3-1.1c0.5,0,0.9,0.2,1.1,0.3l-0.4,1.2
			c-0.2-0.1-0.4-0.3-0.8-0.3c-1,0-1.1,1.5-1.1,2.5V99.7z"/>
		<path class="st0" d="M237.8,99.7h-1.3v-6.2h1.2v0.9h0c0.2-0.4,0.6-1.1,1.3-1.1c0.5,0,0.9,0.2,1.1,0.3l-0.4,1.2
			c-0.2-0.1-0.4-0.3-0.8-0.3c-1,0-1.1,1.5-1.1,2.5V99.7z"/>
		<path class="st0" d="M240.8,91.1h1.3v1.4h-1.3V91.1z M240.8,93.5h1.3v6.2h-1.3V93.5z"/>
		<path class="st0" d="M245.1,100.4c0,0.3,0.1,0.8,1.2,0.8c0.3,0,1.1-0.1,1.4-0.6c0.2-0.3,0.2-0.6,0.2-1.8h0
			c-0.2,0.3-0.7,0.9-1.8,0.9c-1.8,0-2.6-1.6-2.6-3.1c0-1.9,1-3.2,2.7-3.2c1.1,0,1.6,0.7,1.8,0.9h0v-0.8h1.2V99
			c0,0.9-0.1,1.8-0.5,2.4c-0.5,0.7-1.4,0.9-2.3,0.9c-1,0-2.8-0.2-2.8-2.1L245.1,100.4z M244.8,96.6c0,1.1,0.5,2.1,1.5,2.1
			c0.6,0,0.9-0.3,1.1-0.5c0.5-0.5,0.5-1.4,0.5-1.7c0-0.8-0.3-2.1-1.6-2.1C245.1,94.4,244.8,95.6,244.8,96.6z"/>
		<path class="st0" d="M250.6,95.2c0.3-0.8,0.8-1.8,2.8-1.8c0.9,0,1.6,0.2,2,0.6c0.3,0.3,0.5,0.7,0.5,1.8l0,2.2
			c0,1.1,0.2,1.5,0.4,1.8h-1.4c-0.1-0.3-0.2-0.5-0.2-0.7c-0.3,0.3-1,0.9-2.1,0.9c-1.3,0-2.1-0.7-2.1-1.8c0-1.6,1.7-1.8,2.4-2
			c0.4-0.1,1.3-0.2,1.7-0.4c0-0.2,0-0.4,0-0.6c-0.1-0.7-0.9-0.7-1.2-0.7c-1.1,0-1.3,0.4-1.5,1L250.6,95.2z M253.1,97
			c-0.5,0.1-1.3,0.2-1.3,0.9c0,0.3,0.2,0.9,1.1,0.9c0.6,0,1.1-0.3,1.4-0.7c0.2-0.3,0.2-0.7,0.2-1.5C254.1,96.8,253.6,96.9,253.1,97z
			"/>
		<path class="st0" d="M258.9,93.5h1.1v1h-1.1v3.1c0,0.7,0,1,0.5,1c0.3,0,0.5-0.1,0.6-0.1l0.1,1.1c-0.2,0.1-0.5,0.2-1,0.2
			c-1.6,0-1.6-1-1.6-2.1v-3.2h-0.8v-1h0.8v-1.4l1.3-0.8V93.5z"/>
		<path class="st0" d="M261.1,91.1h1.3v1.4h-1.3V91.1z M261.1,93.5h1.3v6.2h-1.3V93.5z"/>
		<path class="st0" d="M266.7,93.4c1.8,0,3,1.3,3,3.2c0,2-1.3,3.3-3.1,3.3c-1.5,0-3-0.9-3-3.2C263.7,94.4,265.1,93.4,266.7,93.4z
			 M266.7,98.8c0.6,0,1.7-0.4,1.7-2.2c0-1.5-0.8-2.1-1.7-2.1c-0.8,0-1.7,0.5-1.7,2.2S266,98.8,266.7,98.8z"/>
		<path class="st0" d="M271.1,93.5h1.2v0.9h0c0.4-0.7,1.2-1,2-1c0.7,0,1.5,0.3,1.8,0.9s0.3,1,0.3,1.8v3.6h-1.3v-3.5
			c0-0.8,0-1.8-1.2-1.8c-0.6,0-1.1,0.3-1.3,0.7c-0.2,0.4-0.3,0.8-0.3,1.5v3.1h-1.3V93.5z"/>
	</g>
	<g>
		<path class="st0" d="M223.1,109.5c0-0.4,0.1-0.8,0.4-1s0.6-0.4,1-0.4c0.4,0,0.8,0.1,1.1,0.4s0.4,0.6,0.4,1s-0.1,0.8-0.4,1.1
			s-0.6,0.4-1.1,0.4c-0.4,0-0.8-0.1-1-0.4S223.1,109.9,223.1,109.5z"/>
	</g>
	<g>
		<path class="st0" d="M229,105.1h3.7c0.7,0,1.2,0,1.8,0.2c0.9,0.3,1.4,1.3,1.4,2.1c0,2-1.9,2.3-2.4,2.4v0c0.4,0.2,0.9,0.5,1.8,1.8
			l1.3,2H235l-1.2-1.8c-1.1-1.7-1.3-1.9-2.4-1.9h-0.9v3.7H229V105.1z M230.5,108.8h1.9c1,0,2.2,0,2.2-1.3c0-1.2-1.3-1.2-2-1.2h-2.1
			V108.8z"/>
		<path class="st0" d="M238.5,111c0,1.1,0.6,1.8,1.6,1.8c0.9,0,1.2-0.7,1.4-1.1l1.3,0.2c-0.3,1.1-1.2,1.9-2.7,1.9
			c-2.4,0-3-1.9-3-3.2c0-1.6,0.8-3.3,2.9-3.3c2.1,0,2.9,1.6,2.9,3.6H238.5z M241.6,110c0-0.6-0.3-1.6-1.5-1.6
			c-1.3,0-1.5,1.4-1.5,1.6H241.6z"/>
		<path class="st0" d="M247.8,109.3c-0.1-0.8-0.9-0.9-1.3-0.9c-0.4,0-1.2,0.1-1.2,0.7c0,0.4,0.4,0.6,1.5,0.8
			c1.5,0.3,2.6,0.7,2.6,1.9c0,1-0.7,2.1-2.7,2.1c-1.9,0-2.6-1.1-2.8-2l1.3-0.2c0.2,1,1,1.2,1.5,1.2c0.2,0,1.3,0,1.3-0.9
			c0-0.3-0.2-0.5-0.9-0.7c-1.9-0.4-3.1-0.8-3.1-2.1c0-1.2,1.1-1.9,2.3-1.9c0.8,0,2.4,0.1,2.7,1.7L247.8,109.3z"/>
		<path class="st0" d="M250.6,105.1h1.3v1.4h-1.3V105.1z M250.6,107.5h1.3v6.2h-1.3V107.5z"/>
		<path class="st0" d="M253.6,105.1h1.3v8.6h-1.3V105.1z"/>
		<path class="st0" d="M256.6,105.1h1.3v1.4h-1.3V105.1z M256.6,107.5h1.3v6.2h-1.3V107.5z"/>
		<path class="st0" d="M260.5,111c0,1.1,0.6,1.8,1.6,1.8c0.9,0,1.2-0.7,1.4-1.1l1.3,0.2c-0.3,1.1-1.2,1.9-2.7,1.9
			c-2.4,0-3-1.9-3-3.2c0-1.6,0.8-3.3,2.9-3.3c2.1,0,3,1.6,2.9,3.6H260.5z M263.6,110c0-0.6-0.3-1.6-1.5-1.6c-1.3,0-1.5,1.4-1.5,1.6
			H263.6z"/>
		<path class="st0" d="M266.2,107.5h1.2v0.9h0c0.4-0.7,1.2-1,2-1c0.7,0,1.5,0.3,1.8,0.9s0.3,1,0.3,1.8v3.6h-1.3v-3.5
			c0-0.8,0-1.8-1.2-1.8c-0.6,0-1.1,0.3-1.3,0.7c-0.2,0.4-0.3,0.8-0.3,1.5v3.1h-1.3V107.5z"/>
		<path class="st0" d="M278.5,111.6c-0.2,1.1-1,2.3-2.7,2.3c-2.6,0-2.9-2.4-2.9-3.2c0-1.8,0.9-3.2,2.9-3.2c0.4,0,1.5,0.1,2.1,0.9
			c0.4,0.5,0.5,0.9,0.5,1.2l-1.3,0.2c-0.1-0.3-0.3-1.2-1.3-1.2c-1.4,0-1.6,1.5-1.6,2.1c0,0.7,0.2,2.2,1.6,2.2c1.2,0,1.3-1,1.4-1.4
			L278.5,111.6z"/>
		<path class="st0" d="M280.4,107.5l1.6,4.6h0l1.6-4.6h1.4l-2.3,6.2c-0.6,1.7-0.9,2.6-2.3,2.6c-0.4,0-0.7-0.1-0.9-0.1l-0.1-1.1
			c0.1,0,0.4,0.1,0.7,0.1c0.7,0,0.9-0.3,1.3-1.4l-2.4-6.2H280.4z"/>
	</g>
	<g>
		<path class="st0" d="M17.5,58.5h13.4V45.7C26.5,50,22,54.2,17.5,58.5 M52.1,84.8C52.1,84.8,52.1,84.7,52.1,84.8
			c-1.5-1.2-3-2.4-4.4-3.6c-0.9-0.7-1.8-1.2-3-1c-1.4,0.2-2.6,1.5-2.7,2.9c0,1.1,0.5,2,1.4,2.7c0.6,0.5,1.1,0.9,1.7,1.4
			c1.7,1.4,3.5,2.8,5.2,4.2C51.1,92,52,92.2,53,92c0.8-0.2,1.3-0.6,1.9-1.1c4.3-4.2,8.5-8.5,12.8-12.7c0.9-0.9,1.9-1.8,2.8-2.8
			c0.6-0.7,0.9-1.5,0.7-2.4c-0.2-1.2-1-2-2.2-2.5c-1.2-0.4-2.3-0.2-3.2,0.6c-0.9,0.8-1.7,1.6-2.5,2.5c-3.7,3.6-7.4,7.3-11.1,10.9
			C52.3,84.7,52.3,84.7,52.1,84.8C52.2,84.8,52.2,84.8,52.1,84.8 M31.5,81.6c1.8,0,3.6,0,5.4,0c0.7,0,1.2-0.5,1.2-1.1
			c0-0.6-0.5-1.1-1.1-1.2c-1,0-2.1,0-3.1,0c-2.5,0-4.9,0-7.4,0c-0.5,0-0.9,0.2-1.3,0.4c-0.2,0.2-0.3,0.4-0.4,0.7
			c0,0.6,0.5,1.2,1.2,1.2C27.9,81.6,29.7,81.6,31.5,81.6 M38.8,74.7h7.9c1.5,0,3.1,0,4.6,0c0.7,0,1.2-0.4,1.2-1
			c0.1-0.7-0.3-1.1-1-1.3c-0.3,0-0.5,0-0.8,0c-8,0-16,0-24,0c-0.2,0-0.5,0-0.7,0c-0.7,0.1-1.2,0.5-1.2,1.1c0,0.6,0.4,1.1,1.1,1.2
			c0.1,0,0.3,0,0.4,0C30.6,74.7,34.7,74.7,38.8,74.7 M38.7,67.8c4.1,0,8.1,0,12.2,0c0.2,0,0.5,0,0.7,0c0.6-0.1,1-0.5,1-1.1
			c0-0.6-0.4-1-1.1-1.1c-0.2,0-0.5,0-0.7,0c-8.1,0-16.2,0-24.3,0c-0.2,0-0.4,0-0.6,0c-0.6,0.1-1,0.5-1,1c0,0.5,0.3,1,0.8,1.1
			c0.2,0.1,0.5,0.1,0.7,0.1C30.5,67.8,34.6,67.8,38.7,67.8 M52.1,83.2c-1.3-1.1-2.6-2.2-4-3.2c-1.3-1-2.8-1.3-4.4-0.7
			c-1.6,0.6-2.6,1.7-2.8,3.3c-0.3,1.6,0.4,2.9,1.6,4c2.3,1.9,4.6,3.7,6.9,5.6c0.9,0.8,2,1.1,3.2,1.1c1.1-0.1,2.1-0.5,2.9-1.3
			c1-0.9,1.9-1.9,2.9-2.9c0.1-0.1,0.1-0.1,0.1-0.2c0,0,0,0,0.1,0c0,0.1,0,0.1,0,0.2c0,1.6,0,3.1,0,4.7c0,0.2,0,0.4-0.1,0.5
			c-0.1,0.6-0.6,1-1.3,1c-0.1,0-0.2,0-0.4,0c-12.9,0-25.8,0-38.6,0c-0.2,0-0.4,0-0.7,0c-0.8-0.1-1.1-0.5-1.1-1.2c0-0.1,0-0.2,0-0.4
			c0-10.9,0-21.8,0-32.7v-0.3c0.1,0,0.2,0,0.3,0c5,0,10,0,14.9,0c0.2,0,0.3,0,0.4,0c0.7-0.1,1.1-0.5,1.1-1.2c0-0.1,0-0.2,0-0.4
			c0-3.5,0-6.9,0-10.4c0-1.3,0-2.6,0-3.9c0-0.1,0-0.2,0-0.3c0.2,0,0.4,0,0.6,0c7.8,0,15.5,0,23.3,0c0.9,0,1.4,0.5,1.5,1.4
			c0,0.4,0,0.9,0,1.3c0,4.3,0,8.6,0,12.9c0,5.3,0,10.7,0,16c0,0.2-0.1,0.4-0.2,0.6c-2.1,2-4.1,4.1-6.2,6.1
			C52.2,83.1,52.1,83.2,52.1,83.2"/>
	</g>
</g>
</svg>
