<?xml version="1.0" encoding="utf-8"?>
<!-- Generator: Adobe Illustrator 21.0.2, SVG Export Plug-In . SVG Version: 6.00 Build 0)  -->
<svg version="1.1" id="Layer_1" xmlns="http://www.w3.org/2000/svg" xmlns:xlink="http://www.w3.org/1999/xlink" x="0px" y="0px"
	 viewBox="0 0 314.3 103.9" style="enable-background:new 0 0 314.3 103.9;" xml:space="preserve">
<style type="text/css">
	.st0{fill:#00B5EC;}
	.st1{fill:#5B7F95;}
	.st2{fill:none;stroke:#00B5EC;stroke-width:4;stroke-miterlimit:10;}
</style>
<g>
	<g>
		<path class="st0" d="M8.7,1.8v8.6H7.3V2.9h0L5,10.4H3.7L1.4,2.9h0v7.5H0V1.8h2.3l2,6.7h0l2.1-6.7H8.7z"/>
		<path class="st0" d="M12.9,1.8h1.5l3.5,8.6h-1.6l-0.9-2.3h-3.5l-0.8,2.3H9.6L12.9,1.8z M12.3,6.9H15l-0.8-2.1
			c-0.2-0.5-0.4-1-0.6-1.6h0c-0.1,0.6-0.2,0.9-0.4,1.5L12.3,6.9z"/>
		<path class="st0" d="M24.5,4.5c-0.3-1-0.9-1.6-2.1-1.6c-2.2,0-2.5,2-2.5,3.2c0,0.5,0.1,1.5,0.4,2.2c0.4,0.6,1.1,1.1,2,1.1
			c1.4,0,2-1,2.2-2L26,7.7c-0.1,0.3-0.3,1-0.8,1.6c-0.9,1-2.2,1.2-2.8,1.2c-2.8,0-4-2.1-4-4.4c0-2.8,1.7-4.4,4-4.4
			c2.4,0,3.1,1.5,3.4,2.5L24.5,4.5z"/>
		<path class="st0" d="M27.4,1.8h3.7c0.7,0,1.2,0,1.8,0.2c0.9,0.3,1.4,1.3,1.4,2.1c0,2-1.9,2.3-2.4,2.4v0c0.4,0.2,0.9,0.5,1.8,1.8
			l1.3,2h-1.7l-1.2-1.8c-1.1-1.7-1.3-1.9-2.4-1.9h-0.9v3.7h-1.4V1.8z M28.9,5.5h1.9c1,0,2.2,0,2.2-1.3c0-1.2-1.3-1.2-2-1.2h-2.1V5.5
			z"/>
		<path class="st0" d="M39.8,1.7c2.7,0,4.1,1.9,4.1,4.4c0,2.6-1.5,4.4-4.1,4.4c-2.6,0-4.1-1.9-4.1-4.5C35.7,3.8,37,1.7,39.8,1.7z
			 M39.8,9.3c1.1,0,1.9-0.6,2.2-1.2c0.2-0.3,0.4-0.9,0.4-2c0-1.9-1-3.2-2.7-3.2c-1.3,0-2.7,0.8-2.7,3.2C37.2,8.5,38.5,9.3,39.8,9.3z
			"/>
		<path class="st0" d="M47.5,3h-2.7V1.8h6.8V3h-2.7v7.4h-1.4V3z"/>
		<path class="st0" d="M52.8,1.8h3.7c0.7,0,1.2,0,1.8,0.2c0.9,0.3,1.4,1.3,1.4,2.1c0,2-1.9,2.3-2.4,2.4v0c0.4,0.2,0.9,0.5,1.8,1.8
			l1.3,2h-1.7l-1.2-1.8c-1.1-1.7-1.3-1.9-2.4-1.9h-0.9v3.7h-1.4V1.8z M54.2,5.5h1.9c1,0,2.2,0,2.2-1.3C58.3,3,57,3,56.3,3h-2.1V5.5z
			"/>
		<path class="st0" d="M61.5,1.8h6.3V3h-4.9v2.3h4.5v1.2h-4.5v2.7h5v1.2h-6.5V1.8z"/>
		<path class="st0" d="M69.5,1.8h1.4l3.6,5.6c0.2,0.4,0.3,0.4,0.5,0.8l0,0c0-0.1,0-0.5,0-1V1.8h1.3v8.6h-1.4l-3.9-6
			c-0.1-0.1-0.1-0.2-0.2-0.3l0,0c0,0.1,0,0.4,0,0.6v5.7h-1.3V1.8z"/>
		<path class="st0" d="M78.1,1.8h3.1c1.1,0,2.3,0,3.2,1.2c0.4,0.5,0.9,1.4,0.9,3.1c0,1.6-0.5,2.7-1.2,3.4c-0.7,0.7-1.8,0.9-2.8,0.9
			h-3.2V1.8z M79.5,9.2h1.6c1.2,0,2.7,0,2.7-3.1c0-0.9-0.1-1.9-0.8-2.5C82.4,3,81.7,3,80.8,3h-1.3V9.2z"/>
		<path class="st0" d="M87.7,7.5c0,0.2,0.1,0.6,0.4,1c0.6,0.8,1.6,0.8,1.8,0.8c1.1,0,1.9-0.5,1.9-1.3c0-0.9-0.8-1.1-2.1-1.4
			c-1.2-0.3-3.1-0.7-3.1-2.6c0-1.2,1-2.4,3.1-2.4c1.8,0,3.2,0.8,3.3,2.6l-1.4,0.1c0-0.4-0.2-1.5-1.8-1.5C88.8,2.9,88,3.2,88,4
			c0,0.6,0.5,0.9,2,1.2c1.4,0.3,3.2,0.7,3.2,2.7c0,1.1-0.7,2.6-3.4,2.6c-2.7,0-3.4-1.6-3.5-2.9L87.7,7.5z"/>
	</g>
	<g>
		<path class="st1" d="M116.6,5.7v4.8c0,1.2,0,2.7,2,2.7c1.9,0,2-1.3,2-2.6V5.7h1.4v4.7c0,1.6,0,4-3.4,4c-3.4,0-3.4-2.4-3.4-3.9V5.7
			H116.6z"/>
		<path class="st1" d="M124.8,14.2h-1.3V8h1.2v0.9h0c0.2-0.4,0.6-1.1,1.3-1.1c0.5,0,0.9,0.2,1.1,0.3l-0.4,1.2
			c-0.2-0.1-0.4-0.3-0.8-0.3c-1,0-1.1,1.5-1.1,2.5V14.2z"/>
		<path class="st1" d="M127.7,14.2V5.7h1.3v3.1h0c0.2-0.2,0.7-0.9,1.7-0.9c1.5,0,2.6,1.2,2.6,3.2c0,2.3-1.4,3.3-2.6,3.3
			c-0.4,0-1.2-0.1-1.8-1h0v0.8H127.7z M130.6,13.3c0.7,0,1.5-0.5,1.5-2.2c0-0.8-0.2-2.2-1.5-2.2c-0.8,0-1.2,0.5-1.4,1
			c-0.2,0.5-0.2,1.1-0.2,1.2C129,13,130.1,13.3,130.6,13.3z"/>
		<path class="st1" d="M134.4,9.7c0.3-0.8,0.8-1.8,2.8-1.8c0.9,0,1.6,0.2,2,0.6c0.3,0.3,0.5,0.7,0.5,1.8l0,2.2
			c0,1.1,0.2,1.5,0.4,1.8h-1.4c-0.1-0.3-0.2-0.5-0.2-0.7c-0.3,0.3-1,0.9-2.1,0.9c-1.3,0-2.1-0.7-2.1-1.8c0-1.6,1.7-1.8,2.4-2
			c0.4-0.1,1.3-0.2,1.7-0.4c0-0.2,0-0.4,0-0.6c-0.1-0.7-0.9-0.7-1.2-0.7c-1.1,0-1.3,0.4-1.5,1L134.4,9.7z M136.8,11.5
			c-0.5,0.1-1.3,0.2-1.3,0.9c0,0.3,0.2,0.9,1.1,0.9c0.6,0,1.1-0.3,1.4-0.7c0.2-0.3,0.2-0.7,0.2-1.5
			C137.9,11.3,137.3,11.4,136.8,11.5z"/>
		<path class="st1" d="M141.1,8h1.2v0.9h0c0.4-0.7,1.2-1,2-1c0.7,0,1.5,0.3,1.8,0.9s0.3,1,0.3,1.8v3.6h-1.3v-3.5
			c0-0.8,0-1.8-1.2-1.8c-0.6,0-1.1,0.3-1.3,0.7s-0.3,0.8-0.3,1.5v3.1h-1.3V8z"/>
		<path class="st1" d="M148,5.7h1.3V7H148V5.7z M148,8h1.3v6.2H148V8z"/>
		<path class="st1" d="M150.3,13.2l3.2-3.7c0.2-0.3,0.3-0.3,0.4-0.4c-0.4,0-0.9,0-1,0h-2.4V8h5.1v0.9l-2.9,3.4
			c-0.2,0.3-0.5,0.6-0.8,0.9l0,0c0.4,0,0.7,0,1.1,0h2.7v1.1h-5.5V13.2z"/>
		<path class="st1" d="M156.5,9.7c0.3-0.8,0.8-1.8,2.8-1.8c0.9,0,1.6,0.2,2,0.6c0.3,0.3,0.5,0.7,0.5,1.8l0,2.2
			c0,1.1,0.2,1.5,0.4,1.8h-1.4c-0.1-0.3-0.2-0.5-0.2-0.7c-0.3,0.3-1,0.9-2.1,0.9c-1.3,0-2.1-0.7-2.1-1.8c0-1.6,1.7-1.8,2.4-2
			c0.4-0.1,1.3-0.2,1.7-0.4c0-0.2,0-0.4,0-0.6c-0.1-0.7-0.9-0.7-1.2-0.7c-1.1,0-1.3,0.4-1.5,1L156.5,9.7z M159,11.5
			c-0.5,0.1-1.3,0.2-1.3,0.9c0,0.3,0.2,0.9,1.1,0.9c0.6,0,1.1-0.3,1.4-0.7c0.2-0.3,0.2-0.7,0.2-1.5C160,11.3,159.5,11.4,159,11.5z"
			/>
		<path class="st1" d="M164.7,8h1.1v1h-1.1v3.1c0,0.7,0,1,0.5,1c0.3,0,0.5-0.1,0.6-0.1l0.1,1.1c-0.2,0.1-0.5,0.2-1,0.2
			c-1.6,0-1.6-1-1.6-2.1V9.1h-0.8V8h0.8V6.6l1.3-0.8V8z"/>
		<path class="st1" d="M166.8,5.7h1.3V7h-1.3V5.7z M166.8,8h1.3v6.2h-1.3V8z"/>
		<path class="st1" d="M172.3,7.9c1.8,0,3,1.3,3,3.2c0,2-1.3,3.3-3.1,3.3c-1.5,0-3-0.9-3-3.2C169.3,8.9,170.7,7.9,172.3,7.9z
			 M172.3,13.3c0.6,0,1.7-0.4,1.7-2.2c0-1.5-0.8-2.1-1.7-2.1c-0.8,0-1.7,0.5-1.7,2.2S171.6,13.3,172.3,13.3z"/>
		<path class="st1" d="M176.5,8h1.2v0.9h0c0.4-0.7,1.2-1,2-1c0.7,0,1.5,0.3,1.8,0.9s0.3,1,0.3,1.8v3.6h-1.3v-3.5
			c0-0.8,0-1.8-1.2-1.8c-0.6,0-1.1,0.3-1.3,0.7c-0.2,0.4-0.3,0.8-0.3,1.5v3.1h-1.3V8z"/>
	</g>
	<g>
		<path class="st1" d="M117.8,51h3c1.1,0,1.8,0,2.4,0.4c1.1,0.6,1.1,1.8,1.1,2.2c0,0.9-0.4,1.9-1.5,2.4c-0.6,0.3-1.6,0.3-2,0.3h-1.7
			v3.4h-1.4V51z M119.2,55h1.6c0.7,0,2.1,0,2.1-1.4c0-0.5-0.2-1-0.6-1.2c-0.4-0.2-0.8-0.2-1.5-0.2h-1.6V55z"/>
		<path class="st1" d="M128.3,53.3c1.8,0,3,1.3,3,3.2c0,2-1.3,3.3-3.1,3.3c-1.5,0-3-0.9-3-3.2C125.2,54.3,126.7,53.3,128.3,53.3z
			 M128.3,58.7c0.6,0,1.7-0.4,1.7-2.2c0-1.5-0.8-2.1-1.7-2.1c-0.8,0-1.7,0.5-1.7,2.2S127.6,58.7,128.3,58.7z"/>
		<path class="st1" d="M132.5,53.4h1.2v0.9h0c0.1-0.2,0.7-1,1.8-1c1.6,0,2.6,1.4,2.6,3.2c0,2.2-1.3,3.3-2.7,3.3
			c-1,0-1.5-0.6-1.7-0.9h0V62h-1.3V53.4z M135.3,58.7c1.4,0,1.5-1.6,1.5-2.2c0-1.6-0.8-2.2-1.5-2.2c-0.8,0-1.6,0.7-1.6,2.3
			C133.8,58.1,134.6,58.7,135.3,58.7z"/>
		<path class="st1" d="M143.5,59.6v-0.9h0c-0.7,1-1.6,1.1-2,1.1c-0.7,0-1.5-0.3-1.8-0.9c-0.3-0.5-0.3-1-0.3-1.6v-3.9h1.3v3.2
			c0,0.9,0,1.3,0.2,1.6c0.3,0.4,0.7,0.5,1,0.5c0.6,0,1.1-0.3,1.2-0.7c0.2-0.4,0.2-0.8,0.2-1.6v-3h1.3v6.2H143.5z"/>
		<path class="st1" d="M146.3,51h1.3v8.6h-1.3V51z"/>
		<path class="st1" d="M148.9,55.1c0.3-0.8,0.8-1.8,2.8-1.8c0.9,0,1.6,0.2,2,0.6c0.3,0.3,0.5,0.7,0.5,1.8l0,2.2
			c0,1.1,0.2,1.5,0.4,1.8h-1.4c-0.1-0.3-0.2-0.5-0.2-0.7c-0.3,0.3-1,0.9-2.1,0.9c-1.3,0-2.1-0.7-2.1-1.8c0-1.6,1.7-1.8,2.4-2
			c0.4-0.1,1.3-0.2,1.7-0.4c0-0.2,0-0.4,0-0.6c-0.1-0.7-0.9-0.7-1.2-0.7c-1.1,0-1.3,0.4-1.5,1L148.9,55.1z M151.4,56.9
			c-0.5,0.1-1.3,0.2-1.3,0.9c0,0.3,0.2,0.9,1.1,0.9c0.6,0,1.1-0.3,1.4-0.7c0.2-0.3,0.2-0.7,0.2-1.5
			C152.4,56.7,151.9,56.8,151.4,56.9z"/>
		<path class="st1" d="M157.1,53.4h1.1v1h-1.1v3.1c0,0.7,0,1,0.5,1c0.3,0,0.5-0.1,0.6-0.1l0.1,1.1c-0.2,0.1-0.5,0.2-1,0.2
			c-1.6,0-1.6-1-1.6-2.1v-3.2H155v-1h0.8V52l1.3-0.8V53.4z"/>
		<path class="st1" d="M159.2,51h1.3v1.4h-1.3V51z M159.2,53.4h1.3v6.2h-1.3V53.4z"/>
		<path class="st1" d="M164.7,53.3c1.8,0,3,1.3,3,3.2c0,2-1.3,3.3-3.1,3.3c-1.5,0-3-0.9-3-3.2C161.7,54.3,163.1,53.3,164.7,53.3z
			 M164.7,58.7c0.6,0,1.7-0.4,1.7-2.2c0-1.5-0.8-2.1-1.7-2.1c-0.8,0-1.7,0.5-1.7,2.2S164,58.7,164.7,58.7z"/>
		<path class="st1" d="M168.9,53.4h1.2v0.9h0c0.4-0.7,1.2-1,2-1c0.7,0,1.5,0.3,1.8,0.9c0.3,0.6,0.3,1,0.3,1.8v3.6h-1.3v-3.5
			c0-0.8,0-1.8-1.2-1.8c-0.6,0-1.1,0.3-1.3,0.7s-0.3,0.8-0.3,1.5v3.1h-1.3V53.4z"/>
		<path class="st1" d="M180.2,60.3c0,0.3,0.1,0.8,1.2,0.8c0.3,0,1.1-0.1,1.4-0.6c0.2-0.3,0.2-0.6,0.2-1.8h0
			c-0.2,0.3-0.7,0.9-1.8,0.9c-1.8,0-2.6-1.6-2.6-3.1c0-1.9,1-3.2,2.7-3.2c1.1,0,1.6,0.7,1.8,0.9h0v-0.8h1.2v5.5
			c0,0.9-0.1,1.8-0.5,2.4c-0.5,0.7-1.4,0.9-2.3,0.9c-1,0-2.8-0.2-2.8-2.1L180.2,60.3z M180,56.5c0,1.1,0.5,2.1,1.5,2.1
			c0.6,0,0.9-0.3,1.1-0.5c0.5-0.5,0.5-1.4,0.5-1.7c0-0.8-0.3-2.1-1.6-2.1C180.3,54.3,180,55.5,180,56.5z"/>
		<path class="st1" d="M187.1,59.6h-1.3v-6.2h1.2v0.9h0c0.2-0.4,0.6-1.1,1.3-1.1c0.5,0,0.9,0.2,1.1,0.3l-0.4,1.2
			c-0.2-0.1-0.4-0.3-0.8-0.3c-1,0-1.1,1.5-1.1,2.5V59.6z"/>
		<path class="st1" d="M192.7,53.3c1.8,0,3,1.3,3,3.2c0,2-1.3,3.3-3.1,3.3c-1.5,0-3-0.9-3-3.2C189.6,54.3,191.1,53.3,192.7,53.3z
			 M192.7,58.7c0.6,0,1.7-0.4,1.7-2.2c0-1.5-0.8-2.1-1.7-2.1c-0.8,0-1.7,0.5-1.7,2.2S191.9,58.7,192.7,58.7z"/>
		<path class="st1" d="M196.1,53.4h1.3l1.1,3.8c0,0.1,0.2,0.6,0.2,0.7h0c0-0.3,0.1-0.3,0.2-0.7l1-3.8h1.3l1,3.8
			c0.1,0.4,0.1,0.5,0.2,0.7h0c0.1-0.3,0.1-0.5,0.2-0.7l1.1-3.8h1.3l-2,6.2h-1.3l-1.2-4.4h0c0,0.3,0,0.3-0.1,0.6l-1,3.8H198
			L196.1,53.4z"/>
		<path class="st1" d="M207.2,53.4h1.1v1h-1.1v3.1c0,0.7,0,1,0.5,1c0.3,0,0.5-0.1,0.6-0.1l0.1,1.1c-0.2,0.1-0.5,0.2-1,0.2
			c-1.6,0-1.6-1-1.6-2.1v-3.2h-0.8v-1h0.8V52l1.3-0.8V53.4z"/>
		<path class="st1" d="M209.3,51h1.3v3.1c0.7-0.8,1.5-0.9,1.9-0.9c0.6,0,1.4,0.2,1.8,0.8c0.3,0.5,0.3,1,0.3,1.7v3.8h-1.3V56
			c0-0.7,0-1.7-1.2-1.7c-0.5,0-1,0.3-1.3,0.7c-0.2,0.4-0.3,0.8-0.3,1.4v3.3h-1.3V51z"/>
	</g>
	<g>
		<path class="st1" d="M119.1,96.3l-2.2-8.6h1.5l1.3,5.8l0.2,0.9h0c0-0.3,0.1-0.6,0.2-0.9l1.6-5.8h1.7l1.4,5.1
			c0.2,0.8,0.3,1.2,0.3,1.6h0c0-0.3,0.1-0.4,0.2-1l1.3-5.7h1.4l-2.2,8.6h-1.5l-1.8-6.5c-0.1-0.3-0.1-0.4-0.1-0.5h0l-0.1,0.5
			l-1.8,6.5H119.1z"/>
		<path class="st1" d="M128.3,91.7c0.3-0.8,0.8-1.8,2.8-1.8c0.9,0,1.6,0.2,2,0.6c0.3,0.3,0.5,0.7,0.5,1.8l0,2.2
			c0,1.1,0.2,1.5,0.4,1.8h-1.4c-0.1-0.3-0.2-0.5-0.2-0.7c-0.3,0.3-1,0.9-2.1,0.9c-1.3,0-2.1-0.7-2.1-1.8c0-1.6,1.7-1.8,2.4-2
			c0.4-0.1,1.3-0.2,1.7-0.4c0-0.2,0-0.4,0-0.6c-0.1-0.7-0.9-0.7-1.2-0.7c-1.1,0-1.3,0.4-1.5,1L128.3,91.7z M130.7,93.5
			c-0.5,0.1-1.3,0.2-1.3,0.9c0,0.3,0.2,0.9,1.1,0.9c0.6,0,1.1-0.3,1.4-0.7c0.2-0.3,0.2-0.7,0.2-1.5
			C131.8,93.4,131.2,93.5,130.7,93.5z"/>
		<path class="st1" d="M136.4,90h1.1v1h-1.1v3.1c0,0.7,0,1,0.5,1c0.3,0,0.5-0.1,0.6-0.1l0.1,1.1c-0.2,0.1-0.5,0.2-1,0.2
			c-1.6,0-1.6-1-1.6-2.1v-3.2h-0.8v-1h0.8v-1.4l1.3-0.8V90z"/>
		<path class="st1" d="M139.5,93.5c0,1.1,0.6,1.8,1.6,1.8c0.9,0,1.2-0.7,1.4-1.1l1.3,0.2c-0.3,1.1-1.2,1.9-2.7,1.9
			c-2.4,0-3-1.9-3-3.2c0-1.6,0.8-3.3,2.9-3.3c2.1,0,3,1.6,2.9,3.6H139.5z M142.5,92.6c0-0.6-0.3-1.6-1.5-1.6c-1.3,0-1.5,1.4-1.5,1.6
			H142.5z"/>
		<path class="st1" d="M146.3,96.3h-1.3V90h1.2V91h0c0.2-0.4,0.6-1.1,1.3-1.1c0.5,0,0.9,0.2,1.1,0.3l-0.4,1.2
			c-0.2-0.1-0.4-0.3-0.8-0.3c-1,0-1.1,1.5-1.1,2.5V96.3z"/>
		<path class="st1" d="M155.9,91.8c-0.1-0.8-0.9-0.9-1.3-0.9c-0.4,0-1.2,0.1-1.2,0.7c0,0.4,0.4,0.6,1.5,0.8c1.5,0.3,2.6,0.7,2.6,1.9
			c0,1-0.7,2.1-2.7,2.1c-1.9,0-2.6-1.1-2.8-2l1.3-0.2c0.2,1,1,1.2,1.5,1.2c0.2,0,1.3,0,1.3-0.9c0-0.3-0.2-0.5-0.9-0.7
			c-1.9-0.4-3.1-0.8-3.1-2.1c0-1.2,1.1-1.9,2.3-1.9c0.8,0,2.4,0.1,2.7,1.7L155.9,91.8z"/>
		<path class="st1" d="M163.9,94.1c-0.2,1.1-1,2.3-2.7,2.3c-2.6,0-2.9-2.4-2.9-3.2c0-1.8,0.9-3.2,2.9-3.2c0.4,0,1.5,0.1,2.1,0.9
			c0.4,0.5,0.5,0.9,0.5,1.2l-1.3,0.2c-0.1-0.3-0.3-1.2-1.3-1.2c-1.4,0-1.6,1.5-1.6,2.1c0,0.7,0.2,2.2,1.6,2.2c1.2,0,1.3-1,1.4-1.4
			L163.9,94.1z"/>
		<path class="st1" d="M164.6,91.7c0.3-0.8,0.8-1.8,2.8-1.8c0.9,0,1.6,0.2,2,0.6c0.3,0.3,0.5,0.7,0.5,1.8l0,2.2
			c0,1.1,0.2,1.5,0.4,1.8h-1.4c-0.1-0.3-0.2-0.5-0.2-0.7c-0.3,0.3-1,0.9-2.1,0.9c-1.3,0-2.1-0.7-2.1-1.8c0-1.6,1.7-1.8,2.4-2
			c0.4-0.1,1.3-0.2,1.7-0.4c0-0.2,0-0.4,0-0.6c-0.1-0.7-0.9-0.7-1.2-0.7c-1.1,0-1.3,0.4-1.5,1L164.6,91.7z M167.1,93.5
			c-0.5,0.1-1.3,0.2-1.3,0.9c0,0.3,0.2,0.9,1.1,0.9c0.6,0,1.1-0.3,1.4-0.7c0.2-0.3,0.2-0.7,0.2-1.5
			C168.2,93.4,167.6,93.5,167.1,93.5z"/>
		<path class="st1" d="M172.6,96.3h-1.3V90h1.2V91h0c0.2-0.4,0.6-1.1,1.3-1.1c0.5,0,0.9,0.2,1.1,0.3l-0.4,1.2
			c-0.2-0.1-0.4-0.3-0.8-0.3c-1,0-1.1,1.5-1.1,2.5V96.3z"/>
		<path class="st1" d="M180.8,94.1c-0.2,1.1-1,2.3-2.7,2.3c-2.6,0-2.9-2.4-2.9-3.2c0-1.8,0.9-3.2,2.9-3.2c0.4,0,1.5,0.1,2.1,0.9
			c0.4,0.5,0.5,0.9,0.5,1.2l-1.3,0.2c-0.1-0.3-0.3-1.2-1.3-1.2c-1.4,0-1.6,1.5-1.6,2.1c0,0.7,0.2,2.2,1.6,2.2c1.2,0,1.3-1,1.4-1.4
			L180.8,94.1z"/>
		<path class="st1" d="M181.8,87.7h1.3V89h-1.3V87.7z M181.8,90h1.3v6.2h-1.3V90z"/>
		<path class="st1" d="M186.1,90h1.1v1h-1.1v3.1c0,0.7,0,1,0.5,1c0.3,0,0.5-0.1,0.6-0.1l0.1,1.1c-0.2,0.1-0.5,0.2-1,0.2
			c-1.6,0-1.6-1-1.6-2.1v-3.2H184v-1h0.8v-1.4l1.3-0.8V90z"/>
		<path class="st1" d="M188.9,90l1.6,4.6h0l1.6-4.6h1.4l-2.3,6.2c-0.6,1.7-0.9,2.6-2.3,2.6c-0.4,0-0.7-0.1-0.9-0.1l-0.1-1.1
			c0.1,0,0.4,0.1,0.7,0.1c0.7,0,0.9-0.3,1.3-1.4l-2.4-6.2H188.9z"/>
	</g>
	<g>
		<path class="st1" d="M228,5.7h3.1c1.1,0,2.3,0,3.2,1.2c0.4,0.5,0.9,1.4,0.9,3.1c0,1.6-0.5,2.7-1.2,3.4c-0.7,0.7-1.8,0.9-2.8,0.9
			H228V5.7z M229.4,13h1.6c1.2,0,2.7,0,2.7-3.1c0-0.9-0.1-1.9-0.8-2.5c-0.6-0.5-1.2-0.5-2.1-0.5h-1.3V13z"/>
		<path class="st1" d="M236.4,5.7h1.3V7h-1.3V5.7z M236.4,8h1.3v6.2h-1.3V8z"/>
		<path class="st1" d="M240.5,14.9c0,0.3,0.1,0.8,1.2,0.8c0.3,0,1.1-0.1,1.4-0.6c0.2-0.3,0.2-0.6,0.2-1.8h0
			c-0.2,0.3-0.7,0.9-1.8,0.9c-1.8,0-2.6-1.6-2.6-3.1c0-1.9,1-3.2,2.7-3.2c1.1,0,1.6,0.7,1.8,0.9h0V8h1.2v5.5c0,0.9-0.1,1.8-0.5,2.4
			c-0.5,0.7-1.4,0.9-2.3,0.9c-1,0-2.8-0.2-2.8-2.1L240.5,14.9z M240.3,11.1c0,1.1,0.5,2.1,1.5,2.1c0.6,0,0.9-0.3,1.1-0.5
			c0.5-0.5,0.5-1.4,0.5-1.7c0-0.8-0.3-2.1-1.6-2.1C240.6,8.9,240.3,10.2,240.3,11.1z"/>
		<path class="st1" d="M246.1,5.7h1.3V7h-1.3V5.7z M246.1,8h1.3v6.2h-1.3V8z"/>
		<path class="st1" d="M250.5,8h1.1v1h-1.1v3.1c0,0.7,0,1,0.5,1c0.3,0,0.5-0.1,0.6-0.1l0.1,1.1c-0.2,0.1-0.5,0.2-1,0.2
			c-1.6,0-1.6-1-1.6-2.1V9.1h-0.8V8h0.8V6.6l1.3-0.8V8z"/>
		<path class="st1" d="M252.3,9.7c0.3-0.8,0.8-1.8,2.8-1.8c0.9,0,1.6,0.2,2,0.6c0.3,0.3,0.5,0.7,0.5,1.8l0,2.2
			c0,1.1,0.2,1.5,0.4,1.8h-1.4c-0.1-0.3-0.2-0.5-0.2-0.7c-0.3,0.3-1,0.9-2.1,0.9c-1.3,0-2.1-0.7-2.1-1.8c0-1.6,1.7-1.8,2.4-2
			c0.4-0.1,1.3-0.2,1.7-0.4c0-0.2,0-0.4,0-0.6c-0.1-0.7-0.9-0.7-1.2-0.7c-1.1,0-1.3,0.4-1.5,1L252.3,9.7z M254.8,11.5
			c-0.5,0.1-1.3,0.2-1.3,0.9c0,0.3,0.2,0.9,1.1,0.9c0.6,0,1.1-0.3,1.4-0.7c0.2-0.3,0.2-0.7,0.2-1.5
			C255.8,11.3,255.3,11.4,254.8,11.5z"/>
		<path class="st1" d="M259,5.7h1.3v8.6H259V5.7z"/>
		<path class="st1" d="M261.9,5.7h1.3V7h-1.3V5.7z M261.9,8h1.3v6.2h-1.3V8z"/>
		<path class="st1" d="M264.2,13.2l3.2-3.7c0.2-0.3,0.3-0.3,0.4-0.4c-0.4,0-0.9,0-1,0h-2.4V8h5.1v0.9l-2.9,3.4
			c-0.2,0.3-0.5,0.6-0.8,0.9l0,0c0.4,0,0.7,0,1.1,0h2.7v1.1h-5.5V13.2z"/>
		<path class="st1" d="M270.5,9.7c0.3-0.8,0.8-1.8,2.8-1.8c0.9,0,1.6,0.2,2,0.6c0.3,0.3,0.5,0.7,0.5,1.8l0,2.2
			c0,1.1,0.2,1.5,0.4,1.8h-1.4c-0.1-0.3-0.2-0.5-0.2-0.7c-0.3,0.3-1,0.9-2.1,0.9c-1.3,0-2.1-0.7-2.1-1.8c0-1.6,1.7-1.8,2.4-2
			c0.4-0.1,1.3-0.2,1.7-0.4c0-0.2,0-0.4,0-0.6c-0.1-0.7-0.9-0.7-1.2-0.7c-1.1,0-1.3,0.4-1.5,1L270.5,9.7z M272.9,11.5
			c-0.5,0.1-1.3,0.2-1.3,0.9c0,0.3,0.2,0.9,1.1,0.9c0.6,0,1.1-0.3,1.4-0.7c0.2-0.3,0.2-0.7,0.2-1.5C274,11.3,273.4,11.4,272.9,11.5z
			"/>
		<path class="st1" d="M278.7,8h1.1v1h-1.1v3.1c0,0.7,0,1,0.5,1c0.3,0,0.5-0.1,0.6-0.1l0.1,1.1c-0.2,0.1-0.5,0.2-1,0.2
			c-1.6,0-1.6-1-1.6-2.1V9.1h-0.8V8h0.8V6.6l1.3-0.8V8z"/>
		<path class="st1" d="M280.7,5.7h1.3V7h-1.3V5.7z M280.7,8h1.3v6.2h-1.3V8z"/>
		<path class="st1" d="M286.3,7.9c1.8,0,3,1.3,3,3.2c0,2-1.3,3.3-3.1,3.3c-1.5,0-3-0.9-3-3.2C283.2,8.9,284.7,7.9,286.3,7.9z
			 M286.3,13.3c0.6,0,1.7-0.4,1.7-2.2c0-1.5-0.8-2.1-1.7-2.1c-0.8,0-1.7,0.5-1.7,2.2S285.5,13.3,286.3,13.3z"/>
		<path class="st1" d="M290.5,8h1.2v0.9h0c0.4-0.7,1.2-1,2-1c0.7,0,1.5,0.3,1.8,0.9s0.3,1,0.3,1.8v3.6h-1.3v-3.5
			c0-0.8,0-1.8-1.2-1.8c-0.6,0-1.1,0.3-1.3,0.7c-0.2,0.4-0.3,0.8-0.3,1.5v3.1h-1.3V8z"/>
	</g>
	<g>
		<path class="st1" d="M230.2,50.3h5.8v1.2h-4.4v2.4h3.8v1.2h-3.8v3.8h-1.4V50.3z"/>
		<path class="st1" d="M240,52.6c1.8,0,3,1.3,3,3.2c0,2-1.3,3.3-3.1,3.3c-1.5,0-3-0.9-3-3.2C237,53.6,238.4,52.6,240,52.6z M240,58
			c0.6,0,1.7-0.4,1.7-2.2c0-1.5-0.8-2.1-1.7-2.1c-0.8,0-1.7,0.5-1.7,2.2S239.3,58,240,58z"/>
		<path class="st1" d="M246.9,52.6c1.8,0,3,1.3,3,3.2c0,2-1.3,3.3-3.1,3.3c-1.5,0-3-0.9-3-3.2C243.9,53.6,245.3,52.6,246.9,52.6z
			 M246.9,58c0.6,0,1.7-0.4,1.7-2.2c0-1.5-0.8-2.1-1.7-2.1c-0.8,0-1.7,0.5-1.7,2.2S246.2,58,246.9,58z"/>
		<path class="st1" d="M256.4,58.9h-1.2v-0.9h0c-0.6,1-1.6,1-1.8,1c-1.6,0-2.6-1.5-2.6-3.2c0-2.1,1.1-3.3,2.6-3.3
			c0.7,0,1.4,0.3,1.8,0.9h0v-3.1h1.3V58.9z M252.1,55.8c0,1.9,1,2.2,1.5,2.2c0.5,0,1.5-0.3,1.5-2.1c0-1.4-0.6-2.3-1.5-2.3
			C252.1,53.6,252.1,55.4,252.1,55.8z"/>
		<path class="st1" d="M264.8,54.5c-0.1-0.8-0.9-0.9-1.3-0.9c-0.4,0-1.2,0.1-1.2,0.7c0,0.4,0.4,0.6,1.5,0.8c1.5,0.3,2.6,0.7,2.6,1.9
			c0,1-0.7,2.1-2.7,2.1c-1.9,0-2.6-1.1-2.8-2l1.3-0.2c0.2,1,1,1.2,1.5,1.2c0.2,0,1.3,0,1.3-0.9c0-0.3-0.2-0.5-0.9-0.7
			c-1.9-0.4-3.1-0.8-3.1-2.1c0-1.2,1.1-1.9,2.3-1.9c0.8,0,2.4,0.1,2.7,1.7L264.8,54.5z"/>
		<path class="st1" d="M267.5,50.3h1.3v3.1c0.7-0.8,1.5-0.9,1.9-0.9c0.6,0,1.4,0.2,1.8,0.8c0.3,0.5,0.3,1,0.3,1.7v3.8h-1.3v-3.6
			c0-0.7,0-1.7-1.2-1.7c-0.5,0-1,0.3-1.3,0.7c-0.2,0.4-0.3,0.8-0.3,1.4v3.3h-1.3V50.3z"/>
		<path class="st1" d="M277,52.6c1.8,0,3,1.3,3,3.2c0,2-1.3,3.3-3.1,3.3c-1.5,0-3-0.9-3-3.2C273.9,53.6,275.4,52.6,277,52.6z
			 M277,58c0.6,0,1.7-0.4,1.7-2.2c0-1.5-0.8-2.1-1.7-2.1c-0.8,0-1.7,0.5-1.7,2.2S276.3,58,277,58z"/>
		<path class="st1" d="M282.5,58.9h-1.3v-6.2h1.2v0.9h0c0.2-0.4,0.6-1.1,1.3-1.1c0.5,0,0.9,0.2,1.1,0.3l-0.4,1.2
			c-0.2-0.1-0.4-0.3-0.8-0.3c-1,0-1.1,1.5-1.1,2.5V58.9z"/>
		<path class="st1" d="M286.8,52.7h1.1v1h-1.1v3.1c0,0.7,0,1,0.5,1c0.3,0,0.5-0.1,0.6-0.1l0.1,1.1c-0.2,0.1-0.5,0.2-1,0.2
			c-1.6,0-1.6-1-1.6-2.1v-3.2h-0.8v-1h0.8v-1.4l1.3-0.8V52.7z"/>
		<path class="st1" d="M288.6,54.4c0.3-0.8,0.8-1.8,2.8-1.8c0.9,0,1.6,0.2,2,0.6c0.3,0.3,0.5,0.7,0.5,1.8l0,2.2
			c0,1.1,0.2,1.5,0.4,1.8h-1.4c-0.1-0.3-0.2-0.5-0.2-0.7c-0.3,0.3-1,0.9-2.1,0.9c-1.3,0-2.1-0.7-2.1-1.8c0-1.6,1.7-1.8,2.4-2
			c0.4-0.1,1.3-0.2,1.7-0.4c0-0.2,0-0.4,0-0.6c-0.1-0.7-0.9-0.7-1.2-0.7c-1.1,0-1.3,0.4-1.5,1L288.6,54.4z M291.1,56.2
			c-0.5,0.1-1.3,0.2-1.3,0.9c0,0.3,0.2,0.9,1.1,0.9c0.6,0,1.1-0.3,1.4-0.7c0.2-0.3,0.2-0.7,0.2-1.5C292.1,56,291.6,56.1,291.1,56.2z
			"/>
		<path class="st1" d="M296.6,59.6c0,0.3,0.1,0.8,1.2,0.8c0.3,0,1.1-0.1,1.4-0.6c0.2-0.3,0.2-0.6,0.2-1.8h0
			c-0.2,0.3-0.7,0.9-1.8,0.9c-1.8,0-2.6-1.6-2.6-3.1c0-1.9,1-3.2,2.7-3.2c1.1,0,1.6,0.7,1.8,0.9h0v-0.8h1.2v5.5
			c0,0.9-0.1,1.8-0.5,2.4c-0.5,0.7-1.4,0.9-2.3,0.9c-1,0-2.8-0.2-2.8-2.1L296.6,59.6z M296.3,55.8c0,1.1,0.5,2.1,1.5,2.1
			c0.6,0,0.9-0.3,1.1-0.5c0.5-0.5,0.5-1.4,0.5-1.7c0-0.8-0.3-2.1-1.6-2.1C296.7,53.6,296.3,54.8,296.3,55.8z"/>
		<path class="st1" d="M303.2,56.2c0,1.1,0.6,1.8,1.6,1.8c0.9,0,1.2-0.7,1.4-1.1l1.3,0.2c-0.3,1.1-1.2,1.9-2.7,1.9
			c-2.4,0-3-1.9-3-3.2c0-1.6,0.8-3.3,2.9-3.3c2.1,0,2.9,1.6,2.9,3.6H303.2z M306.2,55.2c0-0.6-0.3-1.6-1.5-1.6
			c-1.3,0-1.5,1.4-1.5,1.6H306.2z"/>
		<path class="st1" d="M312.3,54.5c-0.1-0.8-0.9-0.9-1.3-0.9c-0.4,0-1.2,0.1-1.2,0.7c0,0.4,0.4,0.6,1.5,0.8c1.5,0.3,2.6,0.7,2.6,1.9
			c0,1-0.7,2.1-2.7,2.1c-1.9,0-2.6-1.1-2.8-2l1.3-0.2c0.2,1,1,1.2,1.5,1.2c0.2,0,1.3,0,1.3-0.9c0-0.3-0.2-0.5-0.9-0.7
			c-1.9-0.4-3.1-0.8-3.1-2.1c0-1.2,1.1-1.9,2.3-1.9c0.8,0,2.4,0.1,2.7,1.7L312.3,54.5z"/>
	</g>
	<g>
		<path class="st1" d="M237.3,90.4c-0.3-1-0.9-1.6-2.1-1.6c-2.2,0-2.5,2-2.5,3.2c0,0.5,0.1,1.5,0.4,2.2c0.4,0.6,1.1,1.1,2,1.1
			c1.4,0,2-1,2.2-2l1.4,0.4c-0.1,0.3-0.3,1-0.8,1.6c-0.9,1-2.2,1.2-2.8,1.2c-2.8,0-4-2.1-4-4.4c0-2.8,1.7-4.4,4-4.4
			c2.4,0,3.1,1.5,3.4,2.5L237.3,90.4z"/>
		<path class="st1" d="M240,87.7h1.3v8.6H240V87.7z"/>
		<path class="st1" d="M242.9,87.7h1.3v1.4h-1.3V87.7z M242.9,90.1h1.3v6.2h-1.3V90.1z"/>
		<path class="st1" d="M245.7,90.1h1.2V91h0c0.4-0.6,1-1,1.9-1c0.3,0,1.3,0,1.8,1c0.2-0.3,0.7-1,1.9-1c2,0,2,1.7,2,2.2v4.1h-1.3
			v-3.8c0-0.6,0-1.5-1-1.5c-0.5,0-0.9,0.3-1.1,0.6c-0.2,0.4-0.3,0.8-0.3,1.3v3.3h-1.3v-3.7c0-0.6,0-1.5-1-1.5c-0.5,0-1,0.3-1.2,0.6
			c-0.2,0.4-0.3,0.8-0.3,1.5v3.1h-1.3V90.1z"/>
		<path class="st1" d="M255.6,91.8c0.3-0.8,0.8-1.8,2.8-1.8c0.9,0,1.6,0.2,2,0.6c0.3,0.3,0.5,0.7,0.5,1.8l0,2.2
			c0,1.1,0.2,1.5,0.4,1.8h-1.4c-0.1-0.3-0.2-0.5-0.2-0.7c-0.3,0.3-1,0.9-2.1,0.9c-1.3,0-2.1-0.7-2.1-1.8c0-1.6,1.7-1.8,2.4-2
			c0.4-0.1,1.3-0.2,1.7-0.4c0-0.2,0-0.4,0-0.6c-0.1-0.7-0.9-0.7-1.2-0.7c-1.1,0-1.3,0.4-1.5,1L255.6,91.8z M258.1,93.6
			c-0.5,0.1-1.3,0.2-1.3,0.9c0,0.3,0.2,0.9,1.1,0.9c0.6,0,1.1-0.3,1.4-0.7c0.2-0.3,0.2-0.7,0.2-1.5
			C259.2,93.4,258.6,93.5,258.1,93.6z"/>
		<path class="st1" d="M263.8,90.1h1.1v1h-1.1v3.1c0,0.7,0,1,0.5,1c0.3,0,0.5-0.1,0.6-0.1l0.1,1.1c-0.2,0.1-0.5,0.2-1,0.2
			c-1.6,0-1.6-1-1.6-2.1v-3.2h-0.8v-1h0.8v-1.4l1.3-0.8V90.1z"/>
		<path class="st1" d="M266.8,93.6c0,1.1,0.6,1.8,1.6,1.8c0.9,0,1.2-0.7,1.4-1.1l1.3,0.2c-0.3,1.1-1.2,1.9-2.7,1.9
			c-2.4,0-3-1.9-3-3.2c0-1.6,0.8-3.3,2.9-3.3c2.1,0,3,1.6,2.9,3.6H266.8z M269.9,92.6c0-0.6-0.3-1.6-1.5-1.6c-1.3,0-1.5,1.4-1.5,1.6
			H269.9z"/>
		<path class="st1" d="M280.9,94.2c-0.2,1.1-1,2.3-2.7,2.3c-2.6,0-2.9-2.4-2.9-3.2c0-1.8,0.9-3.2,2.9-3.2c0.4,0,1.5,0.1,2.1,0.9
			c0.4,0.5,0.5,0.9,0.5,1.2l-1.3,0.2c-0.1-0.3-0.3-1.2-1.3-1.2c-1.4,0-1.6,1.5-1.6,2.1c0,0.7,0.2,2.2,1.6,2.2c1.2,0,1.3-1,1.4-1.4
			L280.9,94.2z"/>
		<path class="st1" d="M281.8,87.7h1.3v3.1c0.7-0.8,1.5-0.9,1.9-0.9c0.6,0,1.4,0.2,1.8,0.8c0.3,0.5,0.3,1,0.3,1.7v3.8h-1.3v-3.6
			c0-0.7,0-1.7-1.2-1.7c-0.5,0-1,0.3-1.3,0.7c-0.2,0.4-0.3,0.8-0.3,1.4v3.3h-1.3V87.7z"/>
		<path class="st1" d="M288.5,91.8c0.3-0.8,0.8-1.8,2.8-1.8c0.9,0,1.6,0.2,2,0.6c0.3,0.3,0.5,0.7,0.5,1.8l0,2.2
			c0,1.1,0.2,1.5,0.4,1.8h-1.4c-0.1-0.3-0.2-0.5-0.2-0.7c-0.3,0.3-1,0.9-2.1,0.9c-1.3,0-2.1-0.7-2.1-1.8c0-1.6,1.7-1.8,2.4-2
			c0.4-0.1,1.3-0.2,1.7-0.4c0-0.2,0-0.4,0-0.6c-0.1-0.7-0.9-0.7-1.2-0.7c-1.1,0-1.3,0.4-1.5,1L288.5,91.8z M290.9,93.6
			c-0.5,0.1-1.3,0.2-1.3,0.9c0,0.3,0.2,0.9,1.1,0.9c0.6,0,1.1-0.3,1.4-0.7c0.2-0.3,0.2-0.7,0.2-1.5C292,93.4,291.5,93.5,290.9,93.6z
			"/>
		<path class="st1" d="M295.2,90.1h1.2V91h0c0.4-0.7,1.2-1,2-1c0.7,0,1.5,0.3,1.8,0.9s0.3,1,0.3,1.8v3.6h-1.3v-3.5
			c0-0.8,0-1.8-1.2-1.8c-0.6,0-1.1,0.3-1.3,0.7c-0.2,0.4-0.3,0.8-0.3,1.5v3.1h-1.3V90.1z"/>
		<path class="st1" d="M303.4,97c0,0.3,0.1,0.8,1.2,0.8c0.3,0,1.1-0.1,1.4-0.6c0.2-0.3,0.2-0.6,0.2-1.8h0c-0.2,0.3-0.7,0.9-1.8,0.9
			c-1.8,0-2.6-1.6-2.6-3.1c0-1.9,1-3.2,2.7-3.2c1.1,0,1.6,0.7,1.8,0.9h0v-0.8h1.2v5.5c0,0.9-0.1,1.8-0.5,2.4
			c-0.5,0.7-1.4,0.9-2.3,0.9c-1,0-2.8-0.2-2.8-2.1L303.4,97z M303.1,93.2c0,1.1,0.5,2.1,1.5,2.1c0.6,0,0.9-0.3,1.1-0.5
			c0.5-0.5,0.5-1.4,0.5-1.7c0-0.8-0.3-2.1-1.6-2.1C303.4,91,303.1,92.3,303.1,93.2z"/>
		<path class="st1" d="M309.9,93.6c0,1.1,0.6,1.8,1.6,1.8c0.9,0,1.2-0.7,1.4-1.1l1.3,0.2c-0.3,1.1-1.2,1.9-2.7,1.9
			c-2.4,0-3-1.9-3-3.2c0-1.6,0.8-3.3,2.9-3.3c2.1,0,3,1.6,2.9,3.6H309.9z M313,92.6c0-0.6-0.3-1.6-1.5-1.6c-1.3,0-1.5,1.4-1.5,1.6
			H313z"/>
	</g>
	<g>
		<line class="st2" x1="98.4" y1="0" x2="98.4" y2="103.9"/>
	</g>
	<polygon class="st0" points="108.9,51.1 98.4,39.4 98.4,62.9 	"/>
	<g>
		<path class="st0" d="M66.1,81.3c0.2,0.6-0.4,1.1-1,1c-8.2-2.2-12.4-3.2-19.9-5.4c-0.6-0.2-0.8-0.9-0.3-1.3
			c1.7-1.7,1.4-1.5,3.6-3.6c0.2-0.2,0.2-0.5,0-0.6c0,0-0.1,0-0.1-0.1c-2.7-2.5-7.3-6.4-10.7-9.4c-1,0.9-2.1,1.8-3,2.6
			c-3,2.6-6.5,4.1-10.4,4.6c-0.8,0.1-1.7,0.1-2.5,0.1c-6.6,0-13.2,0-19.8,0H1.6c-0.2,0-0.4-0.2-0.4-0.4v-9.6c0-0.2,0.2-0.4,0.4-0.4
			h0.2c6.4,0,12.7,0,19.1,0c0,0,0,0,0,0c4.1-0.2,6.5-1.4,9.2-3.3c-2.6-1.9-5-3.1-9.2-3.3c0,0,0,0,0,0c-6.4,0-12.7,0-19.1,0H1.6
			c-0.2,0-0.4-0.2-0.4-0.4v-9.6c0-0.2,0.2-0.4,0.4-0.4h0.3c6.6,0,13.2,0,19.8,0c0.9,0,1.7,0,2.5,0.1c3.9,0.5,7.5,1.9,10.4,4.6
			c0.9,0.8,2,1.7,3,2.6c3.5-3,8.1-6.9,10.7-9.4c0,0,0,0,0.1-0.1c0.2-0.2,0.2-0.4,0-0.6c-2.1-2.1-1.9-1.9-3.6-3.6
			c-0.4-0.4-0.2-1.1,0.3-1.3c7.5-2.2,11.7-3.2,19.9-5.4c0.6-0.2,1.1,0.4,1,1c-2.7,10.1-3.3,12-5.3,19.6c-0.2,0.7-1.1,1-1.6,0.4
			c-1.4-1.4-1.3-1.4-3.3-3.4c-0.2-0.2-0.4-0.2-0.6,0c-1.6,1.5-6.8,6-10.6,9.3c3.8,3.3,8.9,7.8,10.6,9.3c0.2,0.2,0.4,0.2,0.6,0
			c2-2,1.9-2,3.3-3.4c0.5-0.5,1.4-0.3,1.6,0.4C62.8,69.3,63.4,71.3,66.1,81.3"/>
	</g>
</g>
</svg>
