<?xml version="1.0" encoding="utf-8"?>
<!-- Generator: Adobe Illustrator 21.0.2, SVG Export Plug-In . SVG Version: 6.00 Build 0)  -->
<svg version="1.1" id="Layer_1" xmlns="http://www.w3.org/2000/svg" xmlns:xlink="http://www.w3.org/1999/xlink" x="0px" y="0px"
	 viewBox="0 0 410.6 489.7" style="enable-background:new 0 0 410.6 489.7;" xml:space="preserve">
<style type="text/css">
	.st0{fill:url(#SVGID_1_);}
	.st1{fill:#E7C223;}
	.st2{fill:#981D97;}
	.st3{fill:url(#SVGID_2_);}
	.st4{fill:#FFFFFF;}
</style>
<g>
	<linearGradient id="SVGID_1_" gradientUnits="userSpaceOnUse" x1="48.4991" y1="103.2106" x2="660.3319" y2="-24.1993">
		<stop  offset="0" style="stop-color:#0072CE"/>
		<stop  offset="1" style="stop-color:#00B5EC"/>
	</linearGradient>
	<path class="st0" d="M32.1,141.1h27.2l9.5,10.1c0,0,0,0,0.1,0.1c0,0,0,0,0,0c0,0,0.1,0.1,0.1,0.1c0,0,0,0,0,0c0,0,0.1,0,0.1,0.1
		c0,0,0,0,0,0c0,0,0,0,0,0c0,0,0.1,0,0.1,0c0,0,0,0,0,0c0,0,0.1,0,0.1,0c0,0,0,0,0.1,0c0,0,0.1,0,0.1,0c0,0,0.1,0,0.1,0
		c0,0,0,0,0.1,0c0,0,0.1,0,0.1,0c0,0,0,0,0,0c0,0,0.1,0,0.1,0c0,0,0,0,0,0c0,0,0,0,0,0c0,0,0.1,0,0.1-0.1c0,0,0,0,0,0
		c0,0,0.1-0.1,0.1-0.1c0,0,0,0,0,0c0,0,0,0,0.1-0.1l9.5-10.1H357c0.1,0,0.2,0,0.3,0h12H403h0.1c4.1,0,7.5-3.3,7.5-7.5V7.5
		c0-4.1-3.3-7.5-7.5-7.5H403h-33.7H7.7C3.5,0,0.2,3.3,0.2,7.5v126.1c0,4.1,3.3,7.5,7.5,7.5"/>
	<path class="st1" d="M7.7,318.7h0.2h0.1h0.1h86.7h180.2l11.4,12.2c0,0,0.1,0.1,0.1,0.1c0,0,0,0,0,0c0,0,0.1,0.1,0.2,0.1
		c0,0,0,0,0,0c0.1,0,0.1,0.1,0.2,0.1c0,0,0,0,0,0c0,0,0,0,0,0c0.1,0,0.1,0,0.2,0c0,0,0,0,0.1,0c0.1,0,0.1,0,0.2,0c0,0,0.1,0,0.1,0
		c0,0,0.1,0,0.1,0c0,0,0.1,0,0.1,0c0,0,0.1,0,0.1,0c0.1,0,0.1,0,0.2,0c0,0,0,0,0.1,0c0.1,0,0.1,0,0.2,0c0,0,0,0,0,0c0,0,0,0,0,0
		c0.1,0,0.1,0,0.2-0.1c0,0,0,0,0,0c0.1,0,0.1-0.1,0.2-0.1c0,0,0,0,0,0c0,0,0.1,0,0.1-0.1l11.4-12.2h17.6H174.3H317h15.1h37.1H403
		h0.1c4.1,0,7.5,3.3,7.5,7.5v156.1c0,4.1-3.3,7.5-7.5,7.5H403H218.2H153h31.3h-5.7h-73.8H8.1H7.9H7.8H7.7c-4.1,0-7.5-3.3-7.5-7.5
		l0-108.4v-20.1v-27.7C0.2,322,3.5,318.7,7.7,318.7z"/>
	<path class="st2" d="M81.6,148.8l-0.2,0.2l-11.2,12c0,0-0.1,0.1-0.1,0.1c0,0,0,0,0,0c0,0-0.1,0.1-0.2,0.1c0,0,0,0,0,0
		c-0.1,0-0.1,0.1-0.2,0.1c0,0,0,0,0,0c0,0,0,0,0,0c-0.1,0-0.1,0-0.2,0c0,0,0,0-0.1,0c-0.1,0-0.1,0-0.2,0c0,0-0.1,0-0.1,0
		c0,0-0.1,0-0.1,0c0,0-0.1,0-0.1,0c0,0-0.1,0-0.1,0c-0.1,0-0.1,0-0.2,0c0,0,0,0-0.1,0c-0.1,0-0.1,0-0.2,0c0,0,0,0,0,0c0,0,0,0,0,0
		c-0.1,0-0.1,0-0.2-0.1c0,0,0,0,0,0c-0.1,0-0.1-0.1-0.2-0.1c0,0,0,0,0,0c0,0-0.1,0-0.1-0.1l-11.2-12l-0.2-0.2H7.5
		c-4.1,0-7.5,3.3-7.5,7.5V243v39.4c0,0.6,0.1,1.1,0.2,1.7v19.5c0,4.1,3.3,7.5,7.5,7.5l269.5,0l9.3,9.9c0,0,0,0,0.1,0.1c0,0,0,0,0,0
		c0,0,0.1,0.1,0.1,0.1c0,0,0,0,0,0c0,0,0.1,0,0.1,0.1c0,0,0,0,0,0c0,0,0,0,0,0c0,0,0.1,0,0.1,0c0,0,0,0,0,0c0,0,0.1,0,0.1,0
		c0,0,0,0,0.1,0c0,0,0.1,0,0.1,0c0,0,0.1,0,0.1,0c0,0,0,0,0.1,0c0,0,0.1,0,0.1,0c0,0,0,0,0,0c0,0,0.1,0,0.1,0c0,0,0,0,0,0
		c0,0,0,0,0,0c0,0,0.1,0,0.1-0.1c0,0,0,0,0,0c0,0,0.1-0.1,0.1-0.1c0,0,0,0,0,0c0,0,0,0,0.1-0.1l9.3-9.9l105.5,0h0.1
		c4.1,0,7.5-3.3,7.5-7.5V156.5c0-2.6-1.3-4.9-3.4-6.2c-1.2-0.9-2.7-1.4-4.3-1.4H81.6z"/>
	<g>
		<g>
			<linearGradient id="SVGID_2_" gradientUnits="userSpaceOnUse" x1="237.8406" y1="141.0789" x2="237.8406" y2="141.0789">
				<stop  offset="0" style="stop-color:#0072CE"/>
				<stop  offset="1" style="stop-color:#00B5EC"/>
			</linearGradient>
			<path class="st3" d="M237.8,141.1"/>
		</g>
		<g>
			<g>
				<path class="st4" d="M15.5,250.3v-28.6h19.6v4.8H21.3v6.8h12v4.8h-12v12.2H15.5z"/>
				<path class="st4" d="M39.9,250.3v-28.6h5.5v28.6H39.9z"/>
				<path class="st4" d="M64.6,250.3v-3.1c-0.8,1.1-1.7,2-3,2.6s-2.5,1-3.9,1c-1.4,0-2.6-0.3-3.8-0.9s-1.9-1.5-2.4-2.6
					s-0.7-2.6-0.7-4.6v-13.1h5.5v9.5c0,2.9,0.1,4.7,0.3,5.4s0.6,1.2,1.1,1.6s1.2,0.6,2,0.6c0.9,0,1.8-0.3,2.5-0.8s1.2-1.2,1.5-1.9
					s0.4-2.6,0.4-5.6v-8.8h5.5v20.7H64.6z"/>
				<path class="st4" d="M87.4,243.7l5.5,0.9c-0.7,2-1.8,3.5-3.3,4.6s-3.4,1.6-5.7,1.6c-3.6,0-6.3-1.2-8-3.5
					c-1.4-1.9-2.1-4.3-2.1-7.1c0-3.4,0.9-6.1,2.7-8.1c1.8-1.9,4.1-2.9,6.8-2.9c3.1,0,5.5,1,7.3,3.1c1.8,2,2.6,5.2,2.6,9.4H79.4
					c0,1.6,0.5,2.9,1.3,3.8s1.9,1.4,3.2,1.4c0.9,0,1.6-0.2,2.2-0.7S87.1,244.8,87.4,243.7z M87.7,238.2c0-1.6-0.4-2.8-1.2-3.6
					c-0.8-0.8-1.7-1.2-2.9-1.2c-1.2,0-2.2,0.4-3,1.3c-0.8,0.9-1.2,2.1-1.2,3.6H87.7z"/>
				<path class="st4" d="M116.5,250.3H111v-10.6c0-2.2-0.1-3.7-0.4-4.3c-0.2-0.7-0.6-1.2-1.1-1.5c-0.5-0.4-1.2-0.5-1.9-0.5
					c-1,0-1.8,0.3-2.6,0.8c-0.8,0.5-1.3,1.2-1.6,2.1s-0.4,2.4-0.4,4.8v9.4h-5.5v-20.7h5.1v3c1.8-2.3,4.1-3.5,6.8-3.5
					c1.2,0,2.3,0.2,3.3,0.7c1,0.4,1.8,1,2.3,1.7c0.5,0.7,0.9,1.4,1.1,2.3s0.3,2.1,0.3,3.7V250.3z"/>
				<path class="st4" d="M131.6,229.6v4.4h-3.8v8.4c0,1.7,0,2.7,0.1,3s0.2,0.5,0.5,0.7s0.6,0.3,0.9,0.3c0.5,0,1.2-0.2,2.2-0.5
					l0.5,4.3c-1.3,0.5-2.7,0.8-4.3,0.8c-1,0-1.9-0.2-2.7-0.5s-1.4-0.8-1.7-1.3s-0.6-1.2-0.8-2.1c-0.1-0.6-0.2-1.9-0.2-3.9v-9h-2.5
					v-4.4h2.5v-4.1l5.5-3.2v7.3H131.6z"/>
			</g>
		</g>
		<rect x="145.1" y="194.5" class="st4" width="2.7" height="88.5"/>
		<g>
			<path class="st4" d="M166.9,265c-0.5,0.4-1,0.7-1.5,0.9c-0.5,0.2-1,0.3-1.5,0.3c-0.9,0-1.6-0.2-2-0.7c-0.5-0.4-0.7-1-0.7-1.7
				c0-0.4,0.1-0.8,0.3-1.1c0.2-0.3,0.4-0.6,0.7-0.8s0.6-0.3,1-0.4c0.3-0.1,0.7-0.1,1.2-0.2c1.1-0.1,1.9-0.3,2.4-0.5
				c0-0.2,0-0.3,0-0.4c0-0.6-0.1-1-0.4-1.2c-0.4-0.3-0.9-0.5-1.6-0.5c-0.6,0-1.1,0.1-1.4,0.3c-0.3,0.2-0.5,0.6-0.7,1.2l-1.3-0.2
				c0.1-0.6,0.3-1,0.6-1.4c0.3-0.4,0.7-0.6,1.2-0.8c0.5-0.2,1.1-0.3,1.8-0.3c0.7,0,1.3,0.1,1.7,0.2c0.4,0.2,0.7,0.4,1,0.6
				s0.3,0.6,0.4,0.9c0,0.2,0.1,0.7,0.1,1.3v1.8c0,1.3,0,2.1,0.1,2.4s0.2,0.7,0.3,1h-1.4C167.1,265.7,167,265.3,166.9,265z
				 M166.8,261.9c-0.5,0.2-1.2,0.4-2.2,0.5c-0.6,0.1-1,0.2-1.2,0.3s-0.4,0.2-0.5,0.4c-0.1,0.2-0.2,0.4-0.2,0.7
				c0,0.4,0.1,0.7,0.4,0.9c0.3,0.2,0.7,0.4,1.2,0.4c0.5,0,1-0.1,1.4-0.3c0.4-0.2,0.7-0.5,0.9-0.9c0.1-0.3,0.2-0.8,0.2-1.4V261.9z"/>
			<path class="st4" d="M170.3,266v-8.1h1.2v1.1c0.6-0.9,1.5-1.3,2.6-1.3c0.5,0,0.9,0.1,1.3,0.3c0.4,0.2,0.7,0.4,0.9,0.7
				s0.3,0.6,0.4,1c0.1,0.3,0.1,0.7,0.1,1.3v5h-1.4V261c0-0.6-0.1-1-0.2-1.3s-0.3-0.5-0.6-0.7s-0.6-0.2-1-0.2c-0.6,0-1.1,0.2-1.5,0.6
				c-0.4,0.4-0.6,1.1-0.6,2.1v4.4H170.3z"/>
			<path class="st4" d="M183.3,256.4v-1.6h1.4v1.6H183.3z M183.3,266v-8.1h1.4v8.1H183.3z"/>
			<path class="st4" d="M186.8,266v-8.1h1.2v1.1c0.6-0.9,1.5-1.3,2.6-1.3c0.5,0,0.9,0.1,1.3,0.3c0.4,0.2,0.7,0.4,0.9,0.7
				s0.3,0.6,0.4,1c0.1,0.3,0.1,0.7,0.1,1.3v5H192V261c0-0.6-0.1-1-0.2-1.3s-0.3-0.5-0.6-0.7s-0.6-0.2-1-0.2c-0.6,0-1.1,0.2-1.5,0.6
				c-0.4,0.4-0.6,1.1-0.6,2.1v4.4H186.8z"/>
			<path class="st4" d="M200.7,263l1.3,0.2c-0.1,0.9-0.5,1.7-1.1,2.2s-1.4,0.8-2.2,0.8c-1.1,0-2-0.4-2.7-1.1c-0.7-0.7-1-1.8-1-3.1
				c0-0.9,0.1-1.6,0.4-2.3c0.3-0.7,0.7-1.1,1.3-1.5c0.6-0.3,1.2-0.5,1.9-0.5c0.9,0,1.6,0.2,2.2,0.7c0.6,0.4,0.9,1.1,1.1,1.9
				l-1.3,0.2c-0.1-0.5-0.4-1-0.7-1.2c-0.3-0.3-0.7-0.4-1.2-0.4c-0.7,0-1.3,0.2-1.7,0.7c-0.4,0.5-0.6,1.3-0.6,2.3
				c0,1.1,0.2,1.9,0.6,2.4c0.4,0.5,1,0.7,1.6,0.7c0.5,0,1-0.2,1.3-0.5C200.4,264.2,200.6,263.7,200.7,263z"/>
			<path class="st4" d="M203.2,266v-8.1h1.2v1.2c0.3-0.6,0.6-1,0.9-1.1s0.6-0.3,0.9-0.3c0.5,0,0.9,0.1,1.4,0.4l-0.5,1.3
				c-0.3-0.2-0.7-0.3-1-0.3c-0.3,0-0.6,0.1-0.8,0.3c-0.2,0.2-0.4,0.4-0.5,0.8c-0.2,0.5-0.2,1-0.2,1.6v4.2H203.2z"/>
			<path class="st4" d="M214,263.4l1.4,0.2c-0.2,0.8-0.6,1.5-1.2,1.9c-0.6,0.5-1.4,0.7-2.3,0.7c-1.2,0-2.1-0.4-2.8-1.1
				c-0.7-0.7-1-1.8-1-3.1c0-1.4,0.3-2.4,1.1-3.2c0.7-0.8,1.6-1.1,2.7-1.1c1.1,0,2,0.4,2.6,1.1c0.7,0.7,1,1.8,1,3.1
				c0,0.1,0,0.2,0,0.4h-6c0.1,0.9,0.3,1.6,0.8,2c0.5,0.5,1,0.7,1.7,0.7c0.5,0,0.9-0.1,1.3-0.4S213.8,263.9,214,263.4z M209.5,261.1
				h4.5c-0.1-0.7-0.2-1.2-0.5-1.5c-0.4-0.5-1-0.8-1.7-0.8c-0.6,0-1.2,0.2-1.6,0.6S209.5,260.4,209.5,261.1z"/>
			<path class="st4" d="M222.4,265c-0.5,0.4-1,0.7-1.5,0.9c-0.5,0.2-1,0.3-1.5,0.3c-0.9,0-1.6-0.2-2-0.7c-0.5-0.4-0.7-1-0.7-1.7
				c0-0.4,0.1-0.8,0.3-1.1c0.2-0.3,0.4-0.6,0.7-0.8s0.6-0.3,1-0.4c0.3-0.1,0.7-0.1,1.2-0.2c1.1-0.1,1.9-0.3,2.4-0.5
				c0-0.2,0-0.3,0-0.4c0-0.6-0.1-1-0.4-1.2c-0.4-0.3-0.9-0.5-1.6-0.5c-0.6,0-1.1,0.1-1.4,0.3c-0.3,0.2-0.5,0.6-0.7,1.2l-1.3-0.2
				c0.1-0.6,0.3-1,0.6-1.4c0.3-0.4,0.7-0.6,1.2-0.8c0.5-0.2,1.1-0.3,1.8-0.3c0.7,0,1.3,0.1,1.7,0.2c0.4,0.2,0.7,0.4,1,0.6
				s0.3,0.6,0.4,0.9c0,0.2,0.1,0.7,0.1,1.3v1.8c0,1.3,0,2.1,0.1,2.4s0.2,0.7,0.3,1h-1.4C222.5,265.7,222.4,265.3,222.4,265z
				 M222.3,261.9c-0.5,0.2-1.2,0.4-2.2,0.5c-0.6,0.1-1,0.2-1.2,0.3s-0.4,0.2-0.5,0.4c-0.1,0.2-0.2,0.4-0.2,0.7
				c0,0.4,0.1,0.7,0.4,0.9c0.3,0.2,0.7,0.4,1.2,0.4c0.5,0,1-0.1,1.4-0.3c0.4-0.2,0.7-0.5,0.9-0.9c0.1-0.3,0.2-0.8,0.2-1.4V261.9z"/>
			<path class="st4" d="M225.2,263.5l1.4-0.2c0.1,0.5,0.3,1,0.6,1.2s0.8,0.4,1.5,0.4c0.6,0,1.1-0.1,1.4-0.4c0.3-0.3,0.5-0.6,0.5-0.9
				c0-0.3-0.1-0.6-0.4-0.7c-0.2-0.1-0.7-0.3-1.4-0.5c-1-0.3-1.7-0.5-2.1-0.7c-0.4-0.2-0.7-0.4-0.9-0.8c-0.2-0.3-0.3-0.7-0.3-1.1
				c0-0.4,0.1-0.7,0.2-1c0.2-0.3,0.4-0.6,0.7-0.8c0.2-0.2,0.5-0.3,0.9-0.4c0.4-0.1,0.8-0.2,1.2-0.2c0.6,0,1.2,0.1,1.7,0.3
				s0.8,0.4,1.1,0.7c0.2,0.3,0.4,0.7,0.5,1.3l-1.3,0.2c-0.1-0.4-0.2-0.7-0.5-1s-0.7-0.4-1.2-0.4c-0.6,0-1.1,0.1-1.3,0.3
				c-0.3,0.2-0.4,0.5-0.4,0.7c0,0.2,0.1,0.3,0.2,0.5c0.1,0.1,0.3,0.3,0.5,0.4c0.1,0.1,0.5,0.2,1.2,0.4c1,0.3,1.6,0.5,2,0.6
				c0.4,0.2,0.7,0.4,0.9,0.7c0.2,0.3,0.3,0.7,0.3,1.2c0,0.5-0.1,0.9-0.4,1.3c-0.3,0.4-0.7,0.7-1.2,0.9c-0.5,0.2-1.1,0.3-1.7,0.3
				c-1.1,0-1.9-0.2-2.4-0.7S225.4,264.4,225.2,263.5z"/>
			<path class="st4" d="M239.1,263.4l1.4,0.2c-0.2,0.8-0.6,1.5-1.2,1.9c-0.6,0.5-1.4,0.7-2.3,0.7c-1.2,0-2.1-0.4-2.8-1.1
				c-0.7-0.7-1-1.8-1-3.1c0-1.4,0.3-2.4,1.1-3.2c0.7-0.8,1.6-1.1,2.7-1.1c1.1,0,2,0.4,2.6,1.1c0.7,0.7,1,1.8,1,3.1
				c0,0.1,0,0.2,0,0.4h-6c0.1,0.9,0.3,1.6,0.8,2c0.5,0.5,1,0.7,1.7,0.7c0.5,0,0.9-0.1,1.3-0.4S238.9,263.9,239.1,263.4z
				 M234.6,261.1h4.5c-0.1-0.7-0.2-1.2-0.5-1.5c-0.4-0.5-1-0.8-1.7-0.8c-0.6,0-1.2,0.2-1.6,0.6S234.7,260.4,234.6,261.1z"/>
			<path class="st4" d="M246.1,261.9c0-1.5,0.4-2.6,1.2-3.3c0.7-0.6,1.5-0.9,2.5-0.9c1.1,0,2,0.4,2.7,1.1c0.7,0.7,1.1,1.7,1.1,3
				c0,1-0.2,1.9-0.5,2.5c-0.3,0.6-0.8,1.1-1.4,1.4c-0.6,0.3-1.2,0.5-2,0.5c-1.1,0-2-0.4-2.7-1.1
				C246.4,264.3,246.1,263.3,246.1,261.9z M247.5,261.9c0,1,0.2,1.8,0.7,2.3c0.5,0.5,1,0.8,1.7,0.8c0.7,0,1.2-0.3,1.7-0.8
				c0.5-0.5,0.7-1.3,0.7-2.4c0-1-0.2-1.8-0.7-2.3c-0.5-0.5-1-0.8-1.7-0.8c-0.7,0-1.3,0.3-1.7,0.8
				C247.7,260.1,247.5,260.9,247.5,261.9z"/>
			<path class="st4" d="M255.6,266v-7h-1.2v-1.1h1.2V257c0-0.5,0-0.9,0.1-1.2c0.1-0.4,0.4-0.6,0.7-0.9c0.3-0.2,0.8-0.3,1.4-0.3
				c0.4,0,0.8,0,1.3,0.1l-0.2,1.2c-0.3-0.1-0.6-0.1-0.8-0.1c-0.4,0-0.7,0.1-0.9,0.3c-0.2,0.2-0.3,0.5-0.3,1v0.7h1.6v1.1H257v7H255.6
				z"/>
			<path class="st4" d="M263.6,263l1.4-0.2c0.2,0.8,0.4,1.3,0.8,1.7c0.4,0.3,0.8,0.5,1.4,0.5c0.6,0,1.2-0.2,1.6-0.7s0.7-1,0.7-1.7
				c0-0.6-0.2-1.1-0.6-1.6c-0.4-0.4-0.9-0.6-1.6-0.6c-0.3,0-0.6,0.1-1,0.2l0.2-1.2c0.1,0,0.2,0,0.2,0c0.6,0,1.1-0.2,1.6-0.5
				s0.7-0.8,0.7-1.4c0-0.5-0.2-0.9-0.5-1.2s-0.8-0.5-1.3-0.5c-0.5,0-1,0.2-1.3,0.5s-0.6,0.8-0.7,1.5l-1.4-0.2
				c0.2-0.9,0.5-1.6,1.1-2.1c0.6-0.5,1.3-0.8,2.2-0.8c0.6,0,1.2,0.1,1.7,0.4s0.9,0.6,1.2,1.1c0.3,0.5,0.4,0.9,0.4,1.4
				c0,0.5-0.1,0.9-0.4,1.3c-0.3,0.4-0.6,0.7-1.1,0.9c0.7,0.2,1.2,0.5,1.5,0.9s0.5,1.1,0.5,1.8c0,1-0.4,1.8-1.1,2.5
				c-0.7,0.7-1.6,1-2.7,1c-1,0-1.8-0.3-2.4-0.9S263.6,263.9,263.6,263z"/>
			<path class="st4" d="M272.2,263l1.4-0.1c0.1,0.7,0.4,1.2,0.7,1.6c0.4,0.4,0.9,0.5,1.4,0.5c0.7,0,1.2-0.2,1.7-0.7s0.7-1.2,0.7-2
				c0-0.8-0.2-1.4-0.7-1.9c-0.4-0.5-1-0.7-1.7-0.7c-0.4,0-0.8,0.1-1.2,0.3c-0.4,0.2-0.6,0.5-0.8,0.8l-1.3-0.2l1.1-5.7h5.6v1.3h-4.5
				l-0.6,3c0.7-0.5,1.4-0.7,2.1-0.7c1,0,1.8,0.3,2.5,1s1,1.5,1,2.6c0,1-0.3,1.9-0.9,2.6c-0.7,0.9-1.7,1.4-2.9,1.4
				c-1,0-1.8-0.3-2.5-0.9C272.7,264.7,272.3,264,272.2,263z"/>
			<path class="st4" d="M281.2,257.5c0-0.8,0.2-1.5,0.6-2c0.4-0.6,1-0.8,1.7-0.8c0.7,0,1.3,0.2,1.7,0.8c0.5,0.5,0.7,1.2,0.7,2.2
				c0,0.9-0.2,1.7-0.7,2.2c-0.5,0.5-1,0.8-1.7,0.8c-0.7,0-1.2-0.3-1.7-0.8C281.4,259.2,281.2,258.5,281.2,257.5z M283.5,255.5
				c-0.3,0-0.6,0.1-0.8,0.4c-0.2,0.3-0.3,0.8-0.3,1.6c0,0.7,0.1,1.2,0.3,1.5s0.5,0.4,0.8,0.4c0.3,0,0.6-0.1,0.9-0.4
				c0.2-0.3,0.3-0.8,0.3-1.6c0-0.7-0.1-1.2-0.3-1.5C284.2,255.7,283.9,255.5,283.5,255.5z M283.5,266.4l6.1-11.8h1.1l-6.1,11.8
				H283.5z M288.4,263.3c0-0.8,0.2-1.5,0.6-2c0.4-0.6,1-0.8,1.8-0.8c0.7,0,1.3,0.2,1.7,0.8c0.5,0.5,0.7,1.2,0.7,2.2
				c0,0.9-0.2,1.7-0.7,2.2c-0.5,0.5-1,0.8-1.7,0.8c-0.7,0-1.2-0.3-1.7-0.8S288.4,264.3,288.4,263.3z M290.8,261.4
				c-0.3,0-0.6,0.1-0.9,0.4c-0.2,0.3-0.3,0.8-0.3,1.6c0,0.7,0.1,1.2,0.3,1.5c0.2,0.3,0.5,0.4,0.8,0.4c0.4,0,0.6-0.1,0.9-0.4
				c0.2-0.3,0.3-0.8,0.3-1.6c0-0.7-0.1-1.2-0.3-1.5S291.1,261.4,290.8,261.4z"/>
			<path class="st4" d="M307.8,259.4l-2.4,0.4c-0.1-0.5-0.3-0.8-0.6-1.1c-0.3-0.2-0.7-0.4-1.1-0.4c-0.6,0-1.1,0.2-1.5,0.6
				c-0.4,0.4-0.5,1.1-0.5,2.1c0,1.1,0.2,1.9,0.6,2.3c0.4,0.5,0.9,0.7,1.5,0.7c0.5,0,0.8-0.1,1.1-0.4s0.5-0.7,0.6-1.4l2.4,0.4
				c-0.3,1.1-0.7,1.9-1.4,2.5c-0.7,0.6-1.7,0.8-2.9,0.8c-1.4,0-2.4-0.4-3.3-1.3c-0.8-0.9-1.2-2-1.2-3.6c0-1.5,0.4-2.7,1.2-3.6
				c0.8-0.9,1.9-1.3,3.3-1.3c1.1,0,2,0.2,2.7,0.7C307.1,257.7,307.5,258.4,307.8,259.4z"/>
			<path class="st4" d="M309.1,261.2c0-0.8,0.2-1.6,0.6-2.4c0.4-0.8,1-1.3,1.7-1.8c0.7-0.4,1.6-0.6,2.5-0.6c1.4,0,2.6,0.5,3.5,1.4
				c0.9,0.9,1.3,2.1,1.3,3.5c0,1.4-0.5,2.6-1.4,3.5c-0.9,0.9-2.1,1.4-3.4,1.4c-0.9,0-1.7-0.2-2.4-0.6c-0.8-0.4-1.4-0.9-1.8-1.7
				C309.3,263.1,309.1,262.2,309.1,261.2z M311.7,261.3c0,0.9,0.2,1.6,0.7,2.1s1,0.7,1.6,0.7c0.6,0,1.2-0.2,1.6-0.7
				c0.4-0.5,0.7-1.2,0.7-2.1c0-0.9-0.2-1.6-0.7-2.1c-0.4-0.5-1-0.7-1.6-0.7c-0.6,0-1.2,0.2-1.6,0.7S311.7,260.4,311.7,261.3z"/>
			<path class="st4" d="M320.5,256.7h2.3v1.3c0.8-1,1.8-1.5,2.9-1.5c0.6,0,1.1,0.1,1.5,0.4c0.4,0.2,0.8,0.6,1.1,1.1
				c0.4-0.5,0.8-0.9,1.3-1.1c0.5-0.2,1-0.4,1.5-0.4c0.7,0,1.3,0.1,1.7,0.4s0.8,0.7,1.1,1.2c0.2,0.4,0.3,1,0.3,1.9v5.9h-2.5v-5.3
				c0-0.9-0.1-1.5-0.3-1.8c-0.2-0.4-0.6-0.5-1.1-0.5c-0.3,0-0.7,0.1-1,0.3c-0.3,0.2-0.5,0.5-0.7,0.9c-0.1,0.4-0.2,1-0.2,1.9v4.5
				h-2.5v-5.1c0-0.9,0-1.5-0.1-1.8c-0.1-0.3-0.2-0.5-0.4-0.6c-0.2-0.1-0.4-0.2-0.7-0.2c-0.4,0-0.7,0.1-1,0.3
				c-0.3,0.2-0.5,0.5-0.7,0.9c-0.1,0.4-0.2,1-0.2,1.9v4.5h-2.5V256.7z"/>
			<path class="st4" d="M336.5,256.7h2.3v1.4c0.3-0.5,0.7-0.8,1.2-1.1s1.1-0.4,1.7-0.4c1.1,0,2,0.4,2.7,1.3s1.1,2,1.1,3.5
				c0,1.6-0.4,2.8-1.1,3.6c-0.8,0.9-1.7,1.3-2.8,1.3c-0.5,0-1-0.1-1.4-0.3c-0.4-0.2-0.9-0.6-1.3-1.1v4.7h-2.5V256.7z M339,261.1
				c0,1,0.2,1.8,0.6,2.3c0.4,0.5,0.9,0.7,1.5,0.7c0.6,0,1-0.2,1.4-0.7c0.4-0.5,0.6-1.2,0.6-2.3c0-1-0.2-1.7-0.6-2.2
				c-0.4-0.5-0.9-0.7-1.5-0.7c-0.6,0-1.1,0.2-1.5,0.7C339.2,259.5,339,260.2,339,261.1z"/>
			<path class="st4" d="M349.4,259.5l-2.2-0.4c0.2-0.9,0.7-1.6,1.3-2c0.6-0.4,1.5-0.6,2.7-0.6c1.1,0,1.9,0.1,2.5,0.4s0.9,0.6,1.1,1
				c0.2,0.4,0.3,1.1,0.3,2.2l0,2.9c0,0.8,0,1.4,0.1,1.8c0.1,0.4,0.2,0.8,0.4,1.2h-2.4c-0.1-0.2-0.1-0.4-0.2-0.7
				c0-0.1-0.1-0.2-0.1-0.3c-0.4,0.4-0.9,0.7-1.3,0.9c-0.5,0.2-1,0.3-1.5,0.3c-1,0-1.7-0.3-2.3-0.8s-0.8-1.2-0.8-2
				c0-0.5,0.1-1,0.4-1.4c0.3-0.4,0.6-0.7,1.1-0.9c0.5-0.2,1.1-0.4,2-0.6c1.2-0.2,1.9-0.4,2.4-0.6v-0.2c0-0.5-0.1-0.8-0.4-1
				s-0.7-0.3-1.3-0.3c-0.4,0-0.8,0.1-1,0.3C349.7,258.8,349.5,259.1,349.4,259.5z M352.7,261.5c-0.3,0.1-0.8,0.2-1.5,0.4
				s-1.1,0.3-1.3,0.4c-0.3,0.2-0.5,0.5-0.5,0.9c0,0.3,0.1,0.6,0.4,0.9s0.6,0.4,1,0.4c0.4,0,0.9-0.1,1.3-0.4c0.3-0.2,0.5-0.5,0.6-0.8
				c0.1-0.2,0.1-0.6,0.1-1.2V261.5z"/>
			<path class="st4" d="M359.9,266h-2.5v-9.3h2.3v1.3c0.4-0.6,0.7-1,1.1-1.2s0.7-0.3,1.1-0.3c0.6,0,1.1,0.2,1.6,0.5l-0.8,2.1
				c-0.4-0.3-0.8-0.4-1.2-0.4c-0.3,0-0.6,0.1-0.9,0.3s-0.4,0.5-0.6,1c-0.1,0.5-0.2,1.5-0.2,3.1V266z"/>
			<path class="st4" d="M369.9,263l2.5,0.4c-0.3,0.9-0.8,1.6-1.5,2.1c-0.7,0.5-1.5,0.7-2.6,0.7c-1.6,0-2.8-0.5-3.6-1.6
				c-0.6-0.8-0.9-1.9-0.9-3.2c0-1.5,0.4-2.7,1.2-3.6c0.8-0.9,1.8-1.3,3.1-1.3c1.4,0,2.5,0.5,3.3,1.4c0.8,0.9,1.2,2.3,1.1,4.2h-6.2
				c0,0.7,0.2,1.3,0.6,1.7c0.4,0.4,0.9,0.6,1.4,0.6c0.4,0,0.7-0.1,1-0.3C369.6,263.8,369.8,263.5,369.9,263z M370,260.5
				c0-0.7-0.2-1.3-0.6-1.6c-0.4-0.4-0.8-0.6-1.3-0.6c-0.5,0-1,0.2-1.3,0.6c-0.4,0.4-0.5,0.9-0.5,1.6H370z"/>
			<path class="st4" d="M383,266h-2.3v-1.4c-0.4,0.5-0.8,0.9-1.3,1.2s-1,0.4-1.6,0.4c-1.1,0-2-0.4-2.7-1.3c-0.8-0.9-1.1-2.1-1.1-3.6
				c0-1.6,0.4-2.8,1.1-3.6s1.7-1.2,2.8-1.2c1,0,1.9,0.4,2.7,1.3v-4.6h2.5V266z M376.4,261.1c0,1,0.1,1.7,0.4,2.2c0.4,0.6,1,1,1.7,1
				c0.6,0,1-0.2,1.4-0.7c0.4-0.5,0.6-1.2,0.6-2.2c0-1.1-0.2-1.8-0.6-2.3c-0.4-0.5-0.9-0.7-1.5-0.7c-0.6,0-1.1,0.2-1.5,0.7
				C376.6,259.5,376.4,260.2,376.4,261.1z"/>
			<path class="st4" d="M166.2,276.7v2h-1.7v3.7c0,0.8,0,1.2,0,1.3c0,0.1,0.1,0.2,0.2,0.3c0.1,0.1,0.3,0.1,0.4,0.1
				c0.2,0,0.6-0.1,1-0.2l0.2,1.9c-0.6,0.2-1.2,0.4-1.9,0.4c-0.4,0-0.8-0.1-1.2-0.2c-0.4-0.1-0.6-0.3-0.8-0.6c-0.2-0.2-0.3-0.6-0.3-1
				c-0.1-0.3-0.1-0.9-0.1-1.7v-4.1h-1.1v-2h1.1v-1.8l2.5-1.4v3.3H166.2z"/>
			<path class="st4" d="M167.3,281.2c0-0.8,0.2-1.6,0.6-2.4c0.4-0.8,1-1.3,1.7-1.8c0.7-0.4,1.6-0.6,2.5-0.6c1.4,0,2.6,0.5,3.5,1.4
				c0.9,0.9,1.3,2.1,1.3,3.5c0,1.4-0.5,2.6-1.4,3.5c-0.9,0.9-2.1,1.4-3.4,1.4c-0.9,0-1.7-0.2-2.4-0.6c-0.8-0.4-1.4-0.9-1.8-1.7
				C167.5,283.1,167.3,282.2,167.3,281.2z M169.8,281.3c0,0.9,0.2,1.6,0.7,2.1s1,0.7,1.6,0.7c0.6,0,1.2-0.2,1.6-0.7
				c0.4-0.5,0.7-1.2,0.7-2.1c0-0.9-0.2-1.6-0.7-2.1c-0.4-0.5-1-0.7-1.6-0.7c-0.6,0-1.2,0.2-1.6,0.7S169.8,280.4,169.8,281.3z"/>
			<path class="st4" d="M188.1,276.7v2h-1.7v3.7c0,0.8,0,1.2,0,1.3c0,0.1,0.1,0.2,0.2,0.3c0.1,0.1,0.3,0.1,0.4,0.1
				c0.2,0,0.6-0.1,1-0.2l0.2,1.9c-0.6,0.2-1.2,0.4-1.9,0.4c-0.4,0-0.8-0.1-1.2-0.2c-0.4-0.1-0.6-0.3-0.8-0.6c-0.2-0.2-0.3-0.6-0.3-1
				c-0.1-0.3-0.1-0.9-0.1-1.7v-4.1h-1.1v-2h1.1v-1.8l2.5-1.4v3.3H188.1z"/>
			<path class="st4" d="M192.2,273.1v4.7c0.8-0.9,1.7-1.4,2.8-1.4c0.6,0,1.1,0.1,1.5,0.3c0.5,0.2,0.8,0.5,1,0.8
				c0.2,0.3,0.4,0.7,0.5,1.1c0.1,0.4,0.1,1,0.1,1.8v5.5h-2.5V281c0-1,0-1.6-0.1-1.9c-0.1-0.3-0.3-0.5-0.5-0.6
				c-0.2-0.2-0.5-0.2-0.9-0.2c-0.4,0-0.8,0.1-1.1,0.3c-0.3,0.2-0.6,0.5-0.7,0.9c-0.1,0.4-0.2,1-0.2,1.8v4.7h-2.5v-12.8H192.2z"/>
			<path class="st4" d="M206.1,283l2.5,0.4c-0.3,0.9-0.8,1.6-1.5,2.1c-0.7,0.5-1.5,0.7-2.6,0.7c-1.6,0-2.8-0.5-3.6-1.6
				c-0.6-0.8-0.9-1.9-0.9-3.2c0-1.5,0.4-2.7,1.2-3.6c0.8-0.9,1.8-1.3,3.1-1.3c1.4,0,2.5,0.5,3.3,1.4c0.8,0.9,1.2,2.3,1.1,4.2h-6.2
				c0,0.7,0.2,1.3,0.6,1.7c0.4,0.4,0.9,0.6,1.4,0.6c0.4,0,0.7-0.1,1-0.3C205.8,283.8,206,283.5,206.1,283z M206.3,280.5
				c0-0.7-0.2-1.3-0.6-1.6c-0.4-0.4-0.8-0.6-1.3-0.6c-0.5,0-1,0.2-1.3,0.6c-0.4,0.4-0.5,0.9-0.5,1.6H206.3z"/>
			<path class="st4" d="M214.8,283.3l2.5-0.4c0.1,0.5,0.3,0.8,0.6,1.1s0.8,0.4,1.3,0.4c0.6,0,1.1-0.1,1.4-0.4
				c0.2-0.2,0.3-0.4,0.3-0.7c0-0.2-0.1-0.3-0.2-0.5c-0.1-0.1-0.4-0.2-0.8-0.3c-2-0.4-3.2-0.8-3.8-1.2c-0.7-0.5-1.1-1.2-1.1-2.1
				c0-0.8,0.3-1.5,1-2c0.6-0.5,1.6-0.8,3-0.8c1.3,0,2.2,0.2,2.8,0.6c0.6,0.4,1,1,1.3,1.8l-2.3,0.4c-0.1-0.4-0.3-0.6-0.6-0.8
				c-0.3-0.2-0.7-0.3-1.2-0.3c-0.6,0-1.1,0.1-1.4,0.3c-0.2,0.1-0.3,0.3-0.3,0.5c0,0.2,0.1,0.3,0.2,0.4c0.2,0.2,1,0.4,2.3,0.7
				s2.2,0.7,2.7,1.1c0.5,0.4,0.8,1,0.8,1.8c0,0.9-0.4,1.6-1.1,2.2c-0.7,0.6-1.8,0.9-3.2,0.9c-1.3,0-2.3-0.3-3-0.8
				S215.1,284.2,214.8,283.3z"/>
			<path class="st4" d="M227.5,279.5l-2.2-0.4c0.2-0.9,0.7-1.6,1.3-2c0.6-0.4,1.5-0.6,2.7-0.6c1.1,0,1.9,0.1,2.5,0.4s0.9,0.6,1.1,1
				c0.2,0.4,0.3,1.1,0.3,2.2l0,2.9c0,0.8,0,1.4,0.1,1.8c0.1,0.4,0.2,0.8,0.4,1.2h-2.4c-0.1-0.2-0.1-0.4-0.2-0.7
				c0-0.1-0.1-0.2-0.1-0.3c-0.4,0.4-0.9,0.7-1.3,0.9c-0.5,0.2-1,0.3-1.5,0.3c-1,0-1.7-0.3-2.3-0.8s-0.8-1.2-0.8-2
				c0-0.5,0.1-1,0.4-1.4c0.3-0.4,0.6-0.7,1.1-0.9c0.5-0.2,1.1-0.4,2-0.6c1.2-0.2,1.9-0.4,2.4-0.6v-0.2c0-0.5-0.1-0.8-0.4-1
				s-0.7-0.3-1.3-0.3c-0.4,0-0.8,0.1-1,0.3C227.9,278.8,227.7,279.1,227.5,279.5z M230.8,281.5c-0.3,0.1-0.8,0.2-1.5,0.4
				s-1.1,0.3-1.3,0.4c-0.3,0.2-0.5,0.5-0.5,0.9c0,0.3,0.1,0.6,0.4,0.9s0.6,0.4,1,0.4c0.4,0,0.9-0.1,1.3-0.4c0.3-0.2,0.5-0.5,0.6-0.8
				c0.1-0.2,0.1-0.6,0.1-1.2V281.5z"/>
			<path class="st4" d="M235.5,276.7h2.3v1.3c0.8-1,1.8-1.5,2.9-1.5c0.6,0,1.1,0.1,1.5,0.4c0.4,0.2,0.8,0.6,1.1,1.1
				c0.4-0.5,0.8-0.9,1.3-1.1c0.5-0.2,1-0.4,1.5-0.4c0.7,0,1.3,0.1,1.7,0.4s0.8,0.7,1.1,1.2c0.2,0.4,0.3,1,0.3,1.9v5.9h-2.5v-5.3
				c0-0.9-0.1-1.5-0.3-1.8c-0.2-0.4-0.6-0.5-1.1-0.5c-0.3,0-0.7,0.1-1,0.3c-0.3,0.2-0.5,0.5-0.7,0.9c-0.1,0.4-0.2,1-0.2,1.9v4.5
				h-2.5v-5.1c0-0.9,0-1.5-0.1-1.8c-0.1-0.3-0.2-0.5-0.4-0.6c-0.2-0.1-0.4-0.2-0.7-0.2c-0.4,0-0.7,0.1-1,0.3
				c-0.3,0.2-0.5,0.5-0.7,0.9c-0.1,0.4-0.2,1-0.2,1.9v4.5h-2.5V276.7z"/>
			<path class="st4" d="M257,283l2.5,0.4c-0.3,0.9-0.8,1.6-1.5,2.1c-0.7,0.5-1.5,0.7-2.6,0.7c-1.6,0-2.8-0.5-3.6-1.6
				c-0.6-0.8-0.9-1.9-0.9-3.2c0-1.5,0.4-2.7,1.2-3.6c0.8-0.9,1.8-1.3,3.1-1.3c1.4,0,2.5,0.5,3.3,1.4c0.8,0.9,1.2,2.3,1.1,4.2h-6.2
				c0,0.7,0.2,1.3,0.6,1.7c0.4,0.4,0.9,0.6,1.4,0.6c0.4,0,0.7-0.1,1-0.3C256.6,283.8,256.8,283.5,257,283z M257.1,280.5
				c0-0.7-0.2-1.3-0.6-1.6c-0.4-0.4-0.8-0.6-1.3-0.6c-0.5,0-1,0.2-1.3,0.6c-0.4,0.4-0.5,0.9-0.5,1.6H257.1z"/>
			<path class="st4" d="M266.5,276.7h2.3v1.4c0.3-0.5,0.7-0.8,1.2-1.1s1.1-0.4,1.7-0.4c1.1,0,2,0.4,2.7,1.3s1.1,2,1.1,3.5
				c0,1.6-0.4,2.8-1.1,3.6c-0.8,0.9-1.7,1.3-2.8,1.3c-0.5,0-1-0.1-1.4-0.3c-0.4-0.2-0.9-0.6-1.3-1.1v4.7h-2.5V276.7z M268.9,281.1
				c0,1,0.2,1.8,0.6,2.3c0.4,0.5,0.9,0.7,1.5,0.7c0.6,0,1-0.2,1.4-0.7c0.4-0.5,0.6-1.2,0.6-2.3c0-1-0.2-1.7-0.6-2.2
				c-0.4-0.5-0.9-0.7-1.5-0.7c-0.6,0-1.1,0.2-1.5,0.7C269.1,279.5,268.9,280.2,268.9,281.1z"/>
			<path class="st4" d="M282.9,283l2.5,0.4c-0.3,0.9-0.8,1.6-1.5,2.1c-0.7,0.5-1.5,0.7-2.6,0.7c-1.6,0-2.8-0.5-3.6-1.6
				c-0.6-0.8-0.9-1.9-0.9-3.2c0-1.5,0.4-2.7,1.2-3.6c0.8-0.9,1.8-1.3,3.1-1.3c1.4,0,2.5,0.5,3.3,1.4c0.8,0.9,1.2,2.3,1.1,4.2h-6.2
				c0,0.7,0.2,1.3,0.6,1.7c0.4,0.4,0.9,0.6,1.4,0.6c0.4,0,0.7-0.1,1-0.3C282.5,283.8,282.7,283.5,282.9,283z M283,280.5
				c0-0.7-0.2-1.3-0.6-1.6c-0.4-0.4-0.8-0.6-1.3-0.6c-0.5,0-1,0.2-1.3,0.6c-0.4,0.4-0.5,0.9-0.5,1.6H283z"/>
			<path class="st4" d="M289.8,286h-2.5v-9.3h2.3v1.3c0.4-0.6,0.7-1,1.1-1.2s0.7-0.3,1.1-0.3c0.6,0,1.1,0.2,1.6,0.5l-0.8,2.1
				c-0.4-0.3-0.8-0.4-1.2-0.4c-0.3,0-0.6,0.1-0.9,0.3s-0.4,0.5-0.6,1c-0.1,0.5-0.2,1.5-0.2,3.1V286z"/>
			<path class="st4" d="M294.4,275.4v-2.3h2.5v2.3H294.4z M294.4,286v-9.3h2.5v9.3H294.4z"/>
			<path class="st4" d="M298.9,281.2c0-0.8,0.2-1.6,0.6-2.4c0.4-0.8,1-1.3,1.7-1.8c0.7-0.4,1.6-0.6,2.5-0.6c1.4,0,2.6,0.5,3.5,1.4
				c0.9,0.9,1.3,2.1,1.3,3.5c0,1.4-0.5,2.6-1.4,3.5c-0.9,0.9-2.1,1.4-3.4,1.4c-0.9,0-1.7-0.2-2.4-0.6c-0.8-0.4-1.4-0.9-1.8-1.7
				C299.1,283.1,298.9,282.2,298.9,281.2z M301.4,281.3c0,0.9,0.2,1.6,0.7,2.1s1,0.7,1.6,0.7c0.6,0,1.2-0.2,1.6-0.7
				c0.4-0.5,0.7-1.2,0.7-2.1c0-0.9-0.2-1.6-0.7-2.1c-0.4-0.5-1-0.7-1.6-0.7c-0.6,0-1.2,0.2-1.6,0.7S301.4,280.4,301.4,281.3z"/>
			<path class="st4" d="M318.9,286h-2.3v-1.4c-0.4,0.5-0.8,0.9-1.3,1.2s-1,0.4-1.6,0.4c-1.1,0-2-0.4-2.7-1.3
				c-0.8-0.9-1.1-2.1-1.1-3.6c0-1.6,0.4-2.8,1.1-3.6s1.7-1.2,2.8-1.2c1,0,1.9,0.4,2.7,1.3v-4.6h2.5V286z M312.3,281.1
				c0,1,0.1,1.7,0.4,2.2c0.4,0.6,1,1,1.7,1c0.6,0,1-0.2,1.4-0.7c0.4-0.5,0.6-1.2,0.6-2.2c0-1.1-0.2-1.8-0.6-2.3
				c-0.4-0.5-0.9-0.7-1.5-0.7c-0.6,0-1.1,0.2-1.5,0.7C312.5,279.5,312.3,280.2,312.3,281.1z"/>
			<path class="st4" d="M326.3,286v-12.8h2.5V286H326.3z"/>
			<path class="st4" d="M333.1,279.5l-2.2-0.4c0.2-0.9,0.7-1.6,1.3-2c0.6-0.4,1.5-0.6,2.7-0.6c1.1,0,1.9,0.1,2.5,0.4s0.9,0.6,1.1,1
				c0.2,0.4,0.3,1.1,0.3,2.2l0,2.9c0,0.8,0,1.4,0.1,1.8c0.1,0.4,0.2,0.8,0.4,1.2h-2.4c-0.1-0.2-0.1-0.4-0.2-0.7
				c0-0.1-0.1-0.2-0.1-0.3c-0.4,0.4-0.9,0.7-1.3,0.9c-0.5,0.2-1,0.3-1.5,0.3c-1,0-1.7-0.3-2.3-0.8s-0.8-1.2-0.8-2
				c0-0.5,0.1-1,0.4-1.4c0.3-0.4,0.6-0.7,1.1-0.9c0.5-0.2,1.1-0.4,2-0.6c1.2-0.2,1.9-0.4,2.4-0.6v-0.2c0-0.5-0.1-0.8-0.4-1
				s-0.7-0.3-1.3-0.3c-0.4,0-0.8,0.1-1,0.3C333.5,278.8,333.3,279.1,333.1,279.5z M336.4,281.5c-0.3,0.1-0.8,0.2-1.5,0.4
				s-1.1,0.3-1.3,0.4c-0.3,0.2-0.5,0.5-0.5,0.9c0,0.3,0.1,0.6,0.4,0.9s0.6,0.4,1,0.4c0.4,0,0.9-0.1,1.3-0.4c0.3-0.2,0.5-0.5,0.6-0.8
				c0.1-0.2,0.1-0.6,0.1-1.2V281.5z"/>
			<path class="st4" d="M340.4,283.3l2.5-0.4c0.1,0.5,0.3,0.8,0.6,1.1s0.8,0.4,1.3,0.4c0.6,0,1.1-0.1,1.4-0.4
				c0.2-0.2,0.3-0.4,0.3-0.7c0-0.2-0.1-0.3-0.2-0.5c-0.1-0.1-0.4-0.2-0.8-0.3c-2-0.4-3.2-0.8-3.8-1.2c-0.7-0.5-1.1-1.2-1.1-2.1
				c0-0.8,0.3-1.5,1-2c0.6-0.5,1.6-0.8,3-0.8c1.3,0,2.2,0.2,2.8,0.6c0.6,0.4,1,1,1.3,1.8l-2.3,0.4c-0.1-0.4-0.3-0.6-0.6-0.8
				c-0.3-0.2-0.7-0.3-1.2-0.3c-0.6,0-1.1,0.1-1.4,0.3c-0.2,0.1-0.3,0.3-0.3,0.5c0,0.2,0.1,0.3,0.2,0.4c0.2,0.2,1,0.4,2.3,0.7
				s2.2,0.7,2.7,1.1c0.5,0.4,0.8,1,0.8,1.8c0,0.9-0.4,1.6-1.1,2.2c-0.7,0.6-1.8,0.9-3.2,0.9c-1.3,0-2.3-0.3-3-0.8
				S340.6,284.2,340.4,283.3z"/>
			<path class="st4" d="M355.5,276.7v2h-1.7v3.7c0,0.8,0,1.2,0,1.3c0,0.1,0.1,0.2,0.2,0.3c0.1,0.1,0.3,0.1,0.4,0.1
				c0.2,0,0.6-0.1,1-0.2l0.2,1.9c-0.6,0.2-1.2,0.4-1.9,0.4c-0.4,0-0.8-0.1-1.2-0.2c-0.4-0.1-0.6-0.3-0.8-0.6c-0.2-0.2-0.3-0.6-0.3-1
				c-0.1-0.3-0.1-0.9-0.1-1.7v-4.1h-1.1v-2h1.1v-1.8l2.5-1.4v3.3H355.5z"/>
			<path class="st4" d="M361,276.7h2.6l2.2,6.6l2.2-6.6h2.5l-3.3,8.9l-0.6,1.6c-0.2,0.5-0.4,1-0.6,1.2c-0.2,0.3-0.4,0.5-0.7,0.7
				s-0.6,0.3-0.9,0.4c-0.4,0.1-0.8,0.1-1.3,0.1c-0.5,0-0.9,0-1.4-0.1l-0.2-1.9c0.4,0.1,0.7,0.1,1,0.1c0.6,0,1-0.2,1.3-0.5
				c0.3-0.3,0.5-0.8,0.6-1.3L361,276.7z"/>
			<path class="st4" d="M377.6,283l2.5,0.4c-0.3,0.9-0.8,1.6-1.5,2.1c-0.7,0.5-1.5,0.7-2.6,0.7c-1.6,0-2.8-0.5-3.6-1.6
				c-0.6-0.8-0.9-1.9-0.9-3.2c0-1.5,0.4-2.7,1.2-3.6c0.8-0.9,1.8-1.3,3.1-1.3c1.4,0,2.5,0.5,3.3,1.4c0.8,0.9,1.2,2.3,1.1,4.2H374
				c0,0.7,0.2,1.3,0.6,1.7c0.4,0.4,0.9,0.6,1.4,0.6c0.4,0,0.7-0.1,1-0.3C377.2,283.8,377.4,283.5,377.6,283z M377.7,280.5
				c0-0.7-0.2-1.3-0.6-1.6c-0.4-0.4-0.8-0.6-1.3-0.6c-0.5,0-1,0.2-1.3,0.6c-0.4,0.4-0.5,0.9-0.5,1.6H377.7z"/>
			<path class="st4" d="M384,279.5l-2.2-0.4c0.2-0.9,0.7-1.6,1.3-2c0.6-0.4,1.5-0.6,2.7-0.6c1.1,0,1.9,0.1,2.5,0.4s0.9,0.6,1.1,1
				c0.2,0.4,0.3,1.1,0.3,2.2l0,2.9c0,0.8,0,1.4,0.1,1.8c0.1,0.4,0.2,0.8,0.4,1.2h-2.4c-0.1-0.2-0.1-0.4-0.2-0.7
				c0-0.1-0.1-0.2-0.1-0.3c-0.4,0.4-0.9,0.7-1.3,0.9c-0.5,0.2-1,0.3-1.5,0.3c-1,0-1.7-0.3-2.3-0.8s-0.8-1.2-0.8-2
				c0-0.5,0.1-1,0.4-1.4c0.3-0.4,0.6-0.7,1.1-0.9c0.5-0.2,1.1-0.4,2-0.6c1.2-0.2,1.9-0.4,2.4-0.6v-0.2c0-0.5-0.1-0.8-0.4-1
				s-0.7-0.3-1.3-0.3c-0.4,0-0.8,0.1-1,0.3C384.3,278.8,384.1,279.1,384,279.5z M387.3,281.5c-0.3,0.1-0.8,0.2-1.5,0.4
				s-1.1,0.3-1.3,0.4c-0.3,0.2-0.5,0.5-0.5,0.9c0,0.3,0.1,0.6,0.4,0.9s0.6,0.4,1,0.4c0.4,0,0.9-0.1,1.3-0.4c0.3-0.2,0.5-0.5,0.6-0.8
				c0.1-0.2,0.1-0.6,0.1-1.2V281.5z"/>
			<path class="st4" d="M394.5,286H392v-9.3h2.3v1.3c0.4-0.6,0.7-1,1.1-1.2s0.7-0.3,1.1-0.3c0.6,0,1.1,0.2,1.6,0.5l-0.8,2.1
				c-0.4-0.3-0.8-0.4-1.2-0.4c-0.3,0-0.6,0.1-0.9,0.3s-0.4,0.5-0.6,1c-0.1,0.5-0.2,1.5-0.2,3.1V286z"/>
		</g>
		<g>
			<g>
				<g>
					<path class="st4" d="M175.7,236.6v-12.9c-4-1.1-7-2.9-8.9-5.2c-1.9-2.3-2.8-5.2-2.8-8.5c0-3.4,1.1-6.2,3.2-8.5
						c2.1-2.3,5-3.6,8.5-4v-3h4.5v3c3.3,0.4,5.9,1.5,7.8,3.3c1.9,1.8,3.2,4.3,3.7,7.4l-7.8,1c-0.5-2.4-1.7-4.1-3.7-4.9v12
						c4.9,1.3,8.3,3.1,10.1,5.2c1.8,2.1,2.7,4.9,2.7,8.2c0,3.7-1.1,6.8-3.4,9.4s-5.4,4.1-9.4,4.7v5.8h-4.5V244
						c-3.6-0.4-6.4-1.8-8.7-4s-3.6-5.3-4.2-9.4l8-0.9c0.3,1.6,0.9,3.1,1.8,4.3C173.6,235.2,174.6,236.1,175.7,236.6z M175.7,204.3
						c-1.2,0.4-2.2,1.1-2.9,2.1c-0.7,1-1.1,2.1-1.1,3.3c0,1.1,0.3,2.1,1,3c0.7,0.9,1.7,1.7,3,2.3V204.3z M180.1,237.1
						c1.5-0.3,2.8-1,3.8-2.1c1-1.1,1.4-2.5,1.4-4c0-1.4-0.4-2.6-1.2-3.6c-0.8-1-2.1-1.8-4-2.3V237.1z"/>
					<path class="st4" d="M217.9,243.3v-9.1h-18.5v-7.6L219,198h7.3v28.6h5.6v7.6h-5.6v9.1H217.9z M217.9,226.6v-15.4l-10.4,15.4
						H217.9z"/>
					<path class="st4" d="M240.3,243.3v-8.7h8.7v8.7H240.3z"/>
					<path class="st4" d="M280.7,243.3H272v-32.6c-3.2,3-6.9,5.1-11.2,6.6v-7.9c2.3-0.7,4.7-2.1,7.4-4.2s4.5-4.5,5.5-7.2h7V243.3z"
						/>
				</g>
			</g>
			<g>
				<path class="st4" d="M294.3,243.2v-19.7h3.8v7.1c1.2-1.3,2.5-2,4.1-2c1.7,0,3.2,0.6,4.3,1.9c1.1,1.3,1.7,3.1,1.7,5.4
					c0,2.4-0.6,4.3-1.7,5.6c-1.2,1.3-2.6,2-4.2,2c-0.8,0-1.6-0.2-2.4-0.6s-1.5-1-2-1.8v2.1H294.3z M298,235.8c0,1.5,0.2,2.6,0.7,3.3
					c0.7,1,1.5,1.5,2.6,1.5c0.8,0,1.5-0.4,2.1-1.1c0.6-0.7,0.9-1.8,0.9-3.4c0-1.6-0.3-2.8-0.9-3.5c-0.6-0.7-1.3-1.1-2.3-1.1
					c-0.9,0-1.7,0.4-2.3,1.1C298.3,233.3,298,234.4,298,235.8z"/>
				<path class="st4" d="M313,227.1v-3.5h3.8v3.5H313z M313,243.2V229h3.8v14.2H313z"/>
				<path class="st4" d="M322.5,243.2v-19.7h3.8v19.7H322.5z"/>
				<path class="st4" d="M331.9,243.2v-19.7h3.8v19.7H331.9z"/>
				<path class="st4" d="M341.3,227.1v-3.5h3.8v3.5H341.3z M341.3,243.2V229h3.8v14.2H341.3z"/>
				<path class="st4" d="M349.9,235.9c0-1.3,0.3-2.5,0.9-3.6c0.6-1.2,1.5-2.1,2.6-2.7c1.1-0.6,2.4-0.9,3.8-0.9
					c2.2,0,3.9,0.7,5.3,2.1c1.4,1.4,2.1,3.2,2.1,5.3c0,2.2-0.7,3.9-2.1,5.4c-1.4,1.4-3.1,2.1-5.2,2.1c-1.3,0-2.5-0.3-3.7-0.9
					s-2.1-1.5-2.7-2.6C350.2,238.9,349.9,237.6,349.9,235.9z M353.8,236.1c0,1.4,0.3,2.5,1,3.2s1.5,1.1,2.5,1.1c1,0,1.8-0.4,2.5-1.1
					c0.7-0.8,1-1.8,1-3.3c0-1.4-0.3-2.5-1-3.2c-0.7-0.8-1.5-1.1-2.5-1.1c-1,0-1.8,0.4-2.5,1.1C354.1,233.6,353.8,234.7,353.8,236.1z
					"/>
				<path class="st4" d="M382.3,243.2h-3.8V236c0-1.5-0.1-2.5-0.2-3c-0.2-0.5-0.4-0.8-0.8-1.1c-0.4-0.2-0.8-0.4-1.3-0.4
					c-0.7,0-1.2,0.2-1.8,0.5c-0.5,0.4-0.9,0.8-1.1,1.4s-0.3,1.7-0.3,3.3v6.4h-3.8V229h3.5v2.1c1.2-1.6,2.8-2.4,4.7-2.4
					c0.8,0,1.6,0.1,2.3,0.4c0.7,0.3,1.2,0.7,1.6,1.1c0.4,0.5,0.6,1,0.7,1.6c0.1,0.6,0.2,1.4,0.2,2.5V243.2z"/>
			</g>
		</g>
		<g>
			<g>
				<path class="st4" d="M161.3,181.7l2.8-0.3c0.2,0.9,0.5,1.6,1,2.1s1.2,0.7,2.1,0.7c0.9,0,1.6-0.2,2.1-0.6s0.7-0.9,0.7-1.4
					c0-0.3-0.1-0.6-0.3-0.9s-0.5-0.4-1-0.6c-0.3-0.1-1.1-0.3-2.3-0.6c-1.5-0.4-2.6-0.9-3.3-1.4c-0.9-0.8-1.3-1.7-1.3-2.9
					c0-0.7,0.2-1.4,0.6-2s1-1.1,1.8-1.5s1.7-0.5,2.8-0.5c1.8,0,3.1,0.4,4.1,1.2s1.4,1.8,1.4,3.2l-2.9,0.1c-0.1-0.7-0.4-1.3-0.8-1.6
					s-1-0.5-1.8-0.5c-0.8,0-1.5,0.2-2,0.5c-0.3,0.2-0.5,0.5-0.5,0.9c0,0.3,0.1,0.6,0.4,0.9c0.4,0.3,1.2,0.6,2.7,1s2.4,0.7,3.1,1
					c0.7,0.4,1.2,0.8,1.6,1.5s0.6,1.4,0.6,2.3c0,0.8-0.2,1.6-0.7,2.3s-1.1,1.2-1.9,1.6s-1.9,0.5-3.1,0.5c-1.8,0-3.2-0.4-4.2-1.3
					S161.5,183.3,161.3,181.7z"/>
				<path class="st4" d="M177.4,179.2l-2.5-0.4c0.3-1,0.8-1.7,1.4-2.2s1.7-0.7,3-0.7c1.2,0,2.1,0.1,2.7,0.4s1,0.7,1.3,1.1
					s0.4,1.3,0.4,2.5l0,3.2c0,0.9,0,1.6,0.1,2s0.3,0.9,0.5,1.4h-2.7c-0.1-0.2-0.2-0.5-0.3-0.8c0-0.2-0.1-0.3-0.1-0.3
					c-0.5,0.5-1,0.8-1.5,1s-1.1,0.3-1.7,0.3c-1.1,0-1.9-0.3-2.5-0.9s-0.9-1.3-0.9-2.2c0-0.6,0.1-1.1,0.4-1.6s0.7-0.8,1.2-1.1
					s1.2-0.5,2.2-0.6c1.3-0.2,2.2-0.5,2.7-0.7v-0.3c0-0.5-0.1-0.9-0.4-1.1s-0.8-0.3-1.5-0.3c-0.5,0-0.9,0.1-1.1,0.3
					S177.6,178.7,177.4,179.2z M181.1,181.4c-0.4,0.1-0.9,0.3-1.7,0.4s-1.3,0.3-1.5,0.5c-0.4,0.3-0.5,0.6-0.5,1c0,0.4,0.1,0.7,0.4,1
					s0.7,0.4,1.1,0.4c0.5,0,1-0.2,1.4-0.5c0.3-0.2,0.5-0.5,0.7-0.9c0.1-0.2,0.1-0.7,0.1-1.3V181.4z"/>
				<path class="st4" d="M186.5,186.4v-14.3h2.7v14.3H186.5z"/>
				<path class="st4" d="M198.1,183.1l2.7,0.5c-0.4,1-0.9,1.8-1.7,2.3s-1.7,0.8-2.8,0.8c-1.8,0-3.1-0.6-4-1.8c-0.7-0.9-1-2.1-1-3.6
					c0-1.7,0.4-3.1,1.3-4s2-1.5,3.4-1.5c1.5,0,2.8,0.5,3.7,1.5s1.3,2.6,1.3,4.7h-6.9c0,0.8,0.2,1.4,0.7,1.9s1,0.7,1.6,0.7
					c0.4,0,0.8-0.1,1.1-0.4S197.9,183.6,198.1,183.1z M198.2,180.3c0-0.8-0.2-1.4-0.6-1.8c-0.4-0.4-0.9-0.6-1.4-0.6
					c-0.6,0-1.1,0.2-1.5,0.7c-0.4,0.4-0.6,1-0.6,1.8H198.2z"/>
				<path class="st4" d="M202.2,183.4l2.8-0.4c0.1,0.5,0.4,0.9,0.7,1.2s0.9,0.4,1.5,0.4c0.7,0,1.2-0.1,1.6-0.4
					c0.2-0.2,0.4-0.4,0.4-0.7c0-0.2-0.1-0.4-0.2-0.5c-0.1-0.1-0.4-0.3-0.9-0.4c-2.2-0.5-3.6-0.9-4.2-1.3c-0.8-0.6-1.2-1.3-1.2-2.3
					c0-0.9,0.4-1.7,1.1-2.3s1.8-0.9,3.3-0.9c1.4,0,2.5,0.2,3.2,0.7s1.2,1.1,1.4,2.1L209,179c-0.1-0.4-0.3-0.7-0.6-0.9
					s-0.8-0.3-1.3-0.3c-0.7,0-1.2,0.1-1.6,0.3c-0.2,0.1-0.3,0.3-0.3,0.6c0,0.2,0.1,0.4,0.3,0.5c0.2,0.2,1.1,0.4,2.6,0.8
					s2.5,0.7,3.1,1.2c0.6,0.5,0.9,1.2,0.9,2c0,1-0.4,1.8-1.2,2.5s-2,1-3.5,1c-1.4,0-2.5-0.3-3.4-0.9S202.5,184.4,202.2,183.4z"/>
				<path class="st4" d="M222.5,186.4h-2.7V176h2.5v1.5c0.4-0.7,0.8-1.2,1.2-1.4s0.7-0.3,1.2-0.3c0.6,0,1.2,0.2,1.8,0.5l-0.8,2.4
					c-0.5-0.3-0.9-0.4-1.3-0.4c-0.4,0-0.7,0.1-1,0.3c-0.3,0.2-0.5,0.6-0.6,1.1c-0.2,0.6-0.2,1.7-0.2,3.5V186.4z"/>
				<path class="st4" d="M233.7,183.1l2.7,0.5c-0.4,1-0.9,1.8-1.7,2.3s-1.7,0.8-2.8,0.8c-1.8,0-3.1-0.6-4-1.8c-0.7-0.9-1-2.1-1-3.6
					c0-1.7,0.4-3.1,1.3-4s2-1.5,3.4-1.5c1.5,0,2.8,0.5,3.7,1.5s1.3,2.6,1.3,4.7h-6.9c0,0.8,0.2,1.4,0.7,1.9s1,0.7,1.6,0.7
					c0.4,0,0.8-0.1,1.1-0.4S233.5,183.6,233.7,183.1z M233.8,180.3c0-0.8-0.2-1.4-0.6-1.8c-0.4-0.4-0.9-0.6-1.4-0.6
					c-0.6,0-1.1,0.2-1.5,0.7c-0.4,0.4-0.6,1-0.6,1.8H233.8z"/>
				<path class="st4" d="M240.8,179.2l-2.5-0.4c0.3-1,0.8-1.7,1.4-2.2s1.7-0.7,3-0.7c1.2,0,2.1,0.1,2.7,0.4s1,0.7,1.3,1.1
					s0.4,1.3,0.4,2.5l0,3.2c0,0.9,0,1.6,0.1,2s0.3,0.9,0.5,1.4h-2.7c-0.1-0.2-0.2-0.5-0.3-0.8c0-0.2-0.1-0.3-0.1-0.3
					c-0.5,0.5-1,0.8-1.5,1s-1.1,0.3-1.7,0.3c-1.1,0-1.9-0.3-2.5-0.9s-0.9-1.3-0.9-2.2c0-0.6,0.1-1.1,0.4-1.6s0.7-0.8,1.2-1.1
					s1.2-0.5,2.2-0.6c1.3-0.2,2.2-0.5,2.7-0.7v-0.3c0-0.5-0.1-0.9-0.4-1.1s-0.8-0.3-1.5-0.3c-0.5,0-0.9,0.1-1.1,0.3
					S241,178.7,240.8,179.2z M244.5,181.4c-0.4,0.1-0.9,0.3-1.7,0.4s-1.3,0.3-1.5,0.5c-0.4,0.3-0.5,0.6-0.5,1c0,0.4,0.1,0.7,0.4,1
					s0.7,0.4,1.1,0.4c0.5,0,1-0.2,1.4-0.5c0.3-0.2,0.5-0.5,0.7-0.9c0.1-0.2,0.1-0.7,0.1-1.3V181.4z"/>
				<path class="st4" d="M258.9,179.1l-2.7,0.5c-0.1-0.5-0.3-0.9-0.6-1.2s-0.7-0.4-1.3-0.4c-0.7,0-1.2,0.2-1.6,0.7
					c-0.4,0.5-0.6,1.3-0.6,2.4c0,1.2,0.2,2.1,0.6,2.6s1,0.8,1.7,0.8c0.5,0,0.9-0.1,1.3-0.4c0.3-0.3,0.6-0.8,0.7-1.5l2.7,0.5
					c-0.3,1.2-0.8,2.2-1.6,2.8s-1.9,0.9-3.2,0.9c-1.5,0-2.7-0.5-3.6-1.4s-1.4-2.3-1.4-4c0-1.7,0.5-3,1.4-4s2.1-1.4,3.7-1.4
					c1.3,0,2.3,0.3,3,0.8S258.6,178,258.9,179.1z"/>
				<path class="st4" d="M263.8,172.1v5.3c0.9-1,1.9-1.6,3.2-1.6c0.6,0,1.2,0.1,1.7,0.4s0.9,0.5,1.1,0.9s0.4,0.8,0.5,1.2
					c0.1,0.4,0.1,1.1,0.1,2.1v6.1h-2.7v-5.5c0-1.1-0.1-1.8-0.2-2.1s-0.3-0.5-0.6-0.7s-0.6-0.3-1-0.3c-0.5,0-0.9,0.1-1.2,0.3
					s-0.6,0.6-0.8,1s-0.2,1.1-0.2,2v5.2H261v-14.3H263.8z"/>
				<path class="st4" d="M279.3,183.1l2.7,0.5c-0.4,1-0.9,1.8-1.7,2.3s-1.7,0.8-2.8,0.8c-1.8,0-3.1-0.6-4-1.8c-0.7-0.9-1-2.1-1-3.6
					c0-1.7,0.4-3.1,1.3-4s2-1.5,3.4-1.5c1.5,0,2.8,0.5,3.7,1.5s1.3,2.6,1.3,4.7h-6.9c0,0.8,0.2,1.4,0.7,1.9s1,0.7,1.6,0.7
					c0.4,0,0.8-0.1,1.1-0.4S279.1,183.6,279.3,183.1z M279.4,180.3c0-0.8-0.2-1.4-0.6-1.8c-0.4-0.4-0.9-0.6-1.4-0.6
					c-0.6,0-1.1,0.2-1.5,0.7c-0.4,0.4-0.6,1-0.6,1.8H279.4z"/>
				<path class="st4" d="M293.9,186.4h-2.5v-1.5c-0.4,0.6-0.9,1-1.5,1.3s-1.2,0.4-1.7,0.4c-1.2,0-2.2-0.5-3.1-1.4s-1.3-2.3-1.3-4
					c0-1.8,0.4-3.1,1.2-4s1.9-1.4,3.1-1.4c1.2,0,2.2,0.5,3,1.4v-5.2h2.7V186.4z M286.6,181c0,1.1,0.2,1.9,0.5,2.4
					c0.4,0.7,1.1,1.1,1.9,1.1c0.6,0,1.2-0.3,1.6-0.8s0.7-1.3,0.7-2.4c0-1.2-0.2-2-0.6-2.6c-0.4-0.5-1-0.8-1.7-0.8
					c-0.7,0-1.2,0.3-1.6,0.8S286.6,179.9,286.6,181z"/>
			</g>
		</g>
	</g>
	<g>
		<g>
			<g>
				<g>
					<path class="st4" d="M25.2,368.6v-28.6h19.6v4.8H30.9v6.8h12v4.8h-12v12.2H25.2z"/>
					<path class="st4" d="M49.5,368.6v-28.6H55v28.6H49.5z"/>
					<path class="st4" d="M74.3,368.6v-3.1c-0.8,1.1-1.7,2-3,2.6s-2.5,1-3.9,1c-1.4,0-2.6-0.3-3.8-0.9s-1.9-1.5-2.4-2.6
						s-0.7-2.6-0.7-4.6v-13.1H66v9.5c0,2.9,0.1,4.7,0.3,5.4s0.6,1.2,1.1,1.6s1.2,0.6,2,0.6c0.9,0,1.8-0.3,2.5-0.8s1.2-1.2,1.5-1.9
						s0.4-2.6,0.4-5.6v-8.8h5.5v20.7H74.3z"/>
					<path class="st4" d="M83.8,357.9c0-1.8,0.4-3.6,1.3-5.3c0.9-1.7,2.2-3,3.8-3.9s3.5-1.3,5.5-1.3c3.1,0,5.7,1,7.7,3.1
						c2,2,3,4.6,3,7.7c0,3.1-1,5.7-3,7.8s-4.6,3.1-7.6,3.1c-1.9,0-3.7-0.4-5.4-1.3s-3-2.1-3.9-3.8S83.8,360.3,83.8,357.9z
						 M89.4,358.2c0,2.1,0.5,3.6,1.5,4.7s2.2,1.6,3.6,1.6s2.6-0.5,3.6-1.6s1.5-2.7,1.5-4.8c0-2-0.5-3.6-1.5-4.7s-2.2-1.6-3.6-1.6
						s-2.6,0.5-3.6,1.6S89.4,356.1,89.4,358.2z"/>
					<path class="st4" d="M114.8,368.6h-5.5v-20.7h5.1v2.9c0.9-1.4,1.7-2.3,2.4-2.8c0.7-0.4,1.5-0.7,2.4-0.7c1.2,0,2.5,0.3,3.6,1
						l-1.7,4.8c-0.9-0.6-1.8-0.9-2.6-0.9c-0.8,0-1.4,0.2-2,0.6c-0.5,0.4-1,1.2-1.3,2.3c-0.3,1.1-0.5,3.4-0.5,7V368.6z"/>
				</g>
			</g>
			
				<rect x="78.1" y="322.6" transform="matrix(-1.836970e-16 1 -1 -1.836970e-16 459.1606 300.3492)" class="st4" width="2.7" height="114.4"/>
			
				<rect x="204.1" y="259.8" transform="matrix(-1.836970e-16 1 -1 -1.836970e-16 648.3282 237.5463)" class="st4" width="2.7" height="366.3"/>
			<rect x="176.2" y="386.2" class="st4" width="2.7" height="44.6"/>
			<g>
				<path class="st4" d="M24.1,404v-14.3H26V404H24.1z"/>
				<path class="st4" d="M29.1,404v-10.4h1.6v1.5c0.8-1.1,1.9-1.7,3.3-1.7c0.6,0,1.2,0.1,1.7,0.3s0.9,0.5,1.2,0.9
					c0.3,0.4,0.4,0.8,0.5,1.3c0.1,0.3,0.1,0.9,0.1,1.7v6.4h-1.8v-6.3c0-0.7-0.1-1.3-0.2-1.6s-0.4-0.6-0.7-0.8
					c-0.3-0.2-0.8-0.3-1.2-0.3c-0.7,0-1.4,0.2-1.9,0.7s-0.8,1.4-0.8,2.7v5.7H29.1z"/>
				<path class="st4" d="M47,400.2l1.7,0.2c-0.2,1.2-0.7,2.1-1.5,2.8s-1.7,1-2.9,1c-1.4,0-2.6-0.5-3.4-1.4s-1.3-2.3-1.3-4
					c0-1.1,0.2-2.1,0.6-2.9s0.9-1.5,1.7-1.9s1.6-0.6,2.5-0.6c1.1,0,2,0.3,2.8,0.9c0.7,0.6,1.2,1.4,1.4,2.4l-1.7,0.3
					c-0.2-0.7-0.5-1.2-0.9-1.6s-0.9-0.5-1.5-0.5c-0.9,0-1.6,0.3-2.2,1s-0.8,1.6-0.8,3c0,1.4,0.3,2.4,0.8,3s1.2,0.9,2.1,0.9
					c0.7,0,1.3-0.2,1.7-0.6S46.9,401.1,47,400.2z"/>
				<path class="st4" d="M50.2,404v-10.4h1.6v1.6c0.4-0.7,0.8-1.2,1.1-1.5s0.7-0.4,1.1-0.4c0.6,0,1.2,0.2,1.8,0.6l-0.6,1.6
					c-0.4-0.3-0.9-0.4-1.3-0.4c-0.4,0-0.7,0.1-1,0.3c-0.3,0.2-0.5,0.6-0.7,1c-0.2,0.6-0.3,1.3-0.3,2.1v5.4H50.2z"/>
				<path class="st4" d="M64,400.7l1.8,0.2c-0.3,1.1-0.8,1.9-1.6,2.5s-1.8,0.9-3,0.9c-1.5,0-2.7-0.5-3.6-1.4s-1.3-2.2-1.3-3.9
					c0-1.7,0.4-3.1,1.3-4.1c0.9-1,2.1-1.4,3.5-1.4c1.4,0,2.5,0.5,3.4,1.4c0.9,0.9,1.3,2.3,1.3,4c0,0.1,0,0.3,0,0.5h-7.7
					c0.1,1.1,0.4,2,1,2.6s1.3,0.9,2.2,0.9c0.6,0,1.2-0.2,1.7-0.5S63.7,401.4,64,400.7z M58.2,397.9H64c-0.1-0.9-0.3-1.5-0.7-2
					c-0.6-0.7-1.3-1-2.2-1c-0.8,0-1.5,0.3-2,0.8C58.6,396.2,58.3,396.9,58.2,397.9z"/>
				<path class="st4" d="M74.8,402.8c-0.7,0.6-1.3,0.9-1.9,1.2s-1.2,0.3-1.9,0.3c-1.1,0-2-0.3-2.6-0.8s-0.9-1.3-0.9-2.1
					c0-0.5,0.1-1,0.3-1.4s0.5-0.8,0.9-1s0.8-0.4,1.3-0.6c0.3-0.1,0.9-0.2,1.6-0.3c1.4-0.2,2.5-0.4,3.1-0.6c0-0.2,0-0.4,0-0.5
					c0-0.7-0.2-1.2-0.5-1.5c-0.4-0.4-1.1-0.6-2-0.6c-0.8,0-1.4,0.1-1.8,0.4c-0.4,0.3-0.7,0.8-0.9,1.5l-1.7-0.2
					c0.2-0.7,0.4-1.3,0.8-1.8c0.4-0.5,0.9-0.8,1.6-1s1.5-0.4,2.4-0.4c0.9,0,1.6,0.1,2.2,0.3c0.6,0.2,1,0.5,1.2,0.8
					c0.3,0.3,0.4,0.7,0.5,1.2c0.1,0.3,0.1,0.8,0.1,1.6v2.3c0,1.6,0,2.7,0.1,3.1s0.2,0.8,0.4,1.2h-1.8
					C74.9,403.7,74.8,403.2,74.8,402.8z M74.6,398.8c-0.6,0.3-1.6,0.5-2.9,0.7c-0.7,0.1-1.2,0.2-1.5,0.4s-0.5,0.3-0.7,0.6
					s-0.2,0.5-0.2,0.8c0,0.5,0.2,0.9,0.5,1.2s0.9,0.5,1.6,0.5c0.7,0,1.3-0.1,1.8-0.4s0.9-0.7,1.2-1.2c0.2-0.4,0.3-1,0.3-1.8V398.8z"
					/>
				<path class="st4" d="M78.4,400.9l1.7-0.3c0.1,0.7,0.4,1.2,0.8,1.6s1.1,0.6,1.9,0.6c0.8,0,1.4-0.2,1.8-0.5s0.6-0.7,0.6-1.2
					c0-0.4-0.2-0.7-0.5-0.9c-0.2-0.2-0.8-0.4-1.8-0.6c-1.3-0.3-2.2-0.6-2.7-0.8s-0.9-0.6-1.1-1s-0.4-0.9-0.4-1.4
					c0-0.5,0.1-0.9,0.3-1.3c0.2-0.4,0.5-0.7,0.9-1c0.3-0.2,0.6-0.4,1.1-0.5c0.5-0.1,1-0.2,1.5-0.2c0.8,0,1.5,0.1,2.1,0.4
					s1.1,0.6,1.4,1s0.5,0.9,0.6,1.6l-1.7,0.2c-0.1-0.5-0.3-1-0.7-1.2c-0.4-0.3-0.9-0.4-1.6-0.4c-0.8,0-1.4,0.1-1.7,0.4
					c-0.3,0.3-0.5,0.6-0.5,0.9c0,0.2,0.1,0.4,0.2,0.6c0.1,0.2,0.4,0.3,0.7,0.5c0.2,0.1,0.7,0.2,1.6,0.4c1.2,0.3,2.1,0.6,2.6,0.8
					s0.9,0.5,1.2,0.9s0.4,0.9,0.4,1.5c0,0.6-0.2,1.1-0.5,1.7s-0.8,0.9-1.5,1.2s-1.4,0.4-2.2,0.4c-1.3,0-2.4-0.3-3.1-0.8
					S78.6,402,78.4,400.9z"/>
				<path class="st4" d="M96.2,400.7l1.8,0.2c-0.3,1.1-0.8,1.9-1.6,2.5s-1.8,0.9-3,0.9c-1.5,0-2.7-0.5-3.6-1.4s-1.3-2.2-1.3-3.9
					c0-1.7,0.4-3.1,1.3-4.1c0.9-1,2.1-1.4,3.5-1.4c1.4,0,2.5,0.5,3.4,1.4c0.9,0.9,1.3,2.3,1.3,4c0,0.1,0,0.3,0,0.5h-7.7
					c0.1,1.1,0.4,2,1,2.6s1.3,0.9,2.2,0.9c0.6,0,1.2-0.2,1.7-0.5S96,401.4,96.2,400.7z M90.5,397.9h5.8c-0.1-0.9-0.3-1.5-0.7-2
					c-0.6-0.7-1.3-1-2.2-1c-0.8,0-1.5,0.3-2,0.8C90.8,396.2,90.5,396.9,90.5,397.9z"/>
				<path class="st4" d="M107,404v-1.3c-0.7,1-1.6,1.5-2.9,1.5c-0.8,0-1.6-0.2-2.3-0.7s-1.2-1.1-1.6-1.9s-0.6-1.8-0.6-2.8
					c0-1,0.2-2,0.5-2.8s0.9-1.5,1.6-1.9s1.5-0.7,2.3-0.7c0.6,0,1.2,0.1,1.7,0.4s0.9,0.6,1.2,1v-5.1h1.7V404H107z M101.4,398.9
					c0,1.3,0.3,2.3,0.8,3s1.2,1,2,1c0.8,0,1.4-0.3,2-0.9s0.8-1.6,0.8-2.9c0-1.4-0.3-2.5-0.8-3.1s-1.2-1-2-1c-0.8,0-1.4,0.3-2,1
					C101.7,396.5,101.4,397.5,101.4,398.9z"/>
				<path class="st4" d="M116.2,400.9l1.7-0.3c0.1,0.7,0.4,1.2,0.8,1.6s1.1,0.6,1.9,0.6c0.8,0,1.4-0.2,1.8-0.5s0.6-0.7,0.6-1.2
					c0-0.4-0.2-0.7-0.5-0.9c-0.2-0.2-0.8-0.4-1.8-0.6c-1.3-0.3-2.2-0.6-2.7-0.8s-0.9-0.6-1.1-1s-0.4-0.9-0.4-1.4
					c0-0.5,0.1-0.9,0.3-1.3c0.2-0.4,0.5-0.7,0.9-1c0.3-0.2,0.6-0.4,1.1-0.5c0.5-0.1,1-0.2,1.5-0.2c0.8,0,1.5,0.1,2.1,0.4
					s1.1,0.6,1.4,1s0.5,0.9,0.6,1.6l-1.7,0.2c-0.1-0.5-0.3-1-0.7-1.2c-0.4-0.3-0.9-0.4-1.6-0.4c-0.8,0-1.4,0.1-1.7,0.4
					c-0.3,0.3-0.5,0.6-0.5,0.9c0,0.2,0.1,0.4,0.2,0.6c0.1,0.2,0.4,0.3,0.7,0.5c0.2,0.1,0.7,0.2,1.6,0.4c1.2,0.3,2.1,0.6,2.6,0.8
					s0.9,0.5,1.2,0.9s0.4,0.9,0.4,1.5c0,0.6-0.2,1.1-0.5,1.7s-0.8,0.9-1.5,1.2s-1.4,0.4-2.2,0.4c-1.3,0-2.4-0.3-3.1-0.8
					S116.4,402,116.2,400.9z"/>
				<path class="st4" d="M133.7,402.8c-0.7,0.6-1.3,0.9-1.9,1.2s-1.2,0.3-1.9,0.3c-1.1,0-2-0.3-2.6-0.8s-0.9-1.3-0.9-2.1
					c0-0.5,0.1-1,0.3-1.4s0.5-0.8,0.9-1s0.8-0.4,1.3-0.6c0.3-0.1,0.9-0.2,1.6-0.3c1.4-0.2,2.5-0.4,3.1-0.6c0-0.2,0-0.4,0-0.5
					c0-0.7-0.2-1.2-0.5-1.5c-0.4-0.4-1.1-0.6-2-0.6c-0.8,0-1.4,0.1-1.8,0.4c-0.4,0.3-0.7,0.8-0.9,1.5l-1.7-0.2
					c0.2-0.7,0.4-1.3,0.8-1.8c0.4-0.5,0.9-0.8,1.6-1s1.5-0.4,2.4-0.4c0.9,0,1.6,0.1,2.2,0.3c0.6,0.2,1,0.5,1.2,0.8
					c0.3,0.3,0.4,0.7,0.5,1.2c0.1,0.3,0.1,0.8,0.1,1.6v2.3c0,1.6,0,2.7,0.1,3.1s0.2,0.8,0.4,1.2H134
					C133.9,403.7,133.7,403.2,133.7,402.8z M133.5,398.8c-0.6,0.3-1.6,0.5-2.9,0.7c-0.7,0.1-1.2,0.2-1.5,0.4s-0.5,0.3-0.7,0.6
					s-0.2,0.5-0.2,0.8c0,0.5,0.2,0.9,0.5,1.2s0.9,0.5,1.6,0.5c0.7,0,1.3-0.1,1.8-0.4s0.9-0.7,1.2-1.2c0.2-0.4,0.3-1,0.3-1.8V398.8z"
					/>
				<path class="st4" d="M138,404v-14.3h1.8V404H138z"/>
				<path class="st4" d="M149.6,400.7l1.8,0.2c-0.3,1.1-0.8,1.9-1.6,2.5s-1.8,0.9-3,0.9c-1.5,0-2.7-0.5-3.6-1.4s-1.3-2.2-1.3-3.9
					c0-1.7,0.4-3.1,1.3-4.1c0.9-1,2.1-1.4,3.5-1.4c1.4,0,2.5,0.5,3.4,1.4c0.9,0.9,1.3,2.3,1.3,4c0,0.1,0,0.3,0,0.5h-7.7
					c0.1,1.1,0.4,2,1,2.6s1.3,0.9,2.2,0.9c0.6,0,1.2-0.2,1.7-0.5S149.3,401.4,149.6,400.7z M143.8,397.9h5.8c-0.1-0.9-0.3-1.5-0.7-2
					c-0.6-0.7-1.3-1-2.2-1c-0.8,0-1.5,0.3-2,0.8C144.2,396.2,143.9,396.9,143.8,397.9z"/>
				<path class="st4" d="M152.9,400.9l1.7-0.3c0.1,0.7,0.4,1.2,0.8,1.6s1.1,0.6,1.9,0.6c0.8,0,1.4-0.2,1.8-0.5s0.6-0.7,0.6-1.2
					c0-0.4-0.2-0.7-0.5-0.9c-0.2-0.2-0.8-0.4-1.8-0.6c-1.3-0.3-2.2-0.6-2.7-0.8s-0.9-0.6-1.1-1s-0.4-0.9-0.4-1.4
					c0-0.5,0.1-0.9,0.3-1.3c0.2-0.4,0.5-0.7,0.9-1c0.3-0.2,0.6-0.4,1.1-0.5c0.5-0.1,1-0.2,1.5-0.2c0.8,0,1.5,0.1,2.1,0.4
					s1.1,0.6,1.4,1s0.5,0.9,0.6,1.6l-1.7,0.2c-0.1-0.5-0.3-1-0.7-1.2c-0.4-0.3-0.9-0.4-1.6-0.4c-0.8,0-1.4,0.1-1.7,0.4
					c-0.3,0.3-0.5,0.6-0.5,0.9c0,0.2,0.1,0.4,0.2,0.6c0.1,0.2,0.4,0.3,0.7,0.5c0.2,0.1,0.7,0.2,1.6,0.4c1.2,0.3,2.1,0.6,2.6,0.8
					s0.9,0.5,1.2,0.9s0.4,0.9,0.4,1.5c0,0.6-0.2,1.1-0.5,1.7s-0.8,0.9-1.5,1.2s-1.4,0.4-2.2,0.4c-1.3,0-2.4-0.3-3.1-0.8
					S153.1,402,152.9,400.9z"/>
				<path class="st4" d="M23.7,428v-16.5h3.2v5.9c1-1.1,2.1-1.7,3.5-1.7c1.5,0,2.7,0.5,3.6,1.6c1,1.1,1.4,2.6,1.4,4.5
					c0,2-0.5,3.6-1.5,4.7c-1,1.1-2.1,1.7-3.5,1.7c-0.7,0-1.4-0.2-2-0.5c-0.7-0.3-1.2-0.8-1.7-1.5v1.8H23.7z M26.9,421.8
					c0,1.2,0.2,2.1,0.6,2.7c0.5,0.8,1.3,1.3,2.2,1.3c0.7,0,1.3-0.3,1.8-0.9c0.5-0.6,0.7-1.5,0.7-2.8c0-1.4-0.2-2.3-0.7-2.9
					s-1.1-0.9-1.9-0.9c-0.8,0-1.4,0.3-1.9,0.9C27.1,419.7,26.9,420.6,26.9,421.8z"/>
				<path class="st4" d="M36.4,416.1h3.4l2.9,8.5l2.8-8.5h3.3l-4.2,11.5l-0.8,2.1c-0.3,0.7-0.5,1.2-0.8,1.6
					c-0.3,0.4-0.5,0.7-0.9,0.9c-0.3,0.2-0.7,0.4-1.2,0.5s-1,0.2-1.6,0.2c-0.6,0-1.2-0.1-1.8-0.2l-0.3-2.5c0.5,0.1,0.9,0.1,1.3,0.1
					c0.7,0,1.3-0.2,1.6-0.6s0.6-1,0.8-1.6L36.4,416.1z"/>
				<path class="st4" d="M67.1,425.1v2.9H56c0.1-1.1,0.5-2.2,1.1-3.2c0.6-1,1.8-2.3,3.5-3.9c1.4-1.3,2.3-2.2,2.6-2.7
					c0.4-0.7,0.7-1.3,0.7-1.9c0-0.7-0.2-1.2-0.6-1.6s-0.9-0.6-1.6-0.6c-0.7,0-1.2,0.2-1.6,0.6s-0.6,1.1-0.7,2l-3.1-0.3
					c0.2-1.7,0.8-3,1.8-3.7c1-0.8,2.2-1.1,3.7-1.1c1.6,0,2.9,0.4,3.8,1.3c0.9,0.9,1.4,2,1.4,3.3c0,0.7-0.1,1.4-0.4,2.1
					s-0.7,1.4-1.3,2.1c-0.4,0.5-1.1,1.2-2.1,2.1c-1,0.9-1.6,1.5-1.9,1.8c-0.3,0.3-0.5,0.6-0.6,0.9H67.1z"/>
				<path class="st4" d="M69.1,423.7l3.1-0.4c0.1,0.8,0.4,1.4,0.8,1.8c0.4,0.4,0.9,0.6,1.6,0.6c0.7,0,1.2-0.2,1.6-0.7s0.7-1.2,0.7-2
					c0-0.8-0.2-1.4-0.6-1.9s-0.9-0.7-1.6-0.7c-0.4,0-0.9,0.1-1.4,0.2l0.3-2.6c0.9,0,1.5-0.2,2-0.6c0.4-0.4,0.7-0.9,0.7-1.6
					c0-0.6-0.2-1-0.5-1.3c-0.3-0.3-0.8-0.5-1.3-0.5c-0.5,0-1,0.2-1.4,0.6c-0.4,0.4-0.6,0.9-0.7,1.6l-2.9-0.5c0.2-1,0.5-1.8,0.9-2.4
					c0.4-0.6,1-1.1,1.7-1.4c0.7-0.3,1.5-0.5,2.5-0.5c1.5,0,2.8,0.5,3.7,1.5c0.8,0.8,1.2,1.7,1.2,2.7c0,1.4-0.8,2.6-2.4,3.5
					c0.9,0.2,1.7,0.7,2.3,1.4c0.6,0.7,0.8,1.6,0.8,2.5c0,1.4-0.5,2.7-1.6,3.7c-1.1,1-2.4,1.5-3.9,1.5c-1.5,0-2.7-0.4-3.7-1.3
					C69.8,426.2,69.3,425,69.1,423.7z"/>
				<path class="st4" d="M82,415.6c0-1.5,0.3-2.6,1-3.3s1.5-1.1,2.6-1.1c1.1,0,2,0.4,2.7,1.1c0.6,0.7,1,1.8,1,3.3
					c0,1.5-0.3,2.6-1,3.3s-1.5,1.1-2.6,1.1c-1.1,0-2-0.4-2.7-1.1C82.4,418.2,82,417.1,82,415.6z M84.5,415.6c0,1.1,0.1,1.8,0.4,2.2
					c0.2,0.3,0.4,0.4,0.8,0.4c0.3,0,0.6-0.1,0.8-0.4c0.2-0.4,0.4-1.1,0.4-2.2s-0.1-1.8-0.4-2.1c-0.2-0.3-0.4-0.4-0.8-0.4
					c-0.3,0-0.6,0.1-0.8,0.4C84.6,413.8,84.5,414.5,84.5,415.6z M88,428.7h-2.3l8.8-17.4h2.3L88,428.7z M93.1,424.3
					c0-1.5,0.3-2.6,1-3.3c0.6-0.7,1.5-1.1,2.7-1.1c1.1,0,2,0.4,2.7,1.1c0.6,0.7,1,1.8,1,3.3c0,1.5-0.3,2.6-1,3.3s-1.5,1.1-2.6,1.1
					c-1.1,0-2-0.4-2.7-1.1S93.1,425.8,93.1,424.3z M95.6,424.3c0,1.1,0.1,1.8,0.4,2.1c0.2,0.3,0.4,0.4,0.8,0.4
					c0.3,0,0.6-0.1,0.8-0.4c0.2-0.4,0.4-1.1,0.4-2.2s-0.1-1.8-0.4-2.2c-0.2-0.3-0.4-0.4-0.8-0.4c-0.3,0-0.6,0.1-0.8,0.4
					C95.7,422.5,95.6,423.3,95.6,424.3z"/>
				<path class="st4" d="M115,416.1v2.5h-2.2v4.8c0,1,0,1.5,0.1,1.7s0.1,0.3,0.3,0.4c0.1,0.1,0.3,0.2,0.5,0.2c0.3,0,0.7-0.1,1.3-0.3
					l0.3,2.4c-0.7,0.3-1.6,0.5-2.5,0.5c-0.6,0-1.1-0.1-1.5-0.3c-0.5-0.2-0.8-0.4-1-0.7c-0.2-0.3-0.4-0.7-0.4-1.2
					c-0.1-0.4-0.1-1.1-0.1-2.2v-5.2h-1.4v-2.5h1.4v-2.4l3.2-1.8v4.2H115z"/>
				<path class="st4" d="M116.5,421.9c0-1,0.3-2.1,0.8-3c0.5-1,1.2-1.7,2.2-2.2c0.9-0.5,2-0.8,3.2-0.8c1.8,0,3.3,0.6,4.4,1.8
					s1.7,2.7,1.7,4.4c0,1.8-0.6,3.3-1.7,4.5s-2.6,1.8-4.4,1.8c-1.1,0-2.1-0.2-3.1-0.7s-1.7-1.2-2.3-2.2
					C116.7,424.4,116.5,423.3,116.5,421.9z M119.7,422.1c0,1.2,0.3,2.1,0.8,2.7c0.6,0.6,1.3,0.9,2.1,0.9s1.5-0.3,2.1-0.9
					s0.8-1.5,0.8-2.7c0-1.2-0.3-2.1-0.8-2.7s-1.2-0.9-2.1-0.9s-1.5,0.3-2.1,0.9C120,420,119.7,420.9,119.7,422.1z"/>
			</g>
			<g>
				<path class="st4" d="M30.3,468l1.7,0.2c-0.2,1.2-0.7,2.1-1.5,2.8s-1.7,1-2.9,1c-1.4,0-2.6-0.5-3.4-1.4s-1.3-2.3-1.3-4
					c0-1.1,0.2-2.1,0.6-2.9s0.9-1.5,1.7-1.9s1.6-0.6,2.5-0.6c1.1,0,2,0.3,2.8,0.9c0.7,0.6,1.2,1.4,1.4,2.4l-1.7,0.3
					c-0.2-0.7-0.5-1.2-0.9-1.6s-0.9-0.5-1.5-0.5c-0.9,0-1.6,0.3-2.2,1s-0.8,1.6-0.8,3c0,1.4,0.3,2.4,0.8,3s1.2,0.9,2.1,0.9
					c0.7,0,1.3-0.2,1.7-0.6S30.2,468.9,30.3,468z"/>
				<path class="st4" d="M33.8,466.6c0-1.9,0.5-3.3,1.6-4.3c0.9-0.8,2-1.2,3.3-1.2c1.4,0,2.6,0.5,3.5,1.4c0.9,0.9,1.4,2.2,1.4,3.9
					c0,1.3-0.2,2.4-0.6,3.1s-1,1.4-1.7,1.8s-1.6,0.6-2.5,0.6c-1.5,0-2.6-0.5-3.5-1.4S33.8,468.3,33.8,466.6z M35.6,466.6
					c0,1.3,0.3,2.3,0.9,3s1.3,1,2.2,1c0.9,0,1.6-0.3,2.2-1s0.9-1.7,0.9-3c0-1.3-0.3-2.3-0.9-2.9s-1.3-1-2.2-1c-0.9,0-1.6,0.3-2.2,1
					S35.6,465.3,35.6,466.6z"/>
				<path class="st4" d="M46.5,471.8v-10.4H48v1.5c0.3-0.5,0.8-0.9,1.3-1.2c0.5-0.3,1.2-0.5,1.8-0.5c0.8,0,1.4,0.2,1.9,0.5
					c0.5,0.3,0.8,0.8,1,1.3c0.8-1.2,1.9-1.8,3.2-1.8c1,0,1.8,0.3,2.4,0.9c0.6,0.6,0.8,1.4,0.8,2.6v7.1h-1.7v-6.5
					c0-0.7-0.1-1.2-0.2-1.5s-0.3-0.6-0.6-0.7c-0.3-0.2-0.7-0.3-1.1-0.3c-0.7,0-1.3,0.2-1.8,0.7s-0.7,1.3-0.7,2.3v6h-1.8V465
					c0-0.8-0.1-1.4-0.4-1.8s-0.8-0.6-1.4-0.6c-0.5,0-1,0.1-1.4,0.4c-0.4,0.3-0.7,0.6-0.9,1.1s-0.3,1.2-0.3,2.2v5.4H46.5z"/>
				<path class="st4" d="M64,475.8v-14.3h1.6v1.3c0.4-0.5,0.8-0.9,1.3-1.2s1.1-0.4,1.7-0.4c0.9,0,1.7,0.2,2.3,0.7
					c0.7,0.5,1.2,1.1,1.5,1.9s0.5,1.7,0.5,2.7c0,1.1-0.2,2-0.6,2.9s-0.9,1.5-1.7,2s-1.5,0.7-2.3,0.7c-0.6,0-1.1-0.1-1.6-0.4
					s-0.8-0.6-1.1-0.9v5H64z M65.6,466.7c0,1.3,0.3,2.3,0.8,3s1.2,1,2,1c0.8,0,1.5-0.3,2-1s0.8-1.7,0.8-3.1c0-1.3-0.3-2.3-0.8-3
					s-1.2-1-1.9-1c-0.7,0-1.4,0.3-2,1S65.6,465.3,65.6,466.7z"/>
				<path class="st4" d="M82.8,470.5c-0.7,0.6-1.3,0.9-1.9,1.2S79.7,472,79,472c-1.1,0-2-0.3-2.6-0.8s-0.9-1.3-0.9-2.1
					c0-0.5,0.1-1,0.3-1.4s0.5-0.8,0.9-1s0.8-0.4,1.3-0.6c0.3-0.1,0.9-0.2,1.6-0.3c1.4-0.2,2.5-0.4,3.1-0.6c0-0.2,0-0.4,0-0.5
					c0-0.7-0.2-1.2-0.5-1.5c-0.4-0.4-1.1-0.6-2-0.6c-0.8,0-1.4,0.1-1.8,0.4c-0.4,0.3-0.7,0.8-0.9,1.5l-1.7-0.2
					c0.2-0.7,0.4-1.3,0.8-1.8c0.4-0.5,0.9-0.8,1.6-1s1.5-0.4,2.4-0.4c0.9,0,1.6,0.1,2.2,0.3c0.6,0.2,1,0.5,1.2,0.8
					c0.3,0.3,0.4,0.7,0.5,1.2c0.1,0.3,0.1,0.8,0.1,1.6v2.3c0,1.6,0,2.7,0.1,3.1s0.2,0.8,0.4,1.2h-1.8C83,471.4,82.9,471,82.8,470.5z
					 M82.7,466.6c-0.6,0.3-1.6,0.5-2.9,0.7c-0.7,0.1-1.2,0.2-1.5,0.4s-0.5,0.3-0.7,0.6s-0.2,0.5-0.2,0.8c0,0.5,0.2,0.9,0.5,1.2
					s0.9,0.5,1.6,0.5c0.7,0,1.3-0.1,1.8-0.4s0.9-0.7,1.2-1.2c0.2-0.4,0.3-1,0.3-1.8V466.6z"/>
				<path class="st4" d="M88,471.8v-10.4h1.6v1.6c0.4-0.7,0.8-1.2,1.1-1.5s0.7-0.4,1.1-0.4c0.6,0,1.2,0.2,1.8,0.6l-0.6,1.6
					c-0.4-0.3-0.9-0.4-1.3-0.4c-0.4,0-0.7,0.1-1,0.3c-0.3,0.2-0.5,0.6-0.7,1c-0.2,0.6-0.3,1.3-0.3,2.1v5.4H88z"/>
				<path class="st4" d="M102.7,468.4l1.8,0.2c-0.3,1.1-0.8,1.9-1.6,2.5s-1.8,0.9-3,0.9c-1.5,0-2.7-0.5-3.6-1.4s-1.3-2.2-1.3-3.9
					c0-1.7,0.4-3.1,1.3-4.1c0.9-1,2.1-1.4,3.5-1.4c1.4,0,2.5,0.5,3.4,1.4c0.9,0.9,1.3,2.3,1.3,4c0,0.1,0,0.3,0,0.5h-7.7
					c0.1,1.1,0.4,2,1,2.6s1.3,0.9,2.2,0.9c0.6,0,1.2-0.2,1.7-0.5S102.5,469.2,102.7,468.4z M97,465.6h5.8c-0.1-0.9-0.3-1.5-0.7-2
					c-0.6-0.7-1.3-1-2.2-1c-0.8,0-1.5,0.3-2,0.8S97,464.7,97,465.6z"/>
				<path class="st4" d="M114.4,471.8v-1.3c-0.7,1-1.6,1.5-2.9,1.5c-0.8,0-1.6-0.2-2.3-0.7s-1.2-1.1-1.6-1.9s-0.6-1.8-0.6-2.8
					c0-1,0.2-2,0.5-2.8c0.3-0.8,0.9-1.5,1.6-1.9s1.5-0.7,2.3-0.7c0.6,0,1.2,0.1,1.7,0.4s0.9,0.6,1.2,1v-5.1h1.7v14.3H114.4z
					 M108.8,466.6c0,1.3,0.3,2.3,0.8,3s1.2,1,2,1c0.8,0,1.4-0.3,2-0.9s0.8-1.6,0.8-2.9c0-1.4-0.3-2.5-0.8-3.1s-1.2-1-2-1
					c-0.8,0-1.4,0.3-2,1S108.8,465.2,108.8,466.6z"/>
				<path class="st4" d="M130,470.2l0.3,1.6c-0.5,0.1-0.9,0.2-1.3,0.2c-0.6,0-1.1-0.1-1.5-0.3s-0.6-0.5-0.7-0.8s-0.2-1-0.2-2.1v-6
					h-1.3v-1.4h1.3v-2.6l1.7-1.1v3.6h1.8v1.4h-1.8v6.1c0,0.5,0,0.8,0.1,1s0.2,0.3,0.3,0.3s0.3,0.1,0.6,0.1
					C129.4,470.3,129.6,470.3,130,470.2z"/>
				<path class="st4" d="M131.9,466.6c0-1.9,0.5-3.3,1.6-4.3c0.9-0.8,2-1.2,3.3-1.2c1.4,0,2.6,0.5,3.5,1.4c0.9,0.9,1.4,2.2,1.4,3.9
					c0,1.3-0.2,2.4-0.6,3.1s-1,1.4-1.7,1.8s-1.6,0.6-2.5,0.6c-1.5,0-2.6-0.5-3.5-1.4S131.9,468.3,131.9,466.6z M133.7,466.6
					c0,1.3,0.3,2.3,0.9,3s1.3,1,2.2,1c0.9,0,1.6-0.3,2.2-1s0.9-1.7,0.9-3c0-1.3-0.3-2.3-0.9-2.9s-1.3-1-2.2-1c-0.9,0-1.6,0.3-2.2,1
					S133.7,465.3,133.7,466.6z"/>
				<path class="st4" d="M155.2,469.3v-4.7c-1.5-0.4-2.5-1.1-3.2-1.9c-0.7-0.9-1-1.9-1-3.1c0-1.2,0.4-2.3,1.2-3.1
					c0.8-0.8,1.8-1.3,3.1-1.4V454h1.6v1.1c1.2,0.1,2.1,0.5,2.8,1.2c0.7,0.7,1.2,1.6,1.3,2.7l-2.8,0.4c-0.2-0.9-0.6-1.5-1.3-1.8v4.4
					c1.8,0.5,3,1.1,3.7,1.9c0.7,0.8,1,1.8,1,3c0,1.4-0.4,2.5-1.2,3.4c-0.8,0.9-2,1.5-3.4,1.7v2.1h-1.6v-2c-1.3-0.2-2.3-0.6-3.2-1.4
					s-1.3-2-1.5-3.4l2.9-0.3c0.1,0.6,0.3,1.1,0.7,1.5C154.5,468.8,154.8,469.1,155.2,469.3z M155.2,457.6c-0.4,0.2-0.8,0.4-1.1,0.8
					c-0.3,0.4-0.4,0.8-0.4,1.2c0,0.4,0.1,0.8,0.4,1.1s0.6,0.6,1.1,0.8V457.6z M156.9,469.5c0.6-0.1,1-0.4,1.4-0.8
					c0.4-0.4,0.5-0.9,0.5-1.5c0-0.5-0.1-0.9-0.4-1.3s-0.8-0.6-1.5-0.8V469.5z"/>
				<path class="st4" d="M175.2,459.3l-3.1,0.3c-0.1-0.6-0.3-1.1-0.6-1.4c-0.3-0.3-0.7-0.4-1.2-0.4c-0.7,0-1.2,0.3-1.7,0.9
					c-0.5,0.6-0.8,1.8-0.9,3.7c0.8-0.9,1.8-1.4,2.9-1.4c1.3,0,2.4,0.5,3.4,1.5c0.9,1,1.4,2.3,1.4,3.9c0,1.7-0.5,3-1.5,4.1
					c-1,1-2.3,1.5-3.8,1.5c-1.7,0-3-0.6-4.1-1.9c-1.1-1.3-1.6-3.4-1.6-6.4c0-3,0.6-5.2,1.7-6.5c1.1-1.3,2.6-2,4.3-2
					c1.3,0,2.3,0.3,3.1,1C174.5,457,175,458,175.2,459.3z M168.1,466.2c0,1,0.2,1.8,0.7,2.4c0.5,0.6,1,0.8,1.6,0.8
					c0.6,0,1.1-0.2,1.5-0.7c0.4-0.5,0.6-1.2,0.6-2.2c0-1.1-0.2-1.9-0.6-2.4c-0.4-0.5-0.9-0.7-1.6-0.7c-0.6,0-1.1,0.2-1.5,0.7
					S168.1,465.3,168.1,466.2z"/>
				<path class="st4" d="M181.1,462.9c-0.8-0.3-1.4-0.8-1.8-1.4c-0.4-0.6-0.6-1.3-0.6-2c0-1.2,0.4-2.2,1.3-3
					c0.9-0.8,2.1-1.2,3.7-1.2c1.6,0,2.8,0.4,3.6,1.2c0.9,0.8,1.3,1.8,1.3,3c0,0.8-0.2,1.4-0.6,2c-0.4,0.6-1,1-1.7,1.4
					c0.9,0.4,1.6,0.9,2.1,1.6s0.7,1.5,0.7,2.4c0,1.5-0.5,2.8-1.5,3.7c-1,1-2.3,1.4-3.9,1.4c-1.5,0-2.7-0.4-3.7-1.2
					c-1.2-0.9-1.8-2.2-1.8-3.8c0-0.9,0.2-1.7,0.7-2.5S180.1,463.3,181.1,462.9z M181.4,466.8c0,0.9,0.2,1.5,0.7,2
					c0.4,0.5,1,0.7,1.7,0.7c0.7,0,1.2-0.2,1.6-0.7s0.6-1.1,0.6-2c0-0.8-0.2-1.4-0.7-1.9c-0.4-0.5-1-0.7-1.7-0.7
					c-0.8,0-1.3,0.3-1.7,0.8S181.4,466.2,181.4,466.8z M181.7,459.7c0,0.6,0.2,1.1,0.5,1.5c0.4,0.4,0.8,0.5,1.4,0.5
					c0.6,0,1.1-0.2,1.4-0.5c0.4-0.4,0.5-0.8,0.5-1.5c0-0.6-0.2-1.1-0.5-1.4c-0.4-0.4-0.8-0.5-1.4-0.5c-0.6,0-1.1,0.2-1.4,0.5
					S181.7,459.1,181.7,459.7z"/>
				<path class="st4" d="M200.3,471.8h-3.2v-11.9c-1.2,1.1-2.5,1.9-4.1,2.4v-2.9c0.8-0.3,1.7-0.8,2.7-1.5c1-0.8,1.6-1.6,2-2.6h2.6
					V471.8z"/>
				<path class="st4" d="M213.9,459.9h2.9v1.6c1-1.3,2.3-1.9,3.7-1.9c0.8,0,1.4,0.2,2,0.5c0.6,0.3,1,0.8,1.4,1.4
					c0.5-0.6,1.1-1.1,1.7-1.4c0.6-0.3,1.3-0.5,1.9-0.5c0.9,0,1.6,0.2,2.2,0.5c0.6,0.4,1.1,0.9,1.4,1.6c0.2,0.5,0.3,1.3,0.3,2.5v7.6
					h-3.2V465c0-1.2-0.1-1.9-0.3-2.3c-0.3-0.4-0.7-0.7-1.3-0.7c-0.4,0-0.9,0.1-1.2,0.4c-0.4,0.3-0.7,0.7-0.8,1.2s-0.3,1.3-0.3,2.5
					v5.7h-3.2v-6.5c0-1.2-0.1-1.9-0.2-2.2c-0.1-0.3-0.3-0.6-0.5-0.8c-0.2-0.2-0.6-0.2-1-0.2c-0.5,0-0.9,0.1-1.3,0.4
					c-0.4,0.3-0.7,0.6-0.8,1.1c-0.2,0.5-0.3,1.3-0.3,2.5v5.8h-3.2V459.9z"/>
				<path class="st4" d="M235.6,458.2v-2.9h3.2v2.9H235.6z M235.6,471.8v-11.9h3.2v11.9H235.6z"/>
				<path class="st4" d="M243,471.8v-16.5h3.2v16.5H243z"/>
				<path class="st4" d="M250.5,471.8v-16.5h3.2v16.5H250.5z"/>
				<path class="st4" d="M257.9,458.2v-2.9h3.2v2.9H257.9z M257.9,471.8v-11.9h3.2v11.9H257.9z"/>
				<path class="st4" d="M264.6,465.6c0-1,0.3-2.1,0.8-3c0.5-1,1.2-1.7,2.2-2.2s2-0.8,3.2-0.8c1.8,0,3.3,0.6,4.4,1.8
					c1.2,1.2,1.7,2.7,1.7,4.4c0,1.8-0.6,3.3-1.7,4.5s-2.6,1.8-4.4,1.8c-1.1,0-2.1-0.2-3.1-0.7s-1.7-1.2-2.3-2.2
					C264.8,468.2,264.6,467,264.6,465.6z M267.8,465.8c0,1.2,0.3,2.1,0.8,2.7c0.6,0.6,1.3,0.9,2.1,0.9c0.8,0,1.5-0.3,2.1-0.9
					c0.6-0.6,0.8-1.5,0.8-2.7c0-1.2-0.3-2.1-0.8-2.7c-0.6-0.6-1.2-0.9-2.1-0.9c-0.8,0-1.5,0.3-2.1,0.9
					C268.1,463.7,267.8,464.6,267.8,465.8z"/>
				<path class="st4" d="M291.2,471.8h-3.2v-6.1c0-1.3-0.1-2.1-0.2-2.5s-0.4-0.7-0.7-0.9c-0.3-0.2-0.7-0.3-1.1-0.3
					c-0.5,0-1,0.2-1.5,0.4c-0.4,0.3-0.7,0.7-0.9,1.2c-0.2,0.5-0.2,1.4-0.2,2.7v5.4h-3.2v-11.9h2.9v1.8c1-1.3,2.4-2,3.9-2
					c0.7,0,1.3,0.1,1.9,0.4s1,0.6,1.3,1c0.3,0.4,0.5,0.8,0.6,1.3c0.1,0.5,0.2,1.2,0.2,2.1V471.8z"/>
				<path class="st4" d="M301.6,459.5v-2h1.8v2H301.6z M301.6,471.8v-10.4h1.8v10.4H301.6z"/>
				<path class="st4" d="M307,471.8v-10.4h1.6v1.5c0.8-1.1,1.9-1.7,3.3-1.7c0.6,0,1.2,0.1,1.7,0.3c0.5,0.2,0.9,0.5,1.2,0.9
					c0.3,0.4,0.4,0.8,0.5,1.3c0.1,0.3,0.1,0.9,0.1,1.7v6.4h-1.8v-6.3c0-0.7-0.1-1.3-0.2-1.6c-0.1-0.4-0.4-0.6-0.7-0.8
					c-0.3-0.2-0.8-0.3-1.2-0.3c-0.7,0-1.4,0.2-1.9,0.7c-0.5,0.5-0.8,1.4-0.8,2.7v5.7H307z"/>
				<path class="st4" d="M334.2,470.1v1.7h-9.5c0-0.4,0.1-0.8,0.2-1.2c0.2-0.6,0.6-1.3,1.2-1.9c0.5-0.6,1.3-1.3,2.3-2.2
					c1.6-1.3,2.6-2.3,3.2-3c0.5-0.7,0.8-1.5,0.8-2.1c0-0.7-0.2-1.3-0.7-1.8s-1.1-0.7-1.9-0.7c-0.8,0-1.5,0.3-2,0.8s-0.8,1.2-0.8,2.1
					l-1.8-0.2c0.1-1.3,0.6-2.4,1.4-3.1c0.8-0.7,1.9-1.1,3.3-1.1c1.4,0,2.5,0.4,3.3,1.1s1.2,1.7,1.2,2.8c0,0.6-0.1,1.1-0.4,1.7
					c-0.2,0.6-0.6,1.1-1.2,1.7c-0.5,0.6-1.4,1.5-2.7,2.5c-1.1,0.9-1.7,1.5-2,1.8c-0.3,0.3-0.5,0.6-0.7,1H334.2z"/>
				<path class="st4" d="M337,464.7c0-1.7,0.2-3.1,0.5-4.1c0.3-1,0.9-1.8,1.6-2.4c0.7-0.6,1.6-0.8,2.6-0.8c0.8,0,1.4,0.2,2,0.5
					c0.6,0.3,1.1,0.8,1.4,1.3c0.4,0.6,0.7,1.3,0.9,2.1c0.2,0.8,0.3,2,0.3,3.4c0,1.7-0.2,3-0.5,4.1c-0.3,1-0.9,1.8-1.5,2.4
					c-0.7,0.6-1.6,0.8-2.6,0.8c-1.4,0-2.5-0.5-3.3-1.5C337.4,469.3,337,467.4,337,464.7z M338.8,464.7c0,2.4,0.3,3.9,0.8,4.7
					c0.6,0.8,1.2,1.2,2,1.2c0.8,0,1.5-0.4,2-1.2c0.6-0.8,0.8-2.3,0.8-4.7c0-2.4-0.3-3.9-0.8-4.7c-0.5-0.8-1.2-1.2-2.1-1.2
					c-0.8,0-1.5,0.3-1.9,1C339.1,460.8,338.8,462.4,338.8,464.7z"/>
				<path class="st4" d="M355.6,471.8h-1.8v-11.2c-0.4,0.4-1,0.8-1.7,1.2c-0.7,0.4-1.3,0.7-1.8,0.9V461c1-0.5,1.8-1,2.6-1.7
					c0.7-0.7,1.3-1.3,1.6-1.9h1.1V471.8z"/>
				<path class="st4" d="M361.1,459.3v-1.7h9.3v1.4c-0.9,1-1.8,2.3-2.7,3.9c-0.9,1.6-1.6,3.3-2.1,5c-0.4,1.2-0.6,2.5-0.7,3.9h-1.8
					c0-1.1,0.2-2.5,0.7-4.1c0.4-1.6,1-3.1,1.8-4.6s1.6-2.7,2.5-3.7H361.1z"/>
			</g>
			<g>
				<path class="st4" d="M203.7,421.1v-10.4c-3.2-0.9-5.6-2.3-7.2-4.2s-2.3-4.2-2.3-6.9c0-2.7,0.9-5,2.6-6.9s4-2.9,6.9-3.2V387h3.6
					v2.5c2.6,0.3,4.7,1.2,6.3,2.7c1.6,1.5,2.6,3.5,3,6l-6.3,0.8c-0.4-2-1.4-3.3-3-4v9.7c4,1.1,6.7,2.5,8.1,4.2
					c1.4,1.7,2.2,3.9,2.2,6.6c0,3-0.9,5.5-2.7,7.6c-1.8,2.1-4.3,3.3-7.6,3.8v4.7h-3.6V427c-2.9-0.3-5.2-1.4-7-3.2s-2.9-4.3-3.4-7.6
					l6.5-0.7c0.3,1.3,0.8,2.5,1.5,3.4C202,419.9,202.8,420.6,203.7,421.1z M203.7,394.9c-1,0.3-1.8,0.9-2.3,1.7
					c-0.6,0.8-0.9,1.7-0.9,2.6c0,0.9,0.3,1.7,0.8,2.5c0.5,0.8,1.3,1.4,2.4,1.8V394.9z M207.3,421.4c1.2-0.2,2.3-0.8,3-1.7
					c0.8-0.9,1.2-2,1.2-3.2c0-1.1-0.3-2.1-1-2.9c-0.7-0.8-1.7-1.4-3.2-1.9V421.4z"/>
				<path class="st4" d="M228,406.8c-1.8-0.8-3.1-1.8-3.9-3.1c-0.8-1.3-1.2-2.8-1.2-4.4c0-2.7,0.9-5,2.8-6.7
					c1.9-1.8,4.6-2.7,8.1-2.7c3.5,0,6.2,0.9,8.1,2.7s2.9,4,2.9,6.7c0,1.7-0.4,3.2-1.3,4.5s-2.1,2.3-3.7,3c2,0.8,3.6,2,4.6,3.6
					c1.1,1.6,1.6,3.4,1.6,5.4c0,3.4-1.1,6.1-3.2,8.2c-2.1,2.1-5,3.2-8.6,3.2c-3.3,0-6.1-0.9-8.3-2.6c-2.6-2.1-3.9-4.9-3.9-8.5
					c0-2,0.5-3.8,1.5-5.4C224.3,408.9,225.9,407.7,228,406.8z M228.8,415.4c0,1.9,0.5,3.4,1.5,4.5c1,1.1,2.2,1.6,3.7,1.6
					c1.4,0,2.6-0.5,3.6-1.6s1.4-2.5,1.4-4.5c0-1.7-0.5-3.1-1.4-4.1c-1-1-2.2-1.6-3.7-1.6c-1.7,0-3,0.6-3.8,1.8
					C229.2,412.7,228.8,414,228.8,415.4z M229.4,399.7c0,1.4,0.4,2.5,1.2,3.3s1.8,1.2,3.1,1.2c1.3,0,2.4-0.4,3.2-1.2
					c0.8-0.8,1.2-1.9,1.2-3.3c0-1.3-0.4-2.4-1.2-3.1c-0.8-0.8-1.8-1.2-3.1-1.2c-1.3,0-2.4,0.4-3.2,1.2S229.4,398.4,229.4,399.7z"/>
				<path class="st4" d="M250.1,416.8l6.8-0.8c0.2,1.7,0.8,3,1.7,4c0.9,0.9,2.1,1.4,3.4,1.4c1.4,0,2.7-0.5,3.6-1.6
					c1-1.1,1.5-2.6,1.5-4.4c0-1.8-0.5-3.2-1.4-4.2c-0.9-1-2.1-1.5-3.5-1.5c-0.9,0-2,0.2-3.2,0.5l0.8-5.7c1.9,0,3.3-0.4,4.3-1.2
					c1-0.9,1.5-2,1.5-3.5c0-1.2-0.4-2.2-1.1-2.9c-0.7-0.7-1.7-1.1-2.9-1.1c-1.2,0-2.2,0.4-3.1,1.2s-1.4,2-1.5,3.6l-6.4-1.1
					c0.4-2.2,1.1-4,2-5.3c0.9-1.3,2.2-2.4,3.8-3.1c1.6-0.8,3.4-1.1,5.4-1.1c3.4,0,6.2,1.1,8.3,3.3c1.7,1.8,2.6,3.8,2.6,6.1
					c0,3.2-1.8,5.8-5.2,7.7c2.1,0.4,3.8,1.5,5,3c1.3,1.6,1.9,3.4,1.9,5.6c0,3.2-1.2,5.9-3.5,8.2c-2.3,2.3-5.2,3.4-8.7,3.4
					c-3.3,0-6-0.9-8.2-2.8C251.7,422.3,250.4,419.8,250.1,416.8z"/>
				<path class="st4" d="M278.7,397v-6.5h23.9v5.1c-2,1.9-4,4.7-6,8.4c-2,3.6-3.6,7.5-4.7,11.6c-1.1,4.1-1.6,7.7-1.6,11h-6.7
					c0.1-5,1.2-10.2,3.1-15.4c2-5.2,4.6-9.9,7.9-14.1H278.7z"/>
			</g>
			<g>
				<path class="st4" d="M314.4,394h2.9v1.6c1-1.3,2.3-1.9,3.7-1.9c0.8,0,1.4,0.2,2,0.5c0.6,0.3,1,0.8,1.4,1.4
					c0.5-0.6,1.1-1.1,1.7-1.4c0.6-0.3,1.3-0.5,1.9-0.5c0.9,0,1.6,0.2,2.2,0.5c0.6,0.4,1.1,0.9,1.4,1.6c0.2,0.5,0.3,1.3,0.3,2.5v7.6
					h-3.2v-6.8c0-1.2-0.1-1.9-0.3-2.3c-0.3-0.4-0.7-0.7-1.3-0.7c-0.4,0-0.9,0.1-1.2,0.4s-0.7,0.7-0.8,1.2s-0.3,1.3-0.3,2.5v5.7h-3.2
					v-6.5c0-1.2-0.1-1.9-0.2-2.2c-0.1-0.3-0.3-0.6-0.5-0.8c-0.2-0.2-0.6-0.2-1-0.2c-0.5,0-0.9,0.1-1.3,0.4c-0.4,0.3-0.7,0.6-0.8,1.1
					c-0.2,0.5-0.3,1.3-0.3,2.5v5.8h-3.2V394z"/>
				<path class="st4" d="M335.1,392.4v-2.9h3.2v2.9H335.1z M335.1,405.9V394h3.2v11.9H335.1z"/>
				<path class="st4" d="M341.5,405.9v-16.5h3.2v16.5H341.5z"/>
				<path class="st4" d="M347.9,405.9v-16.5h3.2v16.5H347.9z"/>
				<path class="st4" d="M354.3,392.4v-2.9h3.2v2.9H354.3z M354.3,405.9V394h3.2v11.9H354.3z"/>
				<path class="st4" d="M359.9,399.8c0-1,0.3-2.1,0.8-3c0.5-1,1.2-1.7,2.2-2.2s2-0.8,3.2-0.8c1.8,0,3.3,0.6,4.4,1.8
					c1.2,1.2,1.7,2.7,1.7,4.4c0,1.8-0.6,3.3-1.7,4.5s-2.6,1.8-4.4,1.8c-1.1,0-2.1-0.2-3.1-0.7s-1.7-1.2-2.3-2.2
					C360.2,402.3,359.9,401.2,359.9,399.8z M363.2,400c0,1.2,0.3,2.1,0.8,2.7c0.6,0.6,1.3,0.9,2.1,0.9c0.8,0,1.5-0.3,2.1-0.9
					c0.6-0.6,0.8-1.5,0.8-2.7c0-1.2-0.3-2.1-0.8-2.7c-0.6-0.6-1.2-0.9-2.1-0.9c-0.8,0-1.5,0.3-2.1,0.9
					C363.4,397.9,363.2,398.8,363.2,400z"/>
				<path class="st4" d="M385.6,405.9h-3.2v-6.1c0-1.3-0.1-2.1-0.2-2.5c-0.1-0.4-0.4-0.7-0.7-0.9c-0.3-0.2-0.7-0.3-1.1-0.3
					c-0.5,0-1,0.1-1.5,0.4c-0.4,0.3-0.7,0.7-0.9,1.2c-0.2,0.5-0.2,1.4-0.2,2.7v5.4h-3.2V394h2.9v1.8c1-1.3,2.4-2,3.9-2
					c0.7,0,1.3,0.1,1.9,0.4c0.6,0.3,1,0.6,1.3,1c0.3,0.4,0.5,0.8,0.6,1.3c0.1,0.5,0.2,1.2,0.2,2.1V405.9z"/>
				<path class="st4" d="M314.3,414.7v-2h1.8v2H314.3z M314.3,426.9v-10.4h1.8v10.4H314.3z"/>
				<path class="st4" d="M318.8,426.9v-10.4h1.6v1.5c0.8-1.1,1.9-1.7,3.3-1.7c0.6,0,1.2,0.1,1.7,0.3c0.5,0.2,0.9,0.5,1.2,0.9
					c0.3,0.4,0.4,0.8,0.5,1.3c0.1,0.3,0.1,0.9,0.1,1.7v6.4h-1.8v-6.3c0-0.7-0.1-1.3-0.2-1.6s-0.4-0.6-0.7-0.8
					c-0.3-0.2-0.8-0.3-1.2-0.3c-0.8,0-1.4,0.2-1.9,0.7c-0.5,0.5-0.8,1.4-0.8,2.7v5.7H318.8z"/>
				<path class="st4" d="M344.2,425.3v1.7h-9.5c0-0.4,0.1-0.8,0.2-1.2c0.2-0.6,0.6-1.3,1.2-1.9c0.5-0.6,1.3-1.3,2.3-2.2
					c1.6-1.3,2.6-2.3,3.2-3s0.8-1.5,0.8-2.1c0-0.7-0.2-1.3-0.7-1.8s-1.1-0.7-1.9-0.7c-0.8,0-1.5,0.3-2,0.8s-0.8,1.2-0.8,2.1
					l-1.8-0.2c0.1-1.3,0.6-2.4,1.4-3.1c0.8-0.7,1.9-1.1,3.3-1.1c1.4,0,2.5,0.4,3.3,1.1s1.2,1.7,1.2,2.8c0,0.6-0.1,1.1-0.4,1.7
					s-0.6,1.1-1.2,1.7c-0.5,0.6-1.4,1.5-2.7,2.5c-1.1,0.9-1.7,1.5-2,1.8c-0.3,0.3-0.5,0.6-0.7,1H344.2z"/>
				<path class="st4" d="M346.1,419.9c0-1.7,0.2-3.1,0.5-4.1c0.3-1,0.9-1.8,1.6-2.4c0.7-0.6,1.6-0.8,2.6-0.8c0.8,0,1.4,0.2,2,0.5
					c0.6,0.3,1.1,0.8,1.4,1.3c0.4,0.6,0.7,1.3,0.9,2.1s0.3,2,0.3,3.4c0,1.7-0.2,3-0.5,4.1c-0.3,1-0.9,1.8-1.5,2.4
					c-0.7,0.6-1.6,0.8-2.6,0.8c-1.4,0-2.5-0.5-3.3-1.5C346.5,424.5,346.1,422.6,346.1,419.9z M347.9,419.9c0,2.4,0.3,3.9,0.8,4.7
					c0.6,0.8,1.2,1.2,2,1.2c0.8,0,1.5-0.4,2-1.2c0.6-0.8,0.8-2.3,0.8-4.7c0-2.4-0.3-3.9-0.8-4.7c-0.5-0.8-1.2-1.2-2.1-1.2
					c-0.8,0-1.5,0.3-1.9,1C348.2,415.9,347.9,417.5,347.9,419.9z"/>
				<path class="st4" d="M363.8,426.9h-1.8v-11.2c-0.4,0.4-1,0.8-1.7,1.2c-0.7,0.4-1.3,0.7-1.8,0.9v-1.7c1-0.5,1.8-1,2.6-1.7
					c0.7-0.7,1.3-1.3,1.6-1.9h1.1V426.9z"/>
				<path class="st4" d="M371,419.2c-0.7-0.3-1.3-0.6-1.6-1.1s-0.5-1.1-0.5-1.8c0-1,0.4-1.9,1.1-2.6c0.7-0.7,1.7-1.1,3-1.1
					c1.2,0,2.3,0.4,3,1.1s1.1,1.6,1.1,2.7c0,0.7-0.2,1.2-0.5,1.7c-0.3,0.5-0.9,0.9-1.6,1.1c0.9,0.3,1.5,0.7,2,1.4s0.7,1.4,0.7,2.3
					c0,1.2-0.4,2.3-1.3,3.1c-0.9,0.8-2,1.2-3.4,1.2c-1.4,0-2.6-0.4-3.4-1.3c-0.9-0.8-1.3-1.9-1.3-3.1c0-0.9,0.2-1.7,0.7-2.3
					C369.5,419.8,370.1,419.4,371,419.2z M370.1,422.8c0,0.5,0.1,1,0.4,1.5c0.2,0.5,0.6,0.8,1.1,1.1s1,0.4,1.5,0.4
					c0.8,0,1.5-0.3,2.1-0.8s0.8-1.2,0.8-2.1c0-0.8-0.3-1.5-0.8-2.1c-0.6-0.6-1.3-0.8-2.1-0.8c-0.8,0-1.5,0.3-2.1,0.8
					C370.4,421.3,370.1,422,370.1,422.8z M370.7,416.2c0,0.7,0.2,1.2,0.7,1.7c0.4,0.4,1,0.6,1.7,0.6c0.7,0,1.2-0.2,1.7-0.6
					c0.4-0.4,0.7-0.9,0.7-1.6c0-0.6-0.2-1.2-0.7-1.6c-0.4-0.4-1-0.7-1.7-0.7c-0.7,0-1.2,0.2-1.7,0.6
					C370.9,415.1,370.7,415.6,370.7,416.2z"/>
			</g>
		</g>
	</g>
	<g>
		<g>
			<g>
				<g>
					<path class="st4" d="M154.3,111.6V98.7c-4-1.1-7-2.9-8.9-5.2c-1.9-2.3-2.8-5.2-2.8-8.5c0-3.4,1.1-6.2,3.2-8.5
						c2.1-2.3,5-3.6,8.5-4v-3h4.5v3c3.3,0.4,5.9,1.5,7.8,3.3c1.9,1.8,3.2,4.3,3.7,7.4l-7.8,1c-0.5-2.4-1.7-4.1-3.7-4.9v12
						c4.9,1.3,8.3,3.1,10.1,5.2c1.8,2.1,2.7,4.9,2.7,8.2c0,3.7-1.1,6.8-3.4,9.4s-5.4,4.1-9.4,4.7v5.8h-4.5V119
						c-3.6-0.4-6.4-1.8-8.7-4c-2.2-2.2-3.6-5.3-4.2-9.4l8-0.9c0.3,1.6,0.9,3.1,1.8,4.2C152.2,110.2,153.2,111.1,154.3,111.6z
						 M154.3,79.3c-1.2,0.4-2.2,1.1-2.9,2.1c-0.7,1-1.1,2.1-1.1,3.3c0,1.1,0.3,2.1,1,3c0.7,0.9,1.7,1.7,3,2.3V79.3z M158.8,112.1
						c1.5-0.3,2.8-1,3.8-2.1c1-1.1,1.4-2.5,1.4-4c0-1.4-0.4-2.6-1.2-3.6c-0.8-1-2.1-1.8-4-2.3V112.1z"/>
					<path class="st4" d="M208.8,110.3v8h-30.3c0.3-3,1.3-5.9,3-8.6c1.6-2.7,4.9-6.3,9.7-10.8c3.9-3.6,6.3-6.1,7.2-7.4
						c1.2-1.8,1.8-3.6,1.8-5.3c0-1.9-0.5-3.4-1.6-4.5c-1-1-2.5-1.6-4.3-1.6c-1.8,0-3.2,0.5-4.3,1.6c-1.1,1.1-1.7,2.9-1.8,5.4
						l-8.6-0.9c0.5-4.8,2.1-8.2,4.8-10.3s6.1-3.1,10.2-3.1c4.5,0,8,1.2,10.5,3.6c2.5,2.4,3.8,5.4,3.8,9c0,2-0.4,4-1.1,5.8
						c-0.7,1.8-1.9,3.8-3.5,5.8c-1,1.3-2.9,3.3-5.7,5.8c-2.7,2.5-4.5,4.2-5.2,5c-0.7,0.8-1.3,1.6-1.8,2.4H208.8z"/>
					<path class="st4" d="M219,118.3v-8.7h8.7v8.7H219z"/>
					<path class="st4" d="M237.3,106.7l8.6-0.9c0.2,2,1,3.5,2.2,4.6c1.2,1.1,2.6,1.7,4.2,1.7c1.8,0,3.3-0.7,4.6-2.2
						c1.3-1.5,1.9-3.7,1.9-6.6c0-2.8-0.6-4.9-1.9-6.2c-1.2-1.4-2.9-2.1-4.9-2.1c-2.5,0-4.7,1.1-6.7,3.3l-7-1l4.4-23.5h22.9v8.1
						h-16.3l-1.4,7.7c1.9-1,3.9-1.4,5.9-1.4c3.8,0,7.1,1.4,9.8,4.2c2.7,2.8,4,6.4,4,10.9c0,3.7-1.1,7-3.2,9.9c-2.9,4-7,6-12.2,6
						c-4.2,0-7.6-1.1-10.2-3.4C239.4,113.5,237.8,110.5,237.3,106.7z"/>
				</g>
				<g>
					<path class="st4" d="M141.2,32.4l1.8-0.2c0.1,0.7,0.3,1.3,0.6,1.8s0.8,0.8,1.4,1.1s1.4,0.4,2.2,0.4c0.7,0,1.4-0.1,1.9-0.3
						s1-0.5,1.2-0.9s0.4-0.8,0.4-1.2c0-0.4-0.1-0.8-0.4-1.2c-0.3-0.3-0.7-0.6-1.3-0.8c-0.4-0.1-1.2-0.4-2.5-0.7s-2.2-0.6-2.8-0.9
						c-0.7-0.4-1.2-0.8-1.5-1.3s-0.5-1.1-0.5-1.8c0-0.7,0.2-1.4,0.6-2s1-1.1,1.8-1.4s1.7-0.5,2.6-0.5c1.1,0,2,0.2,2.8,0.5
						s1.4,0.8,1.9,1.5s0.7,1.4,0.7,2.3l-1.8,0.1c-0.1-0.9-0.4-1.6-1-2.1s-1.4-0.7-2.5-0.7c-1.1,0-2,0.2-2.5,0.6s-0.8,0.9-0.8,1.5
						c0,0.5,0.2,0.9,0.6,1.3c0.4,0.3,1.3,0.7,2.9,1s2.6,0.7,3.2,0.9c0.8,0.4,1.4,0.9,1.8,1.5s0.6,1.3,0.6,2c0,0.8-0.2,1.5-0.7,2.2
						s-1.1,1.2-1.9,1.6s-1.7,0.6-2.8,0.6c-1.3,0-2.4-0.2-3.3-0.6s-1.6-0.9-2.1-1.7S141.2,33.4,141.2,32.4z"/>
					<path class="st4" d="M161.4,35.8c-0.7,0.6-1.3,0.9-1.9,1.2s-1.2,0.3-1.9,0.3c-1.1,0-2-0.3-2.6-0.8s-0.9-1.3-0.9-2.1
						c0-0.5,0.1-1,0.3-1.4s0.5-0.8,0.9-1c0.4-0.3,0.8-0.4,1.3-0.6c0.3-0.1,0.9-0.2,1.6-0.3c1.4-0.2,2.5-0.4,3.1-0.6
						c0-0.2,0-0.4,0-0.5c0-0.7-0.2-1.2-0.5-1.5c-0.4-0.4-1.1-0.6-2-0.6c-0.8,0-1.4,0.1-1.8,0.4s-0.7,0.8-0.9,1.5l-1.7-0.2
						c0.2-0.7,0.4-1.3,0.8-1.8s0.9-0.8,1.6-1s1.5-0.4,2.4-0.4c0.9,0,1.6,0.1,2.2,0.3s1,0.5,1.2,0.8s0.4,0.7,0.5,1.2
						c0.1,0.3,0.1,0.8,0.1,1.6v2.3c0,1.6,0,2.7,0.1,3.1s0.2,0.8,0.4,1.2h-1.8C161.5,36.7,161.4,36.3,161.4,35.8z M161.2,31.8
						c-0.6,0.3-1.6,0.5-2.9,0.7c-0.7,0.1-1.2,0.2-1.5,0.4s-0.5,0.3-0.7,0.6s-0.2,0.5-0.2,0.8c0,0.5,0.2,0.9,0.5,1.2s0.9,0.5,1.6,0.5
						c0.7,0,1.3-0.1,1.8-0.4s0.9-0.7,1.2-1.2c0.2-0.4,0.3-1,0.3-1.8V31.8z"/>
					<path class="st4" d="M165.3,37V22.7h1.8V37H165.3z"/>
					<path class="st4" d="M176.6,33.7l1.8,0.2c-0.3,1.1-0.8,1.9-1.6,2.5s-1.8,0.9-3,0.9c-1.5,0-2.7-0.5-3.6-1.4s-1.3-2.2-1.3-3.9
						c0-1.7,0.4-3.1,1.3-4.1s2.1-1.4,3.5-1.4c1.4,0,2.5,0.5,3.4,1.4s1.3,2.3,1.3,4c0,0.1,0,0.3,0,0.5h-7.7c0.1,1.1,0.4,2,1,2.6
						s1.3,0.9,2.2,0.9c0.6,0,1.2-0.2,1.7-0.5S176.3,34.5,176.6,33.7z M170.8,30.9h5.8c-0.1-0.9-0.3-1.5-0.7-2c-0.6-0.7-1.3-1-2.2-1
						c-0.8,0-1.5,0.3-2,0.8C171.2,29.2,170.9,30,170.8,30.9z"/>
					<path class="st4" d="M179.6,34l1.7-0.3c0.1,0.7,0.4,1.2,0.8,1.6s1.1,0.6,1.9,0.6c0.8,0,1.4-0.2,1.8-0.5s0.6-0.7,0.6-1.2
						c0-0.4-0.2-0.7-0.5-0.9c-0.2-0.2-0.8-0.4-1.8-0.6c-1.3-0.3-2.2-0.6-2.7-0.8c-0.5-0.2-0.9-0.6-1.1-1s-0.4-0.9-0.4-1.4
						c0-0.5,0.1-0.9,0.3-1.3s0.5-0.7,0.9-1c0.3-0.2,0.6-0.4,1.1-0.5s1-0.2,1.5-0.2c0.8,0,1.5,0.1,2.1,0.4s1.1,0.6,1.4,1
						s0.5,0.9,0.6,1.6l-1.7,0.2c-0.1-0.5-0.3-1-0.7-1.2s-0.9-0.4-1.6-0.4c-0.8,0-1.4,0.1-1.7,0.4s-0.5,0.6-0.5,0.9
						c0,0.2,0.1,0.4,0.2,0.6c0.1,0.2,0.4,0.3,0.7,0.5c0.2,0.1,0.7,0.2,1.6,0.4c1.2,0.3,2.1,0.6,2.6,0.8s0.9,0.5,1.2,0.9
						s0.4,0.9,0.4,1.5c0,0.6-0.2,1.1-0.5,1.7s-0.8,0.9-1.5,1.2s-1.4,0.4-2.2,0.4c-1.3,0-2.4-0.3-3.1-0.8S179.8,35.1,179.6,34z"/>
					<path class="st4" d="M195.1,24.8v-2h1.8v2H195.1z M195.1,37V26.7h1.8V37H195.1z"/>
					<path class="st4" d="M199.2,37V26.7h1.6v1.5c0.8-1.1,1.9-1.7,3.3-1.7c0.6,0,1.2,0.1,1.7,0.3s0.9,0.5,1.2,0.9s0.4,0.8,0.5,1.3
						c0.1,0.3,0.1,0.9,0.1,1.7V37h-1.8v-6.3c0-0.7-0.1-1.3-0.2-1.6c-0.1-0.4-0.4-0.6-0.7-0.8s-0.8-0.3-1.2-0.3
						c-0.7,0-1.4,0.2-1.9,0.7c-0.5,0.5-0.8,1.4-0.8,2.7V37H199.2z"/>
					<path class="st4" d="M216.8,33.3l1.7,0.2c-0.2,1.2-0.7,2.1-1.5,2.8s-1.7,1-2.9,1c-1.4,0-2.6-0.5-3.4-1.4s-1.3-2.3-1.3-4
						c0-1.1,0.2-2.1,0.6-2.9s0.9-1.5,1.7-1.9s1.6-0.6,2.5-0.6c1.1,0,2,0.3,2.8,0.9s1.2,1.4,1.4,2.4l-1.7,0.3
						c-0.2-0.7-0.5-1.2-0.9-1.6s-0.9-0.5-1.5-0.5c-0.9,0-1.6,0.3-2.2,1s-0.8,1.6-0.8,3c0,1.4,0.3,2.4,0.8,3s1.2,0.9,2.1,0.9
						c0.7,0,1.3-0.2,1.7-0.6S216.7,34.1,216.8,33.3z"/>
					<path class="st4" d="M219.7,37V26.7h1.6v1.6c0.4-0.7,0.8-1.2,1.1-1.5s0.7-0.4,1.1-0.4c0.6,0,1.2,0.2,1.8,0.6l-0.6,1.6
						c-0.4-0.3-0.9-0.4-1.3-0.4c-0.4,0-0.7,0.1-1,0.3s-0.5,0.6-0.7,1c-0.2,0.6-0.3,1.3-0.3,2.1V37H219.7z"/>
					<path class="st4" d="M233.1,33.7l1.8,0.2c-0.3,1.1-0.8,1.9-1.6,2.5s-1.8,0.9-3,0.9c-1.5,0-2.7-0.5-3.6-1.4s-1.3-2.2-1.3-3.9
						c0-1.7,0.4-3.1,1.3-4.1s2.1-1.4,3.5-1.4c1.4,0,2.5,0.5,3.4,1.4s1.3,2.3,1.3,4c0,0.1,0,0.3,0,0.5h-7.7c0.1,1.1,0.4,2,1,2.6
						s1.3,0.9,2.2,0.9c0.6,0,1.2-0.2,1.7-0.5S232.8,34.5,233.1,33.7z M227.3,30.9h5.8c-0.1-0.9-0.3-1.5-0.7-2c-0.6-0.7-1.3-1-2.2-1
						c-0.8,0-1.5,0.3-2,0.8C227.7,29.2,227.4,30,227.3,30.9z"/>
					<path class="st4" d="M243.6,35.8c-0.7,0.6-1.3,0.9-1.9,1.2s-1.2,0.3-1.9,0.3c-1.1,0-2-0.3-2.6-0.8s-0.9-1.3-0.9-2.1
						c0-0.5,0.1-1,0.3-1.4s0.5-0.8,0.9-1c0.4-0.3,0.8-0.4,1.3-0.6c0.3-0.1,0.9-0.2,1.6-0.3c1.4-0.2,2.5-0.4,3.1-0.6
						c0-0.2,0-0.4,0-0.5c0-0.7-0.2-1.2-0.5-1.5c-0.4-0.4-1.1-0.6-2-0.6c-0.8,0-1.4,0.1-1.8,0.4s-0.7,0.8-0.9,1.5l-1.7-0.2
						c0.2-0.7,0.4-1.3,0.8-1.8s0.9-0.8,1.6-1s1.5-0.4,2.4-0.4c0.9,0,1.6,0.1,2.2,0.3s1,0.5,1.2,0.8s0.4,0.7,0.5,1.2
						c0.1,0.3,0.1,0.8,0.1,1.6v2.3c0,1.6,0,2.7,0.1,3.1s0.2,0.8,0.4,1.2h-1.8C243.7,36.7,243.6,36.3,243.6,35.8z M243.4,31.8
						c-0.6,0.3-1.6,0.5-2.9,0.7c-0.7,0.1-1.2,0.2-1.5,0.4s-0.5,0.3-0.7,0.6s-0.2,0.5-0.2,0.8c0,0.5,0.2,0.9,0.5,1.2s0.9,0.5,1.6,0.5
						c0.7,0,1.3-0.1,1.8-0.4s0.9-0.7,1.2-1.2c0.2-0.4,0.3-1,0.3-1.8V31.8z"/>
					<path class="st4" d="M246.9,34l1.7-0.3c0.1,0.7,0.4,1.2,0.8,1.6s1.1,0.6,1.9,0.6c0.8,0,1.4-0.2,1.8-0.5s0.6-0.7,0.6-1.2
						c0-0.4-0.2-0.7-0.5-0.9c-0.2-0.2-0.8-0.4-1.8-0.6c-1.3-0.3-2.2-0.6-2.7-0.8c-0.5-0.2-0.9-0.6-1.1-1s-0.4-0.9-0.4-1.4
						c0-0.5,0.1-0.9,0.3-1.3s0.5-0.7,0.9-1c0.3-0.2,0.6-0.4,1.1-0.5s1-0.2,1.5-0.2c0.8,0,1.5,0.1,2.1,0.4s1.1,0.6,1.4,1
						s0.5,0.9,0.6,1.6l-1.7,0.2c-0.1-0.5-0.3-1-0.7-1.2s-0.9-0.4-1.6-0.4c-0.8,0-1.4,0.1-1.7,0.4s-0.5,0.6-0.5,0.9
						c0,0.2,0.1,0.4,0.2,0.6c0.1,0.2,0.4,0.3,0.7,0.5c0.2,0.1,0.7,0.2,1.6,0.4c1.2,0.3,2.1,0.6,2.6,0.8s0.9,0.5,1.2,0.9
						s0.4,0.9,0.4,1.5c0,0.6-0.2,1.1-0.5,1.7s-0.8,0.9-1.5,1.2s-1.4,0.4-2.2,0.4c-1.3,0-2.4-0.3-3.1-0.8S247.1,35.1,246.9,34z"/>
					<path class="st4" d="M264.3,33.7l1.8,0.2c-0.3,1.1-0.8,1.9-1.6,2.5s-1.8,0.9-3,0.9c-1.5,0-2.7-0.5-3.6-1.4s-1.3-2.2-1.3-3.9
						c0-1.7,0.4-3.1,1.3-4.1s2.1-1.4,3.5-1.4c1.4,0,2.5,0.5,3.4,1.4s1.3,2.3,1.3,4c0,0.1,0,0.3,0,0.5h-7.7c0.1,1.1,0.4,2,1,2.6
						s1.3,0.9,2.2,0.9c0.6,0,1.2-0.2,1.7-0.5S264.1,34.5,264.3,33.7z M258.6,30.9h5.8c-0.1-0.9-0.3-1.5-0.7-2c-0.6-0.7-1.3-1-2.2-1
						c-0.8,0-1.5,0.3-2,0.8C258.9,29.2,258.6,30,258.6,30.9z"/>
					<path class="st4" d="M274.7,37v-1.3c-0.7,1-1.6,1.5-2.9,1.5c-0.8,0-1.6-0.2-2.3-0.7s-1.2-1.1-1.6-1.9s-0.6-1.8-0.6-2.8
						c0-1,0.2-2,0.5-2.8c0.3-0.8,0.9-1.5,1.6-1.9s1.5-0.7,2.3-0.7c0.6,0,1.2,0.1,1.7,0.4s0.9,0.6,1.2,1v-5.1h1.7V37H274.7z
						 M269.2,31.9c0,1.3,0.3,2.3,0.8,3s1.2,1,2,1c0.8,0,1.4-0.3,2-0.9s0.8-1.6,0.8-2.9c0-1.4-0.3-2.5-0.8-3.1s-1.2-1-2-1
						c-0.8,0-1.4,0.3-2,1C269.4,29.5,269.2,30.5,269.2,31.9z"/>
					<path class="st4" d="M285.6,37H284V22.7h1.8v5.1c0.7-0.9,1.7-1.4,2.8-1.4c0.6,0,1.2,0.1,1.8,0.4s1,0.6,1.4,1.1s0.7,1,0.9,1.7
						c0.2,0.7,0.3,1.4,0.3,2.1c0,1.8-0.4,3.2-1.3,4.1s-1.9,1.5-3.2,1.5c-1.2,0-2.2-0.5-2.9-1.5V37z M285.6,31.8
						c0,1.2,0.2,2.1,0.5,2.7c0.6,0.9,1.3,1.4,2.2,1.4c0.8,0,1.4-0.3,2-1s0.8-1.7,0.8-3c0-1.4-0.3-2.4-0.8-3s-1.2-1-1.9-1
						c-0.8,0-1.4,0.3-2,1C285.9,29.6,285.6,30.5,285.6,31.8z"/>
					<path class="st4" d="M294.7,41l-0.2-1.7c0.4,0.1,0.7,0.2,1,0.2c0.4,0,0.7-0.1,0.9-0.2s0.4-0.3,0.6-0.5c0.1-0.2,0.3-0.6,0.5-1.3
						c0-0.1,0.1-0.2,0.2-0.4l-3.9-10.4h1.9l2.2,6c0.3,0.8,0.5,1.6,0.8,2.4c0.2-0.8,0.4-1.6,0.7-2.4l2.2-6h1.8l-3.9,10.5
						c-0.4,1.1-0.8,1.9-1,2.4c-0.3,0.6-0.7,1-1.1,1.3s-0.9,0.4-1.4,0.4C295.5,41.3,295.1,41.2,294.7,41z"/>
					<path class="st4" d="M318.3,26.2l-1.7,0.1c-0.2-0.7-0.4-1.2-0.7-1.5c-0.5-0.5-1.1-0.8-1.8-0.8c-0.6,0-1.1,0.2-1.5,0.5
						c-0.6,0.4-1,1-1.3,1.8s-0.5,1.9-0.5,3.3c0.4-0.6,0.9-1.1,1.6-1.4s1.3-0.5,1.9-0.5c1.2,0,2.2,0.4,3,1.3c0.8,0.9,1.2,2,1.2,3.3
						c0,0.9-0.2,1.7-0.6,2.5s-0.9,1.4-1.6,1.8s-1.4,0.6-2.3,0.6c-1.5,0-2.7-0.5-3.6-1.6s-1.4-2.9-1.4-5.3c0-2.8,0.5-4.8,1.5-6
						c0.9-1.1,2.1-1.6,3.6-1.6c1.1,0,2,0.3,2.8,0.9S318.2,25.1,318.3,26.2z M311.1,32.4c0,0.6,0.1,1.2,0.4,1.7s0.6,1,1.1,1.3
						s0.9,0.4,1.5,0.4c0.7,0,1.4-0.3,1.9-0.9s0.8-1.4,0.8-2.4c0-1-0.3-1.8-0.8-2.3s-1.2-0.9-2-0.9c-0.8,0-1.5,0.3-2,0.9
						S311.1,31.5,311.1,32.4z"/>
					<path class="st4" d="M320.3,26.2c0-1,0.3-1.9,0.8-2.6s1.3-1.1,2.2-1.1c0.9,0,1.6,0.3,2.2,1s0.9,1.6,0.9,2.8
						c0,1.2-0.3,2.1-0.9,2.8s-1.3,1-2.2,1c-0.9,0-1.6-0.3-2.2-1S320.3,27.5,320.3,26.2z M323.4,23.7c-0.4,0-0.8,0.2-1.1,0.6
						s-0.4,1.1-0.4,2.1c0,0.9,0.1,1.6,0.4,1.9s0.7,0.6,1.1,0.6c0.4,0,0.8-0.2,1.1-0.6s0.4-1.1,0.4-2.1c0-0.9-0.1-1.6-0.4-1.9
						S323.8,23.7,323.4,23.7z M323.4,37.6l7.8-15.1h1.4l-7.8,15.1H323.4z M329.6,33.7c0-1,0.3-1.9,0.8-2.6s1.3-1.1,2.2-1.1
						c0.9,0,1.6,0.3,2.2,1s0.9,1.6,0.9,2.8c0,1.2-0.3,2.1-0.9,2.8s-1.3,1-2.2,1c-0.9,0-1.6-0.3-2.2-1S329.6,35,329.6,33.7z
						 M332.6,31.2c-0.4,0-0.8,0.2-1.1,0.6c-0.3,0.4-0.4,1.1-0.4,2.1c0,0.9,0.1,1.6,0.4,1.9s0.7,0.6,1.1,0.6c0.4,0,0.8-0.2,1.1-0.6
						s0.4-1.1,0.4-2.1c0-0.9-0.1-1.6-0.4-1.9C333.4,31.4,333.1,31.2,332.6,31.2z"/>
					<path class="st4" d="M343.5,37v-9H342v-1.4h1.6v-1.1c0-0.7,0.1-1.2,0.2-1.6c0.2-0.5,0.5-0.8,0.9-1.1s1-0.4,1.8-0.4
						c0.5,0,1,0.1,1.6,0.2l-0.3,1.5c-0.4-0.1-0.7-0.1-1-0.1c-0.5,0-0.9,0.1-1.1,0.3s-0.3,0.7-0.3,1.3v1h2V28h-2v9H343.5z"/>
					<path class="st4" d="M348.3,37V26.7h1.6v1.6c0.4-0.7,0.8-1.2,1.1-1.5s0.7-0.4,1.1-0.4c0.6,0,1.2,0.2,1.8,0.6l-0.6,1.6
						c-0.4-0.3-0.9-0.4-1.3-0.4c-0.4,0-0.7,0.1-1,0.3s-0.5,0.6-0.7,1c-0.2,0.6-0.3,1.3-0.3,2.1V37H348.3z"/>
					<path class="st4" d="M354,31.9c0-1.9,0.5-3.3,1.6-4.3c0.9-0.8,2-1.2,3.3-1.2c1.4,0,2.6,0.5,3.5,1.4s1.4,2.2,1.4,3.9
						c0,1.3-0.2,2.4-0.6,3.1s-1,1.4-1.7,1.8s-1.6,0.6-2.5,0.6c-1.5,0-2.6-0.5-3.5-1.4S354,33.6,354,31.9z M355.8,31.9
						c0,1.3,0.3,2.3,0.9,3s1.3,1,2.2,1c0.9,0,1.6-0.3,2.2-1s0.9-1.7,0.9-3c0-1.3-0.3-2.3-0.9-2.9c-0.6-0.7-1.3-1-2.2-1
						c-0.9,0-1.6,0.3-2.2,1C356.1,29.5,355.8,30.5,355.8,31.9z"/>
					<path class="st4" d="M365.4,37V26.7h1.6v1.5c0.3-0.5,0.8-0.9,1.3-1.2s1.2-0.5,1.8-0.5c0.8,0,1.4,0.2,1.9,0.5s0.8,0.8,1,1.3
						c0.8-1.2,1.9-1.8,3.2-1.8c1,0,1.8,0.3,2.4,0.9s0.8,1.4,0.8,2.6V37h-1.7v-6.5c0-0.7-0.1-1.2-0.2-1.5c-0.1-0.3-0.3-0.6-0.6-0.7
						s-0.7-0.3-1.1-0.3c-0.7,0-1.3,0.2-1.8,0.7c-0.5,0.5-0.7,1.3-0.7,2.3v6h-1.8v-6.7c0-0.8-0.1-1.4-0.4-1.8s-0.8-0.6-1.4-0.6
						c-0.5,0-1,0.1-1.4,0.4s-0.7,0.6-0.9,1.1c-0.2,0.5-0.3,1.2-0.3,2.2V37H365.4z"/>
				</g>
				<g>
					<path class="st4" d="M144.8,60.1v-4.7c-1.5-0.4-2.5-1.1-3.2-1.9c-0.7-0.9-1-1.9-1-3.1c0-1.2,0.4-2.3,1.2-3.1
						c0.8-0.8,1.8-1.3,3.1-1.4v-1.1h1.6v1.1c1.2,0.1,2.1,0.5,2.8,1.2c0.7,0.7,1.2,1.6,1.3,2.7l-2.8,0.4c-0.2-0.9-0.6-1.5-1.3-1.8
						v4.4c1.8,0.5,3,1.1,3.7,1.9c0.7,0.8,1,1.8,1,3c0,1.4-0.4,2.5-1.2,3.4c-0.8,0.9-2,1.5-3.4,1.7v2.1h-1.6v-2
						c-1.3-0.2-2.3-0.6-3.2-1.4s-1.3-2-1.5-3.4l2.9-0.3c0.1,0.6,0.3,1.1,0.7,1.5C144,59.6,144.4,59.9,144.8,60.1z M144.8,48.3
						c-0.4,0.1-0.8,0.4-1.1,0.8c-0.3,0.4-0.4,0.8-0.4,1.2c0,0.4,0.1,0.8,0.4,1.1c0.2,0.3,0.6,0.6,1.1,0.8V48.3z M146.4,60.3
						c0.6-0.1,1-0.4,1.4-0.8c0.4-0.4,0.5-0.9,0.5-1.5c0-0.5-0.1-0.9-0.4-1.3s-0.8-0.6-1.5-0.8V60.3z"/>
					<path class="st4" d="M165.7,59.6v2.9h-11.1c0.1-1.1,0.5-2.2,1.1-3.2c0.6-1,1.8-2.3,3.5-3.9c1.4-1.3,2.3-2.2,2.6-2.7
						c0.4-0.7,0.7-1.3,0.7-1.9c0-0.7-0.2-1.2-0.6-1.6c-0.4-0.4-0.9-0.6-1.6-0.6c-0.7,0-1.2,0.2-1.6,0.6s-0.6,1.1-0.7,2l-3.1-0.3
						c0.2-1.7,0.8-3,1.8-3.7s2.2-1.1,3.7-1.1c1.6,0,2.9,0.4,3.8,1.3s1.4,2,1.4,3.3c0,0.7-0.1,1.4-0.4,2.1c-0.3,0.7-0.7,1.4-1.3,2.1
						c-0.4,0.5-1.1,1.2-2.1,2.1c-1,0.9-1.6,1.5-1.9,1.8c-0.3,0.3-0.5,0.6-0.6,0.9H165.7z"/>
					<path class="st4" d="M170.5,62.5v-3.2h3.2v3.2H170.5z"/>
					<path class="st4" d="M178,58.2l3.1-0.4c0.1,0.8,0.4,1.4,0.8,1.8c0.4,0.4,0.9,0.6,1.6,0.6c0.7,0,1.2-0.2,1.6-0.7s0.7-1.2,0.7-2
						c0-0.8-0.2-1.4-0.6-1.9c-0.4-0.5-0.9-0.7-1.6-0.7c-0.4,0-0.9,0.1-1.4,0.2l0.3-2.6c0.9,0,1.5-0.2,2-0.6c0.4-0.4,0.7-0.9,0.7-1.6
						c0-0.6-0.2-1-0.5-1.3c-0.3-0.3-0.8-0.5-1.3-0.5c-0.5,0-1,0.2-1.4,0.6c-0.4,0.4-0.6,0.9-0.7,1.6l-2.9-0.5c0.2-1,0.5-1.8,0.9-2.4
						c0.4-0.6,1-1.1,1.7-1.4c0.7-0.3,1.5-0.5,2.5-0.5c1.5,0,2.8,0.5,3.7,1.5c0.8,0.8,1.2,1.7,1.2,2.7c0,1.4-0.8,2.6-2.4,3.5
						c0.9,0.2,1.7,0.7,2.3,1.4c0.6,0.7,0.8,1.6,0.8,2.5c0,1.4-0.5,2.7-1.6,3.7c-1.1,1-2.4,1.5-3.9,1.5c-1.5,0-2.7-0.4-3.7-1.3
						C178.8,60.7,178.2,59.5,178,58.2z"/>
					<path class="st4" d="M201.8,62.5V46.1h3.2V52c1-1.1,2.1-1.7,3.5-1.7c1.5,0,2.7,0.5,3.6,1.6c1,1.1,1.4,2.6,1.4,4.5
						c0,2-0.5,3.6-1.5,4.7c-1,1.1-2.1,1.7-3.5,1.7c-0.7,0-1.4-0.2-2-0.5c-0.7-0.3-1.2-0.8-1.7-1.5v1.8H201.8z M205,56.3
						c0,1.2,0.2,2.1,0.6,2.7c0.5,0.8,1.3,1.3,2.2,1.3c0.7,0,1.3-0.3,1.8-0.9c0.5-0.6,0.7-1.5,0.7-2.8c0-1.4-0.2-2.3-0.7-2.9
						c-0.5-0.6-1.1-0.9-1.9-0.9c-0.8,0-1.4,0.3-1.9,0.9C205.2,54.2,205,55.1,205,56.3z"/>
					<path class="st4" d="M218,49v-2.9h3.2V49H218z M218,62.5V50.6h3.2v11.9H218z"/>
					<path class="st4" d="M226.4,62.5V46.1h3.2v16.5H226.4z"/>
					<path class="st4" d="M234.7,62.5V46.1h3.2v16.5H234.7z"/>
					<path class="st4" d="M243.1,49v-2.9h3.2V49H243.1z M243.1,62.5V50.6h3.2v11.9H243.1z"/>
					<path class="st4" d="M250.7,56.4c0-1,0.3-2.1,0.8-3c0.5-1,1.2-1.7,2.2-2.2s2-0.8,3.2-0.8c1.8,0,3.3,0.6,4.4,1.8
						c1.2,1.2,1.7,2.7,1.7,4.4c0,1.8-0.6,3.3-1.7,4.5s-2.6,1.8-4.4,1.8c-1.1,0-2.1-0.2-3.1-0.7s-1.7-1.2-2.3-2.2
						C251,58.9,250.7,57.8,250.7,56.4z M254,56.6c0,1.2,0.3,2.1,0.8,2.7c0.6,0.6,1.3,0.9,2.1,0.9s1.5-0.3,2.1-0.9s0.8-1.5,0.8-2.7
						c0-1.2-0.3-2.1-0.8-2.7s-1.2-0.9-2.1-0.9s-1.5,0.3-2.1,0.9C254.3,54.5,254,55.4,254,56.6z"/>
					<path class="st4" d="M278.3,62.5h-3.2v-6.1c0-1.3-0.1-2.1-0.2-2.5c-0.1-0.4-0.4-0.7-0.7-0.9c-0.3-0.2-0.7-0.3-1.1-0.3
						c-0.5,0-1,0.1-1.5,0.4c-0.4,0.3-0.7,0.7-0.9,1.2c-0.2,0.5-0.2,1.4-0.2,2.7v5.4h-3.2V50.6h2.9v1.8c1-1.3,2.4-2,3.9-2
						c0.7,0,1.3,0.1,1.9,0.4c0.6,0.3,1,0.6,1.3,1s0.5,0.8,0.6,1.3s0.2,1.2,0.2,2.1V62.5z"/>
					<path class="st4" d="M290.5,50.2v-2h1.8v2H290.5z M290.5,62.5V52.2h1.8v10.4H290.5z"/>
					<path class="st4" d="M296.6,62.5V52.2h1.6v1.5c0.8-1.1,1.9-1.7,3.3-1.7c0.6,0,1.2,0.1,1.7,0.3s0.9,0.5,1.2,0.9s0.4,0.8,0.5,1.3
						c0.1,0.3,0.1,0.9,0.1,1.7v6.4h-1.8v-6.3c0-0.7-0.1-1.3-0.2-1.6c-0.1-0.4-0.4-0.6-0.7-0.8s-0.8-0.3-1.2-0.3
						c-0.7,0-1.4,0.2-1.9,0.7c-0.5,0.5-0.8,1.4-0.8,2.7v5.7H296.6z"/>
					<path class="st4" d="M325.5,60.8v1.7H316c0-0.4,0.1-0.8,0.2-1.2c0.2-0.6,0.6-1.3,1.2-1.9s1.3-1.3,2.3-2.2
						c1.6-1.3,2.6-2.3,3.2-3c0.5-0.7,0.8-1.5,0.8-2.1c0-0.7-0.2-1.3-0.7-1.8s-1.1-0.7-1.9-0.7c-0.8,0-1.5,0.3-2,0.8
						s-0.8,1.2-0.8,2.1l-1.8-0.2c0.1-1.3,0.6-2.4,1.4-3.1s1.9-1.1,3.3-1.1c1.4,0,2.5,0.4,3.3,1.1s1.2,1.7,1.2,2.8
						c0,0.6-0.1,1.1-0.4,1.7s-0.6,1.1-1.2,1.7c-0.5,0.6-1.4,1.5-2.7,2.5c-1.1,0.9-1.7,1.5-2,1.8s-0.5,0.6-0.7,1H325.5z"/>
					<path class="st4" d="M329.1,55.5c0-1.7,0.2-3.1,0.5-4.1s0.9-1.8,1.6-2.4s1.6-0.8,2.6-0.8c0.8,0,1.4,0.2,2,0.5s1.1,0.8,1.4,1.3
						s0.7,1.3,0.9,2.1s0.3,2,0.3,3.4c0,1.7-0.2,3-0.5,4.1s-0.9,1.8-1.5,2.4s-1.6,0.8-2.6,0.8c-1.4,0-2.5-0.5-3.3-1.5
						C329.6,60.1,329.1,58.2,329.1,55.5z M330.9,55.5c0,2.4,0.3,3.9,0.8,4.7s1.2,1.2,2,1.2s1.5-0.4,2-1.2s0.8-2.3,0.8-4.7
						c0-2.4-0.3-3.9-0.8-4.7s-1.2-1.2-2.1-1.2c-0.8,0-1.5,0.3-1.9,1C331.2,51.5,330.9,53.1,330.9,55.5z"/>
					<path class="st4" d="M348.6,62.5h-1.8V51.3c-0.4,0.4-1,0.8-1.7,1.2s-1.3,0.7-1.9,0.9v-1.7c1-0.5,1.8-1,2.6-1.7s1.3-1.3,1.6-1.9
						h1.1V62.5z"/>
					<path class="st4" d="M354.9,50.1v-1.7h9.3v1.4c-0.9,1-1.8,2.3-2.7,3.9c-0.9,1.6-1.6,3.3-2.1,5c-0.4,1.2-0.6,2.5-0.7,3.9h-1.8
						c0-1.1,0.2-2.5,0.7-4.1s1-3.1,1.8-4.6c0.8-1.5,1.6-2.7,2.5-3.7H354.9z"/>
					<path class="st4" d="M379.2,61l0.3,1.6c-0.5,0.1-0.9,0.2-1.3,0.2c-0.6,0-1.1-0.1-1.5-0.3s-0.6-0.5-0.7-0.8s-0.2-1-0.2-2.1v-6
						h-1.3v-1.4h1.3v-2.6l1.7-1.1v3.6h1.8v1.4h-1.8v6.1c0,0.5,0,0.8,0.1,1s0.2,0.3,0.3,0.3s0.3,0.1,0.6,0.1
						C378.7,61,378.9,61,379.2,61z"/>
					<path class="st4" d="M382,57.3c0-1.9,0.5-3.3,1.6-4.3c0.9-0.8,2-1.2,3.3-1.2c1.4,0,2.6,0.5,3.5,1.4s1.4,2.2,1.4,3.9
						c0,1.3-0.2,2.4-0.6,3.1s-1,1.4-1.7,1.8s-1.6,0.6-2.5,0.6c-1.5,0-2.6-0.5-3.5-1.4S382,59.1,382,57.3z M383.8,57.3
						c0,1.3,0.3,2.3,0.9,3s1.3,1,2.2,1c0.9,0,1.6-0.3,2.2-1s0.9-1.7,0.9-3c0-1.3-0.3-2.3-0.9-2.9c-0.6-0.7-1.3-1-2.2-1
						c-0.9,0-1.6,0.3-2.2,1C384.1,55,383.8,56,383.8,57.3z"/>
				</g>
				<g>
					<g>
						<path class="st4" d="M26.8,85.3L16.6,56.7h6.3l7.2,21.2l7-21.2h6.1L33,85.3H26.8z"/>
						<path class="st4" d="M45.4,61.8v-5.1h5.5v5.1H45.4z M45.4,85.3V64.6h5.5v20.7H45.4z"/>
						<path class="st4" d="M75.4,85.3h-5.5V74.8c0-2.2-0.1-3.7-0.4-4.3c-0.2-0.7-0.6-1.2-1.1-1.5c-0.5-0.4-1.2-0.5-1.9-0.5
							c-1,0-1.8,0.3-2.6,0.8c-0.8,0.5-1.3,1.2-1.6,2.1S62,73.6,62,76v9.4h-5.5V64.6h5.1v3c1.8-2.3,4.1-3.5,6.8-3.5
							c1.2,0,2.3,0.2,3.3,0.7c1,0.4,1.8,1,2.3,1.7c0.5,0.7,0.9,1.4,1.1,2.3s0.3,2.1,0.3,3.7V85.3z"/>
						<path class="st4" d="M78.4,64.6h5.8l5,14.7L94,64.6h5.7l-7.3,20L91,88.2c-0.5,1.2-0.9,2.1-1.4,2.8s-0.9,1.2-1.5,1.6
							s-1.3,0.7-2.1,0.9s-1.8,0.3-2.8,0.3c-1.1,0-2.1-0.1-3.1-0.3l-0.5-4.3c0.9,0.2,1.6,0.3,2.3,0.3c1.3,0,2.2-0.4,2.8-1.1
							s1.1-1.7,1.4-2.9L78.4,64.6z"/>
						<path class="st4" d="M103.2,85.3V56.7h5.5v28.6H103.2z"/>
					</g>
				</g>
				<rect x="123.2" y="29.5" class="st4" width="2.7" height="88.5"/>
			</g>
		</g>
		<g>
			<path class="st4" d="M284.1,92.9V76.5h3.2v5.9c1-1.1,2.1-1.7,3.5-1.7c1.5,0,2.7,0.5,3.6,1.6c1,1.1,1.4,2.6,1.4,4.5
				c0,2-0.5,3.6-1.5,4.7c-1,1.1-2.1,1.7-3.5,1.7c-0.7,0-1.4-0.2-2-0.5c-0.7-0.3-1.2-0.8-1.7-1.5v1.8H284.1z M287.3,86.7
				c0,1.2,0.2,2.1,0.6,2.7c0.5,0.8,1.3,1.3,2.2,1.3c0.7,0,1.3-0.3,1.8-0.9c0.5-0.6,0.7-1.5,0.7-2.8c0-1.4-0.2-2.3-0.7-2.9
				c-0.5-0.6-1.1-0.9-1.9-0.9c-0.8,0-1.4,0.3-1.9,0.9C287.5,84.6,287.3,85.5,287.3,86.7z"/>
			<path class="st4" d="M298.3,79.4v-2.9h3.2v2.9H298.3z M298.3,92.9V81h3.2v11.9H298.3z"/>
			<path class="st4" d="M304.7,92.9V76.5h3.2v16.5H304.7z"/>
			<path class="st4" d="M311.1,92.9V76.5h3.2v16.5H311.1z"/>
			<path class="st4" d="M317.5,79.4v-2.9h3.2v2.9H317.5z M317.5,92.9V81h3.2v11.9H317.5z"/>
			<path class="st4" d="M323.2,86.8c0-1,0.3-2.1,0.8-3c0.5-1,1.2-1.7,2.2-2.2s2-0.8,3.2-0.8c1.8,0,3.3,0.6,4.4,1.8
				c1.2,1.2,1.7,2.7,1.7,4.4c0,1.8-0.6,3.3-1.7,4.5s-2.6,1.8-4.4,1.8c-1.1,0-2.1-0.2-3.1-0.7s-1.7-1.2-2.3-2.2
				C323.4,89.3,323.2,88.2,323.2,86.8z M326.4,87c0,1.2,0.3,2.1,0.8,2.7c0.6,0.6,1.3,0.9,2.1,0.9s1.5-0.3,2.1-0.9s0.8-1.5,0.8-2.7
				c0-1.2-0.3-2.1-0.8-2.7s-1.2-0.9-2.1-0.9s-1.5,0.3-2.1,0.9C326.7,84.9,326.4,85.8,326.4,87z"/>
			<path class="st4" d="M348.8,92.9h-3.2v-6.1c0-1.3-0.1-2.1-0.2-2.5c-0.1-0.4-0.4-0.7-0.7-0.9c-0.3-0.2-0.7-0.3-1.1-0.3
				c-0.5,0-1,0.1-1.5,0.4c-0.4,0.3-0.7,0.7-0.9,1.2c-0.2,0.5-0.2,1.4-0.2,2.7v5.4h-3.2V81h2.9v1.8c1-1.3,2.4-2,3.9-2
				c0.7,0,1.3,0.1,1.9,0.4c0.6,0.3,1,0.6,1.3,1s0.5,0.8,0.6,1.3s0.2,1.2,0.2,2.1V92.9z"/>
			<path class="st4" d="M284,101.7v-2h1.8v2H284z M284,113.9v-10.4h1.8v10.4H284z"/>
			<path class="st4" d="M288.4,113.9v-10.4h1.6v1.5c0.8-1.1,1.9-1.7,3.3-1.7c0.6,0,1.2,0.1,1.7,0.3s0.9,0.5,1.2,0.9s0.4,0.8,0.5,1.3
				c0.1,0.3,0.1,0.9,0.1,1.7v6.4h-1.8v-6.3c0-0.7-0.1-1.3-0.2-1.6s-0.4-0.6-0.7-0.8s-0.8-0.3-1.2-0.3c-0.7,0-1.4,0.2-1.9,0.7
				s-0.8,1.4-0.8,2.7v5.7H288.4z"/>
			<path class="st4" d="M313.8,112.3v1.7h-9.5c0-0.4,0.1-0.8,0.2-1.2c0.2-0.6,0.6-1.3,1.2-1.9s1.3-1.3,2.3-2.2
				c1.6-1.3,2.6-2.3,3.2-3s0.8-1.5,0.8-2.1c0-0.7-0.2-1.3-0.7-1.8s-1.1-0.7-1.9-0.7c-0.8,0-1.5,0.3-2,0.8s-0.8,1.2-0.8,2.1l-1.8-0.2
				c0.1-1.3,0.6-2.4,1.4-3.1s1.9-1.1,3.3-1.1c1.4,0,2.5,0.4,3.3,1.1s1.2,1.7,1.2,2.8c0,0.6-0.1,1.1-0.4,1.7s-0.6,1.1-1.2,1.7
				s-1.4,1.5-2.7,2.5c-1.1,0.9-1.7,1.5-2,1.8s-0.5,0.6-0.7,1H313.8z"/>
			<path class="st4" d="M315.7,106.9c0-1.7,0.2-3.1,0.5-4.1s0.9-1.8,1.6-2.4s1.6-0.8,2.6-0.8c0.8,0,1.4,0.2,2,0.5s1.1,0.8,1.4,1.3
				s0.7,1.3,0.9,2.1s0.3,2,0.3,3.4c0,1.7-0.2,3-0.5,4.1s-0.9,1.8-1.5,2.4s-1.6,0.8-2.6,0.8c-1.4,0-2.5-0.5-3.3-1.5
				C316.2,111.5,315.7,109.6,315.7,106.9z M317.5,106.9c0,2.4,0.3,3.9,0.8,4.7s1.2,1.2,2,1.2s1.5-0.4,2-1.2s0.8-2.3,0.8-4.7
				c0-2.4-0.3-3.9-0.8-4.7s-1.2-1.2-2.1-1.2c-0.8,0-1.5,0.3-1.9,1C317.8,102.9,317.5,104.5,317.5,106.9z"/>
			<path class="st4" d="M333.4,113.9h-1.8v-11.2c-0.4,0.4-1,0.8-1.7,1.2s-1.3,0.7-1.9,0.9v-1.7c1-0.5,1.8-1,2.6-1.7s1.3-1.3,1.6-1.9
				h1.1V113.9z"/>
			<path class="st4" d="M340.7,106.2c-0.7-0.3-1.3-0.6-1.6-1.1s-0.5-1.1-0.5-1.8c0-1,0.4-1.9,1.1-2.6s1.7-1.1,3-1.1
				c1.2,0,2.3,0.4,3,1.1s1.1,1.6,1.1,2.7c0,0.7-0.2,1.2-0.5,1.7s-0.9,0.9-1.6,1.1c0.9,0.3,1.5,0.7,2,1.4s0.7,1.4,0.7,2.3
				c0,1.2-0.4,2.3-1.3,3.1s-2,1.2-3.4,1.2s-2.6-0.4-3.4-1.3s-1.3-1.9-1.3-3.1c0-0.9,0.2-1.7,0.7-2.3S339.8,106.4,340.7,106.2z
				 M339.7,109.8c0,0.5,0.1,1,0.4,1.5s0.6,0.8,1.1,1.1s1,0.4,1.5,0.4c0.8,0,1.5-0.3,2.1-0.8s0.8-1.2,0.8-2.1c0-0.8-0.3-1.5-0.8-2.1
				s-1.3-0.8-2.1-0.8c-0.8,0-1.5,0.3-2.1,0.8S339.7,109,339.7,109.8z M340.3,103.2c0,0.7,0.2,1.2,0.7,1.7s1,0.6,1.7,0.6
				c0.7,0,1.2-0.2,1.7-0.6s0.6-0.9,0.6-1.6c0-0.6-0.2-1.2-0.7-1.6s-1-0.7-1.7-0.7c-0.7,0-1.2,0.2-1.7,0.6S340.3,102.6,340.3,103.2z"
				/>
		</g>
	</g>
</g>
</svg>
