<?xml version="1.0" encoding="utf-8"?>
<!-- Generator: Adobe Illustrator 21.0.2, SVG Export Plug-In . SVG Version: 6.00 Build 0)  -->
<svg version="1.1" id="Layer_1" xmlns="http://www.w3.org/2000/svg" xmlns:xlink="http://www.w3.org/1999/xlink" x="0px" y="0px"
	 viewBox="0 0 55.2 54.9" style="enable-background:new 0 0 55.2 54.9;" xml:space="preserve">
<style type="text/css">
	.st0{clip-path:url(#SVGID_2_);fill:#00B5EC;}
</style>
<g>
	<defs>
		<rect id="SVGID_1_" width="55.2" height="54.9"/>
	</defs>
	<clipPath id="SVGID_2_">
		<use xlink:href="#SVGID_1_"  style="overflow:visible;"/>
	</clipPath>
	<path class="st0" d="M5.8,31.5c4.3-3.3,8.6-6.6,12.9-9.9c1.6-1.2,3.2-2.4,4.7-3.6c0.7,0.6,1.4,1.2,2.1,1.8c1.1,0.9,2,1,3.2,0.2
		c5.3-3.7,10.7-7.4,16-11.2c0.2-0.1,0.3-0.2,0.5-0.3c0,0.2,0,0.3,0,0.4c0,1.1,0.7,2,1.7,2.2c1.1,0.2,2-0.3,2.4-1.4
		c0.7-1.9,1.4-3.7,2.2-5.6c0.4-0.9,0.3-1.6,0-2.5c-0.3-0.7-0.8-1-1.5-1.1c-0.5,0-1.1-0.1-1.6-0.2c-1.7-0.2-3.3-0.4-5-0.5
		c-1-0.1-1.7,0.4-2.1,1.2c-0.4,0.7-0.2,1.7,0.3,2.3c0.5,0.6,1.2,0.7,1.9,0.9c-0.9,0.6-1.7,1.2-2.6,1.8c-4.5,3.1-8.9,6.2-13.4,9.3
		c-0.3,0.2-0.5,0.2-0.8,0c-0.6-0.6-1.3-1.1-2-1.7c-0.9-0.8-1.9-0.8-2.9-0.1c-6.3,4.8-12.7,9.6-19,14.5c-1,0.8-1.1,2-0.4,3
		C3.4,32.1,4.8,32.2,5.8,31.5 M55.2,52.7c-0.1,1.2-1.1,2.1-2.4,2.2c-0.2,0-0.4,0-0.5,0c-16.4,0-32.9,0-49.3,0
		c-0.9,0-1.7-0.1-2.3-0.9c-0.6-0.8-0.8-1.6-0.4-2.6c0.5-1,1.3-1.5,2.4-1.5c0.9,0,1.9,0,2.8,0c0.2,0,0.3,0,0.6,0v-0.6
		c0-2.1,0-10.6,0-12.7c0-1.2,0.8-2.2,2-2.5c1.1-0.3,2.3,0.3,2.8,1.5c0.1,0.3,0.2,0.7,0.2,1.1c0,2.1,0,10.6,0,12.7v0.6h4.6v-0.6
		c0-5.6,0-11.2,0-16.8c0-1.3,1-2.6,2.5-2.6c1.4,0,2.5,1.1,2.5,2.6c0,5.6,0,11.2,0,16.8v0.7h4.5v-0.6c0-3.7,0-19,0-22.7
		c0-1.2,0.8-2.2,2-2.5c1.1-0.2,2.3,0.3,2.8,1.4c0.2,0.3,0.2,0.7,0.2,1.1c0,3.6,0,19,0,22.6v0.7h4.6v-0.7c0-9.6,0-19.2,0-28.7
		c0-1,0.4-1.8,1.3-2.3c0.8-0.5,1.7-0.5,2.5,0.1c0.8,0.5,1.2,1.3,1.2,2.3c0,9.5,0,19.1,0,28.6v0.7h4.6v-0.6c0-6,0-27,0-33.1
		c0-1.2,0.8-2.3,2-2.5c1.1-0.2,2.3,0.4,2.8,1.5c0.1,0.3,0.2,0.7,0.2,1.1c0,6,0,26.9,0,33v0.7c0.2,0,0.4,0,0.7,0c1.1,0,2.2,0,3.3,0.1
		C54.4,50.2,55.3,51.3,55.2,52.7"/>
</g>
</svg>
