<?xml version="1.0" encoding="utf-8"?>
<!-- Generator: Adobe Illustrator 21.0.2, SVG Export Plug-In . SVG Version: 6.00 Build 0)  -->
<svg version="1.1" id="Layer_1" xmlns="http://www.w3.org/2000/svg" xmlns:xlink="http://www.w3.org/1999/xlink" x="0px" y="0px"
	 viewBox="0 0 55.2 54.9" style="enable-background:new 0 0 55.2 54.9;" xml:space="preserve">
<style type="text/css">
	.st0{clip-path:url(#SVGID_2_);fill:#00B5EC;}
</style>
<g>
	<defs>
		<rect id="SVGID_1_" y="7.7" width="55" height="40.8"/>
	</defs>
	<clipPath id="SVGID_2_">
		<use xlink:href="#SVGID_1_"  style="overflow:visible;"/>
	</clipPath>
	<path class="st0" d="M27.4,24.3c2.9,0,5.3-2.3,5.3-5.2c0-2.8-2.4-5.2-5.2-5.2c-2.9,0-5.2,2.3-5.2,5.2
		C22.2,21.9,24.6,24.3,27.4,24.3 M48.6,13c0-2.9-2.3-5.2-5.2-5.2c-2.9,0-5.3,2.3-5.3,5.2c0,2.9,2.4,5.2,5.2,5.2
		C46.2,18.2,48.6,15.9,48.6,13 M6.3,12.9c0,2.9,2.4,5.2,5.3,5.2c2.9,0,5.2-2.4,5.2-5.3c0-2.9-2.4-5.2-5.2-5.2
		C8.6,7.7,6.3,10.1,6.3,12.9 M19.7,21.3c-1.1-1.2-2.5-1.8-4.1-1.8c-2.8,0-5.7,0-8.5,0c-1,0-1.9,0.3-2.7,0.9
		c-1.1,0.8-1.9,1.9-2.5,3.1c-1.2,2.5-1.7,5.2-1.8,8c-0.1,2.8,0,5.6,0,8.4c0,1.4,1.6,2.3,2.9,1.5c0.8-0.5,0.9-1.3,0.9-2.1
		c-0.2-3.1-0.2-6.1,0.2-9.2c0.2-1.5,0.5-3.1,1.1-4.5c0-0.1,0.1-0.2,0.2-0.3c0,0,0.1,0,0.1,0v17.1c0.2,0,0.5,0,0.7,0
		c2.8,0,5.5,0,8.3,0c0.4,0,0.5-0.1,0.5-0.5c-0.1-2.9,0-5.8,0.6-8.7c0.4-1.9,1-3.8,2.1-5.5c0.3-0.4,0.4-0.8,0.4-1.4
		c0-0.4,0-0.7,0-1.1c0,0,0.1,0,0.1,0c0.1,0.4,0.3,0.7,0.4,1.1c0.5-0.4,1-0.8,1.5-1.2c0.5-0.3,1.1-0.6,1.8-0.9
		C21.2,23.4,20.6,22.3,19.7,21.3 M49.8,25.4c0.1,0.1,0.1,0.3,0.2,0.4c0.8,2.1,1.2,4.2,1.2,6.4c0,2.4,0,4.9,0,7.3
		c0,0.2,0,0.4,0.1,0.6c0.2,0.9,1,1.5,2,1.5c0.9-0.1,1.6-0.8,1.7-1.7c0-0.7,0.1-1.3,0.1-2c0.2-3.7,0-7.3-0.7-10.9
		c-0.4-2-1.1-3.8-2.3-5.4c-1.1-1.4-2.6-2.2-4.4-2.2c-2.8,0-5.7,0-8.5,0c-1,0-1.9,0.3-2.7,0.9c-1.1,0.8-1.9,1.9-2.5,3.1
		c-0.2,0.3-0.3,0.7-0.4,1c1.3,0.3,2.4,1,3.3,2c0.2-0.4,0.3-0.8,0.5-1.2c0,0,0.1,0,0.1,0c0,0.5,0,1,0,1.5c0,0.2,0.1,0.4,0.2,0.5
		c0.9,1.4,1.6,2.9,2,4.5c0.8,3.3,1.1,6.7,1,10.1c0,0.1,0,0.2,0,0.4h9.4v-17C49.7,25.4,49.7,25.4,49.8,25.4 M33.7,31.4v17.1H21.2
		V31.5c0,0-0.1,0-0.1,0c-0.1,0.1-0.1,0.2-0.2,0.3c-0.5,1.2-0.8,2.5-1,3.8c-0.5,3.3-0.5,6.6-0.3,9.9c0.1,1.1-0.4,1.9-1.3,2.2
		c-1,0.3-2.2-0.3-2.4-1.4c0-0.1,0-0.3,0-0.5c0-2.6-0.1-5.3,0-7.9c0.1-2.8,0.6-5.5,1.8-8.1c0.5-1.1,1.1-2,1.9-2.8
		c1-0.9,2.2-1.4,3.6-1.4c2.8,0,5.5,0,8.3,0c2.1,0,3.7,1,4.8,2.7c1.1,1.6,1.7,3.5,2.1,5.4C39,37,39.2,40.5,39,43.9
		c0,0.7-0.1,1.4-0.1,2.1c0,1-0.8,1.8-1.8,1.8c-1,0-1.9-0.7-1.9-1.7c0-1.5,0-3,0.1-4.6c0-2.4,0-4.7-0.5-7.1c-0.2-0.9-0.5-1.8-0.8-2.6
		C34,31.7,33.9,31.5,33.7,31.4C33.8,31.4,33.8,31.4,33.7,31.4"/>
</g>
</svg>
