<?xml version="1.0" encoding="utf-8"?>
<!-- Generator: Adobe Illustrator 21.0.2, SVG Export Plug-In . SVG Version: 6.00 Build 0)  -->
<svg version="1.1" id="Layer_1" xmlns="http://www.w3.org/2000/svg" xmlns:xlink="http://www.w3.org/1999/xlink" x="0px" y="0px"
	 viewBox="0 0 226.8 226.8" style="enable-background:new 0 0 226.8 226.8;" xml:space="preserve">
<style type="text/css">
	.st0{opacity:0.7;fill:#FFFFFF;enable-background:new    ;}
</style>
<title>circle_icon</title>
<g id="Layer_2">
	<g id="Layer_2-2">
		<path class="st0" d="M117.5,96.4c0,8.3,0,16.6,0,24.8c0,0.5-0.2,1,0.2,1.5c1.3-0.5,2.6-1.3,3.6-2.3c3.3-3,5.9-6.7,7.6-10.8
			c3.4-8.1,5.2-16.8,5.2-25.6c0-4.7-0.4-9.4-1.2-14c-0.9-5.3-2.6-10.5-5.1-15.3c-1.6-3.5-4.1-6.7-7.1-9.1
			c-4.4-3.7-10.9-3.5-15.1,0.4c-3,2.6-5.4,5.8-7,9.3C95,62.9,93,71,92.7,79.2c-0.2,3.5-0.1,7,0.2,10.5c0.3,3.6,0.9,7.2,1.8,10.8
			c1.1,4.5,2.7,8.7,5,12.7c1.6,3,3.9,5.7,6.5,7.8c0.9,0.8,2,1.3,3.2,1.7v-1.6c0-5.8,0-11.7,0-17.5c0-2.8,0-5.6,0-8.3
			c0.1-1.7,1.2-3.2,2.9-3.7c1.6-0.5,3.4,0.1,4.5,1.4C117.3,94.1,117.6,95.3,117.5,96.4z"/>
		<path class="st0" d="M113.4,0C50.8,0,0,50.8,0,113.4s50.8,113.4,113.4,113.4S226.8,176,226.8,113.4l0,0C226.8,50.8,176,0,113.4,0z
			 M109.9,187.7c-0.6,0.5-1.3,0.8-2.1,1c-8.5,1.8-17,3.5-25.4,5.3c-2.3,0.5-4.6-1-5.1-3.3c0,0,0,0,0-0.1c-0.9-5.1-2-10.1-3-15.2
			c-0.1-0.5-0.2-1-0.3-1.6l-8.6-5.7c-6.9-4.6-13.8-9.2-20.7-13.7c-2.2-1.4-3.9-3.5-4.7-6c-0.3-1.1-0.6-2.3-0.8-3.5
			c-2-9.4-4.1-18.8-6.1-28.2c-0.6-2.3-0.3-4.7,0.7-6.9c2-4.1,6.4-6.3,10.8-5.4c4,0.6,7.2,3.7,7.9,7.7c1.7,7.1,3.3,14.3,5,21.4
			c0.2,0.9,0.7,1.7,1.4,2.3c3.3,2.7,6.6,5.5,9.9,8.2c0.4,0.3,0.8,0.9,1.5,0.3c-1.6-1.8-3.2-3.6-4.7-5.4c-0.9-1-1.8-2.1-2.6-3.2
			c-2.7-3.8-2.3-9,1-12.3c1.5-1.6,3.6-2.5,5.8-2.7c2.9-0.3,5.8,0.7,8,2.7c4.8,4.2,9.7,8.3,14.6,12.4c1.9,1.6,3.8,3.1,5.6,4.8
			c1.8,1.5,3,3.5,3.6,5.8c3.2,12.2,6.4,24.4,9.6,36.6C111.6,184.7,111.2,186.5,109.9,187.7z M111.7,152.4c-1.5-0.6-2.5-2.1-2.5-3.7
			c0-5.2,0-10.4,0-15.5c0-0.5,0-1,0-1.6c-0.4-0.1-0.7-0.3-1.1-0.4c-4.3-1.3-8.1-3.8-11-7.2c-4.4-4.9-7.2-10.7-9.3-16.8
			c-1.3-4.1-2.3-8.3-2.8-12.5c-0.7-4.5-0.9-9-0.8-13.5c0.4-10.7,2.3-21.1,7.5-30.6c1.9-3.7,4.5-7,7.5-9.9c2.9-2.7,6.4-4.6,10.3-5.4
			c3.2-0.7,6.5-0.5,9.6,0.5c4.1,1.4,7.7,3.9,10.5,7.2c5.4,6.2,8.5,13.4,10.5,21.3c0.8,3.4,1.5,6.9,1.9,10.5
			c0.4,3.6,0.5,7.3,0.4,10.9c-0.1,7.9-1.5,15.8-4.2,23.3c-1.6,4.5-3.8,8.8-6.7,12.7c-2.2,3-4.9,5.5-8,7.4c-1.4,0.9-2.9,1.5-4.5,2
			c-0.4,0.1-0.9,0.3-1.4,0.5v1.5c0,5,0,10,0,15c0.1,1.2-0.3,2.4-1.1,3.3C115.2,152.6,113.3,153,111.7,152.4z M187.5,145.7
			c-0.3,2-1,3.9-2.1,5.7c-1,1.3-2.2,2.4-3.5,3.3l-27.6,18.3c-0.3,0.2-0.6,0.4-0.9,0.6c-0.4,0.3-0.7,0.7-0.8,1.2
			c-1,5.3-2,10.6-3.1,15.9c-0.4,2.3-2.5,3.8-4.8,3.4c-0.1,0-0.3,0-0.4-0.1c-4.6-0.9-9.1-1.9-13.7-2.8l-11.6-2.4
			c-1.6-0.2-3-1.4-3.4-3c-0.2-0.7-0.2-1.5,0-2.2c1.8-6.6,3.5-13.2,5.2-19.8c1.5-5.7,3.1-11.5,4.6-17.2c0.6-2.4,2-4.6,4-6.2
			c4.3-3.7,8.6-7.4,13-11.1c2.6-2.2,5.1-4.6,7.8-6.7c4.2-3.3,10.4-2.5,13.7,1.7c0.1,0.2,0.2,0.3,0.3,0.5c2.7,3.7,2.3,8.8-0.8,12.1
			c-2.2,2.5-4.5,5.1-6.7,7.6l0.7,0.4l4.1-3.5c2.1-1.8,4.2-3.6,6.4-5.3c0.9-0.7,1.5-1.6,1.7-2.7c1.6-7.1,3.3-14.3,5-21.4
			c1.4-5.3,6.8-8.6,12.2-7.2c4.1,1.1,7.1,4.6,7.5,8.8c0,1-0.1,2-0.3,3C191.7,126.3,189.6,136,187.5,145.7L187.5,145.7z"/>
		<path class="st0" d="M93.4,148.9c-0.2-0.8-0.6-1.5-1.3-2.1c-0.9-0.7-1.8-1.5-2.6-2.3l-17.1-14.6c-0.3-0.3-0.6-0.5-1-0.8
			c-0.6-0.3-1.4-0.2-1.9,0.4c-0.4,0.5-0.4,1.3,0,1.8c0.1,0.2,0.2,0.3,0.3,0.4l4.2,4.8c2,2.3,4.1,4.6,6.1,7c1.1,1.1,1.4,2.7,0.9,4.1
			c-0.4,1.2-1.3,2.1-2.5,2.6l-8.1,3.1c-1.7,0.7-3.7,0.4-5-0.9c-2.6-2.2-5.2-4.4-7.9-6.6c-2.1-1.7-4.1-3.4-6.1-5.2
			c-0.8-0.6-1.4-1.5-1.6-2.5c-1.7-7.2-3.3-14.4-5-21.5c-0.2-0.9-0.4-1.9-0.7-2.8c-0.3-0.9-1.2-1.4-2.1-1.1c-0.8,0.2-1.2,0.8-1.1,1.8
			c0,0.3,0.1,0.7,0.1,1c0.9,4.1,1.8,8.1,2.7,12.1c1.3,5.9,2.6,11.8,3.9,17.7c0.2,0.8,0.6,1.5,1.3,2c0.3,0.2,0.6,0.4,0.9,0.6
			l21.9,14.6l8,5.3c1.1,0.7,1.8,1.7,2.1,3c0.8,4.5,1.7,9,2.6,13.4c0.1,0.3,0.2,0.6,0.4,0.8l17.4-3.6c-1.1-4-2.1-7.8-3.1-11.7
			C97.1,162.9,95.3,155.9,93.4,148.9z"/>
		<path class="st0" d="M182.6,113.6c-0.1,0.3-0.2,0.6-0.3,0.9c-1.8,7.7-3.6,15.3-5.3,23c-0.3,1.3-1,2.4-2,3.2
			c-0.9,0.7-1.8,1.5-2.7,2.2c-3.8,3.2-7.6,6.3-11.4,9.5c-1.3,1.2-3.2,1.5-4.8,0.7l-5.7-2.2c-0.9-0.3-1.7-0.6-2.6-1
			c-2.1-0.8-3.1-3.2-2.3-5.3c0.1-0.4,0.4-0.7,0.6-1.1c0.2-0.3,0.4-0.5,0.6-0.8l9.2-10.4c0.4-0.5,0.9-1,1.2-1.5
			c0.4-0.6,0.3-1.4-0.2-1.9c-0.5-0.5-1.2-0.6-1.8-0.2c-0.3,0.2-0.6,0.4-0.9,0.7c-0.7,0.6-1.4,1.2-2.1,1.8
			c-5.8,4.9-11.5,9.9-17.3,14.8c-0.9,0.8-1.6,1.8-1.9,3c-2.1,7.9-4.2,15.8-6.3,23.6c-0.8,2.8-1.5,5.7-2.3,8.6l17.5,3.6
			c0.4-1.8,0.7-3.4,1-5.1c0.6-3.1,1.2-6.1,1.8-9.2c0.2-1.2,0.9-2.2,1.9-2.8c0.3-0.2,0.6-0.4,0.9-0.6c9.8-6.5,19.6-13,29.4-19.5
			c1.2-0.7,1.9-1.9,2.1-3.2c0.3-1.9,0.8-3.8,1.2-5.7c1.8-8.1,3.5-16.2,5.3-24.3c0.1-0.5,0.1-1-0.3-1.4c-0.7-0.7-1.8-0.8-2.5-0.1
			C182.8,113.3,182.7,113.4,182.6,113.6z"/>
	</g>
</g>
</svg>
