<svg xmlns="http://www.w3.org/2000/svg" viewBox="0 0 471.77 231.9"><defs><style>.cls-1{fill:#2f6f88;}.cls-2{fill:#00a9df;}.cls-3{fill:#a7a9ac;}</style></defs><title>Asset 1map</title><g id="Layer_2" data-name="Layer 2"><g id="Layer_3" data-name="Layer 3"><path class="cls-1" d="M269.81,62.75c-.45,2.51-2,3.9-4.49,3.75a3.62,3.62,0,0,1-3.74-3.89,3.77,3.77,0,0,1,4.11-4.05C268.09,58.61,269.57,60.22,269.81,62.75Z"/><path class="cls-2" d="M253.72,66.59c-2.48-.3-4.13-1.61-4-4.18a3.76,3.76,0,0,1,3.87-3.86c2.35,0,4.18,1.27,4.26,3.93S256.06,66.21,253.72,66.59Z"/><path class="cls-2" d="M257.84,38.8c0,2.85-1.81,4.09-4.15,4.14a3.68,3.68,0,0,1-4-3.68A3.79,3.79,0,0,1,253.58,35,3.88,3.88,0,0,1,257.84,38.8Z"/><path class="cls-1" d="M234.17,121.56c-.32,2.26-1.47,3.78-3.88,3.94-2.64.18-4.29-1.22-4.38-3.78a3.68,3.68,0,0,1,3.73-4C232.23,117.54,233.65,119.07,234.17,121.56Z"/><path class="cls-3" d="M293.58,74.51c-.55,2.46-1.95,4-4.56,3.79a3.67,3.67,0,0,1-3.68-4.06c.11-2.55,1.78-4,4.42-3.74C292.13,70.71,293.32,72.2,293.58,74.51Z"/><path class="cls-2" d="M269.81,192.45c-.32,2.5-1.78,4.09-4.22,4.07a3.76,3.76,0,0,1-4-4.13,3.62,3.62,0,0,1,3.84-3.78C267.85,188.52,269.44,189.92,269.81,192.45Z"/><path class="cls-1" d="M265.49,113.93c-2.39-.44-4-1.66-3.91-4.3a3.63,3.63,0,0,1,3.91-3.72c2.47,0,4.26,1.41,4.25,3.93S268,113.63,265.49,113.93Z"/><path class="cls-2" d="M234.16,86.41c-.49,2.54-2.13,3.87-4.61,3.68A3.64,3.64,0,0,1,225.9,86c.18-2.59,1.95-3.92,4.48-3.67A4,4,0,0,1,234.16,86.41Z"/><path class="cls-2" d="M424.28,39c-.3,2.54-1.76,4-4.27,3.92-2.17-.1-3.84-1.27-3.91-3.74a3.81,3.81,0,0,1,4-4.18C422.59,34.88,424,36.53,424.28,39Z"/><path class="cls-2" d="M412.37,39.16A3.8,3.8,0,0,1,408,42.9,3.75,3.75,0,0,1,404.16,39a3.89,3.89,0,0,1,4.19-4C410.79,35,412.28,36.55,412.37,39.16Z"/><path class="cls-2" d="M412.38,192.28c-.18,2.8-1.72,4.3-4.15,4.25a3.89,3.89,0,0,1-4.06-4.17,4.12,4.12,0,0,1,8.21-.08Z"/><path class="cls-2" d="M20.07,38.84a4,4,0,0,1-4.13,4.09,3.65,3.65,0,0,1-4.09-3.53A3.76,3.76,0,0,1,15.58,35C18,34.81,19.56,36.34,20.07,38.84Z"/><path class="cls-2" d="M412.36,62.29c0,2.8-1.61,4.19-4,4.24a3.8,3.8,0,0,1-4.15-3.58A3.86,3.86,0,0,1,408,58.58C410.47,58.39,412.05,59.84,412.36,62.29Z"/><path class="cls-2" d="M329.25,39c-.39,2.57-1.93,4-4.39,3.95A3.64,3.64,0,0,1,321,39.15,3.77,3.77,0,0,1,325,35C327.43,34.94,328.86,36.58,329.25,39Z"/><path class="cls-1" d="M289.29,58.47c2.32.36,4.16,1.47,4.21,4.06s-1.86,4-4.2,4a3.71,3.71,0,0,1-4-3.72C285.21,60.26,286.82,58.93,289.29,58.47Z"/><path class="cls-1" d="M265.61,34.89c2.45.42,4.22,1.73,4.12,4.24s-1.91,3.9-4.39,3.77A3.61,3.61,0,0,1,261.57,39C261.58,36.41,263.25,35.25,265.61,34.89Z"/><path class="cls-2" d="M99.07,34.9c2.29.28,4,1.37,4.11,4a3.61,3.61,0,0,1-3.63,4c-2.48.2-4.32-1.09-4.52-3.61S96.55,35.4,99.07,34.9Z"/><path class="cls-2" d="M234.16,62.62a4,4,0,0,1-4.36,3.91,3.69,3.69,0,0,1-3.91-3.79,3.81,3.81,0,0,1,4-4.18C232.3,58.55,233.88,60.07,234.16,62.62Z"/><path class="cls-2" d="M353,110.1c-.38,2.48-1.93,3.94-4.39,3.72a3.84,3.84,0,0,1-3.8-4.38,3.79,3.79,0,0,1,4.18-3.53C351.36,106,352.93,107.39,353,110.1Z"/><path class="cls-3" d="M232.47,98.52c-.58,2.57-2,3.91-4.49,3.7a3.45,3.45,0,0,1-3.47-3.9,3.58,3.58,0,0,1,3.86-3.61C230.85,94.73,232,96.37,232.47,98.52Z"/><path class="cls-2" d="M293.56,38.82a4,4,0,0,1-4.17,4.12,3.72,3.72,0,0,1-4.06-3.63A3.8,3.8,0,0,1,289.16,35C291.58,34.87,293.17,36.33,293.56,38.82Z"/><path class="cls-2" d="M364.81,39.17c-.36,2.58-1.9,3.92-4.41,3.71-2.22-.19-3.74-1.46-3.71-3.9a3.8,3.8,0,0,1,4.16-4C363.3,35,364.71,36.64,364.81,39.17Z"/><path class="cls-2" d="M388.67,39c-.45,2.63-2,4-4.47,3.84-2.21-.18-3.83-1.52-3.8-3.9a3.88,3.88,0,0,1,4.2-4C387.05,35,388.43,36.68,388.67,39Z"/><path class="cls-2" d="M353,121.61c-.43,2.52-1.71,3.94-4.11,3.91-2.59,0-4.28-1.5-4.12-4.06s1.89-4,4.49-3.76C351.68,117.88,352.7,119.56,353,121.61Z"/><path class="cls-2" d="M348.9,34.9c2.41.39,4.06,1.62,4,4.23a3.65,3.65,0,0,1-3.86,3.79c-2.46.08-4.28-1.34-4.32-3.86S346.48,35.26,348.9,34.9Z"/><path class="cls-3" d="M305.34,180.91a3.8,3.8,0,0,1-4.08,3.69c-2.48,0-4.12-1.43-4-4.17a3.59,3.59,0,0,1,4-3.68C303.87,176.78,305.21,178.34,305.34,180.91Z"/><path class="cls-2" d="M99.07,173c-2.6-.4-4.21-1.85-4-4.34s2.08-3.82,4.51-3.61a3.62,3.62,0,0,1,3.63,4C103.05,171.59,101.41,172.79,99.07,173Z"/><path class="cls-2" d="M317.23,38.76c0,2.87-1.76,4.11-4.11,4.17a3.65,3.65,0,0,1-4-3.66A3.77,3.77,0,0,1,313,35,3.83,3.83,0,0,1,317.23,38.76Z"/><path class="cls-2" d="M444.1,34.89c2.49.5,4.06,1.86,3.9,4.43a3.72,3.72,0,0,1-4.07,3.62c-2.34-.07-4.23-1.45-4.1-4.1S441.78,35.19,444.1,34.89Z"/><path class="cls-2" d="M384.65,70.45c2.49.24,4,1.62,3.91,3.93a4.07,4.07,0,0,1-8.13,0C380.44,71.76,382.22,70.57,384.65,70.45Z"/><path class="cls-3" d="M253.67,113.94c-2.5-.42-4.07-1.81-4-4.34a3.67,3.67,0,0,1,4-3.71c2.33,0,4.19,1.26,4.16,4S255.93,113.53,253.67,113.94Z"/><path class="cls-2" d="M79.52,50.79c-.48,2.48-1.76,4.13-4.42,3.92a3.74,3.74,0,0,1-3.81-4c.05-2.61,1.78-3.91,4.35-3.84S79.17,48.56,79.52,50.79Z"/><path class="cls-3" d="M364.82,109.81c-.19,2.38-1.54,4-3.82,4s-4.25-1.24-4.29-4,1.82-4,4.24-4S364.64,107.42,364.82,109.81Z"/><path class="cls-1" d="M329.23,62.39a4,4,0,0,1-4.12,4.14A3.67,3.67,0,0,1,321,63a3.76,3.76,0,0,1,3.73-4.4C327.18,58.4,328.7,59.93,329.23,62.39Z"/><path class="cls-3" d="M384.63,105.84c2.43.35,4.08,1.64,4,4.23a3.76,3.76,0,0,1-3.94,3.78c-2.38,0-4.2-1.39-4.24-4S382.25,106.18,384.63,105.84Z"/><path class="cls-3" d="M349,66.57c-2.35-.18-4.19-1.34-4.27-3.87a3.9,3.9,0,0,1,4.11-4.14,3.74,3.74,0,0,1,4,3.65C353.12,64.84,351.57,66.14,349,66.57Z"/><path class="cls-2" d="M103.23,62.48c-.13,2.73-1.77,4.07-4.18,4a3.79,3.79,0,0,1-4-3.71,3.88,3.88,0,0,1,4-4.24A3.84,3.84,0,0,1,103.23,62.48Z"/><path class="cls-2" d="M75.22,117.61c2.63.18,4.23,1.62,4.2,4.14a3.63,3.63,0,0,1-3.94,3.78c-2.35,0-4-1.23-4.19-3.56C71.08,119.36,72.78,118,75.22,117.61Z"/><path class="cls-2" d="M75.17,58.48c2.5.22,4.17,1.52,4.27,4a3.66,3.66,0,0,1-3.68,4c-2.4.15-4.28-1-4.48-3.64S72.88,59.06,75.17,58.48Z"/><path class="cls-2" d="M388.65,62.38c-.11,2.61-1.66,4.12-4.07,4.16A3.81,3.81,0,0,1,380.42,63c-.23-2.62,1.42-4.15,3.8-4.39S388.19,59.92,388.65,62.38Z"/><path class="cls-2" d="M106.93,192.51a3.77,3.77,0,0,1,4-3.9,3.68,3.68,0,0,1,4.14,4.06,3.72,3.72,0,0,1-3.93,3.87A3.9,3.9,0,0,1,106.93,192.51Z"/><path class="cls-2" d="M384.37,46.85c2.68.16,4.19,1.53,4.2,3.83a4.07,4.07,0,0,1-8.13.21C380.36,48.24,382.14,47.06,384.37,46.85Z"/><path class="cls-3" d="M313.28,113.92c-2.46-.2-4.09-1.52-4.16-4a3.6,3.6,0,0,1,3.67-4c2.38-.11,4.24.94,4.41,3.63S315.67,113.39,313.28,113.92Z"/><path class="cls-2" d="M43.84,74.47c-.49,2.47-1.82,4-4.47,3.83a3.75,3.75,0,0,1-3.76-4c.09-2.55,1.82-3.92,4.41-3.78C42.46,70.63,43.58,72.17,43.84,74.47Z"/><path class="cls-2" d="M353,50.68c-.27,2.29-1.4,3.88-3.79,4-2.6.16-4.31-1.34-4.41-3.82s1.61-4,4.2-4C351.4,46.91,352.62,48.37,353,50.68Z"/><path class="cls-2" d="M289.33,105.83c2.35.34,4.21,1.42,4.17,4s-1.86,4-4.25,4a3.76,3.76,0,0,1-3.93-3.79C285.19,107.46,286.87,106.19,289.33,105.83Z"/><path class="cls-2" d="M79.51,74.3c-.35,2.22-1.38,3.89-3.81,4S71.4,77,71.3,74.48s1.66-4,4.2-4S79.11,72,79.51,74.3Z"/><path class="cls-1" d="M126.89,168.43c0,3.05-1.55,4.5-4.08,4.48a3.72,3.72,0,0,1-4-3.8c-.09-2.67,1.67-4.08,4.13-4.08C125.22,165,126.77,166.32,126.89,168.43Z"/><path class="cls-1" d="M289.56,54.79c-2.63-.16-4.23-1.57-4.22-4.11a3.63,3.63,0,0,1,3.92-3.8c2.36,0,4,1.22,4.22,3.53C293.68,53,292,54.38,289.56,54.79Z"/><path class="cls-2" d="M420,184.7c-2.09-.47-3.9-1.34-3.91-3.88a3.81,3.81,0,0,1,4.15-4.1c2.58,0,4,1.75,3.91,4.29C424.05,183.4,422.35,184.48,420,184.7Z"/><path class="cls-2" d="M134.86,54.81c-2.49-.28-4.21-1.56-4.17-4.16,0-2.35,1.65-3.71,4-3.76,2.62-.05,4.22,1.45,4.14,4C138.76,53.21,137.24,54.56,134.86,54.81Z"/><path class="cls-2" d="M384.63,196.59c-2.31-.24-4.08-1.39-4.22-3.94s1.77-4,4.1-4.07a3.68,3.68,0,0,1,4.07,3.59C388.71,194.69,387.24,196.17,384.63,196.59Z"/><path class="cls-2" d="M408.41,176.68c2.45.28,4,1.63,3.91,4.21a3.62,3.62,0,0,1-3.9,3.73c-2.43,0-4.27-1.36-4.24-3.9S405.82,176.84,408.41,176.68Z"/><path class="cls-1" d="M115.08,180.87c-.28,2.39-1.75,3.8-4,3.74s-4.26-1.36-4.07-4.11,1.94-3.87,4.45-3.73S114.87,178.61,115.08,180.87Z"/><path class="cls-2" d="M349,102c-2.58-.11-4.27-1.43-4.24-4a3.78,3.78,0,0,1,3.94-3.86,3.73,3.73,0,0,1,4.19,4C352.89,100.49,351.38,101.77,349,102Z"/><path class="cls-2" d="M126.9,180.49c-.06,2.75-1.59,4-3.83,4.11-2.48.07-4.24-1.33-4.21-4a4,4,0,0,1,8-.13Z"/><path class="cls-2" d="M384.51,90.21c-2.33-.44-4.22-1.49-4.11-4.2a4.1,4.1,0,0,1,8.19.42C388.49,88.81,386.77,89.89,384.51,90.21Z"/><path class="cls-3" d="M265.52,161.12c-2.34-.42-4.07-1.52-3.94-4.21a3.71,3.71,0,0,1,3.87-3.79,3.85,3.85,0,0,1,4.27,3.91C269.82,159.6,268,160.77,265.52,161.12Z"/><path class="cls-2" d="M412.37,168.61c-.08,2.67-1.48,4.24-4,4.32a3.88,3.88,0,0,1-4.25-4c-.1-2.33,1.56-3.76,3.77-3.94A3.82,3.82,0,0,1,412.37,168.61Z"/><path class="cls-2" d="M115.09,216.35c-.27,2.41-1.75,3.89-4.25,3.76-2.16-.11-3.83-1.28-3.89-3.75a3.8,3.8,0,0,1,4-4.17C113.42,212.1,114.86,213.7,115.09,216.35Z"/><path class="cls-1" d="M384.65,137.53c-2.32-.33-4.15-1.41-4.24-4s1.79-4,4.14-4a3.71,3.71,0,0,1,4,3.66C388.72,135.69,387.13,137.06,384.65,137.53Z"/><path class="cls-1" d="M349,129.47c2.18.19,3.9,1.31,3.94,3.94a3.73,3.73,0,0,1-3.68,4,3.87,3.87,0,0,1-4.47-3.71C344.56,131.16,346.24,129.79,349,129.47Z"/><path class="cls-3" d="M293.56,133.58c-.38,2.48-2,3.95-4.37,3.85a3.79,3.79,0,0,1-3.87-4.3,3.71,3.71,0,0,1,4-3.65A4,4,0,0,1,293.56,133.58Z"/><path class="cls-2" d="M103.23,156.94a3.83,3.83,0,0,1-4.07,4.1A3.77,3.77,0,0,1,95,157.47a3.82,3.82,0,0,1,3.84-4.33C101.38,153,102.85,154.43,103.23,156.94Z"/><path class="cls-2" d="M384.47,94c2.62.26,4.2,1.72,4.1,4.25a3.65,3.65,0,0,1-4,3.68c-2.34,0-4-1.32-4.1-3.67C380.31,95.67,382,94.38,384.47,94Z"/><path class="cls-3" d="M265.55,129.46c2.52.25,4.26,1.54,4.17,4.07a3.87,3.87,0,0,1-4.31,3.89,3.7,3.7,0,0,1-3.82-3.84C261.5,130.92,263.14,129.75,265.55,129.46Z"/><path class="cls-1" d="M293.56,85.94a4,4,0,0,1-4.18,4.19,3.73,3.73,0,0,1-4.06-3.71A3.68,3.68,0,0,1,289,82.34,4,4,0,0,1,293.56,85.94Z"/><path class="cls-3" d="M257.84,180.71a3.81,3.81,0,0,1-3.93,3.89,3.94,3.94,0,1,1-.35-7.88A4,4,0,0,1,257.84,180.71Z"/><path class="cls-3" d="M384.35,125.56c-2.35-.24-4.06-1.51-3.92-4.15a4.08,4.08,0,0,1,8.14.45C388.49,124.15,386.94,125.49,384.35,125.56Z"/><path class="cls-3" d="M265.63,184.73c-2.43-.43-4.17-1.53-4-4.2a3.7,3.7,0,0,1,3.86-3.8,3.83,3.83,0,0,1,4.28,3.89C269.84,183.19,267.94,184.32,265.63,184.73Z"/><path class="cls-2" d="M111,43c-2.34-.34-4.13-1.36-4.07-4.07S108.84,35,111.18,35A3.73,3.73,0,0,1,115,38.81C115.13,41.39,113.53,42.7,111,43Z"/><path class="cls-2" d="M75.28,43c-2.49-.45-4.24-1.66-4-4.3A3.86,3.86,0,0,1,75.77,35a3.76,3.76,0,0,1,3.68,4C79.39,41.59,77.67,42.82,75.28,43Z"/><path class="cls-2" d="M353,14.82c-.14,2.86-1.56,4.45-4,4.49a3.9,3.9,0,0,1-4.21-4c-.07-2.35,1.62-3.72,3.81-3.9A3.89,3.89,0,0,1,353,14.82Z"/><path class="cls-2" d="M39.9,34.9c2.48.51,4,1.83,3.86,4.44a3.68,3.68,0,0,1-4.07,3.59c-2.38-.06-4.23-1.5-4.1-4.1S37.53,35.14,39.9,34.9Z"/><path class="cls-2" d="M103.22,133.27c-.12,2.56-1.56,4.12-4,4.16a3.89,3.89,0,0,1-4.2-4,3.73,3.73,0,0,1,3.83-3.88C101.31,129.4,102.91,130.65,103.22,133.27Z"/><path class="cls-3" d="M224.42,109.75c.32-2.46,1.81-3.8,4.18-3.68a3.62,3.62,0,0,1,3.76,3.67,3.74,3.74,0,0,1-4,4C226.06,113.73,224.63,112.2,224.42,109.75Z"/><path class="cls-2" d="M376.63,15.56a4,4,0,0,1-8-.26c0-2.67,1.87-4,4.32-3.88C375.14,11.53,376.67,12.86,376.63,15.56Z"/><path class="cls-2" d="M75.45,90.18c-2.22-.28-4.14-1.24-4.2-3.93-.05-2.44,1.63-3.76,3.85-3.92a3.75,3.75,0,0,1,4.35,3.85C79.51,88.51,77.92,89.82,75.45,90.18Z"/><path class="cls-1" d="M126.9,133.26c0,2.68-1.54,4.17-4,4.15a3.75,3.75,0,0,1-4-3.81c-.1-2.69,1.59-4.06,4.1-4.07A3.57,3.57,0,0,1,126.9,133.26Z"/><path class="cls-3" d="M293.58,98c-.34,2.3-1.56,3.77-3.95,3.89-2.63.14-4.26-1.3-4.3-3.86a3.69,3.69,0,0,1,3.8-4C291.72,94,293.13,95.53,293.58,98Z"/><path class="cls-2" d="M329.24,98.22c-.57,2.52-2,3.91-4.64,3.67A3.57,3.57,0,0,1,321,97.82a3.69,3.69,0,0,1,4-3.73C327.61,94.14,328.92,95.77,329.24,98.22Z"/><path class="cls-2" d="M317.25,98.26a3.9,3.9,0,0,1-4.51,3.63,3.52,3.52,0,0,1-3.57-4,3.64,3.64,0,0,1,3.93-3.76C315.62,94.15,317.07,95.62,317.25,98.26Z"/><path class="cls-2" d="M99.43,102c-2.65,0-4.36-1.33-4.39-3.89a3.76,3.76,0,0,1,3.83-4A3.72,3.72,0,0,1,103.15,98C103.22,100.41,101.74,101.7,99.43,102Z"/><path class="cls-3" d="M253.77,164.91c2.1.44,3.95,1.25,4,3.79a3.81,3.81,0,0,1-4.06,4.21c-2.55.06-4.1-1.65-4-4.21C249.76,166.31,251.47,165.21,253.77,164.91Z"/><path class="cls-2" d="M313.06,58.47c2.33.41,4.13,1.42,4.16,4.1s-1.84,3.93-4.17,4a3.66,3.66,0,0,1-3.93-3.74C309,60.25,310.61,58.89,313.06,58.47Z"/><path class="cls-3" d="M277.31,164.89c2.18.42,4,1.14,4.18,3.69a3.7,3.7,0,0,1-3.85,4.3c-2.57.12-4-1.39-4.1-4S275.23,165.41,277.31,164.89Z"/><path class="cls-3" d="M146.78,11.3c2.26.46,3.9,1.49,3.85,4s-1.58,4.12-4.15,4-4-1.68-3.81-4.35S144.72,11.67,146.78,11.3Z"/><path class="cls-3" d="M360.67,66.56c-2.49-.43-4.17-1.58-4-4.27s2-3.83,4.4-3.7a3.72,3.72,0,0,1,3.67,4C364.73,65.13,363.11,66.45,360.67,66.56Z"/><path class="cls-3" d="M245.89,168.77c-.1,2.63-1.56,4.11-4.09,4.13a3.59,3.59,0,0,1-3.92-3.75c-.13-2.76,1.55-4.13,4-4.12A3.75,3.75,0,0,1,245.89,168.77Z"/><path class="cls-1" d="M265.36,102a3.6,3.6,0,0,1-3.76-3.68,3.69,3.69,0,0,1,4-4.16,3.8,3.8,0,0,1,4.07,4.18C269.62,100.55,268,101.89,265.36,102Z"/><path class="cls-3" d="M251.61,102.23c-2.69.05-4.14-1.27-4.25-3.43a3.55,3.55,0,0,1,3.79-4.06c2.4,0,4,1.4,3.95,3.93A3.48,3.48,0,0,1,251.61,102.23Z"/><path class="cls-2" d="M372.64,58.47c2.6.5,4.14,1.76,4,4.47-.16,2.56-1.91,3.62-4.11,3.57a3.72,3.72,0,0,1-3.95-3.85C368.56,60.06,370.33,58.85,372.64,58.47Z"/><path class="cls-3" d="M265.48,173c-2.45-.34-4-1.66-3.89-4.26a3.62,3.62,0,0,1,3.92-3.7c2.42,0,4.26,1.4,4.21,3.94S268,172.79,265.48,173Z"/><path class="cls-2" d="M364.82,74.34c-.47,2.74-1.86,4.23-4.49,3.93a3.65,3.65,0,0,1-3.59-4.08c.15-2.67,1.93-3.79,4.44-3.67S364.58,72.33,364.82,74.34Z"/><path class="cls-2" d="M353,74.4c-.41,2.48-1.73,4.06-4.37,3.91a3.76,3.76,0,0,1-3.85-3.94c0-2.56,1.73-4,4.32-3.88C351.51,70.58,352.69,72.06,353,74.4Z"/><path class="cls-1" d="M408.49,78.37c-2.63-.12-4.27-1.53-4.3-4,0-2.31,1.52-3.77,3.89-3.84,2.59-.08,4.23,1.28,4.21,3.93C412.28,76.79,410.8,78.08,408.49,78.37Z"/><path class="cls-2" d="M39.83,90.17c-2.36-.23-4.22-1.4-4.25-4a3.76,3.76,0,0,1,3.93-3.87c2.48-.09,4.24,1.25,4.27,3.91C43.8,88.65,42.18,89.8,39.83,90.17Z"/><path class="cls-2" d="M329.27,74.23c-.51,2.6-1.82,4.19-4.45,4.08a3.66,3.66,0,0,1-3.8-3.92c0-2.63,1.66-4,4.26-3.89C327.7,70.58,328.81,72.16,329.27,74.23Z"/><path class="cls-2" d="M313.31,78.36c-2.74-.13-4.19-1.64-4.15-4.14a3.55,3.55,0,0,1,3.92-3.72c2.3,0,4,1.17,4.09,3.59C317.33,76.72,315.7,78,313.31,78.36Z"/><path class="cls-3" d="M194.68,106.07a3.51,3.51,0,0,1,3.26,3.42,3.85,3.85,0,1,1-7.69.3C190.26,107.62,191.63,106.19,194.68,106.07Z"/><path class="cls-2" d="M384.54,176.65c2.55.28,4.07,1.72,4,4.22a3.65,3.65,0,0,1-3.9,3.75c-2.38,0-4.27-1.25-4.26-3.88S382.15,177,384.54,176.65Z"/><path class="cls-2" d="M67.46,110.48c-.11,2-1.62,3.31-3.86,3.34a3.82,3.82,0,0,1-4.18-4.1c.06-2.6,1.9-3.94,4.43-3.78C66.15,106.1,67.54,107.48,67.46,110.48Z"/><path class="cls-2" d="M67.46,121.86c-.11,2-1.62,3.31-3.86,3.34a3.82,3.82,0,0,1-4.18-4.1c.06-2.6,1.9-3.94,4.43-3.78C66.15,117.48,67.54,118.86,67.46,121.86Z"/><path class="cls-2" d="M265.47,70.46c2.53.1,4.15,1.4,4.24,3.68a3.78,3.78,0,0,1-4.07,4.18,3.69,3.69,0,0,1-4-4.15C261.68,71.76,263.27,70.6,265.47,70.46Z"/><path class="cls-2" d="M257.85,74.1c-.18,2.61-1.55,4.12-4.11,4.22a3.65,3.65,0,0,1-4-3.69,3.55,3.55,0,0,1,3.52-4.1C255.8,70.32,257.36,71.58,257.85,74.1Z"/><path class="cls-2" d="M51.73,105.87c2.31.23,3.88,1.49,3.89,3.86a3.75,3.75,0,0,1-4.15,4.09A3.73,3.73,0,0,1,47.56,110C47.49,107.19,49.25,106.14,51.73,105.87Z"/><path class="cls-2" d="M134.92,176.67a3.9,3.9,0,0,1,3.93,4.07,3.64,3.64,0,0,1-3.78,3.87c-2.4.11-4.3-1.15-4.38-3.74S132.24,177,134.92,176.67Z"/><path class="cls-2" d="M353,86.18a3.76,3.76,0,0,1-3.83,3.92c-2.48.12-4.36-1.3-4.39-3.85s1.84-4,4.32-3.92A3.77,3.77,0,0,1,353,86.18Z"/><path class="cls-2" d="M115.08,74.47c-.47,2.59-1.83,4.11-4.48,3.8-2.31-.26-3.74-1.7-3.6-4.08.15-2.67,1.93-3.81,4.45-3.67S114.89,72.29,115.08,74.47Z"/><path class="cls-2" d="M98.95,78.38C96.41,78,94.82,76.5,95,74c.2-2.27,1.86-3.59,4.24-3.49s3.87,1.46,3.86,3.83C103.14,76.92,101.52,78.24,98.95,78.38Z"/><path class="cls-2" d="M150.63,169c-.15,2.55-1.63,4-4.2,3.84a3.66,3.66,0,0,1-3.78-3.92c0-2.77,1.84-4,4.23-3.94C149.1,165.08,150.64,166.45,150.63,169Z"/><path class="cls-2" d="M364.8,98.14c-.28,2.33-1.5,3.8-3.92,3.77s-4.24-1.29-4.14-4,1.83-3.93,4.34-3.81S364.57,95.87,364.8,98.14Z"/><path class="cls-1" d="M305.33,110.08a3.89,3.89,0,0,1-4.4,3.74,3.65,3.65,0,0,1-3.65-4.07c.07-2.76,1.8-3.93,4.3-3.79C303.9,106.09,305.26,107.51,305.33,110.08Z"/><path class="cls-2" d="M372.55,34.9c2.11.29,3.83,1.17,4,3.66.24,2.71-1.23,4.21-3.77,4.33-2.25.1-4-1.06-4.21-3.5C368.38,36.73,370,35.44,372.55,34.9Z"/><path class="cls-2" d="M301.19,43c-2.14-.27-3.81-1.18-3.9-3.72-.1-2.7,1.46-4.2,3.95-4.24a3.74,3.74,0,0,1,4.05,3.73C305.45,41.43,303.77,42.64,301.19,43Z"/><path class="cls-2" d="M186.29,15.28c-.07,2.65-1.58,4.06-4.08,4a3.59,3.59,0,0,1-3.74-3.88c0-2.72,1.64-4.06,4.08-4A3.56,3.56,0,0,1,186.29,15.28Z"/><path class="cls-2" d="M210.08,38.75c0,2.64-1.45,4.07-3.67,4.17-2.42.11-4.2-1.18-4.24-3.89a3.71,3.71,0,0,1,3.67-4A3.76,3.76,0,0,1,210.08,38.75Z"/><path class="cls-1" d="M436,157.36a3.59,3.59,0,0,1-4,3.65c-2.44,0-4.19-1.44-4-4.14a3.68,3.68,0,0,1,4-3.72C434.61,153.16,436,154.65,436,157.36Z"/><path class="cls-3" d="M447.09,157.36a3.59,3.59,0,0,1-4,3.65c-2.44,0-4.19-1.44-4-4.14a3.68,3.68,0,0,1,4-3.72C445.67,153.16,447.06,154.65,447.09,157.36Z"/><text></text><path class="cls-2" d="M63.5,34.89c2.58.5,4.13,1.77,4,4.47-.16,2.55-1.9,3.61-4.11,3.55a3.73,3.73,0,0,1-3.95-3.84C59.4,36.49,61.17,35.25,63.5,34.89Z"/><path class="cls-2" d="M51.21,42.91c-1.89-.25-3.71-1.23-3.66-4A3.74,3.74,0,0,1,51.43,35a3.74,3.74,0,0,1,4.18,4.06C55.61,41.38,54.16,42.8,51.21,42.91Z"/><path class="cls-2" d="M111,137.52c-2.33-.42-4.12-1.49-4.08-4.22,0-2.52,1.73-3.71,4-3.78a3.66,3.66,0,0,1,4.12,4.05C115,135.92,113.4,137.19,111,137.52Z"/><path class="cls-2" d="M420.2,196.58c-2.28-.31-4-1.39-4.1-4.09-.05-2.55,1.7-3.75,3.87-3.88a3.69,3.69,0,0,1,4.24,4C424.19,194.86,422.72,196.3,420.2,196.58Z"/><path class="cls-1" d="M230,129.46c2.48.39,4.24,1.63,4,4.23a3.87,3.87,0,0,1-4.44,3.73,3.75,3.75,0,0,1-3.72-4C225.92,130.86,227.62,129.66,230,129.46Z"/><path class="cls-3" d="M241.8,129.49c2.5.25,4.16,1.44,4.06,4.13a3.72,3.72,0,0,1-4,3.8c-2.5,0-4.06-1.47-4-4.16C237.93,130.74,239.51,129.73,241.8,129.49Z"/><path class="cls-3" d="M253.87,137.51c-2.33-.2-3.94-1.38-4.15-3.71a3.68,3.68,0,0,1,3.9-4.3c2.16,0,4,1.06,4.17,3.58C258,135.81,256.25,137,253.87,137.51Z"/><path class="cls-2" d="M353,26.65c-.09,2.73-1.47,4.15-3.71,4.33-2.47.2-4.34-1.12-4.49-3.67-.14-2.28,1.3-3.76,3.68-4C351.09,23.07,352.42,24.55,353,26.65Z"/><path class="cls-2" d="M329.26,26.93c-.35,2.66-1.89,4.11-4.35,4.07a3.62,3.62,0,0,1-3.9-3.77,3.61,3.61,0,0,1,3.73-3.92C327.37,23.13,328.67,24.66,329.26,26.93Z"/><path class="cls-3" d="M257.82,156.79a3.8,3.8,0,0,1-3.71,4.2,3.94,3.94,0,1,1-.76-7.83A3.92,3.92,0,0,1,257.82,156.79Z"/><path class="cls-3" d="M245.89,157.15A3.73,3.73,0,0,1,242,161c-2.46.08-4.18-1.25-4.12-4a3.57,3.57,0,0,1,3.8-3.85C244.23,153.11,245.72,154.52,245.89,157.15Z"/><path class="cls-2" d="M106.93,156.86a3.9,3.9,0,0,1,4.4-3.72,3.95,3.95,0,1,1-.66,7.86A3.77,3.77,0,0,1,106.93,156.86Z"/><path class="cls-2" d="M126.89,216.33a3.57,3.57,0,0,1-3.9,3.78c-2.48,0-4.22-1.39-4.13-4.07a3.76,3.76,0,0,1,4-3.84C125.31,212.17,126.88,213.64,126.89,216.33Z"/><path class="cls-2" d="M39.76,23.27c2.41.11,4,1.4,4,4A3.62,3.62,0,0,1,39.81,31c-2.43,0-4.28-1.4-4.2-4C35.67,24.73,37.24,23.43,39.76,23.27Z"/><path class="cls-2" d="M27.86,23.27c2.41.11,4,1.4,4,4A3.62,3.62,0,0,1,27.91,31c-2.43,0-4.28-1.4-4.2-4C23.77,24.73,25.34,23.43,27.86,23.27Z"/><path class="cls-2" d="M27.86,11.88c2.41.11,4,1.4,4,4a3.62,3.62,0,0,1-3.94,3.73c-2.43,0-4.28-1.4-4.2-4C23.77,13.34,25.34,12,27.86,11.88Z"/><path class="cls-2" d="M39.76,12.15c2.41.11,4,1.4,4,4a3.62,3.62,0,0,1-3.94,3.73c-2.43,0-4.28-1.4-4.2-4C35.67,13.61,37.24,12.31,39.76,12.15Z"/><path class="cls-2" d="M396.49,11.3c2.24.45,3.9,1.44,3.86,4s-1.54,4.13-4.1,4-4-1.64-3.85-4.31S394.41,11.69,396.49,11.3Z"/><path class="cls-2" d="M388.66,15.23c-.31,2.53-1.74,4.17-4.2,4.09a3.89,3.89,0,0,1-4.05-4.18c0-2.43,1.8-3.65,3.94-3.75C386.8,11.27,388.34,12.71,388.66,15.23Z"/><path class="cls-2" d="M364.8,15.31c-.29,2.54-1.65,4.13-4.26,4a3.73,3.73,0,0,1-3.84-3.92c0-2.79,1.87-4,4.24-4S364.66,12.88,364.8,15.31Z"/><path class="cls-2" d="M353,3.44c-.14,2.86-1.56,4.45-4,4.49a3.9,3.9,0,0,1-4.21-4c-.07-2.35,1.62-3.72,3.81-3.9A3.89,3.89,0,0,1,353,3.44Z"/><path class="cls-2" d="M376.63,4.18a3.69,3.69,0,0,1-4.26,3.72,3.71,3.71,0,0,1-3.78-4c0-2.67,1.87-4,4.32-3.88C375.14.14,376.67,1.48,376.63,4.18Z"/><path class="cls-2" d="M388.66,3.85c-.31,2.53-1.74,4.17-4.2,4.09a3.89,3.89,0,0,1-4.05-4.18c0-2.43,1.8-3.65,3.94-3.75C386.8-.11,388.34,1.33,388.66,3.85Z"/><path class="cls-2" d="M364.8,3.92c-.29,2.54-1.65,4.13-4.26,4A3.73,3.73,0,0,1,356.71,4c0-2.79,1.87-4,4.24-4S364.66,1.5,364.8,3.92Z"/><path class="cls-2" d="M340.94,15.28a3.77,3.77,0,0,1-4.19,4A3.59,3.59,0,0,1,333,15.4c0-2.73,1.66-4.09,4.13-4A3.65,3.65,0,0,1,340.94,15.28Z"/><path class="cls-2" d="M122.86,161.11c-2.28-.45-4-1.47-4-3.94a3.73,3.73,0,0,1,4.17-4c2.59.07,4,1.66,3.82,4.29S124.94,160.78,122.86,161.11Z"/><path class="cls-2" d="M138.93,156.93c-.2,2.65-1.73,4.12-4.16,4.11a3.77,3.77,0,0,1-4.09-3.61,3.85,3.85,0,0,1,3.88-4.3C137.12,152.93,138.45,154.59,138.93,156.93Z"/><path class="cls-2" d="M408.32,46.87c2.2.05,3.82,1.2,4,3.57a3.7,3.7,0,0,1-3.91,4.28,3.8,3.8,0,0,1-4.2-4C404.2,48.37,405.77,47,408.32,46.87Z"/><path class="cls-2" d="M420,54.77c-2.33-.36-4-1.6-3.87-4.25.12-2.4,1.75-3.6,4.06-3.62,2.66,0,4.11,1.59,4,4.13C424,53.31,422.54,54.65,420,54.77Z"/><path class="cls-2" d="M126.88,191.9c0,3.1-1.47,4.59-4,4.6a3.73,3.73,0,0,1-4-3.74c-.14-2.7,1.61-4.11,4-4.15C125.14,188.58,126.74,189.83,126.88,191.9Z"/><path class="cls-2" d="M360.8,54.8c-2.44-.34-4.14-1.52-4.06-4.18.07-2.42,1.65-3.64,4-3.7,2.66-.07,4.12,1.47,4,4C364.66,53.27,363.16,54.55,360.8,54.8Z"/><path class="cls-3" d="M198,121.08c-.28,2.11-1.25,3.64-3.59,3.81-2.54.18-4.08-1.19-4.18-3.6a3.56,3.56,0,0,1,3.49-3.91C196.27,117.18,197.54,118.7,198,121.08Z"/><path class="cls-2" d="M325,46.87c2.39.1,4,1.4,4.09,3.69A3.8,3.8,0,0,1,325,54.72a3.7,3.7,0,0,1-4-4.17C321.11,48.18,322.68,47,325,46.87Z"/><path class="cls-2" d="M317.25,50.66c-.24,2.62-1.71,4.07-4.24,4.07a3.65,3.65,0,0,1-3.86-3.84,3.53,3.53,0,0,1,3.65-4C315.37,46.81,316.9,48.08,317.25,50.66Z"/><path class="cls-2" d="M51.63,58.48c2.33.36,3.92,1.57,4,4a3.67,3.67,0,0,1-4.12,4.06c-2.2-.08-3.9-1.26-3.93-3.8C47.52,60,49.29,58.89,51.63,58.48Z"/><path class="cls-2" d="M253.61,188.48c2.31.45,4.25,1.32,4.19,4.07s-1.85,4-4.19,4a3.76,3.76,0,0,1-3.92-3.79C249.54,190.13,251.28,189,253.61,188.48Z"/><path class="cls-2" d="M67.49,62.64a3.6,3.6,0,0,1-3.84,3.86c-2.5.07-4.31-1.37-4.23-4a3.82,3.82,0,0,1,4.37-3.91A3.71,3.71,0,0,1,67.49,62.64Z"/><path class="cls-3" d="M265.57,54.79c-2.32-.24-3.86-1.45-4-3.82-.11-2.65,1.47-4.06,4.07-4.08a3.67,3.67,0,0,1,4,3.7C269.78,53.1,268.14,54.54,265.57,54.79Z"/><path class="cls-2" d="M305.35,62.53a3.82,3.82,0,0,1-4.23,4,3.57,3.57,0,0,1-3.85-3.83,3.68,3.68,0,0,1,3.66-4.07C303.43,58.44,305.06,59.85,305.35,62.53Z"/><path class="cls-3" d="M376.63,109.69c0,2.69-1.57,4.16-4.06,4.14a3.77,3.77,0,0,1-4-3.83c-.09-2.67,1.63-4.07,4.12-4.07A3.58,3.58,0,0,1,376.63,109.69Z"/><path class="cls-2" d="M170.45,19.38c-2.46-.36-4-1.72-4-4.3a4,4,0,0,1,8,0C174.54,17.64,173,19.1,170.45,19.38Z"/><path class="cls-2" d="M186.29,4.94c-.07,2.65-1.58,4.06-4.08,4a3.59,3.59,0,0,1-3.74-3.88c0-2.72,1.64-4.06,4.08-4A3.56,3.56,0,0,1,186.29,4.94Z"/><path class="cls-2" d="M170.45,9c-2.46-.36-4-1.72-4-4.3a4,4,0,0,1,8,0C174.54,7.3,173,8.75,170.45,9Z"/><path class="cls-2" d="M8.11,50.81c-.33,2.54-1.8,4-4.34,3.9A3.64,3.64,0,0,1,0,50.79c0-2.54,1.57-4,4.23-3.86C6.58,47.07,7.88,48.41,8.11,50.81Z"/><path class="cls-2" d="M126.9,62.17c0,3.06-1.62,4.35-4,4.35a3.69,3.69,0,0,1-4-3.66,3.81,3.81,0,0,1,3.88-4.29A3.65,3.65,0,0,1,126.9,62.17Z"/><path class="cls-3" d="M253.76,125.54c-2.68-.14-4.08-1.6-4-3.88a4,4,0,0,1,8,0C257.78,124.31,256,125.4,253.76,125.54Z"/><path class="cls-2" d="M110.94,66.57c-2.44-.42-4.15-1.53-4-4.23s2-3.86,4.37-3.75a3.73,3.73,0,0,1,3.72,4C115,65.1,113.4,66.4,110.94,66.57Z"/><path class="cls-2" d="M103.25,50.92c-.48,2.48-1.85,4-4.48,3.79a3.76,3.76,0,0,1-3.74-4c.11-2.54,1.83-3.9,4.44-3.75C101.91,47.06,103,48.59,103.25,50.92Z"/><path class="cls-1" d="M111,173c-2.35-.35-4.06-1.49-4-4.2,0-2.55,1.82-3.7,4-3.76a3.67,3.67,0,0,1,4.09,4.1C114.93,171.43,113.44,172.77,111,173Z"/><path class="cls-3" d="M257.86,50.58c-.22,2.62-1.66,4.1-4.19,4.14a3.67,3.67,0,0,1-3.94-3.78,3.54,3.54,0,0,1,3.61-4C255.89,46.78,257.43,48,257.86,50.58Z"/><path class="cls-2" d="M91.21,157.18A3.59,3.59,0,0,1,87.38,161c-2.41,0-4.21-1.28-4.13-4a3.65,3.65,0,0,1,3.87-3.82C89.71,153.08,91.12,154.54,91.21,157.18Z"/><path class="cls-2" d="M340.94,109.61a3.79,3.79,0,0,1-4,4.2,3.62,3.62,0,0,1-4-3.73c-.14-2.46,1.18-4,3.49-4.12S340.71,106.85,340.94,109.61Z"/><path class="cls-3" d="M396.6,114c-2.6-.49-4.3-1.61-4.21-4.34.09-2.53,1.79-3.66,4-3.67,2.52,0,4.06,1.42,4,4.13C400.26,112.59,398.53,113.46,396.6,114Z"/><path class="cls-1" d="M388.66,145.31c-.32,2.08-1.37,3.68-3.8,3.79s-4.31-1.15-4.43-3.72,1.83-4,4.21-4S388.34,142.8,388.66,145.31Z"/><path class="cls-3" d="M289.39,149.15c-2.52-.13-4-1.49-4.07-3.77-.07-2.6,1.72-4,4.19-4,2.17.07,4,1.33,4,3.75C293.48,147.76,291.79,149,289.39,149.15Z"/><path class="cls-2" d="M146.93,153.12a3.59,3.59,0,0,1,3.65,3.55c.26,2.72-1.28,4.24-3.75,4.34-2.15.09-4-1-4.15-3.51S143.89,153.42,146.93,153.12Z"/><path class="cls-2" d="M158.89,153.12a3.78,3.78,0,0,1,3.67,4.23,3.62,3.62,0,0,1-4,3.67,3.58,3.58,0,0,1-3.9-3.74C154.67,154.75,156,153.27,158.89,153.12Z"/><path class="cls-1" d="M134.75,149.15c-2.39-.15-4.07-1.4-4.06-4,0-2.42,1.82-3.68,4-3.74,2.46-.07,4.25,1.38,4.17,4C138.77,147.68,137.28,149,134.75,149.15Z"/><path class="cls-3" d="M281.52,157a3.65,3.65,0,0,1-3.69,4c-2.47.2-4.21-1.1-4.28-3.82a3.58,3.58,0,0,1,3.62-4C279.61,153,281.34,154.27,281.52,157Z"/><path class="cls-2" d="M103.23,145.47c-.32,2.2-1.57,3.6-4,3.64-2.58,0-4.27-1.38-4.23-3.91s1.94-3.92,4.4-3.77C101.66,141.56,103.12,142.93,103.23,145.47Z"/><path class="cls-3" d="M277.32,137.52c-2.52-.55-4-1.91-3.75-4.57.23-2.51,1.92-3.53,4.18-3.39s3.8,1.42,3.75,3.9C281.46,136.18,279.65,137.17,277.32,137.52Z"/><path class="cls-2" d="M138.92,168.94c-.37,2.49-1.78,4.12-4.27,4a3.88,3.88,0,0,1-4-4.24c.08-2.41,1.87-3.63,4-3.69C137.12,164.94,138.68,166.38,138.92,168.94Z"/><path class="cls-3" d="M222,133.69a3.79,3.79,0,0,1-4.3,3.73,3.69,3.69,0,0,1-3.62-4.09c.09-2.63,1.72-4,4.27-3.79C220.68,129.71,222,131.13,222,133.69Z"/><path class="cls-1" d="M210.07,110.1a4,4,0,0,1-7.9-.3c0-2.72,1.82-4,4.23-3.89C208.62,106,210.07,107.43,210.07,110.1Z"/><path class="cls-1" d="M400.36,157.05a3.56,3.56,0,0,1-3.62,4c-2.37.13-4.3-1-4.34-3.81s1.61-4,4.11-4C398.85,153.14,400.21,154.55,400.36,157.05Z"/><path class="cls-1" d="M222,110.14c-.37,2.51-1.95,3.82-4.16,3.69a3.7,3.7,0,0,1-3.72-4.4c.26-2.66,2-3.75,4.54-3.42S222.09,107.91,222,110.14Z"/><path class="cls-3" d="M245.91,121.57c-.17,2.39-1.4,3.81-3.78,3.92-2.56.12-4.2-1.1-4.23-3.81a3.59,3.59,0,0,1,3.67-4C244.14,117.57,245.56,119.05,245.91,121.57Z"/><path class="cls-1" d="M241.94,113.92c-2.14-.3-3.83-1.18-4-3.68-.22-2.71,1.24-4.2,3.78-4.3,2.22-.08,4,1,4.16,3.51C246.05,112.12,244.42,113.38,241.94,113.92Z"/><path class="cls-3" d="M360.77,117.62c2.66.31,4.11,1.83,4,4.34a3.54,3.54,0,0,1-4.08,3.53c-2.32-.11-3.88-1.31-3.93-3.73C356.68,119.1,358.4,117.95,360.77,117.62Z"/><path class="cls-3" d="M269.83,121.72c-.59,2.64-2.06,4-4.68,3.76a3.55,3.55,0,0,1-3.54-4.09,3.69,3.69,0,0,1,4-3.71C268.25,117.72,269.46,119.45,269.83,121.72Z"/><path class="cls-3" d="M277.36,117.62c2.44.28,4.13,1.42,4.13,4.08,0,2.43-1.48,3.67-3.82,3.79s-3.93-1-4.1-3.46C273.39,119.46,274.78,118,277.36,117.62Z"/><path class="cls-3" d="M305.35,121.69c-.31,2.65-1.81,3.94-4.39,3.8a3.49,3.49,0,0,1-3.65-3.94,3.6,3.6,0,0,1,3.81-3.84C303.71,117.65,305.07,119.2,305.35,121.69Z"/><path class="cls-2" d="M317.25,27.22A3.88,3.88,0,0,1,312.83,31,3.6,3.6,0,0,1,309.14,27,3.56,3.56,0,0,1,313,23.31,3.85,3.85,0,0,1,317.25,27.22Z"/><path class="cls-2" d="M135,208.32c-2.43-.36-4.35-1.39-4.3-4,0-2.32,1.61-3.68,3.94-3.76,2.6-.09,4.18,1.37,4.21,3.91C138.87,206.81,137.13,207.9,135,208.32Z"/><path class="cls-2" d="M360.44,23.31c2.77,0,4.2,1.36,4.3,3.63a3.64,3.64,0,0,1-4,4.05c-2.15,0-3.92-1.17-4-3.65C356.65,24.66,358.31,23.52,360.44,23.31Z"/><path class="cls-2" d="M115.08,204.33c-.26,2.44-1.65,3.88-3.91,3.87S106.9,207,107,204.27s1.84-3.8,4.34-3.73S114.82,202.17,115.08,204.33Z"/><path class="cls-2" d="M388.67,26.86c-.24,2.55-1.58,4-3.85,4.13-2.42.11-4.35-1.14-4.39-3.76s1.69-3.92,4.22-3.93S388.18,24.88,388.67,26.86Z"/><path class="cls-2" d="M432,188.52c2.1.36,3.88,1.13,4,3.7s-1.32,4.23-3.85,4.27a3.75,3.75,0,0,1-4.12-4.07C428,189.94,429.79,189,432,188.52Z"/><path class="cls-2" d="M408.53,31.09c-2.43-.23-4.31-1.35-4.34-3.92A3.64,3.64,0,0,1,408,23.32c2.57-.11,4.2,1.18,4.3,3.8C412.4,29.58,410.7,30.61,408.53,31.09Z"/><path class="cls-2" d="M420.13,31.1c-2.42-.53-4.25-1.6-4-4.31.22-2.38,1.88-3.52,4.16-3.49a3.6,3.6,0,0,1,3.88,4.17C424,29.84,422.27,30.83,420.13,31.1Z"/><path class="cls-2" d="M443.78,23.27c2.59.05,4.19,1.4,4.2,4A3.63,3.63,0,0,1,444.08,31c-2.41,0-4.29-1.31-4.25-3.94C439.88,24.75,441.45,23.49,443.78,23.27Z"/><path class="cls-2" d="M471.77,27.1c-.19,2.53-1.68,3.84-3.91,3.89-2.45.06-4.29-1.36-4.23-3.91s1.76-3.87,4.36-3.74C470.38,23.46,471.55,24.89,471.77,27.1Z"/><path class="cls-2" d="M31.8,38.78c-.08,2.9-1.66,4.13-3.9,4.11-2.45,0-4.16-1.33-4.06-4.07A3.7,3.7,0,0,1,27.77,35C30.27,35,31.79,36.47,31.8,38.78Z"/><path class="cls-2" d="M87.28,34.91c2.15.37,3.79,1.33,3.91,3.82.13,2.72-1.41,4.15-3.92,4.16-2.2,0-3.91-1.12-4-3.65C83.14,36.52,84.82,35.38,87.28,34.91Z"/><path class="cls-3" d="M150.63,39.23a3.54,3.54,0,0,1-3.87,3.66c-2.43,0-4.21-1.27-4.1-4s2-4,4.36-3.85C149.22,35.14,150.68,36.65,150.63,39.23Z"/><path class="cls-3" d="M162.62,39c-.13,2.55-1.61,3.86-3.85,3.93a3.65,3.65,0,0,1-4.1-4,3.69,3.69,0,0,1,3.82-3.9A3.82,3.82,0,0,1,162.62,39Z"/><path class="cls-2" d="M237.87,38.59c.06-2.22,1.63-3.66,4.12-3.58a3.74,3.74,0,0,1,3.87,3.9c0,2.69-1.7,4-4.18,4C239.43,42.84,237.89,41.59,237.87,38.59Z"/><path class="cls-2" d="M277.45,43c-2.15-.23-3.79-1.2-3.9-3.69C273.44,36.6,275,35,277.46,35a3.7,3.7,0,0,1,4,3.69C281.66,41.45,280,42.6,277.45,43Z"/><path class="cls-2" d="M337,34.91c2.52.54,4.12,1.76,3.92,4.47-.18,2.55-2,3.57-4.15,3.51-2.52-.08-4-1.6-3.77-4.31C333.2,36.09,334.88,35.21,337,34.91Z"/><path class="cls-2" d="M198.35,15.45c-.49,2.49-1.89,4-4.47,3.84a3.73,3.73,0,0,1-3.62-4.12,3.71,3.71,0,0,1,4.39-3.76A3.86,3.86,0,0,1,198.35,15.45Z"/><path class="cls-2" d="M432,212.08c2.68.52,4.17,1.82,4,4.52s-1.93,3.59-4.13,3.51a3.68,3.68,0,0,1-3.88-3.87C428,213.61,429.81,212.47,432,212.08Z"/><path class="cls-2" d="M420.13,212.08c2.68.52,4.17,1.82,4,4.52s-1.93,3.59-4.13,3.51a3.68,3.68,0,0,1-3.88-3.87C416.12,213.61,417.91,212.47,420.13,212.08Z"/><path class="cls-2" d="M63.64,31.09c-2.47-.32-4.27-1.47-4.2-4.07a3.59,3.59,0,0,1,3.92-3.69c2.55,0,4.1,1.27,4.1,3.93C67.45,29.75,65.73,30.65,63.64,31.09Z"/><path class="cls-2" d="M79.51,27.06c-.27,2.39-1.62,3.87-3.89,3.93s-4.34-1.19-4.33-3.83,1.75-3.89,4.28-3.86S79.12,24.88,79.51,27.06Z"/><path class="cls-2" d="M99.15,31.1c-2.44-.4-4.28-1.6-4.13-4.19a3.71,3.71,0,0,1,4.09-3.61c2.58,0,4.13,1.46,4,4.07C103.08,29.81,101.32,30.77,99.15,31.1Z"/><path class="cls-2" d="M115.08,27.12c-.25,2.46-1.67,3.88-3.91,3.88s-4.26-1.21-4.18-3.93,1.84-3.8,4.34-3.74S114.82,25,115.08,27.12Z"/><path class="cls-2" d="M126.9,26.94c0,2.64-1.55,3.94-3.76,4-2.44.1-4.26-1.22-4.26-3.84s1.66-3.89,4.22-3.81A3.56,3.56,0,0,1,126.9,26.94Z"/><path class="cls-2" d="M138.92,26.91c-.16,2.41-1.47,3.91-3.74,4.07-2.44.18-4.34-1.07-4.49-3.66-.13-2.32,1.32-3.75,3.67-4C137,23.07,138.38,24.51,138.92,26.91Z"/><path class="cls-2" d="M420.28,208.3c-2.29-.4-4.22-1.3-4.15-4,.06-2.39,1.59-3.63,3.9-3.73,2.63-.12,4.14,1.38,4.15,3.89C424.2,206.78,422.55,207.93,420.28,208.3Z"/><path class="cls-2" d="M412.38,204.22c-.15,2.5-1.58,3.86-3.83,4-2.48.13-4.33-1.26-4.36-3.8s1.68-3.93,4.26-3.87C410.84,200.58,412.06,202,412.38,204.22Z"/><path class="cls-2" d="M448.16,192.42c-.32,2.42-1.7,3.88-4,3.89s-4.33-1.28-4.25-3.91,1.82-3.86,4.37-3.77S447.8,190.28,448.16,192.42Z"/><path class="cls-1" d="M468.44,192.42c-.32,2.42-1.7,3.88-4,3.89s-4.33-1.28-4.25-3.91,1.82-3.86,4.37-3.77S468.09,190.28,468.44,192.42Z"/><path class="cls-1" d="M468.44,203.92c-.32,2.42-1.7,3.88-4,3.89s-4.33-1.28-4.25-3.91,1.82-3.86,4.37-3.77S468.09,201.78,468.44,203.92Z"/><path class="cls-2" d="M261.54,204c.43-2.39,1.89-3.71,4.48-3.5,2.38.19,3.81,1.69,3.68,4-.14,2.53-2,3.89-4.47,3.68C263,208,261.59,206.62,261.54,204Z"/><path class="cls-2" d="M253.86,200.49c2.21.19,3.93,1.3,3.91,4,0,2.46-1.75,3.64-3.92,3.73a3.65,3.65,0,0,1-4.14-4C249.76,202,251.2,200.58,253.86,200.49Z"/><path class="cls-2" d="M257.85,27.18a3.91,3.91,0,0,1-4.41,3.8,3.62,3.62,0,0,1-3.74-3.91,3.58,3.58,0,0,1,3.86-3.76A3.89,3.89,0,0,1,257.85,27.18Z"/><path class="cls-2" d="M269.82,27c-.31,2.6-1.83,4.07-4.3,4-2.22,0-3.88-1.28-3.92-3.73a3.58,3.58,0,0,1,3.68-3.94C267.89,23.13,269.27,24.58,269.82,27Z"/><path class="cls-2" d="M289.4,31.1c-2.27-.32-4-1.39-4.07-3.75-.07-2.55,1.49-4.06,4.08-4.05a3.73,3.73,0,0,1,4.07,3.64C293.64,29.61,291.72,30.67,289.4,31.1Z"/><path class="cls-2" d="M305.35,27c-.16,2.61-1.71,4-4.16,4-2.19,0-3.84-1.21-3.89-3.69a3.5,3.5,0,0,1,3.59-4C303.44,23.16,305,24.41,305.35,27Z"/><path class="cls-2" d="M55.63,74.44c-.4,2.62-1.79,4.1-4.42,3.83a3.65,3.65,0,0,1-3.62-4.05c.12-2.68,1.89-3.82,4.4-3.7S55.48,72.23,55.63,74.44Z"/><path class="cls-2" d="M67.5,74.5c-.27,2.31-1.51,3.76-3.89,3.8-2.6,0-4.18-1.48-4.15-4s1.76-3.91,4.33-3.77C66.18,70.66,67.38,72.1,67.5,74.5Z"/><path class="cls-2" d="M436,180.85a3.61,3.61,0,0,1-3.9,3.75c-2.46,0-4.21-1.39-4.11-4.07a3.66,3.66,0,0,1,3.92-3.78C434.54,176.73,436,178.17,436,180.85Z"/><path class="cls-2" d="M400.36,180.76a3.59,3.59,0,0,1-3.81,3.84c-2.42,0-4.23-1.26-4.14-4s1.84-3.95,4.32-3.84S400.32,178.34,400.36,180.76Z"/><path class="cls-3" d="M281.53,180.87a3.68,3.68,0,0,1-3.94,3.72,3.6,3.6,0,0,1-4-4.07,3.55,3.55,0,0,1,3.85-3.77C279.94,176.77,281.44,178.16,281.53,180.87Z"/><path class="cls-2" d="M55.64,86.18c-.17,2.57-1.72,3.94-3.93,3.93s-4.24-1.24-4.15-4,2-3.85,4.36-3.77A3.67,3.67,0,0,1,55.64,86.18Z"/><path class="cls-2" d="M63.57,90.17c-2.48-.28-4.22-1.5-4.17-4.11a3.71,3.71,0,0,1,4-3.75c2.45,0,4.14,1.3,4.08,4C67.42,88.88,65.77,89.82,63.57,90.17Z"/><path class="cls-2" d="M103.22,86.22a3.74,3.74,0,0,1-3.86,3.87c-2.48.1-4.35-1.36-4.34-3.9s1.87-4,4.37-3.87A3.75,3.75,0,0,1,103.22,86.22Z"/><path class="cls-2" d="M158.62,176.69c2.24.16,3.86,1.37,4,4,.08,2.45-1.5,3.77-3.71,3.92a3.56,3.56,0,0,1-4.14-3.45C154.53,178.65,155.76,177,158.62,176.69Z"/><path class="cls-2" d="M146.72,176.71c2.1.09,3.64,1.12,3.86,3.56.25,2.71-1.27,4.23-3.76,4.32-2.17.08-4-1-4.14-3.52S143.93,177,146.72,176.71Z"/><path class="cls-1" d="M305.37,86.3a3.88,3.88,0,0,1-4.45,3.79,3.88,3.88,0,0,1,.23-7.76A3.84,3.84,0,0,1,305.37,86.3Z"/><path class="cls-2" d="M317.23,86.48c-.22,2.56-2,3.7-4.41,3.6a3.89,3.89,0,0,1,.24-7.78C315.42,82.34,317.22,83.56,317.23,86.48Z"/><path class="cls-2" d="M329.24,86.23c-.4,2.54-2,4-4.46,3.86a3.89,3.89,0,0,1,0-7.77C327.32,82.23,328.86,83.69,329.24,86.23Z"/><path class="cls-2" d="M360.79,82.26c2.48.28,4,1.61,4,3.93a3.69,3.69,0,0,1-4.26,3.9c-2.19-.14-3.85-1.35-3.84-3.85C356.71,83.48,358.56,82.55,360.79,82.26Z"/><path class="cls-2" d="M372.66,82.25c2.08.27,3.81,1.09,4,3.63.17,2.73-1.42,4.14-3.88,4.22a3.69,3.69,0,0,1-4.14-3.57C368.41,83.86,370.1,82.63,372.66,82.25Z"/><path class="cls-2" d="M63.57,101.94c-2.57-.13-4.1-1.43-4.12-3.75a3.74,3.74,0,0,1,4.12-4.06c2.59,0,4,1.65,3.87,4.24C67.31,100.79,65.71,101.86,63.57,101.94Z"/><path class="cls-2" d="M158.58,164.91c2.12.36,3.88,1.23,4,3.71a3.72,3.72,0,0,1-3.86,4.28c-2.55.09-4-1.51-4-4.08S156.32,165.31,158.58,164.91Z"/><path class="cls-2" d="M400.36,39.35a3.5,3.5,0,0,1-3.87,3.54c-2.44,0-4.2-1.29-4.08-4.05s2-4,4.36-3.83C399,35.15,400.43,36.65,400.36,39.35Z"/><path class="cls-2" d="M431.94,34.89c2.23.36,3.9,1.27,4.07,3.77.18,2.73-1.34,4.17-3.86,4.23-2.23.05-4-1.13-4.11-3.59C427.87,36.63,429.59,35.43,431.94,34.89Z"/><path class="cls-2" d="M455.87,34.9c2.23.38,3.82,1.46,3.9,3.91.09,2.7-1.5,4.13-4,4.08-2.21,0-3.89-1.19-4-3.73C451.73,36.42,453.47,35.34,455.87,34.9Z"/><path class="cls-2" d="M55.63,50.78c-.34,2.52-1.63,4.11-4.28,3.92a3.67,3.67,0,0,1-3.77-3.92c0-2.69,1.74-3.89,4.26-3.85S55.41,48.48,55.63,50.78Z"/><path class="cls-2" d="M67.53,50.73c-.34,2.56-1.63,4-4,4-2.58,0-4.16-1.57-4.08-4.09s1.83-3.86,4.41-3.68C66.3,47.1,67.35,48.64,67.53,50.73Z"/><path class="cls-2" d="M400.36,192.5c-.1,2.65-1.6,4.09-4.14,4a3.67,3.67,0,0,1-3.83-3.88c0-2.78,1.79-4,4.18-4A3.58,3.58,0,0,1,400.36,192.5Z"/><path class="cls-2" d="M293.56,192.38c-.22,2.62-1.82,4.14-4.18,4.17a3.84,3.84,0,0,1-4.08-4.14,3.67,3.67,0,0,1,3.86-3.82A4,4,0,0,1,293.56,192.38Z"/><path class="cls-2" d="M150.63,192.73a4,4,0,0,1-8-.22c0-2.79,1.9-4,4.27-3.9C149.14,188.69,150.67,190.08,150.63,192.73Z"/><path class="cls-2" d="M134.76,188.49c2.39.37,4.19,1.52,4.1,4.14a3.79,3.79,0,0,1-3.84,3.89,3.91,3.91,0,0,1-4.34-3.87C130.51,190,132.46,189,134.76,188.49Z"/><path class="cls-2" d="M87.3,66.56c-2.56-.38-4.22-1.53-4-4.28a3.7,3.7,0,0,1,4-3.69c2.5,0,4,1.59,3.9,4.27S89.41,66.29,87.3,66.56Z"/><path class="cls-2" d="M218,66.57c-2.12-.26-3.78-1.22-3.9-3.68-.14-2.62,1.36-4.26,3.84-4.3a3.72,3.72,0,0,1,4,4.12C222,65.18,220.37,66.22,218,66.57Z"/><path class="cls-3" d="M162.63,15c-.15,2.8-1.68,4.28-4.14,4.27a3.66,3.66,0,0,1-3.82-3.88,3.65,3.65,0,0,1,4.08-4A3.71,3.71,0,0,1,162.63,15Z"/><path class="cls-1" d="M277.44,66.56c-2.27-.3-3.87-1.35-3.9-3.83,0-2.65,1.52-4.18,4-4.13a3.71,3.71,0,0,1,3.93,3.81C281.61,65.18,279.86,66.22,277.44,66.56Z"/><path class="cls-1" d="M341,62.69c-.14,2.79-2,3.92-4.38,3.81a3.56,3.56,0,0,1-3.62-4,3.65,3.65,0,0,1,3.85-3.86A3.81,3.81,0,0,1,341,62.69Z"/><path class="cls-2" d="M396.45,66.56c-2.57-.39-4.23-1.53-4-4.29a3.7,3.7,0,0,1,4.05-3.68c2.5,0,4,1.61,3.89,4.28C400.24,65.38,398.56,66.3,396.45,66.56Z"/><path class="cls-2" d="M455.86,66.56c-2.59-.4-4.24-1.55-4-4.31a3.71,3.71,0,0,1,4.07-3.67c2.51,0,4,1.64,3.88,4.3C459.65,65.38,458,66.31,455.86,66.56Z"/><path class="cls-3" d="M245.9,180.52c-.17,2.75-1.74,4-3.95,4.07-2.46,0-4.14-1.31-4.05-4a3.57,3.57,0,0,1,3.85-3.79A3.78,3.78,0,0,1,245.9,180.52Z"/><path class="cls-2" d="M55.62,98c-.16,2.15-1.17,3.74-3.63,3.85s-4.3-1-4.39-3.69,1.57-4,4.08-4.09S55.31,95.57,55.62,98Z"/><path class="cls-2" d="M396.49,82.27c2.09.27,3.75,1.19,3.87,3.68a3.61,3.61,0,0,1-3.94,4.14c-2.15,0-3.91-1.1-4-3.62C392.27,83.73,393.93,82.62,396.49,82.27Z"/><path class="cls-2" d="M341,86.29c0,2.58-1.78,3.82-4.17,3.8a3.89,3.89,0,0,1-.17-7.76C339,82.25,340.83,83.35,341,86.29Z"/><path class="cls-2" d="M281.51,86.84c-.11,2.25-2,3.35-4.33,3.25a3.89,3.89,0,0,1,.21-7.77C279.77,82.34,281.56,83.53,281.51,86.84Z"/><path class="cls-2" d="M222,86.23a3.73,3.73,0,0,1-4.22,3.88,3.9,3.9,0,0,1,0-7.8A3.72,3.72,0,0,1,222,86.23Z"/><path class="cls-2" d="M91.22,86.19a3.57,3.57,0,0,1-3.73,3.91c-2.38.07-4.25-1.14-4.26-3.87s1.83-4,4.23-3.9A3.56,3.56,0,0,1,91.22,86.19Z"/><path class="cls-2" d="M174.53,27.19c-.4,2.53-1.86,3.89-4.16,3.8s-3.94-1.44-3.86-3.85c.08-2.58,1.71-4,4.33-3.82S174.29,25.12,174.53,27.19Z"/><path class="cls-2" d="M376.65,74.36c-.2,2.34-1.39,3.83-3.77,3.92-2.59.11-4.2-1.36-4.24-3.9s1.64-3.95,4.21-3.87C375.23,70.59,376.47,72,376.65,74.36Z"/><path class="cls-2" d="M336.71,78.37c-2.57-.38-3.92-1.86-3.71-4.43.2-2.41,1.78-3.56,4.13-3.42s3.8,1.41,3.76,3.84C340.86,77,339.2,78.17,336.71,78.37Z"/><path class="cls-2" d="M186.31,27.16c-.16,2.6-1.73,3.84-4,3.82s-3.87-1.25-3.87-3.75c0-2.7,1.55-4,4.14-3.89C185,23.44,186.23,24.88,186.31,27.16Z"/><path class="cls-2" d="M194.62,31.1c-2.48-.18-4.18-1.31-4.34-3.65a3.57,3.57,0,0,1,3.56-4.11c2.65-.21,4.27,1.18,4.43,3.74S196.63,30.59,194.62,31.1Z"/><path class="cls-2" d="M340.95,27a3.73,3.73,0,0,1-3.89,4c-2.52.09-4.19-1.34-4.07-4.06.11-2.45,1.63-3.66,4-3.59A3.66,3.66,0,0,1,340.95,27Z"/><path class="cls-2" d="M217.94,78.37c-2.38-.26-3.76-1.57-3.79-4a3.48,3.48,0,0,1,3.75-3.89c2.61,0,4.18,1.4,4.06,4.08C221.84,77,220.29,78.17,217.94,78.37Z"/><path class="cls-2" d="M87.45,78.4c-2.73-.36-4.29-1.65-4.18-4.27.1-2.42,1.69-3.61,4-3.61,2.62,0,4,1.48,3.9,4.12C91.06,77.06,89.48,78.1,87.45,78.4Z"/><path class="cls-2" d="M245.91,62.6a3.8,3.8,0,0,1-4.31,3.89,3.56,3.56,0,0,1-3.74-3.93,3.67,3.67,0,0,1,3.75-4C244.11,58.5,245.68,60,245.91,62.6Z"/><path class="cls-2" d="M400.39,50.56c-.19,2.65-1.47,4.21-4.09,4.14a3.64,3.64,0,0,1-3.87-3.78c-.08-2.68,1.54-4,4.08-4S400.14,48.31,400.39,50.56Z"/><path class="cls-2" d="M372.81,46.89c2.13.12,3.69,1.22,3.77,3.65.09,2.6-1.35,4.16-3.94,4.16a3.72,3.72,0,0,1-4-4.13C368.69,48.23,370.24,47,372.81,46.89Z"/><path class="cls-2" d="M376.64,27c-.08,2.61-1.59,3.9-3.8,4-2.44.09-4.26-1.26-4.23-3.87s1.69-3.88,4.26-3.78A3.58,3.58,0,0,1,376.64,27Z"/><path class="cls-2" d="M400.37,27.1c-.14,2.63-1.68,3.91-4,3.88s-4-1.17-4-3.7c0-2.73,1.63-4,4.19-3.95S400.27,24.81,400.37,27.1Z"/><path class="cls-3" d="M269.81,145.27c-.39,2.43-1.73,3.91-4.34,3.84a3.6,3.6,0,0,1-3.88-3.76c-.09-2.46,1.52-3.78,3.73-3.92C267.8,141.28,269.37,142.69,269.81,145.27Z"/><path class="cls-3" d="M281.52,145.63c-.23,2.21-1.64,3.45-4,3.46-2.7,0-4.09-1.48-3.92-4.15.16-2.5,1.9-3.66,4.16-3.5S281.54,142.86,281.52,145.63Z"/><path class="cls-3" d="M239.54,102.26c-2.24-.26-3.59-1.43-3.53-3.77a3.81,3.81,0,0,1,7.62,0C243.61,101.09,242,102.19,239.54,102.26Z"/><path class="cls-3" d="M150.64,27.11c-.14,2.6-1.67,3.9-3.95,3.87s-4-1.16-4-3.69c0-2.74,1.63-4,4.18-4S150.53,24.8,150.64,27.11Z"/><path class="cls-2" d="M91.22,27.11c-.14,2.63-1.69,3.9-4,3.87s-4-1.19-4-3.71c0-2.73,1.63-4,4.2-3.94S91.12,24.81,91.22,27.11Z"/><path class="cls-2" d="M55.63,27c-.08,2.34-1.39,3.84-3.65,4s-4.29-1-4.38-3.67,1.58-3.92,4.08-4S55.32,24.66,55.63,27Z"/><path class="cls-2" d="M55.63,15.73c-.08,2.34-1.39,3.84-3.65,4s-4.29-1-4.38-3.67,1.58-3.92,4.08-4S55.32,13.39,55.63,15.73Z"/><path class="cls-2" d="M372.63,94c2.27.22,3.82,1.33,4,3.73.14,2.65-1.31,4.07-3.93,4.12-2.38,0-3.94-1.26-4-3.59C368.5,95.77,370.07,94.36,372.63,94Z"/><path class="cls-2" d="M400.39,97.89c-.22,2.66-1.49,4-3.89,4s-4.15-1.3-4.08-4a3.65,3.65,0,0,1,3.87-3.79C398.94,94,400.15,95.67,400.39,97.89Z"/><path class="cls-2" d="M206.25,19.36c-2.38-.24-4-1.41-4.07-4.05-.06-2.48,1.55-3.77,3.75-3.89a3.56,3.56,0,0,1,4.1,3.5C210.22,17.49,208.85,19,206.25,19.36Z"/><path class="cls-3" d="M253.68,141.32c2.22.42,4.18,1.3,4.1,4-.07,2.39-1.6,3.63-3.91,3.73-2.63.12-4.14-1.38-4.16-3.9C249.7,142.84,251.37,141.7,253.68,141.32Z"/><path class="cls-2" d="M337,125.52c-2.35,0-3.9-1.12-4-3.54s1.21-4.23,3.82-4.27a3.69,3.69,0,0,1,4.1,4C340.89,124.18,339.37,125.32,337,125.52Z"/><path class="cls-2" d="M400.39,121.53c-.22,2.64-1.51,4-3.91,4s-4.15-1.32-4.06-4a3.66,3.66,0,0,1,3.89-3.78C399,117.63,400.17,119.27,400.39,121.53Z"/><path class="cls-1" d="M210.08,133.59a3.73,3.73,0,0,1-4.13,3.82,3.68,3.68,0,0,1-3.77-3.91c0-2.71,1.67-4,4.12-4C208.55,129.56,210,130.94,210.08,133.59Z"/><path class="cls-2" d="M110.57,149.09c-2.17-.26-3.75-1.52-3.57-4.17.17-2.46,2-3.55,4.14-3.5a3.65,3.65,0,0,1,3.87,4.22C114.8,147.92,113.3,149.18,110.57,149.09Z"/><path class="cls-2" d="M122.93,141.3c2.26.5,4,1.4,3.94,3.91,0,2.68-1.57,3.93-4.13,3.88a3.57,3.57,0,0,1-3.86-3.73C118.81,142.68,120.73,141.73,122.93,141.3Z"/><path class="cls-3" d="M241.84,141.32c2.23.44,4,1.38,4,3.89,0,2.7-1.68,4-4.28,3.87-2.43-.1-3.72-1.5-3.68-4S239.71,141.71,241.84,141.32Z"/><path class="cls-2" d="M432,31.09c-2.26-.44-4-1.45-4-3.94.06-2.68,1.75-4,4.34-3.8a3.5,3.5,0,0,1,3.62,4C435.91,29.91,434.15,30.75,432,31.09Z"/><path class="cls-2" d="M459.79,26.94c0,2.49-1.41,4-3.68,4s-4.32-1.11-4.29-3.89c0-2.46,1.56-3.68,3.92-3.76S459.52,24.53,459.79,26.94Z"/><path class="cls-2" d="M91.21,50.92c-.23,2.34-1.51,3.79-3.86,3.78-2.53,0-4.12-1.43-4.07-4s1.83-3.85,4.33-3.73S91.17,48.52,91.21,50.92Z"/><path class="cls-2" d="M126.9,204.45a3.69,3.69,0,0,1-4,3.74c-2.26,0-4-1.33-4-3.77,0-2.66,1.67-4,4.27-3.87C125.59,200.65,126.81,202.08,126.9,204.45Z"/><path class="cls-2" d="M122.77,224.09c2.3.09,3.92,1.12,4.07,3.54.16,2.58-1.21,4.19-3.81,4.27a3.69,3.69,0,0,1-4.13-4C118.89,225.53,120.43,224.31,122.77,224.09Z"/><path class="cls-3" d="M158.76,23.3c2.26.17,3.76,1.38,3.8,3.77,0,2.71-1.78,4-4.21,3.92a3.58,3.58,0,0,1-3.65-4C154.82,24.61,156.24,23.34,158.76,23.3Z"/><path class="cls-2" d="M400.37,204c-.06,2.81-1.53,4.19-3.81,4.21-2.45,0-4.26-1.28-4.15-4,.1-2.46,1.7-3.61,4-3.63A3.55,3.55,0,0,1,400.37,204Z"/><path class="cls-1" d="M222,121.78c-.28,2.34-1.57,3.7-4,3.72s-3.88-1.32-3.89-3.74c0-2.59,1.46-4.17,4.11-4C220.64,117.84,221.85,119.38,222,121.78Z"/><path class="cls-3" d="M209.28,121.18c-.15,2.3-1.32,3.68-3.67,3.7s-3.79-1.17-3.87-3.49a3.53,3.53,0,0,1,3.88-4C207.92,117.41,209.09,118.91,209.28,121.18Z"/><path class="cls-2" d="M336.94,101.95c-2.41-.13-3.89-1.28-3.94-3.71-.05-2.59,1.37-4.13,4-4.11a3.64,3.64,0,0,1,3.93,3.72C341,100.53,339.41,101.73,336.94,101.95Z"/><path class="cls-3" d="M305.37,98.12c-.47,2.75-2,4-4.58,3.76a3.5,3.5,0,0,1-3.46-4.09,3.62,3.62,0,0,1,4-3.67C303.92,94.14,305.1,95.84,305.37,98.12Z"/><path class="cls-2" d="M281.57,97.82c-.25,2.9-1.8,4.16-4.33,4.08A3.46,3.46,0,0,1,273.58,98a3.59,3.59,0,0,1,3.73-3.89C279.87,94,281.23,95.56,281.57,97.82Z"/><path class="cls-3" d="M220.77,98.47c-.2,2.27-1.34,3.65-3.68,3.75s-3.8-1.12-3.89-3.43c-.1-2.47,1.23-4.06,3.79-4C219.29,94.77,220.49,96.21,220.77,98.47Z"/><path class="cls-1" d="M210.06,97.88c-.05,2.37-1.19,3.89-3.63,4s-4-1-4.21-3.45a3.67,3.67,0,0,1,3.84-4.33C208.47,94,209.75,95.51,210.06,97.88Z"/><path class="cls-2" d="M400.37,74.34c-.14,2.33-1.32,3.86-3.68,4s-4.19-1.23-4.25-3.86,1.62-3.94,4.14-3.92S400.22,71.94,400.37,74.34Z"/><path class="cls-3" d="M305.35,74.19c-.22,2.46-1.46,4.08-4.07,4.11a3.6,3.6,0,0,1-4-3.68,3.51,3.51,0,0,1,3.49-4.08C303.36,70.3,304.9,71.58,305.35,74.19Z"/><path class="cls-2" d="M281.54,74.09c-.12,2.61-1.45,4.13-4,4.21a3.55,3.55,0,0,1-4-3.65c-.17-2.37,1.05-3.91,3.43-4.11A3.82,3.82,0,0,1,281.54,74.09Z"/><path class="cls-2" d="M242.11,78.39c-2.74-.27-4.27-1.55-4.2-4.18.06-2.43,1.53-3.66,3.88-3.69s3.91,1.21,4,3.58C246,76.69,244.37,78,242.11,78.39Z"/><path class="cls-2" d="M336.75,54.78c-2.56-.39-4-1.84-3.75-4.41.19-2.41,1.75-3.56,4.1-3.44s3.81,1.38,3.79,3.8C340.88,53.38,339.22,54.54,336.75,54.78Z"/><path class="cls-2" d="M305.35,50.57c-.24,2.52-1.52,4.12-4.11,4.13A3.6,3.6,0,0,1,297.32,51a3.5,3.5,0,0,1,3.52-4C303.4,46.72,304.92,48,305.35,50.57Z"/><path class="cls-2" d="M281.53,51c-.37,2.5-1.92,3.86-4.43,3.67a3.59,3.59,0,0,1-3.53-4.09c.12-2.66,1.76-3.89,4.33-3.66C280.25,47.16,281.48,48.57,281.53,51Z"/><path class="cls-2" d="M245.92,50.8c-.45,2.71-1.95,4.12-4.49,3.89a3.59,3.59,0,0,1-3.52-4.09c.13-2.69,1.83-3.84,4.36-3.66S245.76,48.65,245.92,50.8Z"/><path class="cls-2" d="M222,50.77c-.26,2.34-1.47,3.87-3.87,3.93-2.67.06-4.08-1.56-4-4.14.06-2.41,1.56-3.71,4-3.63S221.8,48.4,222,50.77Z"/><path class="cls-1" d="M206.9,66.57c-2.12-.26-3.78-1.22-3.9-3.68-.14-2.62,1.36-4.26,3.84-4.3a3.72,3.72,0,0,1,4,4.12C210.84,65.18,209.25,66.22,206.9,66.57Z"/><path class="cls-2" d="M210.91,50.77c-.26,2.34-1.47,3.87-3.87,3.93-2.67.06-4.08-1.56-4-4.14.06-2.41,1.56-3.71,4-3.63S210.68,48.4,210.91,50.77Z"/><path class="cls-2" d="M126.91,50.59c-.13,2.57-1.44,4.11-4,4.12a3.66,3.66,0,0,1-4-3.72c-.12-2.6,1.42-4,4-4.06C125.3,46.91,126.63,48.2,126.91,50.59Z"/><path class="cls-2" d="M436,203.63c.08,3-1.39,4.41-3.64,4.55-2.48.15-4.31-1.17-4.31-3.86,0-2.4,1.51-3.71,3.9-3.78A3.63,3.63,0,0,1,436,203.63Z"/></g></g></svg>