<?xml version="1.0" encoding="utf-8"?>
<!-- Generator: Adobe Illustrator 21.0.2, SVG Export Plug-In . SVG Version: 6.00 Build 0)  -->
<svg version="1.1" id="Layer_1" xmlns="http://www.w3.org/2000/svg" xmlns:xlink="http://www.w3.org/1999/xlink" x="0px" y="0px"
	 viewBox="0 0 444.6 456.3" style="enable-background:new 0 0 444.6 456.3;" xml:space="preserve">
<style type="text/css">
	.st0{fill:#0072CE;}
	.st1{fill:#00B5EC;}
	.st2{fill:#981D97;}
	.st3{fill:#5B7F95;}
	.st4{fill:#AFB9C5;}
	.st5{fill:url(#SVGID_1_);}
	.st6{fill:url(#SVGID_2_);}
	.st7{fill:url(#SVGID_3_);}
	.st8{fill:url(#SVGID_4_);}
	.st9{fill:url(#SVGID_5_);}
	.st10{fill:url(#SVGID_6_);}
	.st11{fill:url(#SVGID_7_);}
	.st12{fill:url(#SVGID_8_);}
	.st13{fill:url(#SVGID_9_);}
	.st14{fill:url(#SVGID_10_);}
	.st15{fill:url(#SVGID_11_);}
	.st16{fill:url(#SVGID_12_);}
	.st17{fill:url(#SVGID_13_);}
	.st18{fill:url(#SVGID_14_);}
	.st19{fill:#5B7F94;}
	.st20{fill:url(#SVGID_15_);}
	.st21{fill:url(#SVGID_16_);}
	.st22{fill:url(#SVGID_17_);}
	.st23{fill:url(#SVGID_18_);}
	.st24{fill:url(#SVGID_19_);}
	.st25{fill:url(#SVGID_20_);}
	.st26{fill:url(#SVGID_21_);}
	.st27{fill:url(#SVGID_22_);}
	.st28{fill:url(#SVGID_23_);}
	.st29{fill:url(#SVGID_24_);}
	.st30{fill:url(#SVGID_25_);}
	.st31{fill:url(#SVGID_26_);}
	.st32{fill:url(#SVGID_27_);}
	.st33{fill:url(#SVGID_28_);}
	.st34{fill:none;stroke:#5B7F94;stroke-width:1.1348;stroke-miterlimit:10;}
	.st35{fill:#FFFFFF;}
</style>
<g>
	<path class="st0" d="M18.5,37.2C8.3,37.2,0,29.2,0,19.5v-1.8C0,7.9,8.3,0,18.5,0h407.6c10.2,0,18.5,7.9,18.5,17.7v1.8
		c0,9.8-8.3,17.7-18.5,17.7H18.5z"/>
	<path class="st0" d="M139.3,334.4H135c-8.8,0-16-7.2-16-16V115.8c0-8.8,7.2-16,16-16h4.3c8.8,0,16,7.2,16,16v202.6
		C155.3,327.2,148.1,334.4,139.3,334.4z"/>
	<path class="st1" d="M213.2,334.4h-4.3c-8.8,0-16-7.2-16-16V156.3c0-8.8,7.2-16,16-16h4.3c8.8,0,16,7.2,16,16v162.1
		C229.2,327.2,222,334.4,213.2,334.4z"/>
	<path class="st2" d="M286.2,334.4h-4.3c-8.8,0-16-7.2-16-16v-119c0-8.8,7.2-16,16-16h4.3c8.8,0,16,7.2,16,16v119
		C302.2,327.2,295.1,334.4,286.2,334.4z"/>
	<path class="st3" d="M358.6,334.4h-4.3c-8.8,0-16-7.2-16-16v-57.7c0-8.8,7.2-16,16-16h4.3c8.8,0,16,7.2,16,16v57.7
		C374.6,327.2,367.5,334.4,358.6,334.4z"/>
	<g>
		<g>
			<circle class="st4" cx="138.9" cy="389" r="28.4"/>
		</g>
		<g>
			<radialGradient id="SVGID_1_" cx="152.329" cy="376.3591" r="28.4848" gradientUnits="userSpaceOnUse">
				<stop  offset="0" style="stop-color:#FFFFFF"/>
				<stop  offset="0.5053" style="stop-color:#FDFDFE"/>
				<stop  offset="0.6873" style="stop-color:#F6F8F9"/>
				<stop  offset="0.817" style="stop-color:#EBEDF0"/>
				<stop  offset="0.9211" style="stop-color:#DADFE3"/>
				<stop  offset="1" style="stop-color:#C7CFD5"/>
			</radialGradient>
			<circle class="st5" cx="139" cy="389" r="28.5"/>
			<radialGradient id="SVGID_2_" cx="152.8602" cy="374.7333" r="33.2373" gradientUnits="userSpaceOnUse">
				<stop  offset="0" style="stop-color:#F6F7F8"/>
				<stop  offset="0.4318" style="stop-color:#F4F5F6"/>
				<stop  offset="0.6764" style="stop-color:#EBEEF0"/>
				<stop  offset="0.8736" style="stop-color:#DEE2E6"/>
				<stop  offset="1" style="stop-color:#D0D7DC"/>
			</radialGradient>
			<circle class="st6" cx="139" cy="389" r="28.2"/>
			<radialGradient id="SVGID_3_" cx="153.3774" cy="373.1442" r="38.1715" gradientUnits="userSpaceOnUse">
				<stop  offset="0" style="stop-color:#ECEFF1"/>
				<stop  offset="0.4869" style="stop-color:#E9ECEE"/>
				<stop  offset="0.8802" style="stop-color:#DFE3E7"/>
				<stop  offset="1" style="stop-color:#DADFE3"/>
			</radialGradient>
			<circle class="st7" cx="139" cy="389" r="27.9"/>
			<radialGradient id="SVGID_4_" cx="153.8807" cy="371.5918" r="43.2842" gradientUnits="userSpaceOnUse">
				<stop  offset="0" style="stop-color:#E3E7EA"/>
				<stop  offset="1" style="stop-color:#E3E7EA"/>
			</radialGradient>
			<circle class="st8" cx="139" cy="389" r="27.6"/>
			<radialGradient id="SVGID_5_" cx="154.3699" cy="370.076" r="48.5713" gradientUnits="userSpaceOnUse">
				<stop  offset="0" style="stop-color:#DADFE3"/>
				<stop  offset="0.5245" style="stop-color:#E1E5E8"/>
				<stop  offset="1" style="stop-color:#ECEFF1"/>
			</radialGradient>
			<circle class="st9" cx="139" cy="389" r="27.3"/>
			<radialGradient id="SVGID_6_" cx="154.8453" cy="368.5969" r="54.0278" gradientUnits="userSpaceOnUse">
				<stop  offset="0" style="stop-color:#D0D7DC"/>
				<stop  offset="0.433" style="stop-color:#DEE3E6"/>
				<stop  offset="1" style="stop-color:#F6F7F8"/>
			</radialGradient>
			<circle class="st10" cx="139" cy="389" r="27"/>
			<radialGradient id="SVGID_7_" cx="155.3066" cy="367.1545" r="59.648" gradientUnits="userSpaceOnUse">
				<stop  offset="0" style="stop-color:#C7CFD5"/>
				<stop  offset="1" style="stop-color:#FFFFFF"/>
			</radialGradient>
			<circle class="st11" cx="139" cy="389" r="26.7"/>
		</g>
	</g>
	<g>
		<g>
			<circle class="st4" cx="212.6" cy="389" r="28.4"/>
		</g>
		<g>
			<radialGradient id="SVGID_8_" cx="226.0892" cy="376.3591" r="28.4848" gradientUnits="userSpaceOnUse">
				<stop  offset="0" style="stop-color:#FFFFFF"/>
				<stop  offset="0.5053" style="stop-color:#FDFDFE"/>
				<stop  offset="0.6873" style="stop-color:#F6F8F9"/>
				<stop  offset="0.817" style="stop-color:#EBEDF0"/>
				<stop  offset="0.9211" style="stop-color:#DADFE3"/>
				<stop  offset="1" style="stop-color:#C7CFD5"/>
			</radialGradient>
			<circle class="st12" cx="212.7" cy="389" r="28.5"/>
			<radialGradient id="SVGID_9_" cx="226.6204" cy="374.7333" r="33.2373" gradientUnits="userSpaceOnUse">
				<stop  offset="0" style="stop-color:#F6F7F8"/>
				<stop  offset="0.4318" style="stop-color:#F4F5F6"/>
				<stop  offset="0.6764" style="stop-color:#EBEEF0"/>
				<stop  offset="0.8736" style="stop-color:#DEE2E6"/>
				<stop  offset="1" style="stop-color:#D0D7DC"/>
			</radialGradient>
			<circle class="st13" cx="212.7" cy="389" r="28.2"/>
			<radialGradient id="SVGID_10_" cx="227.1376" cy="373.1442" r="38.1715" gradientUnits="userSpaceOnUse">
				<stop  offset="0" style="stop-color:#ECEFF1"/>
				<stop  offset="0.4869" style="stop-color:#E9ECEE"/>
				<stop  offset="0.8802" style="stop-color:#DFE3E7"/>
				<stop  offset="1" style="stop-color:#DADFE3"/>
			</radialGradient>
			<circle class="st14" cx="212.7" cy="389" r="27.9"/>
			<radialGradient id="SVGID_11_" cx="227.6409" cy="371.5918" r="43.2842" gradientUnits="userSpaceOnUse">
				<stop  offset="0" style="stop-color:#E3E7EA"/>
				<stop  offset="1" style="stop-color:#E3E7EA"/>
			</radialGradient>
			<circle class="st15" cx="212.7" cy="389" r="27.6"/>
			<radialGradient id="SVGID_12_" cx="228.1302" cy="370.076" r="48.5713" gradientUnits="userSpaceOnUse">
				<stop  offset="0" style="stop-color:#DADFE3"/>
				<stop  offset="0.5245" style="stop-color:#E1E5E8"/>
				<stop  offset="1" style="stop-color:#ECEFF1"/>
			</radialGradient>
			<circle class="st16" cx="212.7" cy="389" r="27.3"/>
			<radialGradient id="SVGID_13_" cx="228.6055" cy="368.5969" r="54.0278" gradientUnits="userSpaceOnUse">
				<stop  offset="0" style="stop-color:#D0D7DC"/>
				<stop  offset="0.433" style="stop-color:#DEE3E6"/>
				<stop  offset="1" style="stop-color:#F6F7F8"/>
			</radialGradient>
			<circle class="st17" cx="212.7" cy="389" r="27"/>
			<radialGradient id="SVGID_14_" cx="229.0668" cy="367.1545" r="59.648" gradientUnits="userSpaceOnUse">
				<stop  offset="0" style="stop-color:#C7CFD5"/>
				<stop  offset="1" style="stop-color:#FFFFFF"/>
			</radialGradient>
			<circle class="st18" cx="212.7" cy="389" r="26.7"/>
		</g>
	</g>
	<g>
		<path class="st19" d="M130.7,392.8v1.7h-6.5c0.1-0.7,0.3-1.3,0.6-1.9c0.4-0.6,1.1-1.4,2.1-2.3c0.8-0.8,1.4-1.3,1.5-1.6
			c0.3-0.4,0.4-0.8,0.4-1.1c0-0.4-0.1-0.7-0.3-1c-0.2-0.2-0.5-0.3-0.9-0.3c-0.4,0-0.7,0.1-0.9,0.4c-0.2,0.2-0.4,0.6-0.4,1.2
			l-1.9-0.2c0.1-1,0.5-1.8,1-2.2c0.6-0.4,1.3-0.7,2.2-0.7c1,0,1.7,0.3,2.3,0.8c0.5,0.5,0.8,1.2,0.8,1.9c0,0.4-0.1,0.9-0.2,1.3
			s-0.4,0.8-0.7,1.2c-0.2,0.3-0.6,0.7-1.2,1.2c-0.6,0.5-1,0.9-1.1,1.1c-0.2,0.2-0.3,0.3-0.4,0.5H130.7z"/>
		<path class="st19" d="M135.1,384.8c0.9,0,1.7,0.3,2.2,1c0.6,0.8,1,2.1,1,4c0,1.8-0.3,3.2-1,4c-0.5,0.7-1.3,1-2.2,1
			c-0.9,0-1.7-0.4-2.3-1.1c-0.6-0.7-0.9-2-0.9-3.9c0-1.8,0.3-3.2,1-4C133.4,385.1,134.2,384.8,135.1,384.8z M135.1,386.3
			c-0.2,0-0.4,0.1-0.6,0.2c-0.2,0.1-0.3,0.4-0.4,0.8c-0.1,0.5-0.2,1.3-0.2,2.4s0.1,1.9,0.2,2.4s0.3,0.7,0.4,0.9
			c0.2,0.1,0.4,0.2,0.6,0.2c0.2,0,0.4-0.1,0.6-0.2c0.2-0.1,0.3-0.4,0.4-0.8c0.1-0.5,0.2-1.3,0.2-2.4s-0.1-1.9-0.2-2.4
			c-0.1-0.4-0.3-0.7-0.4-0.9C135.6,386.4,135.4,386.3,135.1,386.3z"/>
		<path class="st19" d="M144.3,394.6h-1.9v-7c-0.7,0.6-1.5,1.1-2.4,1.4v-1.7c0.5-0.2,1-0.5,1.6-0.9c0.6-0.4,1-1,1.2-1.6h1.5V394.6z"
			/>
		<path class="st19" d="M147.1,392l1.9-0.2c0.1,0.4,0.2,0.8,0.5,1s0.6,0.4,0.9,0.4c0.4,0,0.7-0.2,1-0.5c0.3-0.3,0.4-0.8,0.4-1.4
			c0-0.6-0.1-1-0.4-1.3c-0.3-0.3-0.6-0.4-1-0.4c-0.5,0-1,0.2-1.4,0.7l-1.5-0.2l1-5.1h4.9v1.7h-3.5l-0.3,1.7c0.4-0.2,0.8-0.3,1.3-0.3
			c0.8,0,1.5,0.3,2.1,0.9c0.6,0.6,0.9,1.4,0.9,2.3c0,0.8-0.2,1.5-0.7,2.1c-0.6,0.9-1.5,1.3-2.6,1.3c-0.9,0-1.6-0.2-2.2-0.7
			S147.3,392.9,147.1,392z"/>
	</g>
	<g>
		<path class="st19" d="M82,84.3l1.8-0.2c0.1,0.5,0.2,0.8,0.5,1.1c0.3,0.2,0.6,0.4,0.9,0.4c0.4,0,0.7-0.1,1-0.4
			c0.3-0.3,0.4-0.7,0.4-1.2c0-0.5-0.1-0.8-0.4-1.1c-0.3-0.3-0.6-0.4-0.9-0.4c-0.2,0-0.5,0-0.9,0.1l0.2-1.5c0.5,0,0.9-0.1,1.2-0.3
			c0.3-0.2,0.4-0.5,0.4-0.9c0-0.3-0.1-0.6-0.3-0.8c-0.2-0.2-0.5-0.3-0.8-0.3c-0.3,0-0.6,0.1-0.8,0.3c-0.2,0.2-0.4,0.5-0.4,1
			l-1.7-0.3c0.1-0.6,0.3-1.1,0.5-1.4c0.2-0.4,0.6-0.6,1-0.8c0.4-0.2,0.9-0.3,1.5-0.3c0.9,0,1.7,0.3,2.2,0.9c0.5,0.5,0.7,1,0.7,1.6
			c0,0.9-0.5,1.5-1.4,2c0.6,0.1,1,0.4,1.3,0.8c0.3,0.4,0.5,0.9,0.5,1.5c0,0.9-0.3,1.6-0.9,2.2C87,86.7,86.2,87,85.3,87
			c-0.9,0-1.6-0.3-2.2-0.8C82.5,85.8,82.1,85.1,82,84.3z"/>
		<path class="st19" d="M77.1,127.1v1.7h-6.5c0.1-0.7,0.3-1.3,0.6-1.9c0.4-0.6,1.1-1.4,2.1-2.3c0.8-0.8,1.4-1.3,1.5-1.6
			c0.3-0.4,0.4-0.8,0.4-1.1c0-0.4-0.1-0.7-0.3-1s-0.5-0.3-0.9-0.3c-0.4,0-0.7,0.1-0.9,0.4c-0.2,0.2-0.4,0.6-0.4,1.2l-1.9-0.2
			c0.1-1,0.5-1.8,1-2.2c0.6-0.4,1.3-0.7,2.2-0.7c1,0,1.7,0.3,2.3,0.8s0.8,1.2,0.8,1.9c0,0.4-0.1,0.9-0.2,1.3
			c-0.2,0.4-0.4,0.8-0.7,1.2c-0.2,0.3-0.6,0.7-1.2,1.2c-0.6,0.5-1,0.9-1.1,1.1c-0.2,0.2-0.3,0.3-0.4,0.5H77.1z"/>
		<path class="st19" d="M78.7,128.9V127h1.9v1.9H78.7z"/>
		<path class="st19" d="M82.1,126.4l1.9-0.2c0.1,0.4,0.2,0.8,0.5,1s0.6,0.4,0.9,0.4c0.4,0,0.7-0.2,1-0.5c0.3-0.3,0.4-0.8,0.4-1.4
			c0-0.6-0.1-1-0.4-1.3c-0.3-0.3-0.6-0.4-1-0.4c-0.5,0-1,0.2-1.4,0.7l-1.5-0.2l1-5.1h4.9v1.7h-3.5l-0.3,1.7c0.4-0.2,0.8-0.3,1.3-0.3
			c0.8,0,1.5,0.3,2.1,0.9c0.6,0.6,0.9,1.4,0.9,2.3c0,0.8-0.2,1.5-0.7,2.1c-0.6,0.9-1.5,1.3-2.6,1.3c-0.9,0-1.6-0.2-2.2-0.7
			C82.6,127.8,82.3,127.2,82.1,126.4z"/>
		<path class="st19" d="M88.4,169.1v1.7h-6.5c0.1-0.7,0.3-1.3,0.6-1.9c0.4-0.6,1.1-1.4,2.1-2.3c0.8-0.8,1.4-1.3,1.5-1.6
			c0.3-0.4,0.4-0.8,0.4-1.1c0-0.4-0.1-0.7-0.3-1c-0.2-0.2-0.5-0.3-0.9-0.3c-0.4,0-0.7,0.1-0.9,0.4c-0.2,0.2-0.4,0.6-0.4,1.2
			l-1.9-0.2c0.1-1,0.5-1.8,1-2.2c0.6-0.4,1.3-0.7,2.2-0.7c1,0,1.7,0.3,2.3,0.8c0.5,0.5,0.8,1.2,0.8,1.9c0,0.4-0.1,0.9-0.2,1.3
			s-0.4,0.8-0.7,1.2c-0.2,0.3-0.6,0.7-1.2,1.2s-1,0.9-1.1,1.1c-0.2,0.2-0.3,0.3-0.4,0.5H88.4z"/>
		<path class="st19" d="M75.5,212.9h-1.9v-7c-0.7,0.6-1.5,1.1-2.4,1.4v-1.7c0.5-0.2,1-0.5,1.6-0.9c0.6-0.4,1-1,1.2-1.6h1.5V212.9z"
			/>
		<path class="st19" d="M78.7,212.9V211h1.9v1.9H78.7z"/>
		<path class="st19" d="M82.1,210.4l1.9-0.2c0.1,0.4,0.2,0.8,0.5,1s0.6,0.4,0.9,0.4c0.4,0,0.7-0.2,1-0.5c0.3-0.3,0.4-0.8,0.4-1.4
			c0-0.6-0.1-1-0.4-1.3c-0.3-0.3-0.6-0.4-1-0.4c-0.5,0-1,0.2-1.4,0.7l-1.5-0.2l1-5.1h4.9v1.7h-3.5l-0.3,1.7c0.4-0.2,0.8-0.3,1.3-0.3
			c0.8,0,1.5,0.3,2.1,0.9c0.6,0.6,0.9,1.4,0.9,2.3c0,0.8-0.2,1.5-0.7,2.1c-0.6,0.9-1.5,1.3-2.6,1.3c-0.9,0-1.6-0.2-2.2-0.7
			S82.3,211.2,82.1,210.4z"/>
		<path class="st19" d="M86.9,254.9H85v-7c-0.7,0.6-1.5,1.1-2.4,1.4v-1.7c0.5-0.2,1-0.5,1.6-0.9c0.6-0.4,1-1,1.2-1.6h1.5V254.9z"/>
		<path class="st19" d="M73.9,287.1c0.9,0,1.7,0.3,2.2,1c0.6,0.8,1,2.1,1,4c0,1.8-0.3,3.2-1,4c-0.5,0.7-1.3,1-2.2,1
			c-0.9,0-1.7-0.4-2.3-1.1c-0.6-0.7-0.9-2-0.9-3.9c0-1.8,0.3-3.2,1-4C72.2,287.4,73,287.1,73.9,287.1z M73.9,288.6
			c-0.2,0-0.4,0.1-0.6,0.2c-0.2,0.1-0.3,0.4-0.4,0.8c-0.1,0.5-0.2,1.3-0.2,2.4s0.1,1.9,0.2,2.4s0.3,0.7,0.4,0.9
			c0.2,0.1,0.4,0.2,0.6,0.2c0.2,0,0.4-0.1,0.6-0.2c0.2-0.1,0.3-0.4,0.4-0.8c0.1-0.5,0.2-1.3,0.2-2.4s-0.1-1.9-0.2-2.4
			c-0.1-0.4-0.3-0.7-0.4-0.9C74.3,288.7,74.1,288.6,73.9,288.6z"/>
		<path class="st19" d="M78.7,296.9V295h1.9v1.9H78.7z"/>
		<path class="st19" d="M82.1,294.4l1.9-0.2c0.1,0.4,0.2,0.8,0.5,1s0.6,0.4,0.9,0.4c0.4,0,0.7-0.2,1-0.5c0.3-0.3,0.4-0.8,0.4-1.4
			c0-0.6-0.1-1-0.4-1.3c-0.3-0.3-0.6-0.4-1-0.4c-0.5,0-1,0.2-1.4,0.7l-1.5-0.2l1-5.1h4.9v1.7h-3.5l-0.3,1.7c0.4-0.2,0.8-0.3,1.3-0.3
			c0.8,0,1.5,0.3,2.1,0.9c0.6,0.6,0.9,1.4,0.9,2.3c0,0.8-0.2,1.5-0.7,2.1c-0.6,0.9-1.5,1.3-2.6,1.3c-0.9,0-1.6-0.2-2.2-0.7
			S82.3,295.2,82.1,294.4z"/>
		<path class="st19" d="M85.3,329.1c0.9,0,1.7,0.3,2.2,1c0.6,0.8,1,2.1,1,4c0,1.8-0.3,3.2-1,4c-0.5,0.7-1.3,1-2.2,1
			c-0.9,0-1.7-0.4-2.3-1.1c-0.6-0.7-0.9-2-0.9-3.9c0-1.8,0.3-3.2,1-4C83.6,329.4,84.3,329.1,85.3,329.1z M85.3,330.6
			c-0.2,0-0.4,0.1-0.6,0.2c-0.2,0.1-0.3,0.4-0.4,0.8c-0.1,0.5-0.2,1.3-0.2,2.4s0.1,1.9,0.2,2.4s0.3,0.7,0.4,0.9s0.4,0.2,0.6,0.2
			c0.2,0,0.4-0.1,0.6-0.2c0.2-0.1,0.3-0.4,0.4-0.8c0.1-0.5,0.2-1.3,0.2-2.4s-0.1-1.9-0.2-2.4c-0.1-0.4-0.3-0.7-0.4-0.9
			C85.7,330.7,85.5,330.6,85.3,330.6z"/>
	</g>
	<g>
		<path class="st19" d="M204.5,392.8v1.7h-6.5c0.1-0.7,0.3-1.3,0.6-1.9c0.4-0.6,1.1-1.4,2.1-2.3c0.8-0.8,1.4-1.3,1.5-1.6
			c0.3-0.4,0.4-0.8,0.4-1.1c0-0.4-0.1-0.7-0.3-1s-0.5-0.3-0.9-0.3c-0.4,0-0.7,0.1-0.9,0.4c-0.2,0.2-0.4,0.6-0.4,1.2l-1.9-0.2
			c0.1-1,0.5-1.8,1-2.2c0.6-0.4,1.3-0.7,2.2-0.7c1,0,1.7,0.3,2.3,0.8s0.8,1.2,0.8,1.9c0,0.4-0.1,0.9-0.2,1.3
			c-0.2,0.4-0.4,0.8-0.7,1.2c-0.2,0.3-0.6,0.7-1.2,1.2c-0.6,0.5-1,0.9-1.1,1.1c-0.2,0.2-0.3,0.3-0.4,0.5H204.5z"/>
		<path class="st19" d="M208.9,384.8c0.9,0,1.7,0.3,2.2,1c0.6,0.8,1,2.1,1,4c0,1.8-0.3,3.2-1,4c-0.5,0.7-1.3,1-2.2,1
			c-0.9,0-1.7-0.4-2.3-1.1c-0.6-0.7-0.9-2-0.9-3.9c0-1.8,0.3-3.2,1-4C207.2,385.1,207.9,384.8,208.9,384.8z M208.9,386.3
			c-0.2,0-0.4,0.1-0.6,0.2c-0.2,0.1-0.3,0.4-0.4,0.8c-0.1,0.5-0.2,1.3-0.2,2.4s0.1,1.9,0.2,2.4s0.3,0.7,0.4,0.9s0.4,0.2,0.6,0.2
			c0.2,0,0.4-0.1,0.6-0.2c0.2-0.1,0.3-0.4,0.4-0.8c0.1-0.5,0.2-1.3,0.2-2.4s-0.1-1.9-0.2-2.4c-0.1-0.4-0.3-0.7-0.4-0.9
			C209.3,386.4,209.1,386.3,208.9,386.3z"/>
		<path class="st19" d="M218.1,394.6h-1.9v-7c-0.7,0.6-1.5,1.1-2.4,1.4v-1.7c0.5-0.2,1-0.5,1.6-0.9c0.6-0.4,1-1,1.2-1.6h1.5V394.6z"
			/>
		<path class="st19" d="M227.2,387.2l-1.8,0.2c0-0.4-0.2-0.6-0.3-0.8c-0.2-0.2-0.4-0.3-0.7-0.3c-0.4,0-0.7,0.2-1,0.5
			s-0.4,1.1-0.5,2.2c0.5-0.5,1-0.8,1.7-0.8c0.8,0,1.4,0.3,2,0.9c0.6,0.6,0.8,1.4,0.8,2.3c0,1-0.3,1.8-0.9,2.4
			c-0.6,0.6-1.3,0.9-2.3,0.9c-1,0-1.8-0.4-2.4-1.1s-1-2-1-3.8c0-1.8,0.3-3.1,1-3.9c0.7-0.8,1.5-1.2,2.6-1.2c0.7,0,1.4,0.2,1.8,0.6
			C226.8,385.8,227.1,386.4,227.2,387.2z M223,391.3c0,0.6,0.1,1.1,0.4,1.4c0.3,0.3,0.6,0.5,1,0.5c0.3,0,0.6-0.1,0.9-0.4
			c0.2-0.3,0.3-0.7,0.3-1.3c0-0.6-0.1-1.1-0.4-1.4s-0.6-0.4-0.9-0.4c-0.4,0-0.7,0.1-0.9,0.4S223,390.7,223,391.3z"/>
	</g>
	<g>
		<g>
			<circle class="st4" cx="287" cy="389" r="28.4"/>
		</g>
		<g>
			<radialGradient id="SVGID_15_" cx="300.4313" cy="376.3591" r="28.4848" gradientUnits="userSpaceOnUse">
				<stop  offset="0" style="stop-color:#FFFFFF"/>
				<stop  offset="0.5053" style="stop-color:#FDFDFE"/>
				<stop  offset="0.6873" style="stop-color:#F6F8F9"/>
				<stop  offset="0.817" style="stop-color:#EBEDF0"/>
				<stop  offset="0.9211" style="stop-color:#DADFE3"/>
				<stop  offset="1" style="stop-color:#C7CFD5"/>
			</radialGradient>
			<circle class="st20" cx="287.1" cy="389" r="28.5"/>
			<radialGradient id="SVGID_16_" cx="300.9625" cy="374.7333" r="33.2373" gradientUnits="userSpaceOnUse">
				<stop  offset="0" style="stop-color:#F6F7F8"/>
				<stop  offset="0.4318" style="stop-color:#F4F5F6"/>
				<stop  offset="0.6764" style="stop-color:#EBEEF0"/>
				<stop  offset="0.8736" style="stop-color:#DEE2E6"/>
				<stop  offset="1" style="stop-color:#D0D7DC"/>
			</radialGradient>
			<circle class="st21" cx="287.1" cy="389" r="28.2"/>
			<radialGradient id="SVGID_17_" cx="301.4797" cy="373.1442" r="38.1715" gradientUnits="userSpaceOnUse">
				<stop  offset="0" style="stop-color:#ECEFF1"/>
				<stop  offset="0.4869" style="stop-color:#E9ECEE"/>
				<stop  offset="0.8802" style="stop-color:#DFE3E7"/>
				<stop  offset="1" style="stop-color:#DADFE3"/>
			</radialGradient>
			<circle class="st22" cx="287.1" cy="389" r="27.9"/>
			<radialGradient id="SVGID_18_" cx="301.983" cy="371.5918" r="43.2842" gradientUnits="userSpaceOnUse">
				<stop  offset="0" style="stop-color:#E3E7EA"/>
				<stop  offset="1" style="stop-color:#E3E7EA"/>
			</radialGradient>
			<circle class="st23" cx="287.1" cy="389" r="27.6"/>
			<radialGradient id="SVGID_19_" cx="302.4723" cy="370.076" r="48.5713" gradientUnits="userSpaceOnUse">
				<stop  offset="0" style="stop-color:#DADFE3"/>
				<stop  offset="0.5245" style="stop-color:#E1E5E8"/>
				<stop  offset="1" style="stop-color:#ECEFF1"/>
			</radialGradient>
			<circle class="st24" cx="287.1" cy="389" r="27.3"/>
			<radialGradient id="SVGID_20_" cx="302.9476" cy="368.5969" r="54.0278" gradientUnits="userSpaceOnUse">
				<stop  offset="0" style="stop-color:#D0D7DC"/>
				<stop  offset="0.433" style="stop-color:#DEE3E6"/>
				<stop  offset="1" style="stop-color:#F6F7F8"/>
			</radialGradient>
			<circle class="st25" cx="287.1" cy="389" r="27"/>
			<radialGradient id="SVGID_21_" cx="303.4089" cy="367.1545" r="59.648" gradientUnits="userSpaceOnUse">
				<stop  offset="0" style="stop-color:#C7CFD5"/>
				<stop  offset="1" style="stop-color:#FFFFFF"/>
			</radialGradient>
			<circle class="st26" cx="287.1" cy="389" r="26.7"/>
		</g>
	</g>
	<g>
		<path class="st19" d="M278.8,392.8v1.7h-6.5c0.1-0.7,0.3-1.3,0.6-1.9c0.4-0.6,1.1-1.4,2.1-2.3c0.8-0.8,1.4-1.3,1.5-1.6
			c0.3-0.4,0.4-0.8,0.4-1.1c0-0.4-0.1-0.7-0.3-1c-0.2-0.2-0.5-0.3-0.9-0.3c-0.4,0-0.7,0.1-0.9,0.4c-0.2,0.2-0.4,0.6-0.4,1.2
			l-1.9-0.2c0.1-1,0.5-1.8,1-2.2c0.6-0.4,1.3-0.7,2.2-0.7c1,0,1.7,0.3,2.3,0.8c0.5,0.5,0.8,1.2,0.8,1.9c0,0.4-0.1,0.9-0.2,1.3
			s-0.4,0.8-0.7,1.2c-0.2,0.3-0.6,0.7-1.2,1.2s-1,0.9-1.1,1.1c-0.2,0.2-0.3,0.3-0.4,0.5H278.8z"/>
		<path class="st19" d="M283.2,384.8c0.9,0,1.7,0.3,2.2,1c0.6,0.8,1,2.1,1,4c0,1.8-0.3,3.2-1,4c-0.5,0.7-1.3,1-2.2,1
			c-0.9,0-1.7-0.4-2.3-1.1c-0.6-0.7-0.9-2-0.9-3.9c0-1.8,0.3-3.2,1-4C281.6,385.1,282.3,384.8,283.2,384.8z M283.2,386.3
			c-0.2,0-0.4,0.1-0.6,0.2c-0.2,0.1-0.3,0.4-0.4,0.8c-0.1,0.5-0.2,1.3-0.2,2.4s0.1,1.9,0.2,2.4s0.3,0.7,0.4,0.9
			c0.2,0.1,0.4,0.2,0.6,0.2c0.2,0,0.4-0.1,0.6-0.2c0.2-0.1,0.3-0.4,0.4-0.8c0.1-0.5,0.2-1.3,0.2-2.4s-0.1-1.9-0.2-2.4
			c-0.1-0.4-0.3-0.7-0.4-0.9C283.7,386.4,283.5,386.3,283.2,386.3z"/>
		<path class="st19" d="M292.4,394.6h-1.9v-7c-0.7,0.6-1.5,1.1-2.4,1.4v-1.7c0.5-0.2,1-0.5,1.6-0.9c0.6-0.4,1-1,1.2-1.6h1.5V394.6z"
			/>
		<path class="st19" d="M295.2,386.7v-1.7h6.4v1.4c-0.5,0.5-1.1,1.3-1.6,2.2s-1,2-1.2,3.1c-0.3,1.1-0.4,2.1-0.4,2.9h-1.8
			c0-1.3,0.3-2.7,0.8-4.1c0.5-1.4,1.2-2.7,2.1-3.8H295.2z"/>
	</g>
	<g>
		<g>
			<circle class="st4" cx="358.8" cy="389" r="28.4"/>
		</g>
		<g>
			<radialGradient id="SVGID_22_" cx="372.3037" cy="376.3591" r="28.4848" gradientUnits="userSpaceOnUse">
				<stop  offset="0" style="stop-color:#FFFFFF"/>
				<stop  offset="0.5053" style="stop-color:#FDFDFE"/>
				<stop  offset="0.6873" style="stop-color:#F6F8F9"/>
				<stop  offset="0.817" style="stop-color:#EBEDF0"/>
				<stop  offset="0.9211" style="stop-color:#DADFE3"/>
				<stop  offset="1" style="stop-color:#C7CFD5"/>
			</radialGradient>
			<circle class="st27" cx="358.9" cy="389" r="28.5"/>
			<radialGradient id="SVGID_23_" cx="372.835" cy="374.7333" r="33.2373" gradientUnits="userSpaceOnUse">
				<stop  offset="0" style="stop-color:#F6F7F8"/>
				<stop  offset="0.4318" style="stop-color:#F4F5F6"/>
				<stop  offset="0.6764" style="stop-color:#EBEEF0"/>
				<stop  offset="0.8736" style="stop-color:#DEE2E6"/>
				<stop  offset="1" style="stop-color:#D0D7DC"/>
			</radialGradient>
			<circle class="st28" cx="358.9" cy="389" r="28.2"/>
			<radialGradient id="SVGID_24_" cx="373.3522" cy="373.1442" r="38.1715" gradientUnits="userSpaceOnUse">
				<stop  offset="0" style="stop-color:#ECEFF1"/>
				<stop  offset="0.4869" style="stop-color:#E9ECEE"/>
				<stop  offset="0.8802" style="stop-color:#DFE3E7"/>
				<stop  offset="1" style="stop-color:#DADFE3"/>
			</radialGradient>
			<circle class="st29" cx="358.9" cy="389" r="27.9"/>
			<radialGradient id="SVGID_25_" cx="373.8555" cy="371.5918" r="43.2842" gradientUnits="userSpaceOnUse">
				<stop  offset="0" style="stop-color:#E3E7EA"/>
				<stop  offset="1" style="stop-color:#E3E7EA"/>
			</radialGradient>
			<circle class="st30" cx="358.9" cy="389" r="27.6"/>
			<radialGradient id="SVGID_26_" cx="374.3448" cy="370.076" r="48.5713" gradientUnits="userSpaceOnUse">
				<stop  offset="0" style="stop-color:#DADFE3"/>
				<stop  offset="0.5245" style="stop-color:#E1E5E8"/>
				<stop  offset="1" style="stop-color:#ECEFF1"/>
			</radialGradient>
			<circle class="st31" cx="358.9" cy="389" r="27.3"/>
			<radialGradient id="SVGID_27_" cx="374.8201" cy="368.5969" r="54.0278" gradientUnits="userSpaceOnUse">
				<stop  offset="0" style="stop-color:#D0D7DC"/>
				<stop  offset="0.433" style="stop-color:#DEE3E6"/>
				<stop  offset="1" style="stop-color:#F6F7F8"/>
			</radialGradient>
			<circle class="st32" cx="358.9" cy="389" r="27"/>
			<radialGradient id="SVGID_28_" cx="375.2814" cy="367.1545" r="59.648" gradientUnits="userSpaceOnUse">
				<stop  offset="0" style="stop-color:#C7CFD5"/>
				<stop  offset="1" style="stop-color:#FFFFFF"/>
			</radialGradient>
			<circle class="st33" cx="358.9" cy="389" r="26.7"/>
		</g>
	</g>
	<g>
		<path class="st19" d="M350.7,392.8v1.7h-6.5c0.1-0.7,0.3-1.3,0.6-1.9c0.4-0.6,1.1-1.4,2.1-2.3c0.8-0.8,1.4-1.3,1.5-1.6
			c0.3-0.4,0.4-0.8,0.4-1.1c0-0.4-0.1-0.7-0.3-1c-0.2-0.2-0.5-0.3-0.9-0.3c-0.4,0-0.7,0.1-0.9,0.4c-0.2,0.2-0.4,0.6-0.4,1.2
			l-1.9-0.2c0.1-1,0.5-1.8,1-2.2c0.6-0.4,1.3-0.7,2.2-0.7c1,0,1.7,0.3,2.3,0.8c0.5,0.5,0.8,1.2,0.8,1.9c0,0.4-0.1,0.9-0.2,1.3
			s-0.4,0.8-0.7,1.2c-0.2,0.3-0.6,0.7-1.2,1.2s-1,0.9-1.1,1.1c-0.2,0.2-0.3,0.3-0.4,0.5H350.7z"/>
		<path class="st19" d="M355.1,384.8c0.9,0,1.7,0.3,2.2,1c0.6,0.8,1,2.1,1,4c0,1.8-0.3,3.2-1,4c-0.5,0.7-1.3,1-2.2,1
			c-0.9,0-1.7-0.4-2.3-1.1c-0.6-0.7-0.9-2-0.9-3.9c0-1.8,0.3-3.2,1-4C353.4,385.1,354.2,384.8,355.1,384.8z M355.1,386.3
			c-0.2,0-0.4,0.1-0.6,0.2c-0.2,0.1-0.3,0.4-0.4,0.8c-0.1,0.5-0.2,1.3-0.2,2.4s0.1,1.9,0.2,2.4s0.3,0.7,0.4,0.9
			c0.2,0.1,0.4,0.2,0.6,0.2c0.2,0,0.4-0.1,0.6-0.2c0.2-0.1,0.3-0.4,0.4-0.8c0.1-0.5,0.2-1.3,0.2-2.4s-0.1-1.9-0.2-2.4
			c-0.1-0.4-0.3-0.7-0.4-0.9C355.5,386.4,355.3,386.3,355.1,386.3z"/>
		<path class="st19" d="M364.3,394.6h-1.9v-7c-0.7,0.6-1.5,1.1-2.4,1.4v-1.7c0.5-0.2,1-0.5,1.6-0.9c0.6-0.4,1-1,1.2-1.6h1.5V394.6z"
			/>
		<path class="st19" d="M368.7,389.3c-0.5-0.2-0.8-0.5-1.1-0.8c-0.2-0.4-0.3-0.7-0.3-1.2c0-0.7,0.3-1.3,0.8-1.8s1.2-0.7,2.2-0.7
			c0.9,0,1.6,0.2,2.2,0.7c0.5,0.5,0.8,1.1,0.8,1.8c0,0.5-0.1,0.9-0.4,1.2c-0.2,0.4-0.6,0.6-1,0.8c0.5,0.2,1,0.5,1.2,1
			c0.3,0.4,0.4,0.9,0.4,1.4c0,0.9-0.3,1.6-0.9,2.2c-0.6,0.6-1.3,0.8-2.3,0.8c-0.9,0-1.6-0.2-2.2-0.7c-0.7-0.5-1-1.3-1-2.3
			c0-0.5,0.1-1,0.4-1.5C367.7,389.9,368.1,389.5,368.7,389.3z M368.9,391.6c0,0.5,0.1,0.9,0.4,1.2c0.3,0.3,0.6,0.4,1,0.4
			c0.4,0,0.7-0.1,1-0.4c0.3-0.3,0.4-0.7,0.4-1.2c0-0.5-0.1-0.8-0.4-1.1c-0.3-0.3-0.6-0.4-1-0.4c-0.5,0-0.8,0.2-1,0.5
			C369,390.9,368.9,391.2,368.9,391.6z M369.1,387.4c0,0.4,0.1,0.7,0.3,0.9c0.2,0.2,0.5,0.3,0.8,0.3c0.4,0,0.6-0.1,0.9-0.3
			s0.3-0.5,0.3-0.9c0-0.4-0.1-0.6-0.3-0.8c-0.2-0.2-0.5-0.3-0.8-0.3c-0.4,0-0.6,0.1-0.9,0.3C369.2,386.8,369.1,387.1,369.1,387.4z"
			/>
	</g>
	<line class="st34" x1="137.1" y1="340.6" x2="137.1" y2="356"/>
	<line class="st34" x1="211" y1="340.6" x2="211" y2="356"/>
	<line class="st34" x1="284.1" y1="340.6" x2="284.1" y2="356"/>
	<line class="st34" x1="356.5" y1="340.6" x2="356.5" y2="356"/>
	<g>
		<g>
			<path class="st19" d="M130.8,78.2V80h-6.5c0.1-0.7,0.3-1.3,0.6-1.9c0.4-0.6,1.1-1.4,2.1-2.3c0.8-0.8,1.4-1.3,1.5-1.6
				c0.3-0.4,0.4-0.8,0.4-1.1c0-0.4-0.1-0.7-0.3-1c-0.2-0.2-0.5-0.3-0.9-0.3c-0.4,0-0.7,0.1-0.9,0.4c-0.2,0.2-0.4,0.6-0.4,1.2
				l-1.9-0.2c0.1-1,0.5-1.8,1-2.2c0.6-0.4,1.3-0.7,2.2-0.7c1,0,1.7,0.3,2.3,0.8c0.5,0.5,0.8,1.2,0.8,1.9c0,0.4-0.1,0.9-0.2,1.3
				s-0.4,0.8-0.7,1.2c-0.2,0.3-0.6,0.7-1.2,1.2c-0.6,0.5-1,0.9-1.1,1.1c-0.2,0.2-0.3,0.3-0.4,0.5H130.8z"/>
			<path class="st19" d="M132.4,80v-1.9h1.9V80H132.4z"/>
			<path class="st19" d="M135.8,72.1v-1.7h6.4v1.4c-0.5,0.5-1.1,1.3-1.6,2.2s-1,2-1.2,3.1c-0.3,1.1-0.4,2.1-0.4,2.9h-1.8
				c0-1.3,0.3-2.7,0.8-4.1c0.5-1.4,1.2-2.7,2.1-3.8H135.8z"/>
			<path class="st19" d="M148.2,80h-1.9v-7c-0.7,0.6-1.5,1.1-2.4,1.4v-1.7c0.5-0.2,1-0.5,1.6-0.9c0.6-0.4,1-1,1.2-1.6h1.5V80z"/>
		</g>
	</g>
	<g>
		<g>
			<path class="st19" d="M208.4,118.6v1.7h-6.5c0.1-0.7,0.3-1.3,0.6-1.9c0.4-0.6,1.1-1.4,2.1-2.3c0.8-0.8,1.4-1.3,1.5-1.6
				c0.3-0.4,0.4-0.8,0.4-1.1c0-0.4-0.1-0.7-0.3-1s-0.5-0.3-0.9-0.3c-0.4,0-0.7,0.1-0.9,0.4c-0.2,0.2-0.4,0.6-0.4,1.2l-1.9-0.2
				c0.1-1,0.5-1.8,1-2.2c0.6-0.4,1.3-0.7,2.2-0.7c1,0,1.7,0.3,2.3,0.8s0.8,1.2,0.8,1.9c0,0.4-0.1,0.9-0.2,1.3
				c-0.2,0.4-0.4,0.8-0.7,1.2c-0.2,0.3-0.6,0.7-1.2,1.2c-0.6,0.5-1,0.9-1.1,1.1c-0.2,0.2-0.3,0.3-0.4,0.5H208.4z"/>
			<path class="st19" d="M210.1,120.4v-1.9h1.9v1.9H210.1z"/>
			<path class="st19" d="M213.4,117.8l1.8-0.2c0.1,0.5,0.2,0.8,0.5,1.1c0.3,0.2,0.6,0.4,0.9,0.4c0.4,0,0.7-0.1,1-0.4
				c0.3-0.3,0.4-0.7,0.4-1.2c0-0.5-0.1-0.8-0.4-1.1c-0.3-0.3-0.6-0.4-0.9-0.4c-0.2,0-0.5,0-0.9,0.1l0.2-1.5c0.5,0,0.9-0.1,1.2-0.3
				c0.3-0.2,0.4-0.5,0.4-0.9c0-0.3-0.1-0.6-0.3-0.8c-0.2-0.2-0.5-0.3-0.8-0.3c-0.3,0-0.6,0.1-0.8,0.3c-0.2,0.2-0.4,0.5-0.4,1
				l-1.7-0.3c0.1-0.6,0.3-1.1,0.5-1.4c0.2-0.4,0.6-0.6,1-0.8c0.4-0.2,0.9-0.3,1.5-0.3c0.9,0,1.7,0.3,2.2,0.9c0.5,0.5,0.7,1,0.7,1.6
				c0,0.9-0.5,1.5-1.4,2c0.6,0.1,1,0.4,1.3,0.8c0.3,0.4,0.5,0.9,0.5,1.5c0,0.9-0.3,1.6-0.9,2.2c-0.6,0.6-1.4,0.9-2.3,0.9
				c-0.9,0-1.6-0.3-2.2-0.8C213.8,119.3,213.5,118.6,213.4,117.8z"/>
		</g>
	</g>
	<g>
		<g>
			<path class="st19" d="M276.2,163.3h-1.9v-7c-0.7,0.6-1.5,1.1-2.4,1.4V156c0.5-0.2,1-0.5,1.6-0.9c0.6-0.4,1-1,1.2-1.6h1.5V163.3z"
				/>
			<path class="st19" d="M279.4,163.3v-1.9h1.9v1.9H279.4z"/>
			<path class="st19" d="M282.8,155.5v-1.7h6.4v1.4c-0.5,0.5-1.1,1.3-1.6,2.2s-1,2-1.2,3.1c-0.3,1.1-0.4,2.1-0.4,2.9h-1.8
				c0-1.3,0.3-2.7,0.8-4.1c0.5-1.4,1.2-2.7,2.1-3.8H282.8z"/>
			<path class="st19" d="M294,163.3v-2h-4v-1.6l4.2-6.2h1.6v6.2h1.2v1.6h-1.2v2H294z M294,159.7v-3.3l-2.2,3.3H294z"/>
		</g>
	</g>
	<g>
		<g>
			<path class="st19" d="M348.6,224.3h-1.9v-7c-0.7,0.6-1.5,1.1-2.4,1.4V217c0.5-0.2,1-0.5,1.6-0.9s1-1,1.2-1.6h1.5V224.3z"/>
			<path class="st19" d="M351.8,224.3v-1.9h1.9v1.9H351.8z"/>
			<path class="st19" d="M358.3,214.6c0.9,0,1.7,0.3,2.2,1c0.6,0.8,1,2.1,1,4c0,1.8-0.3,3.2-1,4c-0.5,0.7-1.3,1-2.2,1
				c-0.9,0-1.7-0.4-2.3-1.1c-0.6-0.7-0.9-2-0.9-3.9c0-1.8,0.3-3.2,1-4C356.6,214.9,357.4,214.6,358.3,214.6z M358.3,216.1
				c-0.2,0-0.4,0.1-0.6,0.2c-0.2,0.1-0.3,0.4-0.4,0.8c-0.1,0.5-0.2,1.3-0.2,2.4s0.1,1.9,0.2,2.4s0.3,0.7,0.4,0.9
				c0.2,0.1,0.4,0.2,0.6,0.2c0.2,0,0.4-0.1,0.6-0.2c0.2-0.1,0.3-0.4,0.4-0.8c0.1-0.5,0.2-1.3,0.2-2.4s-0.1-1.9-0.2-2.4
				c-0.1-0.4-0.3-0.7-0.4-0.9C358.8,216.2,358.6,216.1,358.3,216.1z"/>
			<path class="st19" d="M364.3,219.1c-0.5-0.2-0.8-0.5-1.1-0.8c-0.2-0.4-0.3-0.7-0.3-1.2c0-0.7,0.3-1.3,0.8-1.8
				c0.5-0.5,1.2-0.7,2.2-0.7c0.9,0,1.6,0.2,2.2,0.7c0.5,0.5,0.8,1.1,0.8,1.8c0,0.5-0.1,0.9-0.4,1.2c-0.2,0.4-0.6,0.6-1,0.8
				c0.5,0.2,1,0.5,1.2,1c0.3,0.4,0.4,0.9,0.4,1.4c0,0.9-0.3,1.6-0.9,2.2c-0.6,0.6-1.3,0.8-2.3,0.8c-0.9,0-1.6-0.2-2.2-0.7
				c-0.7-0.5-1-1.3-1-2.3c0-0.5,0.1-1,0.4-1.5C363.4,219.7,363.8,219.3,364.3,219.1z M364.6,221.4c0,0.5,0.1,0.9,0.4,1.2
				c0.3,0.3,0.6,0.4,1,0.4c0.4,0,0.7-0.1,1-0.4c0.3-0.3,0.4-0.7,0.4-1.2c0-0.5-0.1-0.8-0.4-1.1c-0.3-0.3-0.6-0.4-1-0.4
				c-0.5,0-0.8,0.2-1,0.5C364.7,220.7,364.6,221,364.6,221.4z M364.7,217.2c0,0.4,0.1,0.7,0.3,0.9c0.2,0.2,0.5,0.3,0.8,0.3
				c0.4,0,0.6-0.1,0.9-0.3s0.3-0.5,0.3-0.9c0-0.4-0.1-0.6-0.3-0.8c-0.2-0.2-0.5-0.3-0.8-0.3c-0.4,0-0.6,0.1-0.9,0.3
				C364.8,216.6,364.7,216.9,364.7,217.2z"/>
		</g>
	</g>
	<g>
		<path class="st35" d="M43.4,26.6V13.9h-4.6v-2.6H51v2.6h-4.5v12.8H43.4z"/>
		<path class="st35" d="M53,26.6V11.3h6.5c1.6,0,2.8,0.1,3.6,0.4c0.7,0.3,1.3,0.8,1.8,1.5s0.7,1.5,0.7,2.4c0,1.2-0.3,2.1-1,2.9
			c-0.7,0.8-1.7,1.2-3,1.4c0.7,0.4,1.2,0.8,1.7,1.3s1,1.3,1.8,2.5l1.9,3h-3.7l-2.2-3.3c-0.8-1.2-1.3-1.9-1.6-2.3
			c-0.3-0.3-0.6-0.5-0.9-0.6s-0.8-0.2-1.6-0.2h-0.6v6.4H53z M56.1,17.8h2.3c1.5,0,2.4-0.1,2.8-0.2c0.4-0.1,0.7-0.3,0.9-0.6
			c0.2-0.3,0.3-0.7,0.3-1.2c0-0.5-0.1-0.9-0.4-1.3c-0.3-0.3-0.7-0.5-1.2-0.6c-0.3,0-1-0.1-2.3-0.1h-2.4V17.8z"/>
		<path class="st35" d="M68.4,26.6V11.3h3.1v15.4H68.4z"/>
		<path class="st35" d="M74.5,26.6V11.3H81c1.6,0,2.8,0.1,3.6,0.4c0.7,0.3,1.3,0.8,1.8,1.5s0.7,1.5,0.7,2.4c0,1.2-0.3,2.1-1,2.9
			c-0.7,0.8-1.7,1.2-3,1.4c0.7,0.4,1.2,0.8,1.7,1.3s1,1.3,1.8,2.5l1.9,3h-3.7l-2.2-3.3c-0.8-1.2-1.3-1.9-1.6-2.3
			c-0.3-0.3-0.6-0.5-0.9-0.6s-0.8-0.2-1.6-0.2h-0.6v6.4H74.5z M77.6,17.8h2.3c1.5,0,2.4-0.1,2.8-0.2c0.4-0.1,0.7-0.3,0.9-0.6
			c0.2-0.3,0.3-0.7,0.3-1.2c0-0.5-0.1-0.9-0.4-1.3c-0.3-0.3-0.7-0.5-1.2-0.6c-0.3,0-1-0.1-2.3-0.1h-2.4V17.8z"/>
		<path class="st35" d="M91,18.3l-1.6-1.2c0.5-0.6,1-1.1,1.6-1.6c0.2-0.2,0.4-0.3,0.4-0.4c-0.2,0-0.7-0.1-1.5-0.3
			c-0.6-0.1-1-0.3-1.2-0.3l0.6-1.8c0.9,0.4,1.7,0.8,2.5,1.2c-0.2-1.1-0.3-2.1-0.3-2.8h1.9c0,0.5-0.1,1.4-0.3,2.8
			c0.1-0.1,0.4-0.2,0.9-0.4c0.6-0.3,1.2-0.5,1.7-0.7l0.6,1.9c-0.8,0.2-1.7,0.3-2.7,0.5l1.3,1.4c0.3,0.3,0.5,0.5,0.6,0.7l-1.6,1.1
			l-1.4-2.3C92,16.7,91.5,17.5,91,18.3z"/>
		<path class="st35" d="M109.1,31.1h-2c-1.1-1.6-1.9-3.3-2.4-5c-0.6-1.7-0.8-3.4-0.8-5c0-2,0.3-3.9,1-5.7c0.6-1.6,1.4-3,2.3-4.3h2
			c-1,2.1-1.6,3.9-2,5.4c-0.4,1.5-0.5,3.1-0.5,4.7c0,1.1,0.1,2.3,0.3,3.5c0.2,1.2,0.5,2.3,0.9,3.4C108.1,28.8,108.5,29.8,109.1,31.1
			z"/>
		<path class="st35" d="M114.9,26.6V13.9h-4.6v-2.6h12.2v2.6H118v12.8H114.9z"/>
		<path class="st35" d="M122.2,20.9c0-1,0.2-1.9,0.7-2.8c0.5-0.9,1.2-1.6,2-2.1c0.9-0.5,1.9-0.7,3-0.7c1.7,0,3.1,0.5,4.1,1.6
			s1.6,2.5,1.6,4.1c0,1.7-0.5,3.1-1.6,4.2s-2.5,1.7-4.1,1.7c-1,0-2-0.2-2.9-0.7c-0.9-0.5-1.6-1.1-2.1-2
			C122.4,23.3,122.2,22.2,122.2,20.9z M125.2,21.1c0,1.1,0.3,1.9,0.8,2.5c0.5,0.6,1.2,0.9,1.9,0.9c0.8,0,1.4-0.3,1.9-0.9
			c0.5-0.6,0.8-1.4,0.8-2.6c0-1.1-0.3-1.9-0.8-2.5c-0.5-0.6-1.2-0.9-1.9-0.9c-0.8,0-1.4,0.3-1.9,0.9C125.5,19.1,125.2,20,125.2,21.1
			z"/>
		<path class="st35" d="M141.1,15.5v2.3h-2v4.5c0,0.9,0,1.4,0.1,1.6s0.1,0.3,0.3,0.4s0.3,0.1,0.5,0.1c0.3,0,0.7-0.1,1.2-0.3l0.3,2.3
			c-0.7,0.3-1.5,0.4-2.3,0.4c-0.5,0-1-0.1-1.4-0.3s-0.7-0.4-0.9-0.7c-0.2-0.3-0.3-0.7-0.4-1.1c-0.1-0.3-0.1-1-0.1-2.1v-4.8h-1.4
			v-2.3h1.4v-2.2l3-1.7v3.9H141.1z"/>
		<path class="st35" d="M145.3,18.9l-2.7-0.5c0.3-1.1,0.8-1.9,1.5-2.4s1.8-0.8,3.3-0.8c1.3,0,2.3,0.2,2.9,0.5
			c0.6,0.3,1.1,0.7,1.4,1.2s0.4,1.4,0.4,2.6l0,3.4c0,1,0,1.7,0.1,2.2c0.1,0.5,0.3,1,0.5,1.5h-2.9c-0.1-0.2-0.2-0.5-0.3-0.9
			c0-0.2-0.1-0.3-0.1-0.3c-0.5,0.5-1,0.9-1.6,1.1s-1.2,0.4-1.8,0.4c-1.1,0-2-0.3-2.7-0.9c-0.7-0.6-1-1.4-1-2.4
			c0-0.6,0.1-1.2,0.5-1.7c0.3-0.5,0.7-0.9,1.3-1.1s1.3-0.5,2.3-0.7c1.4-0.3,2.3-0.5,2.9-0.7v-0.3c0-0.6-0.1-1-0.4-1.2
			c-0.3-0.2-0.8-0.4-1.6-0.4c-0.5,0-0.9,0.1-1.2,0.3C145.7,18,145.5,18.4,145.3,18.9z M149.3,21.3c-0.4,0.1-1,0.3-1.8,0.5
			c-0.8,0.2-1.4,0.3-1.6,0.5c-0.4,0.3-0.6,0.6-0.6,1c0,0.4,0.2,0.8,0.5,1.1s0.7,0.5,1.2,0.5c0.5,0,1-0.2,1.5-0.5
			c0.4-0.3,0.6-0.6,0.7-1c0.1-0.3,0.1-0.7,0.1-1.4V21.3z"/>
		<path class="st35" d="M155.1,26.6V11.3h2.9v15.4H155.1z"/>
		<path class="st35" d="M167,26.6V11.3h6.5c1.6,0,2.8,0.1,3.6,0.4c0.7,0.3,1.3,0.8,1.8,1.5s0.7,1.5,0.7,2.4c0,1.2-0.3,2.1-1,2.9
			c-0.7,0.8-1.7,1.2-3,1.4c0.7,0.4,1.2,0.8,1.7,1.3s1,1.3,1.8,2.5l1.9,3h-3.7l-2.2-3.3c-0.8-1.2-1.3-1.9-1.6-2.3
			c-0.3-0.3-0.6-0.5-0.9-0.6s-0.8-0.2-1.6-0.2h-0.6v6.4H167z M170.1,17.8h2.3c1.5,0,2.4-0.1,2.8-0.2c0.4-0.1,0.7-0.3,0.9-0.6
			c0.2-0.3,0.3-0.7,0.3-1.2c0-0.5-0.1-0.9-0.4-1.3c-0.3-0.3-0.7-0.5-1.2-0.6c-0.3,0-1-0.1-2.3-0.1h-2.4V17.8z"/>
		<path class="st35" d="M188.9,23.1l2.9,0.5c-0.4,1.1-1,1.9-1.8,2.5c-0.8,0.6-1.8,0.8-3.1,0.8c-1.9,0-3.4-0.6-4.3-1.9
			c-0.7-1-1.1-2.3-1.1-3.8c0-1.8,0.5-3.3,1.4-4.3s2.2-1.6,3.7-1.6c1.7,0,3,0.5,3.9,1.6c1,1.1,1.4,2.8,1.4,5h-7.4
			c0,0.9,0.3,1.6,0.7,2c0.5,0.5,1,0.7,1.7,0.7c0.5,0,0.8-0.1,1.2-0.4C188.5,24,188.7,23.6,188.9,23.1z M189.1,20.1
			c0-0.9-0.2-1.5-0.7-1.9c-0.4-0.4-0.9-0.7-1.5-0.7c-0.6,0-1.2,0.2-1.6,0.7s-0.6,1.1-0.6,1.9H189.1z"/>
		<path class="st35" d="M204.1,18.8l-2.9,0.5c-0.1-0.6-0.3-1-0.7-1.3c-0.3-0.3-0.8-0.4-1.3-0.4c-0.7,0-1.3,0.3-1.8,0.8
			c-0.4,0.5-0.7,1.4-0.7,2.5c0,1.3,0.2,2.3,0.7,2.8c0.4,0.5,1,0.8,1.8,0.8c0.6,0,1-0.2,1.4-0.5c0.4-0.3,0.6-0.9,0.8-1.6l2.9,0.5
			c-0.3,1.3-0.9,2.3-1.7,3c-0.9,0.7-2,1-3.4,1c-1.6,0-2.9-0.5-3.9-1.5c-1-1-1.5-2.4-1.5-4.3c0-1.8,0.5-3.3,1.5-4.3s2.3-1.5,3.9-1.5
			c1.4,0,2.4,0.3,3.2,0.9C203.2,16.7,203.7,17.6,204.1,18.8z"/>
		<path class="st35" d="M205.6,20.9c0-1,0.2-1.9,0.7-2.8c0.5-0.9,1.2-1.6,2-2.1c0.9-0.5,1.9-0.7,3-0.7c1.7,0,3.1,0.5,4.1,1.6
			s1.6,2.5,1.6,4.1c0,1.7-0.5,3.1-1.6,4.2s-2.5,1.7-4.1,1.7c-1,0-2-0.2-2.9-0.7c-0.9-0.5-1.6-1.1-2.1-2
			C205.9,23.3,205.6,22.2,205.6,20.9z M208.7,21.1c0,1.1,0.3,1.9,0.8,2.5c0.5,0.6,1.2,0.9,1.9,0.9c0.8,0,1.4-0.3,1.9-0.9
			c0.5-0.6,0.8-1.4,0.8-2.6c0-1.1-0.3-1.9-0.8-2.5c-0.5-0.6-1.2-0.9-1.9-0.9c-0.8,0-1.4,0.3-1.9,0.9C208.9,19.1,208.7,20,208.7,21.1
			z"/>
		<path class="st35" d="M222.2,26.6h-2.9V15.5h2.7v1.6c0.5-0.7,0.9-1.2,1.3-1.5c0.4-0.2,0.8-0.4,1.3-0.4c0.7,0,1.3,0.2,1.9,0.6
			l-0.9,2.6c-0.5-0.3-1-0.5-1.4-0.5c-0.4,0-0.8,0.1-1,0.3s-0.5,0.6-0.7,1.2s-0.2,1.8-0.2,3.7V26.6z"/>
		<path class="st35" d="M238,26.6h-2.7V25c-0.5,0.6-1,1.1-1.6,1.4c-0.6,0.3-1.2,0.5-1.9,0.5c-1.3,0-2.4-0.5-3.3-1.5
			c-0.9-1-1.4-2.5-1.4-4.3c0-1.9,0.4-3.3,1.3-4.3c0.9-1,2-1.5,3.4-1.5c1.2,0,2.3,0.5,3.2,1.5v-5.5h2.9V26.6z M230.1,20.8
			c0,1.2,0.2,2,0.5,2.6c0.5,0.8,1.1,1.2,2,1.2c0.7,0,1.3-0.3,1.7-0.9c0.5-0.6,0.7-1.4,0.7-2.6c0-1.3-0.2-2.2-0.7-2.8
			c-0.5-0.6-1.1-0.8-1.8-0.8c-0.7,0-1.3,0.3-1.8,0.8C230.4,18.9,230.1,19.7,230.1,20.8z"/>
		<path class="st35" d="M243.1,18.9l-2.7-0.5c0.3-1.1,0.8-1.9,1.5-2.4s1.8-0.8,3.3-0.8c1.3,0,2.3,0.2,2.9,0.5
			c0.6,0.3,1.1,0.7,1.4,1.2s0.4,1.4,0.4,2.6l0,3.4c0,1,0,1.7,0.1,2.2c0.1,0.5,0.3,1,0.5,1.5h-2.9c-0.1-0.2-0.2-0.5-0.3-0.9
			c0-0.2-0.1-0.3-0.1-0.3c-0.5,0.5-1,0.9-1.6,1.1s-1.2,0.4-1.8,0.4c-1.1,0-2-0.3-2.7-0.9c-0.7-0.6-1-1.4-1-2.4
			c0-0.6,0.1-1.2,0.5-1.7c0.3-0.5,0.7-0.9,1.3-1.1s1.3-0.5,2.3-0.7c1.4-0.3,2.3-0.5,2.9-0.7v-0.3c0-0.6-0.1-1-0.4-1.2
			c-0.3-0.2-0.8-0.4-1.6-0.4c-0.5,0-0.9,0.1-1.2,0.3C243.5,18,243.3,18.4,243.1,18.9z M247,21.3c-0.4,0.1-1,0.3-1.8,0.5
			c-0.8,0.2-1.4,0.3-1.6,0.5c-0.4,0.3-0.6,0.6-0.6,1c0,0.4,0.2,0.8,0.5,1.1s0.7,0.5,1.2,0.5c0.5,0,1-0.2,1.5-0.5
			c0.4-0.3,0.6-0.6,0.7-1c0.1-0.3,0.1-0.7,0.1-1.4V21.3z"/>
		<path class="st35" d="M252.7,26.6V11.3h2.9v5.5c0.9-1,2-1.5,3.2-1.5c1.4,0,2.5,0.5,3.4,1.5c0.9,1,1.3,2.4,1.3,4.2
			c0,1.9-0.5,3.4-1.4,4.4c-0.9,1-2,1.5-3.3,1.5c-0.6,0-1.3-0.2-1.9-0.5c-0.6-0.3-1.2-0.8-1.6-1.4v1.6H252.7z M255.6,20.8
			c0,1.2,0.2,2,0.5,2.6c0.5,0.8,1.2,1.2,2,1.2c0.6,0,1.2-0.3,1.7-0.8c0.5-0.6,0.7-1.4,0.7-2.6c0-1.3-0.2-2.2-0.7-2.7
			c-0.5-0.6-1.1-0.8-1.8-0.8c-0.7,0-1.3,0.3-1.8,0.8C255.8,18.9,255.6,19.7,255.6,20.8z"/>
		<path class="st35" d="M265.9,26.6V11.3h2.9v15.4H265.9z"/>
		<path class="st35" d="M278.3,23.1l2.9,0.5c-0.4,1.1-1,1.9-1.8,2.5c-0.8,0.6-1.8,0.8-3.1,0.8c-1.9,0-3.4-0.6-4.3-1.9
			c-0.7-1-1.1-2.3-1.1-3.8c0-1.8,0.5-3.3,1.4-4.3s2.2-1.6,3.7-1.6c1.7,0,3,0.5,3.9,1.6c1,1.1,1.4,2.8,1.4,5H274c0,0.9,0.3,1.6,0.7,2
			c0.5,0.5,1,0.7,1.7,0.7c0.5,0,0.8-0.1,1.2-0.4C277.9,24,278.1,23.6,278.3,23.1z M278.5,20.1c0-0.9-0.2-1.5-0.7-1.9
			c-0.4-0.4-0.9-0.7-1.5-0.7c-0.6,0-1.2,0.2-1.6,0.7s-0.6,1.1-0.6,1.9H278.5z"/>
		<path class="st35" d="M289.7,26.6V11.3h3.1v15.4H289.7z"/>
		<path class="st35" d="M305.8,26.6h-2.9v-5.7c0-1.2-0.1-2-0.2-2.3s-0.3-0.6-0.6-0.8c-0.3-0.2-0.6-0.3-1-0.3c-0.5,0-1,0.1-1.4,0.4
			c-0.4,0.3-0.7,0.6-0.8,1.1s-0.2,1.3-0.2,2.6v5h-2.9V15.5h2.7v1.6c1-1.3,2.2-1.9,3.7-1.9c0.6,0,1.2,0.1,1.8,0.4
			c0.5,0.2,0.9,0.5,1.2,0.9c0.3,0.4,0.5,0.8,0.6,1.2c0.1,0.5,0.2,1.1,0.2,2V26.6z"/>
		<path class="st35" d="M311.7,15.5v10.8c0,1.4-0.1,2.4-0.3,3c-0.2,0.6-0.5,1-1.1,1.4c-0.5,0.3-1.2,0.5-2,0.5c-0.3,0-0.6,0-0.9-0.1
			c-0.3-0.1-0.7-0.1-1.1-0.2l0.5-2.5c0.1,0,0.3,0,0.4,0.1s0.2,0,0.3,0c0.3,0,0.5-0.1,0.7-0.2c0.2-0.1,0.3-0.3,0.4-0.5
			c0.1-0.2,0.1-0.7,0.1-1.6V15.5H311.7z M308.7,14v-2.7h2.9V14H308.7z"/>
		<path class="st35" d="M322.1,26.6V25c-0.4,0.6-0.9,1.1-1.6,1.4s-1.4,0.5-2.1,0.5c-0.7,0-1.4-0.2-2-0.5c-0.6-0.3-1-0.8-1.3-1.4
			c-0.3-0.6-0.4-1.4-0.4-2.5v-7h2.9v5.1c0,1.6,0.1,2.5,0.2,2.9c0.1,0.4,0.3,0.6,0.6,0.8c0.3,0.2,0.6,0.3,1.1,0.3
			c0.5,0,1-0.1,1.4-0.4c0.4-0.3,0.7-0.6,0.8-1s0.2-1.4,0.2-3v-4.7h2.9v11.1H322.1z"/>
		<path class="st35" d="M330.7,26.6h-2.9V15.5h2.7v1.6c0.5-0.7,0.9-1.2,1.3-1.5c0.4-0.2,0.8-0.4,1.3-0.4c0.7,0,1.3,0.2,1.9,0.6
			l-0.9,2.6c-0.5-0.3-1-0.5-1.4-0.5c-0.4,0-0.8,0.1-1,0.3s-0.5,0.6-0.7,1.2s-0.2,1.8-0.2,3.7V26.6z"/>
		<path class="st35" d="M334.8,15.5h3.1l2.7,7.9l2.6-7.9h3l-3.9,10.7l-0.7,1.9c-0.3,0.6-0.5,1.1-0.7,1.5c-0.2,0.3-0.5,0.6-0.8,0.8
			s-0.7,0.4-1.1,0.5c-0.4,0.1-0.9,0.2-1.5,0.2c-0.6,0-1.1-0.1-1.7-0.2l-0.3-2.3c0.5,0.1,0.9,0.1,1.2,0.1c0.7,0,1.2-0.2,1.5-0.6
			s0.6-0.9,0.8-1.5L334.8,15.5z"/>
		<path class="st35" d="M354.1,26.6V11.3h6.5c1.6,0,2.8,0.1,3.6,0.4c0.7,0.3,1.3,0.8,1.8,1.5s0.7,1.5,0.7,2.4c0,1.2-0.3,2.1-1,2.9
			c-0.7,0.8-1.7,1.2-3,1.4c0.7,0.4,1.2,0.8,1.7,1.3s1,1.3,1.8,2.5l1.9,3h-3.7l-2.2-3.3c-0.8-1.2-1.3-1.9-1.6-2.3
			c-0.3-0.3-0.6-0.5-0.9-0.6s-0.8-0.2-1.6-0.2h-0.6v6.4H354.1z M357.2,17.8h2.3c1.5,0,2.4-0.1,2.8-0.2c0.4-0.1,0.7-0.3,0.9-0.6
			c0.2-0.3,0.3-0.7,0.3-1.2c0-0.5-0.1-0.9-0.4-1.3c-0.3-0.3-0.7-0.5-1.2-0.6c-0.3,0-1-0.1-2.3-0.1h-2.4V17.8z"/>
		<path class="st35" d="M371.8,18.9l-2.7-0.5c0.3-1.1,0.8-1.9,1.5-2.4s1.8-0.8,3.3-0.8c1.3,0,2.3,0.2,2.9,0.5
			c0.6,0.3,1.1,0.7,1.4,1.2s0.4,1.4,0.4,2.6l0,3.4c0,1,0,1.7,0.1,2.2c0.1,0.5,0.3,1,0.5,1.5h-2.9c-0.1-0.2-0.2-0.5-0.3-0.9
			c0-0.2-0.1-0.3-0.1-0.3c-0.5,0.5-1,0.9-1.6,1.1s-1.2,0.4-1.8,0.4c-1.1,0-2-0.3-2.7-0.9c-0.7-0.6-1-1.4-1-2.4
			c0-0.6,0.1-1.2,0.5-1.7c0.3-0.5,0.7-0.9,1.3-1.1s1.3-0.5,2.3-0.7c1.4-0.3,2.3-0.5,2.9-0.7v-0.3c0-0.6-0.1-1-0.4-1.2
			c-0.3-0.2-0.8-0.4-1.6-0.4c-0.5,0-0.9,0.1-1.2,0.3C372.2,18,372,18.4,371.8,18.9z M375.7,21.3c-0.4,0.1-1,0.3-1.8,0.5
			c-0.8,0.2-1.4,0.3-1.6,0.5c-0.4,0.3-0.6,0.6-0.6,1c0,0.4,0.2,0.8,0.5,1.1s0.7,0.5,1.2,0.5c0.5,0,1-0.2,1.5-0.5
			c0.4-0.3,0.6-0.6,0.7-1c0.1-0.3,0.1-0.7,0.1-1.4V21.3z"/>
		<path class="st35" d="M386.6,15.5v2.3h-2v4.5c0,0.9,0,1.4,0.1,1.6s0.1,0.3,0.3,0.4s0.3,0.1,0.5,0.1c0.3,0,0.7-0.1,1.2-0.3l0.3,2.3
			c-0.7,0.3-1.5,0.4-2.3,0.4c-0.5,0-1-0.1-1.4-0.3s-0.7-0.4-0.9-0.7c-0.2-0.3-0.3-0.7-0.4-1.1c-0.1-0.3-0.1-1-0.1-2.1v-4.8h-1.4
			v-2.3h1.4v-2.2l3-1.7v3.9H386.6z"/>
		<path class="st35" d="M395.1,23.1l2.9,0.5c-0.4,1.1-1,1.9-1.8,2.5c-0.8,0.6-1.8,0.8-3.1,0.8c-1.9,0-3.4-0.6-4.3-1.9
			c-0.7-1-1.1-2.3-1.1-3.8c0-1.8,0.5-3.3,1.4-4.3s2.2-1.6,3.7-1.6c1.7,0,3,0.5,3.9,1.6c1,1.1,1.4,2.8,1.4,5h-7.4
			c0,0.9,0.3,1.6,0.7,2c0.5,0.5,1,0.7,1.7,0.7c0.5,0,0.8-0.1,1.2-0.4C394.7,24,394.9,23.6,395.1,23.1z M395.3,20.1
			c0-0.9-0.2-1.5-0.7-1.9c-0.4-0.4-0.9-0.7-1.5-0.7c-0.6,0-1.2,0.2-1.6,0.7s-0.6,1.1-0.6,1.9H395.3z"/>
		<path class="st35" d="M399.8,31.1c0.6-1.2,1-2.2,1.2-2.9c0.2-0.7,0.5-1.4,0.7-2.3c0.2-0.9,0.4-1.7,0.5-2.5
			c0.1-0.8,0.1-1.6,0.1-2.4c0-1.7-0.2-3.2-0.5-4.7c-0.4-1.5-1-3.3-2-5.4h2c1.1,1.5,1.9,3.1,2.5,4.8s0.9,3.4,0.9,5.1
			c0,1.5-0.2,3-0.7,4.7c-0.5,1.9-1.4,3.7-2.6,5.5H399.8z"/>
	</g>
	<g>
		<g>
			<path class="st19" d="M29.5,445.9l0.3-0.9c0.7,0.2,1.2,0.4,1.5,0.6c-0.1-0.8-0.1-1.3-0.1-1.6h0.9c0,0.4-0.1,0.9-0.1,1.6
				c0.4-0.2,0.9-0.4,1.5-0.6l0.3,0.9c-0.5,0.2-1.1,0.3-1.6,0.4c0.3,0.2,0.6,0.6,1.1,1.2l-0.8,0.5c-0.2-0.3-0.5-0.8-0.9-1.4
				c-0.3,0.6-0.6,1.1-0.8,1.4l-0.7-0.5c0.5-0.6,0.8-1,1.1-1.2C30.5,446.2,30,446,29.5,445.9z"/>
			<path class="st19" d="M35.2,453.5v-9.3h1.3l4.9,7.3v-7.3h1.2v9.3h-1.3l-4.9-7.3v7.3H35.2z"/>
			<path class="st19" d="M44,450.1c0-1.2,0.3-2.2,1-2.8c0.6-0.5,1.3-0.7,2.1-0.7c0.9,0,1.7,0.3,2.3,0.9s0.9,1.4,0.9,2.5
				c0,0.9-0.1,1.5-0.4,2c-0.3,0.5-0.6,0.9-1.1,1.2c-0.5,0.3-1,0.4-1.6,0.4c-0.9,0-1.7-0.3-2.3-0.9C44.3,452.2,44,451.3,44,450.1z
				 M45.2,450.1c0,0.9,0.2,1.5,0.6,1.9s0.9,0.6,1.4,0.6c0.6,0,1-0.2,1.4-0.6c0.4-0.4,0.6-1.1,0.6-2c0-0.8-0.2-1.5-0.6-1.9
				s-0.8-0.6-1.4-0.6c-0.6,0-1,0.2-1.4,0.6S45.2,449.3,45.2,450.1z"/>
			<path class="st19" d="M54.1,452.5l0.2,1c-0.3,0.1-0.6,0.1-0.9,0.1c-0.4,0-0.7-0.1-1-0.2c-0.2-0.1-0.4-0.3-0.5-0.5
				s-0.1-0.7-0.1-1.3v-3.9H51v-0.9h0.8v-1.7l1.1-0.7v2.4h1.1v0.9H53v3.9c0,0.3,0,0.5,0.1,0.6s0.1,0.2,0.2,0.2
				c0.1,0.1,0.2,0.1,0.4,0.1C53.8,452.5,53.9,452.5,54.1,452.5z"/>
			<path class="st19" d="M59.9,451.3l1.2,0.1c-0.2,0.7-0.5,1.2-1,1.6c-0.5,0.4-1.1,0.6-1.9,0.6c-1,0-1.8-0.3-2.3-0.9
				c-0.6-0.6-0.9-1.5-0.9-2.6c0-1.1,0.3-2,0.9-2.6s1.3-0.9,2.3-0.9c0.9,0,1.6,0.3,2.2,0.9c0.6,0.6,0.9,1.5,0.9,2.6
				c0,0.1,0,0.2,0,0.3h-5c0,0.7,0.3,1.3,0.6,1.7c0.4,0.4,0.8,0.6,1.4,0.6c0.4,0,0.8-0.1,1.1-0.3C59.5,452.2,59.7,451.8,59.9,451.3z
				 M56.1,449.5h3.8c-0.1-0.6-0.2-1-0.4-1.3c-0.4-0.4-0.8-0.7-1.4-0.7c-0.5,0-1,0.2-1.3,0.5C56.4,448.4,56.2,448.9,56.1,449.5z"/>
			<path class="st19" d="M62.8,448.1v-1.3h1.3v1.3H62.8z M62.8,453.5v-1.3h1.3v1.3H62.8z"/>
			<path class="st19" d="M72,453.5v-8.2h-3.1v-1.1h7.4v1.1h-3.1v8.2H72z"/>
			<path class="st19" d="M77.6,453.5v-9.3h4.1c0.8,0,1.5,0.1,1.9,0.3s0.8,0.5,1,0.9c0.3,0.4,0.4,0.9,0.4,1.4c0,0.7-0.2,1.2-0.6,1.7
				c-0.4,0.5-1.1,0.7-2,0.9c0.3,0.2,0.6,0.3,0.7,0.5c0.4,0.3,0.7,0.7,1,1.2l1.6,2.5h-1.5l-1.2-1.9c-0.4-0.6-0.7-1-0.9-1.3
				c-0.2-0.3-0.4-0.5-0.6-0.6c-0.2-0.1-0.4-0.2-0.6-0.2c-0.1,0-0.4,0-0.7,0h-1.4v4.1H77.6z M78.8,448.3h2.6c0.6,0,1-0.1,1.3-0.2
				s0.6-0.3,0.7-0.6s0.2-0.5,0.2-0.8c0-0.4-0.2-0.8-0.5-1.1c-0.3-0.3-0.8-0.4-1.5-0.4h-2.9V448.3z"/>
			<path class="st19" d="M87.2,453.5v-9.3h1.2v9.3H87.2z"/>
			<path class="st19" d="M90.6,453.5v-9.3h4.1c0.8,0,1.5,0.1,1.9,0.3s0.8,0.5,1,0.9c0.3,0.4,0.4,0.9,0.4,1.4c0,0.7-0.2,1.2-0.6,1.7
				c-0.4,0.5-1.1,0.7-2,0.9c0.3,0.2,0.6,0.3,0.7,0.5c0.4,0.3,0.7,0.7,1,1.2l1.6,2.5h-1.5l-1.2-1.9c-0.4-0.6-0.7-1-0.9-1.3
				c-0.2-0.3-0.4-0.5-0.6-0.6c-0.2-0.1-0.4-0.2-0.6-0.2c-0.1,0-0.4,0-0.7,0h-1.4v4.1H90.6z M91.8,448.3h2.6c0.6,0,1-0.1,1.3-0.2
				s0.6-0.3,0.7-0.6s0.2-0.5,0.2-0.8c0-0.4-0.2-0.8-0.5-1.1c-0.3-0.3-0.8-0.4-1.5-0.4h-2.9V448.3z"/>
			<path class="st19" d="M107.8,452.7c-0.4,0.4-0.8,0.6-1.2,0.8c-0.4,0.1-0.8,0.2-1.3,0.2c-0.7,0-1.3-0.2-1.7-0.5
				c-0.4-0.4-0.6-0.8-0.6-1.4c0-0.3,0.1-0.6,0.2-0.9c0.2-0.3,0.3-0.5,0.6-0.7s0.5-0.3,0.8-0.4c0.2-0.1,0.6-0.1,1-0.2
				c0.9-0.1,1.6-0.2,2-0.4c0-0.2,0-0.3,0-0.3c0-0.5-0.1-0.8-0.3-1c-0.3-0.3-0.7-0.4-1.3-0.4c-0.5,0-0.9,0.1-1.2,0.3s-0.4,0.5-0.6,1
				l-1.1-0.2c0.1-0.5,0.3-0.9,0.5-1.2s0.6-0.5,1-0.7c0.4-0.2,0.9-0.2,1.5-0.2c0.6,0,1,0.1,1.4,0.2c0.4,0.1,0.6,0.3,0.8,0.5
				s0.3,0.5,0.4,0.8c0,0.2,0.1,0.5,0.1,1.1v1.5c0,1.1,0,1.7,0.1,2s0.1,0.6,0.3,0.8H108C107.9,453.3,107.9,453,107.8,452.7z
				 M107.7,450.1c-0.4,0.2-1,0.3-1.9,0.4c-0.5,0.1-0.8,0.1-1,0.2c-0.2,0.1-0.3,0.2-0.5,0.4c-0.1,0.2-0.2,0.3-0.2,0.5
				c0,0.3,0.1,0.6,0.3,0.8s0.6,0.3,1,0.3c0.4,0,0.8-0.1,1.2-0.3c0.3-0.2,0.6-0.5,0.8-0.8c0.1-0.3,0.2-0.6,0.2-1.1V450.1z"/>
			<path class="st19" d="M111.7,453.5h-1.1v-9.3h1.1v3.3c0.5-0.6,1.1-0.9,1.8-0.9c0.4,0,0.8,0.1,1.2,0.3s0.7,0.4,0.9,0.7
				s0.4,0.7,0.6,1.1c0.1,0.4,0.2,0.9,0.2,1.4c0,1.2-0.3,2-0.9,2.7c-0.6,0.6-1.3,0.9-2.1,0.9c-0.8,0-1.4-0.3-1.9-1V453.5z
				 M111.7,450.1c0,0.8,0.1,1.4,0.3,1.8c0.4,0.6,0.8,0.9,1.5,0.9c0.5,0,0.9-0.2,1.3-0.7c0.4-0.4,0.5-1.1,0.5-1.9
				c0-0.9-0.2-1.5-0.5-1.9c-0.3-0.4-0.8-0.6-1.3-0.6c-0.5,0-0.9,0.2-1.3,0.7C111.9,448.6,111.7,449.3,111.7,450.1z"/>
			<path class="st19" d="M117.5,450.1c0-1.2,0.3-2.2,1-2.8c0.6-0.5,1.3-0.7,2.1-0.7c0.9,0,1.7,0.3,2.3,0.9s0.9,1.4,0.9,2.5
				c0,0.9-0.1,1.5-0.4,2c-0.3,0.5-0.6,0.9-1.1,1.2c-0.5,0.3-1,0.4-1.6,0.4c-0.9,0-1.7-0.3-2.3-0.9
				C117.7,452.2,117.5,451.3,117.5,450.1z M118.6,450.1c0,0.9,0.2,1.5,0.6,1.9s0.9,0.6,1.4,0.6c0.6,0,1-0.2,1.4-0.6
				c0.4-0.4,0.6-1.1,0.6-2c0-0.8-0.2-1.5-0.6-1.9s-0.8-0.6-1.4-0.6c-0.6,0-1,0.2-1.4,0.6S118.6,449.3,118.6,450.1z"/>
			<path class="st19" d="M127,453.5l-2.6-6.7h1.2l1.4,4c0.2,0.4,0.3,0.9,0.4,1.4c0.1-0.4,0.2-0.8,0.4-1.3l1.5-4.1h1.2l-2.6,6.7H127z
				"/>
			<path class="st19" d="M136.2,451.3l1.2,0.1c-0.2,0.7-0.5,1.2-1,1.6c-0.5,0.4-1.1,0.6-1.9,0.6c-1,0-1.8-0.3-2.3-0.9
				c-0.6-0.6-0.9-1.5-0.9-2.6c0-1.1,0.3-2,0.9-2.6s1.3-0.9,2.3-0.9c0.9,0,1.6,0.3,2.2,0.9c0.6,0.6,0.9,1.5,0.9,2.6
				c0,0.1,0,0.2,0,0.3h-5c0,0.7,0.3,1.3,0.6,1.7c0.4,0.4,0.8,0.6,1.4,0.6c0.4,0,0.8-0.1,1.1-0.3C135.8,452.2,136,451.8,136.2,451.3z
				 M132.5,449.5h3.8c-0.1-0.6-0.2-1-0.4-1.3c-0.4-0.4-0.8-0.7-1.4-0.7c-0.5,0-1,0.2-1.3,0.5C132.7,448.4,132.5,448.9,132.5,449.5z"
				/>
			<path class="st19" d="M142.4,453.5v-6.7h1v1c0.3-0.5,0.5-0.8,0.7-0.9c0.2-0.2,0.5-0.2,0.7-0.2c0.4,0,0.8,0.1,1.2,0.4l-0.4,1.1
				c-0.3-0.2-0.6-0.2-0.8-0.2c-0.2,0-0.5,0.1-0.7,0.2s-0.3,0.4-0.4,0.6c-0.1,0.4-0.2,0.9-0.2,1.3v3.5H142.4z"/>
			<path class="st19" d="M151.4,451.3l1.2,0.1c-0.2,0.7-0.5,1.2-1,1.6c-0.5,0.4-1.1,0.6-1.9,0.6c-1,0-1.8-0.3-2.3-0.9
				c-0.6-0.6-0.9-1.5-0.9-2.6c0-1.1,0.3-2,0.9-2.6s1.3-0.9,2.3-0.9c0.9,0,1.6,0.3,2.2,0.9c0.6,0.6,0.9,1.5,0.9,2.6
				c0,0.1,0,0.2,0,0.3h-5c0,0.7,0.3,1.3,0.6,1.7c0.4,0.4,0.8,0.6,1.4,0.6c0.4,0,0.8-0.1,1.1-0.3C151,452.2,151.2,451.8,151.4,451.3z
				 M147.6,449.5h3.8c-0.1-0.6-0.2-1-0.4-1.3c-0.4-0.4-0.8-0.7-1.4-0.7c-0.5,0-1,0.2-1.3,0.5C147.9,448.4,147.7,448.9,147.6,449.5z"
				/>
			<path class="st19" d="M154.3,453.5v-5.9h-1v-0.9h1v-0.7c0-0.5,0-0.8,0.1-1c0.1-0.3,0.3-0.5,0.6-0.7c0.3-0.2,0.7-0.3,1.2-0.3
				c0.3,0,0.7,0,1.1,0.1l-0.2,1c-0.2,0-0.5-0.1-0.7-0.1c-0.3,0-0.6,0.1-0.7,0.2c-0.1,0.1-0.2,0.4-0.2,0.8v0.6h1.3v0.9h-1.3v5.9
				H154.3z"/>
			<path class="st19" d="M162.2,451.3l1.2,0.1c-0.2,0.7-0.5,1.2-1,1.6c-0.5,0.4-1.1,0.6-1.9,0.6c-1,0-1.8-0.3-2.3-0.9
				c-0.6-0.6-0.9-1.5-0.9-2.6c0-1.1,0.3-2,0.9-2.6s1.3-0.9,2.3-0.9c0.9,0,1.6,0.3,2.2,0.9c0.6,0.6,0.9,1.5,0.9,2.6
				c0,0.1,0,0.2,0,0.3h-5c0,0.7,0.3,1.3,0.6,1.7c0.4,0.4,0.8,0.6,1.4,0.6c0.4,0,0.8-0.1,1.1-0.3
				C161.8,452.2,162.1,451.8,162.2,451.3z M158.5,449.5h3.8c-0.1-0.6-0.2-1-0.4-1.3c-0.4-0.4-0.8-0.7-1.4-0.7c-0.5,0-1,0.2-1.3,0.5
				C158.7,448.4,158.5,448.9,158.5,449.5z"/>
			<path class="st19" d="M164.8,453.5v-6.7h1v1c0.3-0.5,0.5-0.8,0.7-0.9c0.2-0.2,0.5-0.2,0.7-0.2c0.4,0,0.8,0.1,1.2,0.4l-0.4,1.1
				c-0.3-0.2-0.6-0.2-0.8-0.2c-0.2,0-0.5,0.1-0.7,0.2s-0.3,0.4-0.4,0.6c-0.1,0.4-0.2,0.9-0.2,1.3v3.5H164.8z"/>
			<path class="st19" d="M168.7,451.5l1.1-0.2c0.1,0.5,0.2,0.8,0.5,1c0.3,0.2,0.7,0.4,1.2,0.4c0.5,0,0.9-0.1,1.2-0.3
				s0.4-0.5,0.4-0.8c0-0.3-0.1-0.5-0.3-0.6c-0.2-0.1-0.5-0.2-1.2-0.4c-0.8-0.2-1.4-0.4-1.7-0.5c-0.3-0.2-0.6-0.4-0.7-0.6
				c-0.2-0.3-0.3-0.6-0.3-0.9c0-0.3,0.1-0.6,0.2-0.8s0.3-0.5,0.6-0.6c0.2-0.1,0.4-0.2,0.7-0.3s0.6-0.1,1-0.1c0.5,0,1,0.1,1.4,0.2
				c0.4,0.2,0.7,0.4,0.9,0.6c0.2,0.3,0.3,0.6,0.4,1l-1.1,0.2c-0.1-0.3-0.2-0.6-0.4-0.8s-0.6-0.3-1-0.3c-0.5,0-0.9,0.1-1.1,0.3
				c-0.2,0.2-0.3,0.4-0.3,0.6c0,0.1,0,0.3,0.1,0.4c0.1,0.1,0.2,0.2,0.4,0.3c0.1,0,0.5,0.1,1,0.3c0.8,0.2,1.4,0.4,1.7,0.5
				s0.6,0.3,0.8,0.6s0.3,0.6,0.3,1c0,0.4-0.1,0.7-0.3,1.1c-0.2,0.3-0.5,0.6-1,0.8c-0.4,0.2-0.9,0.3-1.4,0.3c-0.9,0-1.5-0.2-2-0.5
				S168.8,452.2,168.7,451.5z"/>
			<path class="st19" d="M181.8,452.5l0.2,1c-0.3,0.1-0.6,0.1-0.9,0.1c-0.4,0-0.7-0.1-1-0.2c-0.2-0.1-0.4-0.3-0.5-0.5
				s-0.1-0.7-0.1-1.3v-3.9h-0.8v-0.9h0.8v-1.7l1.1-0.7v2.4h1.1v0.9h-1.1v3.9c0,0.3,0,0.5,0.1,0.6s0.1,0.2,0.2,0.2
				c0.1,0.1,0.2,0.1,0.4,0.1C181.4,452.5,181.6,452.5,181.8,452.5z"/>
			<path class="st19" d="M182.5,450.1c0-1.2,0.3-2.2,1-2.8c0.6-0.5,1.3-0.7,2.1-0.7c0.9,0,1.7,0.3,2.3,0.9s0.9,1.4,0.9,2.5
				c0,0.9-0.1,1.5-0.4,2c-0.3,0.5-0.6,0.9-1.1,1.2c-0.5,0.3-1,0.4-1.6,0.4c-0.9,0-1.7-0.3-2.3-0.9
				C182.8,452.2,182.5,451.3,182.5,450.1z M183.7,450.1c0,0.9,0.2,1.5,0.6,1.9s0.9,0.6,1.4,0.6c0.6,0,1-0.2,1.4-0.6
				c0.4-0.4,0.6-1.1,0.6-2c0-0.8-0.2-1.5-0.6-1.9s-0.8-0.6-1.4-0.6c-0.6,0-1,0.2-1.4,0.6S183.7,449.3,183.7,450.1z"/>
			<path class="st19" d="M198.4,451.3l1.2,0.1c-0.2,0.7-0.5,1.2-1,1.6c-0.5,0.4-1.1,0.6-1.9,0.6c-1,0-1.8-0.3-2.3-0.9
				c-0.6-0.6-0.9-1.5-0.9-2.6c0-1.1,0.3-2,0.9-2.6s1.3-0.9,2.3-0.9c0.9,0,1.6,0.3,2.2,0.9c0.6,0.6,0.9,1.5,0.9,2.6
				c0,0.1,0,0.2,0,0.3h-5c0,0.7,0.3,1.3,0.6,1.7c0.4,0.4,0.8,0.6,1.4,0.6c0.4,0,0.8-0.1,1.1-0.3C198,452.2,198.2,451.8,198.4,451.3z
				 M194.6,449.5h3.8c-0.1-0.6-0.2-1-0.4-1.3c-0.4-0.4-0.8-0.7-1.4-0.7c-0.5,0-1,0.2-1.3,0.5C194.8,448.4,194.6,448.9,194.6,449.5z"
				/>
			<path class="st19" d="M201,453.5v-6.7h1v0.9c0.2-0.3,0.5-0.6,0.8-0.8c0.4-0.2,0.8-0.3,1.2-0.3c0.5,0,0.9,0.1,1.2,0.3
				c0.3,0.2,0.5,0.5,0.7,0.9c0.5-0.8,1.2-1.2,2.1-1.2c0.7,0,1.2,0.2,1.5,0.6c0.4,0.4,0.5,0.9,0.5,1.7v4.6H209v-4.2
				c0-0.5,0-0.8-0.1-1s-0.2-0.4-0.4-0.5c-0.2-0.1-0.4-0.2-0.7-0.2c-0.5,0-0.9,0.2-1.2,0.5s-0.5,0.8-0.5,1.5v3.9H205v-4.4
				c0-0.5-0.1-0.9-0.3-1.1s-0.5-0.4-0.9-0.4c-0.3,0-0.6,0.1-0.9,0.3c-0.3,0.2-0.5,0.4-0.6,0.7c-0.1,0.3-0.2,0.8-0.2,1.4v3.5H201z"/>
			<path class="st19" d="M211.8,456.1v-9.3h1v0.9c0.2-0.3,0.5-0.6,0.8-0.8c0.3-0.2,0.7-0.3,1.1-0.3c0.6,0,1.1,0.1,1.5,0.4
				c0.4,0.3,0.8,0.7,1,1.3c0.2,0.5,0.3,1.1,0.3,1.8c0,0.7-0.1,1.3-0.4,1.9c-0.2,0.6-0.6,1-1.1,1.3s-1,0.4-1.5,0.4
				c-0.4,0-0.7-0.1-1-0.2s-0.6-0.4-0.7-0.6v3.3H211.8z M212.8,450.2c0,0.9,0.2,1.5,0.5,1.9c0.4,0.4,0.8,0.6,1.3,0.6
				c0.5,0,0.9-0.2,1.3-0.6c0.4-0.4,0.5-1.1,0.5-2c0-0.9-0.2-1.5-0.5-1.9s-0.8-0.6-1.3-0.6c-0.5,0-0.9,0.2-1.3,0.7
				C213,448.7,212.8,449.3,212.8,450.2z"/>
			<path class="st19" d="M219,453.5v-9.3h1.1v9.3H219z"/>
			<path class="st19" d="M221.5,450.1c0-1.2,0.3-2.2,1-2.8c0.6-0.5,1.3-0.7,2.1-0.7c0.9,0,1.7,0.3,2.3,0.9s0.9,1.4,0.9,2.5
				c0,0.9-0.1,1.5-0.4,2c-0.3,0.5-0.6,0.9-1.1,1.2c-0.5,0.3-1,0.4-1.6,0.4c-0.9,0-1.7-0.3-2.3-0.9
				C221.8,452.2,221.5,451.3,221.5,450.1z M222.7,450.1c0,0.9,0.2,1.5,0.6,1.9s0.9,0.6,1.4,0.6c0.6,0,1-0.2,1.4-0.6
				c0.4-0.4,0.6-1.1,0.6-2c0-0.8-0.2-1.5-0.6-1.9s-0.8-0.6-1.4-0.6c-0.6,0-1,0.2-1.4,0.6S222.7,449.3,222.7,450.1z"/>
			<path class="st19" d="M229.1,456.1L229,455c0.2,0.1,0.5,0.1,0.7,0.1c0.3,0,0.5,0,0.6-0.1s0.3-0.2,0.4-0.4
				c0.1-0.1,0.2-0.4,0.3-0.9c0-0.1,0.1-0.2,0.1-0.3l-2.6-6.8h1.2l1.4,3.9c0.2,0.5,0.3,1,0.5,1.6c0.1-0.5,0.3-1,0.5-1.5l1.4-3.9h1.1
				l-2.6,6.9c-0.3,0.7-0.5,1.3-0.6,1.5c-0.2,0.4-0.4,0.7-0.7,0.8c-0.3,0.2-0.6,0.3-0.9,0.3C229.6,456.3,229.4,456.2,229.1,456.1z"/>
			<path class="st19" d="M240.3,451.3l1.2,0.1c-0.2,0.7-0.5,1.2-1,1.6c-0.5,0.4-1.1,0.6-1.9,0.6c-1,0-1.8-0.3-2.3-0.9
				c-0.6-0.6-0.9-1.5-0.9-2.6c0-1.1,0.3-2,0.9-2.6s1.3-0.9,2.3-0.9c0.9,0,1.6,0.3,2.2,0.9c0.6,0.6,0.9,1.5,0.9,2.6
				c0,0.1,0,0.2,0,0.3h-5c0,0.7,0.3,1.3,0.6,1.7c0.4,0.4,0.8,0.6,1.4,0.6c0.4,0,0.8-0.1,1.1-0.3
				C239.9,452.2,240.1,451.8,240.3,451.3z M236.5,449.5h3.8c-0.1-0.6-0.2-1-0.4-1.3c-0.4-0.4-0.8-0.7-1.4-0.7c-0.5,0-1,0.2-1.3,0.5
				C236.8,448.4,236.6,448.9,236.5,449.5z"/>
			<path class="st19" d="M247.5,451.3l1.2,0.1c-0.2,0.7-0.5,1.2-1,1.6c-0.5,0.4-1.1,0.6-1.9,0.6c-1,0-1.8-0.3-2.3-0.9
				c-0.6-0.6-0.9-1.5-0.9-2.6c0-1.1,0.3-2,0.9-2.6s1.3-0.9,2.3-0.9c0.9,0,1.6,0.3,2.2,0.9c0.6,0.6,0.9,1.5,0.9,2.6
				c0,0.1,0,0.2,0,0.3h-5c0,0.7,0.3,1.3,0.6,1.7c0.4,0.4,0.8,0.6,1.4,0.6c0.4,0,0.8-0.1,1.1-0.3
				C247.1,452.2,247.3,451.8,247.5,451.3z M243.7,449.5h3.8c-0.1-0.6-0.2-1-0.4-1.3c-0.4-0.4-0.8-0.7-1.4-0.7c-0.5,0-1,0.2-1.3,0.5
				C244,448.4,243.8,448.9,243.7,449.5z"/>
			<path class="st19" d="M249.7,451.5l1.1-0.2c0.1,0.5,0.2,0.8,0.5,1c0.3,0.2,0.7,0.4,1.2,0.4c0.5,0,0.9-0.1,1.2-0.3
				s0.4-0.5,0.4-0.8c0-0.3-0.1-0.5-0.3-0.6c-0.2-0.1-0.5-0.2-1.2-0.4c-0.8-0.2-1.4-0.4-1.7-0.5c-0.3-0.2-0.6-0.4-0.7-0.6
				c-0.2-0.3-0.3-0.6-0.3-0.9c0-0.3,0.1-0.6,0.2-0.8s0.3-0.5,0.6-0.6c0.2-0.1,0.4-0.2,0.7-0.3s0.6-0.1,1-0.1c0.5,0,1,0.1,1.4,0.2
				c0.4,0.2,0.7,0.4,0.9,0.6c0.2,0.3,0.3,0.6,0.4,1l-1.1,0.2c-0.1-0.3-0.2-0.6-0.4-0.8s-0.6-0.3-1-0.3c-0.5,0-0.9,0.1-1.1,0.3
				c-0.2,0.2-0.3,0.4-0.3,0.6c0,0.1,0,0.3,0.1,0.4c0.1,0.1,0.2,0.2,0.4,0.3c0.1,0,0.5,0.1,1,0.3c0.8,0.2,1.4,0.4,1.7,0.5
				s0.6,0.3,0.8,0.6s0.3,0.6,0.3,1c0,0.4-0.1,0.7-0.3,1.1c-0.2,0.3-0.5,0.6-1,0.8c-0.4,0.2-0.9,0.3-1.4,0.3c-0.9,0-1.5-0.2-2-0.5
				S249.8,452.2,249.7,451.5z"/>
			<path class="st19" d="M259.8,450.1c0-1.2,0.3-2.2,1-2.8c0.6-0.5,1.3-0.7,2.1-0.7c0.9,0,1.7,0.3,2.3,0.9s0.9,1.4,0.9,2.5
				c0,0.9-0.1,1.5-0.4,2c-0.3,0.5-0.6,0.9-1.1,1.2c-0.5,0.3-1,0.4-1.6,0.4c-0.9,0-1.7-0.3-2.3-0.9
				C260.1,452.2,259.8,451.3,259.8,450.1z M261,450.1c0,0.9,0.2,1.5,0.6,1.9s0.9,0.6,1.4,0.6c0.6,0,1-0.2,1.4-0.6
				c0.4-0.4,0.6-1.1,0.6-2c0-0.8-0.2-1.5-0.6-1.9s-0.8-0.6-1.4-0.6c-0.6,0-1,0.2-1.4,0.6S261,449.3,261,450.1z"/>
			<path class="st19" d="M267.5,453.5v-6.7h1v1c0.5-0.7,1.2-1.1,2.1-1.1c0.4,0,0.8,0.1,1.1,0.2c0.3,0.1,0.6,0.3,0.8,0.6
				c0.2,0.2,0.3,0.5,0.4,0.8c0,0.2,0.1,0.6,0.1,1.1v4.1h-1.1v-4.1c0-0.5,0-0.8-0.1-1c-0.1-0.2-0.2-0.4-0.5-0.6s-0.5-0.2-0.8-0.2
				c-0.5,0-0.9,0.2-1.3,0.5c-0.4,0.3-0.5,0.9-0.5,1.8v3.7H267.5z"/>
			<path class="st19" d="M274.7,453.5v-9.3h1.1v9.3H274.7z"/>
			<path class="st19" d="M277.5,456.1l-0.1-1.1c0.2,0.1,0.5,0.1,0.7,0.1c0.3,0,0.5,0,0.6-0.1s0.3-0.2,0.4-0.4
				c0.1-0.1,0.2-0.4,0.3-0.9c0-0.1,0.1-0.2,0.1-0.3l-2.6-6.8h1.2l1.4,3.9c0.2,0.5,0.3,1,0.5,1.6c0.1-0.5,0.3-1,0.5-1.5l1.4-3.9h1.1
				l-2.6,6.9c-0.3,0.7-0.5,1.3-0.6,1.5c-0.2,0.4-0.4,0.7-0.7,0.8c-0.3,0.2-0.6,0.3-0.9,0.3C278,456.3,277.8,456.2,277.5,456.1z"/>
			<path class="st19" d="M292.1,452.7c-0.4,0.4-0.8,0.6-1.2,0.8c-0.4,0.1-0.8,0.2-1.3,0.2c-0.7,0-1.3-0.2-1.7-0.5
				c-0.4-0.4-0.6-0.8-0.6-1.4c0-0.3,0.1-0.6,0.2-0.9c0.2-0.3,0.3-0.5,0.6-0.7s0.5-0.3,0.8-0.4c0.2-0.1,0.6-0.1,1-0.2
				c0.9-0.1,1.6-0.2,2-0.4c0-0.2,0-0.3,0-0.3c0-0.5-0.1-0.8-0.3-1c-0.3-0.3-0.7-0.4-1.3-0.4c-0.5,0-0.9,0.1-1.2,0.3s-0.4,0.5-0.6,1
				l-1.1-0.2c0.1-0.5,0.3-0.9,0.5-1.2s0.6-0.5,1-0.7c0.4-0.2,0.9-0.2,1.5-0.2c0.6,0,1,0.1,1.4,0.2c0.4,0.1,0.6,0.3,0.8,0.5
				s0.3,0.5,0.4,0.8c0,0.2,0.1,0.5,0.1,1.1v1.5c0,1.1,0,1.7,0.1,2s0.1,0.6,0.3,0.8h-1.2C292.2,453.3,292.1,453,292.1,452.7z
				 M292,450.1c-0.4,0.2-1,0.3-1.9,0.4c-0.5,0.1-0.8,0.1-1,0.2c-0.2,0.1-0.3,0.2-0.5,0.4c-0.1,0.2-0.2,0.3-0.2,0.5
				c0,0.3,0.1,0.6,0.3,0.8s0.6,0.3,1,0.3c0.4,0,0.8-0.1,1.2-0.3c0.3-0.2,0.6-0.5,0.8-0.8c0.1-0.3,0.2-0.6,0.2-1.1V450.1z"/>
			<path class="st19" d="M294.9,453.5v-6.7h1v1c0.5-0.7,1.2-1.1,2.1-1.1c0.4,0,0.8,0.1,1.1,0.2c0.3,0.1,0.6,0.3,0.8,0.6
				c0.2,0.2,0.3,0.5,0.4,0.8c0,0.2,0.1,0.6,0.1,1.1v4.1h-1.1v-4.1c0-0.5,0-0.8-0.1-1c-0.1-0.2-0.2-0.4-0.5-0.6s-0.5-0.2-0.8-0.2
				c-0.5,0-0.9,0.2-1.3,0.5c-0.4,0.3-0.5,0.9-0.5,1.8v3.7H294.9z"/>
			<path class="st19" d="M306.5,453.5v-0.9c-0.4,0.7-1.1,1-1.9,1c-0.5,0-1-0.1-1.5-0.4c-0.5-0.3-0.8-0.7-1-1.2
				c-0.2-0.5-0.4-1.1-0.4-1.8c0-0.7,0.1-1.3,0.3-1.8c0.2-0.5,0.6-1,1-1.3c0.4-0.3,1-0.4,1.5-0.4c0.4,0,0.8,0.1,1.1,0.3
				c0.3,0.2,0.6,0.4,0.8,0.7v-3.3h1.1v9.3H306.5z M302.9,450.2c0,0.9,0.2,1.5,0.5,1.9c0.4,0.4,0.8,0.6,1.3,0.6
				c0.5,0,0.9-0.2,1.3-0.6c0.3-0.4,0.5-1,0.5-1.9c0-0.9-0.2-1.6-0.5-2s-0.8-0.6-1.3-0.6c-0.5,0-0.9,0.2-1.3,0.6
				C303.1,448.6,302.9,449.3,302.9,450.2z"/>
			<path class="st19" d="M317.6,451.3l1.2,0.1c-0.2,0.7-0.5,1.2-1,1.6c-0.5,0.4-1.1,0.6-1.9,0.6c-1,0-1.8-0.3-2.3-0.9
				c-0.6-0.6-0.9-1.5-0.9-2.6c0-1.1,0.3-2,0.9-2.6s1.3-0.9,2.3-0.9c0.9,0,1.6,0.3,2.2,0.9c0.6,0.6,0.9,1.5,0.9,2.6
				c0,0.1,0,0.2,0,0.3h-5c0,0.7,0.3,1.3,0.6,1.7c0.4,0.4,0.8,0.6,1.4,0.6c0.4,0,0.8-0.1,1.1-0.3
				C317.2,452.2,317.4,451.8,317.6,451.3z M313.9,449.5h3.8c-0.1-0.6-0.2-1-0.4-1.3c-0.4-0.4-0.8-0.7-1.4-0.7c-0.5,0-1,0.2-1.3,0.5
				C314.1,448.4,313.9,448.9,313.9,449.5z"/>
			<path class="st19" d="M319.5,453.5l2.5-3.5l-2.3-3.2h1.4l1,1.6c0.2,0.3,0.4,0.6,0.5,0.8c0.2-0.3,0.4-0.5,0.5-0.7l1.1-1.6h1.4
				l-2.3,3.2l2.5,3.6h-1.4l-1.4-2.1l-0.4-0.6l-1.8,2.7H319.5z"/>
			<path class="st19" d="M331.1,451l1.1,0.1c-0.1,0.8-0.4,1.4-0.9,1.8c-0.5,0.4-1.1,0.7-1.9,0.7c-0.9,0-1.7-0.3-2.2-0.9
				c-0.6-0.6-0.8-1.5-0.8-2.6c0-0.7,0.1-1.4,0.4-1.9c0.2-0.5,0.6-1,1.1-1.2c0.5-0.3,1-0.4,1.6-0.4c0.7,0,1.3,0.2,1.8,0.6
				c0.5,0.4,0.8,0.9,0.9,1.6l-1.1,0.2c-0.1-0.5-0.3-0.8-0.6-1s-0.6-0.3-1-0.3c-0.6,0-1,0.2-1.4,0.6c-0.4,0.4-0.5,1.1-0.5,2
				c0,0.9,0.2,1.6,0.5,2c0.3,0.4,0.8,0.6,1.4,0.6c0.4,0,0.8-0.1,1.1-0.4C330.8,452,331,451.6,331.1,451z"/>
			<path class="st19" d="M333.2,453.5v-9.3h1.1v9.3H333.2z"/>
			<path class="st19" d="M340.5,453.5v-1c-0.5,0.8-1.2,1.1-2.1,1.1c-0.4,0-0.8-0.1-1.1-0.2s-0.6-0.3-0.8-0.6s-0.3-0.5-0.4-0.8
				c0-0.2-0.1-0.6-0.1-1.1v-4.2h1.1v3.7c0,0.6,0,1,0.1,1.2c0.1,0.3,0.2,0.5,0.5,0.7c0.2,0.2,0.5,0.3,0.9,0.3s0.7-0.1,1-0.3
				s0.5-0.4,0.6-0.7s0.2-0.7,0.2-1.3v-3.6h1.1v6.7H340.5z"/>
			<path class="st19" d="M347.7,453.5v-0.9c-0.4,0.7-1.1,1-1.9,1c-0.5,0-1-0.1-1.5-0.4c-0.5-0.3-0.8-0.7-1-1.2
				c-0.2-0.5-0.4-1.1-0.4-1.8c0-0.7,0.1-1.3,0.3-1.8c0.2-0.5,0.6-1,1-1.3c0.4-0.3,1-0.4,1.5-0.4c0.4,0,0.8,0.1,1.1,0.3
				c0.3,0.2,0.6,0.4,0.8,0.7v-3.3h1.1v9.3H347.7z M344.1,450.2c0,0.9,0.2,1.5,0.5,1.9c0.4,0.4,0.8,0.6,1.3,0.6
				c0.5,0,0.9-0.2,1.3-0.6c0.3-0.4,0.5-1,0.5-1.9c0-0.9-0.2-1.6-0.5-2s-0.8-0.6-1.3-0.6c-0.5,0-0.9,0.2-1.3,0.6
				C344.3,448.6,344.1,449.3,344.1,450.2z"/>
			<path class="st19" d="M355.2,451.3l1.2,0.1c-0.2,0.7-0.5,1.2-1,1.6c-0.5,0.4-1.1,0.6-1.9,0.6c-1,0-1.8-0.3-2.3-0.9
				c-0.6-0.6-0.9-1.5-0.9-2.6c0-1.1,0.3-2,0.9-2.6s1.3-0.9,2.3-0.9c0.9,0,1.6,0.3,2.2,0.9c0.6,0.6,0.9,1.5,0.9,2.6
				c0,0.1,0,0.2,0,0.3h-5c0,0.7,0.3,1.3,0.6,1.7c0.4,0.4,0.8,0.6,1.4,0.6c0.4,0,0.8-0.1,1.1-0.3C354.8,452.2,355,451.8,355.2,451.3z
				 M351.4,449.5h3.8c-0.1-0.6-0.2-1-0.4-1.3c-0.4-0.4-0.8-0.7-1.4-0.7c-0.5,0-1,0.2-1.3,0.5C351.7,448.4,351.5,448.9,351.4,449.5z"
				/>
			<path class="st19" d="M357.3,451.5l1.1-0.2c0.1,0.5,0.2,0.8,0.5,1c0.3,0.2,0.7,0.4,1.2,0.4c0.5,0,0.9-0.1,1.2-0.3
				s0.4-0.5,0.4-0.8c0-0.3-0.1-0.5-0.3-0.6c-0.2-0.1-0.5-0.2-1.2-0.4c-0.8-0.2-1.4-0.4-1.7-0.5c-0.3-0.2-0.6-0.4-0.7-0.6
				c-0.2-0.3-0.3-0.6-0.3-0.9c0-0.3,0.1-0.6,0.2-0.8s0.3-0.5,0.6-0.6c0.2-0.1,0.4-0.2,0.7-0.3s0.6-0.1,1-0.1c0.5,0,1,0.1,1.4,0.2
				c0.4,0.2,0.7,0.4,0.9,0.6c0.2,0.3,0.3,0.6,0.4,1l-1.1,0.2c-0.1-0.3-0.2-0.6-0.4-0.8s-0.6-0.3-1-0.3c-0.5,0-0.9,0.1-1.1,0.3
				c-0.2,0.2-0.3,0.4-0.3,0.6c0,0.1,0,0.3,0.1,0.4c0.1,0.1,0.2,0.2,0.4,0.3c0.1,0,0.5,0.1,1,0.3c0.8,0.2,1.4,0.4,1.7,0.5
				s0.6,0.3,0.8,0.6s0.3,0.6,0.3,1c0,0.4-0.1,0.7-0.3,1.1c-0.2,0.3-0.5,0.6-1,0.8c-0.4,0.2-0.9,0.3-1.4,0.3c-0.9,0-1.5-0.2-2-0.5
				S357.5,452.2,357.3,451.5z"/>
			<path class="st19" d="M368,453.5v-9.3h1.3l4.9,7.3v-7.3h1.2v9.3h-1.3l-4.9-7.3v7.3H368z"/>
			<path class="st19" d="M381.9,451.3l1.2,0.1c-0.2,0.7-0.5,1.2-1,1.6c-0.5,0.4-1.1,0.6-1.9,0.6c-1,0-1.8-0.3-2.3-0.9
				c-0.6-0.6-0.9-1.5-0.9-2.6c0-1.1,0.3-2,0.9-2.6s1.3-0.9,2.3-0.9c0.9,0,1.6,0.3,2.2,0.9c0.6,0.6,0.9,1.5,0.9,2.6
				c0,0.1,0,0.2,0,0.3h-5c0,0.7,0.3,1.3,0.6,1.7c0.4,0.4,0.8,0.6,1.4,0.6c0.4,0,0.8-0.1,1.1-0.3
				C381.5,452.2,381.7,451.8,381.9,451.3z M378.2,449.5h3.8c-0.1-0.6-0.2-1-0.4-1.3c-0.4-0.4-0.8-0.7-1.4-0.7c-0.5,0-1,0.2-1.3,0.5
				C378.4,448.4,378.2,448.9,378.2,449.5z"/>
			<path class="st19" d="M387,452.5l0.2,1c-0.3,0.1-0.6,0.1-0.9,0.1c-0.4,0-0.7-0.1-1-0.2c-0.2-0.1-0.4-0.3-0.5-0.5
				s-0.1-0.7-0.1-1.3v-3.9h-0.8v-0.9h0.8v-1.7l1.1-0.7v2.4h1.1v0.9h-1.1v3.9c0,0.3,0,0.5,0.1,0.6s0.1,0.2,0.2,0.2
				c0.1,0.1,0.2,0.1,0.4,0.1C386.7,452.5,386.8,452.5,387,452.5z"/>
			<path class="st19" d="M392.5,452.7c-0.4,0.4-0.8,0.6-1.2,0.8c-0.4,0.1-0.8,0.2-1.3,0.2c-0.7,0-1.3-0.2-1.7-0.5
				c-0.4-0.4-0.6-0.8-0.6-1.4c0-0.3,0.1-0.6,0.2-0.9c0.2-0.3,0.3-0.5,0.6-0.7s0.5-0.3,0.8-0.4c0.2-0.1,0.6-0.1,1-0.2
				c0.9-0.1,1.6-0.2,2-0.4c0-0.2,0-0.3,0-0.3c0-0.5-0.1-0.8-0.3-1c-0.3-0.3-0.7-0.4-1.3-0.4c-0.5,0-0.9,0.1-1.2,0.3s-0.4,0.5-0.6,1
				l-1.1-0.2c0.1-0.5,0.3-0.9,0.5-1.2s0.6-0.5,1-0.7c0.4-0.2,0.9-0.2,1.5-0.2c0.6,0,1,0.1,1.4,0.2c0.4,0.1,0.6,0.3,0.8,0.5
				s0.3,0.5,0.4,0.8c0,0.2,0.1,0.5,0.1,1.1v1.5c0,1.1,0,1.7,0.1,2s0.1,0.6,0.3,0.8h-1.2C392.7,453.3,392.6,453,392.5,452.7z
				 M392.4,450.1c-0.4,0.2-1,0.3-1.9,0.4c-0.5,0.1-0.8,0.1-1,0.2c-0.2,0.1-0.3,0.2-0.5,0.4c-0.1,0.2-0.2,0.3-0.2,0.5
				c0,0.3,0.1,0.6,0.3,0.8s0.6,0.3,1,0.3c0.4,0,0.8-0.1,1.2-0.3c0.3-0.2,0.6-0.5,0.8-0.8c0.1-0.3,0.2-0.6,0.2-1.1V450.1z"/>
			<path class="st19" d="M395.6,453.5v-5.9h-1v-0.9h1v-0.7c0-0.5,0-0.8,0.1-1c0.1-0.3,0.3-0.5,0.6-0.7c0.3-0.2,0.7-0.3,1.2-0.3
				c0.3,0,0.7,0,1.1,0.1l-0.2,1c-0.2,0-0.5-0.1-0.7-0.1c-0.3,0-0.6,0.1-0.7,0.2c-0.1,0.1-0.2,0.4-0.2,0.8v0.6h1.3v0.9h-1.3v5.9
				H395.6z"/>
			<path class="st19" d="M399,445.5v-1.3h1.1v1.3H399z M399,453.5v-6.7h1.1v6.7H399z"/>
			<path class="st19" d="M401.9,453.5v-6.7h1v0.9c0.2-0.3,0.5-0.6,0.8-0.8c0.4-0.2,0.8-0.3,1.2-0.3c0.5,0,0.9,0.1,1.2,0.3
				c0.3,0.2,0.5,0.5,0.7,0.9c0.5-0.8,1.2-1.2,2.1-1.2c0.7,0,1.2,0.2,1.5,0.6c0.4,0.4,0.5,0.9,0.5,1.7v4.6h-1.1v-4.2
				c0-0.5,0-0.8-0.1-1s-0.2-0.4-0.4-0.5c-0.2-0.1-0.4-0.2-0.7-0.2c-0.5,0-0.9,0.2-1.2,0.5s-0.5,0.8-0.5,1.5v3.9h-1.1v-4.4
				c0-0.5-0.1-0.9-0.3-1.1s-0.5-0.4-0.9-0.4c-0.3,0-0.6,0.1-0.9,0.3c-0.3,0.2-0.5,0.4-0.6,0.7c-0.1,0.3-0.2,0.8-0.2,1.4v3.5H401.9z"
				/>
			<path class="st19" d="M413,453.5v-1.3h1.3v1.3H413z"/>
		</g>
	</g>
</g>
</svg>
