<?xml version="1.0" encoding="utf-8"?>
<!-- Generator: Adobe Illustrator 21.0.2, SVG Export Plug-In . SVG Version: 6.00 Build 0)  -->
<svg version="1.1" id="Layer_1" xmlns="http://www.w3.org/2000/svg" xmlns:xlink="http://www.w3.org/1999/xlink" x="0px" y="0px"
	 viewBox="0 0 265.2 244.2" style="enable-background:new 0 0 265.2 244.2;" xml:space="preserve">
<style type="text/css">
	.st0{clip-path:url(#SVGID_2_);fill:#00B5EC;}
</style>
<g>
	<defs>
		<rect id="SVGID_1_" width="265.2" height="244.2"/>
	</defs>
	<clipPath id="SVGID_2_">
		<use xlink:href="#SVGID_1_"  style="overflow:visible;"/>
	</clipPath>
	<path class="st0" d="M253.3,171.9c0,1.6-1.3,2.9-3,2.9h-15.7c2.5-5.8,3.9-12.2,3.9-18.9c0-5.9-1.1-11.5-3.1-16.7V52.7
		c0-3.2-2.7-5.9-5.9-5.9c-6.5,0-11.9-5.3-11.9-11.7c0-3.2-2.7-5.9-5.9-5.9H53.5c-3.3,0-5.9,2.6-5.9,5.9c0,6.4-5.4,11.7-11.9,11.7
		c-3.3,0-5.9,2.6-5.9,5.9v81.1c0,3.2,2.7,5.9,5.9,5.9c6.5,0,11.9,5.2,11.9,11.7c0,3.2,2.7,5.9,5.9,5.9h88.4
		c0.2,6.2,1.5,12.1,3.9,17.6H14.9c-1.7,0-3-1.3-3-2.9V14.6c0-1.6,1.3-2.9,3-2.9h235.5c1.7,0,3,1.3,3,2.9V171.9z M234.8,211.4
		l-12-2.3c-2.9-0.6-5.8,1.1-6.7,3.8l-4,11.4l-12.6-21.6c8.9-1.7,17-5.9,23.5-11.8L234.8,211.4z M190.2,191.8
		c-20.1,0-36.5-16.1-36.5-35.9c0-19.8,16.4-36,36.5-36c20.1,0,36.5,16.1,36.5,36C226.6,175.7,210.3,191.8,190.2,191.8 M168.4,224.3
		l-4-11.4c-1-2.8-3.8-4.4-6.7-3.8l-12,2.3l11.9-20.3c6.5,5.8,14.5,10,23.5,11.7L168.4,224.3z M70.2,128.2h80.7
		c-3.7,5.1-6.5,11-7.9,17.3H58.7c-2.2-8.2-8.8-14.7-17.1-16.8V57.8c8.3-2.1,14.9-8.6,17.1-16.8h147.8c2.2,8.2,8.8,14.7,17.1,16.8
		v63.7c-8.7-8.2-20.4-13.3-33.4-13.3c-10,0-19.3,3-27.1,8.2h-93c-3.2,0-5.9,2.6-5.9,5.9C64.2,125.5,66.9,128.2,70.2,128.2
		 M261.2,4.6c-0.2-0.2-0.4-0.5-0.7-0.7c-2.7-2.5-6.2-4-10.1-4H14.9C6.7,0,0,6.6,0,14.6v157.2c0,4,1.7,7.7,4.4,10.3
		c2.7,2.7,6.4,4.3,10.5,4.3h131.6l-17.7,30.1c-1.1,2-1,4.5,0.3,6.4c1.3,1.8,3.7,2.8,6,2.3l19.7-3.8l6.5,18.7
		c0.8,2.1,2.7,3.7,5.1,3.9c0.2,0,0.4,0,0.6,0c2.1,0,4.1-1.1,5.2-2.9l18.1-30.9l18.1,30.9c1.1,1.8,3,2.9,5.2,2.9c0.2,0,0.4,0,0.6,0
		c2.3-0.2,4.3-1.8,5.1-3.9l6.5-18.7l19.7,3.8c2.3,0.4,4.6-0.5,6-2.3c1.3-1.9,1.5-4.4,0.3-6.4L234,186.5h16.3
		c8.2,0,14.9-6.6,14.9-14.6V14.6C265.2,10.7,263.6,7.3,261.2,4.6"/>
	<path class="st0" d="M108.1,70.1h48.9c3.3,0,5.9-2.6,5.9-5.9c0-3.2-2.7-5.9-5.9-5.9h-48.9c-3.3,0-5.9,2.6-5.9,5.9
		C102.2,67.5,104.9,70.1,108.1,70.1"/>
	<path class="st0" d="M70.2,99.1H195c3.3,0,5.9-2.6,5.9-5.9c0-3.2-2.7-5.9-5.9-5.9H70.2c-3.3,0-5.9,2.6-5.9,5.9
		C64.2,96.5,66.9,99.1,70.2,99.1"/>
	<path class="st0" d="M190.2,167.2c-6.3,0-11.5-5.1-11.5-11.3c0-6.2,5.2-11.4,11.5-11.4c6.3,0,11.5,5.1,11.5,11.4
		C201.7,162.2,196.5,167.2,190.2,167.2 M190.2,132.8c-12.9,0-23.4,10.3-23.4,23.1c0,12.7,10.5,23,23.4,23c12.9,0,23.4-10.3,23.4-23
		C213.6,143.2,203.1,132.8,190.2,132.8"/>
</g>
</svg>
