<?xml version="1.0" encoding="utf-8"?>
<!-- Generator: Adobe Illustrator 21.0.2, SVG Export Plug-In . SVG Version: 6.00 Build 0)  -->
<svg version="1.1" id="Layer_1" xmlns="http://www.w3.org/2000/svg" xmlns:xlink="http://www.w3.org/1999/xlink" x="0px" y="0px"
	 viewBox="0 0 410.4 468.7" style="enable-background:new 0 0 410.4 468.7;" xml:space="preserve">
<style type="text/css">
	.st0{fill:#94268E;}
	.st1{fill:url(#SVGID_1_);}
	.st2{fill:#0072CE;}
	.st3{fill:#E7C223;}
	.st4{fill:#FFFFFF;}
	.st5{fill:#13B3E8;}
</style>
<g>
	<g>
		<g>
			<path class="st0" d="M402.9,0h-0.1h-0.1h-35.6h-16.8h-15.7h-33.7h-0.1c-4.1,0-7.5,3.3-7.5,7.5v76.3l10.7,10c0,0,0.1,0.1,0.1,0.1
				c0,0,0,0,0,0c0,0,0.1,0.1,0.1,0.2c0,0,0,0,0,0c0,0.1,0.1,0.1,0.1,0.2c0,0,0,0,0,0c0,0,0,0,0,0c0,0.1,0,0.1,0,0.2c0,0,0,0,0,0.1
				c0,0.1,0,0.1,0,0.2c0,0,0,0.1,0,0.1c0,0,0,0.1,0,0.1c0,0,0,0.1,0,0.1c0,0,0,0.1,0,0.1c0,0.1,0,0.1,0,0.2c0,0,0,0,0,0.1
				c0,0.1,0,0.1,0,0.2c0,0,0,0,0,0c0,0,0,0,0,0c0,0.1,0,0.1-0.1,0.2c0,0,0,0,0,0c0,0.1-0.1,0.1-0.1,0.2c0,0,0,0,0,0
				c0,0,0,0.1-0.1,0.1l-10.7,10v27.7c0,4.1,3.3,7.5,7.5,7.5h0.1h33.7h68.1h0.1h0.1c4.1,0,7.5-3.3,7.5-7.5v0v-0.1V63.7V25V7.5
				C410.4,3.3,407,0,402.9,0z"/>
		</g>
		<g>
			<linearGradient id="SVGID_1_" gradientUnits="userSpaceOnUse" x1="214.5709" y1="-13.4104" x2="-38.8185" y2="282.367">
				<stop  offset="1.054996e-02" style="stop-color:#93298D"/>
				<stop  offset="0.9969" style="stop-color:#8064AB"/>
			</linearGradient>
			<path class="st1" d="M295.3,96C295.3,96,295.3,96,295.3,96c0,0,0.1-0.1,0.1-0.1c0,0,0,0,0,0c0,0,0-0.1,0.1-0.1c0,0,0,0,0,0
				c0,0,0,0,0,0c0,0,0-0.1,0-0.1c0,0,0,0,0,0c0,0,0-0.1,0-0.1c0,0,0,0,0-0.1c0,0,0-0.1,0-0.1c0,0,0-0.1,0-0.1c0,0,0,0,0-0.1
				c0,0,0-0.1,0-0.1c0,0,0,0,0,0c0,0,0-0.1,0-0.1c0,0,0,0,0,0c0,0,0,0,0,0c0,0,0-0.1-0.1-0.1c0,0,0,0,0,0c0,0-0.1-0.1-0.1-0.1
				c0,0,0,0,0,0c0,0,0,0-0.1-0.1l-10-9.4V68.8V7.5c0-4.1-3.3-7.5-7.5-7.5h-0.1h-0.1h-16.1h-0.1h-0.1H95.6H28.8H13.4h-0.1h-0.1H7.6
				H7.5C3.3,0,0,3.3,0,7.5v86.7v39.4c0,4.1,3.3,7.5,7.5,7.5h0.1h5.5h0.1h0.1h33.2l9.5,10.1c0,0,0,0,0.1,0.1c0,0,0,0,0,0
				c0,0,0.1,0.1,0.1,0.1c0,0,0,0,0,0c0,0,0.1,0,0.1,0.1c0,0,0,0,0,0c0,0,0,0,0,0c0,0,0.1,0,0.1,0c0,0,0,0,0,0c0,0,0.1,0,0.1,0
				c0,0,0,0,0.1,0c0,0,0.1,0,0.1,0c0,0,0.1,0,0.1,0c0,0,0,0,0.1,0c0,0,0.1,0,0.1,0c0,0,0,0,0,0c0,0,0.1,0,0.1,0c0,0,0,0,0,0
				c0,0,0,0,0,0c0,0,0.1,0,0.1-0.1c0,0,0,0,0,0c0,0,0.1-0.1,0.1-0.1c0,0,0,0,0,0c0,0,0,0,0.1-0.1l9.5-10.1h210.4h0.1h0.1
				c4.1,0,7.5-3.3,7.5-7.5v-15.8v-12.4L295.3,96C295.3,96,295.3,96,295.3,96z"/>
			<path class="st2" d="M346.4,319.9l-9.5,10.1c0,0,0,0-0.1,0.1c0,0,0,0,0,0c0,0-0.1,0.1-0.1,0.1c0,0,0,0,0,0c0,0-0.1,0-0.1,0.1
				c0,0,0,0,0,0c0,0,0,0,0,0c0,0-0.1,0-0.1,0c0,0,0,0,0,0c0,0-0.1,0-0.1,0c0,0,0,0-0.1,0c0,0-0.1,0-0.1,0c0,0-0.1,0-0.1,0
				c0,0,0,0-0.1,0c0,0-0.1,0-0.1,0c0,0,0,0,0,0c0,0-0.1,0-0.1,0c0,0,0,0,0,0c0,0,0,0,0,0c0,0-0.1,0-0.1-0.1c0,0,0,0,0,0
				c0,0-0.1-0.1-0.1-0.1c0,0,0,0,0,0c0,0,0,0-0.1-0.1l-9.5-10.1h-95.1c-0.1,0-0.2,0-0.3,0H7.5c-4.1,0-7.5-3.3-7.5-7.5v0V186.3v-30
				c0-4.1,3.3-7.5,7.5-7.5h0.1h13.7h23.2L56,161c0,0,0.1,0.1,0.1,0.1c0,0,0,0,0,0c0,0,0.1,0.1,0.2,0.1c0,0,0,0,0,0
				c0.1,0,0.1,0.1,0.2,0.1c0,0,0,0,0,0c0,0,0,0,0,0c0.1,0,0.1,0,0.2,0c0,0,0,0,0.1,0c0,0,0.1,0,0.2,0c0,0,0.1,0,0.1,0
				c0,0,0.1,0,0.1,0c0,0,0.1,0,0.1,0c0,0,0.1,0,0.1,0c0.1,0,0.1,0,0.2,0c0,0,0,0,0.1,0c0.1,0,0.1,0,0.2,0c0,0,0,0,0,0c0,0,0,0,0,0
				c0.1,0,0.1,0,0.2-0.1c0,0,0,0,0,0c0.1,0,0.1-0.1,0.2-0.1c0,0,0,0,0,0c0,0,0.1,0,0.1-0.1l11.4-12.2h262.9h70.1h0.1h0.1h0.2
				c4.1,0,7.5,3.3,7.5,7.5V184v2.3v17.8v108.4v0c0,4.1-3.3,7.5-7.5,7.5h-0.1H379L346.4,319.9z"/>
			<path class="st3" d="M402.9,327.7h-0.1h-9.9h0h0h-0.1H359h-10.5l-11.4,12.2c0,0-0.1,0.1-0.1,0.1c0,0,0,0,0,0c0,0-0.1,0.1-0.2,0.1
				c0,0,0,0,0,0c-0.1,0-0.1,0.1-0.2,0.1c0,0,0,0,0,0c0,0,0,0,0,0c-0.1,0-0.1,0-0.2,0c0,0,0,0-0.1,0c-0.1,0-0.1,0-0.2,0
				c0,0-0.1,0-0.1,0c0,0-0.1,0-0.1,0c0,0-0.1,0-0.1,0c0,0-0.1,0-0.1,0c-0.1,0-0.1,0-0.2,0c0,0,0,0-0.1,0c-0.1,0-0.1,0-0.2,0
				c0,0,0,0,0,0c0,0,0,0,0,0c-0.1,0-0.1,0-0.2-0.1c0,0,0,0,0,0c-0.1,0-0.1-0.1-0.2-0.1c0,0,0,0,0,0c0,0-0.1,0-0.1-0.1l-11.4-12.2
				h-22.2h-13.7h-0.1h-10h-0.9h-8.5h-0.1h-0.1c-4.1,0-7.5,3.3-7.5,7.5v77.5l-10,9.4c0,0,0,0-0.1,0.1c0,0,0,0,0,0
				c0,0-0.1,0.1-0.1,0.1c0,0,0,0,0,0c0,0,0,0.1-0.1,0.1c0,0,0,0,0,0c0,0,0,0,0,0c0,0,0,0.1,0,0.1c0,0,0,0,0,0c0,0,0,0.1,0,0.1
				c0,0,0,0,0,0.1c0,0,0,0.1,0,0.1c0,0,0,0.1,0,0.1c0,0,0,0,0,0.1c0,0,0,0.1,0,0.1c0,0,0,0,0,0c0,0,0,0.1,0,0.1c0,0,0,0,0,0
				c0,0,0,0,0,0c0,0,0,0.1,0.1,0.1c0,0,0,0,0,0c0,0,0.1,0.1,0.1,0.1c0,0,0,0,0,0c0,0,0,0,0.1,0.1l10,9.4v28.2c0,4.1,3.3,7.5,7.5,7.5
				h0.1h0.1h8.5h30.9h35.9H359h33.7h0.1h6.1h3.7h0.1c4.1,0,7.5-3.3,7.5-7.5v0v-86.1v-40C410.4,331,407,327.7,402.9,327.7z"/>
			<path class="st3" d="M241.4,422.3c0-0.1,0-0.1,0-0.2c0,0,0,0,0-0.1c0-0.1,0-0.1,0-0.2c0,0,0,0,0,0c0,0,0,0,0,0
				c0-0.1,0-0.1,0.1-0.2c0,0,0,0,0,0c0-0.1,0.1-0.1,0.1-0.2c0,0,0,0,0,0c0,0,0-0.1,0.1-0.1l10.7-10v-76.3c0-4.1-3.3-7.5-7.5-7.5
				h-0.1h-56h-8.7h-66.8H17.7h-0.1h-0.1c0,0,0,0,0,0h-10c-4.1,0-7.5,3.3-7.5,7.5v40v86.1v0c0,0.2,0,0.4,0,0.6
				c0.3,3.8,3.5,6.8,7.4,6.8l9.7,0c0.1,0,0.2,0,0.3,0h0.1h0.1h19.7H209h3.7h0.1h31.9h0.1c4.1,0,7.5-3.3,7.5-7.5v-27.7l-10.7-10
				c0,0-0.1-0.1-0.1-0.1c0,0,0,0,0,0c0,0-0.1-0.1-0.1-0.2c0,0,0,0,0,0c0-0.1-0.1-0.1-0.1-0.2c0,0,0,0,0,0c0,0,0,0,0,0
				c0-0.1,0-0.1,0-0.2c0,0,0,0,0-0.1c0,0,0-0.1,0-0.2c0,0,0-0.1,0-0.1c0,0,0-0.1,0-0.1C241.3,422.5,241.3,422.4,241.4,422.3
				C241.3,422.4,241.3,422.3,241.4,422.3z"/>
		</g>
	</g>
	<g>
		<path class="st4" d="M46.1,83.3h-5.8V61.6c-2.1,2-4.6,3.4-7.4,4.4v-5.2c1.5-0.5,3.1-1.4,4.9-2.8s3-3,3.6-4.8h4.7V83.3z"/>
		<path class="st4" d="M74.2,60.6l-5.6,0.6c-0.1-1.1-0.5-2-1.1-2.5c-0.6-0.5-1.3-0.8-2.2-0.8c-1.2,0-2.2,0.5-3.1,1.6
			c-0.8,1.1-1.4,3.4-1.6,6.8c1.4-1.7,3.2-2.5,5.3-2.5c2.4,0,4.5,0.9,6.2,2.7c1.7,1.8,2.6,4.2,2.6,7.1c0,3.1-0.9,5.5-2.7,7.4
			c-1.8,1.9-4.1,2.8-6.9,2.8c-3,0-5.5-1.2-7.5-3.5c-2-2.4-2.9-6.2-2.9-11.6c0-5.5,1-9.5,3.1-11.9s4.7-3.6,7.9-3.6
			c2.3,0,4.2,0.6,5.7,1.9C72.9,56.3,73.8,58.2,74.2,60.6z M61.2,73.2c0,1.9,0.4,3.3,1.3,4.3c0.9,1,1.8,1.5,2.9,1.5
			c1.1,0,2-0.4,2.7-1.2c0.7-0.8,1.1-2.2,1.1-4.1c0-2-0.4-3.4-1.1-4.3c-0.8-0.9-1.7-1.4-2.9-1.4c-1.1,0-2,0.4-2.8,1.3
			C61.6,70.2,61.2,71.5,61.2,73.2z"/>
		<path class="st4" d="M78.1,59v-5.3h19.7v4.2c-1.6,1.6-3.3,3.9-5,6.9c-1.7,3-3,6.2-3.8,9.5c-0.9,3.4-1.3,6.4-1.3,9h-5.6
			c0.1-4.2,1-8.4,2.6-12.7c1.6-4.3,3.8-8.2,6.5-11.6H78.1z"/>
		<path class="st4" d="M119.8,83.3H114V61.5h5.3v3.1c0.9-1.5,1.7-2.4,2.5-2.9c0.7-0.5,1.6-0.7,2.5-0.7c1.3,0,2.6,0.4,3.8,1.1l-1.8,5
			c-1-0.6-1.9-0.9-2.7-0.9c-0.8,0-1.5,0.2-2,0.7c-0.6,0.4-1,1.2-1.3,2.4c-0.3,1.2-0.5,3.6-0.5,7.3V83.3z"/>
		<path class="st4" d="M143.2,76.4l5.7,1c-0.7,2.1-1.9,3.7-3.5,4.8c-1.6,1.1-3.6,1.6-6,1.6c-3.8,0-6.6-1.2-8.4-3.7
			c-1.4-2-2.2-4.5-2.2-7.5c0-3.6,0.9-6.4,2.8-8.5c1.9-2,4.3-3.1,7.1-3.1c3.2,0,5.8,1.1,7.7,3.2c1.9,2.1,2.8,5.4,2.7,9.8h-14.4
			c0,1.7,0.5,3,1.4,4c0.9,0.9,2,1.4,3.3,1.4c0.9,0,1.7-0.2,2.3-0.7C142.4,78.3,142.9,77.5,143.2,76.4z M143.5,70.6
			c0-1.7-0.5-2.9-1.3-3.8s-1.8-1.3-3-1.3c-1.3,0-2.3,0.5-3.1,1.4c-0.8,0.9-1.2,2.2-1.2,3.7H143.5z"/>
		<path class="st4" d="M153.8,61.5h5.4v3.2c0.7-1.1,1.6-2,2.8-2.7c1.2-0.7,2.5-1,4-1c2.5,0,4.7,1,6.4,3c1.8,2,2.6,4.7,2.6,8.3
			c0,3.6-0.9,6.5-2.7,8.5c-1.8,2-3.9,3-6.5,3c-1.2,0-2.3-0.2-3.3-0.7c-1-0.5-2-1.3-3.1-2.5v11h-5.8V61.5z M159.5,72.1
			c0,2.4,0.5,4.2,1.5,5.4c1,1.2,2.2,1.8,3.5,1.8c1.3,0,2.5-0.5,3.3-1.6s1.3-2.8,1.3-5.3c0-2.3-0.5-4-1.4-5.1c-0.9-1.1-2-1.7-3.4-1.7
			c-1.4,0-2.6,0.5-3.5,1.6S159.5,69.9,159.5,72.1z"/>
		<path class="st4" d="M178.2,72.1c0-1.9,0.5-3.8,1.4-5.6c0.9-1.8,2.3-3.2,4-4.1c1.7-0.9,3.7-1.4,5.8-1.4c3.3,0,6,1.1,8.1,3.2
			c2.1,2.1,3.2,4.8,3.2,8.1c0,3.3-1.1,6-3.2,8.2c-2.1,2.2-4.8,3.2-8,3.2c-2,0-3.9-0.5-5.7-1.4s-3.2-2.2-4.1-4
			C178.7,76.7,178.2,74.6,178.2,72.1z M184.1,72.4c0,2.2,0.5,3.8,1.5,5c1,1.1,2.3,1.7,3.8,1.7c1.5,0,2.8-0.6,3.8-1.7
			c1-1.1,1.5-2.8,1.5-5c0-2.1-0.5-3.8-1.5-4.9c-1-1.1-2.3-1.7-3.8-1.7c-1.5,0-2.8,0.6-3.8,1.7C184.6,68.6,184.1,70.3,184.1,72.4z"/>
		<path class="st4" d="M210.7,83.3h-5.8V61.5h5.3v3.1c0.9-1.5,1.7-2.4,2.5-2.9c0.7-0.5,1.6-0.7,2.5-0.7c1.3,0,2.6,0.4,3.8,1.1
			l-1.8,5c-1-0.6-1.9-0.9-2.7-0.9c-0.8,0-1.5,0.2-2,0.7c-0.6,0.4-1,1.2-1.3,2.4c-0.3,1.2-0.5,3.6-0.5,7.3V83.3z"/>
		<path class="st4" d="M231.5,61.5v4.6h-3.9v8.8c0,1.8,0,2.8,0.1,3.1c0.1,0.3,0.2,0.5,0.5,0.7c0.3,0.2,0.6,0.3,1,0.3
			c0.5,0,1.3-0.2,2.3-0.6l0.5,4.5c-1.3,0.6-2.9,0.9-4.5,0.9c-1,0-2-0.2-2.8-0.5c-0.8-0.3-1.4-0.8-1.8-1.4c-0.4-0.6-0.7-1.3-0.8-2.2
			c-0.1-0.7-0.2-2-0.2-4.1v-9.5h-2.6v-4.6h2.6v-4.3l5.8-3.4v7.7H231.5z"/>
		<path class="st4" d="M233.4,77.1l5.8-0.9c0.2,1.1,0.7,2,1.5,2.5c0.8,0.6,1.8,0.9,3.2,0.9c1.5,0,2.6-0.3,3.4-0.8
			c0.5-0.4,0.8-0.9,0.8-1.5c0-0.4-0.1-0.8-0.4-1.1c-0.3-0.3-0.9-0.5-1.9-0.8c-4.6-1-7.6-2-8.8-2.8c-1.7-1.2-2.6-2.8-2.6-4.9
			c0-1.9,0.7-3.5,2.2-4.8c1.5-1.3,3.8-1.9,6.9-1.9c3,0,5.2,0.5,6.6,1.5s2.4,2.4,3,4.3l-5.4,1c-0.2-0.8-0.7-1.5-1.3-1.9
			c-0.6-0.5-1.6-0.7-2.8-0.7c-1.5,0-2.6,0.2-3.3,0.6c-0.4,0.3-0.7,0.7-0.7,1.2c0,0.4,0.2,0.8,0.6,1c0.5,0.4,2.3,0.9,5.4,1.6
			c3.1,0.7,5.2,1.6,6.4,2.6c1.2,1,1.8,2.5,1.8,4.3c0,2-0.8,3.7-2.5,5.1s-4.1,2.2-7.4,2.2c-3,0-5.3-0.6-7-1.8
			C235.1,80.8,234,79.2,233.4,77.1z"/>
	</g>
	<g>
		<path class="st4" d="M59.4,43V29.8h1.7V43H59.4z"/>
		<path class="st4" d="M64,43v-9.6h1.5v1.4c0.7-1,1.7-1.6,3-1.6c0.6,0,1.1,0.1,1.6,0.3c0.5,0.2,0.8,0.5,1.1,0.8
			c0.2,0.3,0.4,0.7,0.5,1.2c0.1,0.3,0.1,0.8,0.1,1.6V43h-1.6v-5.8c0-0.7-0.1-1.2-0.2-1.5s-0.3-0.6-0.7-0.8s-0.7-0.3-1.1-0.3
			c-0.7,0-1.3,0.2-1.8,0.7c-0.5,0.4-0.8,1.3-0.8,2.5V43H64z"/>
		<path class="st4" d="M87.4,41.4V43h-8.7c0-0.4,0.1-0.8,0.2-1.1c0.2-0.6,0.6-1.2,1.1-1.8s1.2-1.2,2.1-2c1.4-1.2,2.4-2.1,2.9-2.8
			c0.5-0.7,0.8-1.3,0.8-1.9c0-0.6-0.2-1.2-0.7-1.6C84.6,31.3,84,31,83.2,31c-0.8,0-1.4,0.2-1.9,0.7c-0.5,0.5-0.7,1.1-0.7,1.9
			L79,33.5c0.1-1.2,0.5-2.2,1.3-2.8c0.7-0.7,1.7-1,3-1c1.3,0,2.3,0.4,3,1.1c0.7,0.7,1.1,1.6,1.1,2.6c0,0.5-0.1,1-0.3,1.6
			c-0.2,0.5-0.6,1-1.1,1.6c-0.5,0.6-1.3,1.3-2.5,2.3c-1,0.8-1.6,1.4-1.9,1.7c-0.3,0.3-0.5,0.6-0.7,0.9H87.4z"/>
		<path class="st4" d="M89.1,36.4c0-1.6,0.2-2.8,0.5-3.8c0.3-1,0.8-1.7,1.4-2.2c0.6-0.5,1.4-0.8,2.4-0.8c0.7,0,1.3,0.1,1.9,0.4
			s1,0.7,1.3,1.2c0.3,0.5,0.6,1.2,0.8,2c0.2,0.8,0.3,1.8,0.3,3.1c0,1.5-0.2,2.8-0.5,3.8c-0.3,1-0.8,1.7-1.4,2.2
			c-0.6,0.5-1.4,0.8-2.4,0.8c-1.3,0-2.3-0.5-3-1.4C89.6,40.7,89.1,38.9,89.1,36.4z M90.8,36.4c0,2.2,0.3,3.6,0.8,4.3
			c0.5,0.7,1.1,1.1,1.9,1.1s1.4-0.4,1.9-1.1c0.5-0.7,0.8-2.2,0.8-4.3c0-2.2-0.3-3.6-0.8-4.3c-0.5-0.7-1.1-1.1-1.9-1.1
			c-0.7,0-1.3,0.3-1.8,0.9C91.1,32.8,90.8,34.3,90.8,36.4z"/>
		<path class="st4" d="M105.5,43h-1.6V32.6c-0.4,0.4-0.9,0.7-1.5,1.1c-0.6,0.4-1.2,0.7-1.7,0.8V33c0.9-0.4,1.7-0.9,2.4-1.5
			s1.2-1.2,1.4-1.8h1V43z"/>
		<path class="st4" d="M112.1,35.8c-0.7-0.2-1.2-0.6-1.5-1.1c-0.3-0.5-0.5-1-0.5-1.6c0-1,0.3-1.8,1-2.4s1.6-1,2.8-1
			c1.2,0,2.1,0.3,2.8,1s1.1,1.5,1.1,2.4c0,0.6-0.2,1.1-0.5,1.6s-0.8,0.8-1.5,1c0.8,0.3,1.4,0.7,1.8,1.3c0.4,0.6,0.6,1.3,0.6,2.1
			c0,1.1-0.4,2.1-1.2,2.8c-0.8,0.8-1.8,1.2-3.2,1.2c-1.3,0-2.4-0.4-3.2-1.2s-1.2-1.7-1.2-2.9c0-0.9,0.2-1.6,0.7-2.2
			C110.7,36.4,111.3,36,112.1,35.8z M111.3,39.2c0,0.5,0.1,0.9,0.3,1.3c0.2,0.4,0.5,0.8,1,1s0.9,0.4,1.4,0.4c0.8,0,1.4-0.2,1.9-0.7
			c0.5-0.5,0.8-1.1,0.8-1.9c0-0.8-0.3-1.4-0.8-1.9c-0.5-0.5-1.2-0.8-1.9-0.8c-0.8,0-1.4,0.3-1.9,0.8
			C111.6,37.8,111.3,38.4,111.3,39.2z M111.8,33.1c0,0.6,0.2,1.1,0.6,1.5c0.4,0.4,0.9,0.6,1.6,0.6c0.6,0,1.1-0.2,1.5-0.6
			c0.4-0.4,0.6-0.9,0.6-1.4c0-0.6-0.2-1.1-0.6-1.5c-0.4-0.4-0.9-0.6-1.5-0.6c-0.6,0-1.1,0.2-1.5,0.6C112,32,111.8,32.5,111.8,33.1z"
			/>
		<path class="st4" d="M120.8,43v-1.8h1.8V43c0,0.7-0.1,1.2-0.4,1.6c-0.2,0.4-0.6,0.7-1.1,1l-0.5-0.7c0.3-0.1,0.6-0.4,0.8-0.7
			s0.3-0.7,0.3-1.3H120.8z"/>
		<path class="st4" d="M132.4,43l-2.9-9.6h1.7l1.5,5.5l0.6,2.1c0-0.1,0.2-0.8,0.5-2l1.5-5.6h1.7l1.4,5.5l0.5,1.8l0.5-1.8l1.6-5.5
			h1.6l-3,9.6h-1.7l-1.5-5.7l-0.4-1.6l-1.9,7.4H132.4z"/>
		<path class="st4" d="M150.5,39.9l1.7,0.2c-0.3,1-0.8,1.7-1.5,2.3c-0.7,0.5-1.6,0.8-2.7,0.8c-1.4,0-2.5-0.4-3.3-1.3
			c-0.8-0.9-1.2-2.1-1.2-3.6c0-1.6,0.4-2.9,1.2-3.7c0.8-0.9,1.9-1.3,3.2-1.3c1.3,0,2.3,0.4,3.1,1.3s1.2,2.1,1.2,3.7
			c0,0.1,0,0.2,0,0.4H145c0.1,1.1,0.4,1.9,0.9,2.4c0.5,0.6,1.2,0.8,2,0.8c0.6,0,1.1-0.2,1.5-0.5C149.9,41.1,150.2,40.6,150.5,39.9z
			 M145.1,37.3h5.3c-0.1-0.8-0.3-1.4-0.6-1.8c-0.5-0.6-1.2-0.9-2-0.9c-0.7,0-1.4,0.2-1.9,0.7C145.5,35.8,145.2,36.4,145.1,37.3z"/>
		<path class="st4" d="M159.3,43v-9.6h1.5v1.5c0.4-0.7,0.7-1.1,1-1.3c0.3-0.2,0.7-0.3,1-0.3c0.5,0,1.1,0.2,1.7,0.5l-0.6,1.5
			c-0.4-0.2-0.8-0.4-1.2-0.4c-0.4,0-0.7,0.1-1,0.3s-0.5,0.5-0.6,0.9c-0.2,0.6-0.3,1.2-0.3,1.9v5H159.3z"/>
		<path class="st4" d="M172,39.9l1.7,0.2c-0.3,1-0.8,1.7-1.5,2.3c-0.7,0.5-1.6,0.8-2.7,0.8c-1.4,0-2.5-0.4-3.3-1.3
			c-0.8-0.9-1.2-2.1-1.2-3.6c0-1.6,0.4-2.9,1.2-3.7c0.8-0.9,1.9-1.3,3.2-1.3c1.3,0,2.3,0.4,3.1,1.3s1.2,2.1,1.2,3.7
			c0,0.1,0,0.2,0,0.4h-7.1c0.1,1.1,0.4,1.9,0.9,2.4c0.5,0.6,1.2,0.8,2,0.8c0.6,0,1.1-0.2,1.5-0.5C171.4,41.1,171.7,40.6,172,39.9z
			 M166.7,37.3h5.3c-0.1-0.8-0.3-1.4-0.6-1.8c-0.5-0.6-1.2-0.9-2-0.9c-0.7,0-1.4,0.2-1.9,0.7C167,35.8,166.7,36.4,166.7,37.3z"/>
		<path class="st4" d="M181.9,39.5l1.6,0.2c-0.2,1.1-0.6,2-1.3,2.6c-0.7,0.6-1.6,0.9-2.6,0.9c-1.3,0-2.4-0.4-3.2-1.3
			c-0.8-0.9-1.2-2.1-1.2-3.7c0-1,0.2-1.9,0.5-2.7c0.3-0.8,0.9-1.4,1.6-1.7c0.7-0.4,1.5-0.6,2.3-0.6c1,0,1.9,0.3,2.5,0.8
			s1.1,1.3,1.3,2.2l-1.6,0.2c-0.2-0.6-0.4-1.1-0.8-1.4c-0.4-0.3-0.8-0.5-1.4-0.5c-0.8,0-1.5,0.3-2,0.9c-0.5,0.6-0.8,1.5-0.8,2.8
			c0,1.3,0.2,2.2,0.7,2.8s1.1,0.9,1.9,0.9c0.6,0,1.2-0.2,1.6-0.6C181.5,40.9,181.8,40.3,181.9,39.5z"/>
		<path class="st4" d="M191.4,39.9l1.7,0.2c-0.3,1-0.8,1.7-1.5,2.3c-0.7,0.5-1.6,0.8-2.7,0.8c-1.4,0-2.5-0.4-3.3-1.3
			c-0.8-0.9-1.2-2.1-1.2-3.6c0-1.6,0.4-2.9,1.2-3.7c0.8-0.9,1.9-1.3,3.2-1.3c1.3,0,2.3,0.4,3.1,1.3c0.8,0.9,1.2,2.1,1.2,3.7
			c0,0.1,0,0.2,0,0.4H186c0.1,1.1,0.4,1.9,0.9,2.4c0.5,0.6,1.2,0.8,2,0.8c0.6,0,1.1-0.2,1.5-0.5C190.9,41.1,191.2,40.6,191.4,39.9z
			 M186.1,37.3h5.3c-0.1-0.8-0.3-1.4-0.6-1.8c-0.5-0.6-1.2-0.9-2-0.9c-0.7,0-1.4,0.2-1.9,0.7C186.5,35.8,186.2,36.4,186.1,37.3z"/>
		<path class="st4" d="M195.2,31.6v-1.9h1.6v1.9H195.2z M195.2,43v-9.6h1.6V43H195.2z"/>
		<path class="st4" d="M201.9,43l-3.6-9.6h1.7l2.1,5.7c0.2,0.6,0.4,1.3,0.6,1.9c0.1-0.5,0.3-1.1,0.6-1.8l2.1-5.8h1.7l-3.6,9.6H201.9
			z"/>
		<path class="st4" d="M215,39.9l1.7,0.2c-0.3,1-0.8,1.7-1.5,2.3c-0.7,0.5-1.6,0.8-2.7,0.8c-1.4,0-2.5-0.4-3.3-1.3
			c-0.8-0.9-1.2-2.1-1.2-3.6c0-1.6,0.4-2.9,1.2-3.7c0.8-0.9,1.9-1.3,3.2-1.3c1.3,0,2.3,0.4,3.1,1.3s1.2,2.1,1.2,3.7
			c0,0.1,0,0.2,0,0.4h-7.1c0.1,1.1,0.4,1.9,0.9,2.4c0.5,0.6,1.2,0.8,2,0.8c0.6,0,1.1-0.2,1.5-0.5C214.4,41.1,214.8,40.6,215,39.9z
			 M209.7,37.3h5.3c-0.1-0.8-0.3-1.4-0.6-1.8c-0.5-0.6-1.2-0.9-2-0.9c-0.7,0-1.4,0.2-1.9,0.7C210,35.8,209.7,36.4,209.7,37.3z"/>
		<path class="st4" d="M224.9,43v-1.2c-0.6,0.9-1.5,1.4-2.7,1.4c-0.8,0-1.5-0.2-2.1-0.6c-0.6-0.4-1.1-1-1.5-1.8
			c-0.4-0.8-0.5-1.6-0.5-2.6c0-1,0.2-1.8,0.5-2.6c0.3-0.8,0.8-1.4,1.4-1.8s1.3-0.6,2.1-0.6c0.6,0,1.1,0.1,1.5,0.4
			c0.5,0.2,0.8,0.6,1.1,0.9v-4.7h1.6V43H224.9z M219.8,38.2c0,1.2,0.3,2.1,0.8,2.7s1.1,0.9,1.8,0.9c0.7,0,1.3-0.3,1.8-0.9
			c0.5-0.6,0.7-1.5,0.7-2.7c0-1.3-0.3-2.3-0.8-2.9c-0.5-0.6-1.1-0.9-1.9-0.9c-0.7,0-1.3,0.3-1.8,0.9C220,36,219.8,36.9,219.8,38.2z"
			/>
	</g>
	<g>
		<path class="st4" d="M29.9,110.9l0.2,1.3c-0.4,0.1-0.8,0.1-1.1,0.1c-0.5,0-1-0.1-1.3-0.3c-0.3-0.2-0.5-0.4-0.6-0.7
			c-0.1-0.3-0.2-0.9-0.2-1.8v-5.1h-1.1v-1.2h1.1v-2.2l1.5-0.9v3.1h1.5v1.2h-1.5v5.2c0,0.4,0,0.7,0.1,0.8s0.1,0.2,0.3,0.3
			c0.1,0.1,0.3,0.1,0.5,0.1C29.4,110.9,29.6,110.9,29.9,110.9z"/>
		<path class="st4" d="M31.4,112.2V100h1.5v4.4c0.7-0.8,1.6-1.2,2.6-1.2c0.7,0,1.2,0.1,1.7,0.4c0.5,0.3,0.8,0.6,1,1.1
			c0.2,0.5,0.3,1.1,0.3,2v5.6h-1.5v-5.6c0-0.7-0.2-1.3-0.5-1.6c-0.3-0.3-0.8-0.5-1.4-0.5c-0.4,0-0.9,0.1-1.2,0.3
			c-0.4,0.2-0.7,0.5-0.8,0.9c-0.2,0.4-0.2,0.9-0.2,1.6v4.8H31.4z"/>
		<path class="st4" d="M40.8,112.2v-8.8h1.3v1.3c0.3-0.6,0.7-1,1-1.2c0.3-0.2,0.6-0.3,1-0.3c0.5,0,1,0.2,1.5,0.5l-0.5,1.4
			c-0.4-0.2-0.7-0.3-1.1-0.3c-0.3,0-0.6,0.1-0.9,0.3c-0.3,0.2-0.4,0.5-0.6,0.8c-0.2,0.5-0.2,1.1-0.2,1.7v4.6H40.8z"/>
		<path class="st4" d="M45.9,107.8c0-1.6,0.5-2.8,1.4-3.6c0.8-0.7,1.7-1,2.8-1c1.2,0,2.2,0.4,3,1.2c0.8,0.8,1.2,1.9,1.2,3.3
			c0,1.1-0.2,2-0.5,2.7c-0.3,0.7-0.8,1.2-1.5,1.5c-0.7,0.4-1.4,0.5-2.1,0.5c-1.2,0-2.2-0.4-3-1.2C46.3,110.4,45.9,109.3,45.9,107.8z
			 M47.5,107.8c0,1.1,0.2,2,0.7,2.5c0.5,0.6,1.1,0.8,1.9,0.8c0.7,0,1.4-0.3,1.9-0.8s0.7-1.4,0.7-2.6c0-1.1-0.2-1.9-0.7-2.5
			s-1.1-0.8-1.8-0.8c-0.7,0-1.4,0.3-1.9,0.8C47.7,105.8,47.5,106.7,47.5,107.8z"/>
		<path class="st4" d="M61.7,112.2v-1.3c-0.7,1-1.6,1.5-2.8,1.5c-0.5,0-1-0.1-1.5-0.3c-0.5-0.2-0.8-0.4-1-0.8s-0.4-0.7-0.5-1.1
			c-0.1-0.3-0.1-0.8-0.1-1.4v-5.5h1.5v4.9c0,0.8,0,1.3,0.1,1.6c0.1,0.4,0.3,0.7,0.6,0.9c0.3,0.2,0.7,0.3,1.1,0.3s0.9-0.1,1.3-0.3
			s0.7-0.5,0.8-0.9c0.2-0.4,0.2-1,0.2-1.7v-4.7H63v8.8H61.7z"/>
		<path class="st4" d="M65.1,112.9l1.5,0.2c0.1,0.4,0.2,0.8,0.5,1c0.4,0.3,0.9,0.4,1.5,0.4c0.7,0,1.2-0.1,1.6-0.4
			c0.4-0.3,0.6-0.7,0.8-1.2c0.1-0.3,0.1-0.9,0.1-1.9c-0.7,0.8-1.5,1.2-2.4,1.2c-1.2,0-2.1-0.4-2.8-1.3s-1-1.9-1-3.1
			c0-0.8,0.2-1.6,0.5-2.3s0.7-1.3,1.3-1.6s1.3-0.6,2-0.6c1,0,1.9,0.4,2.6,1.3v-1.1h1.4v7.6c0,1.4-0.1,2.3-0.4,2.9
			c-0.3,0.6-0.7,1-1.3,1.4c-0.6,0.3-1.4,0.5-2.2,0.5c-1.1,0-1.9-0.2-2.5-0.7C65.4,114.6,65.1,113.9,65.1,112.9z M66.4,107.6
			c0,1.2,0.2,2,0.7,2.5c0.5,0.5,1,0.8,1.7,0.8c0.7,0,1.3-0.3,1.7-0.8s0.7-1.4,0.7-2.5c0-1.1-0.2-1.9-0.7-2.4
			c-0.5-0.5-1.1-0.8-1.7-0.8c-0.7,0-1.2,0.3-1.7,0.8C66.6,105.8,66.4,106.6,66.4,107.6z"/>
		<path class="st4" d="M74.8,112.2V100h1.5v4.4c0.7-0.8,1.6-1.2,2.6-1.2c0.7,0,1.2,0.1,1.7,0.4c0.5,0.3,0.8,0.6,1,1.1
			c0.2,0.5,0.3,1.1,0.3,2v5.6h-1.5v-5.6c0-0.7-0.2-1.3-0.5-1.6c-0.3-0.3-0.8-0.5-1.4-0.5c-0.4,0-0.9,0.1-1.2,0.3
			c-0.4,0.2-0.7,0.5-0.8,0.9c-0.2,0.4-0.2,0.9-0.2,1.6v4.8H74.8z"/>
		<path class="st4" d="M88.5,107.8c0-1.6,0.5-2.8,1.4-3.6c0.8-0.7,1.7-1,2.8-1c1.2,0,2.2,0.4,3,1.2s1.2,1.9,1.2,3.3
			c0,1.1-0.2,2-0.5,2.7c-0.3,0.7-0.8,1.2-1.5,1.5c-0.7,0.4-1.4,0.5-2.1,0.5c-1.2,0-2.2-0.4-3-1.2C88.8,110.4,88.5,109.3,88.5,107.8z
			 M90,107.8c0,1.1,0.2,2,0.7,2.5s1.1,0.8,1.9,0.8c0.7,0,1.4-0.3,1.9-0.8c0.5-0.6,0.7-1.4,0.7-2.6c0-1.1-0.2-1.9-0.7-2.5
			c-0.5-0.6-1.1-0.8-1.8-0.8c-0.7,0-1.4,0.3-1.9,0.8S90,106.7,90,107.8z"/>
		<path class="st4" d="M104.3,112.2v-1.3c-0.7,1-1.6,1.5-2.8,1.5c-0.5,0-1-0.1-1.5-0.3s-0.8-0.4-1-0.8c-0.2-0.3-0.4-0.7-0.5-1.1
			c-0.1-0.3-0.1-0.8-0.1-1.4v-5.5h1.5v4.9c0,0.8,0,1.3,0.1,1.6c0.1,0.4,0.3,0.7,0.6,0.9c0.3,0.2,0.7,0.3,1.1,0.3s0.9-0.1,1.3-0.3
			c0.4-0.2,0.7-0.5,0.8-0.9s0.2-1,0.2-1.7v-4.7h1.5v8.8H104.3z"/>
		<path class="st4" d="M107.9,112.2v-8.8h1.3v1.3c0.3-0.6,0.7-1,1-1.2c0.3-0.2,0.6-0.3,1-0.3c0.5,0,1,0.2,1.5,0.5l-0.5,1.4
			c-0.4-0.2-0.7-0.3-1.1-0.3c-0.3,0-0.6,0.1-0.9,0.3s-0.4,0.5-0.6,0.8c-0.2,0.5-0.2,1.1-0.2,1.7v4.6H107.9z"/>
		<path class="st4" d="M120.6,112.2l-3.2-12.2h1.7l1.9,8c0.2,0.8,0.4,1.7,0.5,2.5c0.3-1.3,0.5-2.1,0.5-2.2l2.3-8.2h1.9l1.7,6.2
			c0.4,1.5,0.8,3,0.9,4.3c0.2-0.8,0.4-1.7,0.6-2.6l1.9-7.8h1.6l-3.3,12.2h-1.6l-2.6-9.3c-0.2-0.8-0.3-1.3-0.4-1.4
			c-0.1,0.6-0.2,1-0.4,1.4l-2.6,9.3H120.6z"/>
		<path class="st4" d="M134.4,112.2V100h1.5v4.4c0.7-0.8,1.6-1.2,2.6-1.2c0.7,0,1.2,0.1,1.7,0.4c0.5,0.3,0.8,0.6,1,1.1
			c0.2,0.5,0.3,1.1,0.3,2v5.6H140v-5.6c0-0.7-0.2-1.3-0.5-1.6c-0.3-0.3-0.8-0.5-1.4-0.5c-0.4,0-0.9,0.1-1.2,0.3
			c-0.4,0.2-0.7,0.5-0.8,0.9c-0.2,0.4-0.2,0.9-0.2,1.6v4.8H134.4z"/>
		<path class="st4" d="M143.8,101.8V100h1.5v1.7H143.8z M143.8,112.2v-8.8h1.5v8.8H143.8z"/>
		<path class="st4" d="M147,109.6l1.5-0.2c0.1,0.6,0.3,1,0.7,1.4c0.4,0.3,0.9,0.5,1.6,0.5c0.7,0,1.2-0.1,1.5-0.4s0.5-0.6,0.5-1
			c0-0.3-0.1-0.6-0.4-0.8c-0.2-0.1-0.7-0.3-1.5-0.5c-1.1-0.3-1.9-0.5-2.3-0.7c-0.4-0.2-0.7-0.5-1-0.8c-0.2-0.4-0.3-0.8-0.3-1.2
			c0-0.4,0.1-0.8,0.3-1.1s0.4-0.6,0.7-0.8c0.2-0.2,0.5-0.3,1-0.4c0.4-0.1,0.8-0.2,1.3-0.2c0.7,0,1.3,0.1,1.8,0.3
			c0.5,0.2,0.9,0.5,1.2,0.8c0.2,0.3,0.4,0.8,0.5,1.4l-1.5,0.2c-0.1-0.5-0.3-0.8-0.6-1.1s-0.8-0.4-1.3-0.4c-0.7,0-1.2,0.1-1.5,0.3
			c-0.3,0.2-0.4,0.5-0.4,0.8c0,0.2,0.1,0.4,0.2,0.5c0.1,0.2,0.3,0.3,0.6,0.4c0.1,0.1,0.6,0.2,1.3,0.4c1.1,0.3,1.8,0.5,2.2,0.7
			s0.7,0.4,1,0.8s0.4,0.8,0.4,1.3c0,0.5-0.1,1-0.4,1.4c-0.3,0.4-0.7,0.8-1.3,1c-0.5,0.2-1.2,0.4-1.9,0.4c-1.1,0-2-0.2-2.6-0.7
			S147.2,110.5,147,109.6z"/>
		<path class="st4" d="M159.4,110.9l0.2,1.3c-0.4,0.1-0.8,0.1-1.1,0.1c-0.5,0-1-0.1-1.3-0.3c-0.3-0.2-0.5-0.4-0.6-0.7
			s-0.2-0.9-0.2-1.8v-5.1h-1.1v-1.2h1.1v-2.2l1.5-0.9v3.1h1.5v1.2h-1.5v5.2c0,0.4,0,0.7,0.1,0.8c0.1,0.1,0.1,0.2,0.3,0.3
			c0.1,0.1,0.3,0.1,0.5,0.1C158.9,110.9,159.1,110.9,159.4,110.9z"/>
		<path class="st4" d="M160.8,112.2V100h1.5v12.2H160.8z"/>
		<path class="st4" d="M170.6,109.4l1.5,0.2c-0.2,0.9-0.7,1.6-1.4,2.1c-0.7,0.5-1.5,0.7-2.5,0.7c-1.3,0-2.3-0.4-3.1-1.2
			c-0.8-0.8-1.1-1.9-1.1-3.3c0-1.5,0.4-2.6,1.1-3.5s1.8-1.2,3-1.2c1.2,0,2.1,0.4,2.9,1.2c0.7,0.8,1.1,1.9,1.1,3.4c0,0.1,0,0.2,0,0.4
			h-6.6c0.1,1,0.3,1.7,0.8,2.2c0.5,0.5,1.1,0.8,1.8,0.8c0.5,0,1-0.1,1.4-0.4C170.1,110.5,170.4,110,170.6,109.4z M165.7,107h4.9
			c-0.1-0.7-0.3-1.3-0.6-1.7c-0.5-0.6-1.1-0.9-1.9-0.9c-0.7,0-1.3,0.2-1.7,0.7C166,105.6,165.8,106.2,165.7,107z"/>
		<path class="st4" d="M175.4,112.2H174V100h1.5v4.3c0.6-0.8,1.4-1.2,2.4-1.2c0.5,0,1.1,0.1,1.5,0.3s0.9,0.5,1.2,0.9
			s0.6,0.9,0.7,1.4c0.2,0.6,0.3,1.2,0.3,1.8c0,1.5-0.4,2.7-1.1,3.5c-0.7,0.8-1.6,1.2-2.7,1.2c-1,0-1.9-0.4-2.4-1.3V112.2z
			 M175.4,107.7c0,1.1,0.1,1.8,0.4,2.3c0.5,0.8,1.1,1.2,1.9,1.2c0.7,0,1.2-0.3,1.7-0.9s0.7-1.4,0.7-2.5c0-1.2-0.2-2-0.7-2.5
			c-0.5-0.5-1-0.8-1.7-0.8c-0.7,0-1.2,0.3-1.7,0.9S175.4,106.7,175.4,107.7z"/>
		<path class="st4" d="M183.5,112.2V100h1.5v12.2H183.5z"/>
		<path class="st4" d="M186.7,107.8c0-1.6,0.5-2.8,1.4-3.6c0.8-0.7,1.7-1,2.8-1c1.2,0,2.2,0.4,3,1.2c0.8,0.8,1.2,1.9,1.2,3.3
			c0,1.1-0.2,2-0.5,2.7c-0.3,0.7-0.8,1.2-1.5,1.5c-0.7,0.4-1.4,0.5-2.1,0.5c-1.2,0-2.2-0.4-3-1.2
			C187.1,110.4,186.7,109.3,186.7,107.8z M188.3,107.8c0,1.1,0.2,2,0.7,2.5c0.5,0.6,1.1,0.8,1.9,0.8c0.7,0,1.4-0.3,1.9-0.8
			s0.7-1.4,0.7-2.6c0-1.1-0.2-1.9-0.7-2.5s-1.1-0.8-1.8-0.8c-0.7,0-1.4,0.3-1.9,0.8C188.5,105.8,188.3,106.7,188.3,107.8z"/>
		<path class="st4" d="M198.4,112.2l-2.7-8.8h1.5l1.4,5.1l0.5,1.9c0-0.1,0.2-0.7,0.5-1.8l1.4-5.2h1.5l1.3,5.1l0.4,1.7l0.5-1.7
			l1.5-5.1h1.5l-2.8,8.8h-1.6l-1.4-5.3l-0.3-1.5l-1.8,6.8H198.4z"/>
		<path class="st4" d="M215,109.4l1.5,0.2c-0.2,0.9-0.7,1.6-1.4,2.1c-0.7,0.5-1.5,0.7-2.5,0.7c-1.3,0-2.3-0.4-3.1-1.2
			c-0.8-0.8-1.1-1.9-1.1-3.3c0-1.5,0.4-2.6,1.1-3.5s1.8-1.2,3-1.2c1.2,0,2.1,0.4,2.9,1.2c0.7,0.8,1.1,1.9,1.1,3.4c0,0.1,0,0.2,0,0.4
			h-6.6c0.1,1,0.3,1.7,0.8,2.2c0.5,0.5,1.1,0.8,1.8,0.8c0.5,0,1-0.1,1.4-0.4C214.5,110.5,214.8,110,215,109.4z M210.1,107h4.9
			c-0.1-0.7-0.3-1.3-0.6-1.7c-0.5-0.6-1.1-0.9-1.9-0.9c-0.7,0-1.3,0.2-1.7,0.7C210.4,105.6,210.2,106.2,210.1,107z"/>
		<path class="st4" d="M218.4,112.2v-8.8h1.3v1.3c0.3-0.6,0.7-1,1-1.2c0.3-0.2,0.6-0.3,1-0.3c0.5,0,1,0.2,1.5,0.5l-0.5,1.4
			c-0.4-0.2-0.7-0.3-1.1-0.3c-0.3,0-0.6,0.1-0.9,0.3c-0.3,0.2-0.4,0.5-0.6,0.8c-0.2,0.5-0.2,1.1-0.2,1.7v4.6H218.4z"/>
		<path class="st4" d="M229,112.2V100h1.6v10.7h6v1.4H229z"/>
		<path class="st4" d="M238.3,101.8V100h1.5v1.7H238.3z M238.3,112.2v-8.8h1.5v8.8H238.3z"/>
		<path class="st4" d="M242.1,112.2v-8.8h1.3v1.3c0.6-1,1.6-1.5,2.8-1.5c0.5,0,1,0.1,1.5,0.3c0.4,0.2,0.8,0.4,1,0.8
			c0.2,0.3,0.4,0.7,0.5,1.1c0.1,0.3,0.1,0.8,0.1,1.5v5.4h-1.5v-5.4c0-0.6-0.1-1.1-0.2-1.4c-0.1-0.3-0.3-0.5-0.6-0.7s-0.6-0.3-1-0.3
			c-0.6,0-1.2,0.2-1.6,0.6c-0.5,0.4-0.7,1.2-0.7,2.3v4.8H242.1z"/>
		<path class="st4" d="M257.6,109.4l1.5,0.2c-0.2,0.9-0.7,1.6-1.4,2.1c-0.7,0.5-1.5,0.7-2.5,0.7c-1.3,0-2.3-0.4-3.1-1.2
			c-0.8-0.8-1.1-1.9-1.1-3.3c0-1.5,0.4-2.6,1.1-3.5s1.8-1.2,3-1.2c1.2,0,2.1,0.4,2.9,1.2c0.7,0.8,1.1,1.9,1.1,3.4c0,0.1,0,0.2,0,0.4
			h-6.6c0.1,1,0.3,1.7,0.8,2.2c0.5,0.5,1.1,0.8,1.8,0.8c0.5,0,1-0.1,1.4-0.4C257,110.5,257.3,110,257.6,109.4z M252.7,107h4.9
			c-0.1-0.7-0.3-1.3-0.6-1.7c-0.5-0.6-1.1-0.9-1.9-0.9c-0.7,0-1.3,0.2-1.7,0.7C253,105.6,252.7,106.2,252.7,107z"/>
	</g>
	<line class="st5" x1="392.6" y1="327.7" x2="392.5" y2="327.7"/>
	<path class="st4" d="M392.9,100L384,39.1c0-0.1,0-0.2-0.1-0.3c-0.5-2.3-2.1-4.2-4.4-4.9c-1.2-0.4-2.4-0.3-3.6-0.1l-7.8,1.1
		c-0.1-1-0.3-2.1-0.5-3.1c0-0.1,0-0.1,0-0.2c-0.1-0.7-0.4-1.2-1-1.6c-0.4-0.3-0.7-0.4-1.1-0.5c-0.1,0-0.1,0-0.2,0l0,0c0,0,0,0,0,0
		c-0.1,0-0.3,0-0.4,0l0,0c0,0,0,0,0,0c0,0,0,0,0,0c0,0-0.1,0.1-0.1,0l-8.2,1.2c-0.1-0.5-0.2-1.1-0.4-1.6c-0.8-2.2-2.8-4.1-5-4.7
		c-2.4-0.7-4.9-0.3-6.9,1.2c-1.7,1.2-2.9,3.2-3.2,5.3c-0.1,0.7-0.1,1.5,0,2.2l-5.2,0.8c-1,0.1-2,0.3-3,0.5c-1.4,0.3-2.4,1.5-2.2,2.9
		c0,0.3,0.1,0.7,0.1,1l0.3,2.2c-2.8,0.4-5.7,0.8-8.5,1.2c-3.5,0.5-5.9,3.8-5.5,7.3c0.1,0.5,0.2,0.9,0.2,1.4l8.8,60.1
		c0.3,2.1,0.4,4.5,1.7,6.3c1.5,2,3.9,2.8,6.3,2.4l51.7-7.6c0.7-0.1,1.4-0.2,2.1-0.3c3-0.4,5.5-2.9,5.6-6.1
		C393.6,103.4,393.2,101.6,392.9,100z M346,31.9c0,0,0-0.1,0-0.1c0-0.1,0-0.2,0-0.3c0,0,0-0.1,0-0.1c0,0,0,0,0,0c0,0,0,0,0-0.1
		c0,0,0-0.1,0-0.1l0,0l0,0c0,0,0,0,0,0s0,0,0,0l0,0c0,0,0,0,0-0.1c0,0,0-0.1,0-0.1c0,0,0,0,0,0c0,0,0,0,0,0c0,0,0,0,0,0l0,0
		c0,0,0,0,0,0c0,0,0,0,0,0c0,0,0,0,0,0c0,0,0,0,0,0c0,0,0,0,0,0c0,0,0,0,0,0c0,0,0,0,0,0c0,0,0,0,0,0c0,0,0,0,0,0c0,0,0-0.1,0-0.1
		l0,0c0,0,0,0,0-0.1c0,0,0-0.1,0-0.1c0,0,0-0.1,0.1-0.1c0,0,0-0.1,0.1-0.1c0,0,0,0,0,0c0,0,0-0.1,0.1-0.1c0,0,0.1-0.1,0.1-0.1
		c0.3-0.4,0.6-0.6,1-0.8c0,0,0,0,0,0c0,0,0,0,0,0l0,0c0.1,0,0.1-0.1,0.2-0.1c0,0,0,0,0.1,0c0.2-0.1,0.3-0.1,0.5-0.1l0,0
		c0.1,0,0.3-0.1,0.4,0c0,0,0.1,0,0.1,0l0,0c0,0,0,0,0,0c0,0,0,0,0.1,0.1l0,0c0.2,0,0.4,0,0.5,0.1c0,0,0,0,0.1,0
		c0.3,0.1,0.6,0.2,0.8,0.4c0,0,0.1,0,0.1,0.1c0,0,0.1,0.1,0.1,0.1c0.3,0.3,0.6,0.6,0.7,1.1c0,0.1,0.1,0.1,0.1,0.2c0,0,0,0.1,0.1,0.2
		c0,0,0,0,0,0c0,0,0,0,0,0l0,0c0,0,0,0,0,0.1c0,0,0,0.1,0,0.1l0,0c0,0,0,0.1,0,0.1s0,0.1,0,0.1s0,0.1,0,0.1c0,0,0,0,0,0c0,0,0,0,0,0
		c0,0,0,0,0,0.1c0,0.1,0,0.1,0,0.1c0,0,0,0,0,0.1c0,0.1,0,0.1,0,0.1c0,0,0,0.1,0,0.1c0,0,0,0.1,0,0.1c0,0,0,0,0,0c0,0,0,0,0,0
		c0,0,0,0,0,0l0,0c0,0,0,0.1,0,0.1c0,0,0,0,0,0c0,0,0,0,0,0.1c0,0,0,0.1,0,0.1c0,0,0,0.1-0.1,0.1c0,0,0,0,0,0.1
		c0,0.1-0.1,0.1-0.1,0.2c0,0,0,0,0,0.1c0,0.1-0.1,0.1-0.1,0.2c0,0.1,0,0.1-0.1,0.2l0,0l0,0c0,0-0.1,0.1-0.1,0.1c0,0-0.1,0.1-0.1,0.1
		l0,0c0,0-0.1,0.1-0.1,0.1c0,0,0,0,0,0c0,0,0,0-0.1,0.1l0,0c-0.1,0.1-0.2,0.1-0.2,0.2c0,0,0,0-0.1,0c0,0,0,0-0.1,0l0,0c0,0,0,0,0,0
		c0,0,0,0,0,0s0,0,0,0c0,0,0,0-0.1,0c0,0,0,0-0.1,0c0,0,0,0-0.1,0c-0.2,0.1-0.5,0.2-0.8,0.2c0,0,0,0-0.1,0c0,0,0,0-0.1,0
		c0,0,0,0,0,0c0,0,0,0-0.1,0c0,0,0,0,0,0c0,0,0,0,0,0s0,0,0,0c0,0,0,0-0.1,0c0,0-0.1,0-0.1,0c0,0,0,0-0.1,0c-0.1,0-0.2,0-0.3,0
		c0,0-0.1,0-0.1,0c0,0-0.1,0-0.1,0l0,0l0,0c0,0,0,0,0,0l0,0c0,0,0,0,0,0c0,0,0,0,0,0c0,0,0,0,0,0c0,0,0,0,0,0l0,0c0,0,0,0,0,0
		c0,0,0,0-0.1,0c0,0,0,0-0.1,0l0,0c0,0,0,0,0,0c0,0,0,0,0,0c0,0,0,0-0.1,0c0,0,0,0,0,0c0,0,0,0-0.1,0c0,0,0,0,0,0c0,0,0,0,0,0
		c0,0,0,0,0,0l0,0c0,0,0,0,0,0c0,0,0,0-0.1,0c0,0,0,0,0,0c-0.1,0-0.1-0.1-0.2-0.1c0,0-0.1,0-0.1-0.1c0,0,0,0,0,0s0,0,0,0l0,0
		c0,0,0,0,0,0c0,0,0,0-0.1,0l0,0l0,0c0,0,0,0,0,0l0,0c0,0,0,0,0,0c0,0,0,0,0,0c0,0-0.1-0.1-0.1-0.1c0,0-0.1-0.1-0.1-0.1
		c-0.1-0.1-0.1-0.1-0.2-0.2c0,0,0-0.1-0.1-0.1c0,0,0,0,0,0c0,0,0,0-0.1-0.1c0,0,0-0.1-0.1-0.1c0,0,0,0,0,0c0,0,0-0.1-0.1-0.1
		c0,0,0,0,0-0.1c0,0,0,0,0,0c0,0,0,0,0-0.1c0,0,0,0,0-0.1c0,0,0,0,0-0.1c0,0,0-0.1,0-0.1c0,0,0-0.1,0-0.1l0,0l0,0c0,0,0,0,0,0
		c0,0,0-0.1,0-0.1l0,0c0,0,0-0.1,0-0.1C346,32,346,32,346,31.9z M346.5,98.5l-8.9,1.3c-1.7,0.2-3.1-0.9-3.4-2.5
		c-0.3-1.6,1-3.2,2.6-3.4l8.9-1.3c1.7-0.2,3.1,0.9,3.4,2.5C349.4,96.7,348.1,98.3,346.5,98.5z M379.3,87.9c-0.4,0.6-0.9,1.2-1.3,1.8
		c-1.9,2.5-3.8,5-5.6,7.6c-1.2,1.6-2.4,3.2-3.5,4.8c-1,1.3-2.9,1.6-4.3,0.6c-2.2-1.6-4.3-3.2-6.5-4.8c-1.4-1-1.5-2.9-0.6-4.3
		c0.9-1.4,3-1.6,4.3-0.6c1.3,1,2.7,2,4,3c1.7-2.3,3.4-4.6,5.1-6.9c1.2-1.6,2.4-3.2,3.5-4.8c1-1.4,2.9-1.5,4.3-0.6
		C380,84.6,380.2,86.6,379.3,87.9z M376.3,75.5C376.3,75.5,376.3,75.6,376.3,75.5c-1.7,0.3-3.4,0.5-5.1,0.8L335,81.6
		c-1.7,0.2-3.1-1-3.5-2.6c-0.3-1.6,1-3.2,2.6-3.5c0,0,0.1,0,0.1,0c1.7-0.3,3.4-0.5,5-0.7l36.3-5.3c1.7-0.2,3.1,0.9,3.4,2.6
		C379.2,73.7,377.9,75.3,376.3,75.5z M373.6,57.2C373.6,57.2,373.6,57.2,373.6,57.2c-1.7,0.3-3.4,0.5-5.1,0.7l-36.2,5.3
		c-1.7,0.2-3.1-0.9-3.4-2.6c-0.3-1.6,1-3.2,2.6-3.4c0,0,0,0,0.1,0c1.7-0.3,3.4-0.5,5-0.8l36.3-5.3c1.7-0.2,3.1,1,3.5,2.6
		C376.5,55.3,375.2,57,373.6,57.2z"/>
	<g>
		<path class="st4" d="M332.3,379.4v6.5h-24.5c0.3-2.5,1.1-4.8,2.4-7s3.9-5.1,7.9-8.7c3.2-2.9,5.1-4.9,5.8-6c1-1.4,1.4-2.9,1.4-4.3
			c0-1.6-0.4-2.8-1.3-3.6c-0.8-0.8-2-1.3-3.5-1.3c-1.5,0-2.6,0.4-3.5,1.3c-0.9,0.9-1.4,2.3-1.5,4.4l-7-0.7c0.4-3.8,1.7-6.6,3.9-8.3
			c2.2-1.7,4.9-2.5,8.2-2.5c3.6,0,6.4,1,8.5,2.9c2.1,1.9,3.1,4.4,3.1,7.2c0,1.6-0.3,3.2-0.9,4.7c-0.6,1.5-1.5,3-2.8,4.7
			c-0.8,1.1-2.4,2.6-4.6,4.7c-2.2,2-3.6,3.4-4.2,4c-0.6,0.7-1.1,1.3-1.4,1.9H332.3z"/>
		<path class="st4" d="M354.9,385.9h-7v-26.3c-2.6,2.4-5.6,4.2-9,5.3v-6.3c1.8-0.6,3.8-1.7,5.9-3.4c2.1-1.7,3.6-3.6,4.4-5.8h5.7
			V385.9z"/>
		<path class="st4" d="M288.3,404.7l1.9,0.2c-0.3,1.1-0.9,2-1.7,2.6s-1.9,0.9-3.2,0.9c-1.6,0-2.9-0.5-3.9-1.5c-1-1-1.4-2.4-1.4-4.2
			c0-1.9,0.5-3.3,1.4-4.3c1-1,2.2-1.5,3.7-1.5c1.5,0,2.7,0.5,3.6,1.5s1.4,2.4,1.4,4.3c0,0.1,0,0.3,0,0.5H282c0.1,1.2,0.4,2.2,1,2.8
			c0.6,0.6,1.4,1,2.3,1c0.7,0,1.3-0.2,1.8-0.5C287.6,406,288,405.4,288.3,404.7z M282.1,401.6h6.2c-0.1-0.9-0.3-1.6-0.7-2.1
			c-0.6-0.7-1.4-1.1-2.3-1.1c-0.9,0-1.6,0.3-2.2,0.9C282.5,399.9,282.2,400.6,282.1,401.6z"/>
		<path class="st4" d="M293.6,408.2v-11.1h1.7v1.6c0.3-0.5,0.8-1,1.4-1.3s1.2-0.5,2-0.5c0.8,0,1.5,0.2,2,0.5
			c0.5,0.3,0.9,0.8,1.1,1.4c0.9-1.3,2-1.9,3.4-1.9c1.1,0,1.9,0.3,2.5,0.9s0.9,1.5,0.9,2.8v7.6h-1.9v-7c0-0.8-0.1-1.3-0.2-1.6
			c-0.1-0.3-0.3-0.6-0.7-0.8s-0.7-0.3-1.1-0.3c-0.8,0-1.4,0.3-1.9,0.8c-0.5,0.5-0.8,1.3-0.8,2.5v6.4h-1.9V401c0-0.8-0.2-1.5-0.5-1.9
			s-0.8-0.6-1.5-0.6c-0.5,0-1,0.1-1.5,0.4c-0.4,0.3-0.8,0.7-1,1.2c-0.2,0.5-0.3,1.3-0.3,2.3v5.8H293.6z"/>
		<path class="st4" d="M312.3,412.5v-15.4h1.7v1.4c0.4-0.6,0.9-1,1.4-1.3c0.5-0.3,1.1-0.4,1.8-0.4c0.9,0,1.8,0.2,2.5,0.7
			c0.7,0.5,1.3,1.2,1.6,2.1c0.4,0.9,0.6,1.9,0.6,2.9c0,1.1-0.2,2.2-0.6,3.1c-0.4,0.9-1,1.6-1.8,2.1c-0.8,0.5-1.6,0.7-2.5,0.7
			c-0.6,0-1.2-0.1-1.7-0.4s-0.9-0.6-1.2-1v5.4H312.3z M314,402.7c0,1.4,0.3,2.5,0.9,3.2c0.6,0.7,1.3,1,2.1,1c0.8,0,1.6-0.4,2.1-1.1
			s0.9-1.8,0.9-3.3c0-1.4-0.3-2.5-0.9-3.2c-0.6-0.7-1.3-1.1-2.1-1.1c-0.8,0-1.5,0.4-2.1,1.1C314.4,400.2,314,401.3,314,402.7z"/>
		<path class="st4" d="M325.2,408.2v-15.3h1.9v15.3H325.2z"/>
		<path class="st4" d="M330.2,402.7c0-2.1,0.6-3.6,1.7-4.6c1-0.8,2.1-1.2,3.5-1.2c1.5,0,2.8,0.5,3.7,1.5s1.5,2.4,1.5,4.1
			c0,1.4-0.2,2.6-0.6,3.4c-0.4,0.8-1.1,1.5-1.9,1.9c-0.8,0.5-1.7,0.7-2.7,0.7c-1.6,0-2.8-0.5-3.8-1.5S330.2,404.6,330.2,402.7z
			 M332.2,402.7c0,1.4,0.3,2.5,0.9,3.2c0.6,0.7,1.4,1.1,2.3,1.1c0.9,0,1.7-0.4,2.3-1.1c0.6-0.7,0.9-1.8,0.9-3.2
			c0-1.4-0.3-2.4-0.9-3.1s-1.4-1.1-2.3-1.1c-0.9,0-1.7,0.4-2.3,1.1C332.5,400.2,332.2,401.3,332.2,402.7z"/>
		<path class="st4" d="M343.7,412.5l-0.2-1.8c0.4,0.1,0.8,0.2,1.1,0.2c0.4,0,0.8-0.1,1-0.2c0.3-0.1,0.5-0.3,0.6-0.6
			c0.1-0.2,0.3-0.7,0.6-1.4c0-0.1,0.1-0.3,0.2-0.5l-4.2-11.1h2l2.3,6.4c0.3,0.8,0.6,1.7,0.8,2.6c0.2-0.9,0.5-1.7,0.8-2.5l2.4-6.5
			h1.9l-4.2,11.3c-0.5,1.2-0.8,2.1-1.1,2.5c-0.3,0.6-0.7,1.1-1.1,1.4c-0.4,0.3-0.9,0.4-1.5,0.4C344.6,412.7,344.2,412.7,343.7,412.5
			z"/>
		<path class="st4" d="M363.1,404.7l1.9,0.2c-0.3,1.1-0.9,2-1.7,2.6s-1.9,0.9-3.2,0.9c-1.6,0-2.9-0.5-3.9-1.5c-1-1-1.4-2.4-1.4-4.2
			c0-1.9,0.5-3.3,1.4-4.3c1-1,2.2-1.5,3.7-1.5c1.5,0,2.7,0.5,3.6,1.5s1.4,2.4,1.4,4.3c0,0.1,0,0.3,0,0.5h-8.3c0.1,1.2,0.4,2.2,1,2.8
			s1.4,1,2.3,1c0.7,0,1.3-0.2,1.8-0.5C362.4,406,362.8,405.4,363.1,404.7z M356.9,401.6h6.2c-0.1-0.9-0.3-1.6-0.7-2.1
			c-0.6-0.7-1.4-1.1-2.3-1.1c-0.9,0-1.6,0.3-2.2,0.9S356.9,400.6,356.9,401.6z"/>
		<path class="st4" d="M375.9,404.7l1.9,0.2c-0.3,1.1-0.9,2-1.7,2.6s-1.9,0.9-3.2,0.9c-1.6,0-2.9-0.5-3.9-1.5c-1-1-1.4-2.4-1.4-4.2
			c0-1.9,0.5-3.3,1.4-4.3c1-1,2.2-1.5,3.7-1.5c1.5,0,2.7,0.5,3.6,1.5s1.4,2.4,1.4,4.3c0,0.1,0,0.3,0,0.5h-8.3c0.1,1.2,0.4,2.2,1,2.8
			c0.6,0.6,1.4,1,2.3,1c0.7,0,1.3-0.2,1.8-0.5C375.2,406,375.6,405.4,375.9,404.7z M369.7,401.6h6.2c-0.1-0.9-0.3-1.6-0.7-2.1
			c-0.6-0.7-1.4-1.1-2.3-1.1c-0.9,0-1.6,0.3-2.2,0.9C370.1,399.9,369.8,400.6,369.7,401.6z"/>
		<path class="st4" d="M380.4,404.9l1.9-0.3c0.1,0.7,0.4,1.3,0.9,1.7c0.5,0.4,1.1,0.6,2,0.6c0.9,0,1.5-0.2,1.9-0.5s0.6-0.8,0.6-1.2
			c0-0.4-0.2-0.8-0.6-1c-0.3-0.2-0.9-0.4-1.9-0.6c-1.4-0.3-2.3-0.6-2.9-0.9c-0.5-0.3-0.9-0.6-1.2-1.1c-0.3-0.5-0.4-0.9-0.4-1.5
			c0-0.5,0.1-1,0.3-1.4c0.2-0.4,0.5-0.8,0.9-1.1c0.3-0.2,0.7-0.4,1.2-0.5c0.5-0.1,1-0.2,1.6-0.2c0.9,0,1.6,0.1,2.3,0.4
			c0.7,0.2,1.1,0.6,1.5,1s0.5,1,0.6,1.7l-1.8,0.3c-0.1-0.6-0.3-1-0.7-1.3s-1-0.5-1.7-0.5c-0.9,0-1.5,0.1-1.8,0.4
			c-0.4,0.3-0.6,0.6-0.6,1c0,0.2,0.1,0.5,0.2,0.7c0.2,0.2,0.4,0.4,0.7,0.5c0.2,0.1,0.7,0.2,1.7,0.5c1.3,0.4,2.3,0.6,2.8,0.9
			c0.5,0.2,0.9,0.6,1.2,1c0.3,0.4,0.4,1,0.4,1.6c0,0.6-0.2,1.2-0.5,1.8c-0.4,0.6-0.9,1-1.6,1.3c-0.7,0.3-1.5,0.5-2.3,0.5
			c-1.4,0-2.5-0.3-3.3-0.9C381.1,407,380.6,406.1,380.4,404.9z"/>
		<path class="st4" d="M292.5,430.6v-11.1h1.7v1.7c0.4-0.8,0.8-1.3,1.2-1.6c0.4-0.3,0.8-0.4,1.2-0.4c0.6,0,1.3,0.2,1.9,0.6l-0.6,1.7
			c-0.5-0.3-0.9-0.4-1.4-0.4c-0.4,0-0.8,0.1-1.1,0.4c-0.3,0.2-0.6,0.6-0.7,1c-0.2,0.7-0.3,1.4-0.3,2.2v5.8H292.5z"/>
		<path class="st4" d="M308.2,427l1.9,0.2c-0.3,1.1-0.9,2-1.7,2.6s-1.9,0.9-3.2,0.9c-1.6,0-2.9-0.5-3.9-1.5c-1-1-1.4-2.4-1.4-4.2
			c0-1.9,0.5-3.3,1.4-4.3c1-1,2.2-1.5,3.7-1.5c1.5,0,2.7,0.5,3.6,1.5s1.4,2.4,1.4,4.3c0,0.1,0,0.3,0,0.5h-8.3c0.1,1.2,0.4,2.2,1,2.8
			c0.6,0.6,1.4,1,2.3,1c0.7,0,1.3-0.2,1.8-0.5S307.9,427.8,308.2,427z M302,423.9h6.2c-0.1-0.9-0.3-1.6-0.7-2.1
			c-0.6-0.7-1.4-1.1-2.3-1.1c-0.9,0-1.6,0.3-2.2,0.9C302.4,422.2,302,423,302,423.9z"/>
		<path class="st4" d="M320.7,426.5l1.8,0.2c-0.2,1.3-0.7,2.3-1.6,3c-0.8,0.7-1.9,1.1-3.1,1.1c-1.5,0-2.7-0.5-3.7-1.5
			s-1.4-2.4-1.4-4.3c0-1.2,0.2-2.2,0.6-3.1s1-1.6,1.8-2c0.8-0.5,1.7-0.7,2.6-0.7c1.2,0,2.2,0.3,3,0.9c0.8,0.6,1.3,1.5,1.5,2.6
			l-1.8,0.3c-0.2-0.7-0.5-1.3-0.9-1.7c-0.4-0.4-1-0.6-1.6-0.6c-0.9,0-1.7,0.3-2.3,1c-0.6,0.7-0.9,1.8-0.9,3.2c0,1.5,0.3,2.6,0.9,3.2
			s1.3,1,2.2,1c0.7,0,1.4-0.2,1.8-0.7C320.2,428.1,320.5,427.4,320.7,426.5z"/>
		<path class="st4" d="M332.7,427l1.9,0.2c-0.3,1.1-0.9,2-1.7,2.6s-1.9,0.9-3.2,0.9c-1.6,0-2.9-0.5-3.9-1.5c-1-1-1.4-2.4-1.4-4.2
			c0-1.9,0.5-3.3,1.4-4.3c1-1,2.2-1.5,3.7-1.5c1.5,0,2.7,0.5,3.6,1.5s1.4,2.4,1.4,4.3c0,0.1,0,0.3,0,0.5h-8.3c0.1,1.2,0.4,2.2,1,2.8
			s1.4,1,2.3,1c0.7,0,1.3-0.2,1.8-0.5C332,428.4,332.4,427.8,332.7,427z M326.5,423.9h6.2c-0.1-0.9-0.3-1.6-0.7-2.1
			c-0.6-0.7-1.4-1.1-2.3-1.1c-0.9,0-1.6,0.3-2.2,0.9S326.6,423,326.5,423.9z"/>
		<path class="st4" d="M338,417.4v-2.2h1.9v2.2H338z M338,430.6v-11.1h1.9v11.1H338z"/>
		<path class="st4" d="M346.8,430.6l-4.2-11.1h2l2.4,6.6c0.3,0.7,0.5,1.5,0.7,2.2c0.2-0.6,0.4-1.3,0.7-2.1l2.5-6.8h1.9l-4.2,11.1
			H346.8z"/>
		<path class="st4" d="M362.9,427l1.9,0.2c-0.3,1.1-0.9,2-1.7,2.6c-0.8,0.6-1.9,0.9-3.2,0.9c-1.6,0-2.9-0.5-3.9-1.5
			c-1-1-1.4-2.4-1.4-4.2c0-1.9,0.5-3.3,1.4-4.3s2.2-1.5,3.7-1.5c1.5,0,2.7,0.5,3.6,1.5c0.9,1,1.4,2.4,1.4,4.3c0,0.1,0,0.3,0,0.5
			h-8.3c0.1,1.2,0.4,2.2,1,2.8s1.4,1,2.3,1c0.7,0,1.3-0.2,1.8-0.5C362.3,428.4,362.6,427.8,362.9,427z M356.8,423.9h6.2
			c-0.1-0.9-0.3-1.6-0.7-2.1c-0.6-0.7-1.4-1.1-2.3-1.1c-0.9,0-1.6,0.3-2.2,0.9S356.8,423,356.8,423.9z"/>
		<path class="st4" d="M375.4,430.6v-1.4c-0.7,1.1-1.7,1.7-3.1,1.7c-0.9,0-1.7-0.2-2.4-0.7s-1.3-1.2-1.7-2c-0.4-0.9-0.6-1.9-0.6-3
			c0-1.1,0.2-2.1,0.6-3c0.4-0.9,0.9-1.6,1.7-2.1c0.7-0.5,1.6-0.7,2.5-0.7c0.7,0,1.3,0.1,1.8,0.4s0.9,0.6,1.3,1.1v-5.5h1.9v15.3
			H375.4z M369.5,425c0,1.4,0.3,2.5,0.9,3.2c0.6,0.7,1.3,1.1,2.1,1.1c0.8,0,1.5-0.3,2.1-1c0.6-0.7,0.9-1.7,0.9-3.1
			c0-1.5-0.3-2.6-0.9-3.3c-0.6-0.7-1.3-1.1-2.2-1.1c-0.8,0-1.5,0.3-2.1,1C369.7,422.5,369.5,423.6,369.5,425z"/>
		<path class="st4" d="M297.3,448.8l1.8,0.2c-0.2,1.3-0.7,2.3-1.6,3c-0.8,0.7-1.9,1.1-3.1,1.1c-1.5,0-2.7-0.5-3.7-1.5
			c-0.9-1-1.4-2.4-1.4-4.3c0-1.2,0.2-2.2,0.6-3.1c0.4-0.9,1-1.6,1.8-2c0.8-0.5,1.7-0.7,2.6-0.7c1.2,0,2.2,0.3,3,0.9s1.3,1.5,1.5,2.6
			l-1.8,0.3c-0.2-0.7-0.5-1.3-0.9-1.7s-1-0.6-1.6-0.6c-0.9,0-1.7,0.3-2.3,1c-0.6,0.7-0.9,1.8-0.9,3.2c0,1.5,0.3,2.6,0.9,3.2
			s1.3,1,2.2,1c0.7,0,1.4-0.2,1.8-0.7C296.9,450.5,297.2,449.8,297.3,448.8z"/>
		<path class="st4" d="M301,447.3c0-2.1,0.6-3.6,1.7-4.6c1-0.8,2.1-1.2,3.5-1.2c1.5,0,2.8,0.5,3.7,1.5c1,1,1.5,2.4,1.5,4.1
			c0,1.4-0.2,2.6-0.6,3.4c-0.4,0.8-1.1,1.5-1.9,1.9c-0.8,0.5-1.7,0.7-2.7,0.7c-1.6,0-2.8-0.5-3.8-1.5
			C301.5,450.7,301,449.2,301,447.3z M303,447.3c0,1.4,0.3,2.5,0.9,3.2s1.4,1.1,2.3,1.1c0.9,0,1.7-0.4,2.3-1.1
			c0.6-0.7,0.9-1.8,0.9-3.2c0-1.4-0.3-2.4-0.9-3.1c-0.6-0.7-1.4-1.1-2.3-1.1c-0.9,0-1.7,0.4-2.3,1.1
			C303.3,444.9,303,445.9,303,447.3z"/>
		<path class="st4" d="M321.9,451.5c-0.7,0.6-1.4,1-2,1.3c-0.6,0.2-1.3,0.4-2.1,0.4c-1.2,0-2.2-0.3-2.8-0.9c-0.7-0.6-1-1.4-1-2.3
			c0-0.5,0.1-1,0.4-1.5s0.6-0.8,1-1.1c0.4-0.3,0.9-0.5,1.4-0.6c0.4-0.1,0.9-0.2,1.7-0.3c1.5-0.2,2.6-0.4,3.4-0.6c0-0.3,0-0.4,0-0.5
			c0-0.8-0.2-1.3-0.5-1.6c-0.5-0.4-1.2-0.6-2.1-0.6c-0.9,0-1.5,0.2-2,0.5c-0.4,0.3-0.7,0.9-0.9,1.6l-1.8-0.3
			c0.2-0.8,0.4-1.4,0.8-1.9c0.4-0.5,0.9-0.9,1.7-1.1c0.7-0.3,1.6-0.4,2.5-0.4c0.9,0,1.7,0.1,2.3,0.3s1,0.5,1.3,0.8
			c0.3,0.3,0.5,0.8,0.6,1.3c0.1,0.3,0.1,0.9,0.1,1.7v2.5c0,1.7,0,2.9,0.1,3.3c0.1,0.5,0.2,0.9,0.5,1.3h-2
			C322,452.5,321.9,452,321.9,451.5z M321.7,447.3c-0.7,0.3-1.7,0.5-3.1,0.7c-0.8,0.1-1.3,0.2-1.6,0.4c-0.3,0.1-0.6,0.3-0.7,0.6
			c-0.2,0.3-0.3,0.6-0.3,0.9c0,0.5,0.2,0.9,0.6,1.3c0.4,0.3,0.9,0.5,1.7,0.5c0.7,0,1.4-0.2,1.9-0.5c0.6-0.3,1-0.8,1.2-1.3
			c0.2-0.4,0.3-1.1,0.3-1.9V447.3z"/>
		<path class="st4" d="M334.7,448.8l1.8,0.2c-0.2,1.3-0.7,2.3-1.6,3c-0.8,0.7-1.9,1.1-3.1,1.1c-1.5,0-2.7-0.5-3.7-1.5
			s-1.4-2.4-1.4-4.3c0-1.2,0.2-2.2,0.6-3.1s1-1.6,1.8-2c0.8-0.5,1.7-0.7,2.6-0.7c1.2,0,2.2,0.3,3,0.9c0.8,0.6,1.3,1.5,1.5,2.6
			l-1.8,0.3c-0.2-0.7-0.5-1.3-0.9-1.7c-0.4-0.4-1-0.6-1.6-0.6c-0.9,0-1.7,0.3-2.3,1c-0.6,0.7-0.9,1.8-0.9,3.2c0,1.5,0.3,2.6,0.9,3.2
			s1.3,1,2.2,1c0.7,0,1.4-0.2,1.8-0.7C334.3,450.5,334.6,449.8,334.7,448.8z"/>
		<path class="st4" d="M339.1,452.9v-15.3h1.9v5.5c0.9-1,2-1.5,3.3-1.5c0.8,0,1.5,0.2,2.1,0.5c0.6,0.3,1,0.8,1.3,1.3
			c0.3,0.6,0.4,1.4,0.4,2.5v7h-1.9v-7c0-0.9-0.2-1.6-0.6-2.1s-1-0.6-1.7-0.6c-0.6,0-1.1,0.1-1.6,0.4c-0.5,0.3-0.8,0.7-1.1,1.2
			c-0.2,0.5-0.3,1.2-0.3,2v6.1H339.1z"/>
		<path class="st4" d="M352,439.7v-2.2h1.9v2.2H352z M352,452.9v-11.1h1.9v11.1H352z"/>
		<path class="st4" d="M357.7,452.9v-11.1h1.7v1.6c0.8-1.2,2-1.8,3.5-1.8c0.7,0,1.3,0.1,1.8,0.4c0.6,0.2,1,0.6,1.3,0.9
			c0.3,0.4,0.5,0.9,0.6,1.4c0.1,0.3,0.1,1,0.1,1.8v6.8h-1.9v-6.8c0-0.8-0.1-1.3-0.2-1.7c-0.1-0.4-0.4-0.7-0.8-0.9
			c-0.4-0.2-0.8-0.3-1.3-0.3c-0.8,0-1.5,0.3-2.1,0.8c-0.6,0.5-0.9,1.5-0.9,2.9v6.1H357.7z"/>
		<path class="st4" d="M370.2,453.8l1.8,0.3c0.1,0.6,0.3,1,0.6,1.2c0.5,0.3,1.1,0.5,1.9,0.5c0.9,0,1.5-0.2,2-0.5
			c0.5-0.3,0.8-0.8,1-1.5c0.1-0.4,0.1-1.2,0.1-2.4c-0.8,1-1.8,1.5-3.1,1.5c-1.5,0-2.7-0.5-3.5-1.7c-0.8-1.1-1.3-2.4-1.3-4
			c0-1.1,0.2-2,0.6-2.9c0.4-0.9,0.9-1.6,1.7-2.1c0.7-0.5,1.6-0.7,2.6-0.7c1.3,0,2.4,0.5,3.2,1.6v-1.3h1.7v9.6c0,1.7-0.2,3-0.5,3.7
			c-0.4,0.7-0.9,1.3-1.7,1.7c-0.8,0.4-1.7,0.6-2.8,0.6c-1.3,0-2.4-0.3-3.2-0.9C370.6,455.9,370.2,455,370.2,453.8z M371.8,447.1
			c0,1.5,0.3,2.5,0.9,3.2c0.6,0.7,1.3,1,2.2,1c0.9,0,1.6-0.3,2.2-1c0.6-0.7,0.9-1.7,0.9-3.1c0-1.4-0.3-2.4-0.9-3.1s-1.3-1-2.2-1
			c-0.8,0-1.5,0.3-2.1,1S371.8,445.8,371.8,447.1z"/>
	</g>
	<g>
		<path class="st4" d="M35.3,367.9h-1.8v-11.2c-0.4,0.4-1,0.8-1.7,1.2c-0.7,0.4-1.3,0.7-1.9,0.9v-1.7c1-0.5,1.8-1,2.6-1.7
			c0.7-0.7,1.3-1.3,1.6-1.9h1.1V367.9z"/>
		<path class="st4" d="M49.8,357.1l-1.7,0.1c-0.2-0.7-0.4-1.2-0.7-1.5c-0.5-0.5-1.1-0.8-1.8-0.8c-0.6,0-1.1,0.2-1.5,0.5
			c-0.6,0.4-1,1-1.3,1.8c-0.3,0.8-0.5,1.9-0.5,3.3c0.4-0.6,0.9-1.1,1.6-1.4s1.3-0.5,1.9-0.5c1.2,0,2.2,0.4,3,1.3s1.2,2,1.2,3.3
			c0,0.9-0.2,1.7-0.6,2.5s-0.9,1.4-1.6,1.8s-1.4,0.6-2.3,0.6c-1.5,0-2.7-0.5-3.6-1.6s-1.4-2.9-1.4-5.3c0-2.8,0.5-4.8,1.5-6
			c0.9-1.1,2.1-1.6,3.6-1.6c1.1,0,2,0.3,2.8,0.9C49.2,355.1,49.6,356,49.8,357.1z M42.6,363.3c0,0.6,0.1,1.2,0.4,1.7s0.6,1,1.1,1.3
			s0.9,0.4,1.5,0.4c0.7,0,1.4-0.3,1.9-0.9s0.8-1.4,0.8-2.4c0-1-0.3-1.8-0.8-2.3s-1.2-0.9-2-0.9c-0.8,0-1.5,0.3-2,0.9
			S42.6,362.4,42.6,363.3z"/>
		<path class="st4" d="M59.6,367.9v-10.4h1.6v1.6c0.4-0.7,0.8-1.2,1.1-1.5s0.7-0.4,1.1-0.4c0.6,0,1.2,0.2,1.8,0.6l-0.6,1.6
			c-0.4-0.3-0.9-0.4-1.3-0.4c-0.4,0-0.7,0.1-1,0.3c-0.3,0.2-0.5,0.6-0.7,1c-0.2,0.6-0.3,1.3-0.3,2.1v5.4H59.6z"/>
		<path class="st4" d="M74.3,364.6l1.8,0.2c-0.3,1.1-0.8,1.9-1.6,2.5s-1.8,0.9-3,0.9c-1.5,0-2.7-0.5-3.6-1.4s-1.3-2.2-1.3-3.9
			c0-1.7,0.4-3.1,1.3-4.1c0.9-1,2.1-1.4,3.5-1.4c1.4,0,2.5,0.5,3.4,1.4c0.9,0.9,1.3,2.3,1.3,4c0,0.1,0,0.3,0,0.5h-7.7
			c0.1,1.1,0.4,2,1,2.6s1.3,0.9,2.2,0.9c0.6,0,1.2-0.2,1.7-0.5S74,365.3,74.3,364.6z M68.5,361.7h5.8c-0.1-0.9-0.3-1.5-0.7-2
			c-0.6-0.7-1.3-1-2.2-1c-0.8,0-1.5,0.3-2,0.8C68.9,360.1,68.6,360.8,68.5,361.7z"/>
		<path class="st4" d="M79.2,371.9v-14.3h1.6v1.3c0.4-0.5,0.8-0.9,1.3-1.2s1.1-0.4,1.7-0.4c0.9,0,1.7,0.2,2.3,0.7
			c0.7,0.5,1.2,1.1,1.5,1.9s0.5,1.7,0.5,2.7c0,1.1-0.2,2-0.6,2.9s-0.9,1.5-1.7,2s-1.5,0.7-2.3,0.7c-0.6,0-1.1-0.1-1.6-0.4
			s-0.8-0.6-1.1-0.9v5H79.2z M80.8,362.8c0,1.3,0.3,2.3,0.8,3s1.2,1,2,1c0.8,0,1.5-0.3,2-1s0.8-1.7,0.8-3.1c0-1.3-0.3-2.3-0.8-3
			c-0.5-0.7-1.2-1-1.9-1c-0.7,0-1.4,0.4-2,1C81.1,360.4,80.8,361.5,80.8,362.8z"/>
		<path class="st4" d="M90.6,362.7c0-1.9,0.5-3.3,1.6-4.3c0.9-0.8,2-1.2,3.3-1.2c1.4,0,2.6,0.5,3.5,1.4c0.9,0.9,1.4,2.2,1.4,3.9
			c0,1.3-0.2,2.4-0.6,3.1s-1,1.4-1.7,1.8s-1.6,0.6-2.5,0.6c-1.5,0-2.6-0.5-3.5-1.4S90.6,364.5,90.6,362.7z M92.4,362.7
			c0,1.3,0.3,2.3,0.9,3s1.3,1,2.2,1c0.9,0,1.6-0.3,2.2-1s0.9-1.7,0.9-3c0-1.3-0.3-2.3-0.9-2.9c-0.6-0.7-1.3-1-2.2-1
			c-0.9,0-1.6,0.3-2.2,1C92.7,360.4,92.4,361.4,92.4,362.7z"/>
		<path class="st4" d="M103.2,367.9v-10.4h1.6v1.6c0.4-0.7,0.8-1.2,1.1-1.5s0.7-0.4,1.1-0.4c0.6,0,1.2,0.2,1.8,0.6l-0.6,1.6
			c-0.4-0.3-0.9-0.4-1.3-0.4c-0.4,0-0.7,0.1-1,0.3c-0.3,0.2-0.5,0.6-0.7,1c-0.2,0.6-0.3,1.3-0.3,2.1v5.4H103.2z"/>
		<path class="st4" d="M114.7,366.4l0.3,1.6c-0.5,0.1-0.9,0.2-1.3,0.2c-0.6,0-1.1-0.1-1.5-0.3s-0.6-0.5-0.7-0.8s-0.2-1-0.2-2.1v-6
			h-1.3v-1.4h1.3V355l1.7-1.1v3.6h1.8v1.4h-1.8v6.1c0,0.5,0,0.8,0.1,1s0.2,0.3,0.3,0.3s0.3,0.1,0.6,0.1
			C114.1,366.4,114.3,366.4,114.7,366.4z"/>
		<path class="st4" d="M116.6,364.8l1.7-0.3c0.1,0.7,0.4,1.2,0.8,1.6s1.1,0.6,1.9,0.6c0.8,0,1.4-0.2,1.8-0.5s0.6-0.7,0.6-1.2
			c0-0.4-0.2-0.7-0.5-0.9c-0.2-0.2-0.8-0.4-1.8-0.6c-1.3-0.3-2.2-0.6-2.7-0.8s-0.9-0.6-1.1-1s-0.4-0.9-0.4-1.4
			c0-0.5,0.1-0.9,0.3-1.3c0.2-0.4,0.5-0.7,0.9-1c0.3-0.2,0.6-0.4,1.1-0.5c0.5-0.1,1-0.2,1.5-0.2c0.8,0,1.5,0.1,2.1,0.4
			s1.1,0.6,1.4,1s0.5,0.9,0.6,1.6l-1.7,0.2c-0.1-0.5-0.3-1-0.7-1.2c-0.4-0.3-0.9-0.4-1.6-0.4c-0.8,0-1.4,0.1-1.7,0.4
			c-0.3,0.3-0.5,0.6-0.5,0.9c0,0.2,0.1,0.4,0.2,0.6c0.1,0.2,0.4,0.3,0.7,0.5c0.2,0.1,0.7,0.2,1.6,0.4c1.2,0.3,2.1,0.6,2.6,0.8
			s0.9,0.5,1.2,0.9s0.4,0.9,0.4,1.5c0,0.6-0.2,1.1-0.5,1.7s-0.8,0.9-1.5,1.2s-1.4,0.4-2.2,0.4c-1.3,0-2.4-0.3-3.1-0.8
			S116.8,365.9,116.6,364.8z"/>
		<path class="st4" d="M134.6,367.9v-14.3h1.8v14.3H134.6z"/>
		<path class="st4" d="M147.1,364.6l1.8,0.2c-0.3,1.1-0.8,1.9-1.6,2.5s-1.8,0.9-3,0.9c-1.5,0-2.7-0.5-3.6-1.4s-1.3-2.2-1.3-3.9
			c0-1.7,0.4-3.1,1.3-4.1c0.9-1,2.1-1.4,3.5-1.4c1.4,0,2.5,0.5,3.4,1.4c0.9,0.9,1.3,2.3,1.3,4c0,0.1,0,0.3,0,0.5h-7.7
			c0.1,1.1,0.4,2,1,2.6s1.3,0.9,2.2,0.9c0.6,0,1.2-0.2,1.7-0.5S146.8,365.3,147.1,364.6z M141.3,361.7h5.8c-0.1-0.9-0.3-1.5-0.7-2
			c-0.6-0.7-1.3-1-2.2-1c-0.8,0-1.5,0.3-2,0.8C141.7,360.1,141.4,360.8,141.3,361.7z"/>
		<path class="st4" d="M158.7,367.9v-1.3c-0.7,1-1.6,1.5-2.9,1.5c-0.8,0-1.6-0.2-2.3-0.7s-1.2-1.1-1.6-1.9s-0.6-1.8-0.6-2.8
			c0-1,0.2-2,0.5-2.8s0.9-1.5,1.6-1.9s1.5-0.7,2.3-0.7c0.6,0,1.2,0.1,1.7,0.4s0.9,0.6,1.2,1v-5.1h1.7v14.3H158.7z M153.2,362.7
			c0,1.3,0.3,2.3,0.8,3s1.2,1,2,1c0.8,0,1.4-0.3,2-0.9s0.8-1.6,0.8-2.9c0-1.4-0.3-2.5-0.8-3.1s-1.2-1-2-1c-0.8,0-1.4,0.3-2,1
			C153.4,360.4,153.2,361.4,153.2,362.7z"/>
		<path class="st4" d="M174.3,366.4l0.3,1.6c-0.5,0.1-0.9,0.2-1.3,0.2c-0.6,0-1.1-0.1-1.5-0.3s-0.6-0.5-0.7-0.8s-0.2-1-0.2-2.1v-6
			h-1.3v-1.4h1.3V355l1.7-1.1v3.6h1.8v1.4h-1.8v6.1c0,0.5,0,0.8,0.1,1s0.2,0.3,0.3,0.3s0.3,0.1,0.6,0.1
			C173.7,366.4,174,366.4,174.3,366.4z"/>
		<path class="st4" d="M176.3,362.7c0-1.9,0.5-3.3,1.6-4.3c0.9-0.8,2-1.2,3.3-1.2c1.4,0,2.6,0.5,3.5,1.4c0.9,0.9,1.4,2.2,1.4,3.9
			c0,1.3-0.2,2.4-0.6,3.1s-1,1.4-1.7,1.8s-1.6,0.6-2.5,0.6c-1.5,0-2.6-0.5-3.5-1.4S176.3,364.5,176.3,362.7z M178.1,362.7
			c0,1.3,0.3,2.3,0.9,3s1.3,1,2.2,1c0.9,0,1.6-0.3,2.2-1s0.9-1.7,0.9-3c0-1.3-0.3-2.3-0.9-2.9c-0.6-0.7-1.3-1-2.2-1
			c-0.9,0-1.6,0.3-2.2,1C178.4,360.4,178.1,361.4,178.1,362.7z"/>
		<path class="st4" d="M199.2,366.4l0.3,1.6c-0.5,0.1-0.9,0.2-1.3,0.2c-0.6,0-1.1-0.1-1.5-0.3s-0.6-0.5-0.7-0.8s-0.2-1-0.2-2.1v-6
			h-1.3v-1.4h1.3V355l1.7-1.1v3.6h1.8v1.4h-1.8v6.1c0,0.5,0,0.8,0.1,1s0.2,0.3,0.3,0.3s0.3,0.1,0.6,0.1
			C198.7,366.4,198.9,366.4,199.2,366.4z"/>
		<path class="st4" d="M201.9,367.9v-14.3h1.8v5.1c0.8-1,1.9-1.4,3.1-1.4c0.8,0,1.4,0.2,2,0.5s1,0.7,1.2,1.3
			c0.2,0.5,0.4,1.3,0.4,2.3v6.6h-1.8v-6.6c0-0.9-0.2-1.5-0.6-1.9s-0.9-0.6-1.6-0.6c-0.5,0-1,0.1-1.5,0.4c-0.5,0.3-0.8,0.6-1,1.1
			c-0.2,0.5-0.3,1.1-0.3,1.9v5.7H201.9z"/>
		<path class="st4" d="M221,364.6l1.8,0.2c-0.3,1.1-0.8,1.9-1.6,2.5c-0.8,0.6-1.8,0.9-3,0.9c-1.5,0-2.7-0.5-3.6-1.4
			s-1.3-2.2-1.3-3.9c0-1.7,0.4-3.1,1.3-4.1c0.9-1,2.1-1.4,3.5-1.4c1.4,0,2.5,0.5,3.4,1.4c0.9,0.9,1.3,2.3,1.3,4c0,0.1,0,0.3,0,0.5
			h-7.7c0.1,1.1,0.4,2,1,2.6c0.6,0.6,1.3,0.9,2.2,0.9c0.6,0,1.2-0.2,1.7-0.5C220.4,365.9,220.7,365.3,221,364.6z M215.2,361.7h5.8
			c-0.1-0.9-0.3-1.5-0.7-2c-0.6-0.7-1.3-1-2.2-1c-0.8,0-1.5,0.3-2,0.8C215.6,360.1,215.3,360.8,215.2,361.7z"/>
	</g>
	<g>
		<path class="st4" d="M56.2,402.9v-3c-0.7,1.1-1.7,1.9-2.8,2.5c-1.2,0.6-2.4,0.9-3.7,0.9c-1.3,0-2.5-0.3-3.6-0.9
			c-1.1-0.6-1.8-1.4-2.3-2.5c-0.5-1.1-0.7-2.5-0.7-4.4v-12.5h5.2v9.1c0,2.8,0.1,4.5,0.3,5.1c0.2,0.6,0.5,1.1,1.1,1.5
			c0.5,0.4,1.2,0.5,1.9,0.5c0.9,0,1.7-0.2,2.4-0.7s1.2-1.1,1.5-1.8c0.3-0.7,0.4-2.5,0.4-5.3v-8.3H61v19.8H56.2z"/>
		<path class="st4" d="M66.3,383.1h4.9v2.9c0.6-1,1.5-1.8,2.6-2.4c1.1-0.6,2.3-0.9,3.6-0.9c2.3,0,4.2,0.9,5.8,2.7s2.4,4.3,2.4,7.5
			c0,3.3-0.8,5.9-2.4,7.7c-1.6,1.8-3.6,2.7-5.9,2.7c-1.1,0-2.1-0.2-3-0.7s-1.8-1.2-2.8-2.2v10h-5.2V383.1z M71.5,392.7
			c0,2.2,0.4,3.9,1.3,4.9c0.9,1.1,2,1.6,3.2,1.6c1.2,0,2.2-0.5,3-1.5s1.2-2.6,1.2-4.8c0-2.1-0.4-3.6-1.2-4.6c-0.8-1-1.9-1.5-3.1-1.5
			c-1.3,0-2.3,0.5-3.2,1.5S71.5,390.7,71.5,392.7z"/>
		<path class="st4" d="M107.9,402.9H103V400c-0.8,1.1-1.8,2-2.9,2.5c-1.1,0.6-2.2,0.8-3.3,0.8c-2.3,0-4.2-0.9-5.8-2.7
			s-2.4-4.4-2.4-7.7c0-3.4,0.8-5.9,2.4-7.6s3.6-2.6,6-2.6c2.2,0,4.1,0.9,5.7,2.8v-9.8h5.2V402.9z M93.9,392.6c0,2.1,0.3,3.6,0.9,4.6
			c0.8,1.4,2,2,3.5,2c1.2,0,2.2-0.5,3.1-1.5s1.3-2.6,1.3-4.6c0-2.3-0.4-3.9-1.2-4.9c-0.8-1-1.9-1.5-3.1-1.5c-1.2,0-2.3,0.5-3.1,1.5
			C94.3,389.1,93.9,390.6,93.9,392.6z"/>
		<path class="st4" d="M116.9,389.1l-4.7-0.9c0.5-1.9,1.5-3.3,2.8-4.2c1.3-0.9,3.2-1.4,5.8-1.4c2.3,0,4.1,0.3,5.2,0.8
			c1.1,0.6,1.9,1.3,2.4,2.1c0.5,0.9,0.7,2.4,0.7,4.7l-0.1,6.1c0,1.7,0.1,3,0.3,3.8c0.2,0.8,0.5,1.7,0.9,2.7H125
			c-0.1-0.3-0.3-0.9-0.5-1.5c-0.1-0.3-0.1-0.5-0.2-0.6c-0.9,0.9-1.9,1.5-2.9,2s-2.1,0.7-3.3,0.7c-2,0-3.6-0.6-4.8-1.7
			c-1.2-1.1-1.8-2.5-1.8-4.2c0-1.1,0.3-2.1,0.8-3c0.5-0.9,1.3-1.5,2.2-2c1-0.5,2.3-0.9,4.2-1.2c2.4-0.5,4.1-0.9,5.1-1.3v-0.5
			c0-1-0.2-1.7-0.7-2.2c-0.5-0.4-1.4-0.6-2.8-0.6c-0.9,0-1.7,0.2-2.2,0.5S117.3,388.2,116.9,389.1z M123.9,393.4
			c-0.7,0.2-1.7,0.5-3.2,0.8s-2.4,0.6-2.8,0.9c-0.7,0.5-1,1.1-1,1.8c0,0.7,0.3,1.4,0.8,1.9s1.2,0.8,2.1,0.8c0.9,0,1.8-0.3,2.7-0.9
			c0.6-0.5,1-1,1.2-1.7c0.1-0.4,0.2-1.3,0.2-2.6V393.4z"/>
		<path class="st4" d="M143.3,383.1v4.2h-3.6v8c0,1.6,0,2.6,0.1,2.8c0.1,0.3,0.2,0.5,0.5,0.7c0.2,0.2,0.5,0.3,0.9,0.3
			c0.5,0,1.2-0.2,2.1-0.5l0.4,4.1c-1.2,0.5-2.6,0.8-4.1,0.8c-0.9,0-1.8-0.2-2.6-0.5c-0.8-0.3-1.3-0.7-1.7-1.2s-0.6-1.2-0.7-2
			c-0.1-0.6-0.2-1.8-0.2-3.7v-8.6h-2.4v-4.2h2.4v-3.9l5.3-3.1v7H143.3z"/>
		<path class="st4" d="M158.4,396.6l5.2,0.9c-0.7,1.9-1.7,3.4-3.2,4.4c-1.4,1-3.3,1.5-5.4,1.5c-3.4,0-6-1.1-7.6-3.4
			c-1.3-1.8-2-4.1-2-6.8c0-3.3,0.9-5.8,2.6-7.7c1.7-1.9,3.9-2.8,6.5-2.8c2.9,0,5.3,1,7,2.9c1.7,1.9,2.5,4.9,2.4,8.9h-13.1
			c0,1.6,0.5,2.8,1.3,3.6s1.8,1.3,3,1.3c0.8,0,1.5-0.2,2.1-0.7C157.7,398.3,158.1,397.6,158.4,396.6z M158.7,391.3
			c0-1.5-0.4-2.7-1.2-3.5c-0.7-0.8-1.7-1.2-2.7-1.2c-1.1,0-2.1,0.4-2.8,1.2c-0.7,0.8-1.1,2-1.1,3.4H158.7z"/>
		<path class="st4" d="M177.5,392.7c0-1.7,0.4-3.4,1.3-5c0.9-1.6,2.1-2.9,3.6-3.7c1.6-0.9,3.3-1.3,5.3-1.3c3,0,5.4,1,7.4,2.9
			c1.9,1.9,2.9,4.4,2.9,7.4c0,3-1,5.5-2.9,7.4c-1.9,2-4.4,3-7.3,3c-1.8,0-3.5-0.4-5.2-1.2s-2.9-2-3.8-3.6S177.5,395,177.5,392.7z
			 M182.9,393c0,2,0.5,3.5,1.4,4.5s2.1,1.6,3.4,1.6s2.5-0.5,3.4-1.6s1.4-2.6,1.4-4.5c0-1.9-0.5-3.4-1.4-4.5s-2.1-1.6-3.4-1.6
			s-2.5,0.5-3.4,1.6S182.9,391,182.9,393z"/>
		<path class="st4" d="M199.7,383.1h2.9v-1.5c0-1.7,0.2-2.9,0.5-3.7s1-1.5,2-2c1-0.5,2.2-0.8,3.6-0.8c1.5,0,2.9,0.2,4.4,0.7
			l-0.7,3.7c-0.8-0.2-1.6-0.3-2.4-0.3c-0.8,0-1.3,0.2-1.6,0.5s-0.5,1-0.5,2v1.4h3.9v4.1h-3.9v15.7h-5.2v-15.7h-2.9V383.1z"/>
		<path class="st4" d="M24.9,421.1h4.9v2.9c0.6-1,1.5-1.8,2.6-2.4c1.1-0.6,2.3-0.9,3.6-0.9c2.3,0,4.2,0.9,5.8,2.7s2.4,4.3,2.4,7.5
			c0,3.3-0.8,5.9-2.4,7.7c-1.6,1.8-3.6,2.7-5.9,2.7c-1.1,0-2.1-0.2-3-0.7s-1.8-1.2-2.8-2.2v10h-5.2V421.1z M30.1,430.7
			c0,2.2,0.4,3.9,1.3,4.9c0.9,1.1,2,1.6,3.2,1.6c1.2,0,2.2-0.5,3-1.5s1.2-2.6,1.2-4.8c0-2.1-0.4-3.6-1.2-4.6c-0.8-1-1.9-1.5-3.1-1.5
			c-1.3,0-2.3,0.5-3.2,1.5S30.1,428.7,30.1,430.7z"/>
		<path class="st4" d="M53.4,440.9h-5.2v-19.8H53v2.8c0.8-1.3,1.6-2.2,2.2-2.6c0.7-0.4,1.4-0.6,2.3-0.6c1.2,0,2.3,0.3,3.4,1
			l-1.6,4.6c-0.9-0.6-1.7-0.9-2.5-0.9c-0.7,0-1.4,0.2-1.9,0.6c-0.5,0.4-0.9,1.1-1.2,2.2c-0.3,1.1-0.4,3.3-0.4,6.6V440.9z"/>
		<path class="st4" d="M62,430.7c0-1.7,0.4-3.4,1.3-5c0.9-1.6,2.1-2.9,3.6-3.7c1.6-0.9,3.3-1.3,5.3-1.3c3,0,5.4,1,7.4,2.9
			c1.9,1.9,2.9,4.4,2.9,7.4c0,3-1,5.5-2.9,7.4c-1.9,2-4.4,3-7.3,3c-1.8,0-3.5-0.4-5.2-1.2s-2.9-2-3.8-3.6S62,433,62,430.7z
			 M67.4,431c0,2,0.5,3.5,1.4,4.5s2.1,1.6,3.4,1.6s2.5-0.5,3.4-1.6s1.4-2.6,1.4-4.5c0-1.9-0.5-3.4-1.4-4.5s-2.1-1.6-3.4-1.6
			s-2.5,0.5-3.4,1.6S67.4,429,67.4,431z"/>
		<path class="st4" d="M103.8,427l-5.2,0.9c-0.2-1-0.6-1.8-1.2-2.3c-0.6-0.5-1.4-0.8-2.4-0.8c-1.3,0-2.3,0.5-3.1,1.4
			c-0.8,0.9-1.2,2.4-1.2,4.5c0,2.3,0.4,4,1.2,5c0.8,1,1.8,1.5,3.2,1.5c1,0,1.8-0.3,2.4-0.8c0.6-0.6,1.1-1.5,1.3-2.9l5.1,0.9
			c-0.5,2.4-1.6,4.1-3.1,5.3s-3.5,1.8-6.1,1.8c-2.9,0-5.2-0.9-6.9-2.7c-1.7-1.8-2.6-4.4-2.6-7.6c0-3.3,0.9-5.8,2.6-7.6
			c1.7-1.8,4.1-2.7,7-2.7c2.4,0,4.3,0.5,5.7,1.6C102.1,423.3,103.1,424.8,103.8,427z"/>
		<path class="st4" d="M119.2,434.6l5.2,0.9c-0.7,1.9-1.7,3.4-3.2,4.4c-1.4,1-3.3,1.5-5.4,1.5c-3.4,0-6-1.1-7.6-3.4
			c-1.3-1.8-2-4.1-2-6.8c0-3.3,0.9-5.8,2.6-7.7c1.7-1.9,3.9-2.8,6.5-2.8c2.9,0,5.3,1,7,2.9c1.7,1.9,2.5,4.9,2.4,8.9h-13.1
			c0,1.6,0.5,2.8,1.3,3.6s1.8,1.3,3,1.3c0.8,0,1.5-0.2,2.1-0.7C118.5,436.3,118.9,435.6,119.2,434.6z M119.5,429.3
			c0-1.5-0.4-2.7-1.2-3.5c-0.7-0.8-1.7-1.2-2.7-1.2c-1.1,0-2.1,0.4-2.8,1.2c-0.7,0.8-1.1,2-1.1,3.4H119.5z"/>
		<path class="st4" d="M147.1,440.9h-4.9V438c-0.8,1.1-1.8,2-2.9,2.5c-1.1,0.6-2.2,0.8-3.3,0.8c-2.3,0-4.2-0.9-5.8-2.7
			s-2.4-4.4-2.4-7.7c0-3.4,0.8-5.9,2.4-7.6s3.6-2.6,6-2.6c2.2,0,4.1,0.9,5.7,2.8v-9.8h5.2V440.9z M133.1,430.6
			c0,2.1,0.3,3.6,0.9,4.6c0.8,1.4,2,2,3.5,2c1.2,0,2.2-0.5,3.1-1.5s1.3-2.6,1.3-4.6c0-2.3-0.4-3.9-1.2-4.9c-0.8-1-1.9-1.5-3.1-1.5
			c-1.2,0-2.3,0.5-3.1,1.5C133.5,427.1,133.1,428.6,133.1,430.6z"/>
		<path class="st4" d="M165.3,440.9v-3c-0.7,1.1-1.7,1.9-2.8,2.5c-1.2,0.6-2.4,0.9-3.7,0.9c-1.3,0-2.5-0.3-3.6-0.9
			c-1.1-0.6-1.8-1.4-2.3-2.5c-0.5-1.1-0.7-2.5-0.7-4.4v-12.5h5.2v9.1c0,2.8,0.1,4.5,0.3,5.1c0.2,0.6,0.5,1.1,1.1,1.5
			c0.5,0.4,1.2,0.5,1.9,0.5c0.9,0,1.7-0.2,2.4-0.7s1.2-1.1,1.5-1.8c0.3-0.7,0.4-2.5,0.4-5.3v-8.3h5.2v19.8H165.3z"/>
		<path class="st4" d="M180.5,440.9h-5.2v-19.8h4.9v2.8c0.8-1.3,1.6-2.2,2.2-2.6c0.7-0.4,1.4-0.6,2.3-0.6c1.2,0,2.3,0.3,3.4,1
			l-1.6,4.6c-0.9-0.6-1.7-0.9-2.5-0.9c-0.7,0-1.4,0.2-1.9,0.6c-0.5,0.4-0.9,1.1-1.2,2.2c-0.3,1.1-0.4,3.3-0.4,6.6V440.9z"/>
		<path class="st4" d="M201.8,434.6l5.2,0.9c-0.7,1.9-1.7,3.4-3.2,4.4c-1.4,1-3.3,1.5-5.4,1.5c-3.4,0-6-1.1-7.6-3.4
			c-1.3-1.8-2-4.1-2-6.8c0-3.3,0.9-5.8,2.6-7.7c1.7-1.9,3.9-2.8,6.5-2.8c2.9,0,5.3,1,7,2.9c1.7,1.9,2.5,4.9,2.4,8.9h-13.1
			c0,1.6,0.5,2.8,1.3,3.6s1.8,1.3,3,1.3c0.8,0,1.5-0.2,2.1-0.7C201.1,436.3,201.5,435.6,201.8,434.6z M202.1,429.3
			c0-1.5-0.4-2.7-1.2-3.5c-0.7-0.8-1.7-1.2-2.7-1.2c-1.1,0-2.1,0.4-2.8,1.2c-0.7,0.8-1.1,2-1.1,3.4H202.1z"/>
		<path class="st4" d="M209.7,435.2l5.3-0.8c0.2,1,0.7,1.8,1.4,2.3c0.7,0.5,1.6,0.8,2.9,0.8c1.4,0,2.4-0.2,3.1-0.7
			c0.5-0.3,0.7-0.8,0.7-1.4c0-0.4-0.1-0.7-0.4-1c-0.3-0.2-0.8-0.5-1.8-0.7c-4.2-0.9-6.9-1.8-8-2.6c-1.6-1.1-2.3-2.6-2.3-4.5
			c0-1.7,0.7-3.2,2-4.3c1.4-1.2,3.5-1.8,6.3-1.8c2.7,0,4.7,0.4,6,1.3c1.3,0.9,2.2,2.2,2.7,3.9l-4.9,0.9c-0.2-0.8-0.6-1.4-1.2-1.8
			c-0.6-0.4-1.4-0.6-2.5-0.6c-1.4,0-2.4,0.2-3,0.6c-0.4,0.3-0.6,0.6-0.6,1.1c0,0.4,0.2,0.7,0.5,0.9c0.5,0.3,2.1,0.8,4.9,1.5
			c2.8,0.6,4.7,1.4,5.8,2.3c1.1,0.9,1.6,2.2,1.6,3.9c0,1.8-0.8,3.4-2.3,4.7c-1.5,1.3-3.8,2-6.7,2c-2.7,0-4.8-0.5-6.4-1.6
			C211.3,438.6,210.2,437.1,209.7,435.2z"/>
	</g>
	<g>
		<path class="st4" d="M20.2,228.9l2.2-0.2c0.2,1.1,0.5,1.9,1.1,2.4s1.3,0.8,2.2,0.8c1,0,1.9-0.4,2.6-1.1s1.1-1.8,1.1-3
			c0-1.2-0.3-2.2-1-2.8s-1.6-1-2.7-1c-0.7,0-1.3,0.2-1.8,0.5s-1,0.7-1.3,1.2l-2-0.3l1.7-8.8h8.5v2h-6.9l-0.9,4.6
			c1-0.7,2.1-1.1,3.2-1.1c1.5,0,2.8,0.5,3.8,1.6s1.5,2.4,1.5,4c0,1.6-0.5,2.9-1.4,4c-1.1,1.4-2.6,2.1-4.5,2.1
			c-1.6,0-2.8-0.4-3.8-1.3S20.4,230.3,20.2,228.9z"/>
		<path class="st4" d="M37.9,224.1c-0.9-0.3-1.5-0.8-1.9-1.4s-0.6-1.3-0.6-2.1c0-1.2,0.4-2.3,1.3-3.2s2.1-1.3,3.6-1.3
			c1.5,0,2.7,0.4,3.6,1.3s1.4,1.9,1.4,3.2c0,0.8-0.2,1.5-0.6,2.1s-1.1,1-1.9,1.4c1.1,0.3,1.9,0.9,2.4,1.7s0.8,1.7,0.8,2.7
			c0,1.5-0.5,2.7-1.6,3.7s-2.4,1.5-4.1,1.5s-3.1-0.5-4.1-1.5s-1.6-2.3-1.6-3.8c0-1.1,0.3-2.1,0.8-2.8S36.8,224.4,37.9,224.1z
			 M36.8,228.4c0,0.6,0.1,1.2,0.4,1.7s0.7,1,1.3,1.3s1.2,0.5,1.8,0.5c1,0,1.8-0.3,2.5-1s1-1.5,1-2.5c0-1-0.3-1.9-1-2.5s-1.5-1-2.5-1
			c-1,0-1.8,0.3-2.5,1S36.8,227.5,36.8,228.4z M37.5,220.5c0,0.8,0.3,1.5,0.8,2s1.2,0.8,2,0.8c0.8,0,1.5-0.3,2-0.8s0.8-1.1,0.8-1.9
			c0-0.8-0.3-1.4-0.8-2s-1.2-0.8-2-0.8c-0.8,0-1.5,0.3-2,0.8S37.5,219.8,37.5,220.5z"/>
		<path class="st4" d="M57.4,233.4v-12.4h1.9v1.9c0.5-0.9,0.9-1.5,1.3-1.7s0.9-0.4,1.4-0.4c0.7,0,1.4,0.2,2.2,0.7l-0.7,2
			c-0.5-0.3-1-0.5-1.5-0.5c-0.5,0-0.9,0.1-1.2,0.4s-0.6,0.7-0.8,1.2c-0.2,0.8-0.4,1.6-0.4,2.5v6.5H57.4z"/>
		<path class="st4" d="M75,229.4l2.2,0.3c-0.3,1.3-1,2.3-1.9,3s-2.1,1.1-3.6,1.1c-1.8,0-3.3-0.6-4.3-1.7s-1.6-2.7-1.6-4.7
			c0-2.1,0.5-3.7,1.6-4.9s2.5-1.7,4.2-1.7c1.7,0,3,0.6,4.1,1.7s1.6,2.7,1.6,4.8c0,0.1,0,0.3,0,0.6H68c0.1,1.4,0.5,2.4,1.2,3.1
			s1.6,1.1,2.6,1.1c0.8,0,1.4-0.2,2-0.6S74.7,230.3,75,229.4z M68.1,226H75c-0.1-1-0.4-1.8-0.8-2.4c-0.7-0.8-1.5-1.2-2.6-1.2
			c-1,0-1.8,0.3-2.4,1S68.1,224.9,68.1,226z"/>
		<path class="st4" d="M80.1,229.7l2.1-0.3c0.1,0.8,0.4,1.5,1,1.9s1.3,0.7,2.2,0.7c1,0,1.7-0.2,2.2-0.6s0.7-0.9,0.7-1.4
			c0-0.5-0.2-0.9-0.6-1.1c-0.3-0.2-1-0.4-2.2-0.7c-1.5-0.4-2.6-0.7-3.2-1s-1.1-0.7-1.4-1.2s-0.5-1.1-0.5-1.7c0-0.6,0.1-1.1,0.4-1.5
			s0.6-0.9,1-1.2c0.3-0.2,0.8-0.4,1.3-0.6s1.2-0.3,1.8-0.3c1,0,1.8,0.1,2.6,0.4s1.3,0.7,1.6,1.1s0.6,1.1,0.7,1.9l-2.1,0.3
			c-0.1-0.6-0.4-1.1-0.8-1.5s-1.1-0.5-1.9-0.5c-1,0-1.7,0.2-2.1,0.5s-0.6,0.7-0.6,1.1c0,0.3,0.1,0.5,0.3,0.7
			c0.2,0.2,0.4,0.4,0.8,0.6c0.2,0.1,0.8,0.3,1.9,0.5c1.5,0.4,2.5,0.7,3.1,1s1.1,0.6,1.4,1.1s0.5,1.1,0.5,1.8c0,0.7-0.2,1.4-0.6,2
			s-1,1.1-1.8,1.4s-1.6,0.5-2.6,0.5c-1.6,0-2.8-0.3-3.7-1S80.3,231,80.1,229.7z"/>
		<path class="st4" d="M102.1,233.4v-1.8c-1,1.4-2.3,2.1-3.9,2.1c-0.7,0-1.4-0.1-2.1-0.4s-1.1-0.6-1.4-1.1s-0.5-0.9-0.7-1.6
			c-0.1-0.4-0.1-1.1-0.1-2v-7.7H96v6.9c0,1.1,0,1.8,0.1,2.2c0.1,0.6,0.4,1,0.8,1.3s1,0.5,1.6,0.5s1.2-0.2,1.8-0.5s0.9-0.8,1.2-1.3
			s0.3-1.4,0.3-2.4v-6.7h2.1v12.4H102.1z"/>
		<path class="st4" d="M108.4,233.4v-17.2h2.1v17.2H108.4z"/>
		<path class="st4" d="M119.4,231.5l0.3,1.9c-0.6,0.1-1.1,0.2-1.6,0.2c-0.8,0-1.4-0.1-1.8-0.4s-0.7-0.6-0.9-1s-0.3-1.2-0.3-2.5v-7.2
			h-1.5v-1.6h1.5v-3.1l2.1-1.3v4.3h2.1v1.6h-2.1v7.3c0,0.6,0,1,0.1,1.2s0.2,0.3,0.4,0.4s0.4,0.2,0.7,0.2
			C118.7,231.6,119,231.6,119.4,231.5z"/>
		<path class="st4" d="M131.1,229.4l2.2,0.3c-0.3,1.3-1,2.3-1.9,3s-2.1,1.1-3.6,1.1c-1.8,0-3.3-0.6-4.3-1.7s-1.6-2.7-1.6-4.7
			c0-2.1,0.5-3.7,1.6-4.9s2.5-1.7,4.2-1.7c1.7,0,3,0.6,4.1,1.7s1.6,2.7,1.6,4.8c0,0.1,0,0.3,0,0.6H124c0.1,1.4,0.5,2.4,1.2,3.1
			s1.6,1.1,2.6,1.1c0.8,0,1.4-0.2,2-0.6S130.8,230.3,131.1,229.4z M124.2,226h6.9c-0.1-1-0.4-1.8-0.8-2.4c-0.7-0.8-1.5-1.2-2.6-1.2
			c-1,0-1.8,0.3-2.4,1S124.2,224.9,124.2,226z"/>
		<path class="st4" d="M145.1,233.4v-1.6c-0.8,1.2-1.9,1.9-3.5,1.9c-1,0-1.9-0.3-2.7-0.8s-1.5-1.3-1.9-2.3s-0.7-2.1-0.7-3.4
			c0-1.2,0.2-2.4,0.6-3.4s1-1.8,1.9-2.3s1.8-0.8,2.8-0.8c0.8,0,1.4,0.2,2,0.5s1.1,0.7,1.4,1.2v-6.2h2.1v17.2H145.1z M138.4,227.2
			c0,1.6,0.3,2.8,1,3.6s1.5,1.2,2.4,1.2c0.9,0,1.7-0.4,2.3-1.1s1-1.9,1-3.5c0-1.7-0.3-3-1-3.8s-1.5-1.2-2.4-1.2
			c-0.9,0-1.7,0.4-2.3,1.1S138.4,225.5,138.4,227.2z"/>
		<path class="st4" d="M44.6,242.6v-2.4h2.1v2.4H44.6z M44.6,257.4v-12.4h2.1v12.4H44.6z"/>
		<path class="st4" d="M51,257.4v-12.4h1.9v1.8c0.9-1.4,2.2-2.1,4-2.1c0.8,0,1.4,0.1,2.1,0.4s1.1,0.6,1.4,1.1s0.5,1,0.7,1.6
			c0.1,0.4,0.1,1.1,0.1,2.1v7.7H59v-7.6c0-0.9-0.1-1.5-0.2-1.9s-0.5-0.8-0.9-1s-0.9-0.4-1.5-0.4c-0.9,0-1.7,0.3-2.3,0.9
			s-1,1.7-1,3.2v6.8H51z"/>
		<path class="st4" d="M81.3,255.9c-0.8,0.7-1.5,1.1-2.3,1.4s-1.5,0.4-2.3,0.4c-1.4,0-2.4-0.3-3.2-1s-1.1-1.5-1.1-2.6
			c0-0.6,0.1-1.2,0.4-1.7s0.6-0.9,1.1-1.2s1-0.5,1.5-0.7c0.4-0.1,1-0.2,1.9-0.3c1.7-0.2,3-0.4,3.8-0.7c0-0.3,0-0.5,0-0.6
			c0-0.9-0.2-1.5-0.6-1.8c-0.5-0.5-1.3-0.7-2.4-0.7c-1,0-1.7,0.2-2.2,0.5s-0.8,1-1,1.8l-2.1-0.3c0.2-0.9,0.5-1.6,0.9-2.1
			s1.1-1,1.9-1.3s1.8-0.4,2.8-0.4c1.1,0,1.9,0.1,2.6,0.4s1.2,0.6,1.5,0.9s0.5,0.9,0.7,1.4c0.1,0.4,0.1,1,0.1,1.9v2.8
			c0,2,0,3.2,0.1,3.7s0.3,1,0.5,1.5h-2.2C81.5,257,81.3,256.4,81.3,255.9z M81.1,251.1c-0.8,0.3-1.9,0.6-3.4,0.8
			c-0.9,0.1-1.5,0.3-1.8,0.4s-0.6,0.4-0.8,0.7s-0.3,0.6-0.3,1c0,0.6,0.2,1,0.6,1.4s1,0.6,1.9,0.6c0.8,0,1.5-0.2,2.2-0.5
			s1.1-0.8,1.4-1.5c0.2-0.5,0.3-1.2,0.3-2.1V251.1z"/>
		<path class="st4" d="M95.7,252.8l2.1,0.3c-0.2,1.4-0.8,2.5-1.7,3.4s-2.1,1.2-3.4,1.2c-1.7,0-3.1-0.6-4.1-1.7s-1.6-2.7-1.6-4.8
			c0-1.3,0.2-2.5,0.7-3.5s1.1-1.8,2-2.3s1.9-0.8,3-0.8c1.4,0,2.5,0.3,3.3,1s1.4,1.7,1.7,2.9l-2.1,0.3c-0.2-0.8-0.5-1.5-1-1.9
			s-1.1-0.6-1.8-0.6c-1.1,0-1.9,0.4-2.6,1.1s-1,2-1,3.6c0,1.7,0.3,2.9,1,3.6s1.5,1.1,2.5,1.1c0.8,0,1.5-0.3,2.1-0.8
			S95.6,253.9,95.7,252.8z"/>
		<path class="st4" d="M105.3,255.5l0.3,1.9c-0.6,0.1-1.1,0.2-1.6,0.2c-0.8,0-1.4-0.1-1.8-0.4s-0.7-0.6-0.9-1s-0.3-1.2-0.3-2.5v-7.2
			h-1.5v-1.6h1.5v-3.1l2.1-1.3v4.3h2.1v1.6h-2.1v7.3c0,0.6,0,1,0.1,1.2s0.2,0.3,0.4,0.4s0.4,0.2,0.7,0.2
			C104.6,255.6,104.9,255.6,105.3,255.5z"/>
		<path class="st4" d="M108.4,242.6v-2.4h2.1v2.4H108.4z M108.4,257.4v-12.4h2.1v12.4H108.4z"/>
		<path class="st4" d="M114,251.2c0-2.3,0.6-4,1.9-5.1c1.1-0.9,2.4-1.4,3.9-1.4c1.7,0,3.1,0.6,4.2,1.7s1.6,2.7,1.6,4.6
			c0,1.6-0.2,2.9-0.7,3.8s-1.2,1.6-2.1,2.1s-1.9,0.8-3,0.8c-1.7,0-3.2-0.6-4.2-1.7S114,253.3,114,251.2z M116.2,251.2
			c0,1.6,0.3,2.8,1,3.6s1.6,1.2,2.6,1.2c1,0,1.9-0.4,2.6-1.2s1-2,1-3.6c0-1.5-0.3-2.7-1-3.5s-1.6-1.2-2.6-1.2
			c-1.1,0-1.9,0.4-2.6,1.2S116.2,249.6,116.2,251.2z"/>
		<path class="st4" d="M129.3,257.4v-12.4h1.9v1.8c0.9-1.4,2.2-2.1,4-2.1c0.8,0,1.4,0.1,2.1,0.4s1.1,0.6,1.4,1.1s0.5,1,0.7,1.6
			c0.1,0.4,0.1,1.1,0.1,2.1v7.7h-2.1v-7.6c0-0.9-0.1-1.5-0.2-1.9s-0.5-0.8-0.9-1s-0.9-0.4-1.5-0.4c-0.9,0-1.7,0.3-2.3,0.9
			s-1,1.7-1,3.2v6.8H129.3z"/>
		<path class="st4" d="M144.3,247.4v-2.4h2.4v2.4H144.3z M144.3,257.4V255h2.4v2.4H144.3z"/>
	</g>
	<g>
		<g>
			<path class="st4" d="M182.2,202.7h-2v-12.9c-0.5,0.5-1.1,0.9-1.9,1.4s-1.5,0.8-2.1,1v-2c1.1-0.5,2.1-1.2,3-1.9
				c0.8-0.8,1.4-1.5,1.8-2.2h1.3V202.7z"/>
			<path class="st4" d="M189.9,198.4l2.1-0.2c0.2,1,0.5,1.8,1.1,2.3c0.6,0.5,1.3,0.8,2.1,0.8c1,0,1.8-0.4,2.5-1.1
				c0.7-0.7,1-1.7,1-2.9c0-1.2-0.3-2.1-1-2.7c-0.6-0.7-1.5-1-2.5-1c-0.7,0-1.2,0.1-1.8,0.4c-0.5,0.3-0.9,0.7-1.2,1.2l-1.9-0.2
				l1.6-8.5h8.2v1.9h-6.6l-0.9,4.4c1-0.7,2-1,3.1-1c1.4,0,2.7,0.5,3.6,1.5s1.5,2.3,1.5,3.8c0,1.5-0.4,2.8-1.3,3.9
				c-1.1,1.3-2.5,2-4.3,2c-1.5,0-2.7-0.4-3.7-1.3C190.5,200.9,190,199.7,189.9,198.4z"/>
			<path class="st4" d="M222.7,198.8l2.1,0.3c-0.3,1.2-0.9,2.2-1.8,2.8s-2,1-3.4,1c-1.7,0-3.1-0.5-4.2-1.6c-1-1.1-1.5-2.6-1.5-4.5
				c0-2,0.5-3.6,1.6-4.7s2.4-1.7,4-1.7c1.6,0,2.9,0.5,3.9,1.6c1,1.1,1.5,2.6,1.5,4.6c0,0.1,0,0.3,0,0.5H216c0.1,1.3,0.4,2.3,1.1,3
				c0.7,0.7,1.5,1,2.5,1c0.7,0,1.4-0.2,1.9-0.6C222,200.3,222.4,199.7,222.7,198.8z M216.1,195.6h6.7c-0.1-1-0.3-1.8-0.8-2.3
				c-0.6-0.8-1.5-1.2-2.5-1.2c-0.9,0-1.7,0.3-2.3,0.9S216.1,194.5,216.1,195.6z"/>
			<path class="st4" d="M229.8,202.7v-11.9h1.8v1.7c0.4-0.6,0.9-1.1,1.5-1.4c0.6-0.4,1.3-0.5,2.1-0.5c0.9,0,1.6,0.2,2.2,0.6
				c0.6,0.4,1,0.9,1.2,1.5c0.9-1.4,2.2-2.1,3.7-2.1c1.2,0,2.1,0.3,2.7,1c0.6,0.7,1,1.7,1,3v8.2h-2v-7.5c0-0.8-0.1-1.4-0.2-1.7
				c-0.1-0.4-0.4-0.6-0.7-0.9c-0.3-0.2-0.8-0.3-1.2-0.3c-0.8,0-1.5,0.3-2.1,0.8c-0.6,0.6-0.8,1.5-0.8,2.7v6.9h-2v-7.7
				c0-0.9-0.2-1.6-0.5-2c-0.3-0.4-0.9-0.7-1.6-0.7c-0.6,0-1.1,0.1-1.6,0.4s-0.8,0.7-1.1,1.3s-0.3,1.4-0.3,2.5v6.2H229.8z"/>
			<path class="st4" d="M251.4,207.2v-16.5h1.8v1.5c0.4-0.6,0.9-1.1,1.5-1.4c0.5-0.3,1.2-0.5,2-0.5c1,0,1.9,0.3,2.7,0.8
				s1.4,1.3,1.8,2.2c0.4,1,0.6,2,0.6,3.1c0,1.2-0.2,2.3-0.7,3.3c-0.4,1-1.1,1.7-1.9,2.2c-0.8,0.5-1.7,0.8-2.6,0.8
				c-0.7,0-1.3-0.1-1.8-0.4s-1-0.6-1.3-1.1v5.8H251.4z M253.2,196.8c0,1.5,0.3,2.7,0.9,3.4c0.6,0.7,1.4,1.1,2.3,1.1
				c0.9,0,1.7-0.4,2.3-1.1s1-1.9,1-3.5c0-1.5-0.3-2.7-0.9-3.4s-1.4-1.1-2.2-1.1c-0.9,0-1.6,0.4-2.3,1.2
				C253.6,194.1,253.2,195.2,253.2,196.8z"/>
			<path class="st4" d="M266.6,202.7v-16.5h2v16.5H266.6z"/>
			<path class="st4" d="M273.5,196.7c0-2.2,0.6-3.8,1.8-4.9c1-0.9,2.3-1.3,3.8-1.3c1.6,0,3,0.5,4,1.6c1,1.1,1.6,2.6,1.6,4.5
				c0,1.5-0.2,2.7-0.7,3.6s-1.1,1.6-2,2c-0.9,0.5-1.8,0.7-2.9,0.7c-1.7,0-3-0.5-4-1.6C274,200.3,273.5,198.7,273.5,196.7z
				 M275.6,196.7c0,1.5,0.3,2.7,1,3.4s1.5,1.1,2.5,1.1c1,0,1.8-0.4,2.5-1.1s1-1.9,1-3.5c0-1.5-0.3-2.6-1-3.4
				c-0.7-0.8-1.5-1.1-2.5-1.1c-1,0-1.8,0.4-2.5,1.1S275.6,195.2,275.6,196.7z"/>
			<path class="st4" d="M289.4,207.3l-0.2-1.9c0.4,0.1,0.8,0.2,1.2,0.2c0.4,0,0.8-0.1,1.1-0.2s0.5-0.4,0.7-0.6
				c0.1-0.2,0.3-0.7,0.6-1.5c0-0.1,0.1-0.3,0.2-0.5l-4.5-11.9h2.2l2.5,6.9c0.3,0.9,0.6,1.8,0.9,2.8c0.2-0.9,0.5-1.8,0.8-2.7l2.5-7h2
				l-4.5,12.1c-0.5,1.3-0.9,2.2-1.1,2.7c-0.4,0.7-0.8,1.2-1.2,1.5s-1,0.5-1.7,0.5C290.3,207.5,289.9,207.4,289.4,207.3z"/>
			<path class="st4" d="M311.6,198.8l2.1,0.3c-0.3,1.2-0.9,2.2-1.8,2.8c-0.9,0.7-2,1-3.4,1c-1.7,0-3.1-0.5-4.2-1.6s-1.5-2.6-1.5-4.5
				c0-2,0.5-3.6,1.6-4.7s2.4-1.7,4-1.7c1.6,0,2.9,0.5,3.9,1.6c1,1.1,1.5,2.6,1.5,4.6c0,0.1,0,0.3,0,0.5h-8.9c0.1,1.3,0.4,2.3,1.1,3
				c0.7,0.7,1.5,1,2.5,1c0.7,0,1.4-0.2,1.9-0.6S311.3,199.7,311.6,198.8z M305,195.6h6.7c-0.1-1-0.3-1.8-0.8-2.3
				c-0.6-0.8-1.5-1.2-2.5-1.2c-0.9,0-1.7,0.3-2.3,0.9S305,194.5,305,195.6z"/>
			<path class="st4" d="M326.9,198.8l2.1,0.3c-0.3,1.2-0.9,2.2-1.8,2.8c-0.9,0.7-2,1-3.4,1c-1.7,0-3.1-0.5-4.2-1.6s-1.5-2.6-1.5-4.5
				c0-2,0.5-3.6,1.6-4.7s2.4-1.7,4-1.7c1.6,0,2.9,0.5,3.9,1.6c1,1.1,1.5,2.6,1.5,4.6c0,0.1,0,0.3,0,0.5h-8.9c0.1,1.3,0.4,2.3,1.1,3
				c0.7,0.7,1.5,1,2.5,1c0.7,0,1.4-0.2,1.9-0.6S326.6,199.7,326.9,198.8z M320.2,195.6h6.7c-0.1-1-0.3-1.8-0.8-2.3
				c-0.6-0.8-1.5-1.2-2.5-1.2c-0.9,0-1.7,0.3-2.3,0.9S320.3,194.5,320.2,195.6z"/>
			<path class="st4" d="M333.1,199.1l2-0.3c0.1,0.8,0.4,1.4,0.9,1.8c0.5,0.4,1.2,0.6,2.2,0.6c0.9,0,1.6-0.2,2.1-0.6s0.7-0.8,0.7-1.3
				c0-0.5-0.2-0.8-0.6-1.1c-0.3-0.2-1-0.4-2.1-0.7c-1.5-0.4-2.5-0.7-3.1-1c-0.6-0.3-1-0.7-1.3-1.1c-0.3-0.5-0.4-1-0.4-1.6
				c0-0.5,0.1-1,0.4-1.5c0.2-0.5,0.6-0.8,1-1.1c0.3-0.2,0.7-0.4,1.3-0.6c0.5-0.2,1.1-0.2,1.7-0.2c0.9,0,1.8,0.1,2.5,0.4
				s1.2,0.6,1.6,1.1c0.3,0.5,0.6,1.1,0.7,1.8l-2,0.3c-0.1-0.6-0.4-1.1-0.8-1.4c-0.4-0.3-1-0.5-1.8-0.5c-0.9,0-1.6,0.2-2,0.5
				s-0.6,0.7-0.6,1.1c0,0.3,0.1,0.5,0.2,0.7c0.2,0.2,0.4,0.4,0.8,0.5c0.2,0.1,0.8,0.2,1.8,0.5c1.4,0.4,2.4,0.7,3,0.9
				c0.6,0.2,1,0.6,1.3,1.1s0.5,1,0.5,1.7c0,0.7-0.2,1.3-0.6,1.9c-0.4,0.6-1,1.1-1.7,1.4c-0.7,0.3-1.6,0.5-2.5,0.5
				c-1.6,0-2.7-0.3-3.5-1S333.4,200.4,333.1,199.1z"/>
		</g>
	</g>
	<g>
		<path class="st4" d="M179.2,238.3l-7.4-23.3h6l4.4,15.3l4-15.3h6l3.9,15.3l4.5-15.3h6.1l-7.5,23.3h-5.9l-4-15l-4,15H179.2z"/>
		<path class="st4" d="M223.4,230.9l6.2,1c-0.8,2.3-2,4-3.7,5.2c-1.7,1.2-3.8,1.8-6.4,1.8c-4.1,0-7.1-1.3-9-4
			c-1.5-2.1-2.3-4.8-2.3-8c0-3.9,1-6.9,3-9.1s4.6-3.3,7.7-3.3c3.5,0,6.2,1.1,8.2,3.4c2,2.3,3,5.8,2.9,10.5h-15.5
			c0,1.8,0.5,3.3,1.5,4.3c1,1,2.1,1.5,3.6,1.5c1,0,1.8-0.3,2.4-0.8S223.1,232,223.4,230.9z M223.8,224.6c0-1.8-0.5-3.1-1.4-4.1
			c-0.9-0.9-1.9-1.4-3.2-1.4c-1.3,0-2.5,0.5-3.3,1.5s-1.3,2.3-1.3,4H223.8z"/>
		<path class="st4" d="M240.8,238.3h-6.2V215h5.7v3.3c1-1.6,1.9-2.6,2.6-3.1c0.8-0.5,1.7-0.7,2.7-0.7c1.4,0,2.8,0.4,4.1,1.2
			l-1.9,5.4c-1-0.7-2-1-2.9-1c-0.9,0-1.6,0.2-2.2,0.7c-0.6,0.5-1.1,1.3-1.4,2.6c-0.3,1.2-0.5,3.9-0.5,7.8V238.3z"/>
		<path class="st4" d="M266,230.9l6.2,1c-0.8,2.3-2,4-3.7,5.2c-1.7,1.2-3.8,1.8-6.4,1.8c-4.1,0-7.1-1.3-9-4c-1.5-2.1-2.3-4.8-2.3-8
			c0-3.9,1-6.9,3-9.1s4.6-3.3,7.7-3.3c3.5,0,6.2,1.1,8.2,3.4c2,2.3,3,5.8,2.9,10.5H257c0,1.8,0.5,3.3,1.5,4.3c1,1,2.1,1.5,3.6,1.5
			c1,0,1.8-0.3,2.4-0.8S265.6,232,266,230.9z M266.3,224.6c0-1.8-0.5-3.1-1.4-4.1c-0.9-0.9-1.9-1.4-3.2-1.4c-1.3,0-2.5,0.5-3.3,1.5
			s-1.3,2.3-1.3,4H266.3z"/>
		<path class="st4" d="M196.3,281.3h-5.7v-3.4c-1,1.3-2.1,2.3-3.4,3c-1.3,0.7-2.6,1-3.9,1c-2.7,0-5-1.1-6.9-3.2
			c-1.9-2.2-2.9-5.2-2.9-9c0-4,0.9-7,2.8-9c1.9-2.1,4.2-3.1,7.1-3.1c2.6,0,4.9,1.1,6.8,3.3v-11.6h6.2V281.3z M179.8,269.1
			c0,2.5,0.3,4.3,1,5.4c1,1.6,2.4,2.4,4.2,2.4c1.4,0,2.6-0.6,3.6-1.8c1-1.2,1.5-3,1.5-5.4c0-2.7-0.5-4.6-1.5-5.8
			c-1-1.2-2.2-1.8-3.7-1.8c-1.5,0-2.7,0.6-3.7,1.7C180.3,265.1,179.8,266.8,179.8,269.1z"/>
		<path class="st4" d="M202.4,254.8v-5.7h6.2v5.7H202.4z M202.4,281.3V258h6.2v23.3H202.4z"/>
		<path class="st4" d="M212.7,274.6l6.2-0.9c0.3,1.2,0.8,2.1,1.6,2.7c0.8,0.6,1.9,0.9,3.4,0.9c1.6,0,2.8-0.3,3.6-0.9
			c0.5-0.4,0.8-1,0.8-1.6c0-0.5-0.1-0.9-0.4-1.2c-0.3-0.3-1-0.6-2.1-0.8c-5-1.1-8.1-2.1-9.5-3c-1.8-1.3-2.8-3-2.8-5.3
			c0-2,0.8-3.7,2.4-5.1c1.6-1.4,4.1-2.1,7.4-2.1c3.2,0,5.6,0.5,7.1,1.6c1.6,1,2.6,2.6,3.2,4.6l-5.8,1.1c-0.2-0.9-0.7-1.6-1.4-2.1
			s-1.7-0.7-3-0.7c-1.6,0-2.8,0.2-3.5,0.7c-0.5,0.3-0.7,0.7-0.7,1.3c0,0.4,0.2,0.8,0.6,1.1c0.6,0.4,2.5,1,5.8,1.7
			c3.3,0.7,5.6,1.7,6.9,2.7c1.3,1.1,1.9,2.6,1.9,4.6c0,2.1-0.9,4-2.7,5.5c-1.8,1.5-4.4,2.3-7.9,2.3c-3.2,0-5.7-0.6-7.5-1.9
			C214.5,278.6,213.3,276.9,212.7,274.6z"/>
		<path class="st4" d="M239.5,258h5.7v3.2c2-2.5,4.5-3.7,7.3-3.7c1.5,0,2.8,0.3,3.9,0.9s2,1.5,2.7,2.8c1-1.2,2.1-2.2,3.3-2.8
			s2.5-0.9,3.8-0.9c1.7,0,3.2,0.3,4.4,1c1.2,0.7,2.1,1.7,2.7,3.1c0.4,1,0.6,2.6,0.6,4.8v14.9h-6.2V268c0-2.3-0.2-3.8-0.6-4.5
			c-0.6-0.9-1.5-1.3-2.6-1.3c-0.9,0-1.7,0.3-2.4,0.8c-0.8,0.5-1.3,1.3-1.6,2.3c-0.3,1-0.5,2.6-0.5,4.8v11.2h-6.2v-12.8
			c0-2.3-0.1-3.7-0.3-4.4s-0.6-1.2-1-1.5c-0.5-0.3-1.1-0.5-1.9-0.5c-1,0-1.8,0.3-2.6,0.8s-1.3,1.3-1.6,2.2s-0.5,2.6-0.5,4.8v11.3
			h-6.2V258z"/>
		<path class="st4" d="M279.9,254.8v-5.7h6.2v5.7H279.9z M279.9,281.3V258h6.2v23.3H279.9z"/>
		<path class="st4" d="M290.3,274.6l6.2-0.9c0.3,1.2,0.8,2.1,1.6,2.7c0.8,0.6,1.9,0.9,3.4,0.9c1.6,0,2.8-0.3,3.6-0.9
			c0.5-0.4,0.8-1,0.8-1.6c0-0.5-0.1-0.9-0.4-1.2c-0.3-0.3-1-0.6-2.1-0.8c-5-1.1-8.1-2.1-9.5-3c-1.8-1.3-2.8-3-2.8-5.3
			c0-2,0.8-3.7,2.4-5.1s4.1-2.1,7.4-2.1c3.2,0,5.6,0.5,7.1,1.6s2.6,2.6,3.2,4.6l-5.8,1.1c-0.2-0.9-0.7-1.6-1.4-2.1
			c-0.7-0.5-1.7-0.7-3-0.7c-1.6,0-2.8,0.2-3.5,0.7c-0.5,0.3-0.7,0.7-0.7,1.3c0,0.4,0.2,0.8,0.6,1.1c0.6,0.4,2.5,1,5.8,1.7
			c3.3,0.7,5.6,1.7,6.9,2.7c1.3,1.1,1.9,2.6,1.9,4.6c0,2.1-0.9,4-2.7,5.5s-4.4,2.3-7.9,2.3c-3.2,0-5.7-0.6-7.5-1.9
			S290.8,276.9,290.3,274.6z"/>
		<path class="st4" d="M315.3,274.6l6.2-0.9c0.3,1.2,0.8,2.1,1.6,2.7c0.8,0.6,1.9,0.9,3.4,0.9c1.6,0,2.8-0.3,3.6-0.9
			c0.5-0.4,0.8-1,0.8-1.6c0-0.5-0.1-0.9-0.4-1.2c-0.3-0.3-1-0.6-2.1-0.8c-5-1.1-8.1-2.1-9.5-3c-1.8-1.3-2.8-3-2.8-5.3
			c0-2,0.8-3.7,2.4-5.1c1.6-1.4,4.1-2.1,7.4-2.1c3.2,0,5.6,0.5,7.1,1.6c1.6,1,2.6,2.6,3.2,4.6l-5.8,1.1c-0.2-0.9-0.7-1.6-1.4-2.1
			s-1.7-0.7-3-0.7c-1.6,0-2.8,0.2-3.5,0.7c-0.5,0.3-0.7,0.7-0.7,1.3c0,0.4,0.2,0.8,0.6,1.1c0.6,0.4,2.5,1,5.8,1.7
			c3.3,0.7,5.6,1.7,6.9,2.7c1.3,1.1,1.9,2.6,1.9,4.6c0,2.1-0.9,4-2.7,5.5c-1.8,1.5-4.4,2.3-7.9,2.3c-3.2,0-5.7-0.6-7.5-1.9
			C317.1,278.6,315.9,276.9,315.3,274.6z"/>
		<path class="st4" d="M356,273.9l6.2,1c-0.8,2.3-2,4-3.7,5.2c-1.7,1.2-3.8,1.8-6.4,1.8c-4.1,0-7.1-1.3-9-4c-1.5-2.1-2.3-4.8-2.3-8
			c0-3.9,1-6.9,3-9.1c2-2.2,4.6-3.3,7.7-3.3c3.5,0,6.2,1.1,8.2,3.4c2,2.3,3,5.8,2.9,10.5H347c0,1.8,0.5,3.3,1.5,4.3
			c1,1,2.1,1.5,3.6,1.5c1,0,1.8-0.3,2.4-0.8S355.7,275,356,273.9z M356.3,267.6c0-1.8-0.5-3.1-1.4-4.1c-0.9-0.9-1.9-1.4-3.2-1.4
			c-1.3,0-2.5,0.5-3.3,1.5s-1.3,2.3-1.3,4H356.3z"/>
		<path class="st4" d="M388.9,281.3h-5.7v-3.4c-1,1.3-2.1,2.3-3.4,3c-1.3,0.7-2.6,1-3.9,1c-2.7,0-5-1.1-6.9-3.2
			c-1.9-2.2-2.9-5.2-2.9-9c0-4,0.9-7,2.8-9c1.9-2.1,4.2-3.1,7.1-3.1c2.6,0,4.9,1.1,6.8,3.3v-11.6h6.2V281.3z M372.4,269.1
			c0,2.5,0.3,4.3,1,5.4c1,1.6,2.4,2.4,4.2,2.4c1.4,0,2.6-0.6,3.6-1.8c1-1.2,1.5-3,1.5-5.4c0-2.7-0.5-4.6-1.5-5.8
			c-1-1.2-2.2-1.8-3.7-1.8c-1.5,0-2.7,0.6-3.7,1.7C372.9,265.1,372.4,266.8,372.4,269.1z"/>
	</g>
	<rect x="159.7" y="181.4" class="st4" width="3" height="103"/>
</g>
</svg>
