<?xml version="1.0" encoding="utf-8"?>
<!-- Generator: Adobe Illustrator 21.0.2, SVG Export Plug-In . SVG Version: 6.00 Build 0)  -->
<svg version="1.1" id="Layer_1" xmlns="http://www.w3.org/2000/svg" xmlns:xlink="http://www.w3.org/1999/xlink" x="0px" y="0px"
	 viewBox="0 0 535.1 448.1" style="enable-background:new 0 0 535.1 448.1;" xml:space="preserve">
<style type="text/css">
	.st0{fill:#0072CE;}
	.st1{fill:#E7C223;}
	.st2{fill:#981D97;}
	.st3{fill:#AFB9C5;}
	.st4{fill:url(#SVGID_1_);}
	.st5{fill:url(#SVGID_2_);}
	.st6{fill:url(#SVGID_3_);}
	.st7{fill:url(#SVGID_4_);}
	.st8{fill:url(#SVGID_5_);}
	.st9{fill:url(#SVGID_6_);}
	.st10{fill:url(#SVGID_7_);}
	.st11{fill:#5C7F93;}
	.st12{fill:url(#SVGID_8_);}
	.st13{fill:url(#SVGID_9_);}
	.st14{fill:url(#SVGID_10_);}
	.st15{fill:url(#SVGID_11_);}
	.st16{fill:url(#SVGID_12_);}
	.st17{fill:url(#SVGID_13_);}
	.st18{fill:url(#SVGID_14_);}
	.st19{fill:#5B7F94;}
	.st20{fill:url(#SVGID_15_);}
	.st21{fill:url(#SVGID_16_);}
	.st22{fill:url(#SVGID_17_);}
	.st23{fill:url(#SVGID_18_);}
	.st24{fill:url(#SVGID_19_);}
	.st25{fill:url(#SVGID_20_);}
	.st26{fill:url(#SVGID_21_);}
	.st27{fill:url(#SVGID_22_);}
	.st28{fill:url(#SVGID_23_);}
	.st29{fill:url(#SVGID_24_);}
	.st30{fill:url(#SVGID_25_);}
	.st31{fill:url(#SVGID_26_);}
	.st32{fill:url(#SVGID_27_);}
	.st33{fill:url(#SVGID_28_);}
</style>
<g>
	<g>
		<g>
			<path class="st0" d="M262,244.8L242.8,42.3c6.4-0.6,12.8-0.9,19.2-0.9c111.6,0,203.3,91.8,203.3,203.3S373.6,448.1,262,448.1
				c-39.8,0-78.7-11.7-112-33.6L262,244.8z"/>
			<path class="st1" d="M262,244.8L131.5,88.8c14.4-12.1,30.4-22.1,47.6-29.7s35.3-12.9,53.9-15.6L262,244.8z"/>
			<path class="st2" d="M262,244.8L143.6,410.1c-53.3-38.2-84.9-99.8-84.9-165.3c0-56.5,23.5-110.5,64.9-148.9L262,244.8z"/>
			<g>
				<g>
					<circle class="st3" cx="261.5" cy="244.8" r="153.4"/>
				</g>
				<g>
					<radialGradient id="SVGID_1_" cx="334.2699" cy="176.4672" r="153.9873" gradientUnits="userSpaceOnUse">
						<stop  offset="0" style="stop-color:#FFFFFF"/>
						<stop  offset="0.5053" style="stop-color:#FDFDFE"/>
						<stop  offset="0.6873" style="stop-color:#F6F8F9"/>
						<stop  offset="0.817" style="stop-color:#EBEDF0"/>
						<stop  offset="0.9211" style="stop-color:#DADFE3"/>
						<stop  offset="1" style="stop-color:#C7CFD5"/>
					</radialGradient>
					<circle class="st4" cx="262" cy="244.8" r="154"/>
					<radialGradient id="SVGID_2_" cx="337.1416" cy="167.6783" r="179.6788" gradientUnits="userSpaceOnUse">
						<stop  offset="0" style="stop-color:#F6F7F8"/>
						<stop  offset="0.4318" style="stop-color:#F4F5F6"/>
						<stop  offset="0.6764" style="stop-color:#EBEEF0"/>
						<stop  offset="0.8736" style="stop-color:#DEE2E6"/>
						<stop  offset="1" style="stop-color:#D0D7DC"/>
					</radialGradient>
					<circle class="st5" cx="262" cy="244.8" r="152.4"/>
					<radialGradient id="SVGID_3_" cx="339.9377" cy="159.0877" r="206.3525" gradientUnits="userSpaceOnUse">
						<stop  offset="0" style="stop-color:#ECEFF1"/>
						<stop  offset="0.4869" style="stop-color:#E9ECEE"/>
						<stop  offset="0.8802" style="stop-color:#DFE3E7"/>
						<stop  offset="1" style="stop-color:#DADFE3"/>
					</radialGradient>
					<circle class="st6" cx="262" cy="244.8" r="150.8"/>
					<radialGradient id="SVGID_4_" cx="342.6583" cy="150.6954" r="233.9915" gradientUnits="userSpaceOnUse">
						<stop  offset="0" style="stop-color:#E3E7EA"/>
						<stop  offset="1" style="stop-color:#E3E7EA"/>
					</radialGradient>
					<circle class="st7" cx="262" cy="244.8" r="149.2"/>
					<radialGradient id="SVGID_5_" cx="345.3034" cy="142.5012" r="262.5734" gradientUnits="userSpaceOnUse">
						<stop  offset="0" style="stop-color:#DADFE3"/>
						<stop  offset="0.5245" style="stop-color:#E1E5E8"/>
						<stop  offset="1" style="stop-color:#ECEFF1"/>
					</radialGradient>
					<circle class="st8" cx="262" cy="244.8" r="147.6"/>
					<radialGradient id="SVGID_6_" cx="347.8729" cy="134.5053" r="292.0711" gradientUnits="userSpaceOnUse">
						<stop  offset="0" style="stop-color:#D0D7DC"/>
						<stop  offset="0.433" style="stop-color:#DEE3E6"/>
						<stop  offset="1" style="stop-color:#F6F7F8"/>
					</radialGradient>
					<circle class="st9" cx="262" cy="244.8" r="146"/>
					<radialGradient id="SVGID_7_" cx="350.3669" cy="126.7076" r="322.4536" gradientUnits="userSpaceOnUse">
						<stop  offset="0" style="stop-color:#C7CFD5"/>
						<stop  offset="1" style="stop-color:#FFFFFF"/>
					</radialGradient>
					<circle class="st10" cx="262" cy="244.8" r="144.4"/>
				</g>
			</g>
			<g>
				<g>
					<path class="st11" d="M166.4,176.6h9.2c2.1,0,3.7,0.2,4.8,0.5c1.5,0.4,2.7,1.2,3.8,2.3c1,1.1,1.8,2.5,2.4,4.1s0.8,3.6,0.8,5.9
						c0,2.1-0.3,3.8-0.8,5.3c-0.6,1.8-1.5,3.3-2.7,4.4c-0.9,0.9-2.1,1.5-3.6,2c-1.1,0.4-2.6,0.5-4.5,0.5h-9.5V176.6z M171.4,180.8
						v16.6h3.8c1.4,0,2.4-0.1,3.1-0.2c0.8-0.2,1.5-0.6,2-1c0.5-0.5,1-1.3,1.3-2.4s0.5-2.7,0.5-4.6c0-1.9-0.2-3.4-0.5-4.5
						c-0.3-1-0.8-1.8-1.4-2.4s-1.4-1-2.3-1.2c-0.7-0.2-2.1-0.2-4.2-0.2H171.4z"/>
					<path class="st11" d="M191.6,181v-4.4h4.8v4.4H191.6z M191.6,201.6v-18.1h4.8v18.1H191.6z"/>
					<path class="st11" d="M199.7,196.4l4.8-0.7c0.2,0.9,0.6,1.6,1.2,2.1c0.6,0.5,1.5,0.7,2.6,0.7c1.2,0,2.2-0.2,2.8-0.7
						c0.4-0.3,0.6-0.7,0.6-1.3c0-0.4-0.1-0.7-0.3-0.9c-0.2-0.2-0.8-0.4-1.6-0.6c-3.9-0.9-6.3-1.6-7.4-2.3c-1.4-1-2.2-2.3-2.2-4.1
						c0-1.6,0.6-2.9,1.9-4c1.2-1.1,3.2-1.6,5.8-1.6c2.5,0,4.3,0.4,5.5,1.2c1.2,0.8,2,2,2.5,3.6l-4.5,0.8c-0.2-0.7-0.6-1.2-1.1-1.6
						c-0.5-0.4-1.3-0.6-2.3-0.6c-1.3,0-2.2,0.2-2.7,0.5c-0.4,0.3-0.5,0.6-0.5,1c0,0.3,0.2,0.6,0.5,0.9c0.4,0.3,1.9,0.8,4.5,1.3
						c2.6,0.6,4.3,1.3,5.4,2.1c1,0.9,1.5,2,1.5,3.6c0,1.7-0.7,3.1-2.1,4.3c-1.4,1.2-3.4,1.8-6.2,1.8c-2.5,0-4.4-0.5-5.9-1.5
						C201.1,199.5,200.1,198.1,199.7,196.4z"/>
					<path class="st11" d="M229.1,183.5v3.8h-3.3v7.3c0,1.5,0,2.3,0.1,2.6c0.1,0.2,0.2,0.4,0.4,0.6c0.2,0.2,0.5,0.2,0.8,0.2
						c0.4,0,1.1-0.2,1.9-0.5l0.4,3.7c-1.1,0.5-2.4,0.7-3.8,0.7c-0.9,0-1.6-0.1-2.3-0.4c-0.7-0.3-1.2-0.7-1.5-1.1
						c-0.3-0.5-0.6-1.1-0.7-1.9c-0.1-0.6-0.2-1.7-0.2-3.4v-7.9h-2.2v-3.8h2.2v-3.6l4.8-2.8v6.4H229.1z"/>
					<path class="st11" d="M237.1,201.6h-4.8v-18.1h4.5v2.6c0.8-1.2,1.4-2,2.1-2.4c0.6-0.4,1.3-0.6,2.1-0.6c1.1,0,2.1,0.3,3.2,0.9
						l-1.5,4.2c-0.8-0.5-1.6-0.8-2.3-0.8c-0.7,0-1.2,0.2-1.7,0.6c-0.5,0.4-0.8,1-1.1,2c-0.3,1-0.4,3-0.4,6.1V201.6z"/>
					<path class="st11" d="M246.1,181v-4.4h4.8v4.4H246.1z M246.1,201.6v-18.1h4.8v18.1H246.1z"/>
					<path class="st11" d="M255.6,201.6v-25.1h4.8v9c1.5-1.7,3.2-2.5,5.3-2.5c2.2,0,4,0.8,5.5,2.4c1.4,1.6,2.2,3.9,2.2,6.9
						c0,3.1-0.7,5.5-2.2,7.2c-1.5,1.7-3.3,2.5-5.4,2.5c-1,0-2.1-0.3-3.1-0.8c-1-0.5-1.9-1.3-2.6-2.3v2.7H255.6z M260.4,192.1
						c0,1.9,0.3,3.3,0.9,4.2c0.8,1.3,1.9,1.9,3.3,1.9c1.1,0,2-0.5,2.7-1.4c0.7-0.9,1.1-2.3,1.1-4.3c0-2.1-0.4-3.6-1.1-4.5
						c-0.8-0.9-1.7-1.4-2.9-1.4c-1.2,0-2.1,0.4-2.9,1.3C260.8,189,260.4,190.3,260.4,192.1z"/>
					<path class="st11" d="M289.1,201.6v-2.7c-0.7,1-1.5,1.7-2.6,2.3c-1.1,0.6-2.2,0.8-3.4,0.8c-1.2,0-2.3-0.3-3.3-0.8
						c-1-0.5-1.7-1.3-2.1-2.3c-0.4-1-0.6-2.3-0.6-4v-11.5h4.8v8.3c0,2.6,0.1,4.1,0.3,4.7s0.5,1,1,1.4c0.5,0.3,1.1,0.5,1.8,0.5
						c0.8,0,1.6-0.2,2.2-0.7s1.1-1,1.3-1.7c0.2-0.7,0.4-2.3,0.4-4.9v-7.7h4.8v18.1H289.1z"/>
					<path class="st11" d="M306.9,183.5v3.8h-3.3v7.3c0,1.5,0,2.3,0.1,2.6c0.1,0.2,0.2,0.4,0.4,0.6c0.2,0.2,0.5,0.2,0.8,0.2
						c0.4,0,1.1-0.2,1.9-0.5l0.4,3.7c-1.1,0.5-2.4,0.7-3.8,0.7c-0.9,0-1.6-0.1-2.3-0.4c-0.7-0.3-1.2-0.7-1.5-1.1
						c-0.3-0.5-0.6-1.1-0.7-1.9c-0.1-0.6-0.2-1.7-0.2-3.4v-7.9h-2.2v-3.8h2.2v-3.6l4.8-2.8v6.4H306.9z"/>
					<path class="st11" d="M310.2,181v-4.4h4.8v4.4H310.2z M310.2,201.6v-18.1h4.8v18.1H310.2z"/>
					<path class="st11" d="M318.9,192.3c0-1.6,0.4-3.1,1.2-4.6c0.8-1.5,1.9-2.6,3.3-3.4c1.4-0.8,3.1-1.2,4.8-1.2
						c2.7,0,5,0.9,6.8,2.7c1.8,1.8,2.6,4,2.6,6.8c0,2.7-0.9,5-2.7,6.8c-1.8,1.8-4,2.7-6.7,2.7c-1.7,0-3.2-0.4-4.8-1.1
						c-1.5-0.8-2.7-1.9-3.4-3.3C319.2,196.1,318.9,194.4,318.9,192.3z M323.8,192.5c0,1.8,0.4,3.2,1.3,4.1s1.9,1.4,3.2,1.4
						c1.3,0,2.3-0.5,3.2-1.4c0.8-1,1.3-2.3,1.3-4.2c0-1.8-0.4-3.1-1.3-4.1c-0.8-1-1.9-1.4-3.2-1.4c-1.3,0-2.3,0.5-3.2,1.4
						C324.2,189.4,323.8,190.7,323.8,192.5z"/>
					<path class="st11" d="M357.8,201.6H353v-9.3c0-2-0.1-3.2-0.3-3.8c-0.2-0.6-0.5-1-1-1.3c-0.5-0.3-1-0.5-1.7-0.5
						c-0.8,0-1.6,0.2-2.2,0.7c-0.7,0.5-1.1,1.1-1.4,1.8c-0.2,0.8-0.4,2.1-0.4,4.2v8.2h-4.8v-18.1h4.5v2.7c1.6-2.1,3.6-3.1,6-3.1
						c1.1,0,2,0.2,2.9,0.6c0.9,0.4,1.5,0.9,2,1.5c0.4,0.6,0.8,1.3,0.9,2s0.3,1.8,0.3,3.2V201.6z"/>
					<path class="st11" d="M178.8,227.3c0-1.6,0.4-3.1,1.2-4.6c0.8-1.5,1.9-2.6,3.3-3.4c1.4-0.8,3.1-1.2,4.8-1.2
						c2.7,0,5,0.9,6.8,2.7c1.8,1.8,2.6,4,2.6,6.8c0,2.7-0.9,5-2.7,6.8c-1.8,1.8-4,2.7-6.7,2.7c-1.7,0-3.2-0.4-4.8-1.1
						c-1.5-0.8-2.7-1.9-3.4-3.3C179.2,231.1,178.8,229.4,178.8,227.3z M183.8,227.5c0,1.8,0.4,3.2,1.3,4.1s1.9,1.4,3.2,1.4
						c1.3,0,2.3-0.5,3.2-1.4c0.8-1,1.3-2.3,1.3-4.2c0-1.8-0.4-3.1-1.3-4.1c-0.8-1-1.9-1.4-3.2-1.4c-1.3,0-2.3,0.5-3.2,1.4
						S183.8,225.7,183.8,227.5z"/>
					<path class="st11" d="M199.2,218.5h2.7v-1.4c0-1.5,0.2-2.7,0.5-3.4c0.3-0.8,0.9-1.4,1.8-1.8c0.9-0.5,2-0.7,3.3-0.7
						c1.4,0,2.7,0.2,4,0.6l-0.6,3.3c-0.8-0.2-1.5-0.3-2.2-0.3c-0.7,0-1.2,0.2-1.5,0.5c-0.3,0.3-0.5,0.9-0.5,1.9v1.3h3.6v3.8h-3.6
						v14.4h-4.8v-14.4h-2.7V218.5z"/>
					<path class="st11" d="M227.3,236.6h-4.8v-18.1h4.5v2.6c0.8-1.2,1.4-2,2.1-2.4c0.6-0.4,1.3-0.6,2.1-0.6c1.1,0,2.1,0.3,3.2,0.9
						l-1.5,4.2c-0.8-0.5-1.6-0.8-2.3-0.8c-0.7,0-1.2,0.2-1.7,0.6c-0.5,0.4-0.8,1-1.1,2c-0.3,1-0.4,3-0.4,6.1V236.6z"/>
					<path class="st11" d="M235.2,227.3c0-1.6,0.4-3.1,1.2-4.6c0.8-1.5,1.9-2.6,3.3-3.4c1.4-0.8,3.1-1.2,4.8-1.2
						c2.7,0,5,0.9,6.8,2.7c1.8,1.8,2.6,4,2.6,6.8c0,2.7-0.9,5-2.7,6.8c-1.8,1.8-4,2.7-6.7,2.7c-1.7,0-3.2-0.4-4.8-1.1
						c-1.5-0.8-2.7-1.9-3.4-3.3C235.6,231.1,235.2,229.4,235.2,227.3z M240.1,227.5c0,1.8,0.4,3.2,1.3,4.1s1.9,1.4,3.2,1.4
						c1.3,0,2.3-0.5,3.2-1.4c0.8-1,1.3-2.3,1.3-4.2c0-1.8-0.4-3.1-1.3-4.1c-0.8-1-1.9-1.4-3.2-1.4c-1.3,0-2.3,0.5-3.2,1.4
						S240.1,225.7,240.1,227.5z"/>
					<path class="st11" d="M257.7,236.6v-25.1h4.8v25.1H257.7z"/>
					<path class="st11" d="M277.9,230.8l4.8,0.8c-0.6,1.8-1.6,3.1-2.9,4c-1.3,0.9-3,1.4-5,1.4c-3.2,0-5.5-1-7-3.1
						c-1.2-1.7-1.8-3.7-1.8-6.3c0-3,0.8-5.4,2.4-7.1c1.6-1.7,3.6-2.6,6-2.6c2.7,0,4.8,0.9,6.4,2.7c1.6,1.8,2.3,4.5,2.2,8.2h-12
						c0,1.4,0.4,2.5,1.2,3.3c0.7,0.8,1.7,1.2,2.8,1.2c0.8,0,1.4-0.2,1.9-0.6S277.7,231.7,277.9,230.8z M278.2,226
						c0-1.4-0.4-2.4-1.1-3.2s-1.5-1.1-2.5-1.1c-1,0-1.9,0.4-2.6,1.1c-0.7,0.8-1,1.8-1,3.1H278.2z"/>
					<path class="st11" d="M285.2,231.4l4.8-0.7c0.2,0.9,0.6,1.6,1.2,2.1c0.6,0.5,1.5,0.7,2.6,0.7c1.2,0,2.2-0.2,2.8-0.7
						c0.4-0.3,0.6-0.7,0.6-1.3c0-0.4-0.1-0.7-0.3-0.9c-0.2-0.2-0.8-0.4-1.6-0.6c-3.9-0.9-6.3-1.6-7.4-2.3c-1.4-1-2.2-2.3-2.2-4.1
						c0-1.6,0.6-2.9,1.9-4c1.2-1.1,3.2-1.6,5.8-1.6c2.5,0,4.3,0.4,5.5,1.2c1.2,0.8,2,2,2.5,3.6l-4.5,0.8c-0.2-0.7-0.6-1.2-1.1-1.6
						c-0.5-0.4-1.3-0.6-2.3-0.6c-1.3,0-2.2,0.2-2.7,0.5c-0.4,0.3-0.5,0.6-0.5,1c0,0.3,0.2,0.6,0.5,0.9c0.4,0.3,1.9,0.8,4.5,1.4
						c2.6,0.6,4.3,1.3,5.4,2.1c1,0.9,1.5,2,1.5,3.6c0,1.7-0.7,3.1-2.1,4.3c-1.4,1.2-3.4,1.8-6.2,1.8c-2.5,0-4.4-0.5-5.9-1.5
						C286.6,234.5,285.7,233.1,285.2,231.4z"/>
					<path class="st11" d="M315,227.3c0-1.6,0.4-3.1,1.2-4.6c0.8-1.5,1.9-2.6,3.3-3.4c1.4-0.8,3.1-1.2,4.8-1.2c2.7,0,5,0.9,6.8,2.7
						c1.8,1.8,2.6,4,2.6,6.8c0,2.7-0.9,5-2.7,6.8c-1.8,1.8-4,2.7-6.7,2.7c-1.7,0-3.2-0.4-4.8-1.1c-1.5-0.8-2.7-1.9-3.4-3.3
						C315.4,231.1,315,229.4,315,227.3z M319.9,227.5c0,1.8,0.4,3.2,1.3,4.1s1.9,1.4,3.2,1.4c1.3,0,2.3-0.5,3.2-1.4
						c0.8-1,1.3-2.3,1.3-4.2c0-1.8-0.4-3.1-1.3-4.1c-0.8-1-1.9-1.4-3.2-1.4c-1.3,0-2.3,0.5-3.2,1.4S319.9,225.7,319.9,227.5z"/>
					<path class="st11" d="M335.4,218.5h2.7v-1.4c0-1.5,0.2-2.7,0.5-3.4c0.3-0.8,0.9-1.4,1.8-1.8c0.9-0.5,2-0.7,3.3-0.7
						c1.4,0,2.7,0.2,4,0.6l-0.6,3.3c-0.8-0.2-1.5-0.3-2.2-0.3c-0.7,0-1.2,0.2-1.5,0.5c-0.3,0.3-0.5,0.9-0.5,1.9v1.3h3.6v3.8h-3.6
						v14.4H338v-14.4h-2.7V218.5z"/>
					<path class="st11" d="M187.2,271.6l-5.7-18.1h4.7l3.4,11.9l3.1-11.9h4.6l3,11.9l3.5-11.9h4.7l-5.8,18.1h-4.6l-3.1-11.7
						l-3.1,11.7H187.2z"/>
					<path class="st11" d="M209.9,262.3c0-1.6,0.4-3.1,1.2-4.6c0.8-1.5,1.9-2.6,3.3-3.4c1.4-0.8,3.1-1.2,4.8-1.2
						c2.7,0,5,0.9,6.8,2.7c1.8,1.8,2.6,4,2.6,6.8c0,2.7-0.9,5-2.7,6.8c-1.8,1.8-4,2.7-6.7,2.7c-1.7,0-3.2-0.4-4.8-1.1
						c-1.5-0.8-2.7-1.9-3.4-3.3C210.3,266.1,209.9,264.4,209.9,262.3z M214.9,262.5c0,1.8,0.4,3.2,1.3,4.1s1.9,1.4,3.2,1.4
						c1.3,0,2.3-0.5,3.2-1.4c0.8-1,1.3-2.3,1.3-4.2c0-1.8-0.4-3.1-1.3-4.1c-0.8-1-1.9-1.4-3.2-1.4c-1.3,0-2.3,0.5-3.2,1.4
						S214.9,260.7,214.9,262.5z"/>
					<path class="st11" d="M232.1,253.5h4.4v2.5c1.6-1.9,3.5-2.9,5.7-2.9c1.2,0,2.2,0.2,3,0.7s1.6,1.2,2.1,2.2
						c0.8-1,1.7-1.7,2.6-2.2s1.9-0.7,3-0.7c1.3,0,2.5,0.3,3.4,0.8c0.9,0.5,1.6,1.3,2.1,2.4c0.3,0.8,0.5,2,0.5,3.8v11.6H254v-10.4
						c0-1.8-0.2-3-0.5-3.5c-0.4-0.7-1.1-1-2.1-1c-0.7,0-1.3,0.2-1.9,0.6c-0.6,0.4-1,1-1.3,1.8c-0.3,0.8-0.4,2-0.4,3.8v8.7H243v-9.9
						c0-1.8-0.1-2.9-0.3-3.4s-0.4-0.9-0.8-1.1c-0.4-0.2-0.8-0.4-1.5-0.4c-0.7,0-1.4,0.2-2,0.6c-0.6,0.4-1,1-1.3,1.7
						c-0.3,0.8-0.4,2-0.4,3.7v8.8h-4.8V253.5z"/>
					<path class="st11" d="M274.1,265.8l4.8,0.8c-0.6,1.8-1.6,3.1-2.9,4c-1.3,0.9-3,1.4-5,1.4c-3.2,0-5.5-1-7-3.1
						c-1.2-1.7-1.8-3.7-1.8-6.3c0-3,0.8-5.4,2.4-7.1c1.6-1.7,3.6-2.6,6-2.6c2.7,0,4.8,0.9,6.4,2.7c1.6,1.8,2.3,4.5,2.2,8.2h-12
						c0,1.4,0.4,2.5,1.2,3.3c0.7,0.8,1.7,1.2,2.8,1.2c0.8,0,1.4-0.2,1.9-0.6S273.8,266.7,274.1,265.8z M274.3,261
						c0-1.4-0.4-2.4-1.1-3.2s-1.5-1.1-2.5-1.1c-1,0-1.9,0.4-2.6,1.1c-0.7,0.8-1,1.8-1,3.1H274.3z"/>
					<path class="st11" d="M299.5,271.6h-4.8v-9.3c0-2-0.1-3.2-0.3-3.8c-0.2-0.6-0.5-1-1-1.3c-0.5-0.3-1-0.5-1.7-0.5
						c-0.8,0-1.6,0.2-2.2,0.7c-0.7,0.5-1.1,1.1-1.4,1.8s-0.4,2.1-0.4,4.2v8.2H283v-18.1h4.5v2.7c1.6-2.1,3.6-3.1,6-3.1
						c1.1,0,2,0.2,2.9,0.6c0.9,0.4,1.5,0.9,2,1.5c0.4,0.6,0.8,1.3,0.9,2s0.3,1.8,0.3,3.2V271.6z"/>
					<path class="st11" d="M317.7,259l-4.4-0.8c0.5-1.8,1.3-3.1,2.5-3.9c1.2-0.8,3-1.3,5.3-1.3c2.1,0,3.7,0.3,4.8,0.8
						c1,0.5,1.8,1.2,2.2,1.9c0.4,0.8,0.6,2.2,0.6,4.3l-0.1,5.6c0,1.6,0.1,2.8,0.2,3.5c0.2,0.8,0.4,1.6,0.9,2.4h-4.8
						c-0.1-0.3-0.3-0.8-0.5-1.4c-0.1-0.3-0.1-0.5-0.2-0.6c-0.8,0.8-1.7,1.4-2.6,1.8c-0.9,0.4-1.9,0.6-3,0.6c-1.9,0-3.3-0.5-4.4-1.5
						c-1.1-1-1.6-2.3-1.6-3.8c0-1,0.2-1.9,0.7-2.7c0.5-0.8,1.2-1.4,2.1-1.8c0.9-0.4,2.2-0.8,3.8-1.1c2.2-0.4,3.8-0.8,4.7-1.2v-0.5
						c0-0.9-0.2-1.6-0.7-2c-0.5-0.4-1.3-0.6-2.6-0.6c-0.9,0-1.5,0.2-2,0.5S318,258.2,317.7,259z M324.1,262.9
						c-0.6,0.2-1.6,0.5-2.9,0.7c-1.3,0.3-2.2,0.6-2.6,0.8c-0.6,0.4-0.9,1-0.9,1.7c0,0.7,0.3,1.3,0.8,1.7c0.5,0.5,1.1,0.7,1.9,0.7
						c0.9,0,1.7-0.3,2.5-0.9c0.6-0.4,1-1,1.1-1.6c0.1-0.4,0.2-1.2,0.2-2.3V262.9z"/>
					<path class="st11" d="M341.9,253.5v3.8h-3.3v7.3c0,1.5,0,2.3,0.1,2.6c0.1,0.2,0.2,0.4,0.4,0.6c0.2,0.2,0.5,0.2,0.8,0.2
						c0.4,0,1.1-0.2,1.9-0.5l0.4,3.7c-1.1,0.5-2.4,0.7-3.8,0.7c-0.9,0-1.6-0.1-2.3-0.4c-0.7-0.3-1.2-0.7-1.5-1.1
						c-0.3-0.5-0.6-1.1-0.7-1.9c-0.1-0.6-0.2-1.7-0.2-3.4v-7.9h-2.2v-3.8h2.2v-3.6l4.8-2.8v6.4H341.9z"/>
					<path class="st11" d="M179.9,306.6v-25.1h7.6l4.5,17.1l4.5-17.1h7.6v25.1h-4.7v-19.7l-5,19.7h-4.9l-5-19.7v19.7H179.9z"/>
					<path class="st11" d="M219.6,300.8l4.8,0.8c-0.6,1.8-1.6,3.1-2.9,4c-1.3,0.9-3,1.4-5,1.4c-3.2,0-5.5-1-7-3.1
						c-1.2-1.7-1.8-3.7-1.8-6.3c0-3,0.8-5.4,2.4-7.1c1.6-1.7,3.6-2.6,6-2.6c2.7,0,4.8,0.9,6.4,2.7c1.6,1.8,2.3,4.5,2.2,8.2h-12
						c0,1.4,0.4,2.5,1.2,3.3c0.7,0.8,1.7,1.2,2.8,1.2c0.8,0,1.4-0.2,1.9-0.6S219.3,301.7,219.6,300.8z M219.9,296
						c0-1.4-0.4-2.4-1.1-3.2s-1.5-1.1-2.5-1.1c-1,0-1.9,0.4-2.6,1.1c-0.7,0.8-1,1.8-1,3.1H219.9z"/>
					<path class="st11" d="M226.2,306.6l6.5-9.3l-6.3-8.8h5.9l3.2,5l3.4-5h5.6l-6.2,8.6l6.7,9.6h-5.9l-3.7-5.6l-3.7,5.6H226.2z"/>
					<path class="st11" d="M248,286v-4.4h4.8v4.4H248z M248,306.6v-18.1h4.8v18.1H248z"/>
					<path class="st11" d="M273.6,293.8l-4.7,0.9c-0.2-0.9-0.5-1.7-1.1-2.1c-0.6-0.5-1.3-0.7-2.2-0.7c-1.2,0-2.2,0.4-2.9,1.2
						c-0.7,0.8-1.1,2.2-1.1,4.1c0,2.2,0.4,3.7,1.1,4.6s1.7,1.3,2.9,1.3c0.9,0,1.7-0.3,2.2-0.8c0.6-0.5,1-1.4,1.2-2.7l4.7,0.8
						c-0.5,2.2-1.4,3.8-2.8,4.9c-1.4,1.1-3.3,1.7-5.6,1.7c-2.7,0-4.8-0.8-6.3-2.5c-1.6-1.7-2.4-4-2.4-7c0-3,0.8-5.3,2.4-7
						c1.6-1.7,3.7-2.5,6.4-2.5c2.2,0,4,0.5,5.3,1.4C272,290.4,273,291.9,273.6,293.8z"/>
					<path class="st11" d="M282,281.6v9.2c1.5-1.8,3.4-2.7,5.6-2.7c1.1,0,2.1,0.2,3,0.6s1.6,0.9,2,1.6c0.4,0.6,0.8,1.3,0.9,2.1
						c0.2,0.8,0.2,2,0.2,3.6v10.6h-4.8V297c0-1.9-0.1-3.1-0.3-3.6c-0.2-0.5-0.5-0.9-1-1.2c-0.5-0.3-1-0.5-1.7-0.5
						c-0.8,0-1.5,0.2-2.1,0.6c-0.6,0.4-1.1,1-1.4,1.8c-0.3,0.8-0.4,1.9-0.4,3.5v9.1h-4.8v-25.1H282z"/>
					<path class="st11" d="M309.1,300.8l4.8,0.8c-0.6,1.8-1.6,3.1-2.9,4c-1.3,0.9-3,1.4-5,1.4c-3.2,0-5.5-1-7-3.1
						c-1.2-1.7-1.8-3.7-1.8-6.3c0-3,0.8-5.4,2.4-7.1c1.6-1.7,3.6-2.6,6-2.6c2.7,0,4.8,0.9,6.4,2.7c1.6,1.8,2.3,4.5,2.2,8.2h-12
						c0,1.4,0.4,2.5,1.2,3.3c0.7,0.8,1.7,1.2,2.8,1.2c0.8,0,1.4-0.2,1.9-0.6S308.8,301.7,309.1,300.8z M309.4,296
						c0-1.4-0.4-2.4-1.1-3.2s-1.5-1.1-2.5-1.1c-1,0-1.9,0.4-2.6,1.1c-0.7,0.8-1,1.8-1,3.1H309.4z"/>
					<path class="st11" d="M317.7,288.5h4.4v2.5c1.6-1.9,3.5-2.9,5.7-2.9c1.2,0,2.2,0.2,3,0.7s1.6,1.2,2.1,2.2
						c0.8-1,1.7-1.7,2.6-2.2s1.9-0.7,3-0.7c1.3,0,2.5,0.3,3.4,0.8c0.9,0.5,1.6,1.3,2.1,2.4c0.3,0.8,0.5,2,0.5,3.8v11.6h-4.8v-10.4
						c0-1.8-0.2-3-0.5-3.5c-0.4-0.7-1.1-1-2.1-1c-0.7,0-1.3,0.2-1.9,0.6c-0.6,0.4-1,1-1.3,1.8c-0.3,0.8-0.4,2-0.4,3.8v8.7h-4.8v-9.9
						c0-1.8-0.1-2.9-0.3-3.4s-0.4-0.9-0.8-1.1c-0.4-0.2-0.8-0.4-1.5-0.4c-0.7,0-1.4,0.2-2,0.6c-0.6,0.4-1,1-1.3,1.7
						c-0.3,0.8-0.4,2-0.4,3.7v8.8h-4.8V288.5z"/>
					<path class="st11" d="M240.8,337.1v4.5H224c0.2-1.7,0.7-3.3,1.6-4.8c0.9-1.5,2.7-3.5,5.4-6c2.2-2,3.5-3.4,4-4.1
						c0.7-1,1-2,1-2.9c0-1.1-0.3-1.9-0.9-2.5c-0.6-0.6-1.4-0.9-2.4-0.9c-1,0-1.8,0.3-2.4,0.9c-0.6,0.6-0.9,1.6-1,3l-4.8-0.5
						c0.3-2.6,1.2-4.5,2.7-5.7c1.5-1.2,3.4-1.7,5.6-1.7c2.5,0,4.4,0.7,5.8,2c1.4,1.3,2.1,3,2.1,5c0,1.1-0.2,2.2-0.6,3.2
						c-0.4,1-1,2.1-1.9,3.2c-0.6,0.7-1.6,1.8-3.1,3.2c-1.5,1.4-2.5,2.3-2.9,2.8c-0.4,0.5-0.7,0.9-1,1.3H240.8z"/>
					<path class="st11" d="M252.2,316.5c2.4,0,4.3,0.9,5.7,2.6c1.6,2.1,2.4,5.5,2.4,10.2c0,4.7-0.8,8.1-2.5,10.2
						c-1.4,1.7-3.2,2.6-5.7,2.6c-2.4,0-4.4-0.9-5.9-2.8c-1.5-1.9-2.2-5.2-2.2-10c0-4.7,0.8-8.1,2.5-10.2
						C247.8,317.3,249.7,316.5,252.2,316.5z M252.2,320.4c-0.6,0-1.1,0.2-1.6,0.6c-0.5,0.4-0.8,1-1.1,2c-0.3,1.2-0.5,3.3-0.5,6.3
						s0.1,5,0.4,6.1c0.3,1.1,0.7,1.8,1.1,2.2c0.5,0.4,1,0.5,1.5,0.5s1.1-0.2,1.6-0.6c0.5-0.4,0.8-1,1.1-2c0.3-1.2,0.5-3.3,0.5-6.3
						s-0.1-5-0.4-6.1c-0.3-1.1-0.7-1.8-1.1-2.2C253.3,320.6,252.7,320.4,252.2,320.4z"/>
					<path class="st11" d="M275.8,341.6H271v-18.1c-1.8,1.6-3.8,2.9-6.2,3.6v-4.4c1.3-0.4,2.6-1.2,4.1-2.3c1.5-1.1,2.5-2.5,3-4h3.9
						V341.6z"/>
					<path class="st11" d="M287.1,328.1c-1.2-0.5-2.1-1.2-2.7-2.2c-0.6-0.9-0.8-1.9-0.8-3c0-1.9,0.7-3.4,2-4.6
						c1.3-1.2,3.2-1.8,5.6-1.8c2.4,0,4.2,0.6,5.5,1.8c1.3,1.2,2,2.8,2,4.6c0,1.2-0.3,2.2-0.9,3.1c-0.6,0.9-1.5,1.6-2.5,2.1
						c1.4,0.6,2.4,1.4,3.2,2.4c0.7,1.1,1.1,2.3,1.1,3.7c0,2.3-0.7,4.2-2.2,5.6c-1.5,1.4-3.4,2.2-5.9,2.2c-2.3,0-4.2-0.6-5.7-1.8
						c-1.8-1.4-2.7-3.3-2.7-5.8c0-1.4,0.3-2.6,1-3.7C284.6,329.6,285.7,328.7,287.1,328.1z M287.6,334c0,1.3,0.3,2.4,1,3.1
						c0.7,0.7,1.5,1.1,2.5,1.1c1,0,1.8-0.4,2.5-1.1c0.6-0.7,1-1.7,1-3.1c0-1.2-0.3-2.1-1-2.8c-0.7-0.7-1.5-1.1-2.5-1.1
						c-1.2,0-2,0.4-2.6,1.2C287.9,332.2,287.6,333,287.6,334z M288.1,323.3c0,1,0.3,1.7,0.8,2.2c0.5,0.5,1.3,0.8,2.2,0.8
						c0.9,0,1.6-0.3,2.2-0.8s0.8-1.3,0.8-2.2c0-0.9-0.3-1.6-0.8-2.2c-0.5-0.5-1.3-0.8-2.1-0.8c-0.9,0-1.7,0.3-2.2,0.8
						S288.1,322.4,288.1,323.3z"/>
				</g>
			</g>
		</g>
		<g>
			<g>
				<circle class="st3" cx="44.3" cy="269.5" r="44.3"/>
			</g>
			<g>
				<radialGradient id="SVGID_8_" cx="65.3108" cy="249.7564" r="44.4548" gradientUnits="userSpaceOnUse">
					<stop  offset="0" style="stop-color:#FFFFFF"/>
					<stop  offset="0.5053" style="stop-color:#FDFDFE"/>
					<stop  offset="0.6873" style="stop-color:#F6F8F9"/>
					<stop  offset="0.817" style="stop-color:#EBEDF0"/>
					<stop  offset="0.9211" style="stop-color:#DADFE3"/>
					<stop  offset="1" style="stop-color:#C7CFD5"/>
				</radialGradient>
				<circle class="st12" cx="44.5" cy="269.5" r="44.5"/>
				<radialGradient id="SVGID_9_" cx="66.1398" cy="247.2191" r="51.8717" gradientUnits="userSpaceOnUse">
					<stop  offset="0" style="stop-color:#F6F7F8"/>
					<stop  offset="0.4318" style="stop-color:#F4F5F6"/>
					<stop  offset="0.6764" style="stop-color:#EBEEF0"/>
					<stop  offset="0.8736" style="stop-color:#DEE2E6"/>
					<stop  offset="1" style="stop-color:#D0D7DC"/>
				</radialGradient>
				<circle class="st13" cx="44.5" cy="269.5" r="44"/>
				<radialGradient id="SVGID_10_" cx="66.947" cy="244.7391" r="59.5721" gradientUnits="userSpaceOnUse">
					<stop  offset="0" style="stop-color:#ECEFF1"/>
					<stop  offset="0.4869" style="stop-color:#E9ECEE"/>
					<stop  offset="0.8802" style="stop-color:#DFE3E7"/>
					<stop  offset="1" style="stop-color:#DADFE3"/>
				</radialGradient>
				<circle class="st14" cx="44.5" cy="269.5" r="43.5"/>
				<radialGradient id="SVGID_11_" cx="67.7324" cy="242.3163" r="67.5513" gradientUnits="userSpaceOnUse">
					<stop  offset="0" style="stop-color:#E3E7EA"/>
					<stop  offset="1" style="stop-color:#E3E7EA"/>
				</radialGradient>
				<circle class="st15" cx="44.5" cy="269.5" r="43.1"/>
				<radialGradient id="SVGID_12_" cx="68.496" cy="239.9507" r="75.8026" gradientUnits="userSpaceOnUse">
					<stop  offset="0" style="stop-color:#DADFE3"/>
					<stop  offset="0.5245" style="stop-color:#E1E5E8"/>
					<stop  offset="1" style="stop-color:#ECEFF1"/>
				</radialGradient>
				<circle class="st16" cx="44.5" cy="269.5" r="42.6"/>
				<radialGradient id="SVGID_13_" cx="69.2378" cy="237.6423" r="84.3183" gradientUnits="userSpaceOnUse">
					<stop  offset="0" style="stop-color:#D0D7DC"/>
					<stop  offset="0.433" style="stop-color:#DEE3E6"/>
					<stop  offset="1" style="stop-color:#F6F7F8"/>
				</radialGradient>
				<circle class="st17" cx="44.5" cy="269.5" r="42.2"/>
				<radialGradient id="SVGID_14_" cx="69.9578" cy="235.3912" r="93.0895" gradientUnits="userSpaceOnUse">
					<stop  offset="0" style="stop-color:#C7CFD5"/>
					<stop  offset="1" style="stop-color:#FFFFFF"/>
				</radialGradient>
				<circle class="st18" cx="44.5" cy="269.5" r="41.7"/>
			</g>
		</g>
		<g>
			<path class="st19" d="M31,279v2.3H18.3c0-0.6,0.1-1.1,0.3-1.6c0.3-0.9,0.8-1.7,1.6-2.6c0.7-0.8,1.8-1.8,3.1-2.9
				c2.1-1.7,3.5-3.1,4.3-4.1c0.7-1,1.1-2,1.1-2.9c0-0.9-0.3-1.7-1-2.4c-0.7-0.6-1.5-1-2.6-1c-1.1,0-2.1,0.3-2.7,1s-1,1.6-1,2.8
				l-2.4-0.2c0.2-1.8,0.8-3.2,1.9-4.2c1.1-1,2.6-1.4,4.4-1.4c1.9,0,3.3,0.5,4.4,1.5c1.1,1,1.6,2.3,1.6,3.8c0,0.8-0.2,1.5-0.5,2.3
				s-0.8,1.5-1.6,2.4c-0.7,0.8-2,2-3.7,3.4c-1.4,1.2-2.3,2-2.7,2.4c-0.4,0.4-0.7,0.9-1,1.3H31z"/>
			<path class="st19" d="M33.7,264.5v-2.3h12.5v1.8c-1.2,1.3-2.5,3-3.7,5.2c-1.2,2.2-2.1,4.4-2.8,6.7c-0.5,1.6-0.8,3.4-0.9,5.3h-2.4
				c0-1.5,0.3-3.4,0.9-5.5s1.4-4.2,2.5-6.2c1.1-2,2.2-3.7,3.4-5.1H33.7z"/>
			<path class="st19" d="M49,266.6c0-1.4,0.3-2.6,1-3.5c0.7-1,1.7-1.4,3-1.4c1.2,0,2.2,0.4,3,1.3c0.8,0.9,1.2,2.1,1.2,3.8
				c0,1.6-0.4,2.9-1.2,3.8c-0.8,0.9-1.8,1.3-3,1.3c-1.2,0-2.1-0.4-2.9-1.3C49.4,269.6,49,268.3,49,266.6z M53.2,263.2
				c-0.6,0-1.1,0.3-1.5,0.8c-0.4,0.5-0.6,1.4-0.6,2.8c0,1.2,0.2,2.1,0.6,2.6c0.4,0.5,0.9,0.8,1.5,0.8c0.6,0,1.1-0.3,1.5-0.8
				c0.4-0.5,0.6-1.4,0.6-2.8c0-1.2-0.2-2.1-0.6-2.6C54.2,263.5,53.8,263.2,53.2,263.2z M53.2,282l10.6-20.4h1.9L55.1,282H53.2z
				 M61.5,276.7c0-1.4,0.3-2.6,1-3.5c0.7-1,1.7-1.4,3-1.4c1.2,0,2.2,0.4,3,1.3c0.8,0.9,1.2,2.1,1.2,3.8c0,1.6-0.4,2.9-1.2,3.8
				c-0.8,0.9-1.8,1.3-3,1.3c-1.2,0-2.1-0.4-2.9-1.3C61.9,279.8,61.5,278.5,61.5,276.7z M65.7,273.4c-0.6,0-1.1,0.3-1.5,0.8
				c-0.4,0.5-0.6,1.4-0.6,2.8c0,1.2,0.2,2.1,0.6,2.6c0.4,0.5,0.9,0.8,1.5,0.8c0.6,0,1.1-0.3,1.5-0.8c0.4-0.5,0.6-1.4,0.6-2.8
				c0-1.2-0.2-2.1-0.6-2.6C66.8,273.6,66.3,273.4,65.7,273.4z"/>
		</g>
		<g>
			<g>
				<circle class="st3" cx="462.3" cy="330.5" r="44.3"/>
			</g>
			<g>
				<radialGradient id="SVGID_15_" cx="483.2902" cy="310.7534" r="44.4548" gradientUnits="userSpaceOnUse">
					<stop  offset="0" style="stop-color:#FFFFFF"/>
					<stop  offset="0.5053" style="stop-color:#FDFDFE"/>
					<stop  offset="0.6873" style="stop-color:#F6F8F9"/>
					<stop  offset="0.817" style="stop-color:#EBEDF0"/>
					<stop  offset="0.9211" style="stop-color:#DADFE3"/>
					<stop  offset="1" style="stop-color:#C7CFD5"/>
				</radialGradient>
				<circle class="st20" cx="462.4" cy="330.5" r="44.5"/>
				<radialGradient id="SVGID_16_" cx="484.1192" cy="308.2162" r="51.8717" gradientUnits="userSpaceOnUse">
					<stop  offset="0" style="stop-color:#F6F7F8"/>
					<stop  offset="0.4318" style="stop-color:#F4F5F6"/>
					<stop  offset="0.6764" style="stop-color:#EBEEF0"/>
					<stop  offset="0.8736" style="stop-color:#DEE2E6"/>
					<stop  offset="1" style="stop-color:#D0D7DC"/>
				</radialGradient>
				<circle class="st21" cx="462.4" cy="330.5" r="44"/>
				<radialGradient id="SVGID_17_" cx="484.9264" cy="305.7361" r="59.5721" gradientUnits="userSpaceOnUse">
					<stop  offset="0" style="stop-color:#ECEFF1"/>
					<stop  offset="0.4869" style="stop-color:#E9ECEE"/>
					<stop  offset="0.8802" style="stop-color:#DFE3E7"/>
					<stop  offset="1" style="stop-color:#DADFE3"/>
				</radialGradient>
				<circle class="st22" cx="462.4" cy="330.5" r="43.5"/>
				<radialGradient id="SVGID_18_" cx="485.7118" cy="303.3133" r="67.5513" gradientUnits="userSpaceOnUse">
					<stop  offset="0" style="stop-color:#E3E7EA"/>
					<stop  offset="1" style="stop-color:#E3E7EA"/>
				</radialGradient>
				<circle class="st23" cx="462.4" cy="330.5" r="43.1"/>
				<radialGradient id="SVGID_19_" cx="486.4754" cy="300.9478" r="75.8026" gradientUnits="userSpaceOnUse">
					<stop  offset="0" style="stop-color:#DADFE3"/>
					<stop  offset="0.5245" style="stop-color:#E1E5E8"/>
					<stop  offset="1" style="stop-color:#ECEFF1"/>
				</radialGradient>
				<circle class="st24" cx="462.4" cy="330.5" r="42.6"/>
				<radialGradient id="SVGID_20_" cx="487.2172" cy="298.6394" r="84.3183" gradientUnits="userSpaceOnUse">
					<stop  offset="0" style="stop-color:#D0D7DC"/>
					<stop  offset="0.433" style="stop-color:#DEE3E6"/>
					<stop  offset="1" style="stop-color:#F6F7F8"/>
				</radialGradient>
				<circle class="st25" cx="462.4" cy="330.5" r="42.2"/>
				<radialGradient id="SVGID_21_" cx="487.9372" cy="296.3883" r="93.0895" gradientUnits="userSpaceOnUse">
					<stop  offset="0" style="stop-color:#C7CFD5"/>
					<stop  offset="1" style="stop-color:#FFFFFF"/>
				</radialGradient>
				<circle class="st26" cx="462.4" cy="330.5" r="41.7"/>
			</g>
		</g>
		<g>
			<path class="st19" d="M448.8,327.7l-2.4,0.2c-0.2-0.9-0.5-1.6-0.9-2c-0.6-0.7-1.4-1-2.4-1c-0.8,0-1.4,0.2-2,0.6
				c-0.7,0.5-1.3,1.3-1.8,2.4s-0.7,2.5-0.7,4.5c0.6-0.9,1.3-1.5,2.1-1.9s1.7-0.6,2.6-0.6c1.6,0,2.9,0.6,4,1.7
				c1.1,1.2,1.7,2.7,1.7,4.5c0,1.2-0.3,2.3-0.8,3.4c-0.5,1-1.2,1.8-2.2,2.4s-2,0.8-3.1,0.8c-2,0-3.6-0.7-4.8-2.2
				c-1.2-1.5-1.9-3.9-1.9-7.2c0-3.7,0.7-6.5,2.1-8.1c1.2-1.5,2.8-2.2,4.9-2.2c1.5,0,2.8,0.4,3.7,1.3
				C448.1,325,448.7,326.2,448.8,327.7z M439.2,336c0,0.8,0.2,1.6,0.5,2.3c0.3,0.7,0.8,1.3,1.5,1.7c0.6,0.4,1.3,0.6,2,0.6
				c1,0,1.9-0.4,2.6-1.2s1.1-1.9,1.1-3.3c0-1.3-0.4-2.4-1.1-3.2c-0.7-0.8-1.6-1.2-2.7-1.2c-1.1,0-2,0.4-2.7,1.2
				C439.5,333.7,439.2,334.7,439.2,336z"/>
			<path class="st19" d="M464,340v2.3h-12.8c0-0.6,0.1-1.1,0.3-1.6c0.3-0.9,0.8-1.7,1.6-2.6c0.7-0.8,1.8-1.8,3.1-2.9
				c2.1-1.7,3.5-3.1,4.3-4.1c0.7-1,1.1-2,1.1-2.9c0-0.9-0.3-1.7-1-2.4c-0.7-0.6-1.5-1-2.6-1c-1.1,0-2.1,0.3-2.7,1s-1,1.6-1,2.8
				l-2.4-0.2c0.2-1.8,0.8-3.2,1.9-4.2c1.1-1,2.6-1.4,4.4-1.4c1.9,0,3.3,0.5,4.4,1.5c1.1,1,1.6,2.3,1.6,3.8c0,0.8-0.2,1.5-0.5,2.3
				s-0.8,1.5-1.6,2.4c-0.7,0.8-2,2-3.7,3.4c-1.4,1.2-2.3,2-2.7,2.4c-0.4,0.4-0.7,0.9-1,1.3H464z"/>
			<path class="st19" d="M467,327.6c0-1.4,0.3-2.6,1-3.5c0.7-1,1.7-1.4,3-1.4c1.2,0,2.2,0.4,3,1.3c0.8,0.9,1.2,2.1,1.2,3.8
				c0,1.6-0.4,2.9-1.2,3.8c-0.8,0.9-1.8,1.3-3,1.3c-1.2,0-2.1-0.4-2.9-1.3C467.4,330.6,467,329.3,467,327.6z M471.1,324.2
				c-0.6,0-1.1,0.3-1.5,0.8c-0.4,0.5-0.6,1.4-0.6,2.8c0,1.2,0.2,2.1,0.6,2.6c0.4,0.5,0.9,0.8,1.5,0.8c0.6,0,1.1-0.3,1.5-0.8
				c0.4-0.5,0.6-1.4,0.6-2.8c0-1.2-0.2-2.1-0.6-2.6C472.2,324.5,471.7,324.2,471.1,324.2z M471.2,343l10.6-20.4h1.9L473.1,343H471.2
				z M479.5,337.7c0-1.4,0.3-2.6,1-3.5c0.7-1,1.7-1.4,3-1.4c1.2,0,2.2,0.4,3,1.3c0.8,0.9,1.2,2.1,1.2,3.8c0,1.6-0.4,2.9-1.2,3.8
				c-0.8,0.9-1.8,1.3-3,1.3c-1.2,0-2.1-0.4-2.9-1.3C479.9,340.8,479.5,339.5,479.5,337.7z M483.7,334.4c-0.6,0-1.1,0.3-1.5,0.8
				c-0.4,0.5-0.6,1.4-0.6,2.8c0,1.2,0.2,2.1,0.6,2.6c0.4,0.5,0.9,0.8,1.5,0.8c0.6,0,1.1-0.3,1.5-0.8c0.4-0.5,0.6-1.4,0.6-2.8
				c0-1.2-0.2-2.1-0.6-2.6C484.7,334.6,484.2,334.4,483.7,334.4z"/>
		</g>
		<g>
			<g>
				<circle class="st3" cx="174.8" cy="44.5" r="44.3"/>
			</g>
			<g>
				<radialGradient id="SVGID_22_" cx="195.8054" cy="24.7414" r="44.4548" gradientUnits="userSpaceOnUse">
					<stop  offset="0" style="stop-color:#FFFFFF"/>
					<stop  offset="0.5053" style="stop-color:#FDFDFE"/>
					<stop  offset="0.6873" style="stop-color:#F6F8F9"/>
					<stop  offset="0.817" style="stop-color:#EBEDF0"/>
					<stop  offset="0.9211" style="stop-color:#DADFE3"/>
					<stop  offset="1" style="stop-color:#C7CFD5"/>
				</radialGradient>
				<circle class="st27" cx="174.9" cy="44.5" r="44.5"/>
				<radialGradient id="SVGID_23_" cx="196.6345" cy="22.2041" r="51.8717" gradientUnits="userSpaceOnUse">
					<stop  offset="0" style="stop-color:#F6F7F8"/>
					<stop  offset="0.4318" style="stop-color:#F4F5F6"/>
					<stop  offset="0.6764" style="stop-color:#EBEEF0"/>
					<stop  offset="0.8736" style="stop-color:#DEE2E6"/>
					<stop  offset="1" style="stop-color:#D0D7DC"/>
				</radialGradient>
				<circle class="st28" cx="174.9" cy="44.5" r="44"/>
				<radialGradient id="SVGID_24_" cx="197.4417" cy="19.7241" r="59.5721" gradientUnits="userSpaceOnUse">
					<stop  offset="0" style="stop-color:#ECEFF1"/>
					<stop  offset="0.4869" style="stop-color:#E9ECEE"/>
					<stop  offset="0.8802" style="stop-color:#DFE3E7"/>
					<stop  offset="1" style="stop-color:#DADFE3"/>
				</radialGradient>
				<circle class="st29" cx="174.9" cy="44.5" r="43.5"/>
				<radialGradient id="SVGID_25_" cx="198.2271" cy="17.3013" r="67.5513" gradientUnits="userSpaceOnUse">
					<stop  offset="0" style="stop-color:#E3E7EA"/>
					<stop  offset="1" style="stop-color:#E3E7EA"/>
				</radialGradient>
				<circle class="st30" cx="174.9" cy="44.5" r="43.1"/>
				<radialGradient id="SVGID_26_" cx="198.9907" cy="14.9357" r="75.8026" gradientUnits="userSpaceOnUse">
					<stop  offset="0" style="stop-color:#DADFE3"/>
					<stop  offset="0.5245" style="stop-color:#E1E5E8"/>
					<stop  offset="1" style="stop-color:#ECEFF1"/>
				</radialGradient>
				<circle class="st31" cx="174.9" cy="44.5" r="42.6"/>
				<radialGradient id="SVGID_27_" cx="199.7325" cy="12.6274" r="84.3183" gradientUnits="userSpaceOnUse">
					<stop  offset="0" style="stop-color:#D0D7DC"/>
					<stop  offset="0.433" style="stop-color:#DEE3E6"/>
					<stop  offset="1" style="stop-color:#F6F7F8"/>
				</radialGradient>
				<circle class="st32" cx="174.9" cy="44.5" r="42.2"/>
				<radialGradient id="SVGID_28_" cx="200.4525" cy="10.3762" r="93.0895" gradientUnits="userSpaceOnUse">
					<stop  offset="0" style="stop-color:#C7CFD5"/>
					<stop  offset="1" style="stop-color:#FFFFFF"/>
				</radialGradient>
				<circle class="st33" cx="174.9" cy="44.5" r="41.7"/>
			</g>
		</g>
		<g>
			<path class="st19" d="M159,56.2h-2.4V41.1c-0.6,0.5-1.3,1.1-2.2,1.6c-0.9,0.5-1.8,1-2.5,1.2v-2.3c1.3-0.6,2.5-1.4,3.5-2.3
				s1.7-1.7,2.1-2.6h1.5V56.2z"/>
			<path class="st19" d="M172,56.2h-2.4V41.1c-0.6,0.5-1.3,1.1-2.2,1.6c-0.9,0.5-1.8,1-2.5,1.2v-2.3c1.3-0.6,2.5-1.4,3.5-2.3
				s1.7-1.7,2.1-2.6h1.5V56.2z"/>
			<path class="st19" d="M178.5,41.6c0-1.4,0.3-2.6,1-3.5c0.7-1,1.7-1.4,3-1.4c1.2,0,2.2,0.4,3,1.3c0.8,0.9,1.2,2.1,1.2,3.8
				c0,1.6-0.4,2.9-1.2,3.8c-0.8,0.9-1.8,1.3-3,1.3c-1.2,0-2.1-0.4-2.9-1.3C178.9,44.6,178.5,43.3,178.5,41.6z M182.7,38.2
				c-0.6,0-1.1,0.3-1.5,0.8c-0.4,0.5-0.6,1.4-0.6,2.8c0,1.2,0.2,2.1,0.6,2.6c0.4,0.5,0.9,0.8,1.5,0.8c0.6,0,1.1-0.3,1.5-0.8
				c0.4-0.5,0.6-1.4,0.6-2.8c0-1.2-0.2-2.1-0.6-2.6C183.7,38.5,183.2,38.2,182.7,38.2z M182.7,57l10.6-20.4h1.9L184.6,57H182.7z
				 M191,51.7c0-1.4,0.3-2.6,1-3.5c0.7-1,1.7-1.4,3-1.4c1.2,0,2.2,0.4,3,1.3c0.8,0.9,1.2,2.1,1.2,3.8c0,1.6-0.4,2.9-1.2,3.8
				c-0.8,0.9-1.8,1.3-3,1.3c-1.2,0-2.1-0.4-2.9-1.3C191.4,54.8,191,53.5,191,51.7z M195.2,48.4c-0.6,0-1.1,0.3-1.5,0.8
				c-0.4,0.5-0.6,1.4-0.6,2.8c0,1.2,0.2,2.1,0.6,2.6c0.4,0.5,0.9,0.8,1.5,0.8c0.6,0,1.1-0.3,1.5-0.8c0.4-0.5,0.6-1.4,0.6-2.8
				c0-1.2-0.2-2.1-0.6-2.6C196.2,48.6,195.8,48.4,195.2,48.4z"/>
		</g>
	</g>
	<g>
		<path class="st19" d="M224.4,28.1V16h3.7l2.2,8.3l2.2-8.3h3.7v12.2h-2.3v-9.6l-2.4,9.6h-2.4l-2.4-9.6v9.6H224.4z"/>
		<path class="st19" d="M240.3,22l-2.1-0.4c0.2-0.9,0.6-1.5,1.2-1.9s1.4-0.6,2.6-0.6c1,0,1.8,0.1,2.3,0.4s0.9,0.6,1.1,0.9
			c0.2,0.4,0.3,1.1,0.3,2.1l0,2.7c0,0.8,0,1.3,0.1,1.7c0.1,0.4,0.2,0.8,0.4,1.2h-2.3c-0.1-0.2-0.1-0.4-0.2-0.7
			c0-0.1-0.1-0.2-0.1-0.3c-0.4,0.4-0.8,0.7-1.3,0.9c-0.5,0.2-0.9,0.3-1.5,0.3c-0.9,0-1.6-0.2-2.1-0.7c-0.5-0.5-0.8-1.1-0.8-1.9
			c0-0.5,0.1-0.9,0.4-1.3c0.2-0.4,0.6-0.7,1-0.9c0.4-0.2,1-0.4,1.9-0.5c1.1-0.2,1.8-0.4,2.3-0.6v-0.2c0-0.4-0.1-0.8-0.3-1
			c-0.2-0.2-0.6-0.3-1.3-0.3c-0.4,0-0.7,0.1-1,0.2S240.5,21.6,240.3,22z M243.4,23.9c-0.3,0.1-0.8,0.2-1.4,0.4
			c-0.6,0.1-1.1,0.3-1.3,0.4c-0.3,0.2-0.5,0.5-0.5,0.8c0,0.3,0.1,0.6,0.4,0.8c0.2,0.2,0.6,0.4,0.9,0.4c0.4,0,0.8-0.1,1.2-0.4
			c0.3-0.2,0.5-0.5,0.6-0.8c0.1-0.2,0.1-0.6,0.1-1.1V23.9z"/>
		<path class="st19" d="M256,28.1h-2.3v-4.5c0-1,0-1.6-0.1-1.8s-0.3-0.5-0.5-0.7c-0.2-0.2-0.5-0.2-0.8-0.2c-0.4,0-0.8,0.1-1.1,0.3
			c-0.3,0.2-0.5,0.5-0.7,0.9s-0.2,1-0.2,2v4H248v-8.8h2.2v1.3c0.8-1,1.7-1.5,2.9-1.5c0.5,0,1,0.1,1.4,0.3s0.7,0.4,1,0.7
			c0.2,0.3,0.4,0.6,0.5,1s0.1,0.9,0.1,1.6V28.1z"/>
		<path class="st19" d="M260.2,22l-2.1-0.4c0.2-0.9,0.6-1.5,1.2-1.9s1.4-0.6,2.6-0.6c1,0,1.8,0.1,2.3,0.4s0.9,0.6,1.1,0.9
			c0.2,0.4,0.3,1.1,0.3,2.1l0,2.7c0,0.8,0,1.3,0.1,1.7c0.1,0.4,0.2,0.8,0.4,1.2h-2.3c-0.1-0.2-0.1-0.4-0.2-0.7
			c0-0.1-0.1-0.2-0.1-0.3c-0.4,0.4-0.8,0.7-1.3,0.9c-0.5,0.2-0.9,0.3-1.5,0.3c-0.9,0-1.6-0.2-2.1-0.7c-0.5-0.5-0.8-1.1-0.8-1.9
			c0-0.5,0.1-0.9,0.4-1.3c0.2-0.4,0.6-0.7,1-0.9c0.4-0.2,1-0.4,1.9-0.5c1.1-0.2,1.8-0.4,2.3-0.6v-0.2c0-0.4-0.1-0.8-0.3-1
			c-0.2-0.2-0.6-0.3-1.3-0.3c-0.4,0-0.7,0.1-1,0.2S260.3,21.6,260.2,22z M263.3,23.9c-0.3,0.1-0.8,0.2-1.4,0.4
			c-0.6,0.1-1.1,0.3-1.3,0.4c-0.3,0.2-0.5,0.5-0.5,0.8c0,0.3,0.1,0.6,0.4,0.8c0.2,0.2,0.6,0.4,0.9,0.4c0.4,0,0.8-0.1,1.2-0.4
			c0.3-0.2,0.5-0.5,0.6-0.8c0.1-0.2,0.1-0.6,0.1-1.1V23.9z"/>
		<path class="st19" d="M267.6,28.7l2.7,0.3c0,0.3,0.1,0.5,0.3,0.6c0.2,0.2,0.6,0.2,1,0.2c0.6,0,1.1-0.1,1.4-0.3
			c0.2-0.1,0.4-0.3,0.5-0.6c0.1-0.2,0.1-0.6,0.1-1.1v-1.3c-0.7,1-1.6,1.4-2.6,1.4c-1.2,0-2.1-0.5-2.8-1.5c-0.5-0.8-0.8-1.8-0.8-3
			c0-1.5,0.4-2.6,1.1-3.4c0.7-0.8,1.6-1.2,2.7-1.2c1.1,0,2,0.5,2.7,1.4v-1.2h2.2v7.9c0,1-0.1,1.8-0.3,2.3c-0.2,0.5-0.4,0.9-0.7,1.2
			s-0.7,0.5-1.2,0.7s-1.2,0.2-2,0.2c-1.5,0-2.6-0.3-3.2-0.8c-0.6-0.5-0.9-1.2-0.9-1.9C267.6,28.9,267.6,28.8,267.6,28.7z
			 M269.7,23.5c0,0.9,0.2,1.6,0.5,2.1s0.8,0.7,1.3,0.7c0.6,0,1.1-0.2,1.4-0.7c0.4-0.4,0.6-1.1,0.6-2c0-0.9-0.2-1.6-0.6-2
			c-0.4-0.4-0.9-0.7-1.4-0.7c-0.6,0-1,0.2-1.4,0.7S269.7,22.6,269.7,23.5z"/>
		<path class="st19" d="M283.4,25.3l2.3,0.4c-0.3,0.9-0.8,1.5-1.4,1.9s-1.5,0.7-2.4,0.7c-1.5,0-2.7-0.5-3.4-1.5
			c-0.6-0.8-0.9-1.8-0.9-3c0-1.5,0.4-2.6,1.1-3.4s1.7-1.2,2.9-1.2c1.3,0,2.3,0.4,3.1,1.3s1.1,2.2,1.1,4H280c0,0.7,0.2,1.2,0.6,1.6
			c0.4,0.4,0.8,0.6,1.3,0.6c0.4,0,0.7-0.1,0.9-0.3S283.2,25.8,283.4,25.3z M283.5,23c0-0.7-0.2-1.2-0.5-1.5s-0.7-0.5-1.2-0.5
			c-0.5,0-0.9,0.2-1.3,0.6S280,22.3,280,23H283.5z"/>
		<path class="st19" d="M289.9,28.1h-2.3v-8.8h2.2v1.3c0.4-0.6,0.7-1,1-1.2s0.6-0.3,1-0.3c0.5,0,1,0.1,1.5,0.4l-0.7,2
			c-0.4-0.3-0.8-0.4-1.1-0.4c-0.3,0-0.6,0.1-0.8,0.3s-0.4,0.5-0.5,1s-0.2,1.5-0.2,3V28.1z"/>
		<path class="st19" d="M293.5,25.6l2.3-0.4c0.1,0.5,0.3,0.8,0.6,1c0.3,0.2,0.7,0.4,1.3,0.4c0.6,0,1.1-0.1,1.4-0.3
			c0.2-0.2,0.3-0.4,0.3-0.6c0-0.2-0.1-0.3-0.2-0.4c-0.1-0.1-0.4-0.2-0.8-0.3c-1.9-0.4-3.1-0.8-3.6-1.1c-0.7-0.5-1-1.1-1-2
			c0-0.8,0.3-1.4,0.9-1.9s1.5-0.8,2.8-0.8c1.2,0,2.1,0.2,2.7,0.6c0.6,0.4,1,1,1.2,1.7l-2.2,0.4c-0.1-0.3-0.3-0.6-0.5-0.8
			c-0.3-0.2-0.6-0.3-1.1-0.3c-0.6,0-1.1,0.1-1.3,0.3c-0.2,0.1-0.3,0.3-0.3,0.5c0,0.2,0.1,0.3,0.2,0.4c0.2,0.2,0.9,0.4,2.2,0.7
			s2.1,0.6,2.6,1c0.5,0.4,0.7,1,0.7,1.7c0,0.8-0.3,1.5-1,2.1c-0.7,0.6-1.7,0.9-3,0.9c-1.2,0-2.2-0.2-2.9-0.7S293.7,26.4,293.5,25.6z
			"/>
	</g>
	<g>
		<g>
			<path class="st19" d="M8.3,208.5c0-1.2,0.2-2.3,0.6-3.1c0.3-0.6,0.7-1.2,1.1-1.7c0.5-0.5,1-0.9,1.6-1.1c0.8-0.3,1.6-0.5,2.6-0.5
				c1.8,0,3.2,0.6,4.3,1.7s1.6,2.7,1.6,4.6c0,2-0.5,3.5-1.6,4.6s-2.5,1.7-4.3,1.7c-1.8,0-3.2-0.6-4.3-1.7
				C8.8,211.9,8.3,210.4,8.3,208.5z M10.8,208.4c0,1.4,0.3,2.4,1,3.1c0.6,0.7,1.4,1.1,2.4,1.1c1,0,1.8-0.4,2.4-1.1
				c0.6-0.7,0.9-1.8,0.9-3.2c0-1.4-0.3-2.4-0.9-3.1s-1.4-1-2.4-1c-1,0-1.8,0.3-2.4,1S10.8,207,10.8,208.4z"/>
			<path class="st19" d="M26,205.7v1.9h-1.6v3.6c0,0.7,0,1.1,0,1.3s0.1,0.2,0.2,0.3c0.1,0.1,0.2,0.1,0.4,0.1c0.2,0,0.5-0.1,0.9-0.2
				l0.2,1.8c-0.5,0.2-1.2,0.3-1.8,0.3c-0.4,0-0.8-0.1-1.1-0.2c-0.3-0.1-0.6-0.3-0.7-0.5c-0.2-0.2-0.3-0.5-0.3-0.9
				c0-0.3-0.1-0.8-0.1-1.6v-3.8H21v-1.9h1.1v-1.8l2.3-1.4v3.1H26z"/>
			<path class="st19" d="M30,202.3v4.5c0.8-0.9,1.7-1.3,2.7-1.3c0.5,0,1,0.1,1.5,0.3s0.8,0.5,1,0.8s0.4,0.7,0.4,1s0.1,1,0.1,1.8v5.2
				h-2.3v-4.7c0-0.9,0-1.5-0.1-1.8c-0.1-0.2-0.2-0.4-0.5-0.6c-0.2-0.1-0.5-0.2-0.8-0.2c-0.4,0-0.7,0.1-1,0.3
				c-0.3,0.2-0.5,0.5-0.7,0.9c-0.1,0.4-0.2,0.9-0.2,1.7v4.4h-2.3v-12.2H30z"/>
			<path class="st19" d="M43.1,211.7l2.3,0.4c-0.3,0.9-0.8,1.5-1.4,1.9s-1.5,0.7-2.4,0.7c-1.5,0-2.7-0.5-3.4-1.5
				c-0.6-0.8-0.9-1.8-0.9-3c0-1.5,0.4-2.6,1.1-3.4s1.7-1.2,2.9-1.2c1.3,0,2.3,0.4,3.1,1.3s1.1,2.2,1.1,4h-5.8c0,0.7,0.2,1.2,0.6,1.6
				c0.4,0.4,0.8,0.6,1.3,0.6c0.4,0,0.7-0.1,0.9-0.3S43,212.1,43.1,211.7z M43.3,209.3c0-0.7-0.2-1.2-0.5-1.5s-0.7-0.5-1.2-0.5
				c-0.5,0-0.9,0.2-1.3,0.6s-0.5,0.9-0.5,1.5H43.3z"/>
			<path class="st19" d="M49.7,214.5h-2.3v-8.8h2.2v1.3c0.4-0.6,0.7-1,1-1.2s0.6-0.3,1-0.3c0.5,0,1,0.1,1.5,0.4l-0.7,2
				c-0.4-0.3-0.8-0.4-1.1-0.4c-0.3,0-0.6,0.1-0.8,0.3s-0.4,0.5-0.5,1s-0.2,1.5-0.2,3V214.5z"/>
		</g>
	</g>
	<g>
		<g>
			<path class="st19" d="M425.7,398.5v-12.2h3.9c1.5,0,2.5,0.1,2.9,0.2c0.7,0.2,1.3,0.6,1.8,1.2c0.5,0.6,0.7,1.4,0.7,2.4
				c0,0.7-0.1,1.4-0.4,1.9c-0.3,0.5-0.6,0.9-1,1.2c-0.4,0.3-0.8,0.5-1.3,0.6c-0.6,0.1-1.4,0.2-2.5,0.2h-1.6v4.6H425.7z M428.1,388.3
				v3.5h1.3c1,0,1.6-0.1,1.9-0.2c0.3-0.1,0.6-0.3,0.8-0.6c0.2-0.3,0.3-0.6,0.3-0.9c0-0.4-0.1-0.8-0.4-1.1c-0.3-0.3-0.6-0.5-1-0.5
				c-0.3-0.1-0.9-0.1-1.8-0.1H428.1z"/>
			<path class="st19" d="M439.2,398.5h-2.3v-8.8h2.2v1.3c0.4-0.6,0.7-1,1-1.2s0.6-0.3,1-0.3c0.5,0,1,0.1,1.5,0.4l-0.7,2
				c-0.4-0.3-0.8-0.4-1.1-0.4c-0.3,0-0.6,0.1-0.8,0.3s-0.4,0.5-0.5,1s-0.2,1.5-0.2,3V398.5z"/>
			<path class="st19" d="M443.1,393.9c0-0.8,0.2-1.5,0.6-2.2c0.4-0.7,0.9-1.3,1.6-1.7c0.7-0.4,1.5-0.6,2.3-0.6
				c1.3,0,2.4,0.4,3.3,1.3s1.3,2,1.3,3.3c0,1.3-0.4,2.4-1.3,3.3s-1.9,1.3-3.2,1.3c-0.8,0-1.6-0.2-2.3-0.5s-1.3-0.9-1.7-1.6
				C443.3,395.8,443.1,394.9,443.1,393.9z M445.5,394c0,0.9,0.2,1.5,0.6,2c0.4,0.5,0.9,0.7,1.5,0.7s1.1-0.2,1.5-0.7s0.6-1.1,0.6-2
				c0-0.9-0.2-1.5-0.6-2s-0.9-0.7-1.5-0.7s-1.1,0.2-1.5,0.7C445.7,392.5,445.5,393.2,445.5,394z"/>
			<path class="st19" d="M453,389.6h1.3V389c0-0.7,0.1-1.3,0.2-1.7c0.2-0.4,0.4-0.7,0.9-0.9c0.4-0.2,1-0.3,1.6-0.3
				c0.7,0,1.3,0.1,2,0.3l-0.3,1.6c-0.4-0.1-0.7-0.1-1.1-0.1c-0.3,0-0.6,0.1-0.7,0.2c-0.1,0.2-0.2,0.5-0.2,0.9v0.6h1.7v1.8h-1.7v7
				h-2.3v-7H453V389.6z"/>
			<path class="st19" d="M464.8,395.7l2.3,0.4c-0.3,0.9-0.8,1.5-1.4,1.9s-1.5,0.7-2.4,0.7c-1.5,0-2.7-0.5-3.4-1.5
				c-0.6-0.8-0.9-1.8-0.9-3c0-1.5,0.4-2.6,1.1-3.4s1.7-1.2,2.9-1.2c1.3,0,2.3,0.4,3.1,1.3s1.1,2.2,1.1,4h-5.8c0,0.7,0.2,1.2,0.6,1.6
				c0.4,0.4,0.8,0.6,1.3,0.6c0.4,0,0.7-0.1,0.9-0.3S464.6,396.1,464.8,395.7z M464.9,393.3c0-0.7-0.2-1.2-0.5-1.5s-0.7-0.5-1.2-0.5
				c-0.5,0-0.9,0.2-1.3,0.6s-0.5,0.9-0.5,1.5H464.9z"/>
			<path class="st19" d="M468.3,395.9l2.3-0.4c0.1,0.5,0.3,0.8,0.6,1c0.3,0.2,0.7,0.4,1.3,0.4c0.6,0,1.1-0.1,1.4-0.3
				c0.2-0.2,0.3-0.4,0.3-0.6c0-0.2-0.1-0.3-0.2-0.4c-0.1-0.1-0.4-0.2-0.8-0.3c-1.9-0.4-3.1-0.8-3.6-1.1c-0.7-0.5-1-1.1-1-2
				c0-0.8,0.3-1.4,0.9-1.9s1.5-0.8,2.8-0.8c1.2,0,2.1,0.2,2.7,0.6c0.6,0.4,1,1,1.2,1.7l-2.2,0.4c-0.1-0.3-0.3-0.6-0.5-0.8
				c-0.3-0.2-0.6-0.3-1.1-0.3c-0.6,0-1.1,0.1-1.3,0.3c-0.2,0.1-0.3,0.3-0.3,0.5c0,0.2,0.1,0.3,0.2,0.4c0.2,0.2,0.9,0.4,2.2,0.7
				s2.1,0.6,2.6,1c0.5,0.4,0.7,1,0.7,1.7c0,0.8-0.3,1.5-1,2.1c-0.7,0.6-1.7,0.9-3,0.9c-1.2,0-2.2-0.2-2.9-0.7
				S468.5,396.8,468.3,395.9z"/>
			<path class="st19" d="M477.7,395.9l2.3-0.4c0.1,0.5,0.3,0.8,0.6,1c0.3,0.2,0.7,0.4,1.3,0.4c0.6,0,1.1-0.1,1.4-0.3
				c0.2-0.2,0.3-0.4,0.3-0.6c0-0.2-0.1-0.3-0.2-0.4c-0.1-0.1-0.4-0.2-0.8-0.3c-1.9-0.4-3.1-0.8-3.6-1.1c-0.7-0.5-1-1.1-1-2
				c0-0.8,0.3-1.4,0.9-1.9s1.5-0.8,2.8-0.8c1.2,0,2.1,0.2,2.7,0.6c0.6,0.4,1,1,1.2,1.7l-2.2,0.4c-0.1-0.3-0.3-0.6-0.5-0.8
				c-0.3-0.2-0.6-0.3-1.1-0.3c-0.6,0-1.1,0.1-1.3,0.3c-0.2,0.1-0.3,0.3-0.3,0.5c0,0.2,0.1,0.3,0.2,0.4c0.2,0.2,0.9,0.4,2.2,0.7
				s2.1,0.6,2.6,1c0.5,0.4,0.7,1,0.7,1.7c0,0.8-0.3,1.5-1,2.1c-0.7,0.6-1.7,0.9-3,0.9c-1.2,0-2.2-0.2-2.9-0.7S478,396.8,477.7,395.9
				z"/>
			<path class="st19" d="M488,388.4v-2.2h2.3v2.2H488z M488,398.5v-8.8h2.3v8.8H488z"/>
			<path class="st19" d="M492.2,393.9c0-0.8,0.2-1.5,0.6-2.2c0.4-0.7,0.9-1.3,1.6-1.7c0.7-0.4,1.5-0.6,2.3-0.6
				c1.3,0,2.4,0.4,3.3,1.3s1.3,2,1.3,3.3c0,1.3-0.4,2.4-1.3,3.3s-1.9,1.3-3.2,1.3c-0.8,0-1.6-0.2-2.3-0.5s-1.3-0.9-1.7-1.6
				C492.4,395.8,492.2,394.9,492.2,393.9z M494.6,394c0,0.9,0.2,1.5,0.6,2c0.4,0.5,0.9,0.7,1.5,0.7s1.1-0.2,1.5-0.7s0.6-1.1,0.6-2
				c0-0.9-0.2-1.5-0.6-2s-0.9-0.7-1.5-0.7s-1.1,0.2-1.5,0.7C494.8,392.5,494.6,393.2,494.6,394z"/>
			<path class="st19" d="M511.1,398.5h-2.3V394c0-1,0-1.6-0.1-1.8s-0.3-0.5-0.5-0.7c-0.2-0.2-0.5-0.2-0.8-0.2
				c-0.4,0-0.8,0.1-1.1,0.3c-0.3,0.2-0.5,0.5-0.7,0.9s-0.2,1-0.2,2v4h-2.3v-8.8h2.2v1.3c0.8-1,1.7-1.5,2.9-1.5c0.5,0,1,0.1,1.4,0.3
				s0.7,0.4,1,0.7c0.2,0.3,0.4,0.6,0.5,1s0.1,0.9,0.1,1.6V398.5z"/>
			<path class="st19" d="M515.2,392.3l-2.1-0.4c0.2-0.9,0.6-1.5,1.2-1.9s1.4-0.6,2.6-0.6c1,0,1.8,0.1,2.3,0.4s0.9,0.6,1.1,0.9
				c0.2,0.4,0.3,1.1,0.3,2.1l0,2.7c0,0.8,0,1.3,0.1,1.7c0.1,0.4,0.2,0.8,0.4,1.2h-2.3c-0.1-0.2-0.1-0.4-0.2-0.7
				c0-0.1-0.1-0.2-0.1-0.3c-0.4,0.4-0.8,0.7-1.3,0.9c-0.5,0.2-0.9,0.3-1.5,0.3c-0.9,0-1.6-0.2-2.1-0.7c-0.5-0.5-0.8-1.1-0.8-1.9
				c0-0.5,0.1-0.9,0.4-1.3c0.2-0.4,0.6-0.7,1-0.9c0.4-0.2,1-0.4,1.9-0.5c1.1-0.2,1.8-0.4,2.3-0.6v-0.2c0-0.4-0.1-0.8-0.3-1
				c-0.2-0.2-0.6-0.3-1.3-0.3c-0.4,0-0.7,0.1-1,0.2S515.4,391.9,515.2,392.3z M518.4,394.2c-0.3,0.1-0.8,0.2-1.4,0.4
				c-0.6,0.1-1.1,0.3-1.3,0.4c-0.3,0.2-0.5,0.5-0.5,0.8c0,0.3,0.1,0.6,0.4,0.8c0.2,0.2,0.6,0.4,0.9,0.4c0.4,0,0.8-0.1,1.2-0.4
				c0.3-0.2,0.5-0.5,0.6-0.8c0.1-0.2,0.1-0.6,0.1-1.1V394.2z"/>
			<path class="st19" d="M523,398.5v-12.2h2.3v12.2H523z"/>
			<path class="st19" d="M526.9,395.9l2.3-0.4c0.1,0.5,0.3,0.8,0.6,1c0.3,0.2,0.7,0.4,1.3,0.4c0.6,0,1.1-0.1,1.4-0.3
				c0.2-0.2,0.3-0.4,0.3-0.6c0-0.2-0.1-0.3-0.2-0.4c-0.1-0.1-0.4-0.2-0.8-0.3c-1.9-0.4-3.1-0.8-3.6-1.1c-0.7-0.5-1-1.1-1-2
				c0-0.8,0.3-1.4,0.9-1.9s1.5-0.8,2.8-0.8c1.2,0,2.1,0.2,2.7,0.6c0.6,0.4,1,1,1.2,1.7l-2.2,0.4c-0.1-0.3-0.3-0.6-0.5-0.8
				c-0.3-0.2-0.6-0.3-1.1-0.3c-0.6,0-1.1,0.1-1.3,0.3c-0.2,0.1-0.3,0.3-0.3,0.5c0,0.2,0.1,0.3,0.2,0.4c0.2,0.2,0.9,0.4,2.2,0.7
				s2.1,0.6,2.6,1c0.5,0.4,0.7,1,0.7,1.7c0,0.8-0.3,1.5-1,2.1c-0.7,0.6-1.7,0.9-3,0.9c-1.2,0-2.2-0.2-2.9-0.7
				S527.1,396.8,526.9,395.9z"/>
		</g>
	</g>
</g>
</svg>
