<?xml version="1.0" encoding="utf-8"?>
<!-- Generator: Adobe Illustrator 21.0.2, SVG Export Plug-In . SVG Version: 6.00 Build 0)  -->
<svg version="1.1" id="Layer_1" xmlns="http://www.w3.org/2000/svg" xmlns:xlink="http://www.w3.org/1999/xlink" x="0px" y="0px"
	 viewBox="0 0 529.7 474.9" style="enable-background:new 0 0 529.7 474.9;" xml:space="preserve">
<style type="text/css">
	.st0{fill:none;stroke:#FFFFFF;stroke-width:0.5;stroke-miterlimit:10;}
	.st1{opacity:0.83;fill:#FFFFFF;}
	.st2{opacity:0.85;clip-path:url(#SVGID_4_);fill:#FFFFFF;}
	.st3{opacity:0.9;fill:#FFFFFF;}
	.st4{opacity:0.9;clip-path:url(#SVGID_8_);fill:#FFFFFF;}
	.st5{fill:#0072CE;}
	.st6{fill:#981D97;}
	.st7{fill:#00B5EC;}
	.st8{fill:#E7C223;}
	.st9{fill:#AFB9C5;}
	.st10{fill:url(#SVGID_9_);}
	.st11{fill:url(#SVGID_10_);}
	.st12{fill:url(#SVGID_11_);}
	.st13{fill:url(#SVGID_12_);}
	.st14{fill:url(#SVGID_13_);}
	.st15{fill:url(#SVGID_14_);}
	.st16{fill:url(#SVGID_15_);}
	.st17{fill:#5C7F93;}
	.st18{fill:url(#SVGID_16_);}
	.st19{fill:url(#SVGID_17_);}
	.st20{fill:url(#SVGID_18_);}
	.st21{fill:url(#SVGID_19_);}
	.st22{fill:url(#SVGID_20_);}
	.st23{fill:url(#SVGID_21_);}
	.st24{fill:url(#SVGID_22_);}
	.st25{fill:#5B7F94;}
	.st26{fill:url(#SVGID_23_);}
	.st27{fill:url(#SVGID_24_);}
	.st28{fill:url(#SVGID_25_);}
	.st29{fill:url(#SVGID_26_);}
	.st30{fill:url(#SVGID_27_);}
	.st31{fill:url(#SVGID_28_);}
	.st32{fill:url(#SVGID_29_);}
	.st33{fill:url(#SVGID_30_);}
	.st34{fill:url(#SVGID_31_);}
	.st35{fill:url(#SVGID_32_);}
	.st36{fill:url(#SVGID_33_);}
	.st37{fill:url(#SVGID_34_);}
	.st38{fill:url(#SVGID_35_);}
	.st39{fill:url(#SVGID_36_);}
	.st40{fill:url(#SVGID_37_);}
	.st41{fill:url(#SVGID_38_);}
	.st42{fill:url(#SVGID_39_);}
	.st43{fill:url(#SVGID_40_);}
	.st44{fill:url(#SVGID_41_);}
	.st45{fill:url(#SVGID_42_);}
	.st46{fill:url(#SVGID_43_);}
</style>
<g>
	<defs>
		<rect id="SVGID_1_" x="-1105" y="-892.5" width="1089.1" height="612"/>
	</defs>
	<clipPath id="SVGID_2_">
		<use xlink:href="#SVGID_1_"  style="overflow:visible;"/>
	</clipPath>
	<g style="clip-path:url(#SVGID_2_);">
		
			<image style="overflow:visible;" width="2362" height="1577" xlink:href="../../../../../../Desktop/MEXICHEM 15 MAYO/links AI/Recycore _300dpi_2362x1577px_X_NR-42928.JPG"  transform="matrix(-0.8715 0 0 0.8508 430.6397 -1245.3323)">
		</image>
	</g>
</g>
<circle class="st0" cx="-783" cy="-590.3" r="235"/>
<circle class="st1" cx="-782.2" cy="-590.4" r="113.4"/>
<g>
	<defs>
		<rect id="SVGID_3_" x="-1105" y="-897.3" width="1089.1" height="616"/>
	</defs>
	<clipPath id="SVGID_4_">
		<use xlink:href="#SVGID_3_"  style="overflow:visible;"/>
	</clipPath>
	<path class="st2" d="M-623.9-990.5c-305.3,0-552.8,247.5-552.8,552.8s247.5,552.8,552.8,552.8S-71.1-132.4-71.1-437.7
		S-318.6-990.5-623.9-990.5z M-783-342.3c-136.9,0-247.9-111-247.9-247.9S-920-838.2-783-838.2s247.9,111,247.9,247.9
		S-646.1-342.3-783-342.3z"/>
</g>
<g>
	<defs>
		<rect id="SVGID_5_" x="-483.4" y="-1537.5" width="1089.1" height="612"/>
	</defs>
	<clipPath id="SVGID_6_">
		<use xlink:href="#SVGID_5_"  style="overflow:visible;"/>
	</clipPath>
	<g style="clip-path:url(#SVGID_6_);">
		
			<image style="overflow:visible;" width="2362" height="1577" xlink:href="../../../../../../Desktop/MEXICHEM 15 MAYO/links AI/Recycore _300dpi_2362x1577px_X_NR-42928.JPG"  transform="matrix(-0.9695 0 0 0.9695 1198.6378 -1990.8937)">
		</image>
	</g>
</g>
<circle class="st3" cx="-101.1" cy="-1231.5" r="146.2"/>
<circle class="st0" cx="-101.1" cy="-1231.5" r="289.9"/>
<g>
	<defs>
		<rect id="SVGID_7_" x="-483.4" y="-1494.2" width="1089.1" height="525.3"/>
	</defs>
	<clipPath id="SVGID_8_">
		<use xlink:href="#SVGID_7_"  style="overflow:visible;"/>
	</clipPath>
	<path class="st4" d="M20.6-1890.5c-363.4,0-658,294.6-658,658s294.6,658,658,658s658-294.6,658-658S384.1-1890.5,20.6-1890.5z
		 M-101.1-926.6c-168.9,0-305.9-137-305.9-305.9s137-305.9,305.9-305.9s305.9,137,305.9,305.9S67.8-926.6-101.1-926.6z"/>
</g>
<g>
	<g>
		<path class="st5" d="M265.1,271.5l6.1-203.3c109.2,3.3,197.3,94,197.3,203.3c0,111.6-91.8,203.3-203.3,203.3
			c-22.1,0-44-3.6-64.9-10.6L265.1,271.5z"/>
		<path class="st6" d="M265.1,271.5l-150.3-137c10.9-11.9,23.1-22.5,36.4-31.5S179,86.6,194.1,81L265.1,271.5z"/>
		<path class="st7" d="M265.1,271.5l-73.2,189.7C113.7,431,61.8,355.4,61.8,271.5c0-47.9,16.9-94.3,47.8-130.9L265.1,271.5z"/>
		<path class="st8" d="M265.1,271.5L201.9,78.2c10.1-3.3,20.4-5.8,30.9-7.5c10.5-1.7,21.1-2.5,31.7-2.6L265.1,271.5z"/>
		<g>
			<g>
				<circle class="st9" cx="264.6" cy="271.5" r="153.4"/>
			</g>
			<g>
				<radialGradient id="SVGID_9_" cx="337.3683" cy="203.2279" r="153.9873" gradientUnits="userSpaceOnUse">
					<stop  offset="0" style="stop-color:#FFFFFF"/>
					<stop  offset="0.5053" style="stop-color:#FDFDFE"/>
					<stop  offset="0.6873" style="stop-color:#F6F8F9"/>
					<stop  offset="0.817" style="stop-color:#EBEDF0"/>
					<stop  offset="0.9211" style="stop-color:#DADFE3"/>
					<stop  offset="1" style="stop-color:#C7CFD5"/>
				</radialGradient>
				<circle class="st10" cx="265.1" cy="271.5" r="154"/>
				<radialGradient id="SVGID_10_" cx="340.2401" cy="194.4391" r="179.6788" gradientUnits="userSpaceOnUse">
					<stop  offset="0" style="stop-color:#F6F7F8"/>
					<stop  offset="0.4318" style="stop-color:#F4F5F6"/>
					<stop  offset="0.6764" style="stop-color:#EBEEF0"/>
					<stop  offset="0.8736" style="stop-color:#DEE2E6"/>
					<stop  offset="1" style="stop-color:#D0D7DC"/>
				</radialGradient>
				<circle class="st11" cx="265.1" cy="271.5" r="152.4"/>
				<radialGradient id="SVGID_11_" cx="343.0362" cy="185.8485" r="206.3525" gradientUnits="userSpaceOnUse">
					<stop  offset="0" style="stop-color:#ECEFF1"/>
					<stop  offset="0.4869" style="stop-color:#E9ECEE"/>
					<stop  offset="0.8802" style="stop-color:#DFE3E7"/>
					<stop  offset="1" style="stop-color:#DADFE3"/>
				</radialGradient>
				<circle class="st12" cx="265.1" cy="271.5" r="150.8"/>
				<radialGradient id="SVGID_12_" cx="345.7568" cy="177.4561" r="233.9915" gradientUnits="userSpaceOnUse">
					<stop  offset="0" style="stop-color:#E3E7EA"/>
					<stop  offset="1" style="stop-color:#E3E7EA"/>
				</radialGradient>
				<circle class="st13" cx="265.1" cy="271.5" r="149.2"/>
				<radialGradient id="SVGID_13_" cx="348.4019" cy="169.262" r="262.5734" gradientUnits="userSpaceOnUse">
					<stop  offset="0" style="stop-color:#DADFE3"/>
					<stop  offset="0.5245" style="stop-color:#E1E5E8"/>
					<stop  offset="1" style="stop-color:#ECEFF1"/>
				</radialGradient>
				<circle class="st14" cx="265.1" cy="271.5" r="147.6"/>
				<radialGradient id="SVGID_14_" cx="350.9714" cy="161.2661" r="292.0711" gradientUnits="userSpaceOnUse">
					<stop  offset="0" style="stop-color:#D0D7DC"/>
					<stop  offset="0.433" style="stop-color:#DEE3E6"/>
					<stop  offset="1" style="stop-color:#F6F7F8"/>
				</radialGradient>
				<circle class="st15" cx="265.1" cy="271.5" r="146"/>
				<radialGradient id="SVGID_15_" cx="353.4653" cy="153.4684" r="322.4536" gradientUnits="userSpaceOnUse">
					<stop  offset="0" style="stop-color:#C7CFD5"/>
					<stop  offset="1" style="stop-color:#FFFFFF"/>
				</radialGradient>
				<circle class="st16" cx="265.1" cy="271.5" r="144.4"/>
			</g>
		</g>
		<g>
			<g>
				<path class="st17" d="M162.4,269.4l-7.7-32.1h6.6l4.8,22.1l5.9-22.1h7.7l5.6,22.4l4.9-22.4h6.5l-7.8,32.1h-6.9l-6.4-24l-6.4,24
					H162.4z"/>
				<path class="st17" d="M197.9,257.4c0-2,0.5-4,1.5-5.9c1-1.9,2.4-3.4,4.3-4.4c1.8-1,3.9-1.5,6.2-1.5c3.5,0,6.4,1.1,8.7,3.4
					s3.4,5.2,3.4,8.7c0,3.5-1.1,6.4-3.4,8.8s-5.1,3.5-8.6,3.5c-2.1,0-4.2-0.5-6.1-1.4s-3.4-2.4-4.4-4.2S197.9,260.1,197.9,257.4z
					 M204.2,257.7c0,2.3,0.5,4.1,1.6,5.3s2.4,1.8,4.1,1.8s3-0.6,4-1.8c1.1-1.2,1.6-3,1.6-5.3c0-2.3-0.5-4-1.6-5.3
					c-1.1-1.2-2.4-1.8-4-1.8s-3,0.6-4.1,1.8S204.2,255.4,204.2,257.7z"/>
				<path class="st17" d="M232.6,269.4h-6.2v-23.3h5.7v3.3c1-1.6,1.9-2.6,2.6-3.1s1.7-0.7,2.7-0.7c1.4,0,2.8,0.4,4.1,1.2l-1.9,5.4
					c-1-0.7-2-1-2.9-1c-0.9,0-1.6,0.2-2.2,0.7c-0.6,0.5-1.1,1.3-1.4,2.6s-0.5,3.8-0.5,7.8V269.4z"/>
				<path class="st17" d="M244,269.4v-32.1h6.2v17l7.2-8.2h7.6l-8,8.5l8.5,14.8h-6.6l-5.8-10.4l-2.9,3v7.4H244z"/>
				<path class="st17" d="M266.5,246.1h3.4v-1.8c0-2,0.2-3.4,0.6-4.4c0.4-1,1.2-1.7,2.3-2.4c1.1-0.6,2.5-0.9,4.2-0.9
					c1.8,0,3.5,0.3,5.1,0.8l-0.8,4.3c-1-0.2-1.9-0.4-2.8-0.4c-0.9,0-1.5,0.2-1.9,0.6c-0.4,0.4-0.6,1.2-0.6,2.4v1.6h4.6v4.8H276v18.4
					h-6.2v-18.4h-3.4V246.1z"/>
				<path class="st17" d="M282.7,257.4c0-2,0.5-4,1.5-5.9c1-1.9,2.4-3.4,4.3-4.4c1.8-1,3.9-1.5,6.2-1.5c3.5,0,6.4,1.1,8.7,3.4
					s3.4,5.2,3.4,8.7c0,3.5-1.1,6.4-3.4,8.8s-5.1,3.5-8.6,3.5c-2.1,0-4.2-0.5-6.1-1.4s-3.4-2.4-4.4-4.2S282.7,260.1,282.7,257.4z
					 M289,257.7c0,2.3,0.5,4.1,1.6,5.3s2.4,1.8,4.1,1.8s3-0.6,4-1.8c1.1-1.2,1.6-3,1.6-5.3c0-2.3-0.5-4-1.6-5.3
					c-1.1-1.2-2.4-1.8-4-1.8s-3,0.6-4.1,1.8S289,255.4,289,257.7z"/>
				<path class="st17" d="M317.4,269.4h-6.2v-23.3h5.7v3.3c1-1.6,1.9-2.6,2.6-3.1s1.7-0.7,2.7-0.7c1.4,0,2.8,0.4,4.1,1.2l-1.9,5.4
					c-1-0.7-2-1-2.9-1c-0.9,0-1.6,0.2-2.2,0.7c-0.6,0.5-1.1,1.3-1.4,2.6s-0.5,3.8-0.5,7.8V269.4z"/>
				<path class="st17" d="M349.3,253l-6.1,1.1c-0.2-1.2-0.7-2.1-1.4-2.7c-0.7-0.6-1.7-0.9-2.8-0.9c-1.5,0-2.8,0.5-3.7,1.6
					c-0.9,1.1-1.4,2.8-1.4,5.3c0,2.8,0.5,4.7,1.4,5.8c0.9,1.1,2.2,1.7,3.7,1.7c1.2,0,2.1-0.3,2.9-1c0.7-0.7,1.3-1.8,1.6-3.4l6,1
					c-0.6,2.8-1.8,4.9-3.6,6.3c-1.8,1.4-4.2,2.1-7.2,2.1c-3.4,0-6.1-1.1-8.1-3.2c-2-2.1-3-5.1-3-8.9c0-3.8,1-6.8,3-9
					c2-2.1,4.8-3.2,8.2-3.2c2.8,0,5.1,0.6,6.8,1.8C347.3,248.6,348.5,250.5,349.3,253z"/>
				<path class="st17" d="M367.4,262l6.1,1c-0.8,2.2-2,4-3.7,5.1s-3.8,1.8-6.4,1.8c-4,0-7-1.3-9-4c-1.5-2.1-2.3-4.8-2.3-8
					c0-3.9,1-6.9,3-9.1c2-2.2,4.6-3.3,7.6-3.3c3.5,0,6.2,1.1,8.2,3.4c2,2.3,3,5.8,2.9,10.5h-15.4c0,1.8,0.5,3.2,1.5,4.3
					c0.9,1,2.1,1.5,3.5,1.5c1,0,1.8-0.3,2.4-0.8S367.1,263.1,367.4,262z M367.7,255.7c0-1.8-0.5-3.1-1.4-4.1
					c-0.9-0.9-1.9-1.4-3.2-1.4c-1.3,0-2.5,0.5-3.3,1.5c-0.9,1-1.3,2.3-1.3,4H367.7z"/>
				<path class="st17" d="M167.1,311.3v-32.1h6.2v11.6c1.9-2.2,4.1-3.2,6.7-3.2c2.8,0,5.2,1,7,3.1c1.9,2.1,2.8,5,2.8,8.8
					c0,4-0.9,7-2.8,9.2c-1.9,2.1-4.2,3.2-6.9,3.2c-1.3,0-2.6-0.3-3.9-1c-1.3-0.7-2.4-1.6-3.3-2.9v3.4H167.1z M173.2,299.2
					c0,2.4,0.4,4.2,1.1,5.3c1.1,1.6,2.5,2.5,4.2,2.5c1.4,0,2.5-0.6,3.5-1.7s1.4-3,1.4-5.5c0-2.7-0.5-4.6-1.4-5.8s-2.2-1.8-3.7-1.8
					c-1.5,0-2.7,0.6-3.7,1.7S173.2,296.9,173.2,299.2z"/>
				<path class="st17" d="M191.9,288.1h6.6l5.6,16.5l5.4-16.5h6.4l-8.2,22.4l-1.5,4.1c-0.5,1.4-1.1,2.4-1.5,3.1
					c-0.5,0.7-1.1,1.3-1.7,1.7c-0.6,0.4-1.4,0.8-2.3,1c-0.9,0.2-2,0.4-3.1,0.4c-1.2,0-2.3-0.1-3.5-0.4l-0.5-4.8
					c1,0.2,1.8,0.3,2.6,0.3c1.4,0,2.5-0.4,3.2-1.3s1.2-1.9,1.6-3.2L191.9,288.1z"/>
				<path class="st17" d="M238.1,311.3h-6.2v-23.3h5.7v3.3c1-1.6,1.9-2.6,2.6-3.1c0.8-0.5,1.7-0.7,2.7-0.7c1.4,0,2.8,0.4,4.1,1.2
					l-1.9,5.4c-1-0.7-2-1-2.9-1c-0.9,0-1.6,0.2-2.2,0.7c-0.6,0.5-1.1,1.3-1.4,2.6s-0.5,3.8-0.5,7.8V311.3z"/>
				<path class="st17" d="M263.1,303.9l6.1,1c-0.8,2.2-2,4-3.7,5.1s-3.8,1.8-6.4,1.8c-4,0-7-1.3-9-4c-1.5-2.1-2.3-4.8-2.3-8
					c0-3.9,1-6.9,3-9.1c2-2.2,4.6-3.3,7.6-3.3c3.5,0,6.2,1.1,8.2,3.4c2,2.3,3,5.8,2.9,10.5h-15.4c0,1.8,0.5,3.2,1.5,4.3
					c0.9,1,2.1,1.5,3.5,1.5c1,0,1.8-0.3,2.4-0.8S262.8,305.1,263.1,303.9z M263.5,297.7c0-1.8-0.5-3.1-1.4-4.1
					c-0.9-0.9-1.9-1.4-3.2-1.4c-1.3,0-2.5,0.5-3.3,1.5s-1.3,2.3-1.3,4H263.5z"/>
				<path class="st17" d="M274.1,312.9l7,0.9c0.1,0.8,0.4,1.4,0.8,1.7c0.6,0.4,1.5,0.7,2.8,0.7c1.6,0,2.8-0.2,3.6-0.7
					c0.5-0.3,0.9-0.8,1.2-1.6c0.2-0.5,0.3-1.5,0.3-2.8v-3.4c-1.8,2.5-4.2,3.8-7,3.8c-3.1,0-5.6-1.3-7.4-4c-1.4-2.1-2.1-4.7-2.1-7.8
					c0-3.9,0.9-6.9,2.8-8.9c1.9-2.1,4.2-3.1,7-3.1c2.9,0,5.3,1.3,7.1,3.8v-3.3h5.8V309c0,2.7-0.2,4.8-0.7,6.2
					c-0.5,1.4-1.1,2.4-1.9,3.2c-0.8,0.8-1.9,1.4-3.3,1.8c-1.4,0.4-3.1,0.7-5.2,0.7c-3.9,0-6.7-0.7-8.4-2c-1.7-1.4-2.5-3.1-2.5-5.1
					C274,313.4,274,313.2,274.1,312.9z M279.6,299.2c0,2.5,0.5,4.3,1.4,5.4c1,1.1,2.1,1.7,3.5,1.7c1.5,0,2.8-0.6,3.8-1.8
					c1-1.2,1.6-2.9,1.6-5.2c0-2.4-0.5-4.2-1.5-5.4c-1-1.2-2.2-1.8-3.8-1.8c-1.5,0-2.7,0.6-3.6,1.7
					C280,295.1,279.6,296.9,279.6,299.2z"/>
				<path class="st17" d="M302,284.9v-5.7h6.2v5.7H302z M302,311.3v-23.3h6.2v23.3H302z"/>
				<path class="st17" d="M313.1,299.4c0-2,0.5-4,1.5-5.9c1-1.9,2.4-3.4,4.3-4.4c1.8-1,3.9-1.5,6.2-1.5c3.5,0,6.4,1.1,8.7,3.4
					c2.2,2.3,3.4,5.2,3.4,8.7c0,3.5-1.1,6.4-3.4,8.8s-5.1,3.5-8.6,3.5c-2.1,0-4.2-0.5-6.1-1.4s-3.4-2.4-4.4-4.2
					S313.1,302.1,313.1,299.4z M319.4,299.7c0,2.3,0.5,4.1,1.6,5.3s2.4,1.8,4.1,1.8s3-0.6,4-1.8c1.1-1.2,1.6-3,1.6-5.3
					c0-2.3-0.5-4-1.6-5.3c-1.1-1.2-2.4-1.8-4-1.8s-3,0.6-4.1,1.8C319.9,295.6,319.4,297.4,319.4,299.7z"/>
				<path class="st17" d="M363.1,311.3h-6.2v-11.9c0-2.5-0.1-4.1-0.4-4.9c-0.3-0.7-0.7-1.3-1.3-1.7c-0.6-0.4-1.3-0.6-2.1-0.6
					c-1.1,0-2,0.3-2.9,0.9c-0.8,0.6-1.4,1.4-1.7,2.3s-0.5,2.7-0.5,5.3v10.5h-6.2v-23.3h5.7v3.4c2-2.6,4.6-3.9,7.7-3.9
					c1.4,0,2.6,0.2,3.7,0.7c1.1,0.5,2,1.1,2.6,1.9c0.6,0.8,1,1.6,1.2,2.6c0.2,1,0.3,2.3,0.3,4.1V311.3z"/>
			</g>
		</g>
	</g>
	<g>
		<g>
			<circle class="st9" cx="48.1" cy="315.5" r="44.3"/>
		</g>
		<g>
			<radialGradient id="SVGID_16_" cx="69.0837" cy="295.7505" r="44.4548" gradientUnits="userSpaceOnUse">
				<stop  offset="0" style="stop-color:#FFFFFF"/>
				<stop  offset="0.5053" style="stop-color:#FDFDFE"/>
				<stop  offset="0.6873" style="stop-color:#F6F8F9"/>
				<stop  offset="0.817" style="stop-color:#EBEDF0"/>
				<stop  offset="0.9211" style="stop-color:#DADFE3"/>
				<stop  offset="1" style="stop-color:#C7CFD5"/>
			</radialGradient>
			<circle class="st18" cx="48.2" cy="315.5" r="44.5"/>
			<radialGradient id="SVGID_17_" cx="69.9127" cy="293.2133" r="51.8717" gradientUnits="userSpaceOnUse">
				<stop  offset="0" style="stop-color:#F6F7F8"/>
				<stop  offset="0.4318" style="stop-color:#F4F5F6"/>
				<stop  offset="0.6764" style="stop-color:#EBEEF0"/>
				<stop  offset="0.8736" style="stop-color:#DEE2E6"/>
				<stop  offset="1" style="stop-color:#D0D7DC"/>
			</radialGradient>
			<circle class="st19" cx="48.2" cy="315.5" r="44"/>
			<radialGradient id="SVGID_18_" cx="70.72" cy="290.7332" r="59.5721" gradientUnits="userSpaceOnUse">
				<stop  offset="0" style="stop-color:#ECEFF1"/>
				<stop  offset="0.4869" style="stop-color:#E9ECEE"/>
				<stop  offset="0.8802" style="stop-color:#DFE3E7"/>
				<stop  offset="1" style="stop-color:#DADFE3"/>
			</radialGradient>
			<circle class="st20" cx="48.2" cy="315.5" r="43.5"/>
			<radialGradient id="SVGID_19_" cx="71.5054" cy="288.3104" r="67.5513" gradientUnits="userSpaceOnUse">
				<stop  offset="0" style="stop-color:#E3E7EA"/>
				<stop  offset="1" style="stop-color:#E3E7EA"/>
			</radialGradient>
			<circle class="st21" cx="48.2" cy="315.5" r="43.1"/>
			<radialGradient id="SVGID_20_" cx="72.269" cy="285.9449" r="75.8026" gradientUnits="userSpaceOnUse">
				<stop  offset="0" style="stop-color:#DADFE3"/>
				<stop  offset="0.5245" style="stop-color:#E1E5E8"/>
				<stop  offset="1" style="stop-color:#ECEFF1"/>
			</radialGradient>
			<circle class="st22" cx="48.2" cy="315.5" r="42.6"/>
			<radialGradient id="SVGID_21_" cx="73.0108" cy="283.6365" r="84.3183" gradientUnits="userSpaceOnUse">
				<stop  offset="0" style="stop-color:#D0D7DC"/>
				<stop  offset="0.433" style="stop-color:#DEE3E6"/>
				<stop  offset="1" style="stop-color:#F6F7F8"/>
			</radialGradient>
			<circle class="st23" cx="48.2" cy="315.5" r="42.2"/>
			<radialGradient id="SVGID_22_" cx="73.7308" cy="281.3854" r="93.0895" gradientUnits="userSpaceOnUse">
				<stop  offset="0" style="stop-color:#C7CFD5"/>
				<stop  offset="1" style="stop-color:#FFFFFF"/>
			</radialGradient>
			<circle class="st24" cx="48.2" cy="315.5" r="41.7"/>
		</g>
	</g>
	<g>
		<path class="st25" d="M34.8,325v2.3H22c0-0.6,0.1-1.1,0.3-1.6c0.3-0.9,0.8-1.7,1.6-2.6c0.7-0.8,1.8-1.8,3.1-2.9
			c2.1-1.7,3.5-3.1,4.3-4.1c0.7-1,1.1-2,1.1-2.9c0-0.9-0.3-1.7-1-2.4c-0.7-0.6-1.5-1-2.6-1c-1.1,0-2.1,0.3-2.7,1s-1,1.6-1,2.8
			l-2.4-0.2c0.2-1.8,0.8-3.2,1.9-4.2c1.1-1,2.6-1.4,4.4-1.4c1.9,0,3.3,0.5,4.4,1.5c1.1,1,1.6,2.3,1.6,3.8c0,0.8-0.2,1.5-0.5,2.3
			s-0.8,1.5-1.6,2.4c-0.7,0.8-2,2-3.7,3.4c-1.4,1.2-2.3,2-2.7,2.4c-0.4,0.4-0.7,0.9-1,1.3H34.8z"/>
		<path class="st25" d="M37.7,322.8l2.3-0.2c0.2,1.1,0.6,1.8,1.1,2.3c0.5,0.5,1.2,0.7,2.1,0.7c0.7,0,1.4-0.2,1.9-0.5
			c0.5-0.3,1-0.8,1.4-1.3c0.4-0.6,0.6-1.3,0.9-2.3c0.2-0.9,0.4-1.9,0.4-2.9c0-0.1,0-0.3,0-0.5c-0.5,0.8-1.1,1.4-1.9,1.8
			c-0.8,0.5-1.7,0.7-2.7,0.7c-1.6,0-3-0.6-4.1-1.7s-1.7-2.7-1.7-4.6c0-2,0.6-3.5,1.7-4.7c1.2-1.2,2.6-1.8,4.3-1.8
			c1.3,0,2.4,0.3,3.4,1c1,0.7,1.8,1.6,2.4,2.9c0.5,1.3,0.8,3.1,0.8,5.4c0,2.5-0.3,4.4-0.8,5.9c-0.5,1.5-1.3,2.6-2.4,3.3
			c-1.1,0.8-2.3,1.1-3.7,1.1c-1.5,0-2.7-0.4-3.7-1.3C38.5,325.5,37.9,324.3,37.7,322.8z M47.4,314.3c0-1.4-0.4-2.4-1.1-3.2
			c-0.7-0.8-1.6-1.2-2.6-1.2c-1.1,0-2,0.4-2.8,1.3c-0.8,0.9-1.2,2-1.2,3.3c0,1.2,0.4,2.2,1.1,3c0.7,0.8,1.7,1.2,2.7,1.2
			c1.1,0,2-0.4,2.7-1.2C47.1,316.7,47.4,315.6,47.4,314.3z"/>
		<path class="st25" d="M52.8,312.6c0-1.4,0.3-2.6,1-3.5c0.7-1,1.7-1.4,3-1.4c1.2,0,2.2,0.4,3,1.3c0.8,0.9,1.2,2.1,1.2,3.8
			c0,1.6-0.4,2.9-1.2,3.8c-0.8,0.9-1.8,1.3-3,1.3c-1.2,0-2.1-0.4-2.9-1.3C53.2,315.6,52.8,314.3,52.8,312.6z M56.9,309.2
			c-0.6,0-1.1,0.3-1.5,0.8c-0.4,0.5-0.6,1.4-0.6,2.8c0,1.2,0.2,2.1,0.6,2.6c0.4,0.5,0.9,0.8,1.5,0.8c0.6,0,1.1-0.3,1.5-0.8
			c0.4-0.5,0.6-1.4,0.6-2.8c0-1.2-0.2-2.1-0.6-2.6C58,309.5,57.5,309.2,56.9,309.2z M56.9,328l10.6-20.4h1.9L58.9,328H56.9z
			 M65.3,322.7c0-1.4,0.3-2.6,1-3.5c0.7-1,1.7-1.4,3-1.4c1.2,0,2.2,0.4,3,1.3c0.8,0.9,1.2,2.1,1.2,3.8c0,1.6-0.4,2.9-1.2,3.8
			c-0.8,0.9-1.8,1.3-3,1.3c-1.2,0-2.1-0.4-2.9-1.3C65.7,325.8,65.3,324.5,65.3,322.7z M69.4,319.4c-0.6,0-1.1,0.3-1.5,0.8
			c-0.4,0.5-0.6,1.4-0.6,2.8c0,1.2,0.2,2.1,0.6,2.6c0.4,0.5,0.9,0.8,1.5,0.8c0.6,0,1.1-0.3,1.5-0.8c0.4-0.5,0.6-1.4,0.6-2.8
			c0-1.2-0.2-2.1-0.6-2.6C70.5,319.6,70,319.4,69.4,319.4z"/>
	</g>
	<g>
		<circle class="st9" cx="477.1" cy="347" r="44.3"/>
	</g>
	<g>
		<radialGradient id="SVGID_23_" cx="498.0551" cy="327.2486" r="44.4548" gradientUnits="userSpaceOnUse">
			<stop  offset="0" style="stop-color:#FFFFFF"/>
			<stop  offset="0.5053" style="stop-color:#FDFDFE"/>
			<stop  offset="0.6873" style="stop-color:#F6F8F9"/>
			<stop  offset="0.817" style="stop-color:#EBEDF0"/>
			<stop  offset="0.9211" style="stop-color:#DADFE3"/>
			<stop  offset="1" style="stop-color:#C7CFD5"/>
		</radialGradient>
		<circle class="st26" cx="477.2" cy="347" r="44.5"/>
		<radialGradient id="SVGID_24_" cx="498.8841" cy="324.7114" r="51.8717" gradientUnits="userSpaceOnUse">
			<stop  offset="0" style="stop-color:#F6F7F8"/>
			<stop  offset="0.4318" style="stop-color:#F4F5F6"/>
			<stop  offset="0.6764" style="stop-color:#EBEEF0"/>
			<stop  offset="0.8736" style="stop-color:#DEE2E6"/>
			<stop  offset="1" style="stop-color:#D0D7DC"/>
		</radialGradient>
		<circle class="st27" cx="477.2" cy="347" r="44"/>
		<radialGradient id="SVGID_25_" cx="499.6913" cy="322.2314" r="59.5721" gradientUnits="userSpaceOnUse">
			<stop  offset="0" style="stop-color:#ECEFF1"/>
			<stop  offset="0.4869" style="stop-color:#E9ECEE"/>
			<stop  offset="0.8802" style="stop-color:#DFE3E7"/>
			<stop  offset="1" style="stop-color:#DADFE3"/>
		</radialGradient>
		<circle class="st28" cx="477.2" cy="347" r="43.5"/>
		<radialGradient id="SVGID_26_" cx="500.4767" cy="319.8085" r="67.5513" gradientUnits="userSpaceOnUse">
			<stop  offset="0" style="stop-color:#E3E7EA"/>
			<stop  offset="1" style="stop-color:#E3E7EA"/>
		</radialGradient>
		<circle class="st29" cx="477.2" cy="347" r="43.1"/>
		<radialGradient id="SVGID_27_" cx="501.2403" cy="317.443" r="75.8026" gradientUnits="userSpaceOnUse">
			<stop  offset="0" style="stop-color:#DADFE3"/>
			<stop  offset="0.5245" style="stop-color:#E1E5E8"/>
			<stop  offset="1" style="stop-color:#ECEFF1"/>
		</radialGradient>
		<circle class="st30" cx="477.2" cy="347" r="42.6"/>
		<radialGradient id="SVGID_28_" cx="501.9821" cy="315.1346" r="84.3183" gradientUnits="userSpaceOnUse">
			<stop  offset="0" style="stop-color:#D0D7DC"/>
			<stop  offset="0.433" style="stop-color:#DEE3E6"/>
			<stop  offset="1" style="stop-color:#F6F7F8"/>
		</radialGradient>
		<circle class="st31" cx="477.2" cy="347" r="42.2"/>
		<radialGradient id="SVGID_29_" cx="502.7021" cy="312.8835" r="93.0895" gradientUnits="userSpaceOnUse">
			<stop  offset="0" style="stop-color:#C7CFD5"/>
			<stop  offset="1" style="stop-color:#FFFFFF"/>
		</radialGradient>
		<circle class="st32" cx="477.2" cy="347" r="41.7"/>
	</g>
	<g>
		<path class="st25" d="M458.9,358.8v-4.6h-8.4V352l8.8-12.5h1.9V352h2.6v2.2h-2.6v4.6H458.9z M458.9,352v-8.7l-6.1,8.7H458.9z"/>
		<path class="st25" d="M466.7,354.3l2.3-0.2c0.2,1.1,0.6,1.8,1.1,2.3c0.5,0.5,1.2,0.7,2.1,0.7c0.7,0,1.4-0.2,1.9-0.5
			c0.5-0.3,1-0.8,1.4-1.3c0.4-0.6,0.6-1.3,0.9-2.3c0.2-0.9,0.4-1.9,0.4-2.9c0-0.1,0-0.3,0-0.5c-0.5,0.8-1.1,1.4-1.9,1.8
			c-0.8,0.5-1.7,0.7-2.7,0.7c-1.6,0-3-0.6-4.1-1.7s-1.7-2.7-1.7-4.6c0-2,0.6-3.5,1.7-4.7c1.2-1.2,2.6-1.8,4.3-1.8
			c1.3,0,2.4,0.3,3.4,1c1,0.7,1.8,1.6,2.4,2.9c0.5,1.3,0.8,3.1,0.8,5.4c0,2.5-0.3,4.4-0.8,5.9c-0.5,1.5-1.3,2.6-2.4,3.3
			c-1.1,0.8-2.3,1.1-3.7,1.1c-1.5,0-2.7-0.4-3.7-1.3C467.4,357,466.9,355.8,466.7,354.3z M476.4,345.8c0-1.4-0.4-2.4-1.1-3.2
			c-0.7-0.8-1.6-1.2-2.6-1.2c-1.1,0-2,0.4-2.8,1.3c-0.8,0.9-1.2,2-1.2,3.3c0,1.2,0.4,2.2,1.1,3c0.7,0.8,1.7,1.2,2.7,1.2
			c1.1,0,2-0.4,2.7-1.2C476,348.2,476.4,347.1,476.4,345.8z"/>
		<path class="st25" d="M481.8,344.1c0-1.4,0.3-2.6,1-3.5c0.7-1,1.7-1.4,3-1.4c1.2,0,2.2,0.4,3,1.3c0.8,0.9,1.2,2.1,1.2,3.8
			c0,1.6-0.4,2.9-1.2,3.8c-0.8,0.9-1.8,1.3-3,1.3c-1.2,0-2.1-0.4-2.9-1.3C482.2,347.1,481.8,345.8,481.8,344.1z M485.9,340.7
			c-0.6,0-1.1,0.3-1.5,0.8c-0.4,0.5-0.6,1.4-0.6,2.8c0,1.2,0.2,2.1,0.6,2.6c0.4,0.5,0.9,0.8,1.5,0.8c0.6,0,1.1-0.3,1.5-0.8
			c0.4-0.5,0.6-1.4,0.6-2.8c0-1.2-0.2-2.1-0.6-2.6C487,341,486.5,340.7,485.9,340.7z M485.9,359.5l10.6-20.4h1.9l-10.5,20.4H485.9z
			 M494.3,354.2c0-1.4,0.3-2.6,1-3.5c0.7-1,1.7-1.4,3-1.4c1.2,0,2.2,0.4,3,1.3c0.8,0.9,1.2,2.1,1.2,3.8c0,1.6-0.4,2.9-1.2,3.8
			c-0.8,0.9-1.8,1.3-3,1.3c-1.2,0-2.1-0.4-2.9-1.3C494.7,357.3,494.3,356,494.3,354.2z M498.4,350.9c-0.6,0-1.1,0.3-1.5,0.8
			c-0.4,0.5-0.6,1.4-0.6,2.8c0,1.2,0.2,2.1,0.6,2.6c0.4,0.5,0.9,0.8,1.5,0.8c0.6,0,1.1-0.3,1.5-0.8c0.4-0.5,0.6-1.4,0.6-2.8
			c0-1.2-0.2-2.1-0.6-2.6C499.5,351.1,499,350.9,498.4,350.9z"/>
	</g>
	<g>
		<g>
			<circle class="st9" cx="230.1" cy="44.5" r="44.3"/>
		</g>
		<g>
			<radialGradient id="SVGID_30_" cx="251.068" cy="24.7414" r="44.4548" gradientUnits="userSpaceOnUse">
				<stop  offset="0" style="stop-color:#FFFFFF"/>
				<stop  offset="0.5053" style="stop-color:#FDFDFE"/>
				<stop  offset="0.6873" style="stop-color:#F6F8F9"/>
				<stop  offset="0.817" style="stop-color:#EBEDF0"/>
				<stop  offset="0.9211" style="stop-color:#DADFE3"/>
				<stop  offset="1" style="stop-color:#C7CFD5"/>
			</radialGradient>
			<circle class="st33" cx="230.2" cy="44.5" r="44.5"/>
			<radialGradient id="SVGID_31_" cx="251.897" cy="22.2041" r="51.8717" gradientUnits="userSpaceOnUse">
				<stop  offset="0" style="stop-color:#F6F7F8"/>
				<stop  offset="0.4318" style="stop-color:#F4F5F6"/>
				<stop  offset="0.6764" style="stop-color:#EBEEF0"/>
				<stop  offset="0.8736" style="stop-color:#DEE2E6"/>
				<stop  offset="1" style="stop-color:#D0D7DC"/>
			</radialGradient>
			<circle class="st34" cx="230.2" cy="44.5" r="44"/>
			<radialGradient id="SVGID_32_" cx="252.7042" cy="19.7241" r="59.5721" gradientUnits="userSpaceOnUse">
				<stop  offset="0" style="stop-color:#ECEFF1"/>
				<stop  offset="0.4869" style="stop-color:#E9ECEE"/>
				<stop  offset="0.8802" style="stop-color:#DFE3E7"/>
				<stop  offset="1" style="stop-color:#DADFE3"/>
			</radialGradient>
			<circle class="st35" cx="230.2" cy="44.5" r="43.5"/>
			<radialGradient id="SVGID_33_" cx="253.4896" cy="17.3013" r="67.5513" gradientUnits="userSpaceOnUse">
				<stop  offset="0" style="stop-color:#E3E7EA"/>
				<stop  offset="1" style="stop-color:#E3E7EA"/>
			</radialGradient>
			<circle class="st36" cx="230.2" cy="44.5" r="43.1"/>
			<radialGradient id="SVGID_34_" cx="254.2532" cy="14.9357" r="75.8026" gradientUnits="userSpaceOnUse">
				<stop  offset="0" style="stop-color:#DADFE3"/>
				<stop  offset="0.5245" style="stop-color:#E1E5E8"/>
				<stop  offset="1" style="stop-color:#ECEFF1"/>
			</radialGradient>
			<circle class="st37" cx="230.2" cy="44.5" r="42.6"/>
			<radialGradient id="SVGID_35_" cx="254.995" cy="12.6274" r="84.3183" gradientUnits="userSpaceOnUse">
				<stop  offset="0" style="stop-color:#D0D7DC"/>
				<stop  offset="0.433" style="stop-color:#DEE3E6"/>
				<stop  offset="1" style="stop-color:#F6F7F8"/>
			</radialGradient>
			<circle class="st38" cx="230.2" cy="44.5" r="42.2"/>
			<radialGradient id="SVGID_36_" cx="255.715" cy="10.3762" r="93.0895" gradientUnits="userSpaceOnUse">
				<stop  offset="0" style="stop-color:#C7CFD5"/>
				<stop  offset="1" style="stop-color:#FFFFFF"/>
			</radialGradient>
			<circle class="st39" cx="230.2" cy="44.5" r="41.7"/>
		</g>
	</g>
	<g>
		<path class="st25" d="M215.5,45.8c-1-0.4-1.7-0.9-2.2-1.5s-0.7-1.5-0.7-2.4c0-1.4,0.5-2.6,1.5-3.5c1-1,2.4-1.4,4-1.4
			c1.7,0,3,0.5,4.1,1.5c1,1,1.5,2.2,1.5,3.6c0,0.9-0.2,1.7-0.7,2.3c-0.5,0.7-1.2,1.2-2.1,1.5c1.2,0.4,2.1,1,2.7,1.9
			c0.6,0.9,0.9,1.9,0.9,3.1c0,1.7-0.6,3-1.8,4.2s-2.7,1.7-4.6,1.7s-3.4-0.6-4.6-1.7c-1.2-1.1-1.8-2.5-1.8-4.2c0-1.3,0.3-2.3,1-3.2
			C213.4,46.7,214.3,46.1,215.5,45.8z M214.2,50.7c0,0.7,0.2,1.3,0.5,2c0.3,0.6,0.8,1.1,1.4,1.5c0.6,0.3,1.3,0.5,2,0.5
			c1.1,0,2.1-0.4,2.8-1.1s1.1-1.7,1.1-2.8c0-1.1-0.4-2.1-1.1-2.8c-0.8-0.7-1.7-1.1-2.9-1.1c-1.1,0-2,0.4-2.8,1.1
			C214.6,48.6,214.2,49.6,214.2,50.7z M215,41.7c0,0.9,0.3,1.7,0.9,2.2c0.6,0.6,1.4,0.9,2.3,0.9c0.9,0,1.7-0.3,2.2-0.9
			c0.6-0.6,0.9-1.3,0.9-2.1c0-0.9-0.3-1.6-0.9-2.2c-0.6-0.6-1.4-0.9-2.2-0.9c-0.9,0-1.7,0.3-2.3,0.9S215,40.9,215,41.7z"/>
		<path class="st25" d="M227.3,41.6c0-1.4,0.3-2.6,1-3.5c0.7-1,1.7-1.4,3-1.4c1.2,0,2.2,0.4,3,1.3c0.8,0.9,1.2,2.1,1.2,3.8
			c0,1.6-0.4,2.9-1.2,3.8c-0.8,0.9-1.8,1.3-3,1.3c-1.2,0-2.1-0.4-2.9-1.3C227.7,44.6,227.3,43.3,227.3,41.6z M231.4,38.2
			c-0.6,0-1.1,0.3-1.5,0.8c-0.4,0.5-0.6,1.4-0.6,2.8c0,1.2,0.2,2.1,0.6,2.6c0.4,0.5,0.9,0.8,1.5,0.8c0.6,0,1.1-0.3,1.5-0.8
			c0.4-0.5,0.6-1.4,0.6-2.8c0-1.2-0.2-2.1-0.6-2.6C232.5,38.5,232,38.2,231.4,38.2z M231.4,57L242,36.6h1.9L233.4,57H231.4z
			 M239.8,51.7c0-1.4,0.3-2.6,1-3.5c0.7-1,1.7-1.4,3-1.4c1.2,0,2.2,0.4,3,1.3c0.8,0.9,1.2,2.1,1.2,3.8c0,1.6-0.4,2.9-1.2,3.8
			c-0.8,0.9-1.8,1.3-3,1.3c-1.2,0-2.1-0.4-2.9-1.3C240.2,54.8,239.8,53.5,239.8,51.7z M243.9,48.4c-0.6,0-1.1,0.3-1.5,0.8
			c-0.4,0.5-0.6,1.4-0.6,2.8c0,1.2,0.2,2.1,0.6,2.6c0.4,0.5,0.9,0.8,1.5,0.8c0.6,0,1.1-0.3,1.5-0.8c0.4-0.5,0.6-1.4,0.6-2.8
			c0-1.2-0.2-2.1-0.6-2.6C245,48.6,244.5,48.4,243.9,48.4z"/>
	</g>
	<g>
		<g>
			<circle class="st9" cx="141" cy="84.9" r="44.3"/>
		</g>
		<g>
			<radialGradient id="SVGID_37_" cx="162.0134" cy="65.1709" r="44.4548" gradientUnits="userSpaceOnUse">
				<stop  offset="0" style="stop-color:#FFFFFF"/>
				<stop  offset="0.5053" style="stop-color:#FDFDFE"/>
				<stop  offset="0.6873" style="stop-color:#F6F8F9"/>
				<stop  offset="0.817" style="stop-color:#EBEDF0"/>
				<stop  offset="0.9211" style="stop-color:#DADFE3"/>
				<stop  offset="1" style="stop-color:#C7CFD5"/>
			</radialGradient>
			<circle class="st40" cx="141.2" cy="84.9" r="44.5"/>
			<radialGradient id="SVGID_38_" cx="162.8424" cy="62.6337" r="51.8717" gradientUnits="userSpaceOnUse">
				<stop  offset="0" style="stop-color:#F6F7F8"/>
				<stop  offset="0.4318" style="stop-color:#F4F5F6"/>
				<stop  offset="0.6764" style="stop-color:#EBEEF0"/>
				<stop  offset="0.8736" style="stop-color:#DEE2E6"/>
				<stop  offset="1" style="stop-color:#D0D7DC"/>
			</radialGradient>
			<circle class="st41" cx="141.2" cy="84.9" r="44"/>
			<radialGradient id="SVGID_39_" cx="163.6497" cy="60.1536" r="59.5721" gradientUnits="userSpaceOnUse">
				<stop  offset="0" style="stop-color:#ECEFF1"/>
				<stop  offset="0.4869" style="stop-color:#E9ECEE"/>
				<stop  offset="0.8802" style="stop-color:#DFE3E7"/>
				<stop  offset="1" style="stop-color:#DADFE3"/>
			</radialGradient>
			<circle class="st42" cx="141.2" cy="84.9" r="43.5"/>
			<radialGradient id="SVGID_40_" cx="164.4351" cy="57.7308" r="67.5513" gradientUnits="userSpaceOnUse">
				<stop  offset="0" style="stop-color:#E3E7EA"/>
				<stop  offset="1" style="stop-color:#E3E7EA"/>
			</radialGradient>
			<circle class="st43" cx="141.2" cy="84.9" r="43.1"/>
			<radialGradient id="SVGID_41_" cx="165.1987" cy="55.3653" r="75.8026" gradientUnits="userSpaceOnUse">
				<stop  offset="0" style="stop-color:#DADFE3"/>
				<stop  offset="0.5245" style="stop-color:#E1E5E8"/>
				<stop  offset="1" style="stop-color:#ECEFF1"/>
			</radialGradient>
			<circle class="st44" cx="141.2" cy="84.9" r="42.6"/>
			<radialGradient id="SVGID_42_" cx="165.9405" cy="53.0569" r="84.3183" gradientUnits="userSpaceOnUse">
				<stop  offset="0" style="stop-color:#D0D7DC"/>
				<stop  offset="0.433" style="stop-color:#DEE3E6"/>
				<stop  offset="1" style="stop-color:#F6F7F8"/>
			</radialGradient>
			<circle class="st45" cx="141.2" cy="84.9" r="42.2"/>
			<radialGradient id="SVGID_43_" cx="166.6605" cy="50.8058" r="93.0895" gradientUnits="userSpaceOnUse">
				<stop  offset="0" style="stop-color:#C7CFD5"/>
				<stop  offset="1" style="stop-color:#FFFFFF"/>
			</radialGradient>
			<circle class="st46" cx="141.2" cy="84.9" r="41.7"/>
		</g>
	</g>
	<g>
		<path class="st25" d="M124.2,96.7h-2.4V81.6c-0.6,0.5-1.3,1.1-2.2,1.6c-0.9,0.5-1.8,1-2.5,1.2v-2.3c1.3-0.6,2.5-1.4,3.5-2.3
			s1.7-1.7,2.1-2.6h1.5V96.7z"/>
		<path class="st25" d="M137.9,96.7V92h-8.4v-2.2l8.8-12.5h1.9v12.5h2.6V92h-2.6v4.6H137.9z M137.9,89.9v-8.7l-6.1,8.7H137.9z"/>
		<path class="st25" d="M145.7,82c0-1.4,0.3-2.6,1-3.5c0.7-1,1.7-1.4,3-1.4c1.2,0,2.2,0.4,3,1.3c0.8,0.9,1.2,2.1,1.2,3.8
			c0,1.6-0.4,2.9-1.2,3.8c-0.8,0.9-1.8,1.3-3,1.3c-1.2,0-2.1-0.4-2.9-1.3C146.1,85.1,145.7,83.7,145.7,82z M149.9,78.7
			c-0.6,0-1.1,0.3-1.5,0.8c-0.4,0.5-0.6,1.4-0.6,2.8c0,1.2,0.2,2.1,0.6,2.6c0.4,0.5,0.9,0.8,1.5,0.8c0.6,0,1.1-0.3,1.5-0.8
			c0.4-0.5,0.6-1.4,0.6-2.8c0-1.2-0.2-2.1-0.6-2.6C150.9,78.9,150.5,78.7,149.9,78.7z M149.9,97.4L160.5,77h1.9l-10.5,20.4H149.9z
			 M158.2,92.1c0-1.4,0.3-2.6,1-3.5c0.7-1,1.7-1.4,3-1.4c1.2,0,2.2,0.4,3,1.3c0.8,0.9,1.2,2.1,1.2,3.8c0,1.6-0.4,2.9-1.2,3.8
			c-0.8,0.9-1.8,1.3-3,1.3c-1.2,0-2.1-0.4-2.9-1.3C158.6,95.2,158.2,93.9,158.2,92.1z M162.4,88.8c-0.6,0-1.1,0.3-1.5,0.8
			c-0.4,0.5-0.6,1.4-0.6,2.8c0,1.2,0.2,2.1,0.6,2.6c0.4,0.5,0.9,0.8,1.5,0.8c0.6,0,1.1-0.3,1.5-0.8c0.4-0.5,0.6-1.4,0.6-2.8
			c0-1.2-0.2-2.1-0.6-2.6C163.5,89.1,163,88.8,162.4,88.8z"/>
	</g>
	<g>
		<g>
			<path class="st25" d="M475.2,295.4v-12.1h2.5v10h6.1v2.1H475.2z"/>
			<path class="st25" d="M496.5,295.4h-2.7l-1.1-2.8h-4.9l-1,2.8h-2.6l4.7-12.2h2.6L496.5,295.4z M492,290.6l-1.7-4.5l-1.6,4.5H492z
				"/>
			<path class="st25" d="M499.3,295.4v-10.1h-3.6v-2.1h9.7v2.1h-3.6v10.1H499.3z"/>
			<path class="st25" d="M516.6,295.4H514l-1.1-2.8H508l-1,2.8h-2.6l4.7-12.2h2.6L516.6,295.4z M512.1,290.6l-1.7-4.5l-1.6,4.5
				H512.1z"/>
			<path class="st25" d="M517.9,295.4v-12.2h3.7l2.2,8.3l2.2-8.3h3.7v12.2h-2.3v-9.6l-2.4,9.6h-2.4l-2.4-9.6v9.6H517.9z"/>
		</g>
	</g>
	<g>
		<g>
			<path class="st25" d="M285.1,32.6h2.5v6.6c0,1,0,1.7,0.1,2c0.1,0.5,0.4,0.9,0.8,1.2s0.9,0.5,1.6,0.5c0.7,0,1.2-0.1,1.6-0.4
				s0.6-0.6,0.6-1c0.1-0.4,0.1-1.1,0.1-2.1v-6.7h2.5V39c0,1.5-0.1,2.5-0.2,3.1c-0.1,0.6-0.4,1.1-0.7,1.5c-0.4,0.4-0.8,0.7-1.4,1
				S291,45,290.1,45c-1.2,0-2-0.1-2.6-0.4s-1.1-0.6-1.4-1c-0.3-0.4-0.6-0.9-0.7-1.3c-0.2-0.7-0.2-1.7-0.2-3.1V32.6z"/>
			<path class="st25" d="M297.4,44.8v-2.3h2.3v2.3H297.4z"/>
			<path class="st25" d="M301.5,40.8l2.4-0.2c0.1,0.8,0.4,1.4,0.9,1.8c0.4,0.4,1,0.6,1.8,0.6c0.8,0,1.4-0.2,1.8-0.5s0.6-0.7,0.6-1.2
				c0-0.3-0.1-0.5-0.3-0.7s-0.5-0.4-0.9-0.5c-0.3-0.1-0.9-0.3-2-0.5c-1.3-0.3-2.2-0.7-2.8-1.2c-0.7-0.7-1.1-1.5-1.1-2.4
				c0-0.6,0.2-1.2,0.5-1.7c0.4-0.5,0.9-1,1.5-1.2s1.5-0.4,2.4-0.4c1.5,0,2.7,0.3,3.4,1c0.8,0.7,1.2,1.6,1.2,2.7l-2.5,0.1
				c-0.1-0.6-0.3-1.1-0.7-1.3c-0.3-0.3-0.9-0.4-1.6-0.4c-0.7,0-1.3,0.1-1.7,0.4c-0.3,0.2-0.4,0.4-0.4,0.8c0,0.3,0.1,0.5,0.4,0.7
				c0.3,0.3,1.1,0.5,2.3,0.8c1.2,0.3,2.1,0.6,2.7,0.9c0.6,0.3,1,0.7,1.3,1.2c0.3,0.5,0.5,1.2,0.5,1.9c0,0.7-0.2,1.4-0.6,2
				c-0.4,0.6-0.9,1.1-1.6,1.4s-1.6,0.4-2.6,0.4c-1.5,0-2.7-0.4-3.5-1.1S301.6,42.2,301.5,40.8z"/>
			<path class="st25" d="M313.4,44.8v-2.3h2.3v2.3H313.4z"/>
			<path class="st25" d="M324.6,38.6l-2.1-0.4c0.2-0.9,0.6-1.5,1.2-1.9s1.4-0.6,2.6-0.6c1,0,1.8,0.1,2.3,0.4s0.9,0.6,1.1,0.9
				c0.2,0.4,0.3,1.1,0.3,2.1l0,2.7c0,0.8,0,1.3,0.1,1.7c0.1,0.4,0.2,0.8,0.4,1.2h-2.3c-0.1-0.2-0.1-0.4-0.2-0.7
				c0-0.1-0.1-0.2-0.1-0.3c-0.4,0.4-0.8,0.7-1.3,0.9c-0.5,0.2-0.9,0.3-1.5,0.3c-0.9,0-1.6-0.2-2.1-0.7c-0.5-0.5-0.8-1.1-0.8-1.9
				c0-0.5,0.1-0.9,0.4-1.3c0.2-0.4,0.6-0.7,1-0.9c0.4-0.2,1-0.4,1.9-0.5c1.1-0.2,1.8-0.4,2.3-0.6v-0.2c0-0.4-0.1-0.8-0.3-1
				c-0.2-0.2-0.6-0.3-1.3-0.3c-0.4,0-0.7,0.1-1,0.2S324.8,38.2,324.6,38.6z M327.7,40.5c-0.3,0.1-0.8,0.2-1.4,0.4
				c-0.6,0.1-1.1,0.3-1.3,0.4c-0.3,0.2-0.5,0.5-0.5,0.8c0,0.3,0.1,0.6,0.4,0.8c0.2,0.2,0.6,0.4,0.9,0.4c0.4,0,0.8-0.1,1.2-0.4
				c0.3-0.2,0.5-0.5,0.6-0.8c0.1-0.2,0.1-0.6,0.1-1.1V40.5z"/>
			<path class="st25" d="M340.3,44.8H338v-4.5c0-1,0-1.6-0.1-1.8s-0.3-0.5-0.5-0.7c-0.2-0.2-0.5-0.2-0.8-0.2c-0.4,0-0.8,0.1-1.1,0.3
				c-0.3,0.2-0.5,0.5-0.7,0.9s-0.2,1-0.2,2v4h-2.3v-8.8h2.2v1.3c0.8-1,1.7-1.5,2.9-1.5c0.5,0,1,0.1,1.4,0.3s0.7,0.4,1,0.7
				c0.2,0.3,0.4,0.6,0.5,1s0.1,0.9,0.1,1.6V44.8z"/>
			<path class="st25" d="M350.8,44.8h-2.2v-1.3c-0.4,0.5-0.8,0.9-1.3,1.1c-0.5,0.2-1,0.4-1.5,0.4c-1,0-1.9-0.4-2.6-1.2
				c-0.7-0.8-1.1-2-1.1-3.4c0-1.5,0.4-2.6,1.1-3.4c0.7-0.8,1.6-1.2,2.7-1.2c1,0,1.8,0.4,2.6,1.2v-4.4h2.3V44.8z M344.6,40.2
				c0,0.9,0.1,1.6,0.4,2c0.4,0.6,0.9,0.9,1.6,0.9c0.5,0,1-0.2,1.4-0.7c0.4-0.5,0.6-1.1,0.6-2c0-1-0.2-1.7-0.5-2.2s-0.8-0.7-1.4-0.7
				c-0.6,0-1,0.2-1.4,0.7C344.8,38.6,344.6,39.3,344.6,40.2z"/>
			<path class="st25" d="M365.6,40.3L368,41c-0.4,1.3-1,2.3-1.8,3s-1.9,1-3.2,1c-1.6,0-2.9-0.6-4-1.7c-1-1.1-1.6-2.6-1.6-4.5
				c0-2,0.5-3.6,1.6-4.7c1-1.1,2.4-1.7,4.1-1.7c1.5,0,2.7,0.4,3.6,1.3c0.6,0.5,1,1.3,1.2,2.2l-2.4,0.6c-0.1-0.6-0.4-1.1-0.9-1.5
				c-0.5-0.4-1-0.5-1.7-0.5c-0.9,0-1.6,0.3-2.2,1c-0.6,0.6-0.8,1.7-0.8,3.1c0,1.5,0.3,2.6,0.8,3.3s1.3,1,2.2,1
				c0.7,0,1.2-0.2,1.7-0.6C365.1,41.8,365.4,41.2,365.6,40.3z"/>
			<path class="st25" d="M371.8,38.6l-2.1-0.4c0.2-0.9,0.6-1.5,1.2-1.9s1.4-0.6,2.6-0.6c1,0,1.8,0.1,2.3,0.4s0.9,0.6,1.1,0.9
				c0.2,0.4,0.3,1.1,0.3,2.1l0,2.7c0,0.8,0,1.3,0.1,1.7c0.1,0.4,0.2,0.8,0.4,1.2h-2.3c-0.1-0.2-0.1-0.4-0.2-0.7
				c0-0.1-0.1-0.2-0.1-0.3c-0.4,0.4-0.8,0.7-1.3,0.9c-0.5,0.2-0.9,0.3-1.5,0.3c-0.9,0-1.6-0.2-2.1-0.7c-0.5-0.5-0.8-1.1-0.8-1.9
				c0-0.5,0.1-0.9,0.4-1.3c0.2-0.4,0.6-0.7,1-0.9c0.4-0.2,1-0.4,1.9-0.5c1.1-0.2,1.8-0.4,2.3-0.6v-0.2c0-0.4-0.1-0.8-0.3-1
				c-0.2-0.2-0.6-0.3-1.3-0.3c-0.4,0-0.7,0.1-1,0.2S372,38.2,371.8,38.6z M375,40.5c-0.3,0.1-0.8,0.2-1.4,0.4
				c-0.6,0.1-1.1,0.3-1.3,0.4c-0.3,0.2-0.5,0.5-0.5,0.8c0,0.3,0.1,0.6,0.4,0.8c0.2,0.2,0.6,0.4,0.9,0.4c0.4,0,0.8-0.1,1.2-0.4
				c0.3-0.2,0.5-0.5,0.6-0.8c0.1-0.2,0.1-0.6,0.1-1.1V40.5z"/>
			<path class="st25" d="M387.6,44.8h-2.3v-4.5c0-1,0-1.6-0.1-1.8s-0.3-0.5-0.5-0.7c-0.2-0.2-0.5-0.2-0.8-0.2
				c-0.4,0-0.8,0.1-1.1,0.3c-0.3,0.2-0.5,0.5-0.7,0.9s-0.2,1-0.2,2v4h-2.3v-8.8h2.2v1.3c0.8-1,1.7-1.5,2.9-1.5c0.5,0,1,0.1,1.4,0.3
				s0.7,0.4,1,0.7c0.2,0.3,0.4,0.6,0.5,1s0.1,0.9,0.1,1.6V44.8z"/>
			<path class="st25" d="M391.7,38.6l-2.1-0.4c0.2-0.9,0.6-1.5,1.2-1.9s1.4-0.6,2.6-0.6c1,0,1.8,0.1,2.3,0.4s0.9,0.6,1.1,0.9
				c0.2,0.4,0.3,1.1,0.3,2.1l0,2.7c0,0.8,0,1.3,0.1,1.7c0.1,0.4,0.2,0.8,0.4,1.2h-2.3c-0.1-0.2-0.1-0.4-0.2-0.7
				c0-0.1-0.1-0.2-0.1-0.3c-0.4,0.4-0.8,0.7-1.3,0.9c-0.5,0.2-0.9,0.3-1.5,0.3c-0.9,0-1.6-0.2-2.1-0.7c-0.5-0.5-0.8-1.1-0.8-1.9
				c0-0.5,0.1-0.9,0.4-1.3c0.2-0.4,0.6-0.7,1-0.9c0.4-0.2,1-0.4,1.9-0.5c1.1-0.2,1.8-0.4,2.3-0.6v-0.2c0-0.4-0.1-0.8-0.3-1
				c-0.2-0.2-0.6-0.3-1.3-0.3c-0.4,0-0.7,0.1-1,0.2S391.8,38.2,391.7,38.6z M394.8,40.5c-0.3,0.1-0.8,0.2-1.4,0.4
				c-0.6,0.1-1.1,0.3-1.3,0.4c-0.3,0.2-0.5,0.5-0.5,0.8c0,0.3,0.1,0.6,0.4,0.8c0.2,0.2,0.6,0.4,0.9,0.4c0.4,0,0.8-0.1,1.2-0.4
				c0.3-0.2,0.5-0.5,0.6-0.8c0.1-0.2,0.1-0.6,0.1-1.1V40.5z"/>
			<path class="st25" d="M407.5,44.8h-2.2v-1.3c-0.4,0.5-0.8,0.9-1.3,1.1c-0.5,0.2-1,0.4-1.5,0.4c-1,0-1.9-0.4-2.6-1.2
				c-0.7-0.8-1.1-2-1.1-3.4c0-1.5,0.4-2.6,1.1-3.4c0.7-0.8,1.6-1.2,2.7-1.2c1,0,1.8,0.4,2.6,1.2v-4.4h2.3V44.8z M401.3,40.2
				c0,0.9,0.1,1.6,0.4,2c0.4,0.6,0.9,0.9,1.6,0.9c0.5,0,1-0.2,1.4-0.7c0.4-0.5,0.6-1.1,0.6-2c0-1-0.2-1.7-0.5-2.2s-0.8-0.7-1.4-0.7
				c-0.6,0-1,0.2-1.4,0.7C401.4,38.6,401.3,39.3,401.3,40.2z"/>
			<path class="st25" d="M411.5,38.6l-2.1-0.4c0.2-0.9,0.6-1.5,1.2-1.9s1.4-0.6,2.6-0.6c1,0,1.8,0.1,2.3,0.4s0.9,0.6,1.1,0.9
				c0.2,0.4,0.3,1.1,0.3,2.1l0,2.7c0,0.8,0,1.3,0.1,1.7c0.1,0.4,0.2,0.8,0.4,1.2h-2.3c-0.1-0.2-0.1-0.4-0.2-0.7
				c0-0.1-0.1-0.2-0.1-0.3c-0.4,0.4-0.8,0.7-1.3,0.9c-0.5,0.2-0.9,0.3-1.5,0.3c-0.9,0-1.6-0.2-2.1-0.7c-0.5-0.5-0.8-1.1-0.8-1.9
				c0-0.5,0.1-0.9,0.4-1.3c0.2-0.4,0.6-0.7,1-0.9c0.4-0.2,1-0.4,1.9-0.5c1.1-0.2,1.8-0.4,2.3-0.6v-0.2c0-0.4-0.1-0.8-0.3-1
				c-0.2-0.2-0.6-0.3-1.3-0.3c-0.4,0-0.7,0.1-1,0.2S411.7,38.2,411.5,38.6z M414.6,40.5c-0.3,0.1-0.8,0.2-1.4,0.4
				c-0.6,0.1-1.1,0.3-1.3,0.4c-0.3,0.2-0.5,0.5-0.5,0.8c0,0.3,0.1,0.6,0.4,0.8c0.2,0.2,0.6,0.4,0.9,0.4c0.4,0,0.8-0.1,1.2-0.4
				c0.3-0.2,0.5-0.5,0.6-0.8c0.1-0.2,0.1-0.6,0.1-1.1V40.5z"/>
		</g>
	</g>
	<g>
		<g>
			<path class="st25" d="M52.5,91.6h-2.7l-1.1-2.8h-4.9l-1,2.8h-2.6L45,79.4h2.6L52.5,91.6z M48,86.8l-1.7-4.5l-1.6,4.5H48z"/>
			<path class="st25" d="M53.7,91.6V79.4h3.7l2.2,8.3l2.2-8.3h3.7v12.2h-2.3V82l-2.4,9.6h-2.4L56,82v9.6H53.7z"/>
			<path class="st25" d="M67.9,91.6V79.4h9v2.1h-6.6v2.7h6.1v2h-6.1v3.3h6.8v2.1H67.9z"/>
			<path class="st25" d="M90.3,91.6h-2.7l-1.1-2.8h-4.9l-1,2.8H78l4.7-12.2h2.6L90.3,91.6z M85.7,86.8l-1.7-4.5l-1.6,4.5H85.7z"/>
		</g>
	</g>
	<g>
		<g>
			<path class="st25" d="M0,262.1v-12.2h9v2.1H2.5v2.7h6.1v2H2.5v3.3h6.8v2.1H0z"/>
			<path class="st25" d="M17.1,262.1v-1.3c-0.3,0.5-0.7,0.8-1.3,1.1c-0.5,0.3-1.1,0.4-1.7,0.4c-0.6,0-1.1-0.1-1.6-0.4
				c-0.5-0.3-0.8-0.6-1-1.1c-0.2-0.5-0.3-1.1-0.3-2v-5.6h2.3v4.1c0,1.2,0,2,0.1,2.3s0.2,0.5,0.5,0.7s0.5,0.2,0.9,0.2
				c0.4,0,0.8-0.1,1.1-0.3c0.3-0.2,0.5-0.5,0.6-0.8c0.1-0.3,0.2-1.1,0.2-2.4v-3.7h2.3v8.8H17.1z"/>
			<path class="st25" d="M23.9,262.1h-2.3v-8.8h2.2v1.3c0.4-0.6,0.7-1,1-1.2s0.6-0.3,1-0.3c0.5,0,1,0.1,1.5,0.4l-0.7,2
				c-0.4-0.3-0.8-0.4-1.1-0.4c-0.3,0-0.6,0.1-0.8,0.3s-0.4,0.5-0.5,1c-0.1,0.5-0.2,1.5-0.2,3V262.1z"/>
			<path class="st25" d="M27.8,257.6c0-0.8,0.2-1.5,0.6-2.2c0.4-0.7,0.9-1.3,1.6-1.7c0.7-0.4,1.5-0.6,2.3-0.6c1.3,0,2.4,0.4,3.3,1.3
				s1.3,2,1.3,3.3c0,1.3-0.4,2.4-1.3,3.3s-1.9,1.3-3.2,1.3c-0.8,0-1.6-0.2-2.3-0.5s-1.3-0.9-1.7-1.6C28,259.5,27.8,258.6,27.8,257.6
				z M30.2,257.7c0,0.9,0.2,1.5,0.6,2c0.4,0.5,0.9,0.7,1.5,0.7s1.1-0.2,1.5-0.7s0.6-1.1,0.6-2c0-0.9-0.2-1.5-0.6-2
				c-0.4-0.5-0.9-0.7-1.5-0.7s-1.1,0.2-1.5,0.7C30.4,256.2,30.2,256.8,30.2,257.7z"/>
			<path class="st25" d="M38.6,253.3h2.2v1.3c0.3-0.4,0.7-0.8,1.1-1.1c0.5-0.3,1-0.4,1.6-0.4c1,0,1.9,0.4,2.6,1.2
				c0.7,0.8,1.1,1.9,1.1,3.4c0,1.5-0.4,2.6-1.1,3.4c-0.7,0.8-1.6,1.2-2.6,1.2c-0.5,0-0.9-0.1-1.3-0.3c-0.4-0.2-0.8-0.5-1.2-1v4.4
				h-2.3V253.3z M40.9,257.6c0,1,0.2,1.7,0.6,2.2c0.4,0.5,0.9,0.7,1.4,0.7c0.5,0,1-0.2,1.4-0.7s0.5-1.1,0.5-2.1
				c0-0.9-0.2-1.6-0.6-2.1c-0.4-0.4-0.8-0.7-1.4-0.7c-0.6,0-1,0.2-1.4,0.7C41.1,256,40.9,256.7,40.9,257.6z"/>
			<path class="st25" d="M54.2,259.3l2.3,0.4c-0.3,0.9-0.8,1.5-1.4,1.9s-1.5,0.7-2.4,0.7c-1.5,0-2.7-0.5-3.4-1.5
				c-0.6-0.8-0.9-1.8-0.9-3c0-1.5,0.4-2.6,1.1-3.4s1.7-1.2,2.9-1.2c1.3,0,2.3,0.4,3.1,1.3s1.1,2.2,1.1,4h-5.8c0,0.7,0.2,1.2,0.6,1.6
				c0.4,0.4,0.8,0.6,1.3,0.6c0.4,0,0.7-0.1,0.9-0.3S54.1,259.7,54.2,259.3z M54.3,256.9c0-0.7-0.2-1.2-0.5-1.5s-0.7-0.5-1.2-0.5
				c-0.5,0-0.9,0.2-1.3,0.6s-0.5,0.9-0.5,1.5H54.3z"/>
		</g>
	</g>
</g>
</svg>
