<?xml version="1.0" encoding="utf-8"?>
<!-- Generator: Adobe Illustrator 21.0.2, SVG Export Plug-In . SVG Version: 6.00 Build 0)  -->
<svg version="1.1" id="Layer_1" xmlns="http://www.w3.org/2000/svg" xmlns:xlink="http://www.w3.org/1999/xlink" x="0px" y="0px"
	 viewBox="0 0 747.9 465.1" style="enable-background:new 0 0 747.9 465.1;" xml:space="preserve">
<style type="text/css">
	.st0{fill:#0072CE;}
	.st1{fill:#00B5EC;}
	.st2{fill:#FFFFFF;}
	.st3{fill:#5B7F94;}
	
		.st4{opacity:0.2;fill:none;stroke:#5B7F94;stroke-width:2;stroke-linecap:round;stroke-linejoin:round;stroke-miterlimit:10;stroke-dasharray:7;}
</style>
<g>
	<path class="st0" d="M18.5,37.2C8.3,37.2,0,29.2,0,19.5v-1.8C0,7.9,8.3,0,18.5,0h710.9c10.2,0,18.5,7.9,18.5,17.7v1.8
		c0,9.8-8.3,17.7-18.5,17.7H18.5z"/>
	<g>
		<path class="st1" d="M704.8,154.4h-96c-19.8,0-35.9-16.1-35.9-35.9v-15.3c0-19.8,16.1-35.9,35.9-35.9h96
			c19.8,0,35.9,16.1,35.9,35.9v15.3C740.7,138.3,724.6,154.4,704.8,154.4z"/>
		<path class="st1" d="M516.9,154.4h-96c-19.8,0-35.9-16.1-35.9-35.9v-15.3c0-19.8,16.1-35.9,35.9-35.9h96
			c19.8,0,35.9,16.1,35.9,35.9v15.3C552.9,138.3,536.8,154.4,516.9,154.4z"/>
		<path class="st1" d="M215,104.4c-10.2,0-18.5-7.9-18.5-17.7v-1.8c0-9.8,8.3-17.7,18.5-17.7h130.9c10.2,0,18.5,7.9,18.5,17.7v1.8
			c0,9.8-8.3,17.7-18.5,17.7H215z"/>
		<g>
			<g>
				<path class="st2" d="M191.3,26.8l-3.6-15h3.1l2.3,10.3l2.7-10.3h3.6l2.6,10.5l2.3-10.5h3.1l-3.7,15h-3.2l-3-11.2l-3,11.2H191.3z
					"/>
				<path class="st2" d="M210.3,19.3l-2.6-0.5c0.3-1.1,0.8-1.8,1.5-2.3s1.8-0.8,3.2-0.8c1.3,0,2.2,0.2,2.9,0.5
					c0.6,0.3,1.1,0.7,1.3,1.2c0.3,0.5,0.4,1.3,0.4,2.6l0,3.4c0,1,0,1.7,0.1,2.1c0.1,0.5,0.3,0.9,0.5,1.5h-2.9
					c-0.1-0.2-0.2-0.5-0.3-0.9c0-0.2-0.1-0.3-0.1-0.3c-0.5,0.5-1,0.8-1.6,1.1c-0.6,0.2-1.2,0.4-1.8,0.4c-1.1,0-2-0.3-2.7-0.9
					c-0.6-0.6-1-1.4-1-2.3c0-0.6,0.1-1.2,0.4-1.6c0.3-0.5,0.7-0.9,1.2-1.1c0.5-0.3,1.3-0.5,2.3-0.7c1.3-0.3,2.3-0.5,2.8-0.7v-0.3
					c0-0.6-0.1-0.9-0.4-1.2c-0.3-0.2-0.8-0.4-1.5-0.4c-0.5,0-0.9,0.1-1.2,0.3C210.7,18.4,210.5,18.8,210.3,19.3z M214.2,21.6
					c-0.4,0.1-1,0.3-1.8,0.4c-0.8,0.2-1.3,0.3-1.6,0.5c-0.4,0.3-0.6,0.6-0.6,1c0,0.4,0.2,0.8,0.5,1s0.7,0.4,1.1,0.4
					c0.5,0,1-0.2,1.5-0.5c0.3-0.3,0.6-0.6,0.7-1c0.1-0.2,0.1-0.7,0.1-1.4V21.6z"/>
				<path class="st2" d="M224.9,15.9v2.3h-2v4.4c0,0.9,0,1.4,0.1,1.6c0,0.1,0.1,0.3,0.3,0.4c0.1,0.1,0.3,0.1,0.5,0.1
					c0.3,0,0.7-0.1,1.2-0.3l0.2,2.2c-0.7,0.3-1.4,0.4-2.3,0.4c-0.5,0-1-0.1-1.4-0.3c-0.4-0.2-0.7-0.4-0.9-0.7
					c-0.2-0.3-0.3-0.7-0.4-1.1c-0.1-0.3-0.1-1-0.1-2v-4.7h-1.3v-2.3h1.3v-2.2l2.9-1.7v3.8H224.9z"/>
				<path class="st2" d="M233.2,23.4l2.9,0.5c-0.4,1.1-1,1.9-1.7,2.4c-0.8,0.5-1.8,0.8-3,0.8c-1.9,0-3.3-0.6-4.2-1.9
					c-0.7-1-1.1-2.2-1.1-3.8c0-1.8,0.5-3.2,1.4-4.2c0.9-1,2.1-1.5,3.6-1.5c1.6,0,2.9,0.5,3.8,1.6c0.9,1.1,1.4,2.7,1.3,4.9H229
					c0,0.9,0.3,1.5,0.7,2c0.4,0.5,1,0.7,1.7,0.7c0.5,0,0.8-0.1,1.1-0.4S233,23.9,233.2,23.4z M233.3,20.4c0-0.8-0.2-1.5-0.6-1.9
					c-0.4-0.4-0.9-0.7-1.5-0.7c-0.6,0-1.1,0.2-1.6,0.7s-0.6,1.1-0.6,1.9H233.3z"/>
				<path class="st2" d="M241.3,26.8h-2.9V15.9h2.7v1.5c0.5-0.7,0.9-1.2,1.2-1.4s0.8-0.3,1.2-0.3c0.7,0,1.3,0.2,1.9,0.5l-0.9,2.5
					c-0.5-0.3-0.9-0.5-1.4-0.5c-0.4,0-0.7,0.1-1,0.3c-0.3,0.2-0.5,0.6-0.7,1.2c-0.2,0.6-0.2,1.8-0.2,3.7V26.8z"/>
				<path class="st2" d="M252.6,26.8v-15h10.3v2.5h-7.3v3.6h6.3v2.5h-6.3v6.4H252.6z"/>
				<path class="st2" d="M272.5,26.8v-1.6c-0.4,0.6-0.9,1-1.6,1.4c-0.6,0.3-1.3,0.5-2,0.5c-0.7,0-1.4-0.2-2-0.5
					c-0.6-0.3-1-0.8-1.3-1.4c-0.3-0.6-0.4-1.4-0.4-2.4v-6.9h2.9v5c0,1.5,0.1,2.5,0.2,2.8c0.1,0.3,0.3,0.6,0.6,0.8
					c0.3,0.2,0.6,0.3,1.1,0.3c0.5,0,0.9-0.1,1.3-0.4c0.4-0.3,0.7-0.6,0.8-1c0.1-0.4,0.2-1.4,0.2-2.9v-4.6h2.9v10.9H272.5z"/>
				<path class="st2" d="M288.1,26.8h-2.9v-5.6c0-1.2-0.1-1.9-0.2-2.3c-0.1-0.3-0.3-0.6-0.6-0.8c-0.3-0.2-0.6-0.3-1-0.3
					c-0.5,0-0.9,0.1-1.3,0.4c-0.4,0.3-0.7,0.6-0.8,1.1c-0.1,0.5-0.2,1.3-0.2,2.5v4.9h-2.9V15.9h2.7v1.6c1-1.2,2.1-1.8,3.6-1.8
					c0.6,0,1.2,0.1,1.7,0.3c0.5,0.2,0.9,0.5,1.2,0.9c0.3,0.4,0.5,0.8,0.6,1.2c0.1,0.5,0.2,1.1,0.2,1.9V26.8z"/>
				<path class="st2" d="M301,26.8h-2.7v-1.6c-0.4,0.6-1,1.1-1.6,1.4c-0.6,0.3-1.2,0.5-1.8,0.5c-1.3,0-2.3-0.5-3.2-1.5
					c-0.9-1-1.3-2.4-1.3-4.2c0-1.8,0.4-3.2,1.3-4.2c0.9-1,2-1.4,3.3-1.4c1.2,0,2.3,0.5,3.2,1.5v-5.4h2.9V26.8z M293.3,21.1
					c0,1.2,0.2,2,0.5,2.5c0.5,0.8,1.1,1.1,1.9,1.1c0.7,0,1.2-0.3,1.7-0.8c0.5-0.6,0.7-1.4,0.7-2.5c0-1.2-0.2-2.2-0.7-2.7
					c-0.5-0.6-1-0.8-1.7-0.8c-0.7,0-1.3,0.3-1.7,0.8C293.6,19.3,293.3,20.1,293.3,21.1z"/>
				<path class="st2" d="M302.8,23.7l2.9-0.4c0.1,0.6,0.4,1,0.7,1.3c0.4,0.3,0.9,0.4,1.6,0.4c0.7,0,1.3-0.1,1.7-0.4
					c0.3-0.2,0.4-0.4,0.4-0.8c0-0.2-0.1-0.4-0.2-0.5c-0.1-0.1-0.5-0.3-1-0.4c-2.3-0.5-3.8-1-4.4-1.4c-0.9-0.6-1.3-1.4-1.3-2.5
					c0-0.9,0.4-1.7,1.1-2.4s1.9-1,3.5-1c1.5,0,2.6,0.2,3.3,0.7c0.7,0.5,1.2,1.2,1.5,2.2l-2.7,0.5c-0.1-0.4-0.3-0.7-0.7-1
					c-0.3-0.2-0.8-0.3-1.4-0.3c-0.8,0-1.3,0.1-1.6,0.3c-0.2,0.2-0.3,0.3-0.3,0.6c0,0.2,0.1,0.4,0.3,0.5c0.3,0.2,1.2,0.5,2.7,0.8
					s2.6,0.8,3.2,1.3c0.6,0.5,0.9,1.2,0.9,2.1c0,1-0.4,1.9-1.3,2.6c-0.8,0.7-2.1,1.1-3.7,1.1c-1.5,0-2.7-0.3-3.5-0.9
					C303.7,25.6,303.1,24.7,302.8,23.7z"/>
				<path class="st2" d="M320.3,23.7l2.9-0.4c0.1,0.6,0.4,1,0.7,1.3c0.4,0.3,0.9,0.4,1.6,0.4c0.7,0,1.3-0.1,1.7-0.4
					c0.3-0.2,0.4-0.4,0.4-0.8c0-0.2-0.1-0.4-0.2-0.5c-0.1-0.1-0.5-0.3-1-0.4c-2.3-0.5-3.8-1-4.4-1.4c-0.9-0.6-1.3-1.4-1.3-2.5
					c0-0.9,0.4-1.7,1.1-2.4s1.9-1,3.5-1c1.5,0,2.6,0.2,3.3,0.7c0.7,0.5,1.2,1.2,1.5,2.2l-2.7,0.5c-0.1-0.4-0.3-0.7-0.7-1
					c-0.3-0.2-0.8-0.3-1.4-0.3c-0.8,0-1.3,0.1-1.6,0.3c-0.2,0.2-0.3,0.3-0.3,0.6c0,0.2,0.1,0.4,0.3,0.5c0.3,0.2,1.2,0.5,2.7,0.8
					s2.6,0.8,3.2,1.3c0.6,0.5,0.9,1.2,0.9,2.1c0,1-0.4,1.9-1.3,2.6c-0.8,0.7-2.1,1.1-3.7,1.1c-1.5,0-2.7-0.3-3.5-0.9
					C321.2,25.6,320.6,24.7,320.3,23.7z"/>
				<path class="st2" d="M340.2,26.8v-1.6c-0.4,0.6-0.9,1-1.6,1.4c-0.6,0.3-1.3,0.5-2,0.5c-0.7,0-1.4-0.2-2-0.5
					c-0.6-0.3-1-0.8-1.3-1.4c-0.3-0.6-0.4-1.4-0.4-2.4v-6.9h2.9v5c0,1.5,0.1,2.5,0.2,2.8c0.1,0.3,0.3,0.6,0.6,0.8
					c0.3,0.2,0.6,0.3,1.1,0.3c0.5,0,0.9-0.1,1.3-0.4c0.4-0.3,0.7-0.6,0.8-1c0.1-0.4,0.2-1.4,0.2-2.9v-4.6h2.9v10.9H340.2z"/>
				<path class="st2" d="M345.8,15.9h2.7v1.6c0.3-0.5,0.8-1,1.4-1.3s1.3-0.5,2-0.5c1.3,0,2.3,0.5,3.2,1.5s1.3,2.4,1.3,4.1
					c0,1.8-0.4,3.2-1.3,4.2c-0.9,1-2,1.5-3.2,1.5c-0.6,0-1.1-0.1-1.6-0.4c-0.5-0.2-1-0.6-1.5-1.2V31h-2.9V15.9z M348.6,21.2
					c0,1.2,0.2,2.1,0.7,2.7c0.5,0.6,1.1,0.9,1.8,0.9c0.7,0,1.2-0.3,1.7-0.8c0.4-0.5,0.7-1.4,0.7-2.6c0-1.1-0.2-2-0.7-2.5
					c-0.5-0.6-1-0.8-1.7-0.8c-0.7,0-1.3,0.3-1.8,0.8C348.9,19.3,348.6,20.1,348.6,21.2z"/>
				<path class="st2" d="M358.6,15.9h2.7v1.6c0.3-0.5,0.8-1,1.4-1.3s1.3-0.5,2-0.5c1.3,0,2.3,0.5,3.2,1.5s1.3,2.4,1.3,4.1
					c0,1.8-0.4,3.2-1.3,4.2c-0.9,1-2,1.5-3.2,1.5c-0.6,0-1.1-0.1-1.6-0.4c-0.5-0.2-1-0.6-1.5-1.2V31h-2.9V15.9z M361.5,21.2
					c0,1.2,0.2,2.1,0.7,2.7c0.5,0.6,1.1,0.9,1.8,0.9c0.7,0,1.2-0.3,1.7-0.8c0.4-0.5,0.7-1.4,0.7-2.6c0-1.1-0.2-2-0.7-2.5
					c-0.5-0.6-1-0.8-1.7-0.8c-0.7,0-1.3,0.3-1.8,0.8C361.7,19.3,361.5,20.1,361.5,21.2z"/>
				<path class="st2" d="M370.9,21.2c0-1,0.2-1.9,0.7-2.8s1.1-1.6,2-2.1c0.9-0.5,1.8-0.7,2.9-0.7c1.6,0,3,0.5,4,1.6
					c1.1,1.1,1.6,2.4,1.6,4.1c0,1.6-0.5,3-1.6,4.1c-1.1,1.1-2.4,1.6-4,1.6c-1,0-2-0.2-2.9-0.7s-1.6-1.1-2.1-2
					C371.1,23.5,370.9,22.5,370.9,21.2z M373.8,21.4c0,1.1,0.3,1.9,0.8,2.5s1.1,0.9,1.9,0.9s1.4-0.3,1.9-0.9s0.8-1.4,0.8-2.5
					c0-1.1-0.3-1.9-0.8-2.5s-1.1-0.9-1.9-0.9s-1.4,0.3-1.9,0.9S373.8,20.3,373.8,21.4z"/>
				<path class="st2" d="M387.1,26.8h-2.9V15.9h2.7v1.5c0.5-0.7,0.9-1.2,1.2-1.4c0.4-0.2,0.8-0.3,1.2-0.3c0.7,0,1.3,0.2,1.9,0.5
					l-0.9,2.5c-0.5-0.3-0.9-0.5-1.4-0.5c-0.4,0-0.7,0.1-1,0.3c-0.3,0.2-0.5,0.6-0.7,1.2c-0.2,0.6-0.2,1.8-0.2,3.7V26.8z"/>
				<path class="st2" d="M397.5,15.9v2.3h-2v4.4c0,0.9,0,1.4,0.1,1.6c0,0.1,0.1,0.3,0.3,0.4c0.1,0.1,0.3,0.1,0.5,0.1
					c0.3,0,0.7-0.1,1.2-0.3l0.2,2.2c-0.7,0.3-1.4,0.4-2.3,0.4c-0.5,0-1-0.1-1.4-0.3c-0.4-0.2-0.7-0.4-0.9-0.7
					c-0.2-0.3-0.3-0.7-0.4-1.1c-0.1-0.3-0.1-1-0.1-2v-4.7h-1.3v-2.3h1.3v-2.2l2.9-1.7v3.8H397.5z"/>
				<path class="st2" d="M405.8,23.4l2.9,0.5c-0.4,1.1-1,1.9-1.7,2.4c-0.8,0.5-1.8,0.8-3,0.8c-1.9,0-3.3-0.6-4.2-1.9
					c-0.7-1-1.1-2.2-1.1-3.8c0-1.8,0.5-3.2,1.4-4.2c0.9-1,2.1-1.5,3.6-1.5c1.6,0,2.9,0.5,3.8,1.6c0.9,1.1,1.4,2.7,1.3,4.9h-7.2
					c0,0.9,0.3,1.5,0.7,2c0.4,0.5,1,0.7,1.7,0.7c0.5,0,0.8-0.1,1.1-0.4S405.7,23.9,405.8,23.4z M406,20.4c0-0.8-0.2-1.5-0.6-1.9
					c-0.4-0.4-0.9-0.7-1.5-0.7c-0.6,0-1.1,0.2-1.6,0.7s-0.6,1.1-0.6,1.9H406z"/>
				<path class="st2" d="M421.2,26.8h-2.7v-1.6c-0.4,0.6-1,1.1-1.6,1.4c-0.6,0.3-1.2,0.5-1.8,0.5c-1.3,0-2.3-0.5-3.2-1.5
					c-0.9-1-1.3-2.4-1.3-4.2c0-1.8,0.4-3.2,1.3-4.2c0.9-1,2-1.4,3.3-1.4c1.2,0,2.3,0.5,3.2,1.5v-5.4h2.9V26.8z M413.5,21.1
					c0,1.2,0.2,2,0.5,2.5c0.5,0.8,1.1,1.1,1.9,1.1c0.7,0,1.2-0.3,1.7-0.8c0.5-0.6,0.7-1.4,0.7-2.5c0-1.2-0.2-2.2-0.7-2.7
					c-0.5-0.6-1-0.8-1.7-0.8c-0.7,0-1.3,0.3-1.7,0.8C413.7,19.3,413.5,20.1,413.5,21.1z"/>
				<path class="st2" d="M429.7,26.8v-15h2.9v5.4c0.9-1,1.9-1.5,3.2-1.5c1.3,0,2.4,0.5,3.3,1.4c0.9,1,1.3,2.3,1.3,4.1
					c0,1.9-0.4,3.3-1.3,4.3c-0.9,1-2,1.5-3.2,1.5c-0.6,0-1.2-0.2-1.8-0.5c-0.6-0.3-1.1-0.8-1.6-1.4v1.6H429.7z M432.6,21.1
					c0,1.1,0.2,2,0.5,2.5c0.5,0.8,1.2,1.1,2,1.1c0.6,0,1.2-0.3,1.6-0.8c0.4-0.5,0.7-1.4,0.7-2.6c0-1.2-0.2-2.1-0.7-2.7
					c-0.5-0.6-1-0.8-1.7-0.8c-0.7,0-1.3,0.3-1.7,0.8C432.8,19.2,432.6,20,432.6,21.1z"/>
				<path class="st2" d="M441.3,15.9h3.1l2.6,7.7l2.5-7.7h3l-3.8,10.5l-0.7,1.9c-0.3,0.6-0.5,1.1-0.7,1.5c-0.2,0.3-0.5,0.6-0.8,0.8
					c-0.3,0.2-0.7,0.4-1.1,0.5c-0.4,0.1-0.9,0.2-1.5,0.2c-0.6,0-1.1-0.1-1.6-0.2l-0.3-2.3c0.5,0.1,0.9,0.1,1.2,0.1
					c0.7,0,1.2-0.2,1.5-0.6c0.3-0.4,0.6-0.9,0.7-1.5L441.3,15.9z"/>
				<path class="st2" d="M460.2,26.8v-15h4.5l2.7,10.3l2.7-10.3h4.6v15h-2.8V15l-3,11.8H466L463,15v11.8H460.2z"/>
				<path class="st2" d="M484,23.4l2.9,0.5c-0.4,1.1-1,1.9-1.7,2.4c-0.8,0.5-1.8,0.8-3,0.8c-1.9,0-3.3-0.6-4.2-1.9
					c-0.7-1-1.1-2.2-1.1-3.8c0-1.8,0.5-3.2,1.4-4.2c0.9-1,2.1-1.5,3.6-1.5c1.6,0,2.9,0.5,3.8,1.6c0.9,1.1,1.4,2.7,1.3,4.9h-7.2
					c0,0.9,0.3,1.5,0.7,2c0.4,0.5,1,0.7,1.7,0.7c0.5,0,0.8-0.1,1.1-0.4S483.8,23.9,484,23.4z M484.2,20.4c0-0.8-0.2-1.5-0.6-1.9
					c-0.4-0.4-0.9-0.7-1.5-0.7c-0.6,0-1.1,0.2-1.6,0.7s-0.6,1.1-0.6,1.9H484.2z"/>
				<path class="st2" d="M488,26.8l3.9-5.6l-3.8-5.3h3.5l1.9,3l2-3h3.4l-3.7,5.2l4,5.7h-3.5l-2.2-3.4l-2.2,3.4H488z"/>
				<path class="st2" d="M501.1,14.5v-2.7h2.9v2.7H501.1z M501.1,26.8V15.9h2.9v10.9H501.1z"/>
				<path class="st2" d="M516.4,19.2l-2.8,0.5c-0.1-0.6-0.3-1-0.7-1.3c-0.3-0.3-0.8-0.4-1.3-0.4c-0.7,0-1.3,0.2-1.7,0.7
					c-0.4,0.5-0.6,1.3-0.6,2.5c0,1.3,0.2,2.2,0.7,2.7c0.4,0.5,1,0.8,1.7,0.8c0.5,0,1-0.2,1.3-0.5c0.3-0.3,0.6-0.8,0.7-1.6l2.8,0.5
					c-0.3,1.3-0.9,2.3-1.7,2.9s-2,1-3.4,1c-1.6,0-2.9-0.5-3.8-1.5c-0.9-1-1.4-2.4-1.4-4.2c0-1.8,0.5-3.2,1.4-4.2
					c1-1,2.2-1.5,3.9-1.5c1.3,0,2.4,0.3,3.2,0.9C515.5,17.1,516,18,516.4,19.2z"/>
				<path class="st2" d="M521.4,11.8v5.5c0.9-1.1,2-1.6,3.3-1.6c0.7,0,1.3,0.1,1.8,0.4s0.9,0.6,1.2,0.9c0.3,0.4,0.5,0.8,0.6,1.3
					c0.1,0.5,0.1,1.2,0.1,2.2v6.4h-2.9v-5.8c0-1.1-0.1-1.9-0.2-2.2c-0.1-0.3-0.3-0.6-0.6-0.7c-0.3-0.2-0.6-0.3-1-0.3
					c-0.5,0-0.9,0.1-1.3,0.3s-0.7,0.6-0.8,1.1c-0.2,0.5-0.3,1.2-0.3,2.1v5.5h-2.9v-15H521.4z"/>
				<path class="st2" d="M537.7,23.4l2.9,0.5c-0.4,1.1-1,1.9-1.7,2.4c-0.8,0.5-1.8,0.8-3,0.8c-1.9,0-3.3-0.6-4.2-1.9
					c-0.7-1-1.1-2.2-1.1-3.8c0-1.8,0.5-3.2,1.4-4.2c0.9-1,2.1-1.5,3.6-1.5c1.6,0,2.9,0.5,3.8,1.6c0.9,1.1,1.4,2.7,1.3,4.9h-7.2
					c0,0.9,0.3,1.5,0.7,2c0.4,0.5,1,0.7,1.7,0.7c0.5,0,0.8-0.1,1.1-0.4S537.5,23.9,537.7,23.4z M537.9,20.4c0-0.8-0.2-1.5-0.6-1.9
					c-0.4-0.4-0.9-0.7-1.5-0.7c-0.6,0-1.1,0.2-1.6,0.7s-0.6,1.1-0.6,1.9H537.9z"/>
				<path class="st2" d="M542.9,15.9h2.7v1.5c1-1.2,2.1-1.7,3.4-1.7c0.7,0,1.3,0.1,1.8,0.4c0.5,0.3,0.9,0.7,1.3,1.3
					c0.5-0.6,1-1,1.5-1.3c0.6-0.3,1.1-0.4,1.8-0.4c0.8,0,1.5,0.2,2,0.5c0.6,0.3,1,0.8,1.2,1.4c0.2,0.5,0.3,1.2,0.3,2.3v7H556v-6.2
					c0-1.1-0.1-1.8-0.3-2.1c-0.3-0.4-0.7-0.6-1.2-0.6c-0.4,0-0.8,0.1-1.1,0.4c-0.4,0.2-0.6,0.6-0.8,1.1c-0.2,0.5-0.2,1.2-0.2,2.3
					v5.2h-2.9v-6c0-1.1-0.1-1.7-0.2-2.1c-0.1-0.3-0.3-0.5-0.5-0.7c-0.2-0.2-0.5-0.2-0.9-0.2c-0.4,0-0.8,0.1-1.2,0.4s-0.6,0.6-0.8,1
					c-0.2,0.5-0.2,1.2-0.2,2.2v5.3h-2.9V15.9z"/>
			</g>
		</g>
		<path class="st1" d="M26.1,104.4c-10.2,0-18.5-7.9-18.5-17.7v-1.8c0-9.8,8.3-17.7,18.5-17.7H157c10.2,0,18.5,7.9,18.5,17.7v1.8
			c0,9.8-8.3,17.7-18.5,17.7H26.1z"/>
		<g>
			<path class="st3" d="M16.1,211v-13.6h2.7l3.2,9.6c0.3,0.9,0.5,1.6,0.6,2c0.2-0.5,0.4-1.2,0.7-2.2l3.3-9.5h2.4V211h-1.7v-11.4
				l-4,11.4h-1.6l-3.9-11.6V211H16.1z"/>
			<path class="st3" d="M38.5,207.9l1.7,0.2c-0.3,1-0.8,1.8-1.5,2.3c-0.7,0.6-1.7,0.8-2.8,0.8c-1.4,0-2.6-0.4-3.4-1.3
				c-0.8-0.9-1.3-2.1-1.3-3.7c0-1.7,0.4-2.9,1.3-3.9s2-1.4,3.3-1.4c1.3,0,2.4,0.4,3.2,1.3c0.8,0.9,1.3,2.2,1.3,3.8
				c0,0.1,0,0.2,0,0.4h-7.3c0.1,1.1,0.4,1.9,0.9,2.5c0.6,0.6,1.2,0.9,2.1,0.9c0.6,0,1.1-0.2,1.6-0.5
				C37.9,209.1,38.2,208.6,38.5,207.9z M33,205.2h5.5c-0.1-0.8-0.3-1.5-0.6-1.9c-0.5-0.6-1.2-1-2.1-1c-0.8,0-1.4,0.3-1.9,0.8
				C33.4,203.6,33.1,204.3,33,205.2z"/>
			<path class="st3" d="M41.2,211l3.6-5.1l-3.3-4.7h2.1l1.5,2.3c0.3,0.4,0.5,0.8,0.7,1.1c0.3-0.4,0.5-0.8,0.8-1.1l1.7-2.3h2
				l-3.4,4.6l3.7,5.2h-2.1l-2-3.1l-0.5-0.8l-2.6,3.9H41.2z"/>
			<path class="st3" d="M51.8,199.4v-1.9h1.7v1.9H51.8z M51.8,211v-9.9h1.7v9.9H51.8z"/>
			<path class="st3" d="M62.5,207.4l1.6,0.2c-0.2,1.1-0.6,2-1.4,2.7c-0.7,0.6-1.6,1-2.7,1c-1.3,0-2.4-0.4-3.3-1.3
				c-0.8-0.9-1.2-2.1-1.2-3.8c0-1.1,0.2-2,0.5-2.8s0.9-1.4,1.6-1.8c0.7-0.4,1.5-0.6,2.4-0.6c1.1,0,1.9,0.3,2.6,0.8
				c0.7,0.5,1.1,1.3,1.3,2.3l-1.6,0.3c-0.2-0.7-0.4-1.2-0.8-1.5c-0.4-0.3-0.9-0.5-1.4-0.5c-0.8,0-1.5,0.3-2.1,0.9
				c-0.5,0.6-0.8,1.6-0.8,2.9c0,1.3,0.3,2.3,0.8,2.9c0.5,0.6,1.2,0.9,2,0.9c0.7,0,1.2-0.2,1.6-0.6C62.1,208.9,62.4,208.3,62.5,207.4
				z"/>
			<path class="st3" d="M64.9,206.1c0-1.8,0.5-3.2,1.5-4.1c0.8-0.7,1.9-1.1,3.1-1.1c1.4,0,2.5,0.4,3.3,1.3c0.9,0.9,1.3,2.1,1.3,3.7
				c0,1.3-0.2,2.3-0.6,3c-0.4,0.7-0.9,1.3-1.7,1.7c-0.7,0.4-1.5,0.6-2.4,0.6c-1.4,0-2.5-0.4-3.3-1.3
				C65.3,209.1,64.9,207.8,64.9,206.1z M66.6,206.1c0,1.3,0.3,2.2,0.8,2.8c0.6,0.6,1.2,0.9,2.1,0.9c0.8,0,1.5-0.3,2.1-0.9
				c0.6-0.6,0.8-1.6,0.8-2.9c0-1.2-0.3-2.1-0.8-2.8c-0.6-0.6-1.2-0.9-2.1-0.9c-0.8,0-1.5,0.3-2.1,0.9
				C66.9,203.9,66.6,204.9,66.6,206.1z"/>
			<path class="st3" d="M91.3,206.3l1.8,0.5c-0.4,1.5-1.1,2.6-2,3.4c-1,0.8-2.2,1.2-3.6,1.2c-1.5,0-2.7-0.3-3.6-0.9
				c-0.9-0.6-1.6-1.5-2.1-2.6c-0.5-1.1-0.7-2.3-0.7-3.6c0-1.4,0.3-2.7,0.8-3.7c0.5-1.1,1.3-1.9,2.3-2.4c1-0.5,2.1-0.8,3.3-0.8
				c1.4,0,2.5,0.3,3.4,1c0.9,0.7,1.6,1.7,1.9,2.9l-1.8,0.4c-0.3-1-0.8-1.7-1.4-2.2c-0.6-0.5-1.4-0.7-2.3-0.7c-1,0-1.9,0.3-2.6,0.8
				c-0.7,0.5-1.2,1.2-1.5,2c-0.3,0.8-0.4,1.7-0.4,2.6c0,1.2,0.2,2.2,0.5,3c0.3,0.9,0.9,1.5,1.6,1.9c0.7,0.4,1.5,0.6,2.3,0.6
				c1,0,1.9-0.3,2.6-0.9C90.6,208.3,91.1,207.4,91.3,206.3z"/>
			<path class="st3" d="M95.1,199.4v-1.9h1.7v1.9H95.1z M95.1,211v-9.9h1.7v9.9H95.1z"/>
			<path class="st3" d="M103,209.6l0.2,1.5c-0.5,0.1-0.9,0.1-1.3,0.1c-0.6,0-1.1-0.1-1.4-0.3c-0.3-0.2-0.6-0.4-0.7-0.8
				c-0.1-0.3-0.2-1-0.2-2v-5.7h-1.2v-1.3h1.2v-2.4l1.7-1v3.4h1.7v1.3h-1.7v5.8c0,0.5,0,0.8,0.1,0.9c0.1,0.1,0.2,0.2,0.3,0.3
				c0.1,0.1,0.3,0.1,0.6,0.1C102.4,209.6,102.7,209.6,103,209.6z"/>
			<path class="st3" d="M104.5,214.8l-0.2-1.6c0.4,0.1,0.7,0.1,1,0.1c0.4,0,0.7-0.1,0.9-0.2s0.4-0.3,0.5-0.5
				c0.1-0.2,0.3-0.6,0.5-1.2c0-0.1,0.1-0.2,0.1-0.4l-3.7-9.9h1.8l2.1,5.7c0.3,0.7,0.5,1.5,0.7,2.3c0.2-0.8,0.4-1.5,0.7-2.2l2.1-5.7
				h1.7l-3.7,10c-0.4,1.1-0.7,1.8-0.9,2.2c-0.3,0.6-0.6,1-1,1.2c-0.4,0.3-0.8,0.4-1.4,0.4C105.3,215,104.9,215,104.5,214.8z"/>
			<path class="st3" d="M123.5,211l-5.3-13.6h1.9l3.5,9.9c0.3,0.8,0.5,1.5,0.7,2.2c0.2-0.7,0.5-1.5,0.7-2.2l3.7-9.9h1.8l-5.3,13.6
				H123.5z"/>
			<path class="st3" d="M137.1,209.8c-0.6,0.5-1.2,0.9-1.8,1.1c-0.6,0.2-1.2,0.3-1.8,0.3c-1.1,0-1.9-0.3-2.5-0.8
				c-0.6-0.5-0.9-1.2-0.9-2c0-0.5,0.1-0.9,0.3-1.3c0.2-0.4,0.5-0.7,0.9-1c0.4-0.2,0.8-0.4,1.2-0.5c0.3-0.1,0.8-0.2,1.5-0.2
				c1.3-0.2,2.3-0.4,3-0.6c0-0.2,0-0.4,0-0.4c0-0.7-0.2-1.2-0.5-1.4c-0.4-0.4-1.1-0.6-1.9-0.6c-0.8,0-1.4,0.1-1.7,0.4
				c-0.4,0.3-0.7,0.8-0.8,1.5l-1.6-0.2c0.1-0.7,0.4-1.3,0.7-1.7c0.3-0.4,0.8-0.8,1.5-1c0.6-0.2,1.4-0.3,2.2-0.3
				c0.8,0,1.5,0.1,2.1,0.3c0.5,0.2,0.9,0.4,1.2,0.7c0.2,0.3,0.4,0.7,0.5,1.1c0.1,0.3,0.1,0.8,0.1,1.5v2.2c0,1.6,0,2.5,0.1,2.9
				c0.1,0.4,0.2,0.8,0.4,1.2h-1.7C137.2,210.7,137.1,210.3,137.1,209.8z M136.9,206.1c-0.6,0.2-1.5,0.5-2.7,0.6
				c-0.7,0.1-1.2,0.2-1.5,0.3c-0.3,0.1-0.5,0.3-0.7,0.5c-0.2,0.2-0.2,0.5-0.2,0.8c0,0.4,0.2,0.8,0.5,1.1c0.3,0.3,0.8,0.4,1.5,0.4
				c0.6,0,1.2-0.1,1.7-0.4c0.5-0.3,0.9-0.7,1.1-1.2c0.2-0.4,0.3-0.9,0.3-1.7V206.1z"/>
			<path class="st3" d="M141.2,211v-13.6h1.7V211H141.2z"/>
			<path class="st3" d="M145.4,211v-13.6h1.7V211H145.4z"/>
			<path class="st3" d="M156.4,207.9l1.7,0.2c-0.3,1-0.8,1.8-1.5,2.3c-0.7,0.6-1.7,0.8-2.8,0.8c-1.4,0-2.6-0.4-3.4-1.3
				c-0.8-0.9-1.3-2.1-1.3-3.7c0-1.7,0.4-2.9,1.3-3.9s2-1.4,3.3-1.4c1.3,0,2.4,0.4,3.2,1.3c0.8,0.9,1.3,2.2,1.3,3.8
				c0,0.1,0,0.2,0,0.4h-7.3c0.1,1.1,0.4,1.9,0.9,2.5c0.6,0.6,1.2,0.9,2.1,0.9c0.6,0,1.1-0.2,1.6-0.5
				C155.8,209.1,156.2,208.6,156.4,207.9z M150.9,205.2h5.5c-0.1-0.8-0.3-1.5-0.6-1.9c-0.5-0.6-1.2-1-2.1-1c-0.8,0-1.4,0.3-1.9,0.8
				C151.3,203.6,151,204.3,150.9,205.2z"/>
			<path class="st3" d="M160.2,214.8l-0.2-1.6c0.4,0.1,0.7,0.1,1,0.1c0.4,0,0.7-0.1,0.9-0.2s0.4-0.3,0.5-0.5
				c0.1-0.2,0.3-0.6,0.5-1.2c0-0.1,0.1-0.2,0.1-0.4l-3.7-9.9h1.8l2.1,5.7c0.3,0.7,0.5,1.5,0.7,2.3c0.2-0.8,0.4-1.5,0.7-2.2l2.1-5.7
				h1.7l-3.7,10c-0.4,1.1-0.7,1.8-0.9,2.2c-0.3,0.6-0.6,1-1,1.2c-0.4,0.3-0.8,0.4-1.4,0.4C160.9,215,160.5,215,160.2,214.8z"/>
		</g>
		<g>
			<path class="st0" d="M468,208.1v2.4h-9.1c0.1-0.9,0.4-1.8,0.9-2.6c0.5-0.8,1.5-1.9,2.9-3.3c1.2-1.1,1.9-1.8,2.2-2.2
				c0.4-0.5,0.5-1.1,0.5-1.6c0-0.6-0.2-1-0.5-1.3c-0.3-0.3-0.7-0.5-1.3-0.5c-0.5,0-1,0.2-1.3,0.5s-0.5,0.9-0.6,1.6l-2.6-0.3
				c0.2-1.4,0.6-2.5,1.5-3.1c0.8-0.6,1.8-0.9,3.1-0.9c1.3,0,2.4,0.4,3.2,1.1c0.8,0.7,1.2,1.6,1.2,2.7c0,0.6-0.1,1.2-0.3,1.7
				s-0.6,1.1-1,1.7c-0.3,0.4-0.9,1-1.7,1.7c-0.8,0.8-1.3,1.3-1.6,1.5c-0.2,0.2-0.4,0.5-0.5,0.7H468z"/>
			<path class="st0" d="M476.4,210.5h-2.6v-9.8c-1,0.9-2.1,1.5-3.4,2v-2.4c0.7-0.2,1.4-0.6,2.2-1.3c0.8-0.6,1.3-1.3,1.6-2.2h2.1
				V210.5z"/>
		</g>
		<g>
			<path class="st0" d="M463.2,252.5h-2.6v-9.8c-1,0.9-2.1,1.5-3.4,2v-2.4c0.7-0.2,1.4-0.6,2.2-1.3c0.8-0.6,1.3-1.3,1.6-2.2h2.1
				V252.5z"/>
			<path class="st0" d="M467.6,252.5v-2.6h2.6v2.6H467.6z"/>
			<path class="st0" d="M481.2,250.1v2.4H472c0.1-0.9,0.4-1.8,0.9-2.6c0.5-0.8,1.5-1.9,2.9-3.3c1.2-1.1,1.9-1.8,2.2-2.2
				c0.4-0.5,0.5-1.1,0.5-1.6c0-0.6-0.2-1-0.5-1.3c-0.3-0.3-0.7-0.5-1.3-0.5c-0.5,0-1,0.2-1.3,0.5c-0.3,0.3-0.5,0.9-0.6,1.6l-2.6-0.3
				c0.2-1.4,0.6-2.5,1.5-3.1c0.8-0.6,1.8-0.9,3.1-0.9c1.3,0,2.4,0.4,3.2,1.1c0.8,0.7,1.2,1.6,1.2,2.7c0,0.6-0.1,1.2-0.3,1.7
				c-0.2,0.6-0.6,1.1-1,1.7c-0.3,0.4-0.9,1-1.7,1.7c-0.8,0.8-1.3,1.3-1.6,1.5c-0.2,0.2-0.4,0.5-0.5,0.7H481.2z"/>
		</g>
		<g>
			<path class="st0" d="M465.3,282.2l-2.5,0.3c-0.1-0.5-0.2-0.9-0.5-1.2c-0.3-0.2-0.6-0.4-1-0.4c-0.6,0-1,0.2-1.4,0.7
				c-0.4,0.5-0.6,1.5-0.7,3.1c0.6-0.8,1.5-1.2,2.4-1.2c1.1,0,2,0.4,2.8,1.2c0.8,0.8,1.2,1.9,1.2,3.2c0,1.4-0.4,2.5-1.2,3.3
				c-0.8,0.8-1.9,1.3-3.1,1.3c-1.4,0-2.5-0.5-3.4-1.6c-0.9-1.1-1.3-2.8-1.3-5.2c0-2.5,0.5-4.3,1.4-5.4c0.9-1.1,2.1-1.7,3.6-1.7
				c1,0,1.9,0.3,2.6,0.9C464.7,280.3,465.2,281.1,465.3,282.2z M459.4,287.9c0,0.8,0.2,1.5,0.6,2c0.4,0.5,0.8,0.7,1.3,0.7
				c0.5,0,0.9-0.2,1.2-0.6c0.3-0.4,0.5-1,0.5-1.9c0-0.9-0.2-1.5-0.5-1.9c-0.3-0.4-0.8-0.6-1.3-0.6c-0.5,0-0.9,0.2-1.3,0.6
				C459.6,286.6,459.4,287.1,459.4,287.9z"/>
			<path class="st0" d="M467.6,292.5v-2.6h2.6v2.6H467.6z"/>
			<path class="st0" d="M474.6,285.2c-0.7-0.3-1.2-0.7-1.5-1.2c-0.3-0.5-0.5-1-0.5-1.6c0-1,0.4-1.9,1.1-2.5c0.7-0.7,1.7-1,3-1
				c1.3,0,2.3,0.3,3,1c0.7,0.7,1.1,1.5,1.1,2.5c0,0.6-0.2,1.2-0.5,1.7c-0.3,0.5-0.8,0.9-1.4,1.1c0.8,0.3,1.3,0.7,1.7,1.3
				s0.6,1.3,0.6,2c0,1.3-0.4,2.3-1.2,3.1c-0.8,0.8-1.9,1.2-3.2,1.2c-1.2,0-2.3-0.3-3.1-1c-1-0.8-1.5-1.8-1.5-3.2
				c0-0.7,0.2-1.4,0.5-2C473.2,286,473.8,285.5,474.6,285.2z M474.9,288.4c0,0.7,0.2,1.3,0.6,1.7c0.4,0.4,0.8,0.6,1.4,0.6
				c0.5,0,1-0.2,1.3-0.6c0.4-0.4,0.5-0.9,0.5-1.7c0-0.6-0.2-1.1-0.5-1.5c-0.4-0.4-0.8-0.6-1.4-0.6c-0.6,0-1.1,0.2-1.4,0.7
				C475.1,287.4,474.9,287.8,474.9,288.4z M475.1,282.5c0,0.5,0.1,0.9,0.4,1.2c0.3,0.3,0.7,0.4,1.2,0.4c0.5,0,0.9-0.1,1.2-0.4
				s0.4-0.7,0.4-1.2c0-0.5-0.1-0.9-0.4-1.2c-0.3-0.3-0.7-0.4-1.2-0.4c-0.5,0-0.9,0.1-1.2,0.4S475.1,282,475.1,282.5z"/>
		</g>
		<g>
			<path class="st0" d="M471.1,332.5h-2.6v-9.8c-1,0.9-2.1,1.5-3.4,2v-2.4c0.7-0.2,1.4-0.6,2.2-1.3c0.8-0.6,1.3-1.3,1.6-2.2h2.1
				V332.5z"/>
		</g>
		<g>
			<path class="st0" d="M464.3,368.9l2.5-0.3c0.1,0.6,0.3,1.1,0.6,1.5c0.4,0.3,0.8,0.5,1.3,0.5c0.5,0,1-0.2,1.4-0.6s0.6-1,0.6-1.7
				c0-0.7-0.2-1.2-0.5-1.6s-0.8-0.6-1.3-0.6c-0.3,0-0.7,0.1-1.2,0.2l0.3-2.1c0.7,0,1.2-0.1,1.6-0.5c0.4-0.3,0.6-0.8,0.6-1.3
				c0-0.5-0.1-0.8-0.4-1.1c-0.3-0.3-0.6-0.4-1.1-0.4c-0.4,0-0.8,0.2-1.1,0.5c-0.3,0.3-0.5,0.8-0.6,1.4l-2.4-0.4
				c0.2-0.8,0.4-1.5,0.8-2c0.3-0.5,0.8-0.9,1.4-1.2c0.6-0.3,1.3-0.4,2-0.4c1.3,0,2.3,0.4,3.1,1.2c0.6,0.7,1,1.4,1,2.3
				c0,1.2-0.7,2.1-2,2.9c0.8,0.2,1.4,0.5,1.9,1.1c0.5,0.6,0.7,1.3,0.7,2.1c0,1.2-0.4,2.2-1.3,3.1c-0.9,0.8-2,1.3-3.3,1.3
				c-1.2,0-2.3-0.4-3.1-1.1S464.5,370,464.3,368.9z"/>
		</g>
		<g>
			<path class="st0" d="M464.5,409.8l2.5-0.3c0.1,0.5,0.2,0.9,0.5,1.1s0.6,0.4,1,0.4c0.5,0,1-0.2,1.4-0.7c0.4-0.5,0.6-1.5,0.7-3.1
				c-0.7,0.8-1.5,1.1-2.5,1.1c-1.1,0-2-0.4-2.8-1.2c-0.8-0.8-1.2-1.9-1.2-3.2c0-1.4,0.4-2.5,1.2-3.3c0.8-0.8,1.9-1.3,3.1-1.3
				c1.4,0,2.5,0.5,3.4,1.6c0.9,1.1,1.3,2.8,1.3,5.3c0,2.5-0.5,4.3-1.4,5.4s-2.1,1.7-3.6,1.7c-1.1,0-1.9-0.3-2.6-0.8
				C465.1,411.8,464.7,411,464.5,409.8z M470.4,404.1c0-0.8-0.2-1.5-0.6-2c-0.4-0.5-0.8-0.7-1.3-0.7c-0.5,0-0.9,0.2-1.2,0.6
				c-0.3,0.4-0.5,1-0.5,1.9c0,0.9,0.2,1.5,0.5,1.9s0.8,0.6,1.3,0.6c0.5,0,0.9-0.2,1.3-0.6C470.2,405.5,470.4,404.9,470.4,404.1z"/>
		</g>
		<g>
			<path class="st0" d="M644,203.2c-0.7-0.3-1.2-0.7-1.5-1.2c-0.3-0.5-0.5-1-0.5-1.6c0-1,0.4-1.9,1.1-2.5c0.7-0.7,1.7-1,3-1
				c1.3,0,2.3,0.3,3,1c0.7,0.7,1.1,1.5,1.1,2.5c0,0.6-0.2,1.2-0.5,1.7c-0.3,0.5-0.8,0.9-1.4,1.1c0.8,0.3,1.3,0.7,1.7,1.3
				s0.6,1.3,0.6,2c0,1.3-0.4,2.3-1.2,3.1c-0.8,0.8-1.9,1.2-3.2,1.2c-1.2,0-2.3-0.3-3.1-1c-1-0.8-1.5-1.8-1.5-3.2
				c0-0.7,0.2-1.4,0.5-2C642.6,204,643.2,203.5,644,203.2z M644.3,206.4c0,0.7,0.2,1.3,0.6,1.7c0.4,0.4,0.8,0.6,1.4,0.6
				c0.5,0,1-0.2,1.3-0.6c0.4-0.4,0.5-0.9,0.5-1.7c0-0.6-0.2-1.1-0.5-1.5c-0.4-0.4-0.8-0.6-1.4-0.6c-0.6,0-1.1,0.2-1.4,0.7
				C644.4,205.4,644.3,205.8,644.3,206.4z M644.5,200.5c0,0.5,0.1,0.9,0.4,1.2c0.3,0.3,0.7,0.4,1.2,0.4c0.5,0,0.9-0.1,1.2-0.4
				s0.4-0.7,0.4-1.2c0-0.5-0.1-0.9-0.4-1.2c-0.3-0.3-0.7-0.4-1.2-0.4c-0.5,0-0.9,0.1-1.2,0.4S644.5,200,644.5,200.5z"/>
			<path class="st0" d="M659,210.5h-2.6v-9.8c-1,0.9-2.1,1.5-3.4,2v-2.4c0.7-0.2,1.4-0.6,2.2-1.3c0.8-0.6,1.3-1.3,1.6-2.2h2.1V210.5
				z"/>
			<path class="st0" d="M662.9,207l2.6-0.3c0.1,0.6,0.3,1.1,0.7,1.4c0.4,0.3,0.8,0.5,1.3,0.5c0.5,0,1-0.2,1.4-0.7s0.6-1.1,0.6-2
				c0-0.8-0.2-1.5-0.6-1.9c-0.4-0.4-0.9-0.6-1.5-0.6c-0.7,0-1.4,0.3-2,1l-2.1-0.3l1.3-7.1h6.9v2.4h-4.9l-0.4,2.3
				c0.6-0.3,1.2-0.4,1.8-0.4c1.2,0,2.1,0.4,2.9,1.3c0.8,0.8,1.2,1.9,1.2,3.3c0,1.1-0.3,2.1-1,3c-0.9,1.2-2.1,1.8-3.7,1.8
				c-1.3,0-2.3-0.3-3.1-1C663.5,209,663.1,208.1,662.9,207z"/>
		</g>
		<g>
			<path class="st0" d="M629.9,252.5h-2.6v-9.8c-1,0.9-2.1,1.5-3.4,2v-2.4c0.7-0.2,1.4-0.6,2.2-1.3c0.8-0.6,1.3-1.3,1.6-2.2h2.1
				V252.5z"/>
			<path class="st0" d="M642.6,250.1v2.4h-9.1c0.1-0.9,0.4-1.8,0.9-2.6c0.5-0.8,1.5-1.9,2.9-3.3c1.2-1.1,1.9-1.8,2.2-2.2
				c0.4-0.5,0.5-1.1,0.5-1.6c0-0.6-0.2-1-0.5-1.3c-0.3-0.3-0.7-0.5-1.3-0.5c-0.5,0-1,0.2-1.3,0.5c-0.3,0.3-0.5,0.9-0.6,1.6l-2.6-0.3
				c0.2-1.4,0.6-2.5,1.5-3.1c0.8-0.6,1.8-0.9,3.1-0.9c1.3,0,2.4,0.4,3.2,1.1c0.8,0.7,1.2,1.6,1.2,2.7c0,0.6-0.1,1.2-0.3,1.7
				c-0.2,0.6-0.6,1.1-1,1.7c-0.3,0.4-0.9,1-1.7,1.7c-0.8,0.8-1.3,1.3-1.6,1.5c-0.2,0.2-0.4,0.5-0.5,0.7H642.6z"/>
			<path class="st0" d="M644.4,249l2.6-0.3c0.1,0.6,0.3,1.1,0.7,1.4c0.4,0.3,0.8,0.5,1.3,0.5c0.5,0,1-0.2,1.4-0.7
				c0.4-0.4,0.6-1.1,0.6-2c0-0.8-0.2-1.5-0.6-1.9c-0.4-0.4-0.9-0.6-1.5-0.6c-0.7,0-1.4,0.3-2,1l-2.1-0.3l1.3-7.1h6.9v2.4h-4.9
				l-0.4,2.3c0.6-0.3,1.2-0.4,1.8-0.4c1.2,0,2.1,0.4,2.9,1.3c0.8,0.8,1.2,1.9,1.2,3.3c0,1.1-0.3,2.1-1,3c-0.9,1.2-2.1,1.8-3.7,1.8
				c-1.3,0-2.3-0.3-3.1-1S644.6,250.1,644.4,249z"/>
			<path class="st0" d="M655.4,249.9h2.6v1.9c0,0.8-0.1,1.3-0.2,1.8c-0.1,0.4-0.4,0.8-0.7,1.2c-0.4,0.3-0.8,0.6-1.4,0.8l-0.5-1.1
				c0.5-0.2,0.9-0.4,1.1-0.7s0.3-0.7,0.4-1.2h-1.3V249.9z"/>
			<path class="st0" d="M664.6,238.8c1.3,0,2.3,0.5,3.1,1.4c0.9,1.1,1.3,3,1.3,5.5c0,2.6-0.4,4.4-1.3,5.5c-0.7,0.9-1.8,1.4-3.1,1.4
				c-1.3,0-2.4-0.5-3.2-1.5c-0.8-1-1.2-2.8-1.2-5.4c0-2.6,0.4-4.4,1.3-5.5C662.3,239.3,663.3,238.8,664.6,238.8z M664.6,241
				c-0.3,0-0.6,0.1-0.8,0.3c-0.2,0.2-0.4,0.6-0.6,1.1c-0.2,0.7-0.3,1.8-0.3,3.4s0.1,2.7,0.2,3.3c0.2,0.6,0.4,1,0.6,1.2
				c0.2,0.2,0.5,0.3,0.8,0.3s0.6-0.1,0.8-0.3c0.2-0.2,0.4-0.6,0.6-1.1c0.2-0.7,0.3-1.8,0.3-3.4s-0.1-2.7-0.2-3.3s-0.4-1-0.6-1.2
				C665.2,241.1,665,241,664.6,241z"/>
			<path class="st0" d="M675.2,238.8c1.3,0,2.3,0.5,3.1,1.4c0.9,1.1,1.3,3,1.3,5.5c0,2.6-0.4,4.4-1.3,5.5c-0.7,0.9-1.8,1.4-3.1,1.4
				c-1.3,0-2.4-0.5-3.2-1.5s-1.2-2.8-1.2-5.4c0-2.6,0.4-4.4,1.3-5.5C672.9,239.3,673.9,238.8,675.2,238.8z M675.2,241
				c-0.3,0-0.6,0.1-0.8,0.3c-0.2,0.2-0.4,0.6-0.6,1.1c-0.2,0.7-0.3,1.8-0.3,3.4s0.1,2.7,0.2,3.3c0.2,0.6,0.4,1,0.6,1.2
				s0.5,0.3,0.8,0.3s0.6-0.1,0.8-0.3c0.2-0.2,0.4-0.6,0.6-1.1c0.2-0.7,0.3-1.8,0.3-3.4s-0.1-2.7-0.2-3.3c-0.2-0.6-0.4-1-0.6-1.2
				C675.8,241.1,675.5,241,675.2,241z"/>
			<path class="st0" d="M685.8,238.8c1.3,0,2.3,0.5,3.1,1.4c0.9,1.1,1.3,3,1.3,5.5c0,2.6-0.4,4.4-1.3,5.5c-0.7,0.9-1.8,1.4-3.1,1.4
				c-1.3,0-2.4-0.5-3.2-1.5c-0.8-1-1.2-2.8-1.2-5.4c0-2.6,0.4-4.4,1.3-5.5C683.4,239.3,684.5,238.8,685.8,238.8z M685.8,241
				c-0.3,0-0.6,0.1-0.8,0.3c-0.2,0.2-0.4,0.6-0.6,1.1c-0.2,0.7-0.3,1.8-0.3,3.4s0.1,2.7,0.2,3.3c0.2,0.6,0.4,1,0.6,1.2
				c0.2,0.2,0.5,0.3,0.8,0.3s0.6-0.1,0.8-0.3c0.2-0.2,0.4-0.6,0.6-1.1c0.2-0.7,0.3-1.8,0.3-3.4s-0.1-2.7-0.2-3.3s-0.4-1-0.6-1.2
				C686.4,241.1,686.1,241,685.8,241z"/>
		</g>
		<g>
			<path class="st0" d="M629.9,292.5h-2.6v-9.8c-1,0.9-2.1,1.5-3.4,2v-2.4c0.7-0.2,1.4-0.6,2.2-1.3c0.8-0.6,1.3-1.3,1.6-2.2h2.1
				V292.5z"/>
			<path class="st0" d="M633.9,289l2.6-0.3c0.1,0.6,0.3,1.1,0.7,1.4c0.4,0.3,0.8,0.5,1.3,0.5c0.5,0,1-0.2,1.4-0.7s0.6-1.1,0.6-2
				c0-0.8-0.2-1.5-0.6-1.9c-0.4-0.4-0.9-0.6-1.5-0.6c-0.7,0-1.4,0.3-2,1l-2.1-0.3l1.3-7.1h6.9v2.4h-4.9l-0.4,2.3
				c0.6-0.3,1.2-0.4,1.8-0.4c1.2,0,2.1,0.4,2.9,1.3c0.8,0.8,1.2,1.9,1.2,3.3c0,1.1-0.3,2.1-1,3c-0.9,1.2-2.1,1.8-3.7,1.8
				c-1.3,0-2.3-0.3-3.1-1C634.5,291,634,290.1,633.9,289z"/>
			<path class="st0" d="M648.8,278.8c1.3,0,2.3,0.5,3.1,1.4c0.9,1.1,1.3,3,1.3,5.5c0,2.6-0.4,4.4-1.3,5.5c-0.7,0.9-1.8,1.4-3.1,1.4
				c-1.3,0-2.4-0.5-3.2-1.5c-0.8-1-1.2-2.8-1.2-5.4c0-2.6,0.4-4.4,1.3-5.5C646.5,279.3,647.5,278.8,648.8,278.8z M648.8,281
				c-0.3,0-0.6,0.1-0.8,0.3c-0.2,0.2-0.4,0.6-0.6,1.1c-0.2,0.7-0.3,1.8-0.3,3.4s0.1,2.7,0.2,3.3c0.2,0.6,0.4,1,0.6,1.2
				c0.2,0.2,0.5,0.3,0.8,0.3s0.6-0.1,0.8-0.3c0.2-0.2,0.4-0.6,0.6-1.1c0.2-0.7,0.3-1.8,0.3-3.4s-0.1-2.7-0.2-3.3s-0.4-1-0.6-1.2
				C649.4,281.1,649.1,281,648.8,281z"/>
			<path class="st0" d="M655.4,289.9h2.6v1.9c0,0.8-0.1,1.3-0.2,1.8c-0.1,0.4-0.4,0.8-0.7,1.2c-0.4,0.3-0.8,0.6-1.4,0.8l-0.5-1.1
				c0.5-0.2,0.9-0.4,1.1-0.7s0.3-0.7,0.4-1.2h-1.3V289.9z"/>
			<path class="st0" d="M664.6,278.8c1.3,0,2.3,0.5,3.1,1.4c0.9,1.1,1.3,3,1.3,5.5c0,2.6-0.4,4.4-1.3,5.5c-0.7,0.9-1.8,1.4-3.1,1.4
				c-1.3,0-2.4-0.5-3.2-1.5c-0.8-1-1.2-2.8-1.2-5.4c0-2.6,0.4-4.4,1.3-5.5C662.3,279.3,663.3,278.8,664.6,278.8z M664.6,281
				c-0.3,0-0.6,0.1-0.8,0.3c-0.2,0.2-0.4,0.6-0.6,1.1c-0.2,0.7-0.3,1.8-0.3,3.4s0.1,2.7,0.2,3.3c0.2,0.6,0.4,1,0.6,1.2
				c0.2,0.2,0.5,0.3,0.8,0.3s0.6-0.1,0.8-0.3c0.2-0.2,0.4-0.6,0.6-1.1c0.2-0.7,0.3-1.8,0.3-3.4s-0.1-2.7-0.2-3.3s-0.4-1-0.6-1.2
				C665.2,281.1,665,281,664.6,281z"/>
			<path class="st0" d="M675.2,278.8c1.3,0,2.3,0.5,3.1,1.4c0.9,1.1,1.3,3,1.3,5.5c0,2.6-0.4,4.4-1.3,5.5c-0.7,0.9-1.8,1.4-3.1,1.4
				c-1.3,0-2.4-0.5-3.2-1.5s-1.2-2.8-1.2-5.4c0-2.6,0.4-4.4,1.3-5.5C672.9,279.3,673.9,278.8,675.2,278.8z M675.2,281
				c-0.3,0-0.6,0.1-0.8,0.3c-0.2,0.2-0.4,0.6-0.6,1.1c-0.2,0.7-0.3,1.8-0.3,3.4s0.1,2.7,0.2,3.3c0.2,0.6,0.4,1,0.6,1.2
				s0.5,0.3,0.8,0.3s0.6-0.1,0.8-0.3c0.2-0.2,0.4-0.6,0.6-1.1c0.2-0.7,0.3-1.8,0.3-3.4s-0.1-2.7-0.2-3.3c-0.2-0.6-0.4-1-0.6-1.2
				C675.8,281.1,675.5,281,675.2,281z"/>
			<path class="st0" d="M685.8,278.8c1.3,0,2.3,0.5,3.1,1.4c0.9,1.1,1.3,3,1.3,5.5c0,2.6-0.4,4.4-1.3,5.5c-0.7,0.9-1.8,1.4-3.1,1.4
				c-1.3,0-2.4-0.5-3.2-1.5c-0.8-1-1.2-2.8-1.2-5.4c0-2.6,0.4-4.4,1.3-5.5C683.4,279.3,684.5,278.8,685.8,278.8z M685.8,281
				c-0.3,0-0.6,0.1-0.8,0.3c-0.2,0.2-0.4,0.6-0.6,1.1c-0.2,0.7-0.3,1.8-0.3,3.4s0.1,2.7,0.2,3.3c0.2,0.6,0.4,1,0.6,1.2
				c0.2,0.2,0.5,0.3,0.8,0.3s0.6-0.1,0.8-0.3c0.2-0.2,0.4-0.6,0.6-1.1c0.2-0.7,0.3-1.8,0.3-3.4s-0.1-2.7-0.2-3.3s-0.4-1-0.6-1.2
				C686.4,281.1,686.1,281,685.8,281z"/>
		</g>
		<g>
			<path class="st0" d="M655.4,325.1l-1.4-1.1c0.4-0.5,0.9-1,1.4-1.4c0.2-0.2,0.3-0.3,0.4-0.4c-0.2,0-0.6-0.1-1.3-0.3
				c-0.5-0.1-0.9-0.2-1-0.3l0.5-1.6c0.8,0.3,1.5,0.7,2.2,1.1c-0.1-1-0.2-1.8-0.2-2.5h1.7c0,0.5-0.1,1.3-0.2,2.5
				c0.1,0,0.4-0.2,0.8-0.4c0.6-0.3,1.1-0.5,1.5-0.6l0.5,1.7c-0.7,0.2-1.5,0.3-2.4,0.5l1.1,1.3c0.2,0.3,0.4,0.5,0.5,0.6l-1.4,0.9
				l-1.3-2.1C656.3,323.7,655.9,324.4,655.4,325.1z"/>
		</g>
		<g>
			<path class="st0" d="M655.4,365.1l-1.4-1.1c0.4-0.5,0.9-1,1.4-1.4c0.2-0.2,0.3-0.3,0.4-0.4c-0.2,0-0.6-0.1-1.3-0.3
				c-0.5-0.1-0.9-0.2-1-0.3l0.5-1.6c0.8,0.3,1.5,0.7,2.2,1.1c-0.1-1-0.2-1.8-0.2-2.5h1.7c0,0.5-0.1,1.3-0.2,2.5
				c0.1,0,0.4-0.2,0.8-0.4c0.6-0.3,1.1-0.5,1.5-0.6l0.5,1.7c-0.7,0.2-1.5,0.3-2.4,0.5l1.1,1.3c0.2,0.3,0.4,0.5,0.5,0.6l-1.4,0.9
				l-1.3-2.1C656.3,363.7,655.9,364.4,655.4,365.1z"/>
		</g>
		<g>
			<path class="st0" d="M628.4,413v-2.7h-5.6V408l5.9-8.6h2.2v8.6h1.7v2.3h-1.7v2.7H628.4z M628.4,408v-4.6l-3.1,4.6H628.4z"/>
			<path class="st0" d="M633.9,409.5l2.6-0.3c0.1,0.6,0.3,1.1,0.7,1.4c0.4,0.3,0.8,0.5,1.3,0.5c0.5,0,1-0.2,1.4-0.7s0.6-1.1,0.6-2
				c0-0.8-0.2-1.5-0.6-1.9c-0.4-0.4-0.9-0.6-1.5-0.6c-0.7,0-1.4,0.3-2,1l-2.1-0.3l1.3-7.1h6.9v2.4h-4.9l-0.4,2.3
				c0.6-0.3,1.2-0.4,1.8-0.4c1.2,0,2.1,0.4,2.9,1.3c0.8,0.8,1.2,1.9,1.2,3.3c0,1.1-0.3,2.1-1,3c-0.9,1.2-2.1,1.8-3.7,1.8
				c-1.3,0-2.3-0.3-3.1-1C634.5,411.5,634,410.6,633.9,409.5z"/>
			<path class="st0" d="M648.8,399.3c1.3,0,2.3,0.5,3.1,1.4c0.9,1.1,1.3,3,1.3,5.5c0,2.6-0.4,4.4-1.3,5.5c-0.7,0.9-1.8,1.4-3.1,1.4
				c-1.3,0-2.4-0.5-3.2-1.5c-0.8-1-1.2-2.8-1.2-5.4c0-2.6,0.4-4.4,1.3-5.5C646.5,399.8,647.5,399.3,648.8,399.3z M648.8,401.5
				c-0.3,0-0.6,0.1-0.8,0.3c-0.2,0.2-0.4,0.6-0.6,1.1c-0.2,0.7-0.3,1.8-0.3,3.4s0.1,2.7,0.2,3.3c0.2,0.6,0.4,1,0.6,1.2
				c0.2,0.2,0.5,0.3,0.8,0.3s0.6-0.1,0.8-0.3c0.2-0.2,0.4-0.6,0.6-1.1c0.2-0.7,0.3-1.8,0.3-3.4s-0.1-2.7-0.2-3.3s-0.4-1-0.6-1.2
				C649.4,401.6,649.1,401.5,648.8,401.5z"/>
			<path class="st0" d="M655.4,410.4h2.6v1.9c0,0.8-0.1,1.3-0.2,1.8c-0.1,0.4-0.4,0.8-0.7,1.2c-0.4,0.3-0.8,0.6-1.4,0.8l-0.5-1.1
				c0.5-0.2,0.9-0.4,1.1-0.7s0.3-0.7,0.4-1.2h-1.3V410.4z"/>
			<path class="st0" d="M664.6,399.3c1.3,0,2.3,0.5,3.1,1.4c0.9,1.1,1.3,3,1.3,5.5c0,2.6-0.4,4.4-1.3,5.5c-0.7,0.9-1.8,1.4-3.1,1.4
				c-1.3,0-2.4-0.5-3.2-1.5c-0.8-1-1.2-2.8-1.2-5.4c0-2.6,0.4-4.4,1.3-5.5C662.3,399.8,663.3,399.3,664.6,399.3z M664.6,401.5
				c-0.3,0-0.6,0.1-0.8,0.3c-0.2,0.2-0.4,0.6-0.6,1.1c-0.2,0.7-0.3,1.8-0.3,3.4s0.1,2.7,0.2,3.3c0.2,0.6,0.4,1,0.6,1.2
				c0.2,0.2,0.5,0.3,0.8,0.3s0.6-0.1,0.8-0.3c0.2-0.2,0.4-0.6,0.6-1.1c0.2-0.7,0.3-1.8,0.3-3.4s-0.1-2.7-0.2-3.3s-0.4-1-0.6-1.2
				C665.2,401.6,665,401.5,664.6,401.5z"/>
			<path class="st0" d="M675.2,399.3c1.3,0,2.3,0.5,3.1,1.4c0.9,1.1,1.3,3,1.3,5.5c0,2.6-0.4,4.4-1.3,5.5c-0.7,0.9-1.8,1.4-3.1,1.4
				c-1.3,0-2.4-0.5-3.2-1.5s-1.2-2.8-1.2-5.4c0-2.6,0.4-4.4,1.3-5.5C672.9,399.8,673.9,399.3,675.2,399.3z M675.2,401.5
				c-0.3,0-0.6,0.1-0.8,0.3c-0.2,0.2-0.4,0.6-0.6,1.1c-0.2,0.7-0.3,1.8-0.3,3.4s0.1,2.7,0.2,3.3c0.2,0.6,0.4,1,0.6,1.2
				s0.5,0.3,0.8,0.3s0.6-0.1,0.8-0.3c0.2-0.2,0.4-0.6,0.6-1.1c0.2-0.7,0.3-1.8,0.3-3.4s-0.1-2.7-0.2-3.3c-0.2-0.6-0.4-1-0.6-1.2
				C675.8,401.6,675.5,401.5,675.2,401.5z"/>
			<path class="st0" d="M685.8,399.3c1.3,0,2.3,0.5,3.1,1.4c0.9,1.1,1.3,3,1.3,5.5c0,2.6-0.4,4.4-1.3,5.5c-0.7,0.9-1.8,1.4-3.1,1.4
				c-1.3,0-2.4-0.5-3.2-1.5c-0.8-1-1.2-2.8-1.2-5.4c0-2.6,0.4-4.4,1.3-5.5C683.4,399.8,684.5,399.3,685.8,399.3z M685.8,401.5
				c-0.3,0-0.6,0.1-0.8,0.3c-0.2,0.2-0.4,0.6-0.6,1.1c-0.2,0.7-0.3,1.8-0.3,3.4s0.1,2.7,0.2,3.3c0.2,0.6,0.4,1,0.6,1.2
				c0.2,0.2,0.5,0.3,0.8,0.3s0.6-0.1,0.8-0.3c0.2-0.2,0.4-0.6,0.6-1.1c0.2-0.7,0.3-1.8,0.3-3.4s-0.1-2.7-0.2-3.3s-0.4-1-0.6-1.2
				C686.4,401.6,686.1,401.5,685.8,401.5z"/>
		</g>
		<g>
			<path class="st3" d="M47.5,248.3l1.8,0.5c-0.4,1.5-1.1,2.6-2,3.4c-1,0.8-2.2,1.2-3.6,1.2c-1.5,0-2.7-0.3-3.6-0.9
				c-0.9-0.6-1.6-1.5-2.1-2.6c-0.5-1.1-0.7-2.3-0.7-3.6c0-1.4,0.3-2.7,0.8-3.7c0.5-1.1,1.3-1.9,2.3-2.4c1-0.5,2.1-0.8,3.3-0.8
				c1.4,0,2.5,0.3,3.4,1c0.9,0.7,1.6,1.7,1.9,2.9l-1.8,0.4c-0.3-1-0.8-1.7-1.4-2.2c-0.6-0.5-1.4-0.7-2.3-0.7c-1,0-1.9,0.2-2.6,0.8
				c-0.7,0.5-1.2,1.2-1.5,2c-0.3,0.8-0.4,1.7-0.4,2.6c0,1.2,0.2,2.2,0.5,3c0.3,0.9,0.9,1.5,1.6,1.9c0.7,0.4,1.5,0.6,2.3,0.6
				c1,0,1.9-0.3,2.6-0.9C46.8,250.3,47.2,249.4,47.5,248.3z"/>
			<path class="st3" d="M57.7,251.8c-0.6,0.5-1.2,0.9-1.8,1.1c-0.6,0.2-1.2,0.3-1.8,0.3c-1.1,0-1.9-0.3-2.5-0.8
				c-0.6-0.5-0.9-1.2-0.9-2c0-0.5,0.1-0.9,0.3-1.3c0.2-0.4,0.5-0.7,0.9-1c0.4-0.2,0.8-0.4,1.2-0.5c0.3-0.1,0.8-0.2,1.5-0.2
				c1.3-0.2,2.3-0.4,3-0.6c0-0.2,0-0.4,0-0.4c0-0.7-0.2-1.2-0.5-1.4c-0.4-0.4-1.1-0.6-1.9-0.6c-0.8,0-1.4,0.1-1.7,0.4
				c-0.4,0.3-0.7,0.8-0.8,1.5L51,246c0.1-0.7,0.4-1.3,0.7-1.7c0.3-0.4,0.8-0.8,1.5-1c0.6-0.2,1.4-0.3,2.2-0.3c0.8,0,1.5,0.1,2.1,0.3
				c0.5,0.2,0.9,0.4,1.2,0.7c0.2,0.3,0.4,0.7,0.5,1.1c0.1,0.3,0.1,0.8,0.1,1.5v2.2c0,1.6,0,2.5,0.1,2.9c0.1,0.4,0.2,0.8,0.4,1.2H58
				C57.9,252.7,57.8,252.3,57.7,251.8z M57.6,248.1c-0.6,0.2-1.5,0.5-2.7,0.6c-0.7,0.1-1.2,0.2-1.5,0.3c-0.3,0.1-0.5,0.3-0.7,0.5
				c-0.2,0.2-0.2,0.5-0.2,0.8c0,0.4,0.2,0.8,0.5,1.1c0.3,0.3,0.8,0.4,1.5,0.4c0.6,0,1.2-0.1,1.7-0.4s0.9-0.7,1.1-1.2
				c0.2-0.4,0.3-0.9,0.3-1.7V248.1z"/>
			<path class="st3" d="M68.3,253v-1.4c-0.8,1.1-1.8,1.7-3.1,1.7c-0.6,0-1.1-0.1-1.6-0.3c-0.5-0.2-0.9-0.5-1.1-0.8
				c-0.2-0.3-0.4-0.8-0.5-1.2c-0.1-0.3-0.1-0.8-0.1-1.6v-6.1h1.7v5.5c0,0.9,0,1.5,0.1,1.8c0.1,0.4,0.3,0.8,0.7,1
				c0.3,0.2,0.8,0.4,1.3,0.4s1-0.1,1.4-0.4c0.4-0.3,0.8-0.6,0.9-1c0.2-0.4,0.3-1.1,0.3-1.9v-5.3h1.7v9.9H68.3z"/>
			<path class="st3" d="M78.8,249.4l1.6,0.2c-0.2,1.1-0.6,2-1.4,2.7c-0.7,0.6-1.6,1-2.7,1c-1.3,0-2.4-0.4-3.3-1.3
				c-0.8-0.9-1.2-2.1-1.2-3.8c0-1.1,0.2-2,0.5-2.8c0.4-0.8,0.9-1.4,1.6-1.8c0.7-0.4,1.5-0.6,2.4-0.6c1.1,0,1.9,0.3,2.6,0.8
				c0.7,0.5,1.1,1.3,1.3,2.3l-1.6,0.3c-0.2-0.7-0.4-1.2-0.8-1.5c-0.4-0.3-0.9-0.5-1.4-0.5c-0.8,0-1.5,0.3-2.1,0.9
				c-0.5,0.6-0.8,1.6-0.8,2.9c0,1.3,0.3,2.3,0.8,2.9c0.5,0.6,1.2,0.9,2,0.9c0.7,0,1.2-0.2,1.6-0.6C78.4,250.9,78.7,250.3,78.8,249.4
				z"/>
			<path class="st3" d="M88.3,251.8c-0.6,0.5-1.2,0.9-1.8,1.1c-0.6,0.2-1.2,0.3-1.8,0.3c-1.1,0-1.9-0.3-2.5-0.8
				c-0.6-0.5-0.9-1.2-0.9-2c0-0.5,0.1-0.9,0.3-1.3c0.2-0.4,0.5-0.7,0.9-1c0.4-0.2,0.8-0.4,1.2-0.5c0.3-0.1,0.8-0.2,1.5-0.2
				c1.3-0.2,2.3-0.4,3-0.6c0-0.2,0-0.4,0-0.4c0-0.7-0.2-1.2-0.5-1.4c-0.4-0.4-1.1-0.6-1.9-0.6c-0.8,0-1.4,0.1-1.7,0.4
				c-0.4,0.3-0.7,0.8-0.8,1.5l-1.6-0.2c0.1-0.7,0.4-1.3,0.7-1.7c0.3-0.4,0.8-0.8,1.5-1c0.6-0.2,1.4-0.3,2.2-0.3
				c0.8,0,1.5,0.1,2.1,0.3c0.5,0.2,0.9,0.4,1.2,0.7c0.2,0.3,0.4,0.7,0.5,1.1c0.1,0.3,0.1,0.8,0.1,1.5v2.2c0,1.6,0,2.5,0.1,2.9
				c0.1,0.4,0.2,0.8,0.4,1.2h-1.7C88.5,252.7,88.4,252.3,88.3,251.8z M88.2,248.1c-0.6,0.2-1.5,0.5-2.7,0.6
				c-0.7,0.1-1.2,0.2-1.5,0.3c-0.3,0.1-0.5,0.3-0.7,0.5c-0.2,0.2-0.2,0.5-0.2,0.8c0,0.4,0.2,0.8,0.5,1.1c0.3,0.3,0.8,0.4,1.5,0.4
				c0.6,0,1.2-0.1,1.7-0.4s0.9-0.7,1.1-1.2c0.2-0.4,0.3-0.9,0.3-1.7V248.1z"/>
			<path class="st3" d="M101.9,253l-5.3-13.6h1.9l3.5,9.9c0.3,0.8,0.5,1.5,0.7,2.2c0.2-0.7,0.5-1.5,0.7-2.2l3.7-9.9h1.8l-5.3,13.6
				H101.9z"/>
			<path class="st3" d="M115.5,251.8c-0.6,0.5-1.2,0.9-1.8,1.1c-0.6,0.2-1.2,0.3-1.8,0.3c-1.1,0-1.9-0.3-2.5-0.8
				c-0.6-0.5-0.9-1.2-0.9-2c0-0.5,0.1-0.9,0.3-1.3c0.2-0.4,0.5-0.7,0.9-1c0.4-0.2,0.8-0.4,1.2-0.5c0.3-0.1,0.8-0.2,1.5-0.2
				c1.3-0.2,2.3-0.4,3-0.6c0-0.2,0-0.4,0-0.4c0-0.7-0.2-1.2-0.5-1.4c-0.4-0.4-1.1-0.6-1.9-0.6c-0.8,0-1.4,0.1-1.7,0.4
				c-0.4,0.3-0.7,0.8-0.8,1.5l-1.6-0.2c0.1-0.7,0.4-1.3,0.7-1.7c0.3-0.4,0.8-0.8,1.5-1c0.6-0.2,1.4-0.3,2.2-0.3
				c0.8,0,1.5,0.1,2.1,0.3c0.5,0.2,0.9,0.4,1.2,0.7c0.2,0.3,0.4,0.7,0.5,1.1c0.1,0.3,0.1,0.8,0.1,1.5v2.2c0,1.6,0,2.5,0.1,2.9
				c0.1,0.4,0.2,0.8,0.4,1.2h-1.7C115.6,252.7,115.5,252.3,115.5,251.8z M115.3,248.1c-0.6,0.2-1.5,0.5-2.7,0.6
				c-0.7,0.1-1.2,0.2-1.5,0.3c-0.3,0.1-0.5,0.3-0.7,0.5c-0.2,0.2-0.2,0.5-0.2,0.8c0,0.4,0.2,0.8,0.5,1.1c0.3,0.3,0.8,0.4,1.5,0.4
				c0.6,0,1.2-0.1,1.7-0.4s0.9-0.7,1.1-1.2c0.2-0.4,0.3-0.9,0.3-1.7V248.1z"/>
			<path class="st3" d="M119.6,253v-13.6h1.7V253H119.6z"/>
			<path class="st3" d="M123.8,253v-13.6h1.7V253H123.8z"/>
			<path class="st3" d="M134.8,249.9l1.7,0.2c-0.3,1-0.8,1.8-1.5,2.3c-0.7,0.6-1.7,0.8-2.8,0.8c-1.4,0-2.6-0.4-3.4-1.3
				c-0.8-0.9-1.3-2.1-1.3-3.7c0-1.7,0.4-2.9,1.3-3.9c0.9-0.9,2-1.4,3.3-1.4c1.3,0,2.4,0.4,3.2,1.3s1.3,2.2,1.3,3.8
				c0,0.1,0,0.2,0,0.4h-7.3c0.1,1.1,0.4,1.9,0.9,2.5c0.6,0.6,1.2,0.9,2.1,0.9c0.6,0,1.1-0.2,1.6-0.5
				C134.2,251.1,134.5,250.6,134.8,249.9z M129.3,247.2h5.5c-0.1-0.8-0.3-1.5-0.6-1.9c-0.5-0.6-1.2-1-2.1-1c-0.8,0-1.4,0.3-1.9,0.8
				C129.6,245.6,129.3,246.3,129.3,247.2z"/>
			<path class="st3" d="M138.5,256.8l-0.2-1.6c0.4,0.1,0.7,0.1,1,0.1c0.4,0,0.7-0.1,0.9-0.2c0.2-0.1,0.4-0.3,0.5-0.5
				c0.1-0.2,0.3-0.6,0.5-1.2c0-0.1,0.1-0.2,0.1-0.4l-3.7-9.9h1.8l2.1,5.7c0.3,0.7,0.5,1.5,0.7,2.3c0.2-0.8,0.4-1.5,0.7-2.2l2.1-5.7
				h1.7l-3.7,10c-0.4,1.1-0.7,1.8-0.9,2.2c-0.3,0.6-0.6,1-1,1.2c-0.4,0.3-0.8,0.4-1.4,0.4C139.3,257,138.9,257,138.5,256.8z"/>
		</g>
		<g>
			<path class="st3" d="M62.9,293v-13.6H68c1,0,1.9,0.1,2.5,0.4c0.6,0.3,1.1,0.7,1.5,1.3c0.4,0.6,0.5,1.2,0.5,1.8
				c0,0.6-0.2,1.1-0.5,1.6s-0.8,0.9-1.4,1.2c0.8,0.2,1.5,0.7,1.9,1.2c0.4,0.6,0.7,1.3,0.7,2.1c0,0.6-0.1,1.2-0.4,1.8
				c-0.3,0.5-0.6,1-1,1.3c-0.4,0.3-0.9,0.5-1.5,0.7c-0.6,0.2-1.3,0.2-2.2,0.2H62.9z M64.7,285.2h2.9c0.8,0,1.4-0.1,1.7-0.2
				c0.5-0.1,0.8-0.4,1-0.7c0.2-0.3,0.3-0.7,0.3-1.2c0-0.5-0.1-0.8-0.3-1.2c-0.2-0.3-0.5-0.6-0.9-0.7c-0.4-0.1-1.1-0.2-2.1-0.2h-2.7
				V285.2z M64.7,291.4H68c0.6,0,1,0,1.2-0.1c0.4-0.1,0.8-0.2,1-0.4c0.3-0.2,0.5-0.4,0.7-0.8c0.2-0.3,0.3-0.7,0.3-1.1
				c0-0.5-0.1-0.9-0.4-1.3c-0.3-0.4-0.6-0.6-1.1-0.8c-0.5-0.2-1.1-0.2-2-0.2h-3.1V291.4z"/>
			<path class="st3" d="M74.8,288.1c0-1.8,0.5-3.2,1.5-4.1c0.8-0.7,1.9-1.1,3.1-1.1c1.4,0,2.5,0.4,3.3,1.3c0.9,0.9,1.3,2.1,1.3,3.7
				c0,1.3-0.2,2.3-0.6,3c-0.4,0.7-0.9,1.3-1.7,1.7c-0.7,0.4-1.5,0.6-2.4,0.6c-1.4,0-2.5-0.4-3.3-1.3
				C75.2,291.1,74.8,289.8,74.8,288.1z M76.5,288.1c0,1.3,0.3,2.2,0.8,2.8c0.6,0.6,1.2,0.9,2.1,0.9c0.8,0,1.5-0.3,2.1-0.9
				c0.6-0.6,0.8-1.6,0.8-2.9c0-1.2-0.3-2.1-0.8-2.8c-0.6-0.6-1.2-0.9-2.1-0.9c-0.8,0-1.5,0.3-2.1,0.9
				C76.8,285.9,76.5,286.9,76.5,288.1z"/>
			<path class="st3" d="M85.7,293.9l1.6,0.2c0.1,0.5,0.3,0.9,0.6,1.1c0.4,0.3,1,0.5,1.7,0.5c0.8,0,1.4-0.2,1.8-0.5
				c0.4-0.3,0.7-0.7,0.9-1.3c0.1-0.3,0.1-1.1,0.1-2.1c-0.7,0.9-1.6,1.3-2.7,1.3c-1.4,0-2.4-0.5-3.1-1.5c-0.7-1-1.1-2.1-1.1-3.5
				c0-0.9,0.2-1.8,0.5-2.6c0.3-0.8,0.8-1.4,1.5-1.8c0.6-0.4,1.4-0.7,2.3-0.7c1.2,0,2.1,0.5,2.9,1.4v-1.2H94v8.5
				c0,1.5-0.2,2.6-0.5,3.3c-0.3,0.6-0.8,1.1-1.5,1.5c-0.7,0.4-1.5,0.6-2.5,0.6c-1.2,0-2.1-0.3-2.8-0.8S85.6,294.9,85.7,293.9z
				 M87,287.9c0,1.3,0.3,2.2,0.8,2.8c0.5,0.6,1.2,0.9,1.9,0.9c0.8,0,1.4-0.3,1.9-0.9c0.5-0.6,0.8-1.5,0.8-2.8c0-1.2-0.3-2.1-0.8-2.7
				c-0.5-0.6-1.2-0.9-1.9-0.9c-0.7,0-1.4,0.3-1.9,0.9S87,286.8,87,287.9z"/>
			<path class="st3" d="M95.9,288.1c0-1.8,0.5-3.2,1.5-4.1c0.8-0.7,1.9-1.1,3.1-1.1c1.4,0,2.5,0.4,3.3,1.3c0.9,0.9,1.3,2.1,1.3,3.7
				c0,1.3-0.2,2.3-0.6,3c-0.4,0.7-0.9,1.3-1.7,1.7c-0.7,0.4-1.5,0.6-2.4,0.6c-1.4,0-2.5-0.4-3.3-1.3
				C96.3,291.1,95.9,289.8,95.9,288.1z M97.6,288.1c0,1.3,0.3,2.2,0.8,2.8c0.6,0.6,1.2,0.9,2.1,0.9c0.8,0,1.5-0.3,2.1-0.9
				c0.6-0.6,0.8-1.6,0.8-2.9c0-1.2-0.3-2.1-0.8-2.8c-0.6-0.6-1.2-0.9-2.1-0.9c-0.8,0-1.5,0.3-2.1,0.9
				C97.9,285.9,97.6,286.9,97.6,288.1z"/>
			<path class="st3" d="M110.7,291.6l0.2,1.5c-0.5,0.1-0.9,0.1-1.3,0.1c-0.6,0-1.1-0.1-1.4-0.3s-0.6-0.4-0.7-0.8
				c-0.1-0.3-0.2-1-0.2-2v-5.7h-1.2v-1.3h1.2v-2.4l1.7-1v3.4h1.7v1.3h-1.7v5.8c0,0.5,0,0.8,0.1,0.9c0.1,0.1,0.2,0.2,0.3,0.3
				c0.1,0.1,0.3,0.1,0.6,0.1C110.2,291.6,110.4,291.6,110.7,291.6z"/>
			<path class="st3" d="M118.8,291.8c-0.6,0.5-1.2,0.9-1.8,1.1c-0.6,0.2-1.2,0.3-1.8,0.3c-1.1,0-1.9-0.3-2.5-0.8
				c-0.6-0.5-0.9-1.2-0.9-2c0-0.5,0.1-0.9,0.3-1.3c0.2-0.4,0.5-0.7,0.9-1c0.4-0.2,0.8-0.4,1.2-0.5c0.3-0.1,0.8-0.2,1.5-0.2
				c1.3-0.2,2.3-0.4,3-0.6c0-0.2,0-0.4,0-0.4c0-0.7-0.2-1.2-0.5-1.4c-0.4-0.4-1.1-0.6-1.9-0.6c-0.8,0-1.4,0.1-1.7,0.4
				c-0.4,0.3-0.7,0.8-0.8,1.5l-1.6-0.2c0.1-0.7,0.4-1.3,0.7-1.7c0.3-0.4,0.8-0.8,1.5-1c0.6-0.2,1.4-0.3,2.2-0.3
				c0.8,0,1.5,0.1,2.1,0.3c0.5,0.2,0.9,0.4,1.2,0.7c0.2,0.3,0.4,0.7,0.5,1.1c0.1,0.3,0.1,0.8,0.1,1.5v2.2c0,1.6,0,2.5,0.1,2.9
				c0.1,0.4,0.2,0.8,0.4,1.2h-1.7C119,292.7,118.8,292.3,118.8,291.8z M118.7,288.1c-0.6,0.2-1.5,0.5-2.7,0.6
				c-0.7,0.1-1.2,0.2-1.5,0.3c-0.3,0.1-0.5,0.3-0.7,0.5c-0.2,0.2-0.2,0.5-0.2,0.8c0,0.4,0.2,0.8,0.5,1.1c0.3,0.3,0.8,0.4,1.5,0.4
				c0.6,0,1.2-0.1,1.7-0.4s0.9-0.7,1.1-1.2c0.2-0.4,0.3-0.9,0.3-1.7V288.1z"/>
		</g>
		<g>
			<path class="st3" d="M58.4,328.3l1.8,0.5c-0.4,1.5-1.1,2.6-2,3.4c-1,0.8-2.2,1.2-3.6,1.2c-1.5,0-2.7-0.3-3.6-0.9
				c-0.9-0.6-1.6-1.5-2.1-2.6c-0.5-1.1-0.7-2.3-0.7-3.6c0-1.4,0.3-2.7,0.8-3.7c0.5-1.1,1.3-1.9,2.3-2.4c1-0.5,2.1-0.8,3.3-0.8
				c1.4,0,2.5,0.3,3.4,1c0.9,0.7,1.6,1.7,1.9,2.9l-1.8,0.4c-0.3-1-0.8-1.7-1.4-2.2c-0.6-0.5-1.4-0.7-2.3-0.7c-1,0-1.9,0.3-2.6,0.8
				c-0.7,0.5-1.2,1.2-1.5,2c-0.3,0.8-0.4,1.7-0.4,2.6c0,1.2,0.2,2.2,0.5,3c0.3,0.9,0.9,1.5,1.6,1.9c0.7,0.4,1.5,0.6,2.3,0.6
				c1,0,1.9-0.3,2.6-0.9C57.7,330.3,58.1,329.4,58.4,328.3z"/>
			<path class="st3" d="M68.6,331.8c-0.6,0.5-1.2,0.9-1.8,1.1c-0.6,0.2-1.2,0.3-1.8,0.3c-1.1,0-1.9-0.3-2.5-0.8
				c-0.6-0.5-0.9-1.2-0.9-2c0-0.5,0.1-0.9,0.3-1.3c0.2-0.4,0.5-0.7,0.9-1c0.4-0.2,0.8-0.4,1.2-0.5c0.3-0.1,0.8-0.2,1.5-0.2
				c1.3-0.2,2.3-0.4,3-0.6c0-0.2,0-0.4,0-0.4c0-0.7-0.2-1.2-0.5-1.4c-0.4-0.4-1.1-0.6-1.9-0.6c-0.8,0-1.4,0.1-1.7,0.4
				c-0.4,0.3-0.7,0.8-0.8,1.5l-1.6-0.2c0.1-0.7,0.4-1.3,0.7-1.7c0.3-0.4,0.8-0.8,1.5-1c0.6-0.2,1.4-0.3,2.2-0.3
				c0.8,0,1.5,0.1,2.1,0.3c0.5,0.2,0.9,0.4,1.2,0.7c0.2,0.3,0.4,0.7,0.5,1.1c0.1,0.3,0.1,0.8,0.1,1.5v2.2c0,1.6,0,2.5,0.1,2.9
				c0.1,0.4,0.2,0.8,0.4,1.2h-1.7C68.8,332.7,68.7,332.3,68.6,331.8z M68.5,328.1c-0.6,0.2-1.5,0.5-2.7,0.6
				c-0.7,0.1-1.2,0.2-1.5,0.3c-0.3,0.1-0.5,0.3-0.7,0.5c-0.2,0.2-0.2,0.5-0.2,0.8c0,0.4,0.2,0.8,0.5,1.1c0.3,0.3,0.8,0.4,1.5,0.4
				c0.6,0,1.2-0.1,1.7-0.4c0.5-0.3,0.9-0.7,1.1-1.2c0.2-0.4,0.3-0.9,0.3-1.7V328.1z"/>
			<path class="st3" d="M72.7,333v-9.9h1.5v1.5c0.4-0.7,0.7-1.2,1.1-1.4c0.3-0.2,0.7-0.3,1.1-0.3c0.6,0,1.1,0.2,1.7,0.5l-0.6,1.5
				c-0.4-0.2-0.8-0.4-1.2-0.4c-0.4,0-0.7,0.1-1,0.3c-0.3,0.2-0.5,0.5-0.6,0.9c-0.2,0.6-0.3,1.2-0.3,1.9v5.2H72.7z"/>
			<path class="st3" d="M82.7,331.6L83,333c-0.5,0.1-0.9,0.1-1.3,0.1c-0.6,0-1.1-0.1-1.4-0.3c-0.3-0.2-0.6-0.4-0.7-0.8
				c-0.1-0.3-0.2-1-0.2-2v-5.7h-1.2v-1.3h1.2v-2.4l1.7-1v3.4h1.7v1.3H81v5.8c0,0.5,0,0.8,0.1,0.9c0.1,0.1,0.2,0.2,0.3,0.3
				c0.1,0.1,0.3,0.1,0.6,0.1C82.2,331.6,82.4,331.6,82.7,331.6z"/>
			<path class="st3" d="M90.8,331.8c-0.6,0.5-1.2,0.9-1.8,1.1c-0.6,0.2-1.2,0.3-1.8,0.3c-1.1,0-1.9-0.3-2.5-0.8
				c-0.6-0.5-0.9-1.2-0.9-2c0-0.5,0.1-0.9,0.3-1.3c0.2-0.4,0.5-0.7,0.9-1c0.4-0.2,0.8-0.4,1.2-0.5c0.3-0.1,0.8-0.2,1.5-0.2
				c1.3-0.2,2.3-0.4,3-0.6c0-0.2,0-0.4,0-0.4c0-0.7-0.2-1.2-0.5-1.4c-0.4-0.4-1.1-0.6-1.9-0.6c-0.8,0-1.4,0.1-1.7,0.4
				c-0.4,0.3-0.7,0.8-0.8,1.5l-1.6-0.2c0.1-0.7,0.4-1.3,0.7-1.7c0.3-0.4,0.8-0.8,1.5-1c0.6-0.2,1.4-0.3,2.2-0.3
				c0.8,0,1.5,0.1,2.1,0.3c0.5,0.2,0.9,0.4,1.2,0.7c0.2,0.3,0.4,0.7,0.5,1.1c0.1,0.3,0.1,0.8,0.1,1.5v2.2c0,1.6,0,2.5,0.1,2.9
				c0.1,0.4,0.2,0.8,0.4,1.2h-1.7C90.9,332.7,90.8,332.3,90.8,331.8z M90.6,328.1c-0.6,0.2-1.5,0.5-2.7,0.6
				c-0.7,0.1-1.2,0.2-1.5,0.3c-0.3,0.1-0.5,0.3-0.7,0.5c-0.2,0.2-0.2,0.5-0.2,0.8c0,0.4,0.2,0.8,0.5,1.1c0.3,0.3,0.8,0.4,1.5,0.4
				c0.6,0,1.2-0.1,1.7-0.4c0.5-0.3,0.9-0.7,1.1-1.2c0.2-0.4,0.3-0.9,0.3-1.7V328.1z"/>
			<path class="st3" d="M94.6,333.9l1.6,0.2c0.1,0.5,0.3,0.9,0.6,1.1c0.4,0.3,1,0.5,1.7,0.5c0.8,0,1.4-0.2,1.8-0.5
				c0.4-0.3,0.7-0.7,0.9-1.3c0.1-0.3,0.1-1.1,0.1-2.1c-0.7,0.9-1.6,1.3-2.7,1.3c-1.4,0-2.4-0.5-3.1-1.5s-1.1-2.1-1.1-3.5
				c0-0.9,0.2-1.8,0.5-2.6c0.3-0.8,0.8-1.4,1.5-1.8c0.6-0.4,1.4-0.6,2.3-0.6c1.2,0,2.1,0.5,2.9,1.4v-1.2h1.5v8.5
				c0,1.5-0.2,2.6-0.5,3.3c-0.3,0.6-0.8,1.1-1.5,1.5c-0.7,0.4-1.5,0.6-2.5,0.6c-1.2,0-2.1-0.3-2.8-0.8
				C94.9,335.7,94.6,334.9,94.6,333.9z M96,327.9c0,1.3,0.3,2.2,0.8,2.8c0.5,0.6,1.2,0.9,1.9,0.9c0.8,0,1.4-0.3,1.9-0.9
				c0.5-0.6,0.8-1.5,0.8-2.8c0-1.2-0.3-2.1-0.8-2.7c-0.5-0.6-1.2-0.9-1.9-0.9c-0.7,0-1.4,0.3-1.9,0.9C96.3,325.9,96,326.8,96,327.9z
				"/>
			<path class="st3" d="M112.2,329.9l1.7,0.2c-0.3,1-0.8,1.8-1.5,2.3c-0.7,0.6-1.7,0.8-2.8,0.8c-1.4,0-2.6-0.4-3.4-1.3
				c-0.8-0.9-1.3-2.1-1.3-3.7c0-1.7,0.4-2.9,1.3-3.9s2-1.4,3.3-1.4c1.3,0,2.4,0.4,3.2,1.3c0.8,0.9,1.3,2.2,1.3,3.8
				c0,0.1,0,0.2,0,0.4h-7.3c0.1,1.1,0.4,1.9,0.9,2.5c0.6,0.6,1.2,0.9,2.1,0.9c0.6,0,1.1-0.2,1.6-0.5
				C111.6,331.1,112,330.6,112.2,329.9z M106.8,327.2h5.5c-0.1-0.8-0.3-1.5-0.6-1.9c-0.5-0.6-1.2-1-2.1-1c-0.8,0-1.4,0.3-1.9,0.8
				C107.1,325.6,106.8,326.3,106.8,327.2z"/>
			<path class="st3" d="M116.1,333v-9.9h1.5v1.4c0.7-1.1,1.8-1.6,3.1-1.6c0.6,0,1.1,0.1,1.6,0.3c0.5,0.2,0.9,0.5,1.1,0.8
				c0.2,0.3,0.4,0.8,0.5,1.2c0.1,0.3,0.1,0.9,0.1,1.6v6.1h-1.7v-6c0-0.7-0.1-1.2-0.2-1.5c-0.1-0.3-0.4-0.6-0.7-0.8
				c-0.3-0.2-0.7-0.3-1.2-0.3c-0.7,0-1.3,0.2-1.8,0.7c-0.5,0.5-0.8,1.3-0.8,2.6v5.4H116.1z"/>
			<path class="st3" d="M133.1,331.8c-0.6,0.5-1.2,0.9-1.8,1.1c-0.6,0.2-1.2,0.3-1.8,0.3c-1.1,0-1.9-0.3-2.5-0.8
				c-0.6-0.5-0.9-1.2-0.9-2c0-0.5,0.1-0.9,0.3-1.3c0.2-0.4,0.5-0.7,0.9-1c0.4-0.2,0.8-0.4,1.2-0.5c0.3-0.1,0.8-0.2,1.5-0.2
				c1.3-0.2,2.3-0.4,3-0.6c0-0.2,0-0.4,0-0.4c0-0.7-0.2-1.2-0.5-1.4c-0.4-0.4-1.1-0.6-1.9-0.6c-0.8,0-1.4,0.1-1.7,0.4
				c-0.4,0.3-0.7,0.8-0.8,1.5l-1.6-0.2c0.1-0.7,0.4-1.3,0.7-1.7c0.3-0.4,0.8-0.8,1.5-1c0.6-0.2,1.4-0.3,2.2-0.3
				c0.8,0,1.5,0.1,2.1,0.3c0.5,0.2,0.9,0.4,1.2,0.7c0.2,0.3,0.4,0.7,0.5,1.1c0.1,0.3,0.1,0.8,0.1,1.5v2.2c0,1.6,0,2.5,0.1,2.9
				c0.1,0.4,0.2,0.8,0.4,1.2h-1.7C133.2,332.7,133.1,332.3,133.1,331.8z M132.9,328.1c-0.6,0.2-1.5,0.5-2.7,0.6
				c-0.7,0.1-1.2,0.2-1.5,0.3c-0.3,0.1-0.5,0.3-0.7,0.5c-0.2,0.2-0.2,0.5-0.2,0.8c0,0.4,0.2,0.8,0.5,1.1c0.3,0.3,0.8,0.4,1.5,0.4
				c0.6,0,1.2-0.1,1.7-0.4c0.5-0.3,0.9-0.7,1.1-1.2c0.2-0.4,0.3-0.9,0.3-1.7V328.1z"/>
		</g>
		<g>
			<path class="st3" d="M72.4,413v-13.6h1.8v12h6.7v1.6H72.4z"/>
			<path class="st3" d="M82.8,401.4v-1.9h1.7v1.9H82.8z M82.8,413v-9.9h1.7v9.9H82.8z"/>
			<path class="st3" d="M87,413v-9.9h1.5v1.4c0.3-0.5,0.7-0.9,1.2-1.2c0.5-0.3,1.1-0.4,1.8-0.4c0.7,0,1.3,0.2,1.8,0.5
				c0.5,0.3,0.8,0.7,1,1.3c0.8-1.2,1.8-1.7,3-1.7c1,0,1.7,0.3,2.3,0.8c0.5,0.5,0.8,1.4,0.8,2.5v6.8h-1.7v-6.2c0-0.7-0.1-1.1-0.2-1.4
				c-0.1-0.3-0.3-0.5-0.6-0.7c-0.3-0.2-0.6-0.3-1-0.3c-0.7,0-1.3,0.2-1.7,0.7c-0.5,0.5-0.7,1.2-0.7,2.2v5.7h-1.7v-6.4
				c0-0.7-0.1-1.3-0.4-1.7c-0.3-0.4-0.7-0.6-1.3-0.6c-0.5,0-0.9,0.1-1.3,0.4c-0.4,0.2-0.7,0.6-0.9,1.1c-0.2,0.5-0.3,1.2-0.3,2.1v5.1
				H87z"/>
			<path class="st3" d="M109.3,411.8c-0.6,0.5-1.2,0.9-1.8,1.1c-0.6,0.2-1.2,0.3-1.8,0.3c-1.1,0-1.9-0.3-2.5-0.8
				c-0.6-0.5-0.9-1.2-0.9-2c0-0.5,0.1-0.9,0.3-1.3c0.2-0.4,0.5-0.7,0.9-1c0.4-0.2,0.8-0.4,1.2-0.5c0.3-0.1,0.8-0.2,1.5-0.2
				c1.3-0.2,2.3-0.4,3-0.6c0-0.2,0-0.4,0-0.4c0-0.7-0.2-1.2-0.5-1.4c-0.4-0.4-1.1-0.6-1.9-0.6c-0.8,0-1.4,0.1-1.7,0.4
				c-0.4,0.3-0.7,0.8-0.8,1.5l-1.6-0.2c0.1-0.7,0.4-1.3,0.7-1.7c0.3-0.4,0.8-0.8,1.5-1c0.6-0.2,1.4-0.3,2.2-0.3
				c0.8,0,1.5,0.1,2.1,0.3c0.5,0.2,0.9,0.4,1.2,0.7c0.2,0.3,0.4,0.7,0.5,1.1c0.1,0.3,0.1,0.8,0.1,1.5v2.2c0,1.6,0,2.5,0.1,2.9
				c0.1,0.4,0.2,0.8,0.4,1.2h-1.7C109.4,412.7,109.3,412.3,109.3,411.8z M109.1,408.1c-0.6,0.2-1.5,0.5-2.7,0.6
				c-0.7,0.1-1.2,0.2-1.5,0.3c-0.3,0.1-0.5,0.3-0.7,0.5c-0.2,0.2-0.2,0.5-0.2,0.8c0,0.4,0.2,0.8,0.5,1.1c0.3,0.3,0.8,0.4,1.5,0.4
				c0.6,0,1.2-0.1,1.7-0.4c0.5-0.3,0.9-0.7,1.1-1.2c0.2-0.4,0.3-0.9,0.3-1.7V408.1z"/>
		</g>
		<line class="st4" x1="13.3" y1="226" x2="738.6" y2="226"/>
		<line class="st4" x1="13.3" y1="266" x2="738.6" y2="266"/>
		<line class="st4" x1="13.3" y1="306" x2="738.6" y2="306"/>
		<line class="st4" x1="13.3" y1="346" x2="738.6" y2="346"/>
		<line class="st4" x1="13.3" y1="386" x2="738.6" y2="386"/>
		<g>
			<path class="st3" d="M56.6,367.7v-1.6l5.8,0v5c-0.9,0.7-1.8,1.2-2.7,1.6c-0.9,0.4-1.9,0.5-2.9,0.5c-1.3,0-2.5-0.3-3.6-0.9
				c-1.1-0.6-1.9-1.4-2.5-2.5c-0.6-1.1-0.8-2.3-0.8-3.6c0-1.3,0.3-2.6,0.8-3.7c0.6-1.1,1.3-2,2.4-2.6s2.2-0.8,3.6-0.8
				c1,0,1.9,0.2,2.7,0.5c0.8,0.3,1.4,0.8,1.9,1.3c0.5,0.6,0.8,1.3,1,2.2l-1.6,0.4c-0.2-0.7-0.5-1.2-0.8-1.6c-0.3-0.4-0.7-0.7-1.3-1
				c-0.6-0.2-1.2-0.4-1.9-0.4c-0.8,0-1.5,0.1-2.1,0.4c-0.6,0.3-1.1,0.6-1.5,1c-0.4,0.4-0.7,0.9-0.9,1.3c-0.3,0.8-0.5,1.8-0.5,2.7
				c0,1.2,0.2,2.2,0.6,3c0.4,0.8,1,1.4,1.8,1.8c0.8,0.4,1.6,0.6,2.5,0.6c0.8,0,1.5-0.1,2.3-0.4s1.3-0.6,1.7-1v-2.5H56.6z"/>
			<path class="st3" d="M71.3,373v-1.4c-0.8,1.1-1.8,1.7-3.1,1.7c-0.6,0-1.1-0.1-1.6-0.3c-0.5-0.2-0.9-0.5-1.1-0.8
				c-0.2-0.3-0.4-0.8-0.5-1.2c-0.1-0.3-0.1-0.8-0.1-1.6v-6.1h1.7v5.5c0,0.9,0,1.5,0.1,1.8c0.1,0.4,0.3,0.8,0.7,1
				c0.3,0.2,0.8,0.4,1.3,0.4s1-0.1,1.4-0.4c0.4-0.3,0.8-0.6,0.9-1c0.2-0.4,0.3-1.1,0.3-1.9v-5.3h1.7v9.9H71.3z"/>
			<path class="st3" d="M81.8,371.8c-0.6,0.5-1.2,0.9-1.8,1.1c-0.6,0.2-1.2,0.3-1.8,0.3c-1.1,0-1.9-0.3-2.5-0.8
				c-0.6-0.5-0.9-1.2-0.9-2c0-0.5,0.1-0.9,0.3-1.3c0.2-0.4,0.5-0.7,0.9-1c0.4-0.2,0.8-0.4,1.2-0.5c0.3-0.1,0.8-0.2,1.5-0.2
				c1.3-0.2,2.3-0.4,3-0.6c0-0.2,0-0.4,0-0.4c0-0.7-0.2-1.2-0.5-1.4c-0.4-0.4-1.1-0.6-1.9-0.6c-0.8,0-1.4,0.1-1.7,0.4
				c-0.4,0.3-0.7,0.8-0.8,1.5l-1.6-0.2c0.1-0.7,0.4-1.3,0.7-1.7c0.3-0.4,0.8-0.8,1.5-1c0.6-0.2,1.4-0.3,2.2-0.3
				c0.8,0,1.5,0.1,2.1,0.3c0.5,0.2,0.9,0.4,1.2,0.7c0.2,0.3,0.4,0.7,0.5,1.1c0.1,0.3,0.1,0.8,0.1,1.5v2.2c0,1.6,0,2.5,0.1,2.9
				c0.1,0.4,0.2,0.8,0.4,1.2h-1.7C82,372.7,81.9,372.3,81.8,371.8z M81.7,368.1c-0.6,0.2-1.5,0.5-2.7,0.6c-0.7,0.1-1.2,0.2-1.5,0.3
				c-0.3,0.1-0.5,0.3-0.7,0.5c-0.2,0.2-0.2,0.5-0.2,0.8c0,0.4,0.2,0.8,0.5,1.1c0.3,0.3,0.8,0.4,1.5,0.4c0.6,0,1.2-0.1,1.7-0.4
				s0.9-0.7,1.1-1.2c0.2-0.4,0.3-0.9,0.3-1.7V368.1z"/>
			<path class="st3" d="M85.9,376.8l-0.2-1.6c0.4,0.1,0.7,0.1,1,0.1c0.4,0,0.7-0.1,0.9-0.2c0.2-0.1,0.4-0.3,0.5-0.5
				c0.1-0.2,0.3-0.6,0.5-1.2c0-0.1,0.1-0.2,0.1-0.4l-3.7-9.9h1.8l2.1,5.7c0.3,0.7,0.5,1.5,0.7,2.3c0.2-0.8,0.4-1.5,0.7-2.2l2.1-5.7
				H94l-3.7,10c-0.4,1.1-0.7,1.8-0.9,2.2c-0.3,0.6-0.6,1-1,1.2c-0.4,0.3-0.8,0.4-1.4,0.4C86.6,377,86.3,377,85.9,376.8z"/>
			<path class="st3" d="M101.9,371.8c-0.6,0.5-1.2,0.9-1.8,1.1c-0.6,0.2-1.2,0.3-1.8,0.3c-1.1,0-1.9-0.3-2.5-0.8
				c-0.6-0.5-0.9-1.2-0.9-2c0-0.5,0.1-0.9,0.3-1.3c0.2-0.4,0.5-0.7,0.9-1c0.4-0.2,0.8-0.4,1.2-0.5c0.3-0.1,0.8-0.2,1.5-0.2
				c1.3-0.2,2.3-0.4,3-0.6c0-0.2,0-0.4,0-0.4c0-0.7-0.2-1.2-0.5-1.4c-0.4-0.4-1.1-0.6-1.9-0.6c-0.8,0-1.4,0.1-1.7,0.4
				c-0.4,0.3-0.7,0.8-0.8,1.5l-1.6-0.2c0.1-0.7,0.4-1.3,0.7-1.7c0.3-0.4,0.8-0.8,1.5-1c0.6-0.2,1.4-0.3,2.2-0.3
				c0.8,0,1.5,0.1,2.1,0.3c0.5,0.2,0.9,0.4,1.2,0.7c0.2,0.3,0.4,0.7,0.5,1.1c0.1,0.3,0.1,0.8,0.1,1.5v2.2c0,1.6,0,2.5,0.1,2.9
				c0.1,0.4,0.2,0.8,0.4,1.2h-1.7C102.1,372.7,101.9,372.3,101.9,371.8z M101.8,368.1c-0.6,0.2-1.5,0.5-2.7,0.6
				c-0.7,0.1-1.2,0.2-1.5,0.3c-0.3,0.1-0.5,0.3-0.7,0.5c-0.2,0.2-0.2,0.5-0.2,0.8c0,0.4,0.2,0.8,0.5,1.1c0.3,0.3,0.8,0.4,1.5,0.4
				c0.6,0,1.2-0.1,1.7-0.4s0.9-0.7,1.1-1.2c0.2-0.4,0.3-0.9,0.3-1.7V368.1z"/>
			<path class="st3" d="M112.3,376.8V372c-0.3,0.4-0.6,0.7-1.1,0.9c-0.5,0.2-1,0.4-1.5,0.4c-1.2,0-2.2-0.5-3-1.4
				c-0.8-0.9-1.3-2.2-1.3-3.8c0-1,0.2-1.9,0.5-2.7c0.3-0.8,0.8-1.4,1.5-1.8c0.7-0.4,1.4-0.6,2.1-0.6c1.2,0,2.2,0.5,2.9,1.5v-1.3h1.5
				v13.6H112.3z M107.2,368.1c0,1.3,0.3,2.2,0.8,2.9c0.5,0.6,1.2,1,1.9,1c0.7,0,1.3-0.3,1.8-0.9c0.5-0.6,0.8-1.5,0.8-2.8
				c0-1.3-0.3-2.3-0.8-3c-0.5-0.7-1.2-1-1.9-1c-0.7,0-1.3,0.3-1.8,0.9C107.4,365.8,107.2,366.8,107.2,368.1z"/>
			<path class="st3" d="M123.1,373v-1.4c-0.8,1.1-1.8,1.7-3.1,1.7c-0.6,0-1.1-0.1-1.6-0.3c-0.5-0.2-0.9-0.5-1.1-0.8
				c-0.2-0.3-0.4-0.8-0.5-1.2c-0.1-0.3-0.1-0.8-0.1-1.6v-6.1h1.7v5.5c0,0.9,0,1.5,0.1,1.8c0.1,0.4,0.3,0.8,0.7,1
				c0.3,0.2,0.8,0.4,1.3,0.4s1-0.1,1.4-0.4c0.4-0.3,0.8-0.6,0.9-1c0.2-0.4,0.3-1.1,0.3-1.9v-5.3h1.7v9.9H123.1z"/>
			<path class="st3" d="M127.2,361.4v-1.9h1.7v1.9H127.2z M127.2,373v-9.9h1.7v9.9H127.2z"/>
			<path class="st3" d="M131.3,373v-13.6h1.7V373H131.3z"/>
		</g>
		<g>
			<path class="st3" d="M251.8,211v-13.6h2.7l3.2,9.6c0.3,0.9,0.5,1.6,0.6,2c0.2-0.5,0.4-1.2,0.7-2.2l3.3-9.5h2.4V211H263v-11.4
				l-4,11.4h-1.6l-3.9-11.6V211H251.8z"/>
			<path class="st3" d="M274.2,207.9l1.7,0.2c-0.3,1-0.8,1.8-1.5,2.3c-0.7,0.6-1.7,0.8-2.8,0.8c-1.4,0-2.6-0.4-3.4-1.3
				c-0.8-0.9-1.3-2.1-1.3-3.7c0-1.7,0.4-2.9,1.3-3.9s2-1.4,3.3-1.4c1.3,0,2.4,0.4,3.2,1.3c0.8,0.9,1.3,2.2,1.3,3.8
				c0,0.1,0,0.2,0,0.4h-7.3c0.1,1.1,0.4,1.9,0.9,2.5c0.6,0.6,1.2,0.9,2.1,0.9c0.6,0,1.1-0.2,1.6-0.5
				C273.6,209.1,274,208.6,274.2,207.9z M268.7,205.2h5.5c-0.1-0.8-0.3-1.5-0.6-1.9c-0.5-0.6-1.2-1-2.1-1c-0.8,0-1.4,0.3-1.9,0.8
				C269.1,203.6,268.8,204.3,268.7,205.2z"/>
			<path class="st3" d="M276.9,211l3.6-5.1l-3.3-4.7h2.1l1.5,2.3c0.3,0.4,0.5,0.8,0.7,1.1c0.3-0.4,0.5-0.8,0.8-1.1l1.7-2.3h2
				l-3.4,4.6l3.7,5.2h-2.1l-2-3.1l-0.5-0.8l-2.6,3.9H276.9z"/>
			<path class="st3" d="M287.5,199.4v-1.9h1.7v1.9H287.5z M287.5,211v-9.9h1.7v9.9H287.5z"/>
			<path class="st3" d="M298.2,207.4l1.6,0.2c-0.2,1.1-0.6,2-1.4,2.7c-0.7,0.6-1.6,1-2.7,1c-1.3,0-2.4-0.4-3.3-1.3
				c-0.8-0.9-1.2-2.1-1.2-3.8c0-1.1,0.2-2,0.5-2.8s0.9-1.4,1.6-1.8c0.7-0.4,1.5-0.6,2.4-0.6c1.1,0,1.9,0.3,2.6,0.8
				c0.7,0.5,1.1,1.3,1.3,2.3l-1.6,0.3c-0.2-0.7-0.4-1.2-0.8-1.5c-0.4-0.3-0.9-0.5-1.4-0.5c-0.8,0-1.5,0.3-2.1,0.9
				c-0.5,0.6-0.8,1.6-0.8,2.9c0,1.3,0.3,2.3,0.8,2.9c0.5,0.6,1.2,0.9,2,0.9c0.7,0,1.2-0.2,1.6-0.6
				C297.8,208.9,298.1,208.3,298.2,207.4z"/>
			<path class="st3" d="M300.6,206.1c0-1.8,0.5-3.2,1.5-4.1c0.8-0.7,1.9-1.1,3.1-1.1c1.4,0,2.5,0.4,3.3,1.3c0.9,0.9,1.3,2.1,1.3,3.7
				c0,1.3-0.2,2.3-0.6,3c-0.4,0.7-0.9,1.3-1.7,1.7c-0.7,0.4-1.5,0.6-2.4,0.6c-1.4,0-2.5-0.4-3.3-1.3
				C301.1,209.1,300.6,207.8,300.6,206.1z M302.4,206.1c0,1.3,0.3,2.2,0.8,2.8c0.6,0.6,1.2,0.9,2.1,0.9c0.8,0,1.5-0.3,2.1-0.9
				c0.6-0.6,0.8-1.6,0.8-2.9c0-1.2-0.3-2.1-0.8-2.8c-0.6-0.6-1.2-0.9-2.1-0.9c-0.8,0-1.5,0.3-2.1,0.9
				C302.6,203.9,302.4,204.9,302.4,206.1z"/>
		</g>
		<g>
			<path class="st3" d="M251.5,248.3l1.8,0.5c-0.4,1.5-1.1,2.6-2,3.4c-1,0.8-2.2,1.2-3.6,1.2c-1.5,0-2.7-0.3-3.6-0.9
				c-0.9-0.6-1.6-1.5-2.1-2.6c-0.5-1.1-0.7-2.3-0.7-3.6c0-1.4,0.3-2.7,0.8-3.7c0.5-1.1,1.3-1.9,2.3-2.4c1-0.5,2.1-0.8,3.3-0.8
				c1.4,0,2.5,0.3,3.4,1c0.9,0.7,1.6,1.7,1.9,2.9l-1.8,0.4c-0.3-1-0.8-1.7-1.4-2.2c-0.6-0.5-1.4-0.7-2.3-0.7c-1,0-1.9,0.2-2.6,0.8
				c-0.7,0.5-1.2,1.2-1.5,2c-0.3,0.8-0.4,1.7-0.4,2.6c0,1.2,0.2,2.2,0.5,3c0.3,0.9,0.9,1.5,1.6,1.9c0.7,0.4,1.5,0.6,2.3,0.6
				c1,0,1.9-0.3,2.6-0.9C250.8,250.3,251.3,249.4,251.5,248.3z"/>
			<path class="st3" d="M254.7,248.1c0-1.8,0.5-3.2,1.5-4.1c0.8-0.7,1.9-1.1,3.1-1.1c1.4,0,2.5,0.4,3.3,1.3c0.9,0.9,1.3,2.1,1.3,3.7
				c0,1.3-0.2,2.3-0.6,3c-0.4,0.7-0.9,1.3-1.7,1.7c-0.7,0.4-1.5,0.6-2.4,0.6c-1.4,0-2.5-0.4-3.3-1.3
				C255.1,251.1,254.7,249.8,254.7,248.1z M256.4,248.1c0,1.3,0.3,2.2,0.8,2.8c0.6,0.6,1.2,0.9,2.1,0.9c0.8,0,1.5-0.3,2.1-0.9
				c0.6-0.6,0.8-1.6,0.8-2.9c0-1.2-0.3-2.1-0.8-2.8c-0.6-0.6-1.2-0.9-2.1-0.9c-0.8,0-1.5,0.3-2.1,0.9
				C256.7,245.9,256.4,246.9,256.4,248.1z"/>
			<path class="st3" d="M265.9,253v-13.6h1.7V253H265.9z"/>
			<path class="st3" d="M269.5,248.1c0-1.8,0.5-3.2,1.5-4.1c0.8-0.7,1.9-1.1,3.1-1.1c1.4,0,2.5,0.4,3.3,1.3c0.9,0.9,1.3,2.1,1.3,3.7
				c0,1.3-0.2,2.3-0.6,3c-0.4,0.7-0.9,1.3-1.7,1.7c-0.7,0.4-1.5,0.6-2.4,0.6c-1.4,0-2.5-0.4-3.3-1.3
				C269.9,251.1,269.5,249.8,269.5,248.1z M271.2,248.1c0,1.3,0.3,2.2,0.8,2.8c0.6,0.6,1.2,0.9,2.1,0.9c0.8,0,1.5-0.3,2.1-0.9
				c0.6-0.6,0.8-1.6,0.8-2.9c0-1.2-0.3-2.1-0.8-2.8c-0.6-0.6-1.2-0.9-2.1-0.9c-0.8,0-1.5,0.3-2.1,0.9
				C271.5,245.9,271.2,246.9,271.2,248.1z"/>
			<path class="st3" d="M280.7,253v-9.9h1.5v1.4c0.3-0.5,0.7-0.9,1.2-1.2c0.5-0.3,1.1-0.4,1.8-0.4c0.7,0,1.3,0.2,1.8,0.5
				c0.5,0.3,0.8,0.7,1,1.3c0.8-1.2,1.8-1.7,3-1.7c1,0,1.7,0.3,2.3,0.8c0.5,0.5,0.8,1.4,0.8,2.5v6.8h-1.7v-6.2c0-0.7-0.1-1.1-0.2-1.4
				c-0.1-0.3-0.3-0.5-0.6-0.7c-0.3-0.2-0.6-0.3-1-0.3c-0.7,0-1.3,0.2-1.7,0.7c-0.5,0.5-0.7,1.2-0.7,2.2v5.7h-1.7v-6.4
				c0-0.7-0.1-1.3-0.4-1.7c-0.3-0.4-0.7-0.6-1.3-0.6c-0.5,0-0.9,0.1-1.3,0.4c-0.4,0.2-0.7,0.6-0.9,1.1c-0.2,0.5-0.3,1.2-0.3,2.1v5.1
				H280.7z"/>
			<path class="st3" d="M298,253h-1.5v-13.6h1.7v4.9c0.7-0.9,1.6-1.3,2.7-1.3c0.6,0,1.2,0.1,1.7,0.4c0.5,0.2,1,0.6,1.3,1
				c0.3,0.4,0.6,1,0.8,1.6c0.2,0.6,0.3,1.3,0.3,2c0,1.7-0.4,3-1.3,3.9s-1.8,1.4-3,1.4c-1.2,0-2.1-0.5-2.7-1.5V253z M298,248
				c0,1.2,0.2,2,0.5,2.6c0.5,0.9,1.2,1.3,2.1,1.3c0.7,0,1.4-0.3,1.9-1c0.5-0.6,0.8-1.6,0.8-2.8c0-1.3-0.3-2.2-0.8-2.8
				c-0.5-0.6-1.1-0.9-1.9-0.9c-0.7,0-1.4,0.3-1.9,1C298.3,245.9,298,246.8,298,248z"/>
			<path class="st3" d="M307.1,241.4v-1.9h1.7v1.9H307.1z M307.1,253v-9.9h1.7v9.9H307.1z"/>
			<path class="st3" d="M317.7,251.8c-0.6,0.5-1.2,0.9-1.8,1.1c-0.6,0.2-1.2,0.3-1.8,0.3c-1.1,0-1.9-0.3-2.5-0.8
				c-0.6-0.5-0.9-1.2-0.9-2c0-0.5,0.1-0.9,0.3-1.3c0.2-0.4,0.5-0.7,0.9-1c0.4-0.2,0.8-0.4,1.2-0.5c0.3-0.1,0.8-0.2,1.5-0.2
				c1.3-0.2,2.3-0.4,3-0.6c0-0.2,0-0.4,0-0.4c0-0.7-0.2-1.2-0.5-1.4c-0.4-0.4-1.1-0.6-1.9-0.6c-0.8,0-1.4,0.1-1.7,0.4
				c-0.4,0.3-0.7,0.8-0.8,1.5L311,246c0.1-0.7,0.4-1.3,0.7-1.7c0.3-0.4,0.8-0.8,1.5-1c0.6-0.2,1.4-0.3,2.2-0.3
				c0.8,0,1.5,0.1,2.1,0.3c0.5,0.2,0.9,0.4,1.2,0.7c0.2,0.3,0.4,0.7,0.5,1.1c0.1,0.3,0.1,0.8,0.1,1.5v2.2c0,1.6,0,2.5,0.1,2.9
				c0.1,0.4,0.2,0.8,0.4,1.2h-1.7C317.9,252.7,317.8,252.3,317.7,251.8z M317.6,248.1c-0.6,0.2-1.5,0.5-2.7,0.6
				c-0.7,0.1-1.2,0.2-1.5,0.3c-0.3,0.1-0.5,0.3-0.7,0.5c-0.2,0.2-0.2,0.5-0.2,0.8c0,0.4,0.2,0.8,0.5,1.1c0.3,0.3,0.8,0.4,1.5,0.4
				c0.6,0,1.2-0.1,1.7-0.4s0.9-0.7,1.1-1.2c0.2-0.4,0.3-0.9,0.3-1.7V248.1z"/>
		</g>
		<g>
			<path class="st3" d="M251.5,288.3l1.8,0.5c-0.4,1.5-1.1,2.6-2,3.4c-1,0.8-2.2,1.2-3.6,1.2c-1.5,0-2.7-0.3-3.6-0.9
				c-0.9-0.6-1.6-1.5-2.1-2.6c-0.5-1.1-0.7-2.3-0.7-3.6c0-1.4,0.3-2.7,0.8-3.7c0.5-1.1,1.3-1.9,2.3-2.4c1-0.5,2.1-0.8,3.3-0.8
				c1.4,0,2.5,0.3,3.4,1c0.9,0.7,1.6,1.7,1.9,2.9l-1.8,0.4c-0.3-1-0.8-1.7-1.4-2.2c-0.6-0.5-1.4-0.7-2.3-0.7c-1,0-1.9,0.2-2.6,0.8
				c-0.7,0.5-1.2,1.2-1.5,2c-0.3,0.8-0.4,1.7-0.4,2.6c0,1.2,0.2,2.2,0.5,3c0.3,0.9,0.9,1.5,1.6,1.9c0.7,0.4,1.5,0.6,2.3,0.6
				c1,0,1.9-0.3,2.6-0.9C250.8,290.3,251.3,289.4,251.5,288.3z"/>
			<path class="st3" d="M254.7,288.1c0-1.8,0.5-3.2,1.5-4.1c0.8-0.7,1.9-1.1,3.1-1.1c1.4,0,2.5,0.4,3.3,1.3c0.9,0.9,1.3,2.1,1.3,3.7
				c0,1.3-0.2,2.3-0.6,3c-0.4,0.7-0.9,1.3-1.7,1.7c-0.7,0.4-1.5,0.6-2.4,0.6c-1.4,0-2.5-0.4-3.3-1.3
				C255.1,291.1,254.7,289.8,254.7,288.1z M256.4,288.1c0,1.3,0.3,2.2,0.8,2.8c0.6,0.6,1.2,0.9,2.1,0.9c0.8,0,1.5-0.3,2.1-0.9
				c0.6-0.6,0.8-1.6,0.8-2.9c0-1.2-0.3-2.1-0.8-2.8c-0.6-0.6-1.2-0.9-2.1-0.9c-0.8,0-1.5,0.3-2.1,0.9
				C256.7,285.9,256.4,286.9,256.4,288.1z"/>
			<path class="st3" d="M265.9,293v-13.6h1.7V293H265.9z"/>
			<path class="st3" d="M269.5,288.1c0-1.8,0.5-3.2,1.5-4.1c0.8-0.7,1.9-1.1,3.1-1.1c1.4,0,2.5,0.4,3.3,1.3c0.9,0.9,1.3,2.1,1.3,3.7
				c0,1.3-0.2,2.3-0.6,3c-0.4,0.7-0.9,1.3-1.7,1.7c-0.7,0.4-1.5,0.6-2.4,0.6c-1.4,0-2.5-0.4-3.3-1.3
				C269.9,291.1,269.5,289.8,269.5,288.1z M271.2,288.1c0,1.3,0.3,2.2,0.8,2.8c0.6,0.6,1.2,0.9,2.1,0.9c0.8,0,1.5-0.3,2.1-0.9
				c0.6-0.6,0.8-1.6,0.8-2.9c0-1.2-0.3-2.1-0.8-2.8c-0.6-0.6-1.2-0.9-2.1-0.9c-0.8,0-1.5,0.3-2.1,0.9
				C271.5,285.9,271.2,286.9,271.2,288.1z"/>
			<path class="st3" d="M280.7,293v-9.9h1.5v1.4c0.3-0.5,0.7-0.9,1.2-1.2c0.5-0.3,1.1-0.4,1.8-0.4c0.7,0,1.3,0.2,1.8,0.5
				c0.5,0.3,0.8,0.7,1,1.3c0.8-1.2,1.8-1.7,3-1.7c1,0,1.7,0.3,2.3,0.8c0.5,0.5,0.8,1.4,0.8,2.5v6.8h-1.7v-6.2c0-0.7-0.1-1.1-0.2-1.4
				c-0.1-0.3-0.3-0.5-0.6-0.7c-0.3-0.2-0.6-0.3-1-0.3c-0.7,0-1.3,0.2-1.7,0.7c-0.5,0.5-0.7,1.2-0.7,2.2v5.7h-1.7v-6.4
				c0-0.7-0.1-1.3-0.4-1.7c-0.3-0.4-0.7-0.6-1.3-0.6c-0.5,0-0.9,0.1-1.3,0.4c-0.4,0.2-0.7,0.6-0.9,1.1c-0.2,0.5-0.3,1.2-0.3,2.1v5.1
				H280.7z"/>
			<path class="st3" d="M298,293h-1.5v-13.6h1.7v4.9c0.7-0.9,1.6-1.3,2.7-1.3c0.6,0,1.2,0.1,1.7,0.4c0.5,0.2,1,0.6,1.3,1
				c0.3,0.4,0.6,1,0.8,1.6c0.2,0.6,0.3,1.3,0.3,2c0,1.7-0.4,3-1.3,3.9s-1.8,1.4-3,1.4c-1.2,0-2.1-0.5-2.7-1.5V293z M298,288
				c0,1.2,0.2,2,0.5,2.6c0.5,0.9,1.2,1.3,2.1,1.3c0.7,0,1.4-0.3,1.9-1c0.5-0.6,0.8-1.6,0.8-2.8c0-1.3-0.3-2.2-0.8-2.8
				c-0.5-0.6-1.1-0.9-1.9-0.9c-0.7,0-1.4,0.3-1.9,1C298.3,285.9,298,286.8,298,288z"/>
			<path class="st3" d="M307.1,281.4v-1.9h1.7v1.9H307.1z M307.1,293v-9.9h1.7v9.9H307.1z"/>
			<path class="st3" d="M317.7,291.8c-0.6,0.5-1.2,0.9-1.8,1.1c-0.6,0.2-1.2,0.3-1.8,0.3c-1.1,0-1.9-0.3-2.5-0.8
				c-0.6-0.5-0.9-1.2-0.9-2c0-0.5,0.1-0.9,0.3-1.3c0.2-0.4,0.5-0.7,0.9-1c0.4-0.2,0.8-0.4,1.2-0.5c0.3-0.1,0.8-0.2,1.5-0.2
				c1.3-0.2,2.3-0.4,3-0.6c0-0.2,0-0.4,0-0.4c0-0.7-0.2-1.2-0.5-1.4c-0.4-0.4-1.1-0.6-1.9-0.6c-0.8,0-1.4,0.1-1.7,0.4
				c-0.4,0.3-0.7,0.8-0.8,1.5L311,286c0.1-0.7,0.4-1.3,0.7-1.7c0.3-0.4,0.8-0.8,1.5-1c0.6-0.2,1.4-0.3,2.2-0.3
				c0.8,0,1.5,0.1,2.1,0.3c0.5,0.2,0.9,0.4,1.2,0.7c0.2,0.3,0.4,0.7,0.5,1.1c0.1,0.3,0.1,0.8,0.1,1.5v2.2c0,1.6,0,2.5,0.1,2.9
				c0.1,0.4,0.2,0.8,0.4,1.2h-1.7C317.9,292.7,317.8,292.3,317.7,291.8z M317.6,288.1c-0.6,0.2-1.5,0.5-2.7,0.6
				c-0.7,0.1-1.2,0.2-1.5,0.3c-0.3,0.1-0.5,0.3-0.7,0.5c-0.2,0.2-0.2,0.5-0.2,0.8c0,0.4,0.2,0.8,0.5,1.1c0.3,0.3,0.8,0.4,1.5,0.4
				c0.6,0,1.2-0.1,1.7-0.4s0.9-0.7,1.1-1.2c0.2-0.4,0.3-0.9,0.3-1.7V288.1z"/>
		</g>
		<g>
			<path class="st3" d="M251.5,328.3l1.8,0.5c-0.4,1.5-1.1,2.6-2,3.4c-1,0.8-2.2,1.2-3.6,1.2c-1.5,0-2.7-0.3-3.6-0.9
				c-0.9-0.6-1.6-1.5-2.1-2.6c-0.5-1.1-0.7-2.3-0.7-3.6c0-1.4,0.3-2.7,0.8-3.7c0.5-1.1,1.3-1.9,2.3-2.4c1-0.5,2.1-0.8,3.3-0.8
				c1.4,0,2.5,0.3,3.4,1c0.9,0.7,1.6,1.7,1.9,2.9l-1.8,0.4c-0.3-1-0.8-1.7-1.4-2.2c-0.6-0.5-1.4-0.7-2.3-0.7c-1,0-1.9,0.3-2.6,0.8
				c-0.7,0.5-1.2,1.2-1.5,2c-0.3,0.8-0.4,1.7-0.4,2.6c0,1.2,0.2,2.2,0.5,3c0.3,0.9,0.9,1.5,1.6,1.9c0.7,0.4,1.5,0.6,2.3,0.6
				c1,0,1.9-0.3,2.6-0.9C250.8,330.3,251.3,329.4,251.5,328.3z"/>
			<path class="st3" d="M254.7,328.1c0-1.8,0.5-3.2,1.5-4.1c0.8-0.7,1.9-1.1,3.1-1.1c1.4,0,2.5,0.4,3.3,1.3c0.9,0.9,1.3,2.1,1.3,3.7
				c0,1.3-0.2,2.3-0.6,3c-0.4,0.7-0.9,1.3-1.7,1.7c-0.7,0.4-1.5,0.6-2.4,0.6c-1.4,0-2.5-0.4-3.3-1.3
				C255.1,331.1,254.7,329.8,254.7,328.1z M256.4,328.1c0,1.3,0.3,2.2,0.8,2.8c0.6,0.6,1.2,0.9,2.1,0.9c0.8,0,1.5-0.3,2.1-0.9
				c0.6-0.6,0.8-1.6,0.8-2.9c0-1.2-0.3-2.1-0.8-2.8c-0.6-0.6-1.2-0.9-2.1-0.9c-0.8,0-1.5,0.3-2.1,0.9
				C256.7,325.9,256.4,326.9,256.4,328.1z"/>
			<path class="st3" d="M265.9,333v-13.6h1.7V333H265.9z"/>
			<path class="st3" d="M269.5,328.1c0-1.8,0.5-3.2,1.5-4.1c0.8-0.7,1.9-1.1,3.1-1.1c1.4,0,2.5,0.4,3.3,1.3c0.9,0.9,1.3,2.1,1.3,3.7
				c0,1.3-0.2,2.3-0.6,3c-0.4,0.7-0.9,1.3-1.7,1.7c-0.7,0.4-1.5,0.6-2.4,0.6c-1.4,0-2.5-0.4-3.3-1.3
				C269.9,331.1,269.5,329.8,269.5,328.1z M271.2,328.1c0,1.3,0.3,2.2,0.8,2.8c0.6,0.6,1.2,0.9,2.1,0.9c0.8,0,1.5-0.3,2.1-0.9
				c0.6-0.6,0.8-1.6,0.8-2.9c0-1.2-0.3-2.1-0.8-2.8c-0.6-0.6-1.2-0.9-2.1-0.9c-0.8,0-1.5,0.3-2.1,0.9
				C271.5,325.9,271.2,326.9,271.2,328.1z"/>
			<path class="st3" d="M280.7,333v-9.9h1.5v1.4c0.3-0.5,0.7-0.9,1.2-1.2c0.5-0.3,1.1-0.4,1.8-0.4c0.7,0,1.3,0.2,1.8,0.5
				c0.5,0.3,0.8,0.7,1,1.3c0.8-1.2,1.8-1.7,3-1.7c1,0,1.7,0.3,2.3,0.8c0.5,0.5,0.8,1.4,0.8,2.5v6.8h-1.7v-6.2c0-0.7-0.1-1.1-0.2-1.4
				c-0.1-0.3-0.3-0.5-0.6-0.7c-0.3-0.2-0.6-0.3-1-0.3c-0.7,0-1.3,0.2-1.7,0.7c-0.5,0.5-0.7,1.2-0.7,2.2v5.7h-1.7v-6.4
				c0-0.7-0.1-1.3-0.4-1.7c-0.3-0.4-0.7-0.6-1.3-0.6c-0.5,0-0.9,0.1-1.3,0.4c-0.4,0.2-0.7,0.6-0.9,1.1c-0.2,0.5-0.3,1.2-0.3,2.1v5.1
				H280.7z"/>
			<path class="st3" d="M298,333h-1.5v-13.6h1.7v4.9c0.7-0.9,1.6-1.3,2.7-1.3c0.6,0,1.2,0.1,1.7,0.4c0.5,0.2,1,0.6,1.3,1
				c0.3,0.4,0.6,1,0.8,1.6c0.2,0.6,0.3,1.3,0.3,2c0,1.7-0.4,3-1.3,3.9c-0.8,0.9-1.8,1.4-3,1.4c-1.2,0-2.1-0.5-2.7-1.5V333z M298,328
				c0,1.2,0.2,2,0.5,2.6c0.5,0.9,1.2,1.3,2.1,1.3c0.7,0,1.4-0.3,1.9-1c0.5-0.6,0.8-1.6,0.8-2.8c0-1.3-0.3-2.2-0.8-2.8
				c-0.5-0.6-1.1-0.9-1.9-0.9c-0.7,0-1.4,0.3-1.9,1C298.3,325.9,298,326.8,298,328z"/>
			<path class="st3" d="M307.1,321.4v-1.9h1.7v1.9H307.1z M307.1,333v-9.9h1.7v9.9H307.1z"/>
			<path class="st3" d="M317.7,331.8c-0.6,0.5-1.2,0.9-1.8,1.1c-0.6,0.2-1.2,0.3-1.8,0.3c-1.1,0-1.9-0.3-2.5-0.8
				c-0.6-0.5-0.9-1.2-0.9-2c0-0.5,0.1-0.9,0.3-1.3c0.2-0.4,0.5-0.7,0.9-1c0.4-0.2,0.8-0.4,1.2-0.5c0.3-0.1,0.8-0.2,1.5-0.2
				c1.3-0.2,2.3-0.4,3-0.6c0-0.2,0-0.4,0-0.4c0-0.7-0.2-1.2-0.5-1.4c-0.4-0.4-1.1-0.6-1.9-0.6c-0.8,0-1.4,0.1-1.7,0.4
				c-0.4,0.3-0.7,0.8-0.8,1.5L311,326c0.1-0.7,0.4-1.3,0.7-1.7c0.3-0.4,0.8-0.8,1.5-1c0.6-0.2,1.4-0.3,2.2-0.3
				c0.8,0,1.5,0.1,2.1,0.3c0.5,0.2,0.9,0.4,1.2,0.7c0.2,0.3,0.4,0.7,0.5,1.1c0.1,0.3,0.1,0.8,0.1,1.5v2.2c0,1.6,0,2.5,0.1,2.9
				c0.1,0.4,0.2,0.8,0.4,1.2h-1.7C317.9,332.7,317.8,332.3,317.7,331.8z M317.6,328.1c-0.6,0.2-1.5,0.5-2.7,0.6
				c-0.7,0.1-1.2,0.2-1.5,0.3c-0.3,0.1-0.5,0.3-0.7,0.5c-0.2,0.2-0.2,0.5-0.2,0.8c0,0.4,0.2,0.8,0.5,1.1c0.3,0.3,0.8,0.4,1.5,0.4
				c0.6,0,1.2-0.1,1.7-0.4c0.5-0.3,0.9-0.7,1.1-1.2c0.2-0.4,0.3-0.9,0.3-1.7V328.1z"/>
		</g>
		<g>
			<path class="st3" d="M261.9,413v-13.6h5.1c0.9,0,1.6,0,2.1,0.1c0.7,0.1,1.2,0.3,1.7,0.6c0.5,0.3,0.8,0.8,1.1,1.3
				c0.3,0.6,0.4,1.2,0.4,1.9c0,1.2-0.4,2.1-1.1,2.9c-0.7,0.8-2.1,1.2-4,1.2h-3.5v5.5H261.9z M263.7,405.9h3.5c1.2,0,2-0.2,2.5-0.6
				c0.5-0.4,0.7-1,0.7-1.8c0-0.6-0.1-1.1-0.4-1.5c-0.3-0.4-0.7-0.7-1.1-0.8c-0.3-0.1-0.9-0.1-1.7-0.1h-3.5V405.9z"/>
			<path class="st3" d="M281.1,409.9l1.7,0.2c-0.3,1-0.8,1.8-1.5,2.3c-0.7,0.6-1.7,0.8-2.8,0.8c-1.4,0-2.6-0.4-3.4-1.3
				c-0.8-0.9-1.3-2.1-1.3-3.7c0-1.7,0.4-2.9,1.3-3.9s2-1.4,3.3-1.4c1.3,0,2.4,0.4,3.2,1.3c0.8,0.9,1.3,2.2,1.3,3.8
				c0,0.1,0,0.2,0,0.4h-7.3c0.1,1.1,0.4,1.9,0.9,2.5c0.6,0.6,1.2,0.9,2.1,0.9c0.6,0,1.1-0.2,1.6-0.5
				C280.5,411.1,280.8,410.6,281.1,409.9z M275.6,407.2h5.5c-0.1-0.8-0.3-1.5-0.6-1.9c-0.5-0.6-1.2-1-2.1-1c-0.8,0-1.4,0.3-1.9,0.8
				C275.9,405.6,275.7,406.3,275.6,407.2z"/>
			<path class="st3" d="M284.9,413v-9.9h1.5v1.5c0.4-0.7,0.7-1.2,1.1-1.4c0.3-0.2,0.7-0.3,1.1-0.3c0.6,0,1.1,0.2,1.7,0.5l-0.6,1.5
				c-0.4-0.2-0.8-0.4-1.2-0.4c-0.4,0-0.7,0.1-1,0.3c-0.3,0.2-0.5,0.5-0.6,0.9c-0.2,0.6-0.3,1.2-0.3,1.9v5.2H284.9z"/>
			<path class="st3" d="M297.7,413v-1.4c-0.8,1.1-1.8,1.7-3.1,1.7c-0.6,0-1.1-0.1-1.6-0.3c-0.5-0.2-0.9-0.5-1.1-0.8
				c-0.2-0.3-0.4-0.8-0.5-1.2c-0.1-0.3-0.1-0.8-0.1-1.6v-6.1h1.7v5.5c0,0.9,0,1.5,0.1,1.8c0.1,0.4,0.3,0.8,0.7,1
				c0.3,0.2,0.8,0.4,1.3,0.4s1-0.1,1.4-0.4c0.4-0.3,0.8-0.6,0.9-1c0.2-0.4,0.3-1.1,0.3-1.9v-5.3h1.7v9.9H297.7z"/>
		</g>
		<g>
			<path class="st3" d="M246.5,373v-13.6h9.8v1.6h-8v4.2h7.5v1.6h-7.5v4.6h8.3v1.6H246.5z"/>
			<path class="st3" d="M265.3,369.4l1.6,0.2c-0.2,1.1-0.6,2-1.4,2.7c-0.7,0.6-1.6,1-2.7,1c-1.3,0-2.4-0.4-3.3-1.3
				c-0.8-0.9-1.2-2.1-1.2-3.8c0-1.1,0.2-2,0.5-2.8c0.4-0.8,0.9-1.4,1.6-1.8c0.7-0.4,1.5-0.6,2.4-0.6c1.1,0,1.9,0.3,2.6,0.8
				c0.7,0.5,1.1,1.3,1.3,2.3l-1.6,0.3c-0.2-0.7-0.4-1.2-0.8-1.5c-0.4-0.3-0.9-0.5-1.4-0.5c-0.8,0-1.5,0.3-2.1,0.9
				c-0.5,0.6-0.8,1.6-0.8,2.9c0,1.3,0.3,2.3,0.8,2.9c0.5,0.6,1.2,0.9,2,0.9c0.7,0,1.2-0.2,1.6-0.6
				C264.9,370.9,265.2,370.3,265.3,369.4z"/>
			<path class="st3" d="M274.8,373v-1.4c-0.8,1.1-1.8,1.7-3.1,1.7c-0.6,0-1.1-0.1-1.6-0.3c-0.5-0.2-0.9-0.5-1.1-0.8
				c-0.2-0.3-0.4-0.8-0.5-1.2c-0.1-0.3-0.1-0.8-0.1-1.6v-6.1h1.7v5.5c0,0.9,0,1.5,0.1,1.8c0.1,0.4,0.3,0.8,0.7,1
				c0.3,0.2,0.8,0.4,1.3,0.4s1-0.1,1.4-0.4c0.4-0.3,0.8-0.6,0.9-1c0.2-0.4,0.3-1.1,0.3-1.9v-5.3h1.7v9.9H274.8z"/>
			<path class="st3" d="M285.4,371.8c-0.6,0.5-1.2,0.9-1.8,1.1c-0.6,0.2-1.2,0.3-1.8,0.3c-1.1,0-1.9-0.3-2.5-0.8
				c-0.6-0.5-0.9-1.2-0.9-2c0-0.5,0.1-0.9,0.3-1.3c0.2-0.4,0.5-0.7,0.9-1c0.4-0.2,0.8-0.4,1.2-0.5c0.3-0.1,0.8-0.2,1.5-0.2
				c1.3-0.2,2.3-0.4,3-0.6c0-0.2,0-0.4,0-0.4c0-0.7-0.2-1.2-0.5-1.4c-0.4-0.4-1.1-0.6-1.9-0.6c-0.8,0-1.4,0.1-1.7,0.4
				c-0.4,0.3-0.7,0.8-0.8,1.5l-1.6-0.2c0.1-0.7,0.4-1.3,0.7-1.7c0.3-0.4,0.8-0.8,1.5-1c0.6-0.2,1.4-0.3,2.2-0.3
				c0.8,0,1.5,0.1,2.1,0.3c0.5,0.2,0.9,0.4,1.2,0.7c0.2,0.3,0.4,0.7,0.5,1.1c0.1,0.3,0.1,0.8,0.1,1.5v2.2c0,1.6,0,2.5,0.1,2.9
				c0.1,0.4,0.2,0.8,0.4,1.2h-1.7C285.5,372.7,285.4,372.3,285.4,371.8z M285.2,368.1c-0.6,0.2-1.5,0.5-2.7,0.6
				c-0.7,0.1-1.2,0.2-1.5,0.3c-0.3,0.1-0.5,0.3-0.7,0.5c-0.2,0.2-0.2,0.5-0.2,0.8c0,0.4,0.2,0.8,0.5,1.1c0.3,0.3,0.8,0.4,1.5,0.4
				c0.6,0,1.2-0.1,1.7-0.4s0.9-0.7,1.1-1.2c0.2-0.4,0.3-0.9,0.3-1.7V368.1z"/>
			<path class="st3" d="M295.9,373v-1.2c-0.6,1-1.5,1.5-2.8,1.5c-0.8,0-1.5-0.2-2.2-0.7c-0.7-0.4-1.2-1-1.5-1.8
				c-0.4-0.8-0.5-1.7-0.5-2.7c0-1,0.2-1.9,0.5-2.7c0.3-0.8,0.8-1.4,1.5-1.8c0.7-0.4,1.4-0.6,2.2-0.6c0.6,0,1.1,0.1,1.6,0.4
				c0.5,0.2,0.8,0.6,1.1,1v-4.9h1.7V373H295.9z M290.6,368.1c0,1.3,0.3,2.2,0.8,2.8c0.5,0.6,1.2,0.9,1.9,0.9c0.7,0,1.3-0.3,1.9-0.9
				c0.5-0.6,0.8-1.5,0.8-2.7c0-1.3-0.3-2.3-0.8-3s-1.2-0.9-1.9-0.9c-0.7,0-1.4,0.3-1.9,0.9C290.9,365.9,290.6,366.8,290.6,368.1z"/>
			<path class="st3" d="M299.5,368.1c0-1.8,0.5-3.2,1.5-4.1c0.8-0.7,1.9-1.1,3.1-1.1c1.4,0,2.5,0.4,3.3,1.3c0.9,0.9,1.3,2.1,1.3,3.7
				c0,1.3-0.2,2.3-0.6,3c-0.4,0.7-0.9,1.3-1.7,1.7c-0.7,0.4-1.5,0.6-2.4,0.6c-1.4,0-2.5-0.4-3.3-1.3
				C299.9,371.1,299.5,369.8,299.5,368.1z M301.2,368.1c0,1.3,0.3,2.2,0.8,2.8c0.6,0.6,1.2,0.9,2.1,0.9c0.8,0,1.5-0.3,2.1-0.9
				c0.6-0.6,0.8-1.6,0.8-2.9c0-1.2-0.3-2.1-0.8-2.8c-0.6-0.6-1.2-0.9-2.1-0.9c-0.8,0-1.5,0.3-2.1,0.9
				C301.5,365.9,301.2,366.9,301.2,368.1z"/>
			<path class="st3" d="M310.6,373v-9.9h1.5v1.5c0.4-0.7,0.7-1.2,1.1-1.4c0.3-0.2,0.7-0.3,1.1-0.3c0.6,0,1.1,0.2,1.7,0.5l-0.6,1.5
				c-0.4-0.2-0.8-0.4-1.2-0.4c-0.4,0-0.7,0.1-1,0.3c-0.3,0.2-0.5,0.5-0.6,0.9c-0.2,0.6-0.3,1.2-0.3,1.9v5.2H310.6z"/>
		</g>
		<g>
			<path class="st2" d="M51.7,94V79h6.4c1.6,0,2.8,0.1,3.5,0.4c0.7,0.3,1.3,0.8,1.7,1.4s0.7,1.5,0.7,2.4c0,1.1-0.3,2.1-1,2.8
				c-0.7,0.7-1.7,1.2-3,1.4c0.7,0.4,1.2,0.8,1.6,1.3s1,1.3,1.7,2.4l1.8,2.9h-3.6l-2.2-3.3c-0.8-1.2-1.3-1.9-1.6-2.2
				c-0.3-0.3-0.6-0.5-0.9-0.6c-0.3-0.1-0.8-0.2-1.5-0.2h-0.6V94H51.7z M54.7,85.3H57c1.5,0,2.4-0.1,2.7-0.2s0.6-0.3,0.9-0.6
				s0.3-0.7,0.3-1.1c0-0.5-0.1-0.9-0.4-1.2c-0.3-0.3-0.7-0.5-1.1-0.6c-0.2,0-1-0.1-2.2-0.1h-2.4V85.3z"/>
			<path class="st2" d="M66.8,94V79H78v2.5h-8.1v3.3h7.5v2.5h-7.5v4.1h8.4V94H66.8z"/>
			<path class="st2" d="M87.8,88.5V86h6.5v6c-0.6,0.6-1.6,1.2-2.8,1.6c-1.2,0.5-2.4,0.7-3.7,0.7c-1.6,0-2.9-0.3-4.1-1
				c-1.2-0.7-2-1.6-2.6-2.8c-0.6-1.2-0.9-2.6-0.9-4c0-1.6,0.3-3,1-4.2s1.6-2.2,2.9-2.8c1-0.5,2.2-0.7,3.6-0.7c1.9,0,3.3,0.4,4.4,1.2
				c1,0.8,1.7,1.9,2,3.2l-3,0.6C91,83,90.6,82.4,90,82c-0.6-0.4-1.3-0.6-2.2-0.6c-1.3,0-2.4,0.4-3.2,1.3c-0.8,0.8-1.2,2.1-1.2,3.7
				c0,1.8,0.4,3.1,1.2,4c0.8,0.9,1.8,1.3,3.1,1.3c0.6,0,1.3-0.1,1.9-0.4c0.6-0.2,1.2-0.6,1.6-0.9v-1.9H87.8z"/>
			<path class="st2" d="M97.1,94V79h3v15H97.1z"/>
			<path class="st2" d="M102.4,86.6c0-1.5,0.2-2.8,0.7-3.9c0.3-0.8,0.8-1.5,1.4-2.1s1.2-1.1,1.9-1.4c0.9-0.4,2-0.6,3.2-0.6
				c2.2,0,4,0.7,5.3,2.1s2,3.3,2,5.7c0,2.4-0.7,4.3-2,5.7c-1.3,1.4-3.1,2.1-5.3,2.1c-2.2,0-4-0.7-5.3-2
				C103.1,90.9,102.4,89,102.4,86.6z M105.5,86.5c0,1.7,0.4,3,1.2,3.9c0.8,0.9,1.8,1.3,3,1.3s2.2-0.4,3-1.3c0.8-0.9,1.2-2.2,1.2-3.9
				c0-1.7-0.4-3-1.1-3.9s-1.8-1.3-3-1.3s-2.3,0.4-3,1.3C105.9,83.5,105.5,84.8,105.5,86.5z"/>
			<path class="st2" d="M119.4,94V79h3l6.2,10V79h2.8v15h-3l-6.1-9.8V94H119.4z"/>
		</g>
		<g>
			<path class="st2" d="M240.1,88.5l2.9,0.9c-0.5,1.6-1.2,2.9-2.3,3.7c-1,0.8-2.4,1.2-4,1.2c-2,0-3.6-0.7-4.9-2
				c-1.3-1.4-1.9-3.2-1.9-5.6c0-2.5,0.6-4.4,1.9-5.8c1.3-1.4,3-2.1,5.1-2.1c1.8,0,3.3,0.5,4.5,1.6c0.7,0.6,1.2,1.6,1.5,2.8l-3,0.7
				c-0.2-0.8-0.5-1.4-1.1-1.8c-0.6-0.5-1.2-0.7-2.1-0.7c-1.1,0-2,0.4-2.7,1.2c-0.7,0.8-1,2.1-1,3.9c0,1.9,0.3,3.3,1,4.1
				s1.6,1.2,2.7,1.2c0.8,0,1.5-0.3,2.1-0.8C239.4,90.4,239.8,89.6,240.1,88.5z"/>
			<path class="st2" d="M245,86.6c0-1.5,0.2-2.8,0.7-3.9c0.3-0.8,0.8-1.5,1.4-2.1s1.2-1.1,1.9-1.4c0.9-0.4,2-0.6,3.2-0.6
				c2.2,0,4,0.7,5.3,2.1s2,3.3,2,5.7c0,2.4-0.7,4.3-2,5.7c-1.3,1.4-3.1,2.1-5.3,2.1c-2.2,0-4-0.7-5.3-2C245.7,90.9,245,89,245,86.6z
				 M248.1,86.5c0,1.7,0.4,3,1.2,3.9c0.8,0.9,1.8,1.3,3,1.3s2.2-0.4,3-1.3c0.8-0.9,1.2-2.2,1.2-3.9c0-1.7-0.4-3-1.1-3.9
				s-1.8-1.3-3-1.3s-2.3,0.4-3,1.3C248.5,83.5,248.1,84.8,248.1,86.5z"/>
			<path class="st2" d="M261.9,79h3v8.1c0,1.3,0,2.1,0.1,2.5c0.1,0.6,0.4,1.1,0.9,1.5c0.5,0.4,1.2,0.6,2,0.6c0.9,0,1.5-0.2,1.9-0.5
				c0.4-0.4,0.7-0.8,0.8-1.3s0.1-1.4,0.1-2.6V79h3v7.9c0,1.8-0.1,3.1-0.2,3.8c-0.2,0.7-0.5,1.4-0.9,1.9c-0.4,0.5-1,0.9-1.8,1.2
				c-0.7,0.3-1.7,0.5-2.9,0.5c-1.4,0-2.5-0.2-3.3-0.5c-0.7-0.3-1.3-0.8-1.8-1.3c-0.4-0.5-0.7-1.1-0.9-1.7c-0.2-0.9-0.3-2.1-0.3-3.8
				V79z"/>
			<path class="st2" d="M277.2,94V79h3l6.2,10V79h2.8v15h-3l-6.1-9.8V94H277.2z"/>
			<path class="st2" d="M295.7,94V81.5h-4.5V79h11.9v2.5h-4.5V94H295.7z"/>
			<path class="st2" d="M305.1,94V79h6.4c1.6,0,2.8,0.1,3.5,0.4c0.7,0.3,1.3,0.8,1.7,1.4s0.7,1.5,0.7,2.4c0,1.1-0.3,2.1-1,2.8
				c-0.7,0.7-1.7,1.2-3,1.4c0.7,0.4,1.2,0.8,1.6,1.3s1,1.3,1.7,2.4l1.8,2.9H315l-2.2-3.3c-0.8-1.2-1.3-1.9-1.6-2.2
				c-0.3-0.3-0.6-0.5-0.9-0.6c-0.3-0.1-0.8-0.2-1.5-0.2h-0.6V94H305.1z M308.2,85.3h2.2c1.5,0,2.4-0.1,2.7-0.2s0.6-0.3,0.9-0.6
				s0.3-0.7,0.3-1.1c0-0.5-0.1-0.9-0.4-1.2c-0.3-0.3-0.7-0.5-1.1-0.6c-0.2,0-1-0.1-2.2-0.1h-2.4V85.3z"/>
			<path class="st2" d="M323.5,94v-6.3L318,79h3.6l3.5,5.9l3.5-5.9h3.5l-5.5,8.7V94H323.5z"/>
		</g>
		<g>
			<path class="st2" d="M413,94V79h4.9c1.8,0,3,0.1,3.6,0.2c0.9,0.2,1.6,0.7,2.2,1.5c0.6,0.8,0.9,1.7,0.9,2.9c0,0.9-0.2,1.7-0.5,2.3
				s-0.8,1.1-1.3,1.5c-0.5,0.4-1,0.6-1.6,0.7c-0.7,0.1-1.8,0.2-3.1,0.2h-2V94H413z M416.1,81.5v4.3h1.7c1.2,0,2-0.1,2.4-0.2
				s0.7-0.4,0.9-0.7c0.2-0.3,0.3-0.7,0.3-1.2c0-0.5-0.2-1-0.5-1.4c-0.3-0.4-0.7-0.6-1.2-0.7c-0.4-0.1-1.1-0.1-2.2-0.1H416.1z"/>
			<path class="st2" d="M426,86.6c0-1.5,0.2-2.8,0.7-3.9c0.3-0.8,0.8-1.5,1.4-2.1c0.6-0.6,1.2-1.1,1.9-1.4c0.9-0.4,2-0.6,3.2-0.6
				c2.2,0,4,0.7,5.3,2.1c1.3,1.4,2,3.3,2,5.7c0,2.4-0.7,4.3-2,5.7c-1.3,1.4-3.1,2.1-5.3,2.1c-2.2,0-4-0.7-5.3-2
				C426.7,90.9,426,89,426,86.6z M429.1,86.5c0,1.7,0.4,3,1.2,3.9c0.8,0.9,1.8,1.3,3,1.3s2.2-0.4,3-1.3c0.8-0.9,1.2-2.2,1.2-3.9
				c0-1.7-0.4-3-1.1-3.9c-0.8-0.8-1.8-1.3-3-1.3s-2.3,0.4-3,1.3C429.5,83.5,429.1,84.8,429.1,86.5z"/>
			<path class="st2" d="M445.9,94V81.5h-4.5V79h11.9v2.5h-4.5V94H445.9z"/>
			<path class="st2" d="M454.9,94V79h11.1v2.5H458v3.3h7.5v2.5H458v4.1h8.4V94H454.9z"/>
			<path class="st2" d="M468.6,94V79h3l6.2,10V79h2.8v15h-3l-6.1-9.8V94H468.6z"/>
			<path class="st2" d="M486.7,94V81.5h-4.5V79h11.9v2.5h-4.5V94H486.7z"/>
			<path class="st2" d="M495.6,94V79h3v15H495.6z"/>
			<path class="st2" d="M514.6,94h-3.3l-1.3-3.4h-6l-1.2,3.4h-3.2l5.9-15h3.2L514.6,94z M509.1,88.1l-2.1-5.6l-2,5.6H509.1z"/>
			<path class="st2" d="M515.9,94V79.1h3v12.4h7.5V94H515.9z"/>
			<path class="st2" d="M392.1,104.2h6c1.2,0,2.1,0,2.7,0.1c0.6,0.1,1.1,0.3,1.6,0.6c0.5,0.3,0.8,0.7,1.2,1.3
				c0.3,0.5,0.5,1.1,0.5,1.8c0,0.7-0.2,1.3-0.6,1.9c-0.4,0.6-0.9,1-1.5,1.3c0.9,0.3,1.6,0.7,2.1,1.4s0.7,1.4,0.7,2.3
				c0,0.7-0.2,1.3-0.5,2c-0.3,0.6-0.8,1.2-1.3,1.5c-0.6,0.4-1.2,0.6-2,0.7c-0.5,0.1-1.7,0.1-3.7,0.1h-5.1V104.2z M395.1,106.7v3.5h2
				c1.2,0,1.9,0,2.2-0.1c0.5-0.1,0.9-0.2,1.2-0.5c0.3-0.3,0.4-0.7,0.4-1.2c0-0.5-0.1-0.8-0.4-1.1c-0.3-0.3-0.6-0.5-1.1-0.5
				c-0.3,0-1.2-0.1-2.6-0.1H395.1z M395.1,112.7v4h2.8c1.1,0,1.8,0,2.1-0.1c0.5-0.1,0.8-0.3,1.1-0.6c0.3-0.3,0.4-0.7,0.4-1.3
				c0-0.5-0.1-0.8-0.3-1.1c-0.2-0.3-0.5-0.5-0.9-0.7c-0.4-0.1-1.3-0.2-2.7-0.2H395.1z"/>
			<path class="st2" d="M406.8,119.2v-15H418v2.5h-8.1v3.3h7.5v2.5h-7.5v4.1h8.4v2.5H406.8z"/>
			<path class="st2" d="M420.4,119.2v-15h3l6.2,10v-10h2.8v15h-3l-6.1-9.8v9.8H420.4z"/>
			<path class="st2" d="M435.2,119.2v-15h11.1v2.5h-8.1v3.3h7.5v2.5h-7.5v4.1h8.4v2.5H435.2z"/>
			<path class="st2" d="M448.8,119.2v-15h10.3v2.5h-7.3v3.6h6.3v2.5h-6.3v6.4H448.8z"/>
			<path class="st2" d="M461.1,119.2v-15h3v15H461.1z"/>
			<path class="st2" d="M476.2,113.7l2.9,0.9c-0.5,1.6-1.2,2.9-2.3,3.7c-1,0.8-2.4,1.2-4,1.2c-2,0-3.6-0.7-4.9-2
				c-1.3-1.4-1.9-3.2-1.9-5.6c0-2.5,0.6-4.4,1.9-5.8c1.3-1.4,3-2.1,5.1-2.1c1.8,0,3.3,0.5,4.5,1.6c0.7,0.6,1.2,1.6,1.5,2.8l-3,0.7
				c-0.2-0.8-0.5-1.4-1.1-1.8c-0.6-0.5-1.2-0.7-2.1-0.7c-1.1,0-2,0.4-2.7,1.2c-0.7,0.8-1,2.1-1,3.9c0,1.9,0.3,3.3,1,4.1
				s1.6,1.2,2.7,1.2c0.8,0,1.5-0.3,2.1-0.8C475.5,115.6,475.9,114.8,476.2,113.7z"/>
			<path class="st2" d="M481.2,119.2v-15h3v15H481.2z"/>
			<path class="st2" d="M500.3,119.2H497l-1.3-3.4h-6l-1.2,3.4h-3.2l5.9-15h3.2L500.3,119.2z M494.7,113.3l-2.1-5.6l-2,5.6H494.7z"
				/>
			<path class="st2" d="M501.5,119.2v-15h6.4c1.6,0,2.8,0.1,3.5,0.4c0.7,0.3,1.3,0.8,1.7,1.4s0.7,1.5,0.7,2.4c0,1.1-0.3,2.1-1,2.8
				c-0.7,0.7-1.7,1.2-3,1.4c0.7,0.4,1.2,0.8,1.6,1.3c0.4,0.5,1,1.3,1.7,2.4l1.8,2.9h-3.6l-2.2-3.3c-0.8-1.2-1.3-1.9-1.6-2.2
				c-0.3-0.3-0.6-0.5-0.9-0.6c-0.3-0.1-0.8-0.2-1.5-0.2h-0.6v6.3H501.5z M504.5,110.5h2.2c1.5,0,2.4-0.1,2.7-0.2s0.6-0.3,0.9-0.6
				s0.3-0.7,0.3-1.1c0-0.5-0.1-0.9-0.4-1.2c-0.3-0.3-0.7-0.5-1.1-0.6c-0.2,0-1-0.1-2.2-0.1h-2.4V110.5z"/>
			<path class="st2" d="M516.1,119.2v-15h3v15H516.1z"/>
			<path class="st2" d="M521.6,119.2v-15h11.1v2.5h-8.1v3.3h7.5v2.5h-7.5v4.1h8.4v2.5H521.6z"/>
			<path class="st2" d="M534.5,114.3l3-0.3c0.2,1,0.5,1.7,1.1,2.2c0.5,0.5,1.3,0.7,2.2,0.7c1,0,1.7-0.2,2.2-0.6
				c0.5-0.4,0.7-0.9,0.7-1.5c0-0.4-0.1-0.7-0.3-0.9c-0.2-0.2-0.6-0.5-1.1-0.7c-0.4-0.1-1.2-0.3-2.4-0.7c-1.6-0.4-2.8-0.9-3.4-1.5
				c-0.9-0.8-1.4-1.8-1.4-3c0-0.8,0.2-1.5,0.7-2.1c0.4-0.7,1.1-1.2,1.9-1.5c0.8-0.3,1.8-0.5,3-0.5c1.9,0,3.3,0.4,4.3,1.2
				c1,0.8,1.5,1.9,1.5,3.3l-3,0.1c-0.1-0.8-0.4-1.3-0.8-1.7c-0.4-0.3-1.1-0.5-1.9-0.5c-0.9,0-1.6,0.2-2.1,0.5
				c-0.3,0.2-0.5,0.5-0.5,0.9c0,0.4,0.2,0.7,0.5,0.9c0.4,0.3,1.3,0.7,2.8,1c1.5,0.3,2.6,0.7,3.3,1.1c0.7,0.4,1.3,0.9,1.7,1.5
				c0.4,0.6,0.6,1.4,0.6,2.4c0,0.9-0.2,1.7-0.7,2.4c-0.5,0.8-1.2,1.3-2,1.7c-0.9,0.4-2,0.5-3.3,0.5c-1.9,0-3.4-0.4-4.4-1.3
				C535.3,117.3,534.6,116,534.5,114.3z"/>
			<path class="st2" d="M430.6,148.8h-2c-1-1.6-1.8-3.2-2.4-4.9c-0.5-1.7-0.8-3.3-0.8-4.9c0-2,0.3-3.8,1-5.6
				c0.6-1.5,1.3-2.9,2.2-4.2h2c-0.9,2.1-1.6,3.8-1.9,5.3c-0.4,1.5-0.5,3-0.5,4.6c0,1.1,0.1,2.3,0.3,3.4c0.2,1.2,0.5,2.3,0.9,3.4
				C429.6,146.5,430,147.5,430.6,148.8z"/>
			<path class="st2" d="M432.2,133.5h2.7v1.5c1-1.2,2.1-1.7,3.4-1.7c0.7,0,1.3,0.1,1.8,0.4s0.9,0.7,1.3,1.3c0.5-0.6,1-1,1.5-1.3
				s1.1-0.4,1.8-0.4c0.8,0,1.5,0.2,2,0.5c0.6,0.3,1,0.8,1.2,1.4c0.2,0.5,0.3,1.2,0.3,2.3v7h-2.9v-6.2c0-1.1-0.1-1.8-0.3-2.1
				c-0.3-0.4-0.7-0.6-1.2-0.6c-0.4,0-0.8,0.1-1.1,0.4s-0.6,0.6-0.8,1.1c-0.2,0.5-0.2,1.2-0.2,2.3v5.2h-2.9v-6c0-1.1-0.1-1.7-0.2-2.1
				s-0.3-0.5-0.5-0.7c-0.2-0.2-0.5-0.2-0.9-0.2c-0.4,0-0.8,0.1-1.2,0.4s-0.6,0.6-0.8,1c-0.2,0.5-0.2,1.2-0.2,2.2v5.3h-2.9V133.5z"/>
			<path class="st2" d="M450.7,132.1v-2.7h2.9v2.7H450.7z M450.7,144.4v-10.9h2.9v10.9H450.7z"/>
			<path class="st2" d="M456.1,144.4v-15h2.9v15H456.1z"/>
			<path class="st2" d="M461.5,144.4v-15h2.9v15H461.5z"/>
			<path class="st2" d="M466.9,132.1v-2.7h2.9v2.7H466.9z M466.9,144.4v-10.9h2.9v10.9H466.9z"/>
			<path class="st2" d="M471.7,138.8c0-1,0.2-1.9,0.7-2.8s1.1-1.6,2-2.1c0.9-0.5,1.8-0.7,2.9-0.7c1.6,0,3,0.5,4.1,1.6
				c1.1,1.1,1.6,2.4,1.6,4.1c0,1.6-0.5,3-1.6,4.1c-1.1,1.1-2.4,1.6-4,1.6c-1,0-2-0.2-2.9-0.7c-0.9-0.5-1.6-1.1-2.1-2
				C471.9,141.1,471.7,140.1,471.7,138.8z M474.6,139c0,1.1,0.3,1.9,0.8,2.5s1.1,0.9,1.9,0.9s1.4-0.3,1.9-0.9
				c0.5-0.6,0.8-1.4,0.8-2.5c0-1.1-0.3-1.9-0.8-2.5c-0.5-0.6-1.1-0.9-1.9-0.9s-1.4,0.3-1.9,0.9S474.6,137.9,474.6,139z"/>
			<path class="st2" d="M494.7,144.4h-2.9v-5.6c0-1.2-0.1-1.9-0.2-2.3c-0.1-0.3-0.3-0.6-0.6-0.8c-0.3-0.2-0.6-0.3-1-0.3
				c-0.5,0-0.9,0.1-1.3,0.4c-0.4,0.3-0.7,0.6-0.8,1.1c-0.1,0.5-0.2,1.3-0.2,2.5v4.9h-2.9v-10.9h2.7v1.6c1-1.2,2.1-1.8,3.6-1.8
				c0.6,0,1.2,0.1,1.7,0.3c0.5,0.2,0.9,0.5,1.2,0.9c0.3,0.4,0.5,0.8,0.6,1.2c0.1,0.5,0.2,1.1,0.2,1.9V144.4z"/>
			<path class="st2" d="M496.1,141.3l2.9-0.4c0.1,0.6,0.4,1,0.7,1.3c0.4,0.3,0.9,0.4,1.6,0.4c0.7,0,1.3-0.1,1.7-0.4
				c0.3-0.2,0.4-0.4,0.4-0.8c0-0.2-0.1-0.4-0.2-0.5c-0.1-0.1-0.5-0.3-1-0.4c-2.3-0.5-3.8-1-4.4-1.4c-0.9-0.6-1.3-1.4-1.3-2.5
				c0-0.9,0.4-1.7,1.1-2.4s1.9-1,3.5-1c1.5,0,2.6,0.2,3.3,0.7c0.7,0.5,1.2,1.2,1.5,2.2l-2.7,0.5c-0.1-0.4-0.3-0.7-0.7-1
				c-0.3-0.2-0.8-0.3-1.4-0.3c-0.8,0-1.3,0.1-1.6,0.3c-0.2,0.2-0.3,0.3-0.3,0.6c0,0.2,0.1,0.4,0.3,0.5c0.3,0.2,1.2,0.5,2.7,0.8
				c1.5,0.3,2.6,0.8,3.2,1.3c0.6,0.5,0.9,1.2,0.9,2.1c0,1-0.4,1.9-1.3,2.6c-0.8,0.7-2.1,1.1-3.7,1.1c-1.5,0-2.7-0.3-3.5-0.9
				C497,143.2,496.4,142.3,496.1,141.3z"/>
			<path class="st2" d="M507.6,148.8c0.6-1.2,1-2.2,1.2-2.8s0.4-1.4,0.6-2.2c0.2-0.8,0.3-1.7,0.4-2.4c0.1-0.8,0.1-1.5,0.1-2.3
				c0-1.6-0.2-3.2-0.5-4.6c-0.3-1.5-1-3.2-1.9-5.3h2c1,1.5,1.8,3,2.4,4.7c0.6,1.6,0.9,3.3,0.9,5c0,1.4-0.2,3-0.7,4.6
				c-0.5,1.8-1.4,3.6-2.5,5.4H507.6z"/>
		</g>
		<g>
			<path class="st2" d="M607.6,94V79h4.9c1.8,0,3,0.1,3.6,0.2c0.9,0.2,1.6,0.7,2.2,1.5c0.6,0.8,0.9,1.7,0.9,2.9
				c0,0.9-0.2,1.7-0.5,2.3s-0.8,1.1-1.3,1.5c-0.5,0.4-1,0.6-1.6,0.7c-0.7,0.1-1.8,0.2-3.1,0.2h-2V94H607.6z M610.6,81.5v4.3h1.7
				c1.2,0,2-0.1,2.4-0.2s0.7-0.4,0.9-0.7c0.2-0.3,0.3-0.7,0.3-1.2c0-0.5-0.2-1-0.5-1.4c-0.3-0.4-0.7-0.6-1.2-0.7
				c-0.4-0.1-1.1-0.1-2.2-0.1H610.6z"/>
			<path class="st2" d="M621.7,94V79.1h3v12.4h7.5V94H621.7z"/>
			<path class="st2" d="M648,94h-3.3l-1.3-3.4h-6l-1.2,3.4h-3.2l5.9-15h3.2L648,94z M642.4,88.1l-2.1-5.6l-2,5.6H642.4z"/>
			<path class="st2" d="M649.6,94V79h3l6.2,10V79h2.8v15h-3l-6.1-9.8V94H649.6z"/>
			<path class="st2" d="M664.8,94V79h3l6.2,10V79h2.8v15h-3l-6.1-9.8V94H664.8z"/>
			<path class="st2" d="M679.9,94V79H691v2.5h-8.1v3.3h7.5v2.5h-7.5v4.1h8.4V94H679.9z"/>
			<path class="st2" d="M693.9,79h5.5c1.3,0,2.2,0.1,2.9,0.3c0.9,0.3,1.6,0.7,2.3,1.4c0.6,0.7,1.1,1.5,1.4,2.4
				c0.3,1,0.5,2.1,0.5,3.6c0,1.2-0.2,2.3-0.5,3.2c-0.4,1.1-0.9,2-1.6,2.7c-0.5,0.5-1.2,0.9-2.1,1.2c-0.7,0.2-1.6,0.3-2.7,0.3h-5.7
				V79z M696.9,81.5v10h2.3c0.8,0,1.5,0,1.8-0.1c0.5-0.1,0.9-0.3,1.2-0.6c0.3-0.3,0.6-0.8,0.8-1.5c0.2-0.7,0.3-1.6,0.3-2.8
				s-0.1-2.1-0.3-2.7s-0.5-1.1-0.9-1.5c-0.4-0.3-0.8-0.6-1.4-0.7c-0.4-0.1-1.3-0.1-2.5-0.1H696.9z"/>
			<path class="st2" d="M607.8,113.7l2.9,0.9c-0.5,1.6-1.2,2.9-2.3,3.7c-1,0.8-2.4,1.2-4,1.2c-2,0-3.6-0.7-4.9-2
				c-1.3-1.4-1.9-3.2-1.9-5.6c0-2.5,0.6-4.4,1.9-5.8c1.3-1.4,3-2.1,5.1-2.1c1.8,0,3.3,0.5,4.5,1.6c0.7,0.6,1.2,1.6,1.5,2.8l-3,0.7
				c-0.2-0.8-0.5-1.4-1.1-1.8c-0.6-0.5-1.2-0.7-2.1-0.7c-1.1,0-2,0.4-2.7,1.2c-0.7,0.8-1,2.1-1,3.9c0,1.9,0.3,3.3,1,4.1
				s1.6,1.2,2.7,1.2c0.8,0,1.5-0.3,2.1-0.8C607.2,115.6,607.6,114.8,607.8,113.7z"/>
			<path class="st2" d="M612.8,111.8c0-1.5,0.2-2.8,0.7-3.9c0.3-0.8,0.8-1.5,1.4-2.1c0.6-0.6,1.2-1.1,1.9-1.4c0.9-0.4,2-0.6,3.2-0.6
				c2.2,0,4,0.7,5.3,2.1c1.3,1.4,2,3.3,2,5.7c0,2.4-0.7,4.3-2,5.7c-1.3,1.4-3.1,2.1-5.3,2.1c-2.2,0-4-0.7-5.3-2
				C613.4,116.1,612.8,114.2,612.8,111.8z M615.9,111.7c0,1.7,0.4,3,1.2,3.9c0.8,0.9,1.8,1.3,3,1.3s2.2-0.4,3-1.3
				c0.8-0.9,1.2-2.2,1.2-3.9c0-1.7-0.4-3-1.1-3.9c-0.8-0.8-1.8-1.3-3-1.3s-2.3,0.4-3,1.3C616.3,108.7,615.9,110,615.9,111.7z"/>
			<path class="st2" d="M633.6,119.2l-5.4-15h3.3l3.8,11.1l3.7-11.1h3.2l-5.4,15H633.6z"/>
			<path class="st2" d="M643.7,119.2v-15h11.1v2.5h-8.1v3.3h7.5v2.5h-7.5v4.1h8.4v2.5H643.7z"/>
			<path class="st2" d="M657.7,119.2v-15h6.4c1.6,0,2.8,0.1,3.5,0.4c0.7,0.3,1.3,0.8,1.7,1.4s0.7,1.5,0.7,2.4c0,1.1-0.3,2.1-1,2.8
				c-0.7,0.7-1.7,1.2-3,1.4c0.7,0.4,1.2,0.8,1.6,1.3c0.4,0.5,1,1.3,1.7,2.4l1.8,2.9h-3.6l-2.2-3.3c-0.8-1.2-1.3-1.9-1.6-2.2
				c-0.3-0.3-0.6-0.5-0.9-0.6c-0.3-0.1-0.8-0.2-1.5-0.2h-0.6v6.3H657.7z M660.8,110.5h2.2c1.5,0,2.4-0.1,2.7-0.2s0.6-0.3,0.9-0.6
				s0.3-0.7,0.3-1.1c0-0.5-0.1-0.9-0.4-1.2c-0.3-0.3-0.7-0.5-1.1-0.6c-0.2,0-1-0.1-2.2-0.1h-2.4V110.5z"/>
			<path class="st2" d="M686.5,119.2h-3.3l-1.3-3.4h-6l-1.2,3.4h-3.2l5.9-15h3.2L686.5,119.2z M680.9,113.3l-2.1-5.6l-2,5.6H680.9z"
				/>
			<path class="st2" d="M695.1,113.7v-2.5h6.5v6c-0.6,0.6-1.6,1.2-2.8,1.6c-1.2,0.5-2.4,0.7-3.7,0.7c-1.6,0-2.9-0.3-4.1-1
				c-1.2-0.7-2-1.6-2.6-2.8c-0.6-1.2-0.9-2.6-0.9-4c0-1.6,0.3-3,1-4.2s1.6-2.2,2.9-2.8c1-0.5,2.2-0.7,3.6-0.7c1.9,0,3.3,0.4,4.4,1.2
				c1,0.8,1.7,1.9,2,3.2l-3,0.6c-0.2-0.7-0.6-1.3-1.2-1.7c-0.6-0.4-1.3-0.6-2.2-0.6c-1.3,0-2.4,0.4-3.2,1.3
				c-0.8,0.8-1.2,2.1-1.2,3.7c0,1.8,0.4,3.1,1.2,4c0.8,0.9,1.8,1.3,3.1,1.3c0.6,0,1.3-0.1,1.9-0.4c0.6-0.2,1.2-0.6,1.6-0.9v-1.9
				H695.1z"/>
			<path class="st2" d="M704.4,119.2v-15h11.1v2.5h-8.1v3.3h7.5v2.5h-7.5v4.1h8.4v2.5H704.4z"/>
			<path class="st2" d="M612.9,148.8h-2c-1-1.6-1.8-3.2-2.4-4.9c-0.5-1.7-0.8-3.3-0.8-4.9c0-2,0.3-3.8,1-5.6
				c0.6-1.5,1.3-2.9,2.2-4.2h2c-0.9,2.1-1.6,3.8-1.9,5.3c-0.4,1.5-0.5,3-0.5,4.6c0,1.1,0.1,2.3,0.3,3.4c0.2,1.2,0.5,2.3,0.9,3.4
				C611.9,146.5,612.3,147.5,612.9,148.8z"/>
			<path class="st2" d="M618,129.4v5.5c0.9-1.1,2-1.6,3.3-1.6c0.7,0,1.3,0.1,1.8,0.4s0.9,0.6,1.2,0.9c0.3,0.4,0.5,0.8,0.6,1.3
				c0.1,0.5,0.1,1.2,0.1,2.2v6.4h-2.9v-5.8c0-1.1-0.1-1.9-0.2-2.2c-0.1-0.3-0.3-0.6-0.6-0.7c-0.3-0.2-0.6-0.3-1-0.3
				c-0.5,0-0.9,0.1-1.3,0.3s-0.7,0.6-0.8,1.1c-0.2,0.5-0.3,1.2-0.3,2.1v5.5h-2.9v-15H618z"/>
			<path class="st2" d="M634.2,141l2.9,0.5c-0.4,1.1-1,1.9-1.7,2.4c-0.8,0.5-1.8,0.8-3,0.8c-1.9,0-3.3-0.6-4.2-1.9
				c-0.7-1-1.1-2.2-1.1-3.8c0-1.8,0.5-3.2,1.4-4.2c0.9-1,2.1-1.5,3.6-1.5c1.6,0,2.9,0.5,3.8,1.6c0.9,1.1,1.4,2.7,1.3,4.9H630
				c0,0.9,0.3,1.5,0.7,2c0.4,0.5,1,0.7,1.7,0.7c0.5,0,0.8-0.1,1.1-0.4S634.1,141.5,634.2,141z M634.4,138c0-0.8-0.2-1.5-0.6-1.9
				c-0.4-0.4-0.9-0.7-1.5-0.7c-0.6,0-1.1,0.2-1.6,0.7s-0.6,1.1-0.6,1.9H634.4z"/>
			<path class="st2" d="M649.1,136.8l-2.8,0.5c-0.1-0.6-0.3-1-0.7-1.3c-0.3-0.3-0.8-0.4-1.3-0.4c-0.7,0-1.3,0.2-1.7,0.7
				c-0.4,0.5-0.6,1.3-0.6,2.5c0,1.3,0.2,2.2,0.7,2.7c0.4,0.5,1,0.8,1.7,0.8c0.5,0,1-0.2,1.3-0.5c0.3-0.3,0.6-0.8,0.7-1.6l2.8,0.5
				c-0.3,1.3-0.9,2.3-1.7,2.9s-2,1-3.4,1c-1.6,0-2.9-0.5-3.8-1.5c-0.9-1-1.4-2.4-1.4-4.2c0-1.8,0.5-3.2,1.4-4.2c1-1,2.2-1.5,3.9-1.5
				c1.3,0,2.4,0.3,3.2,0.9C648.2,134.7,648.8,135.6,649.1,136.8z"/>
			<path class="st2" d="M656.3,133.5v2.3h-2v4.4c0,0.9,0,1.4,0.1,1.6c0,0.1,0.1,0.3,0.3,0.4c0.1,0.1,0.3,0.1,0.5,0.1
				c0.3,0,0.7-0.1,1.2-0.3l0.2,2.2c-0.7,0.3-1.4,0.4-2.3,0.4c-0.5,0-1-0.1-1.4-0.3c-0.4-0.2-0.7-0.4-0.9-0.7
				c-0.2-0.3-0.3-0.7-0.4-1.1c-0.1-0.3-0.1-1-0.1-2v-4.7h-1.3v-2.3h1.3v-2.2l2.9-1.7v3.8H656.3z"/>
			<path class="st2" d="M660.4,136.9l-2.6-0.5c0.3-1.1,0.8-1.8,1.5-2.3s1.8-0.8,3.2-0.8c1.3,0,2.2,0.2,2.9,0.5
				c0.6,0.3,1.1,0.7,1.3,1.2c0.3,0.5,0.4,1.3,0.4,2.6l0,3.4c0,1,0,1.7,0.1,2.1c0.1,0.5,0.3,0.9,0.5,1.5h-2.9
				c-0.1-0.2-0.2-0.5-0.3-0.9c0-0.2-0.1-0.3-0.1-0.3c-0.5,0.5-1,0.8-1.6,1.1c-0.6,0.2-1.2,0.4-1.8,0.4c-1.1,0-2-0.3-2.7-0.9
				c-0.6-0.6-1-1.4-1-2.3c0-0.6,0.1-1.2,0.4-1.6c0.3-0.5,0.7-0.9,1.2-1.1c0.5-0.3,1.3-0.5,2.3-0.7c1.3-0.3,2.3-0.5,2.8-0.7V137
				c0-0.6-0.1-0.9-0.4-1.2c-0.3-0.2-0.8-0.4-1.5-0.4c-0.5,0-0.9,0.1-1.2,0.3C660.8,136,660.6,136.4,660.4,136.9z M664.3,139.2
				c-0.4,0.1-1,0.3-1.8,0.4c-0.8,0.2-1.3,0.3-1.6,0.5c-0.4,0.3-0.6,0.6-0.6,1c0,0.4,0.2,0.8,0.5,1s0.7,0.4,1.1,0.4
				c0.5,0,1-0.2,1.5-0.5c0.3-0.3,0.6-0.6,0.7-1c0.1-0.2,0.1-0.7,0.1-1.4V139.2z"/>
			<path class="st2" d="M672.7,144.4h-2.9v-10.9h2.7v1.5c0.5-0.7,0.9-1.2,1.2-1.4c0.4-0.2,0.8-0.3,1.2-0.3c0.7,0,1.3,0.2,1.9,0.5
				l-0.9,2.5c-0.5-0.3-0.9-0.5-1.4-0.5c-0.4,0-0.7,0.1-1,0.3c-0.3,0.2-0.5,0.6-0.7,1.2c-0.2,0.6-0.2,1.8-0.2,3.7V144.4z"/>
			<path class="st2" d="M684.4,141l2.9,0.5c-0.4,1.1-1,1.9-1.7,2.4c-0.8,0.5-1.8,0.8-3,0.8c-1.9,0-3.3-0.6-4.2-1.9
				c-0.7-1-1.1-2.2-1.1-3.8c0-1.8,0.5-3.2,1.4-4.2c0.9-1,2.1-1.5,3.6-1.5c1.6,0,2.9,0.5,3.8,1.6c0.9,1.1,1.4,2.7,1.3,4.9h-7.2
				c0,0.9,0.3,1.5,0.7,2c0.4,0.5,1,0.7,1.7,0.7c0.5,0,0.8-0.1,1.1-0.4S684.3,141.5,684.4,141z M684.6,138c0-0.8-0.2-1.5-0.6-1.9
				c-0.4-0.4-0.9-0.7-1.5-0.7c-0.6,0-1.1,0.2-1.6,0.7s-0.6,1.1-0.6,1.9H684.6z"/>
			<path class="st2" d="M688.8,141.3l2.9-0.4c0.1,0.6,0.4,1,0.7,1.3c0.4,0.3,0.9,0.4,1.6,0.4c0.7,0,1.3-0.1,1.7-0.4
				c0.3-0.2,0.4-0.4,0.4-0.8c0-0.2-0.1-0.4-0.2-0.5c-0.1-0.1-0.5-0.3-1-0.4c-2.3-0.5-3.8-1-4.4-1.4c-0.9-0.6-1.3-1.4-1.3-2.5
				c0-0.9,0.4-1.7,1.1-2.4s1.9-1,3.5-1c1.5,0,2.6,0.2,3.3,0.7c0.7,0.5,1.2,1.2,1.5,2.2l-2.7,0.5c-0.1-0.4-0.3-0.7-0.7-1
				c-0.3-0.2-0.8-0.3-1.4-0.3c-0.8,0-1.3,0.1-1.6,0.3c-0.2,0.2-0.3,0.3-0.3,0.6c0,0.2,0.1,0.4,0.3,0.5c0.3,0.2,1.2,0.5,2.7,0.8
				c1.5,0.3,2.6,0.8,3.2,1.3c0.6,0.5,0.9,1.2,0.9,2.1c0,1-0.4,1.9-1.3,2.6c-0.8,0.7-2.1,1.1-3.7,1.1c-1.5,0-2.7-0.3-3.5-0.9
				C689.6,143.2,689.1,142.3,688.8,141.3z"/>
			<path class="st2" d="M700.7,148.8c0.6-1.2,1-2.2,1.2-2.8s0.4-1.4,0.6-2.2c0.2-0.8,0.3-1.7,0.4-2.4c0.1-0.8,0.1-1.5,0.1-2.3
				c0-1.6-0.2-3.2-0.5-4.6c-0.3-1.5-1-3.2-1.9-5.3h2c1,1.5,1.8,3,2.4,4.7c0.6,1.6,0.9,3.3,0.9,5c0,1.4-0.2,3-0.7,4.6
				c-0.5,1.8-1.4,3.6-2.5,5.4H700.7z"/>
		</g>
		<g>
			<g>
				<path class="st3" d="M264.6,457.4l-1-0.7c0.3-0.3,0.6-0.7,1-1c0.1-0.1,0.2-0.2,0.2-0.2c-0.1,0-0.4-0.1-0.9-0.2
					c-0.4-0.1-0.6-0.2-0.7-0.2l0.4-1.1c0.6,0.2,1,0.5,1.5,0.7c-0.1-0.7-0.2-1.3-0.2-1.7h1.1c0,0.3-0.1,0.9-0.2,1.7
					c0.1,0,0.3-0.1,0.5-0.2c0.4-0.2,0.7-0.3,1.1-0.4l0.3,1.1c-0.5,0.1-1,0.2-1.6,0.3l0.8,0.9c0.2,0.2,0.3,0.3,0.4,0.4l-1,0.6
					l-0.9-1.4C265.2,456.4,264.9,456.9,264.6,457.4z"/>
				<path class="st3" d="M269,462.4v-9.3h1.9v9.3H269z"/>
				<path class="st3" d="M278.8,462.4H277V459c0-0.7,0-1.2-0.1-1.4s-0.2-0.4-0.4-0.5c-0.2-0.1-0.4-0.2-0.6-0.2
					c-0.3,0-0.6,0.1-0.8,0.3c-0.2,0.2-0.4,0.4-0.5,0.7s-0.1,0.8-0.1,1.5v3.1h-1.8v-6.7h1.7v1c0.6-0.8,1.3-1.1,2.2-1.1
					c0.4,0,0.8,0.1,1.1,0.2s0.6,0.3,0.7,0.5c0.2,0.2,0.3,0.5,0.3,0.8s0.1,0.7,0.1,1.2V462.4z"/>
				<path class="st3" d="M279.8,455.7h1v-0.5c0-0.6,0.1-1,0.2-1.3c0.1-0.3,0.3-0.5,0.7-0.7c0.3-0.2,0.7-0.3,1.2-0.3
					c0.5,0,1,0.1,1.5,0.2l-0.2,1.2c-0.3-0.1-0.6-0.1-0.8-0.1c-0.3,0-0.4,0.1-0.6,0.2c-0.1,0.1-0.2,0.4-0.2,0.7v0.5h1.3v1.4h-1.3v5.3
					h-1.8v-5.3h-1V455.7z"/>
				<path class="st3" d="M284.5,458.9c0-0.6,0.1-1.2,0.4-1.7c0.3-0.6,0.7-1,1.2-1.3c0.5-0.3,1.1-0.4,1.8-0.4c1,0,1.9,0.3,2.5,1
					s1,1.5,1,2.5c0,1-0.3,1.9-1,2.5s-1.5,1-2.5,1c-0.6,0-1.2-0.1-1.8-0.4s-1-0.7-1.3-1.2C284.7,460.4,284.5,459.7,284.5,458.9z
					 M286.3,459c0,0.7,0.2,1.2,0.5,1.5c0.3,0.4,0.7,0.5,1.2,0.5s0.9-0.2,1.2-0.5s0.5-0.9,0.5-1.5c0-0.7-0.2-1.2-0.5-1.5
					s-0.7-0.5-1.2-0.5s-0.9,0.2-1.2,0.5C286.5,457.9,286.3,458.4,286.3,459z"/>
				<path class="st3" d="M294.6,462.4h-1.8v-6.7h1.7v1c0.3-0.5,0.5-0.8,0.8-0.9s0.5-0.2,0.8-0.2c0.4,0,0.8,0.1,1.2,0.3l-0.6,1.6
					c-0.3-0.2-0.6-0.3-0.8-0.3c-0.2,0-0.5,0.1-0.6,0.2s-0.3,0.4-0.4,0.7s-0.1,1.1-0.1,2.3V462.4z"/>
				<path class="st3" d="M297.8,455.7h1.6v0.9c0.6-0.7,1.3-1.1,2.1-1.1c0.4,0,0.8,0.1,1.1,0.3c0.3,0.2,0.6,0.4,0.8,0.8
					c0.3-0.4,0.6-0.6,1-0.8c0.3-0.2,0.7-0.3,1.1-0.3c0.5,0,0.9,0.1,1.3,0.3s0.6,0.5,0.8,0.9c0.1,0.3,0.2,0.8,0.2,1.4v4.3h-1.8v-3.9
					c0-0.7-0.1-1.1-0.2-1.3c-0.2-0.3-0.4-0.4-0.8-0.4c-0.2,0-0.5,0.1-0.7,0.2c-0.2,0.2-0.4,0.4-0.5,0.7s-0.1,0.8-0.1,1.4v3.2h-1.8
					v-3.7c0-0.7,0-1.1-0.1-1.3c-0.1-0.2-0.2-0.3-0.3-0.4c-0.1-0.1-0.3-0.1-0.5-0.1c-0.3,0-0.5,0.1-0.7,0.2s-0.4,0.4-0.5,0.6
					c-0.1,0.3-0.1,0.7-0.1,1.4v3.3h-1.8V455.7z"/>
				<path class="st3" d="M310.8,457.7l-1.6-0.3c0.2-0.7,0.5-1.1,0.9-1.4s1.1-0.5,2-0.5c0.8,0,1.4,0.1,1.8,0.3s0.7,0.4,0.8,0.7
					c0.2,0.3,0.2,0.8,0.2,1.6l0,2.1c0,0.6,0,1,0.1,1.3c0.1,0.3,0.2,0.6,0.3,0.9h-1.8c0-0.1-0.1-0.3-0.2-0.5c0-0.1-0.1-0.2-0.1-0.2
					c-0.3,0.3-0.6,0.5-1,0.7c-0.3,0.1-0.7,0.2-1.1,0.2c-0.7,0-1.2-0.2-1.6-0.6c-0.4-0.4-0.6-0.9-0.6-1.4c0-0.4,0.1-0.7,0.3-1
					c0.2-0.3,0.4-0.5,0.8-0.7c0.3-0.2,0.8-0.3,1.4-0.4c0.8-0.2,1.4-0.3,1.7-0.4v-0.2c0-0.3-0.1-0.6-0.3-0.7c-0.2-0.1-0.5-0.2-1-0.2
					c-0.3,0-0.6,0.1-0.7,0.2S310.9,457.4,310.8,457.7z M313.2,459.2c-0.2,0.1-0.6,0.2-1.1,0.3c-0.5,0.1-0.8,0.2-1,0.3
					c-0.2,0.2-0.3,0.4-0.3,0.6c0,0.2,0.1,0.5,0.3,0.6c0.2,0.2,0.4,0.3,0.7,0.3c0.3,0,0.6-0.1,0.9-0.3c0.2-0.2,0.4-0.4,0.4-0.6
					c0-0.2,0.1-0.4,0.1-0.9V459.2z"/>
				<path class="st3" d="M319.8,455.7v1.4h-1.2v2.7c0,0.5,0,0.9,0,1s0.1,0.2,0.2,0.2c0.1,0.1,0.2,0.1,0.3,0.1c0.2,0,0.4-0.1,0.7-0.2
					l0.2,1.4c-0.4,0.2-0.9,0.3-1.4,0.3c-0.3,0-0.6-0.1-0.9-0.2c-0.3-0.1-0.4-0.2-0.6-0.4c-0.1-0.2-0.2-0.4-0.3-0.7
					c0-0.2-0.1-0.6-0.1-1.3v-2.9H316v-1.4h0.8v-1.3l1.8-1v2.4H319.8z"/>
				<path class="st3" d="M321,454.8v-1.7h1.8v1.7H321z M321,462.4v-6.7h1.8v6.7H321z"/>
				<path class="st3" d="M324.2,458.9c0-0.6,0.1-1.2,0.4-1.7c0.3-0.6,0.7-1,1.2-1.3c0.5-0.3,1.1-0.4,1.8-0.4c1,0,1.9,0.3,2.5,1
					s1,1.5,1,2.5c0,1-0.3,1.9-1,2.5s-1.5,1-2.5,1c-0.6,0-1.2-0.1-1.8-0.4s-1-0.7-1.3-1.2C324.4,460.4,324.2,459.7,324.2,458.9z
					 M326.1,459c0,0.7,0.2,1.2,0.5,1.5c0.3,0.4,0.7,0.5,1.2,0.5s0.9-0.2,1.2-0.5s0.5-0.9,0.5-1.5c0-0.7-0.2-1.2-0.5-1.5
					s-0.7-0.5-1.2-0.5s-0.9,0.2-1.2,0.5C326.2,457.9,326.1,458.4,326.1,459z"/>
				<path class="st3" d="M338.7,462.4h-1.8V459c0-0.7,0-1.2-0.1-1.4s-0.2-0.4-0.4-0.5c-0.2-0.1-0.4-0.2-0.6-0.2
					c-0.3,0-0.6,0.1-0.8,0.3c-0.2,0.2-0.4,0.4-0.5,0.7s-0.1,0.8-0.1,1.5v3.1h-1.8v-6.7h1.7v1c0.6-0.8,1.3-1.1,2.2-1.1
					c0.4,0,0.8,0.1,1.1,0.2s0.6,0.3,0.7,0.5c0.2,0.2,0.3,0.5,0.3,0.8s0.1,0.7,0.1,1.2V462.4z"/>
				<path class="st3" d="M350.3,462.4h-1.8V459c0-0.7,0-1.2-0.1-1.4s-0.2-0.4-0.4-0.5c-0.2-0.1-0.4-0.2-0.6-0.2
					c-0.3,0-0.6,0.1-0.8,0.3c-0.2,0.2-0.4,0.4-0.5,0.7s-0.1,0.8-0.1,1.5v3.1h-1.8v-6.7h1.7v1c0.6-0.8,1.3-1.1,2.2-1.1
					c0.4,0,0.8,0.1,1.1,0.2s0.6,0.3,0.7,0.5c0.2,0.2,0.3,0.5,0.3,0.8s0.1,0.7,0.1,1.2V462.4z"/>
				<path class="st3" d="M351.7,458.9c0-0.6,0.1-1.2,0.4-1.7c0.3-0.6,0.7-1,1.2-1.3c0.5-0.3,1.1-0.4,1.8-0.4c1,0,1.9,0.3,2.5,1
					s1,1.5,1,2.5c0,1-0.3,1.9-1,2.5s-1.5,1-2.5,1c-0.6,0-1.2-0.1-1.8-0.4s-1-0.7-1.3-1.2C351.8,460.4,351.7,459.7,351.7,458.9z
					 M353.5,459c0,0.7,0.2,1.2,0.5,1.5c0.3,0.4,0.7,0.5,1.2,0.5s0.9-0.2,1.2-0.5s0.5-0.9,0.5-1.5c0-0.7-0.2-1.2-0.5-1.5
					s-0.7-0.5-1.2-0.5s-0.9,0.2-1.2,0.5C353.7,457.9,353.5,458.4,353.5,459z"/>
				<path class="st3" d="M363.1,455.7v1.4h-1.2v2.7c0,0.5,0,0.9,0,1s0.1,0.2,0.2,0.2c0.1,0.1,0.2,0.1,0.3,0.1c0.2,0,0.4-0.1,0.7-0.2
					l0.2,1.4c-0.4,0.2-0.9,0.3-1.4,0.3c-0.3,0-0.6-0.1-0.9-0.2c-0.3-0.1-0.4-0.2-0.6-0.4c-0.1-0.2-0.2-0.4-0.3-0.7
					c0-0.2-0.1-0.6-0.1-1.3v-2.9h-0.8v-1.4h0.8v-1.3l1.8-1v2.4H363.1z"/>
				<path class="st3" d="M373.9,457.7l-1.8,0.3c-0.1-0.4-0.2-0.6-0.4-0.8c-0.2-0.2-0.5-0.3-0.8-0.3c-0.4,0-0.8,0.2-1.1,0.5
					s-0.4,0.8-0.4,1.5c0,0.8,0.1,1.4,0.4,1.7s0.6,0.5,1.1,0.5c0.3,0,0.6-0.1,0.8-0.3c0.2-0.2,0.4-0.5,0.5-1l1.8,0.3
					c-0.2,0.8-0.5,1.4-1,1.8c-0.5,0.4-1.2,0.6-2.1,0.6c-1,0-1.8-0.3-2.4-0.9c-0.6-0.6-0.9-1.5-0.9-2.6c0-1.1,0.3-2,0.9-2.6
					s1.4-0.9,2.4-0.9c0.8,0,1.5,0.2,2,0.5S373.6,456.9,373.9,457.7z"/>
				<path class="st3" d="M379.6,462.4v-1c-0.2,0.4-0.6,0.6-1,0.9c-0.4,0.2-0.8,0.3-1.3,0.3c-0.5,0-0.9-0.1-1.2-0.3
					c-0.4-0.2-0.6-0.5-0.8-0.8c-0.2-0.4-0.2-0.9-0.2-1.5v-4.3h1.8v3.1c0,0.9,0,1.5,0.1,1.7s0.2,0.4,0.4,0.5s0.4,0.2,0.7,0.2
					c0.3,0,0.6-0.1,0.8-0.3c0.2-0.2,0.4-0.4,0.5-0.6c0.1-0.2,0.1-0.9,0.1-1.8v-2.8h1.8v6.7H379.6z"/>
				<path class="st3" d="M384.9,462.4h-1.8v-6.7h1.7v1c0.3-0.5,0.5-0.8,0.8-0.9s0.5-0.2,0.8-0.2c0.4,0,0.8,0.1,1.2,0.3l-0.6,1.6
					c-0.3-0.2-0.6-0.3-0.8-0.3c-0.2,0-0.5,0.1-0.6,0.2s-0.3,0.4-0.4,0.7s-0.1,1.1-0.1,2.3V462.4z"/>
				<path class="st3" d="M389.9,462.4h-1.8v-6.7h1.7v1c0.3-0.5,0.5-0.8,0.8-0.9s0.5-0.2,0.8-0.2c0.4,0,0.8,0.1,1.2,0.3l-0.6,1.6
					c-0.3-0.2-0.6-0.3-0.8-0.3c-0.2,0-0.5,0.1-0.6,0.2s-0.3,0.4-0.4,0.7s-0.1,1.1-0.1,2.3V462.4z"/>
				<path class="st3" d="M397.2,460.3l1.8,0.3c-0.2,0.7-0.6,1.1-1.1,1.5s-1.1,0.5-1.9,0.5c-1.2,0-2-0.4-2.6-1.1
					c-0.4-0.6-0.7-1.4-0.7-2.3c0-1.1,0.3-2,0.9-2.6s1.3-0.9,2.2-0.9c1,0,1.8,0.3,2.4,1s0.9,1.7,0.8,3h-4.5c0,0.5,0.2,0.9,0.4,1.2
					c0.3,0.3,0.6,0.4,1,0.4c0.3,0,0.5-0.1,0.7-0.2S397.1,460.6,397.2,460.3z M397.3,458.5c0-0.5-0.1-0.9-0.4-1.2s-0.6-0.4-0.9-0.4
					c-0.4,0-0.7,0.1-1,0.4s-0.4,0.7-0.4,1.2H397.3z"/>
				<path class="st3" d="M406.6,462.4h-1.8V459c0-0.7,0-1.2-0.1-1.4s-0.2-0.4-0.4-0.5c-0.2-0.1-0.4-0.2-0.6-0.2
					c-0.3,0-0.6,0.1-0.8,0.3c-0.2,0.2-0.4,0.4-0.5,0.7s-0.1,0.8-0.1,1.5v3.1h-1.8v-6.7h1.7v1c0.6-0.8,1.3-1.1,2.2-1.1
					c0.4,0,0.8,0.1,1.1,0.2s0.6,0.3,0.7,0.5c0.2,0.2,0.3,0.5,0.3,0.8s0.1,0.7,0.1,1.2V462.4z"/>
				<path class="st3" d="M411.5,455.7v1.4h-1.2v2.7c0,0.5,0,0.9,0,1s0.1,0.2,0.2,0.2c0.1,0.1,0.2,0.1,0.3,0.1c0.2,0,0.4-0.1,0.7-0.2
					l0.2,1.4c-0.4,0.2-0.9,0.3-1.4,0.3c-0.3,0-0.6-0.1-0.9-0.2c-0.3-0.1-0.4-0.2-0.6-0.4c-0.1-0.2-0.2-0.4-0.3-0.7
					c0-0.2-0.1-0.6-0.1-1.3v-2.9h-0.8v-1.4h0.8v-1.3l1.8-1v2.4H411.5z"/>
				<path class="st3" d="M412.8,462.4v-9.3h1.8v9.3H412.8z"/>
				<path class="st3" d="M415.5,455.7h1.9l1.6,4.8l1.6-4.8h1.8l-2.4,6.5l-0.4,1.2c-0.2,0.4-0.3,0.7-0.4,0.9
					c-0.1,0.2-0.3,0.4-0.5,0.5c-0.2,0.1-0.4,0.2-0.7,0.3s-0.6,0.1-0.9,0.1c-0.3,0-0.7,0-1-0.1l-0.2-1.4c0.3,0.1,0.5,0.1,0.8,0.1
					c0.4,0,0.7-0.1,0.9-0.4s0.4-0.6,0.5-0.9L415.5,455.7z"/>
				<path class="st3" d="M428.6,457.7l-1.6-0.3c0.2-0.7,0.5-1.1,0.9-1.4s1.1-0.5,2-0.5c0.8,0,1.4,0.1,1.8,0.3s0.7,0.4,0.8,0.7
					c0.2,0.3,0.2,0.8,0.2,1.6l0,2.1c0,0.6,0,1,0.1,1.3c0.1,0.3,0.2,0.6,0.3,0.9h-1.8c0-0.1-0.1-0.3-0.2-0.5c0-0.1-0.1-0.2-0.1-0.2
					c-0.3,0.3-0.6,0.5-1,0.7c-0.3,0.1-0.7,0.2-1.1,0.2c-0.7,0-1.2-0.2-1.6-0.6c-0.4-0.4-0.6-0.9-0.6-1.4c0-0.4,0.1-0.7,0.3-1
					c0.2-0.3,0.4-0.5,0.8-0.7c0.3-0.2,0.8-0.3,1.4-0.4c0.8-0.2,1.4-0.3,1.7-0.4v-0.2c0-0.3-0.1-0.6-0.3-0.7c-0.2-0.1-0.5-0.2-1-0.2
					c-0.3,0-0.6,0.1-0.7,0.2S428.7,457.4,428.6,457.7z M430.9,459.2c-0.2,0.1-0.6,0.2-1.1,0.3c-0.5,0.1-0.8,0.2-1,0.3
					c-0.2,0.2-0.3,0.4-0.3,0.6c0,0.2,0.1,0.5,0.3,0.6c0.2,0.2,0.4,0.3,0.7,0.3c0.3,0,0.6-0.1,0.9-0.3c0.2-0.2,0.4-0.4,0.4-0.6
					c0-0.2,0.1-0.4,0.1-0.9V459.2z"/>
				<path class="st3" d="M436.3,462.4l-2.7-6.7h1.9l1.3,3.4l0.4,1.1c0.1-0.3,0.2-0.5,0.2-0.6c0.1-0.2,0.1-0.4,0.2-0.6l1.3-3.4h1.8
					l-2.7,6.7H436.3z"/>
				<path class="st3" d="M443,457.7l-1.6-0.3c0.2-0.7,0.5-1.1,0.9-1.4s1.1-0.5,2-0.5c0.8,0,1.4,0.1,1.8,0.3s0.7,0.4,0.8,0.7
					c0.2,0.3,0.2,0.8,0.2,1.6l0,2.1c0,0.6,0,1,0.1,1.3c0.1,0.3,0.2,0.6,0.3,0.9h-1.8c0-0.1-0.1-0.3-0.2-0.5c0-0.1-0.1-0.2-0.1-0.2
					c-0.3,0.3-0.6,0.5-1,0.7c-0.3,0.1-0.7,0.2-1.1,0.2c-0.7,0-1.2-0.2-1.6-0.6c-0.4-0.4-0.6-0.9-0.6-1.4c0-0.4,0.1-0.7,0.3-1
					c0.2-0.3,0.4-0.5,0.8-0.7c0.3-0.2,0.8-0.3,1.4-0.4c0.8-0.2,1.4-0.3,1.7-0.4v-0.2c0-0.3-0.1-0.6-0.3-0.7c-0.2-0.1-0.5-0.2-1-0.2
					c-0.3,0-0.6,0.1-0.7,0.2S443.1,457.4,443,457.7z M445.4,459.2c-0.2,0.1-0.6,0.2-1.1,0.3c-0.5,0.1-0.8,0.2-1,0.3
					c-0.2,0.2-0.3,0.4-0.3,0.6c0,0.2,0.1,0.5,0.3,0.6c0.2,0.2,0.4,0.3,0.7,0.3c0.3,0,0.6-0.1,0.9-0.3c0.2-0.2,0.4-0.4,0.4-0.6
					c0-0.2,0.1-0.4,0.1-0.9V459.2z"/>
				<path class="st3" d="M448.9,454.8v-1.7h1.8v1.7H448.9z M448.9,462.4v-6.7h1.8v6.7H448.9z"/>
				<path class="st3" d="M452.5,462.4v-9.3h1.8v9.3H452.5z"/>
				<path class="st3" d="M457.5,457.7l-1.6-0.3c0.2-0.7,0.5-1.1,0.9-1.4s1.1-0.5,2-0.5c0.8,0,1.4,0.1,1.8,0.3s0.7,0.4,0.8,0.7
					c0.2,0.3,0.2,0.8,0.2,1.6l0,2.1c0,0.6,0,1,0.1,1.3c0.1,0.3,0.2,0.6,0.3,0.9h-1.8c0-0.1-0.1-0.3-0.2-0.5c0-0.1-0.1-0.2-0.1-0.2
					c-0.3,0.3-0.6,0.5-1,0.7c-0.3,0.1-0.7,0.2-1.1,0.2c-0.7,0-1.2-0.2-1.6-0.6c-0.4-0.4-0.6-0.9-0.6-1.4c0-0.4,0.1-0.7,0.3-1
					c0.2-0.3,0.4-0.5,0.8-0.7c0.3-0.2,0.8-0.3,1.4-0.4c0.8-0.2,1.4-0.3,1.7-0.4v-0.2c0-0.3-0.1-0.6-0.3-0.7c-0.2-0.1-0.5-0.2-1-0.2
					c-0.3,0-0.6,0.1-0.7,0.2S457.6,457.4,457.5,457.7z M459.9,459.2c-0.2,0.1-0.6,0.2-1.1,0.3c-0.5,0.1-0.8,0.2-1,0.3
					c-0.2,0.2-0.3,0.4-0.3,0.6c0,0.2,0.1,0.5,0.3,0.6c0.2,0.2,0.4,0.3,0.7,0.3c0.3,0,0.6-0.1,0.9-0.3c0.2-0.2,0.4-0.4,0.4-0.6
					c0-0.2,0.1-0.4,0.1-0.9V459.2z"/>
				<path class="st3" d="M463.3,462.4v-9.3h1.8v3.4c0.5-0.6,1.2-0.9,2-0.9c0.8,0,1.5,0.3,2,0.9c0.5,0.6,0.8,1.4,0.8,2.6
					c0,1.2-0.3,2-0.8,2.7c-0.5,0.6-1.2,0.9-2,0.9c-0.4,0-0.8-0.1-1.1-0.3c-0.4-0.2-0.7-0.5-1-0.9v1H463.3z M465.1,458.9
					c0,0.7,0.1,1.2,0.3,1.5c0.3,0.5,0.7,0.7,1.2,0.7c0.4,0,0.7-0.2,1-0.5c0.3-0.3,0.4-0.9,0.4-1.6c0-0.8-0.1-1.3-0.4-1.7
					s-0.6-0.5-1.1-0.5c-0.4,0-0.8,0.2-1.1,0.5C465.2,457.7,465.1,458.2,465.1,458.9z"/>
				<path class="st3" d="M471.3,462.4v-9.3h1.8v9.3H471.3z"/>
				<path class="st3" d="M478.8,460.3l1.8,0.3c-0.2,0.7-0.6,1.1-1.1,1.5s-1.1,0.5-1.9,0.5c-1.2,0-2-0.4-2.6-1.1
					c-0.4-0.6-0.7-1.4-0.7-2.3c0-1.1,0.3-2,0.9-2.6s1.3-0.9,2.2-0.9c1,0,1.8,0.3,2.4,1s0.9,1.7,0.8,3h-4.5c0,0.5,0.2,0.9,0.4,1.2
					c0.3,0.3,0.6,0.4,1,0.4c0.3,0,0.5-0.1,0.7-0.2S478.7,460.6,478.8,460.3z M478.9,458.5c0-0.5-0.1-0.9-0.4-1.2s-0.6-0.4-0.9-0.4
					c-0.4,0-0.7,0.1-1,0.4s-0.4,0.7-0.4,1.2H478.9z"/>
				<path class="st3" d="M482.1,462.4v-1.8h1.8v1.8H482.1z"/>
			</g>
		</g>
	</g>
</g>
</svg>
