<?xml version="1.0" encoding="utf-8"?>
<!-- Generator: Adobe Illustrator 21.0.2, SVG Export Plug-In . SVG Version: 6.00 Build 0)  -->
<svg version="1.1" id="Layer_1" xmlns="http://www.w3.org/2000/svg" xmlns:xlink="http://www.w3.org/1999/xlink" x="0px" y="0px"
	 viewBox="0 0 281 73.1" style="enable-background:new 0 0 281 73.1;" xml:space="preserve">
<style type="text/css">
	.st0{clip-path:url(#SVGID_2_);fill:#001F45;}
	.st1{fill:#001F45;}
	.st2{clip-path:url(#SVGID_4_);fill:#001F45;}
</style>
<g>
	<defs>
		<rect id="SVGID_1_" width="281" height="73.1"/>
	</defs>
	<clipPath id="SVGID_2_">
		<use xlink:href="#SVGID_1_"  style="overflow:visible;"/>
	</clipPath>
	<path class="st0" d="M28.9,58.8c0,7.9-6.5,14.3-14.4,14.3C6.5,73.1,0,66.7,0,58.8c0-12.7,14.5-37.7,14.5-37.7S28.9,46,28.9,58.8"/>
	<path class="st0" d="M43.8,24.9c0,5.2-4.3,9.4-9.6,9.4c-5.3,0-9.6-4.2-9.6-9.4c0-6.7,9.6-24.9,9.6-24.9S43.8,18,43.8,24.9"/>
</g>
<polygon class="st1" points="214.8,40.8 203.5,40.8 208.2,4.1 219.6,4.1 "/>
<path class="st1" d="M155.4,27l5.4-14l0.8,14H155.4z M162.4,40.8h11.3L169,4.1h-4.8h-3.9H156l-17.3,36.7H150l1.8-4.7h10.2
	L162.4,40.8z"/>
<polygon class="st1" points="115.8,13.2 117,4.1 107,4.1 99.2,4.1 95.6,4.1 90.9,40.8 95.6,40.8 102.2,40.8 112.3,40.8 113.4,31.7 
	103.4,31.7 104,27.2 112.3,27.2 113.4,18 105.2,18 105.8,13.2 "/>
<polygon class="st1" points="146,4.1 138.7,4.1 127.3,4.1 121.1,4.1 119.8,14 126.1,14 122.6,40.8 133.9,40.8 137.4,14 144.8,14 "/>
<polygon class="st1" points="202.9,13.5 204.1,4.1 193.7,4.1 184.7,4.1 182.4,4.1 177.6,40.8 189,40.8 190.8,27.2 201.2,27.2 
	202.4,17.7 192,17.7 192.5,13.5 "/>
<polygon class="st1" points="79.5,4.1 77.2,21.7 69,4.1 57.7,4.1 52.9,40.8 64.3,40.8 66.5,23.2 74.7,40.8 86.1,40.8 90.9,4.1 "/>
<polygon class="st1" points="257.9,4.1 252.4,4.1 250.6,4.1 242.8,25 240.5,4.1 238.3,4.1 233.3,4.1 228.3,4.1 218.3,40.8 
	229.6,40.8 234.8,19 236.9,40.8 244.6,40.8 252.4,19.2 252.4,40.8 262.4,40.8 262.4,4.1 "/>
<polygon class="st1" points="269.7,11.1 269.7,4.8 267.2,4.8 267.2,4 273.3,4 273.3,4.8 270.8,4.8 270.8,11.1 "/>
<g>
	<defs>
		<rect id="SVGID_3_" width="281" height="73.1"/>
	</defs>
	<clipPath id="SVGID_4_">
		<use xlink:href="#SVGID_3_"  style="overflow:visible;"/>
	</clipPath>
	<path class="st2" d="M274.1,11.1V4h1.4l1.7,5.1c0.2,0.5,0.3,0.8,0.3,1.1c0.1-0.3,0.2-0.6,0.4-1.1l1.7-5h1.3v7.1h-0.9v-6l-2.1,6
		h-0.9L275,5v6.1H274.1z"/>
</g>
</svg>
