<?xml version="1.0" encoding="utf-8"?>
<!-- Generator: Adobe Illustrator 21.0.2, SVG Export Plug-In . SVG Version: 6.00 Build 0)  -->
<svg version="1.1" id="Layer_1" xmlns="http://www.w3.org/2000/svg" xmlns:xlink="http://www.w3.org/1999/xlink" x="0px" y="0px"
	 viewBox="0 0 54.5 56.2" style="enable-background:new 0 0 54.5 56.2;" xml:space="preserve">
<style type="text/css">
	.st0{clip-path:url(#SVGID_2_);fill:#00B5EC;}
</style>
<title>key_figuresAsset 2icon</title>
<g>
	<defs>
		<rect id="SVGID_1_" width="54.5" height="56.2"/>
	</defs>
	<clipPath id="SVGID_2_">
		<use xlink:href="#SVGID_1_"  style="overflow:visible;"/>
	</clipPath>
	<path class="st0" d="M3.8,31.1c4.3-3.2,8.5-6.5,12.8-9.8c1.6-1.2,3.1-2.4,4.7-3.6c0.7,0.6,1.4,1.2,2.1,1.8c1.1,0.9,2,1,3.1,0.1
		c5.3-3.7,10.6-7.3,15.8-11c0.1-0.1,0.3-0.2,0.5-0.3c0,0.2,0,0.3,0,0.4c0,1.1,0.7,2,1.7,2.2c1.1,0.2,2-0.3,2.4-1.4
		c0.7-1.8,1.4-3.7,2.2-5.5c0.4-0.9,0.3-1.6,0-2.5c-0.2-0.7-0.7-1-1.4-1.1c-0.5,0-1.1-0.1-1.6-0.2c-1.6-0.2-3.3-0.4-4.9-0.5
		c-0.9-0.1-1.6,0.3-2.1,1.2c-0.4,0.7-0.2,1.6,0.3,2.3c0.5,0.6,1.2,0.7,1.9,0.9c-0.8,0.6-1.7,1.2-2.5,1.8c-4.4,3.1-8.8,6.1-13.2,9.2
		c-0.3,0.2-0.5,0.2-0.8,0c-0.6-0.6-1.3-1.1-2-1.7c-0.9-0.8-1.9-0.8-2.9-0.1c-6.3,4.8-12.5,9.5-18.8,14.3c-1,0.7-1.1,2-0.4,3
		C1.5,31.7,2.9,31.8,3.8,31.1 M54.5,54c-0.1,1.1-1.1,2.1-2.3,2.2c-0.2,0-0.3,0-0.5,0c-16.3,0-32.5,0-48.8,0c-0.9,0-1.7-0.1-2.2-0.8
		c-0.6-0.8-0.8-1.6-0.4-2.6c0.5-1,1.3-1.5,2.4-1.5c0.9,0,1.9,0,2.8,0c0.2,0,0.3,0,0.6,0v-0.6c0-2,0-4.1,0-6.1c0-1.2,0.8-2.2,2-2.5
		c1.1-0.3,2.3,0.3,2.8,1.5c0.1,0.3,0.2,0.7,0.2,1.1c0,2,0,4.1,0,6.1v0.6h4.5v-0.6c0-5.5,0-11.1,0-16.6c0-1.3,1-2.6,2.5-2.6
		c1.4,0,2.5,1.1,2.5,2.6c0,5.5,0,11.1,0,16.6v0.7h4.5v-0.6c0-3.6,0-7.3,0-10.9c0-1.2,0.8-2.2,1.9-2.5c1.1-0.2,2.2,0.3,2.7,1.4
		c0.2,0.3,0.2,0.7,0.2,1.1c0,3.6,0,7.2,0,10.8v0.7h4.5v-0.7c0-9.5,0-18.9,0-28.4c0-1,0.4-1.8,1.2-2.2c0.8-0.5,1.7-0.5,2.5,0.1
		c0.8,0.5,1.2,1.3,1.2,2.2c0,9.4,0,18.9,0,28.3c0,0.2,0,0.4,0,0.7h4.5v-0.6c0-6,0-11.9,0-17.9c0-1.2,0.8-2.2,2-2.5
		c1.1-0.2,2.3,0.4,2.7,1.5c0.1,0.3,0.2,0.7,0.2,1.1c0,5.9,0,11.9,0,17.8v0.7c0.2,0,0.4,0,0.6,0c1.1,0,2.2,0,3.2,0.1
		C53.8,51.5,54.6,52.6,54.5,54"/>
</g>
</svg>
