<?xml version="1.0" encoding="utf-8"?>
<!-- Generator: Adobe Illustrator 21.0.2, SVG Export Plug-In . SVG Version: 6.00 Build 0)  -->
<svg version="1.1" id="Layer_1" xmlns="http://www.w3.org/2000/svg" xmlns:xlink="http://www.w3.org/1999/xlink" x="0px" y="0px"
	 viewBox="0 0 280 68.7" style="enable-background:new 0 0 280 68.7;" xml:space="preserve">
<style type="text/css">
	.st0{fill:#164684;}
	.st1{fill:#00AEDA;}
	.st2{fill:#4FB747;}
	.st3{fill:#93D8EF;}
	.st4{fill:#94D8EF;}
	.st5{fill:#02AFDA;}
	.st6{fill:#06B0DB;}
	.st7{fill:#05AFDB;}
	.st8{fill:#07B0DB;}
	.st9{fill:#15B4DD;}
	.st10{fill:#04AFDB;}
	.st11{fill:#30BBE0;}
	.st12{fill:#03AFDA;}
	.st13{fill:#09B1DB;}
</style>
<g>
	<g id="XMLID_8_">
		<path id="XMLID_6_" class="st0" d="M211.3,50.2"/>
		<g id="XMLID_7_">
			<path id="XMLID_264_" class="st1" d="M245.7,34.8c0.2,0.2,0.3,0.3,0.3,0.4c0.9,5.4,4.2,9.4,7.6,13.3c4.1,4.7,4.9,10.6,1.6,15.3
				c-2.8,4.1-8.1,5.8-12.8,4.4c-4.7-1.5-7.9-5.8-8.1-10.7c-0.1-3.4,1.5-6,3.4-8.6c1.6-2.1,3.3-4.1,4.7-6.3
				C243.9,40.2,245.2,37.8,245.7,34.8z"/>
			<path id="XMLID_263_" class="st1" d="M232.9,45.6c-5.3,5.7-13.6,7.2-20.5,3.6c-0.9-0.5-1.2-1-0.9-2c2.2-6.7,6.9-10.7,13.8-12
				c0.9-0.2,1.9,0,2.8-0.1c0.7-0.1,0.9,0.4,1,1c0.4,3.2,1.7,6,3.6,8.6C233,44.9,233.1,45.2,232.9,45.6z"/>
			<path id="XMLID_262_" class="st1" d="M246.6,17.1c-0.2-7.9,4.8-14.8,12.2-16.9c1-0.3,1.5-0.1,2,0.9c3.5,6.7,2,14.8-3.6,20.3
				c-0.6,0.3-1-0.1-1.4-0.4c-2.4-1.8-5.1-2.9-8.2-3.2C247.2,17.6,246.8,17.6,246.6,17.1z"/>
			<path id="XMLID_261_" class="st1" d="M228.7,33.3c-7.9,0.2-14.6-4.7-16.9-12.1c-0.3-1.1-0.2-1.7,0.9-2.2c6.8-3.4,14.9-2,20.3,3.7
				c0.3,0.5,0,0.8-0.3,1.2c-1.8,2.5-3.1,5.2-3.4,8.3C229.1,32.6,229.1,33.1,228.7,33.3z"/>
			<path id="XMLID_260_" class="st1" d="M258.8,22.6c5.6-5.6,13.5-6.9,20.1-3.5c1,0.5,1.2,1,0.9,2.1c-2.2,7.4-8.9,12.3-16.9,12.1
				c-0.5-0.1-0.6-0.6-0.6-1c-0.3-2.9-1.4-5.5-3.1-8C258.9,23.9,258.3,23.3,258.8,22.6z"/>
			<path id="XMLID_259_" class="st1" d="M266,35.2c7,1.3,11.7,5.4,13.8,12.2c0.2,0.6,0.4,1.1-0.4,1.5c-6.3,3.7-15.7,2.8-21-3.6
				c0.3-1,1.1-1.8,1.6-2.7c1.2-1.9,1.9-4,2.1-6.1c0.1-1.1,0.5-1.5,1.6-1.4C264.6,35.2,265.3,35,266,35.2z"/>
			<path id="XMLID_258_" class="st1" d="M234.2,21.2c-6-5.7-6.6-13.9-3.7-19.9c0.6-1.2,1.2-1.5,2.5-1.1c6.8,2.4,10.7,7.2,11.8,14.3
				c0,0.1,0.1,0.2,0.1,0.2c0.1,2.7,0.1,2.6-2.5,3.2c-2.3,0.5-4.4,1.3-6.3,2.7C235.6,21.1,235.1,21.7,234.2,21.2z"/>
			<path id="XMLID_257_" class="st2" d="M237.3,35.2c0-5,2.7-8.5,6.4-9.3c4.1-0.9,8,1,9.7,4.7c1.7,3.5,0.6,7.8-2.5,10.2
				c-0.8,0.6-1.2,0.6-1.8-0.3c-1.5-2.5-2.3-5.2-2.6-8c0-0.3-0.1-0.6-0.2-0.9c-0.1-0.4-0.2-0.8-0.7-0.8c-0.4,0-0.5,0.4-0.6,0.8
				c-0.2,1-0.4,2-0.6,3c-0.4,2.2-1.5,4.2-2.6,6.2c-0.4,0.7-0.7,0.5-1.2,0.2C238.5,39.3,237.4,37,237.3,35.2z"/>
			<path id="XMLID_248_" class="st3" d="M228.7,33.3c0.4-3.8,1.6-7.2,4.1-10.1c0.1-0.1,0.1-0.3,0.2-0.5c2.2,2,3.3,4.6,4.1,7.3
				c0.1,0.4,0,0.8-0.4,1.1C234.1,32.5,231.5,33.4,228.7,33.3z"/>
			<path id="XMLID_247_" class="st3" d="M232.9,45.6c0-0.4-0.3-0.7-0.6-1c-1.7-2.3-3-4.9-3.3-7.9c-0.1-1.2-0.5-1.8-1.8-1.6
				c-0.6,0.1-1.2,0-1.8,0c2.2-0.6,4.3-0.2,6.5,0.3c1.6,0.3,3,0.9,4.4,1.7c0.5,0.3,0.9,0.6,0.7,1.2C236.2,41.1,235,43.6,232.9,45.6z"
				/>
			<path id="XMLID_246_" class="st3" d="M266,35.2c-0.8,0-1.6,0-2.3,0c-0.8-0.1-1,0.3-1.1,1c-0.3,3.3-1.7,6.2-3.7,8.8
				c-0.1,0.1-0.3,0.2-0.4,0.3c-2.3-1.9-3.2-4.6-3.9-7.4c-0.1-0.3,0-0.5,0.3-0.7C258.4,35.5,262,34.4,266,35.2z"/>
			<path id="XMLID_245_" class="st3" d="M234.2,21.2c0.8,0.2,1.2-0.5,1.7-0.8c2.3-1.7,4.8-2.7,7.6-3c1.1-0.1,1.4-0.5,1.3-1.5
				c-0.1-0.5,0-0.9,0-1.4c0.6,2.8,0,5.5-1,8c-1.5,3.7-1.2,3.1-4.5,2C237.4,23.9,235.7,22.7,234.2,21.2z"/>
			<path id="XMLID_244_" class="st4" d="M258.8,22.6c-0.1,0.4,0,0.6,0.2,0.9c2.1,2.7,3.5,5.8,3.6,9.3c0,0.2,0.2,0.4,0.3,0.6
				c-2.8,0.1-5.4-0.8-7.8-2.2c-0.5-0.2-0.5-0.6-0.4-1.1C255.4,27.2,256.6,24.6,258.8,22.6z"/>
			<path id="XMLID_243_" class="st3" d="M246.6,17.1c2.1,0.4,4.2,0.7,6.2,1.6c1.6,0.7,2.8,1.9,4.4,2.6c-2.1,2.1-4.7,3.3-7.5,4.1
				c-0.5,0.1-0.8-0.1-1-0.5C247.5,22.4,246.6,19.9,246.6,17.1z"/>
		</g>
		<g id="XMLID_9_">
			<path id="XMLID_252_" class="st1" d="M7.7,28.3C8,31.2,7.9,34.2,8.6,37c1.3,5.3,4.8,6.9,9.7,4.6c2.6-1.2,2.7-1.1,4.3,2
				c1.2,2.3-0.6,2.7-1.9,3.3c-8.3,4.1-17.2,0.3-19.5-8.6c-1.8-6.9-1.8-14,0.9-20.7C5.3,9.8,14,7.2,21.1,11.7c0.8,0.5,2.2,1,1.8,2.3
				c-0.5,1.4-1.3,2.9-2.6,3.7c-0.7,0.5-1.3-0.4-1.9-0.8c-4.5-3-8.4-1.5-9.8,3.7C7.9,23.2,7.9,25.8,7.7,28.3z"/>
			<path id="XMLID_251_" class="st1" d="M187,20c2.4,0.1,4.7,0.4,6.9,1.3c1.2,0.5,2,1.2,1.1,2.5c-0.7,1.1-0.4,3.5-2.9,2.4
				c-1.8-0.8-3.8-0.8-5.7-0.7c-1.2,0.1-2.2,0.6-2.5,1.9c-0.3,1.3,0.4,2.2,1.5,2.7c1.6,0.7,3.2,1.2,4.7,1.9c4.6,1.9,6.6,5.3,5.8,9.7
				c-0.8,4.1-4.4,6.8-9.1,6.8c-3,0-5.9-0.8-8.7-2.1c-2.6-1.2-0.7-2.9-0.4-4.3c0.4-1.8,1.6-1.1,2.6-0.6c1.9,0.8,3.7,1.6,5.8,1.6
				c1.5,0,2.8-0.5,3.2-2c0.4-1.7-0.6-2.6-2-3.2c-1.3-0.6-2.7-1.1-4.1-1.6c-4.5-1.8-6.4-4.6-5.8-8.9c0.5-3.9,3.8-6.8,8-7.2
				C186.1,20,186.5,20,187,20z"/>
			<path id="XMLID_250_" class="st1" d="M133.4,42c4.2,0,7.7,0.1,11.3,0c1.7,0,2.2,0.3,1.5,2c-1.6,3.8-1.4,3.6-5,3.2
				c-4-0.5-8.1-0.3-12.1,0c-1.1,0.1-2.8,1.1-3.3-0.3c-0.6-1.5-0.6-3.3,0.6-4.8c3.2-4.1,6.3-8.2,9.4-12.4c0.7-0.9,1.3-1.8,2.3-3.1
				c-3.4,0-6.2-0.1-9,0c-3.5,0.2-1.9-2.3-2.2-3.8c-0.4-2,0.9-1.7,2.2-1.6c4.4,0.3,8.7,0.3,13.1,0.1c1.1-0.1,2.8-0.9,3.3,0.5
				c0.5,1.5,0.6,3.3-0.5,4.9c-3,4-6.1,8-9.1,12C135.1,39.6,134.4,40.5,133.4,42z"/>
			<path id="XMLID_249_" class="st5" d="M55.5,27.2c0-5.7,0.1-10.2,0-14.7c-0.1-2.1,0.6-3,2.7-3.4c4.3-0.7,4.2-0.8,4.2,3.6
				c0,8.7,0,17.5,0,26.2c0,2.1,0.1,3.9,3,3c0.8-0.2,0.9,0.3,1.2,0.9c1.7,4.2,1,5.5-3.6,5.7c-4.6,0.2-6.6-1.4-7.2-5.9
				C55.1,37,55.7,31.5,55.5,27.2z"/>
			<path id="XMLID_20_" class="st1" d="M93.2,26.1c-1.8-5.5-7.3-7.8-12.5-5.3c-1.3,0.6-2.8,2.5-3.6-0.5c0-0.2-0.4-0.3-0.6-0.3
				c-1.8,0-3.5,0.6-5,1.6c-1.3,0.8,0.1,1.9,0.1,2.9c0,1,0.3,1.6,0.3,2.6c0,4.8,0,10,0,14c0,0-0.2,0-0.2,0c0,4.7,0,8.9,0,13
				c0,5.1,0.1,5,5,4c1.5-0.3,2.1-0.9,2.1-2.4c-0.1-2,0.1-4.1,0-6.1c-0.1-2,0.3-2.4,2.4-1.8c5.5,1.8,10.3-0.5,12-5.6
				C94.8,37,94.9,31.5,93.2,26.1z M86.6,40.3c-0.9,2.8-5,3.8-7.3,2c-0.6-0.5-0.6-1.1-0.6-1.7c0-2,0-4,0-6.1c0-1.7,0.1-3.4,0-5.1
				c-0.2-2.4,1.3-3.4,3.2-3.8c2.1-0.4,4,0,4.7,2.3C87.8,32,87.9,36.2,86.6,40.3z"/>
			<path id="XMLID_14_" class="st1" d="M172.5,30.8c-0.7-6.3-4.8-10.3-10.8-10.8c-5.8-0.4-10.3,2.9-11.8,9c-1,3.9-0.9,7.9,0.4,11.7
				c1.7,5,5.6,7.8,10.8,7.8c5.2,0,9-2.9,10.8-7.9c0.7-2,0.9-4.1,0.9-6.2C172.6,33.2,172.6,32,172.5,30.8z M164.8,40.1
				c-0.6,1.7-1.7,2.9-3.7,2.9c-2,0-3.3-1.1-3.8-2.9c-1.1-4-1.1-8,0-12c0.5-1.8,1.8-2.8,3.8-2.7c2.1,0,3.1,1.1,3.7,2.9
				c0.7,2,0.6,4,0.6,6C165.4,36.3,165.5,38.3,164.8,40.1z"/>
			<path id="XMLID_23_" class="st1" d="M48.9,27.3c-1.7-4.6-5.7-7.4-10.6-7.4c-4.9,0-8.8,2.5-10.5,7.2c-1.7,4.7-1.8,9.5,0,14.2
				c1.7,4.5,5.5,7.1,10.2,7.2c4.9,0.1,8.8-2.4,10.7-6.9c0.9-2.3,1.4-4.6,1.2-7.2C50.1,32,49.7,29.6,48.9,27.3z M41.9,40.5
				c-0.5,1.7-1.8,2.6-3.7,2.6c-1.8-0.1-3-1-3.6-2.7c-0.8-2-0.6-4.1-0.8-6.2c0.2-2,0-4.1,0.8-6c0.7-1.6,1.7-2.6,3.6-2.6
				c1.9,0,3.2,0.9,3.7,2.6C43.1,32.1,43.1,36.3,41.9,40.5z"/>
			<path id="XMLID_17_" class="st1" d="M121.2,27.7c-1.7-4.9-5.6-7.7-10.6-7.8c-5.1,0-8.9,2.6-10.8,7.5c-1.3,3.5-1.3,7.2-0.8,10.8
				c0.9,6,5.2,10,10.9,10.2c6,0.2,10.3-3.3,11.7-9.5c0.4-1.6,0.4-3.2,0.4-4.9C122.2,31.9,121.9,29.8,121.2,27.7z M114.3,40.1
				c-0.6,1.8-1.8,2.9-3.7,2.9c-2,0-3.2-1-3.7-2.9c-1.1-4-1.1-8,0-11.9c0.5-1.7,1.6-2.7,3.5-2.8c2-0.1,3.2,0.9,3.8,2.7
				c0.8,2,0.6,4.1,0.8,6.1C114.8,36.3,114.9,38.2,114.3,40.1z"/>
		</g>
		<g id="XMLID_18_">
			<path id="XMLID_242_" class="st6" d="M99.9,61.5c0-0.5,0-1,0-1.5c0-1.3-0.3-2.9,2-1.7c0.4,0.2,1.3-0.6,1.8-0.4
				c1.6,0.3,3.1,0.2,4.7,0c1.1-0.2,1.6,0.7,1.7,1.7c0.1,1.5,0,3.1,0,4.6c0,0.7-0.3,1-1,1c-0.7,0-1-0.3-1-1c0-1.2,0-2.3,0-3.5
				c0-0.6,0-1.3-0.9-1.3c-0.8,0-1.1,0.6-1.1,1.4c0,1,0,2.1,0,3.1c0,0.8-0.1,1.3-1.1,1.3c-0.9,0-0.9-0.5-0.9-1.2c0-1.2,0-2.3,0-3.5
				c0-0.6-0.2-1.1-1-1.1c-0.6,0-1,0.4-1,1.1c0,1.2,0,2.3,0,3.5c0,0.8-0.3,1.2-1.2,1.2c-0.8,0-1.1-0.4-1-1.1
				C99.9,63.2,99.9,62.4,99.9,61.5z"/>
			<path id="XMLID_237_" class="st7" d="M89.9,65.3c-0.8,0-1.6,0-2.3-0.4c-0.5-0.2-0.7-0.5-0.5-1c0.2-0.5,0.5-0.7,1-0.5
				c0.7,0.3,1.4,0.3,2.2,0.3c0.6,0,1.1-0.2,1.2-0.9c0.2-0.6-0.1-1.1-0.6-1.4c-0.7-0.4-1.5-0.7-2.3-1.1c-1.1-0.5-1.8-1.4-1.6-2.6
				c0.2-1.3,0.9-2.2,2.3-2.5c1.2-0.3,2.3-0.1,3.4,0.2c0.4,0.1,0.8,0.3,0.6,0.9c-0.2,0.5-0.5,0.9-1.1,0.6c-0.2-0.1-0.3-0.1-0.5-0.2
				c-1-0.2-2.1-0.6-2.5,0.7c-0.3,1.1,0.9,1.2,1.6,1.6c0.2,0.1,0.3,0.1,0.5,0.2c1.9,0.9,2.7,2.1,2.2,3.7C93,64.9,91.6,65.4,89.9,65.3
				z"/>
			<path id="XMLID_236_" class="st8" d="M189.3,61.7c-0.4,1,0.8,2.4-0.3,3.3c-0.8,0.7-2.1-0.2-3.2,0.2c-2,0.6-2.8-0.3-2.9-2.4
				c-0.1-1.2,0-2.3,0-3.5c0-0.9,0.5-1.3,1.3-1.4c1.1-0.1,0.8,0.8,0.9,1.4c0,1,0,2,0,2.9c0,0.7-0.1,1.6,1,1.5c1,0,1.2-0.6,1.1-1.5
				c0-1,0-2.1,0-3.1c0-0.9,0.5-1.2,1.2-1.3c1-0.1,0.9,0.6,0.9,1.2C189.4,60,189.3,60.8,189.3,61.7z"/>
			<path id="XMLID_231_" class="st9" d="M130.6,65.3c-1.4,0.1-2.1-0.6-2.1-1.8c0-2.4,0-4.9,0-7.3c0-0.9,0.4-1.2,1.2-1.2
				c1-0.1,0.9,0.6,0.9,1.2c0,1.8,0,3.5,0,5.3c0,0.9-0.5,2.1,1,2.5c0.2,0,0.4,0.7,0.3,1C131.7,65.5,131,65.2,130.6,65.3z"/>
			<path id="XMLID_226_" class="st10" d="M97.7,61.8c0,0.8,0,1.6,0,2.4c0,0.8-0.3,1.1-1.1,1.1c-0.7,0-1-0.3-1-1c0-1,0-2.1,0-3.1
				c0-0.7,0.3-1.6-0.9-1.8c-0.5-0.1-0.5-0.6-0.3-0.8c0.8-0.6,1.7-0.3,2.6-0.3c0.7,0,0.7,0.6,0.7,1C97.7,60.1,97.7,60.9,97.7,61.8z"
				/>
			<path id="XMLID_206_" class="st11" d="M98.4,55.5c-0.2,1-1.1,0.9-1.8,1.1c-0.5,0.2-1.1,0.7-1.7,0.1c-0.2-0.3-0.3-0.6,0-0.8
				c0.9-0.5,1.7-1.2,2.8-1.3C98,54.7,98.2,55.2,98.4,55.5z"/>
			<path id="XMLID_45_" class="st6" d="M181.1,61c-0.2-0.6,0.6-1.7,0.2-2.6c-0.6-1.1-1.9,0-2.9-0.4c-1.1-0.5-2.3-0.1-3,1
				c-1,1.5-1,3.1-0.2,4.7c0.6,1.2,1.7,1.5,2.9,1.2c0.5-0.1,1.1-0.4,1.2,0.6c0,0.8-0.4,1.1-1.1,1.1c-0.7,0-1.3-0.2-2-0.3
				c-0.5-0.1-0.8,0-1,0.5c-0.1,0.3-0.1,0.7,0.2,0.8c1.4,0.6,3,0.8,4.5,0.3c1.3-0.4,1.6-1.6,1.5-2.8C181.2,63.9,181.2,62.7,181.1,61z
				 M178,63.6c-1.2,0-1.3-1.1-1.3-2c0-1,0.1-2.1,1.4-2.2c1.6-0.1,1.1,1.2,1.2,1.6C179.3,62.5,179.4,63.6,178,63.6z"/>
			<path id="XMLID_42_" class="st12" d="M173.9,63.9c-0.8-2.5-1.7-4.9-2.5-7.4c-0.3-0.8-0.7-1.2-1.6-1.2c-0.8,0-1.2,0.4-1.4,1.1
				c-0.8,2.5-1.7,4.9-2.5,7.4c-0.1,0.4-0.6,1,0.1,1.2c0.6,0.2,1.3,0.3,1.8-0.4c0.2-0.3,0.3-0.6,0.3-0.8c0.1-1.1,0.7-1.3,1.7-1.4
				c1.1,0,1.6,0.4,1.8,1.4c0.1,0.7,0.4,1.5,1.5,1.3C174.1,65.4,174.2,64.8,173.9,63.9z M170.4,61.1c-0.4,0.1-0.9,0.2-1.2,0
				c-0.5-0.1-0.3-0.6-0.2-0.9c0.2-0.8,0.5-1.6,0.8-2.7c0.3,1.1,0.5,1.9,0.7,2.7C170.6,60.5,170.9,60.9,170.4,61.1z"/>
			<path id="XMLID_27_" class="st10" d="M118.2,59c-0.8-1.6-2.4-1.2-3.9-0.9c0-0.6,0.1-1.1,0-1.5c-0.1-0.6,0.6-1.7-0.9-1.7
				c-1.2,0-1.3,0.8-1.3,1.8c0,1.6,0,3.3,0,4.9c0,3.9,0,3.9,3.9,3.6c0.9-0.1,1.7-0.4,2.1-1.2C119,62.4,119.1,60.6,118.2,59z
				 M115.1,63.9c-1.5-0.1-0.5-1.6-0.9-2.3c0.2-0.9-0.4-2.3,1.1-2.3c1.3,0,1.4,1.2,1.4,2.2C116.8,62.7,116.5,64,115.1,63.9z"/>
			<path id="XMLID_36_" class="st6" d="M152.1,64.3c-0.2-1.3,0-2.4,0-3.5c0,0,0,0-0.1,0c0-2.6,0-3.2,0-4.6c0-0.5,0-1.2-0.7-1.2
				c-0.6,0-1.3,0-1.3,0.9c0,0.4,0,0.7,0,1.1c0,0.6-0.1,0.8-0.8,0.9c-3.2,0.4-4.5,2.5-3.5,5.6c0.4,1.3,1.2,1.9,2.6,1.8
				c1,0,1.9-0.5,3,0C151.6,65.5,152.2,65.2,152.1,64.3z M148.7,63.9c-1.3,0-1.3-1.2-1.3-2.2c0-1-0.1-2.4,1.5-2.4
				c1.7,0,0.9,1.5,1.2,2.2C150.1,62.7,150.2,63.9,148.7,63.9z"/>
			<path id="XMLID_39_" class="st13" d="M156.8,62.1c0.7,0,1.3,0,2,0c1.1,0,1.4-0.4,1.2-1.5c-0.3-1.9-1.5-2.9-3.4-2.8
				c-2,0.1-3.2,1.6-3.2,3.9c0,3,2.9,4.6,5.6,3.2c0.4-0.2,0.7-0.4,0.5-1c-0.2-0.5-0.5-0.6-1-0.5c-0.6,0.2-1.3,0.4-2,0.2
				c-0.6-0.2-1.1-0.5-1-1.1C155.7,61.9,156.4,62.1,156.8,62.1z M156.7,59.2c0.6-0.1,1.1,0.2,1.2,0.9c0.1,0.8-0.6,0.6-0.9,0.7
				c-0.5-0.1-1.2,0.2-1.2-0.5C155.6,59.7,156.1,59.3,156.7,59.2z"/>
			<path id="XMLID_30_" class="st7" d="M123.5,57.9c-2.1,0-3.4,1.4-3.4,3.7c0,2.4,1.2,3.8,3.5,3.7c2.2,0,3.4-1.4,3.4-3.6
				C127,59.4,125.6,57.9,123.5,57.9z M124.7,62.9c-0.2,0.7-0.7,1.3-1.4,1c-1.1-0.3-1-1.4-1-2.3c0-0.9-0.2-1.9,1-2.3
				c0.8-0.2,1.3,0.3,1.5,1c0.1,0.4,0.1,0.8,0.1,1.2C124.8,62,124.8,62.5,124.7,62.9z"/>
			<path id="XMLID_33_" class="st6" d="M136.2,57.9c-2.1,0-3.5,1.3-3.6,3.6c-0.1,2.3,1.2,3.8,3.4,3.9c2.3,0,3.5-1.3,3.5-3.7
				C139.6,59.4,138.3,57.9,136.2,57.9z M136.2,63.9c-1.3,0-1.4-1.2-1.3-2.2c0-1-0.1-2.4,1.3-2.3c1.4,0,1.1,1.3,1.2,2
				C137.4,62.6,137.5,63.9,136.2,63.9z"/>
			<path id="XMLID_48_" class="st7" d="M197.2,63.9c-0.2-1.1-0.2-2.3-0.3-3.5c-0.1-2-0.6-2.5-3.1-2.6c-0.2,0-0.8,0.1-1.4,0.2
				c-0.5,0.1-0.9,0.4-0.7,1c0.2,0.6,0.6,0.6,1,0.4c0.3-0.1,0.6-0.2,0.9-0.2c0.6,0,1.3-0.1,1.4,0.8c0,0.9-0.7,0.6-1.2,0.7
				c-0.4,0.1-0.7,0.1-1.1,0.2c-1.3,0.4-1.9,1.3-1.7,2.6c0.3,1.3,1.2,1.7,2.5,1.6c0.9,0,1.7-0.6,2.8-0.1
				C196.8,65.4,197.4,64.8,197.2,63.9z M193.8,64.1c-0.6,0-1.1-0.4-1-1c0.1-0.8,0.7-1.1,1.4-1.1c0.7,0,0.8,0.4,0.8,0.8
				C195.1,63.7,194.6,64.1,193.8,64.1z"/>
		</g>
	</g>
</g>
</svg>
