<?xml version="1.0" encoding="utf-8"?>
<!-- Generator: Adobe Illustrator 21.0.2, SVG Export Plug-In . SVG Version: 6.00 Build 0)  -->
<svg version="1.1" id="Layer_1" xmlns="http://www.w3.org/2000/svg" xmlns:xlink="http://www.w3.org/1999/xlink" x="0px" y="0px"
	 viewBox="0 0 503.5 516.8" style="enable-background:new 0 0 503.5 516.8;" xml:space="preserve">
<style type="text/css">
	.st0{fill:#AFB9C5;}
	.st1{fill:#5B7F95;}
	.st2{clip-path:url(#SVGID_2_);fill:#981D97;stroke:#FFFFFF;stroke-width:7;stroke-miterlimit:10;}
	.st3{clip-path:url(#SVGID_2_);fill:#00B5EC;stroke:#FFFFFF;stroke-width:7;stroke-miterlimit:10;}
	.st4{clip-path:url(#SVGID_2_);fill:#0072CE;stroke:#FFFFFF;stroke-width:7;stroke-miterlimit:10;}
	.st5{clip-path:url(#SVGID_2_);fill:#5B7F95;stroke:#FFFFFF;stroke-width:7;stroke-miterlimit:10;}
	.st6{clip-path:url(#SVGID_2_);fill:#E7C223;stroke:#FFFFFF;stroke-width:7;stroke-miterlimit:10;}
	.st7{fill:url(#SVGID_3_);}
	.st8{fill:url(#SVGID_4_);}
	.st9{fill:url(#SVGID_5_);}
	.st10{fill:url(#SVGID_6_);}
	.st11{fill:url(#SVGID_7_);}
	.st12{fill:url(#SVGID_8_);}
	.st13{fill:url(#SVGID_9_);}
	.st14{fill:url(#SVGID_10_);}
	.st15{fill:url(#SVGID_11_);}
	.st16{fill:url(#SVGID_12_);}
	.st17{fill:url(#SVGID_13_);}
	.st18{fill:url(#SVGID_14_);}
	.st19{fill:url(#SVGID_15_);}
	.st20{fill:url(#SVGID_16_);}
	.st21{fill:url(#SVGID_17_);}
	.st22{fill:url(#SVGID_18_);}
	.st23{fill:url(#SVGID_19_);}
	.st24{fill:url(#SVGID_20_);}
	.st25{fill:url(#SVGID_21_);}
	.st26{fill:url(#SVGID_22_);}
	.st27{fill:url(#SVGID_23_);}
	.st28{fill:url(#SVGID_24_);}
	.st29{fill:url(#SVGID_25_);}
	.st30{fill:url(#SVGID_26_);}
	.st31{fill:url(#SVGID_27_);}
	.st32{fill:url(#SVGID_28_);}
	.st33{fill:url(#SVGID_29_);}
	.st34{fill:url(#SVGID_30_);}
	.st35{fill:url(#SVGID_31_);}
	.st36{fill:url(#SVGID_32_);}
	.st37{fill:url(#SVGID_33_);}
	.st38{fill:url(#SVGID_34_);}
	.st39{fill:url(#SVGID_35_);}
	.st40{fill:url(#SVGID_36_);}
	.st41{fill:url(#SVGID_37_);}
	.st42{fill:url(#SVGID_38_);}
	.st43{fill:url(#SVGID_39_);}
	.st44{fill:url(#SVGID_40_);}
	.st45{fill:url(#SVGID_41_);}
	.st46{fill:url(#SVGID_42_);}
	.st47{fill:url(#SVGID_43_);}
	.st48{fill:url(#SVGID_44_);}
	.st49{fill:#5C7F93;}
</style>
<g>
	<g>
		<circle class="st0" cx="242.8" cy="254.3" r="193.2"/>
	</g>
	<g>
		<g>
			<path class="st1" d="M214.3,23.7v5.1H195c0.2-1.9,0.8-3.8,1.9-5.5c1-1.7,3.1-4,6.2-6.9c2.5-2.3,4-3.9,4.6-4.7
				c0.8-1.1,1.1-2.3,1.1-3.4c0-1.2-0.3-2.2-1-2.8c-0.7-0.7-1.6-1-2.7-1c-1.1,0-2.1,0.3-2.7,1c-0.7,0.7-1.1,1.8-1.2,3.4l-5.5-0.5
				c0.3-3,1.3-5.2,3.1-6.5s3.9-2,6.4-2c2.8,0,5,0.8,6.7,2.3c1.6,1.5,2.4,3.4,2.4,5.7c0,1.3-0.2,2.5-0.7,3.7
				c-0.5,1.2-1.2,2.4-2.2,3.7c-0.7,0.8-1.9,2.1-3.6,3.7c-1.7,1.6-2.8,2.6-3.3,3.2c-0.5,0.5-0.8,1-1.1,1.5H214.3z"/>
			<path class="st1" d="M227.2,0c2.8,0,4.9,1,6.5,3c1.9,2.3,2.8,6.2,2.8,11.7c0,5.4-0.9,9.3-2.8,11.7c-1.5,2-3.7,2.9-6.5,2.9
				c-2.8,0-5-1.1-6.7-3.2c-1.7-2.1-2.6-6-2.6-11.5c0-5.4,0.9-9.3,2.8-11.6C222.3,1,224.5,0,227.2,0z M227.2,4.6
				c-0.7,0-1.3,0.2-1.8,0.6c-0.5,0.4-0.9,1.2-1.2,2.3c-0.4,1.4-0.6,3.8-0.6,7.2s0.2,5.7,0.5,6.9c0.3,1.3,0.8,2.1,1.3,2.5
				c0.5,0.4,1.1,0.6,1.8,0.6s1.3-0.2,1.8-0.6c0.5-0.4,0.9-1.2,1.2-2.3c0.4-1.4,0.6-3.8,0.6-7.1s-0.2-5.7-0.5-6.9
				c-0.3-1.3-0.8-2.1-1.3-2.5C228.5,4.8,227.9,4.6,227.2,4.6z"/>
			<path class="st1" d="M254.3,28.8h-5.5V8.1c-2,1.9-4.4,3.3-7.1,4.2v-5c1.4-0.5,3-1.4,4.7-2.7s2.8-2.8,3.5-4.6h4.5V28.8z"/>
			<path class="st1" d="M267.2,13.3c-1.4-0.6-2.5-1.4-3.1-2.5s-1-2.2-1-3.4c0-2.1,0.7-3.9,2.2-5.3c1.5-1.4,3.6-2.1,6.4-2.1
				c2.7,0,4.8,0.7,6.3,2.1s2.3,3.2,2.3,5.3c0,1.3-0.3,2.5-1,3.5c-0.7,1-1.7,1.8-2.9,2.4c1.6,0.6,2.8,1.6,3.6,2.8
				c0.8,1.2,1.2,2.6,1.2,4.2c0,2.6-0.8,4.8-2.5,6.4c-1.7,1.7-3.9,2.5-6.7,2.5c-2.6,0-4.8-0.7-6.5-2.1c-2-1.6-3.1-3.8-3.1-6.6
				c0-1.5,0.4-3,1.2-4.3C264.3,15,265.5,14,267.2,13.3z M267.8,20c0,1.5,0.4,2.7,1.2,3.5c0.8,0.8,1.7,1.3,2.9,1.3
				c1.1,0,2.1-0.4,2.8-1.2s1.1-2,1.1-3.5c0-1.3-0.4-2.4-1.1-3.2c-0.8-0.8-1.7-1.2-2.9-1.2c-1.3,0-2.3,0.5-3,1.4
				C268.1,18,267.8,19,267.8,20z M268.3,7.8c0,1.1,0.3,1.9,0.9,2.6c0.6,0.6,1.4,0.9,2.5,0.9c1,0,1.9-0.3,2.5-0.9s0.9-1.5,0.9-2.6
				c0-1-0.3-1.9-0.9-2.5c-0.6-0.6-1.4-0.9-2.5-0.9c-1.1,0-1.9,0.3-2.5,0.9S268.3,6.7,268.3,7.8z"/>
		</g>
	</g>
	<g>
		<defs>
			<path id="SVGID_1_" d="M242.5,51.6c-112.7,0-204,91.3-204,204s91.3,204,204,204s204-91.3,204-204S355.1,51.6,242.5,51.6z
				 M242.5,369.6c-63,0-114-51-114-114s51-114,114-114s114,51,114,114S305.4,369.6,242.5,369.6z"/>
		</defs>
		<clipPath id="SVGID_2_">
			<use xlink:href="#SVGID_1_"  style="overflow:visible;"/>
		</clipPath>
		<polygon class="st2" points="241,255.1 74,441.1 297,478.1 		"/>
		<polygon class="st3" points="241,255.8 297,478.1 437,367.1 		"/>
		<polygon class="st4" points="240,255.1 437,369.1 462,249.1 		"/>
		<polygon class="st5" points="242,255.6 571.5,246.1 274.5,-75.9 		"/>
		<polygon class="st6" points="243,254.6 266,11.6 -20,123.6 74,440.6 		"/>
	</g>
	<g>
		<g>
			<circle class="st0" cx="238.1" cy="256.3" r="128"/>
		</g>
		<g>
			<radialGradient id="SVGID_3_" cx="298.8169" cy="199.3491" r="128.5301" gradientUnits="userSpaceOnUse">
				<stop  offset="0" style="stop-color:#FFFFFF"/>
				<stop  offset="0.5053" style="stop-color:#FDFDFE"/>
				<stop  offset="0.6873" style="stop-color:#F6F8F9"/>
				<stop  offset="0.817" style="stop-color:#EBEDF0"/>
				<stop  offset="0.9211" style="stop-color:#DADFE3"/>
				<stop  offset="1" style="stop-color:#C7CFD5"/>
			</radialGradient>
			<circle class="st7" cx="238.5" cy="256.3" r="128.5"/>
			<radialGradient id="SVGID_4_" cx="301.2139" cy="192.0132" r="149.9742" gradientUnits="userSpaceOnUse">
				<stop  offset="0" style="stop-color:#F6F7F8"/>
				<stop  offset="0.4318" style="stop-color:#F4F5F6"/>
				<stop  offset="0.6764" style="stop-color:#EBEEF0"/>
				<stop  offset="0.8736" style="stop-color:#DEE2E6"/>
				<stop  offset="1" style="stop-color:#D0D7DC"/>
			</radialGradient>
			<circle class="st8" cx="238.5" cy="256.3" r="127.2"/>
			<radialGradient id="SVGID_5_" cx="303.5478" cy="184.8428" r="172.2382" gradientUnits="userSpaceOnUse">
				<stop  offset="0" style="stop-color:#ECEFF1"/>
				<stop  offset="0.4869" style="stop-color:#E9ECEE"/>
				<stop  offset="0.8802" style="stop-color:#DFE3E7"/>
				<stop  offset="1" style="stop-color:#DADFE3"/>
			</radialGradient>
			<circle class="st9" cx="238.5" cy="256.3" r="125.9"/>
			<radialGradient id="SVGID_6_" cx="305.8186" cy="177.8379" r="195.3079" gradientUnits="userSpaceOnUse">
				<stop  offset="0" style="stop-color:#E3E7EA"/>
				<stop  offset="1" style="stop-color:#E3E7EA"/>
			</radialGradient>
			<circle class="st10" cx="238.5" cy="256.3" r="124.5"/>
			<radialGradient id="SVGID_7_" cx="308.0264" cy="170.9984" r="219.1646" gradientUnits="userSpaceOnUse">
				<stop  offset="0" style="stop-color:#DADFE3"/>
				<stop  offset="0.5245" style="stop-color:#E1E5E8"/>
				<stop  offset="1" style="stop-color:#ECEFF1"/>
			</radialGradient>
			<circle class="st11" cx="238.5" cy="256.3" r="123.2"/>
			<radialGradient id="SVGID_8_" cx="310.1711" cy="164.3244" r="243.7858" gradientUnits="userSpaceOnUse">
				<stop  offset="0" style="stop-color:#D0D7DC"/>
				<stop  offset="0.433" style="stop-color:#DEE3E6"/>
				<stop  offset="1" style="stop-color:#F6F7F8"/>
			</radialGradient>
			<circle class="st12" cx="238.5" cy="256.3" r="121.9"/>
			<radialGradient id="SVGID_9_" cx="312.2527" cy="157.8158" r="269.1454" gradientUnits="userSpaceOnUse">
				<stop  offset="0" style="stop-color:#C7CFD5"/>
				<stop  offset="1" style="stop-color:#FFFFFF"/>
			</radialGradient>
			<circle class="st13" cx="238.5" cy="256.3" r="120.6"/>
		</g>
	</g>
	<g>
		<path class="st1" d="M158.8,244.6l5.6-0.5c0.3,1.9,1,3.3,2.1,4.2s2.4,1.3,4.2,1.3c1.9,0,3.3-0.4,4.2-1.2c0.9-0.8,1.4-1.7,1.4-2.8
			c0-0.7-0.2-1.3-0.6-1.7c-0.4-0.5-1.1-0.9-2.1-1.2c-0.7-0.2-2.2-0.7-4.6-1.2c-3.1-0.8-5.3-1.7-6.5-2.8c-1.8-1.6-2.6-3.5-2.6-5.8
			c0-1.5,0.4-2.8,1.2-4.1c0.8-1.3,2-2.2,3.6-2.9c1.6-0.7,3.4-1,5.6-1c3.6,0,6.3,0.8,8.1,2.4s2.8,3.7,2.9,6.3l-5.8,0.3
			c-0.2-1.5-0.8-2.5-1.6-3.2c-0.8-0.6-2-1-3.7-1c-1.7,0-3,0.3-3.9,1c-0.6,0.4-0.9,1-0.9,1.8c0,0.7,0.3,1.3,0.9,1.7
			c0.7,0.6,2.5,1.2,5.3,1.9s4.9,1.4,6.2,2.1s2.4,1.7,3.2,2.9s1.1,2.8,1.1,4.6c0,1.6-0.5,3.2-1.4,4.6c-0.9,1.4-2.2,2.5-3.9,3.2
			c-1.7,0.7-3.7,1-6.2,1c-3.6,0-6.4-0.8-8.3-2.5C160.3,250.2,159.2,247.8,158.8,244.6z"/>
		<path class="st1" d="M191,239.5l-5-0.9c0.6-2,1.5-3.5,2.9-4.5s3.4-1.4,6.1-1.4c2.4,0,4.3,0.3,5.5,0.9c1.2,0.6,2,1.3,2.5,2.2
			s0.7,2.5,0.7,4.9l-0.1,6.4c0,1.8,0.1,3.2,0.3,4s0.5,1.8,1,2.8h-5.4c-0.1-0.4-0.3-0.9-0.5-1.6c-0.1-0.3-0.2-0.5-0.2-0.6
			c-0.9,0.9-1.9,1.6-3,2.1c-1.1,0.5-2.2,0.7-3.4,0.7c-2.1,0-3.8-0.6-5-1.7s-1.8-2.6-1.8-4.4c0-1.2,0.3-2.2,0.8-3.1
			c0.6-0.9,1.3-1.6,2.4-2.1c1-0.5,2.5-0.9,4.4-1.3c2.6-0.5,4.3-0.9,5.3-1.3v-0.5c0-1.1-0.3-1.8-0.8-2.3c-0.5-0.4-1.5-0.7-2.9-0.7
			c-1,0-1.7,0.2-2.3,0.6S191.3,238.5,191,239.5z M198.4,243.9c-0.7,0.2-1.8,0.5-3.3,0.8s-2.5,0.6-3,1c-0.7,0.5-1.1,1.2-1.1,1.9
			c0,0.8,0.3,1.4,0.9,2c0.6,0.6,1.3,0.8,2.2,0.8c1,0,1.9-0.3,2.8-1c0.7-0.5,1.1-1.1,1.3-1.8c0.1-0.5,0.2-1.4,0.2-2.7V243.9z"/>
		<path class="st1" d="M209.2,253.9v-28.6h5.5v28.6H209.2z"/>
		<path class="st1" d="M232.3,247.3l5.5,0.9c-0.7,2-1.8,3.5-3.3,4.6c-1.5,1-3.4,1.6-5.7,1.6c-3.6,0-6.3-1.2-8-3.5
			c-1.4-1.9-2.1-4.3-2.1-7.1c0-3.4,0.9-6.1,2.7-8.1s4.1-2.9,6.8-2.9c3.1,0,5.5,1,7.3,3.1c1.8,2,2.6,5.2,2.6,9.4h-13.8
			c0,1.6,0.5,2.9,1.3,3.8c0.8,0.9,1.9,1.4,3.2,1.4c0.9,0,1.6-0.2,2.2-0.7S232,248.3,232.3,247.3z M232.6,241.8
			c0-1.6-0.4-2.8-1.2-3.6s-1.7-1.2-2.9-1.2c-1.2,0-2.2,0.4-3,1.3s-1.2,2.1-1.2,3.6H232.6z"/>
		<path class="st1" d="M240.6,248l5.5-0.8c0.2,1.1,0.7,1.9,1.4,2.4c0.7,0.6,1.7,0.8,3,0.8c1.4,0,2.5-0.3,3.2-0.8
			c0.5-0.4,0.7-0.9,0.7-1.5c0-0.4-0.1-0.8-0.4-1c-0.3-0.3-0.9-0.5-1.8-0.7c-4.4-1-7.2-1.9-8.4-2.7c-1.6-1.1-2.5-2.7-2.5-4.7
			c0-1.8,0.7-3.3,2.1-4.5c1.4-1.2,3.6-1.8,6.6-1.8c2.8,0,4.9,0.5,6.3,1.4c1.4,0.9,2.3,2.3,2.9,4.1l-5.2,1c-0.2-0.8-0.6-1.4-1.3-1.9
			c-0.6-0.4-1.5-0.6-2.6-0.6c-1.4,0-2.5,0.2-3.1,0.6c-0.4,0.3-0.6,0.7-0.6,1.1c0,0.4,0.2,0.7,0.5,1c0.5,0.4,2.2,0.9,5.1,1.5
			c2.9,0.7,5,1.5,6.1,2.4c1.1,1,1.7,2.3,1.7,4.1c0,1.9-0.8,3.5-2.4,4.9c-1.6,1.4-3.9,2.1-7.1,2.1c-2.8,0-5.1-0.6-6.7-1.7
			C242.2,251.5,241.1,250,240.6,248z"/>
		<path class="st1" d="M275.6,253.9v-28.6h5.5v10.3c1.7-1.9,3.7-2.9,6-2.9c2.5,0,4.6,0.9,6.3,2.7c1.7,1.8,2.5,4.5,2.5,7.9
			c0,3.5-0.8,6.3-2.5,8.2c-1.7,1.9-3.7,2.9-6.1,2.9c-1.2,0-2.4-0.3-3.5-0.9s-2.1-1.5-3-2.6v3H275.6z M281.1,243.1
			c0,2.1,0.3,3.7,1,4.8c1,1.5,2.2,2.2,3.8,2.2c1.2,0,2.2-0.5,3.1-1.6c0.9-1,1.3-2.7,1.3-4.9c0-2.4-0.4-4.1-1.3-5.1s-2-1.6-3.3-1.6
			c-1.3,0-2.4,0.5-3.3,1.5C281.5,239.4,281.1,241,281.1,243.1z"/>
		<path class="st1" d="M297.7,233.2h5.8l5,14.7l4.8-14.7h5.7l-7.3,20l-1.3,3.6c-0.5,1.2-0.9,2.1-1.4,2.8c-0.4,0.6-0.9,1.2-1.5,1.6
			s-1.3,0.7-2.1,0.9c-0.8,0.2-1.8,0.3-2.8,0.3c-1.1,0-2.1-0.1-3.1-0.3l-0.5-4.3c0.9,0.2,1.6,0.3,2.3,0.3c1.3,0,2.2-0.4,2.8-1.1
			c0.6-0.7,1.1-1.7,1.4-2.9L297.7,233.2z"/>
		<path class="st1" d="M185.5,289.9H180v-20.7h5.1v2.9c0.9-1.4,1.7-2.3,2.4-2.8c0.7-0.4,1.5-0.7,2.4-0.7c1.2,0,2.5,0.3,3.6,1
			l-1.7,4.8c-0.9-0.6-1.8-0.9-2.6-0.9c-0.8,0-1.4,0.2-2,0.6c-0.5,0.4-1,1.2-1.3,2.3c-0.3,1.1-0.5,3.4-0.5,7V289.9z"/>
		<path class="st1" d="M207.9,283.3l5.5,0.9c-0.7,2-1.8,3.5-3.3,4.6c-1.5,1-3.4,1.6-5.7,1.6c-3.6,0-6.3-1.2-8-3.5
			c-1.4-1.9-2.1-4.3-2.1-7.1c0-3.4,0.9-6.1,2.7-8.1s4.1-2.9,6.8-2.9c3.1,0,5.5,1,7.3,3.1c1.8,2,2.6,5.2,2.6,9.4h-13.8
			c0,1.6,0.5,2.9,1.3,3.8c0.8,0.9,1.9,1.4,3.2,1.4c0.9,0,1.6-0.2,2.2-0.7S207.6,284.3,207.9,283.3z M208.2,277.8
			c0-1.6-0.4-2.8-1.2-3.6s-1.7-1.2-2.9-1.2c-1.2,0-2.2,0.4-3,1.3s-1.2,2.1-1.2,3.6H208.2z"/>
		<path class="st1" d="M217.6,291.3l6.3,0.8c0.1,0.7,0.3,1.2,0.7,1.5c0.5,0.4,1.3,0.6,2.5,0.6c1.4,0,2.5-0.2,3.2-0.6
			c0.5-0.3,0.8-0.7,1.1-1.4c0.2-0.5,0.3-1.3,0.3-2.5v-3c-1.6,2.2-3.7,3.4-6.2,3.4c-2.8,0-5-1.2-6.6-3.5c-1.3-1.9-1.9-4.2-1.9-7
			c0-3.5,0.8-6.1,2.5-8c1.7-1.8,3.8-2.8,6.2-2.8c2.6,0,4.7,1.1,6.3,3.4v-2.9h5.1v18.6c0,2.4-0.2,4.3-0.6,5.5c-0.4,1.2-1,2.2-1.7,2.9
			c-0.7,0.7-1.7,1.2-2.9,1.6c-1.2,0.4-2.8,0.6-4.6,0.6c-3.5,0-6-0.6-7.5-1.8c-1.5-1.2-2.2-2.7-2.2-4.6
			C217.6,291.8,217.6,291.5,217.6,291.3z M222.5,279.1c0,2.2,0.4,3.8,1.3,4.8c0.9,1,1.9,1.5,3.2,1.5c1.3,0,2.5-0.5,3.4-1.6
			c0.9-1,1.4-2.6,1.4-4.7c0-2.1-0.4-3.7-1.3-4.8c-0.9-1-2-1.6-3.4-1.6c-1.3,0-2.4,0.5-3.3,1.5C222.9,275.4,222.5,277,222.5,279.1z"
			/>
		<path class="st1" d="M242.5,266.4v-5.1h5.5v5.1H242.5z M242.5,289.9v-20.7h5.5v20.7H242.5z"/>
		<path class="st1" d="M252.4,279.2c0-1.8,0.4-3.6,1.3-5.3s2.2-3,3.8-3.9c1.6-0.9,3.5-1.3,5.5-1.3c3.1,0,5.7,1,7.7,3.1
			c2,2,3,4.6,3,7.7c0,3.1-1,5.7-3,7.8c-2,2.1-4.6,3.1-7.6,3.1c-1.9,0-3.7-0.4-5.4-1.3c-1.7-0.9-3-2.1-3.9-3.8
			S252.4,281.6,252.4,279.2z M258,279.5c0,2.1,0.5,3.6,1.5,4.7s2.2,1.6,3.6,1.6c1.4,0,2.6-0.5,3.6-1.6c1-1.1,1.5-2.7,1.5-4.8
			c0-2-0.5-3.6-1.5-4.7c-1-1.1-2.2-1.6-3.6-1.6c-1.4,0-2.6,0.5-3.6,1.6S258,277.5,258,279.5z"/>
		<path class="st1" d="M296.9,289.9h-5.5v-10.6c0-2.2-0.1-3.7-0.4-4.3s-0.6-1.2-1.1-1.5s-1.2-0.5-1.9-0.5c-1,0-1.8,0.3-2.6,0.8
			c-0.8,0.5-1.3,1.2-1.6,2.1c-0.3,0.9-0.4,2.4-0.4,4.8v9.4H278v-20.7h5.1v3c1.8-2.3,4.1-3.5,6.8-3.5c1.2,0,2.3,0.2,3.3,0.7
			c1,0.4,1.8,1,2.3,1.7c0.5,0.7,0.9,1.4,1.1,2.3c0.2,0.9,0.3,2.1,0.3,3.7V289.9z"/>
	</g>
	<g>
		<g>
			<circle class="st0" cx="39.9" cy="151.7" r="39.9"/>
		</g>
		<g>
			<radialGradient id="SVGID_10_" cx="58.8588" cy="133.8966" r="40.0631" gradientUnits="userSpaceOnUse">
				<stop  offset="0" style="stop-color:#FFFFFF"/>
				<stop  offset="0.5053" style="stop-color:#FDFDFE"/>
				<stop  offset="0.6873" style="stop-color:#F6F8F9"/>
				<stop  offset="0.817" style="stop-color:#EBEDF0"/>
				<stop  offset="0.9211" style="stop-color:#DADFE3"/>
				<stop  offset="1" style="stop-color:#C7CFD5"/>
			</radialGradient>
			<circle class="st14" cx="40.1" cy="151.7" r="40.1"/>
			<radialGradient id="SVGID_11_" cx="59.6059" cy="131.61" r="46.7473" gradientUnits="userSpaceOnUse">
				<stop  offset="0" style="stop-color:#F6F7F8"/>
				<stop  offset="0.4318" style="stop-color:#F4F5F6"/>
				<stop  offset="0.6764" style="stop-color:#EBEEF0"/>
				<stop  offset="0.8736" style="stop-color:#DEE2E6"/>
				<stop  offset="1" style="stop-color:#D0D7DC"/>
			</radialGradient>
			<circle class="st15" cx="40.1" cy="151.7" r="39.6"/>
			<radialGradient id="SVGID_12_" cx="60.3334" cy="129.375" r="53.6871" gradientUnits="userSpaceOnUse">
				<stop  offset="0" style="stop-color:#ECEFF1"/>
				<stop  offset="0.4869" style="stop-color:#E9ECEE"/>
				<stop  offset="0.8802" style="stop-color:#DFE3E7"/>
				<stop  offset="1" style="stop-color:#DADFE3"/>
			</radialGradient>
			<circle class="st16" cx="40.1" cy="151.7" r="39.2"/>
			<radialGradient id="SVGID_13_" cx="61.0412" cy="127.1915" r="60.8779" gradientUnits="userSpaceOnUse">
				<stop  offset="0" style="stop-color:#E3E7EA"/>
				<stop  offset="1" style="stop-color:#E3E7EA"/>
			</radialGradient>
			<circle class="st17" cx="40.1" cy="151.7" r="38.8"/>
			<radialGradient id="SVGID_14_" cx="61.7294" cy="125.0596" r="68.3141" gradientUnits="userSpaceOnUse">
				<stop  offset="0" style="stop-color:#DADFE3"/>
				<stop  offset="0.5245" style="stop-color:#E1E5E8"/>
				<stop  offset="1" style="stop-color:#ECEFF1"/>
			</radialGradient>
			<circle class="st18" cx="40.1" cy="151.7" r="38.4"/>
			<radialGradient id="SVGID_15_" cx="62.3979" cy="122.9793" r="75.9886" gradientUnits="userSpaceOnUse">
				<stop  offset="0" style="stop-color:#D0D7DC"/>
				<stop  offset="0.433" style="stop-color:#DEE3E6"/>
				<stop  offset="1" style="stop-color:#F6F7F8"/>
			</radialGradient>
			<circle class="st19" cx="40.1" cy="151.7" r="38"/>
			<radialGradient id="SVGID_16_" cx="63.0468" cy="120.9506" r="83.8933" gradientUnits="userSpaceOnUse">
				<stop  offset="0" style="stop-color:#C7CFD5"/>
				<stop  offset="1" style="stop-color:#FFFFFF"/>
			</radialGradient>
			<circle class="st20" cx="40.1" cy="151.7" r="37.6"/>
		</g>
	</g>
	<g>
		<g>
			<circle class="st0" cx="425.8" cy="119.7" r="39.9"/>
		</g>
		<g>
			<radialGradient id="SVGID_17_" cx="444.7267" cy="101.9633" r="40.0631" gradientUnits="userSpaceOnUse">
				<stop  offset="0" style="stop-color:#FFFFFF"/>
				<stop  offset="0.5053" style="stop-color:#FDFDFE"/>
				<stop  offset="0.6873" style="stop-color:#F6F8F9"/>
				<stop  offset="0.817" style="stop-color:#EBEDF0"/>
				<stop  offset="0.9211" style="stop-color:#DADFE3"/>
				<stop  offset="1" style="stop-color:#C7CFD5"/>
			</radialGradient>
			<circle class="st21" cx="425.9" cy="119.7" r="40.1"/>
			<radialGradient id="SVGID_18_" cx="445.4738" cy="99.6767" r="46.7473" gradientUnits="userSpaceOnUse">
				<stop  offset="0" style="stop-color:#F6F7F8"/>
				<stop  offset="0.4318" style="stop-color:#F4F5F6"/>
				<stop  offset="0.6764" style="stop-color:#EBEEF0"/>
				<stop  offset="0.8736" style="stop-color:#DEE2E6"/>
				<stop  offset="1" style="stop-color:#D0D7DC"/>
			</radialGradient>
			<circle class="st22" cx="425.9" cy="119.7" r="39.6"/>
			<radialGradient id="SVGID_19_" cx="446.2013" cy="97.4417" r="53.6871" gradientUnits="userSpaceOnUse">
				<stop  offset="0" style="stop-color:#ECEFF1"/>
				<stop  offset="0.4869" style="stop-color:#E9ECEE"/>
				<stop  offset="0.8802" style="stop-color:#DFE3E7"/>
				<stop  offset="1" style="stop-color:#DADFE3"/>
			</radialGradient>
			<circle class="st23" cx="425.9" cy="119.7" r="39.2"/>
			<radialGradient id="SVGID_20_" cx="446.9091" cy="95.2582" r="60.8779" gradientUnits="userSpaceOnUse">
				<stop  offset="0" style="stop-color:#E3E7EA"/>
				<stop  offset="1" style="stop-color:#E3E7EA"/>
			</radialGradient>
			<circle class="st24" cx="425.9" cy="119.7" r="38.8"/>
			<radialGradient id="SVGID_21_" cx="447.5973" cy="93.1264" r="68.3141" gradientUnits="userSpaceOnUse">
				<stop  offset="0" style="stop-color:#DADFE3"/>
				<stop  offset="0.5245" style="stop-color:#E1E5E8"/>
				<stop  offset="1" style="stop-color:#ECEFF1"/>
			</radialGradient>
			<circle class="st25" cx="425.9" cy="119.7" r="38.4"/>
			<radialGradient id="SVGID_22_" cx="448.2658" cy="91.0461" r="75.9886" gradientUnits="userSpaceOnUse">
				<stop  offset="0" style="stop-color:#D0D7DC"/>
				<stop  offset="0.433" style="stop-color:#DEE3E6"/>
				<stop  offset="1" style="stop-color:#F6F7F8"/>
			</radialGradient>
			<circle class="st26" cx="425.9" cy="119.7" r="38"/>
			<radialGradient id="SVGID_23_" cx="448.9147" cy="89.0173" r="83.8933" gradientUnits="userSpaceOnUse">
				<stop  offset="0" style="stop-color:#C7CFD5"/>
				<stop  offset="1" style="stop-color:#FFFFFF"/>
			</radialGradient>
			<circle class="st27" cx="425.9" cy="119.7" r="37.6"/>
		</g>
	</g>
	<g>
		<g>
			<circle class="st0" cx="463.3" cy="317.7" r="39.9"/>
		</g>
		<g>
			<radialGradient id="SVGID_24_" cx="482.2248" cy="299.9534" r="40.0631" gradientUnits="userSpaceOnUse">
				<stop  offset="0" style="stop-color:#FFFFFF"/>
				<stop  offset="0.5053" style="stop-color:#FDFDFE"/>
				<stop  offset="0.6873" style="stop-color:#F6F8F9"/>
				<stop  offset="0.817" style="stop-color:#EBEDF0"/>
				<stop  offset="0.9211" style="stop-color:#DADFE3"/>
				<stop  offset="1" style="stop-color:#C7CFD5"/>
			</radialGradient>
			<circle class="st28" cx="463.4" cy="317.7" r="40.1"/>
			<radialGradient id="SVGID_25_" cx="482.972" cy="297.6668" r="46.7473" gradientUnits="userSpaceOnUse">
				<stop  offset="0" style="stop-color:#F6F7F8"/>
				<stop  offset="0.4318" style="stop-color:#F4F5F6"/>
				<stop  offset="0.6764" style="stop-color:#EBEEF0"/>
				<stop  offset="0.8736" style="stop-color:#DEE2E6"/>
				<stop  offset="1" style="stop-color:#D0D7DC"/>
			</radialGradient>
			<circle class="st29" cx="463.4" cy="317.7" r="39.6"/>
			<radialGradient id="SVGID_26_" cx="483.6994" cy="295.4318" r="53.6871" gradientUnits="userSpaceOnUse">
				<stop  offset="0" style="stop-color:#ECEFF1"/>
				<stop  offset="0.4869" style="stop-color:#E9ECEE"/>
				<stop  offset="0.8802" style="stop-color:#DFE3E7"/>
				<stop  offset="1" style="stop-color:#DADFE3"/>
			</radialGradient>
			<circle class="st30" cx="463.4" cy="317.7" r="39.2"/>
			<radialGradient id="SVGID_27_" cx="484.4073" cy="293.2484" r="60.8779" gradientUnits="userSpaceOnUse">
				<stop  offset="0" style="stop-color:#E3E7EA"/>
				<stop  offset="1" style="stop-color:#E3E7EA"/>
			</radialGradient>
			<circle class="st31" cx="463.4" cy="317.7" r="38.8"/>
			<radialGradient id="SVGID_28_" cx="485.0954" cy="291.1165" r="68.3141" gradientUnits="userSpaceOnUse">
				<stop  offset="0" style="stop-color:#DADFE3"/>
				<stop  offset="0.5245" style="stop-color:#E1E5E8"/>
				<stop  offset="1" style="stop-color:#ECEFF1"/>
			</radialGradient>
			<circle class="st32" cx="463.4" cy="317.7" r="38.4"/>
			<radialGradient id="SVGID_29_" cx="485.7639" cy="289.0362" r="75.9886" gradientUnits="userSpaceOnUse">
				<stop  offset="0" style="stop-color:#D0D7DC"/>
				<stop  offset="0.433" style="stop-color:#DEE3E6"/>
				<stop  offset="1" style="stop-color:#F6F7F8"/>
			</radialGradient>
			<circle class="st33" cx="463.4" cy="317.7" r="38"/>
			<radialGradient id="SVGID_30_" cx="486.4128" cy="287.0074" r="83.8933" gradientUnits="userSpaceOnUse">
				<stop  offset="0" style="stop-color:#C7CFD5"/>
				<stop  offset="1" style="stop-color:#FFFFFF"/>
			</radialGradient>
			<circle class="st34" cx="463.4" cy="317.7" r="37.6"/>
		</g>
	</g>
	<g>
		<g>
			<circle class="st0" cx="374.8" cy="439.2" r="39.9"/>
		</g>
		<g>
			<radialGradient id="SVGID_31_" cx="393.7292" cy="421.4474" r="40.0631" gradientUnits="userSpaceOnUse">
				<stop  offset="0" style="stop-color:#FFFFFF"/>
				<stop  offset="0.5053" style="stop-color:#FDFDFE"/>
				<stop  offset="0.6873" style="stop-color:#F6F8F9"/>
				<stop  offset="0.817" style="stop-color:#EBEDF0"/>
				<stop  offset="0.9211" style="stop-color:#DADFE3"/>
				<stop  offset="1" style="stop-color:#C7CFD5"/>
			</radialGradient>
			<circle class="st35" cx="374.9" cy="439.2" r="40.1"/>
			<radialGradient id="SVGID_32_" cx="394.4764" cy="419.1608" r="46.7473" gradientUnits="userSpaceOnUse">
				<stop  offset="0" style="stop-color:#F6F7F8"/>
				<stop  offset="0.4318" style="stop-color:#F4F5F6"/>
				<stop  offset="0.6764" style="stop-color:#EBEEF0"/>
				<stop  offset="0.8736" style="stop-color:#DEE2E6"/>
				<stop  offset="1" style="stop-color:#D0D7DC"/>
			</radialGradient>
			<circle class="st36" cx="374.9" cy="439.2" r="39.6"/>
			<radialGradient id="SVGID_33_" cx="395.2039" cy="416.9257" r="53.6871" gradientUnits="userSpaceOnUse">
				<stop  offset="0" style="stop-color:#ECEFF1"/>
				<stop  offset="0.4869" style="stop-color:#E9ECEE"/>
				<stop  offset="0.8802" style="stop-color:#DFE3E7"/>
				<stop  offset="1" style="stop-color:#DADFE3"/>
			</radialGradient>
			<circle class="st37" cx="374.9" cy="439.2" r="39.2"/>
			<radialGradient id="SVGID_34_" cx="395.9117" cy="414.7423" r="60.8779" gradientUnits="userSpaceOnUse">
				<stop  offset="0" style="stop-color:#E3E7EA"/>
				<stop  offset="1" style="stop-color:#E3E7EA"/>
			</radialGradient>
			<circle class="st38" cx="374.9" cy="439.2" r="38.8"/>
			<radialGradient id="SVGID_35_" cx="396.5999" cy="412.6104" r="68.3141" gradientUnits="userSpaceOnUse">
				<stop  offset="0" style="stop-color:#DADFE3"/>
				<stop  offset="0.5245" style="stop-color:#E1E5E8"/>
				<stop  offset="1" style="stop-color:#ECEFF1"/>
			</radialGradient>
			<circle class="st39" cx="374.9" cy="439.2" r="38.4"/>
			<radialGradient id="SVGID_36_" cx="397.2684" cy="410.5301" r="75.9886" gradientUnits="userSpaceOnUse">
				<stop  offset="0" style="stop-color:#D0D7DC"/>
				<stop  offset="0.433" style="stop-color:#DEE3E6"/>
				<stop  offset="1" style="stop-color:#F6F7F8"/>
			</radialGradient>
			<circle class="st40" cx="374.9" cy="439.2" r="38"/>
			<radialGradient id="SVGID_37_" cx="397.9172" cy="408.5013" r="83.8933" gradientUnits="userSpaceOnUse">
				<stop  offset="0" style="stop-color:#C7CFD5"/>
				<stop  offset="1" style="stop-color:#FFFFFF"/>
			</radialGradient>
			<circle class="st41" cx="374.9" cy="439.2" r="37.6"/>
		</g>
	</g>
	<g>
		<g>
			<circle class="st0" cx="181.3" cy="476.7" r="39.9"/>
		</g>
		<g>
			<radialGradient id="SVGID_38_" cx="200.2389" cy="458.9455" r="40.0631" gradientUnits="userSpaceOnUse">
				<stop  offset="0" style="stop-color:#FFFFFF"/>
				<stop  offset="0.5053" style="stop-color:#FDFDFE"/>
				<stop  offset="0.6873" style="stop-color:#F6F8F9"/>
				<stop  offset="0.817" style="stop-color:#EBEDF0"/>
				<stop  offset="0.9211" style="stop-color:#DADFE3"/>
				<stop  offset="1" style="stop-color:#C7CFD5"/>
			</radialGradient>
			<circle class="st42" cx="181.4" cy="476.7" r="40.1"/>
			<radialGradient id="SVGID_39_" cx="200.9861" cy="456.6589" r="46.7473" gradientUnits="userSpaceOnUse">
				<stop  offset="0" style="stop-color:#F6F7F8"/>
				<stop  offset="0.4318" style="stop-color:#F4F5F6"/>
				<stop  offset="0.6764" style="stop-color:#EBEEF0"/>
				<stop  offset="0.8736" style="stop-color:#DEE2E6"/>
				<stop  offset="1" style="stop-color:#D0D7DC"/>
			</radialGradient>
			<circle class="st43" cx="181.4" cy="476.7" r="39.6"/>
			<radialGradient id="SVGID_40_" cx="201.7135" cy="454.4239" r="53.6871" gradientUnits="userSpaceOnUse">
				<stop  offset="0" style="stop-color:#ECEFF1"/>
				<stop  offset="0.4869" style="stop-color:#E9ECEE"/>
				<stop  offset="0.8802" style="stop-color:#DFE3E7"/>
				<stop  offset="1" style="stop-color:#DADFE3"/>
			</radialGradient>
			<circle class="st44" cx="181.4" cy="476.7" r="39.2"/>
			<radialGradient id="SVGID_41_" cx="202.4214" cy="452.2404" r="60.8779" gradientUnits="userSpaceOnUse">
				<stop  offset="0" style="stop-color:#E3E7EA"/>
				<stop  offset="1" style="stop-color:#E3E7EA"/>
			</radialGradient>
			<circle class="st45" cx="181.4" cy="476.7" r="38.8"/>
			<radialGradient id="SVGID_42_" cx="203.1095" cy="450.1085" r="68.3141" gradientUnits="userSpaceOnUse">
				<stop  offset="0" style="stop-color:#DADFE3"/>
				<stop  offset="0.5245" style="stop-color:#E1E5E8"/>
				<stop  offset="1" style="stop-color:#ECEFF1"/>
			</radialGradient>
			<circle class="st46" cx="181.4" cy="476.7" r="38.4"/>
			<radialGradient id="SVGID_43_" cx="203.778" cy="448.0282" r="75.9886" gradientUnits="userSpaceOnUse">
				<stop  offset="0" style="stop-color:#D0D7DC"/>
				<stop  offset="0.433" style="stop-color:#DEE3E6"/>
				<stop  offset="1" style="stop-color:#F6F7F8"/>
			</radialGradient>
			<circle class="st47" cx="181.4" cy="476.7" r="38"/>
			<radialGradient id="SVGID_44_" cx="204.4269" cy="445.9995" r="83.8933" gradientUnits="userSpaceOnUse">
				<stop  offset="0" style="stop-color:#C7CFD5"/>
				<stop  offset="1" style="stop-color:#FFFFFF"/>
			</radialGradient>
			<circle class="st48" cx="181.4" cy="476.7" r="37.6"/>
		</g>
	</g>
	<g>
		<g>
			<path class="st49" d="M15.3,153.4v-10.7h8v1.8h-5.8v2.4h5.4v1.8h-5.4v2.9h6v1.8H15.3z"/>
			<path class="st49" d="M30.4,153.4v-1.2c-0.3,0.4-0.7,0.7-1.1,1c-0.5,0.2-0.9,0.4-1.5,0.4c-0.5,0-1-0.1-1.4-0.3
				c-0.4-0.2-0.7-0.6-0.9-1s-0.3-1-0.3-1.7v-4.9h2.1v3.6c0,1.1,0,1.8,0.1,2c0.1,0.2,0.2,0.4,0.4,0.6c0.2,0.1,0.5,0.2,0.8,0.2
				c0.4,0,0.7-0.1,0.9-0.3c0.3-0.2,0.5-0.4,0.6-0.7c0.1-0.3,0.2-1,0.2-2.1v-3.3h2.1v7.8H30.4z"/>
			<path class="st49" d="M36.4,153.4h-2.1v-7.8h1.9v1.1c0.3-0.5,0.6-0.9,0.9-1c0.3-0.2,0.6-0.2,0.9-0.2c0.5,0,0.9,0.1,1.4,0.4
				l-0.6,1.8c-0.3-0.2-0.7-0.3-1-0.3c-0.3,0-0.5,0.1-0.7,0.2c-0.2,0.2-0.4,0.4-0.5,0.9s-0.2,1.3-0.2,2.6V153.4z"/>
			<path class="st49" d="M39.8,149.4c0-0.7,0.2-1.3,0.5-2c0.3-0.6,0.8-1.1,1.4-1.5c0.6-0.3,1.3-0.5,2.1-0.5c1.2,0,2.1,0.4,2.9,1.1
				c0.8,0.8,1.1,1.7,1.1,2.9c0,1.2-0.4,2.2-1.1,2.9c-0.8,0.8-1.7,1.2-2.9,1.2c-0.7,0-1.4-0.2-2-0.5c-0.6-0.3-1.1-0.8-1.5-1.4
				C40,151,39.8,150.3,39.8,149.4z M41.9,149.5c0,0.8,0.2,1.4,0.5,1.8s0.8,0.6,1.4,0.6s1-0.2,1.4-0.6c0.4-0.4,0.5-1,0.5-1.8
				c0-0.8-0.2-1.3-0.5-1.8c-0.4-0.4-0.8-0.6-1.4-0.6s-1,0.2-1.4,0.6S41.9,148.7,41.9,149.5z"/>
			<path class="st49" d="M49.4,145.6h1.9v1.1c0.2-0.4,0.6-0.7,1-1s0.9-0.4,1.4-0.4c0.9,0,1.7,0.4,2.3,1.1c0.6,0.7,0.9,1.7,0.9,3
				c0,1.3-0.3,2.3-1,3c-0.6,0.7-1.4,1.1-2.3,1.1c-0.4,0-0.8-0.1-1.2-0.3c-0.3-0.2-0.7-0.5-1.1-0.9v3.9h-2.1V145.6z M51.4,149.4
				c0,0.9,0.2,1.5,0.5,1.9c0.3,0.4,0.8,0.6,1.3,0.6c0.5,0,0.9-0.2,1.2-0.6c0.3-0.4,0.5-1,0.5-1.9c0-0.8-0.2-1.4-0.5-1.8
				c-0.3-0.4-0.7-0.6-1.2-0.6c-0.5,0-0.9,0.2-1.3,0.6C51.6,148,51.4,148.6,51.4,149.4z"/>
			<path class="st49" d="M63.1,150.9l2.1,0.3c-0.3,0.8-0.7,1.3-1.2,1.7c-0.6,0.4-1.3,0.6-2.1,0.6c-1.4,0-2.4-0.4-3-1.3
				c-0.5-0.7-0.8-1.6-0.8-2.7c0-1.3,0.3-2.3,1-3c0.7-0.7,1.5-1.1,2.6-1.1c1.2,0,2.1,0.4,2.7,1.1c0.7,0.8,1,1.9,1,3.5h-5.2
				c0,0.6,0.2,1.1,0.5,1.4c0.3,0.3,0.7,0.5,1.2,0.5c0.3,0,0.6-0.1,0.8-0.3S63,151.3,63.1,150.9z M63.3,148.8c0-0.6-0.2-1-0.5-1.4
				c-0.3-0.3-0.6-0.5-1.1-0.5c-0.4,0-0.8,0.2-1.1,0.5s-0.4,0.8-0.4,1.3H63.3z"/>
			<path class="st49" d="M25.6,165.5l2-0.2c0.1,0.5,0.2,0.9,0.5,1.2s0.6,0.4,1,0.4c0.4,0,0.8-0.2,1.1-0.5s0.4-0.8,0.4-1.3
				c0-0.5-0.1-0.9-0.4-1.2s-0.6-0.5-1-0.5c-0.3,0-0.6,0.1-0.9,0.2l0.2-1.7c0.6,0,1-0.1,1.3-0.4c0.3-0.3,0.4-0.6,0.4-1
				c0-0.4-0.1-0.6-0.3-0.9c-0.2-0.2-0.5-0.3-0.9-0.3c-0.4,0-0.7,0.1-0.9,0.4s-0.4,0.6-0.5,1.1l-1.9-0.3c0.1-0.6,0.3-1.2,0.6-1.6
				c0.3-0.4,0.6-0.7,1.1-0.9c0.5-0.2,1-0.3,1.6-0.3c1,0,1.8,0.3,2.4,1c0.5,0.5,0.8,1.1,0.8,1.8c0,0.9-0.5,1.7-1.5,2.3
				c0.6,0.1,1.1,0.4,1.5,0.9s0.6,1,0.6,1.7c0,0.9-0.3,1.7-1,2.4s-1.5,1-2.6,1c-1,0-1.8-0.3-2.4-0.8
				C26.1,167.2,25.7,166.4,25.6,165.5z"/>
			<path class="st49" d="M34,159.7v-1.9h7v1.5c-0.6,0.6-1.2,1.4-1.8,2.5s-1.1,2.2-1.4,3.4c-0.3,1.2-0.5,2.3-0.5,3.2h-2
				c0-1.5,0.3-3,0.9-4.5c0.6-1.5,1.4-2.9,2.3-4.1H34z"/>
			<path class="st49" d="M42.4,160.3c0-1,0.2-1.7,0.6-2.1s1-0.7,1.7-0.7c0.7,0,1.3,0.2,1.8,0.7c0.4,0.5,0.6,1.2,0.6,2.1
				c0,1-0.2,1.7-0.6,2.1s-1,0.7-1.7,0.7c-0.7,0-1.3-0.2-1.8-0.7C42.6,162,42.4,161.3,42.4,160.3z M44,160.3c0,0.7,0.1,1.2,0.2,1.4
				c0.1,0.2,0.3,0.3,0.5,0.3c0.2,0,0.4-0.1,0.5-0.3c0.2-0.2,0.2-0.7,0.2-1.4s-0.1-1.2-0.2-1.4c-0.1-0.2-0.3-0.3-0.5-0.3
				c-0.2,0-0.4,0.1-0.5,0.3C44.1,159.1,44,159.6,44,160.3z M46.3,168.8h-1.5l5.7-11.3H52L46.3,168.8z M49.6,166c0-1,0.2-1.7,0.6-2.1
				c0.4-0.5,1-0.7,1.7-0.7c0.7,0,1.3,0.2,1.7,0.7c0.4,0.5,0.6,1.2,0.6,2.1c0,1-0.2,1.7-0.6,2.1c-0.4,0.5-1,0.7-1.7,0.7
				c-0.7,0-1.3-0.2-1.8-0.7C49.8,167.7,49.6,166.9,49.6,166z M51.2,166c0,0.7,0.1,1.2,0.2,1.4c0.1,0.2,0.3,0.3,0.5,0.3
				c0.2,0,0.4-0.1,0.5-0.3c0.2-0.2,0.2-0.7,0.2-1.4s-0.1-1.2-0.2-1.4c-0.1-0.2-0.3-0.3-0.5-0.3s-0.4,0.1-0.5,0.3
				C51.3,164.8,51.2,165.3,51.2,166z"/>
		</g>
	</g>
	<g>
		<g>
			<path class="st49" d="M351.4,435.5c0-1.1,0.2-2,0.5-2.8c0.2-0.5,0.6-1,1-1.5c0.4-0.4,0.9-0.8,1.4-1c0.7-0.3,1.4-0.4,2.3-0.4
				c1.6,0,2.8,0.5,3.8,1.5c0.9,1,1.4,2.3,1.4,4.1c0,1.7-0.5,3.1-1.4,4.1c-0.9,1-2.2,1.5-3.8,1.5c-1.6,0-2.9-0.5-3.8-1.5
				C351.9,438.6,351.4,437.2,351.4,435.5z M353.6,435.4c0,1.2,0.3,2.1,0.8,2.8c0.6,0.6,1.3,0.9,2.1,0.9c0.9,0,1.6-0.3,2.1-0.9
				c0.6-0.6,0.8-1.6,0.8-2.8c0-1.2-0.3-2.1-0.8-2.8c-0.5-0.6-1.3-0.9-2.1-0.9c-0.9,0-1.6,0.3-2.2,0.9
				C353.9,433.3,353.6,434.2,353.6,435.4z"/>
			<path class="st49" d="M367.1,433v1.6h-1.4v3.1c0,0.6,0,1,0,1.1c0,0.1,0.1,0.2,0.2,0.3c0.1,0.1,0.2,0.1,0.3,0.1
				c0.2,0,0.5-0.1,0.8-0.2l0.2,1.6c-0.5,0.2-1,0.3-1.6,0.3c-0.4,0-0.7-0.1-1-0.2c-0.3-0.1-0.5-0.3-0.7-0.5c-0.1-0.2-0.2-0.5-0.3-0.8
				c0-0.2-0.1-0.7-0.1-1.4v-3.4h-0.9V433h0.9v-1.5l2.1-1.2v2.7H367.1z"/>
			<path class="st49" d="M370.5,430.1v3.9c0.7-0.8,1.5-1.2,2.4-1.2c0.5,0,0.9,0.1,1.3,0.3s0.7,0.4,0.9,0.7c0.2,0.3,0.3,0.6,0.4,0.9
				c0.1,0.3,0.1,0.8,0.1,1.5v4.6h-2.1v-4.1c0-0.8,0-1.3-0.1-1.6c-0.1-0.2-0.2-0.4-0.4-0.5c-0.2-0.1-0.4-0.2-0.7-0.2
				c-0.3,0-0.6,0.1-0.9,0.2c-0.3,0.2-0.5,0.4-0.6,0.8c-0.1,0.3-0.2,0.8-0.2,1.5v3.9h-2.1v-10.7H370.5z"/>
			<path class="st49" d="M382.2,438.3l2.1,0.3c-0.3,0.8-0.7,1.3-1.2,1.7c-0.6,0.4-1.3,0.6-2.1,0.6c-1.4,0-2.4-0.4-3-1.3
				c-0.5-0.7-0.8-1.6-0.8-2.7c0-1.3,0.3-2.3,1-3c0.7-0.7,1.5-1.1,2.6-1.1c1.2,0,2.1,0.4,2.7,1.1c0.7,0.8,1,1.9,1,3.5h-5.2
				c0,0.6,0.2,1.1,0.5,1.4c0.3,0.3,0.7,0.5,1.2,0.5c0.3,0,0.6-0.1,0.8-0.3S382.1,438.7,382.2,438.3z M382.3,436.3
				c0-0.6-0.2-1-0.5-1.4c-0.3-0.3-0.6-0.5-1.1-0.5c-0.5,0-0.8,0.2-1.1,0.5s-0.4,0.8-0.4,1.3H382.3z"/>
			<path class="st49" d="M388,440.8h-2.1V433h1.9v1.1c0.3-0.5,0.6-0.9,0.9-1c0.3-0.2,0.6-0.2,0.9-0.2c0.5,0,0.9,0.1,1.4,0.4
				l-0.6,1.8c-0.3-0.2-0.7-0.3-1-0.3c-0.3,0-0.5,0.1-0.7,0.2c-0.2,0.2-0.4,0.4-0.5,0.9c-0.1,0.4-0.2,1.3-0.2,2.6V440.8z"/>
			<path class="st49" d="M391.1,438.6l2.1-0.3c0.1,0.4,0.3,0.7,0.5,0.9c0.3,0.2,0.6,0.3,1.1,0.3c0.5,0,0.9-0.1,1.2-0.3
				c0.2-0.1,0.3-0.3,0.3-0.5c0-0.2,0-0.3-0.1-0.4c-0.1-0.1-0.3-0.2-0.7-0.3c-1.7-0.4-2.7-0.7-3.2-1c-0.6-0.4-0.9-1-0.9-1.8
				c0-0.7,0.3-1.2,0.8-1.7s1.4-0.7,2.5-0.7c1.1,0,1.9,0.2,2.4,0.5s0.9,0.9,1.1,1.5l-1.9,0.4c-0.1-0.3-0.2-0.5-0.5-0.7
				c-0.2-0.2-0.6-0.2-1-0.2c-0.5,0-0.9,0.1-1.2,0.2c-0.2,0.1-0.2,0.2-0.2,0.4c0,0.1,0.1,0.3,0.2,0.4c0.2,0.1,0.8,0.3,1.9,0.6
				c1.1,0.2,1.9,0.6,2.3,0.9c0.4,0.4,0.6,0.9,0.6,1.5c0,0.7-0.3,1.3-0.9,1.8c-0.6,0.5-1.5,0.8-2.6,0.8c-1.1,0-1.9-0.2-2.5-0.6
				C391.7,439.9,391.3,439.3,391.1,438.6z"/>
			<path class="st49" d="M365.8,455.8h-2.1v-7.8c-0.8,0.7-1.6,1.2-2.7,1.6v-1.9c0.5-0.2,1.1-0.5,1.8-1c0.6-0.5,1.1-1.1,1.3-1.7h1.7
				V455.8z"/>
			<path class="st49" d="M368.8,453l2-0.2c0.1,0.5,0.2,0.9,0.5,1.2c0.3,0.3,0.6,0.4,1,0.4c0.4,0,0.8-0.2,1.1-0.5
				c0.3-0.3,0.4-0.8,0.4-1.3c0-0.5-0.1-0.9-0.4-1.2s-0.6-0.5-1-0.5c-0.3,0-0.6,0.1-0.9,0.2l0.2-1.7c0.6,0,1-0.1,1.3-0.4
				c0.3-0.3,0.4-0.6,0.4-1c0-0.4-0.1-0.6-0.3-0.9c-0.2-0.2-0.5-0.3-0.9-0.3c-0.4,0-0.7,0.1-0.9,0.4c-0.2,0.2-0.4,0.6-0.5,1.1
				l-1.9-0.3c0.1-0.6,0.3-1.2,0.6-1.6c0.3-0.4,0.6-0.7,1.1-0.9c0.5-0.2,1-0.3,1.6-0.3c1,0,1.8,0.3,2.4,1c0.5,0.5,0.8,1.1,0.8,1.8
				c0,0.9-0.5,1.7-1.5,2.3c0.6,0.1,1.1,0.4,1.5,0.9c0.4,0.5,0.6,1,0.6,1.7c0,0.9-0.3,1.7-1,2.4s-1.5,1-2.6,1c-1,0-1.8-0.3-2.4-0.8
				C369.3,454.6,368.9,453.9,368.8,453z"/>
			<path class="st49" d="M377.3,447.7c0-1,0.2-1.7,0.6-2.1c0.4-0.5,1-0.7,1.7-0.7c0.7,0,1.3,0.2,1.8,0.7c0.4,0.5,0.6,1.2,0.6,2.1
				c0,1-0.2,1.7-0.6,2.1c-0.4,0.5-1,0.7-1.7,0.7c-0.7,0-1.3-0.2-1.8-0.7C377.5,449.4,377.3,448.7,377.3,447.7z M378.9,447.7
				c0,0.7,0.1,1.2,0.2,1.4c0.1,0.2,0.3,0.3,0.5,0.3c0.2,0,0.4-0.1,0.5-0.3c0.2-0.2,0.2-0.7,0.2-1.4s-0.1-1.2-0.2-1.4
				c-0.1-0.2-0.3-0.3-0.5-0.3c-0.2,0-0.4,0.1-0.5,0.3C378.9,446.6,378.9,447,378.9,447.7z M381.2,456.2h-1.5l5.7-11.3h1.5
				L381.2,456.2z M384.5,453.4c0-1,0.2-1.7,0.6-2.1c0.4-0.5,1-0.7,1.7-0.7c0.7,0,1.3,0.2,1.7,0.7c0.4,0.5,0.6,1.2,0.6,2.1
				c0,1-0.2,1.7-0.6,2.1c-0.4,0.5-1,0.7-1.7,0.7c-0.7,0-1.3-0.2-1.8-0.7C384.7,455.1,384.5,454.4,384.5,453.4z M386.1,453.4
				c0,0.7,0.1,1.2,0.2,1.4c0.1,0.2,0.3,0.3,0.5,0.3c0.2,0,0.4-0.1,0.5-0.3c0.2-0.2,0.2-0.7,0.2-1.4s-0.1-1.2-0.2-1.4
				c-0.1-0.2-0.3-0.3-0.5-0.3c-0.2,0-0.4,0.1-0.5,0.3C386.2,452.2,386.1,452.7,386.1,453.4z"/>
		</g>
	</g>
	<g>
		<g>
			<path class="st49" d="M439.1,319.3v-10.7h3.2l1.9,7.3l1.9-7.3h3.3v10.7h-2v-8.5l-2.1,8.5h-2.1l-2.1-8.5v8.5H439.1z"/>
			<path class="st49" d="M456.1,316.9l2.1,0.3c-0.3,0.8-0.7,1.3-1.2,1.7c-0.6,0.4-1.3,0.6-2.1,0.6c-1.4,0-2.4-0.4-3-1.3
				c-0.5-0.7-0.8-1.6-0.8-2.7c0-1.3,0.3-2.3,1-3c0.7-0.7,1.5-1.1,2.6-1.1c1.2,0,2.1,0.4,2.7,1.1c0.7,0.8,1,1.9,1,3.5h-5.2
				c0,0.6,0.2,1.1,0.5,1.4c0.3,0.3,0.7,0.5,1.2,0.5c0.3,0,0.6-0.1,0.8-0.3S456,317.2,456.1,316.9z M456.2,314.8c0-0.6-0.2-1-0.5-1.4
				s-0.6-0.5-1.1-0.5c-0.5,0-0.8,0.2-1.1,0.5c-0.3,0.3-0.4,0.8-0.4,1.3H456.2z"/>
			<path class="st49" d="M458.9,319.3l2.8-4l-2.7-3.8h2.5l1.4,2.1l1.5-2.1h2.4l-2.6,3.7l2.9,4.1h-2.5l-1.6-2.4l-1.6,2.4H458.9z"/>
			<path class="st49" d="M468.3,310.5v-1.9h2.1v1.9H468.3z M468.3,319.3v-7.8h2.1v7.8H468.3z"/>
			<path class="st49" d="M479.2,313.8l-2,0.4c-0.1-0.4-0.2-0.7-0.5-0.9c-0.2-0.2-0.6-0.3-0.9-0.3c-0.5,0-0.9,0.2-1.2,0.5
				c-0.3,0.4-0.5,0.9-0.5,1.8c0,0.9,0.2,1.6,0.5,2c0.3,0.4,0.7,0.6,1.2,0.6c0.4,0,0.7-0.1,1-0.3c0.2-0.2,0.4-0.6,0.5-1.1l2,0.3
				c-0.2,0.9-0.6,1.6-1.2,2.1c-0.6,0.5-1.4,0.7-2.4,0.7c-1.1,0-2-0.4-2.7-1.1c-0.7-0.7-1-1.7-1-3c0-1.3,0.3-2.3,1-3s1.6-1.1,2.8-1.1
				c0.9,0,1.7,0.2,2.3,0.6C478.6,312.4,479,313,479.2,313.8z"/>
			<path class="st49" d="M480.3,315.3c0-0.7,0.2-1.3,0.5-2c0.3-0.6,0.8-1.1,1.4-1.5c0.6-0.3,1.3-0.5,2.1-0.5c1.2,0,2.1,0.4,2.9,1.1
				c0.8,0.8,1.1,1.7,1.1,2.9c0,1.2-0.4,2.2-1.1,2.9c-0.8,0.8-1.7,1.2-2.9,1.2c-0.7,0-1.4-0.2-2-0.5c-0.6-0.3-1.1-0.8-1.5-1.4
				C480.5,317,480.3,316.2,480.3,315.3z M482.4,315.4c0,0.8,0.2,1.4,0.5,1.8c0.4,0.4,0.8,0.6,1.4,0.6s1-0.2,1.4-0.6
				c0.4-0.4,0.5-1,0.5-1.8c0-0.8-0.2-1.3-0.5-1.8c-0.4-0.4-0.8-0.6-1.4-0.6s-1,0.2-1.4,0.6C482.6,314.1,482.4,314.7,482.4,315.4z"/>
			<path class="st49" d="M454.3,334.3h-2.1v-7.8c-0.8,0.7-1.6,1.2-2.7,1.6v-1.9c0.5-0.2,1.1-0.5,1.8-1c0.6-0.5,1.1-1.1,1.3-1.7h1.7
				V334.3z"/>
			<path class="st49" d="M460.9,323.5c1,0,1.9,0.4,2.4,1.1c0.7,0.9,1,2.3,1,4.4c0,2-0.4,3.5-1.1,4.4c-0.6,0.7-1.4,1.1-2.4,1.1
				c-1,0-1.9-0.4-2.5-1.2c-0.6-0.8-1-2.2-1-4.3c0-2,0.4-3.5,1.1-4.4C459,323.9,459.8,323.5,460.9,323.5z M460.9,325.3
				c-0.2,0-0.5,0.1-0.7,0.2s-0.3,0.4-0.5,0.9c-0.1,0.5-0.2,1.4-0.2,2.7s0.1,2.1,0.2,2.6c0.1,0.5,0.3,0.8,0.5,0.9
				c0.2,0.2,0.4,0.2,0.7,0.2s0.5-0.1,0.7-0.2c0.2-0.2,0.3-0.4,0.5-0.9c0.1-0.5,0.2-1.4,0.2-2.7s-0.1-2.1-0.2-2.6
				c-0.1-0.5-0.3-0.8-0.5-0.9C461.3,325.3,461.1,325.3,460.9,325.3z"/>
			<path class="st49" d="M465.8,326.2c0-1,0.2-1.7,0.6-2.1c0.4-0.5,1-0.7,1.7-0.7c0.7,0,1.3,0.2,1.8,0.7c0.4,0.5,0.6,1.2,0.6,2.1
				c0,1-0.2,1.7-0.6,2.1c-0.4,0.5-1,0.7-1.7,0.7c-0.7,0-1.3-0.2-1.8-0.7C466,327.9,465.8,327.2,465.8,326.2z M467.4,326.2
				c0,0.7,0.1,1.2,0.2,1.4c0.1,0.2,0.3,0.3,0.5,0.3c0.2,0,0.4-0.1,0.5-0.3c0.2-0.2,0.2-0.7,0.2-1.4c0-0.7-0.1-1.2-0.2-1.4
				c-0.1-0.2-0.3-0.3-0.5-0.3c-0.2,0-0.4,0.1-0.5,0.3C467.4,325.1,467.4,325.5,467.4,326.2z M469.7,334.7h-1.5l5.7-11.3h1.5
				L469.7,334.7z M473,331.9c0-1,0.2-1.7,0.6-2.1c0.4-0.5,1-0.7,1.7-0.7c0.7,0,1.3,0.2,1.7,0.7c0.4,0.5,0.6,1.2,0.6,2.1
				c0,1-0.2,1.7-0.6,2.1c-0.4,0.5-1,0.7-1.7,0.7c-0.7,0-1.3-0.2-1.8-0.7C473.2,333.6,473,332.9,473,331.9z M474.6,331.9
				c0,0.7,0.1,1.2,0.2,1.4c0.1,0.2,0.3,0.3,0.5,0.3c0.2,0,0.4-0.1,0.5-0.3c0.2-0.2,0.2-0.7,0.2-1.4c0-0.7-0.1-1.2-0.2-1.4
				c-0.1-0.2-0.3-0.3-0.5-0.3c-0.2,0-0.4,0.1-0.5,0.3C474.7,330.7,474.6,331.2,474.6,331.9z"/>
		</g>
	</g>
	<g>
		<g>
			<path class="st49" d="M407,111.6v-10.7h2.1l4.4,7.2v-7.2h2v10.7h-2.2l-4.3-7v7H407z"/>
			<path class="st49" d="M417.4,107.6c0-0.7,0.2-1.3,0.5-2c0.3-0.6,0.8-1.1,1.4-1.5c0.6-0.3,1.3-0.5,2.1-0.5c1.2,0,2.1,0.4,2.9,1.1
				c0.8,0.8,1.1,1.7,1.1,2.9c0,1.2-0.4,2.2-1.1,2.9c-0.8,0.8-1.7,1.2-2.9,1.2c-0.7,0-1.4-0.2-2-0.5c-0.6-0.3-1.1-0.8-1.5-1.4
				C417.5,109.3,417.4,108.5,417.4,107.6z M419.5,107.7c0,0.8,0.2,1.4,0.5,1.8c0.4,0.4,0.8,0.6,1.4,0.6s1-0.2,1.4-0.6
				c0.4-0.4,0.5-1,0.5-1.8c0-0.8-0.2-1.3-0.5-1.8c-0.4-0.4-0.8-0.6-1.4-0.6s-1,0.2-1.4,0.6C419.7,106.4,419.5,107,419.5,107.7z"/>
			<path class="st49" d="M429,111.6h-2.1v-7.8h1.9v1.1c0.3-0.5,0.6-0.9,0.9-1c0.3-0.2,0.6-0.2,0.9-0.2c0.5,0,0.9,0.1,1.4,0.4
				l-0.6,1.8c-0.3-0.2-0.7-0.3-1-0.3c-0.3,0-0.5,0.1-0.7,0.2c-0.2,0.2-0.4,0.4-0.5,0.9c-0.1,0.4-0.2,1.3-0.2,2.6V111.6z"/>
			<path class="st49" d="M436.4,103.9v1.6H435v3.1c0,0.6,0,1,0,1.1c0,0.1,0.1,0.2,0.2,0.3c0.1,0.1,0.2,0.1,0.3,0.1
				c0.2,0,0.5-0.1,0.8-0.2l0.2,1.6c-0.5,0.2-1,0.3-1.6,0.3c-0.4,0-0.7-0.1-1-0.2c-0.3-0.1-0.5-0.3-0.7-0.5c-0.1-0.2-0.2-0.5-0.3-0.8
				c0-0.2-0.1-0.7-0.1-1.4v-3.4H432v-1.6h0.9v-1.5l2.1-1.2v2.7H436.4z"/>
			<path class="st49" d="M439.9,100.9v3.9c0.7-0.8,1.5-1.2,2.4-1.2c0.5,0,0.9,0.1,1.3,0.3s0.7,0.4,0.9,0.7c0.2,0.3,0.3,0.6,0.4,0.9
				c0.1,0.3,0.1,0.8,0.1,1.5v4.6h-2.1v-4.1c0-0.8,0-1.3-0.1-1.6c-0.1-0.2-0.2-0.4-0.4-0.5c-0.2-0.1-0.4-0.2-0.7-0.2
				c-0.3,0-0.6,0.1-0.9,0.2c-0.3,0.2-0.5,0.4-0.6,0.8c-0.1,0.3-0.2,0.8-0.2,1.5v3.9h-2.1v-10.7H439.9z"/>
			<path class="st49" d="M407.1,126.6h-2.4l-0.9-2.4h-4.3l-0.9,2.4h-2.3l4.2-10.7h2.3L407.1,126.6z M403.1,122.4l-1.5-4l-1.5,4
				H403.1z"/>
			<path class="st49" d="M408.1,118.9h1.9v1.1c0.7-0.8,1.5-1.2,2.4-1.2c0.5,0,0.9,0.1,1.3,0.3c0.4,0.2,0.7,0.5,0.9,0.9
				c0.3-0.4,0.7-0.7,1.1-0.9c0.4-0.2,0.8-0.3,1.3-0.3c0.6,0,1.1,0.1,1.5,0.3c0.4,0.2,0.7,0.6,0.9,1c0.1,0.3,0.2,0.9,0.2,1.6v5h-2.1
				v-4.4c0-0.8-0.1-1.3-0.2-1.5c-0.2-0.3-0.5-0.4-0.9-0.4c-0.3,0-0.6,0.1-0.8,0.3s-0.4,0.4-0.5,0.8c-0.1,0.3-0.2,0.9-0.2,1.6v3.7
				h-2.1v-4.3c0-0.8,0-1.2-0.1-1.5c-0.1-0.2-0.2-0.4-0.3-0.5c-0.2-0.1-0.4-0.2-0.6-0.2c-0.3,0-0.6,0.1-0.9,0.3s-0.4,0.4-0.5,0.7
				c-0.1,0.3-0.2,0.9-0.2,1.6v3.8h-2.1V118.9z"/>
			<path class="st49" d="M426.1,124.2l2.1,0.3c-0.3,0.8-0.7,1.3-1.2,1.7c-0.6,0.4-1.3,0.6-2.1,0.6c-1.4,0-2.4-0.4-3-1.3
				c-0.5-0.7-0.8-1.6-0.8-2.7c0-1.3,0.3-2.3,1-3c0.7-0.7,1.5-1.1,2.6-1.1c1.2,0,2.1,0.4,2.7,1.1c0.7,0.8,1,1.9,1,3.5h-5.2
				c0,0.6,0.2,1.1,0.5,1.4c0.3,0.3,0.7,0.5,1.2,0.5c0.3,0,0.6-0.1,0.8-0.3S426,124.5,426.1,124.2z M426.2,122.1c0-0.6-0.2-1-0.5-1.4
				c-0.3-0.3-0.6-0.5-1.1-0.5c-0.5,0-0.8,0.2-1.1,0.5s-0.4,0.8-0.4,1.3H426.2z"/>
			<path class="st49" d="M431.9,126.6h-2.1v-7.8h1.9v1.1c0.3-0.5,0.6-0.9,0.9-1c0.3-0.2,0.6-0.2,0.9-0.2c0.5,0,0.9,0.1,1.4,0.4
				l-0.6,1.8c-0.3-0.2-0.7-0.3-1-0.3c-0.3,0-0.5,0.1-0.7,0.2c-0.2,0.2-0.4,0.4-0.5,0.9c-0.1,0.4-0.2,1.3-0.2,2.6V126.6z"/>
			<path class="st49" d="M435.8,117.8v-1.9h2.1v1.9H435.8z M435.8,126.6v-7.8h2.1v7.8H435.8z"/>
			<path class="st49" d="M446.7,121.2l-2,0.4c-0.1-0.4-0.2-0.7-0.5-0.9c-0.2-0.2-0.6-0.3-0.9-0.3c-0.5,0-0.9,0.2-1.2,0.5
				c-0.3,0.4-0.5,0.9-0.5,1.8c0,0.9,0.2,1.6,0.5,2c0.3,0.4,0.7,0.6,1.2,0.6c0.4,0,0.7-0.1,1-0.3c0.2-0.2,0.4-0.6,0.5-1.1l2,0.3
				c-0.2,0.9-0.6,1.6-1.2,2.1c-0.6,0.5-1.4,0.7-2.4,0.7c-1.1,0-2-0.4-2.7-1.1c-0.7-0.7-1-1.7-1-3c0-1.3,0.3-2.3,1-3
				c0.7-0.7,1.6-1.1,2.8-1.1c0.9,0,1.7,0.2,2.3,0.6C446.1,119.7,446.5,120.3,446.7,121.2z"/>
			<path class="st49" d="M449.8,121.2l-1.9-0.3c0.2-0.8,0.6-1.3,1.1-1.7s1.3-0.5,2.3-0.5c0.9,0,1.6,0.1,2.1,0.3
				c0.4,0.2,0.8,0.5,0.9,0.8c0.2,0.3,0.3,0.9,0.3,1.8l0,2.4c0,0.7,0,1.2,0.1,1.5c0.1,0.3,0.2,0.7,0.4,1h-2c-0.1-0.1-0.1-0.3-0.2-0.6
				c0-0.1-0.1-0.2-0.1-0.2c-0.4,0.3-0.7,0.6-1.1,0.8c-0.4,0.2-0.8,0.3-1.3,0.3c-0.8,0-1.4-0.2-1.9-0.7c-0.5-0.4-0.7-1-0.7-1.6
				c0-0.4,0.1-0.8,0.3-1.2c0.2-0.3,0.5-0.6,0.9-0.8c0.4-0.2,0.9-0.3,1.6-0.5c1-0.2,1.6-0.3,2-0.5v-0.2c0-0.4-0.1-0.7-0.3-0.8
				c-0.2-0.2-0.6-0.3-1.1-0.3c-0.4,0-0.7,0.1-0.9,0.2C450.1,120.6,449.9,120.9,449.8,121.2z M452.6,122.9c-0.3,0.1-0.7,0.2-1.3,0.3
				s-0.9,0.2-1.1,0.4c-0.3,0.2-0.4,0.4-0.4,0.7c0,0.3,0.1,0.5,0.3,0.7c0.2,0.2,0.5,0.3,0.8,0.3c0.4,0,0.7-0.1,1.1-0.4
				c0.2-0.2,0.4-0.4,0.5-0.7c0.1-0.2,0.1-0.5,0.1-1V122.9z"/>
			<path class="st49" d="M418.5,139.7v1.9h-7.2c0.1-0.7,0.3-1.4,0.7-2.1c0.4-0.6,1.2-1.5,2.3-2.6c0.9-0.9,1.5-1.5,1.7-1.8
				c0.3-0.4,0.4-0.8,0.4-1.3c0-0.5-0.1-0.8-0.4-1.1c-0.2-0.2-0.6-0.4-1-0.4c-0.4,0-0.8,0.1-1,0.4s-0.4,0.7-0.4,1.3l-2.1-0.2
				c0.1-1.1,0.5-1.9,1.2-2.4s1.4-0.7,2.4-0.7c1.1,0,1.9,0.3,2.5,0.9c0.6,0.6,0.9,1.3,0.9,2.1c0,0.5-0.1,0.9-0.3,1.4
				c-0.2,0.4-0.4,0.9-0.8,1.4c-0.2,0.3-0.7,0.8-1.3,1.4c-0.6,0.6-1.1,1-1.2,1.2c-0.2,0.2-0.3,0.4-0.4,0.6H418.5z"/>
			<path class="st49" d="M423.4,130.8c1,0,1.9,0.4,2.4,1.1c0.7,0.9,1,2.3,1,4.4c0,2-0.4,3.5-1.1,4.4c-0.6,0.7-1.4,1.1-2.4,1.1
				c-1,0-1.9-0.4-2.5-1.2c-0.6-0.8-1-2.2-1-4.3c0-2,0.4-3.5,1.1-4.4C421.5,131.2,422.3,130.8,423.4,130.8z M423.4,132.6
				c-0.2,0-0.5,0.1-0.7,0.2c-0.2,0.2-0.3,0.4-0.5,0.9c-0.1,0.5-0.2,1.4-0.2,2.7s0.1,2.1,0.2,2.6c0.1,0.5,0.3,0.8,0.5,0.9
				c0.2,0.2,0.4,0.2,0.7,0.2s0.5-0.1,0.7-0.2c0.2-0.2,0.3-0.4,0.5-0.9c0.1-0.5,0.2-1.4,0.2-2.7s-0.1-2.1-0.2-2.6
				c-0.1-0.5-0.3-0.8-0.5-0.9C423.8,132.6,423.6,132.6,423.4,132.6z"/>
			<path class="st49" d="M428.3,133.5c0-1,0.2-1.7,0.6-2.1c0.4-0.5,1-0.7,1.7-0.7c0.7,0,1.3,0.2,1.8,0.7c0.4,0.5,0.6,1.2,0.6,2.1
				c0,1-0.2,1.7-0.6,2.1c-0.4,0.5-1,0.7-1.7,0.7c-0.7,0-1.3-0.2-1.8-0.7C428.5,135.2,428.3,134.5,428.3,133.5z M429.9,133.5
				c0,0.7,0.1,1.2,0.2,1.4c0.1,0.2,0.3,0.3,0.5,0.3c0.2,0,0.4-0.1,0.5-0.3c0.2-0.2,0.2-0.7,0.2-1.4s-0.1-1.2-0.2-1.4
				c-0.1-0.2-0.3-0.3-0.5-0.3c-0.2,0-0.4,0.1-0.5,0.3C429.9,132.4,429.9,132.8,429.9,133.5z M432.2,142h-1.5l5.7-11.3h1.5L432.2,142
				z M435.5,139.2c0-1,0.2-1.7,0.6-2.1c0.4-0.5,1-0.7,1.7-0.7c0.7,0,1.3,0.2,1.7,0.7c0.4,0.5,0.6,1.2,0.6,2.1c0,1-0.2,1.7-0.6,2.1
				c-0.4,0.5-1,0.7-1.7,0.7c-0.7,0-1.3-0.2-1.8-0.7C435.7,140.9,435.5,140.2,435.5,139.2z M437.1,139.2c0,0.7,0.1,1.2,0.2,1.4
				c0.1,0.2,0.3,0.3,0.5,0.3c0.2,0,0.4-0.1,0.5-0.3c0.2-0.2,0.2-0.7,0.2-1.4s-0.1-1.2-0.2-1.4c-0.1-0.2-0.3-0.3-0.5-0.3
				c-0.2,0-0.4,0.1-0.5,0.3C437.2,138,437.1,138.5,437.1,139.2z"/>
		</g>
	</g>
	<g>
		<g>
			<path class="st49" d="M160.5,464.2l2.1-0.2c0.1,0.7,0.4,1.2,0.8,1.6c0.4,0.3,0.9,0.5,1.6,0.5c0.7,0,1.2-0.1,1.6-0.4
				c0.4-0.3,0.5-0.6,0.5-1c0-0.3-0.1-0.5-0.2-0.6c-0.1-0.2-0.4-0.3-0.8-0.5c-0.3-0.1-0.8-0.2-1.7-0.5c-1.2-0.3-2-0.6-2.4-1.1
				c-0.7-0.6-1-1.3-1-2.2c0-0.5,0.2-1.1,0.5-1.5c0.3-0.5,0.8-0.8,1.3-1.1s1.3-0.4,2.1-0.4c1.3,0,2.4,0.3,3,0.9
				c0.7,0.6,1,1.4,1.1,2.4l-2.2,0.1c-0.1-0.6-0.3-0.9-0.6-1.2c-0.3-0.2-0.8-0.4-1.4-0.4c-0.6,0-1.1,0.1-1.5,0.4
				c-0.2,0.2-0.3,0.4-0.3,0.7c0,0.3,0.1,0.5,0.3,0.7c0.3,0.2,0.9,0.5,2,0.7c1.1,0.2,1.8,0.5,2.3,0.8c0.5,0.3,0.9,0.6,1.2,1.1
				c0.3,0.5,0.4,1,0.4,1.7c0,0.6-0.2,1.2-0.5,1.7s-0.8,0.9-1.5,1.2c-0.6,0.3-1.4,0.4-2.3,0.4c-1.4,0-2.4-0.3-3.1-0.9
				C161.1,466.3,160.6,465.4,160.5,464.2z"/>
			<path class="st49" d="M170.5,463.7c0-0.7,0.2-1.3,0.5-2c0.3-0.6,0.8-1.1,1.4-1.5c0.6-0.3,1.3-0.5,2.1-0.5c1.2,0,2.1,0.4,2.9,1.1
				c0.8,0.8,1.1,1.7,1.1,2.9c0,1.2-0.4,2.2-1.1,2.9c-0.8,0.8-1.7,1.2-2.9,1.2c-0.7,0-1.4-0.2-2-0.5c-0.6-0.3-1.1-0.8-1.5-1.4
				C170.7,465.3,170.5,464.6,170.5,463.7z M172.7,463.8c0,0.8,0.2,1.4,0.5,1.8s0.8,0.6,1.4,0.6s1-0.2,1.4-0.6c0.4-0.4,0.5-1,0.5-1.8
				c0-0.8-0.2-1.3-0.5-1.8c-0.4-0.4-0.8-0.6-1.4-0.6s-1,0.2-1.4,0.6S172.7,463,172.7,463.8z"/>
			<path class="st49" d="M185.3,467.7v-1.2c-0.3,0.4-0.7,0.7-1.1,1c-0.5,0.2-0.9,0.4-1.5,0.4c-0.5,0-1-0.1-1.4-0.3
				c-0.4-0.2-0.7-0.6-0.9-1s-0.3-1-0.3-1.7v-4.9h2.1v3.6c0,1.1,0,1.8,0.1,2c0.1,0.2,0.2,0.4,0.4,0.6c0.2,0.1,0.5,0.2,0.8,0.2
				c0.4,0,0.7-0.1,0.9-0.3c0.3-0.2,0.5-0.4,0.6-0.7c0.1-0.3,0.2-1,0.2-2.1v-3.3h2.1v7.8H185.3z"/>
			<path class="st49" d="M192.9,459.9v1.6h-1.4v3.1c0,0.6,0,1,0,1.1c0,0.1,0.1,0.2,0.2,0.3c0.1,0.1,0.2,0.1,0.3,0.1
				c0.2,0,0.5-0.1,0.8-0.2l0.2,1.6c-0.5,0.2-1,0.3-1.6,0.3c-0.4,0-0.7-0.1-1-0.2c-0.3-0.1-0.5-0.3-0.7-0.5c-0.1-0.2-0.2-0.5-0.3-0.8
				c0-0.2-0.1-0.7-0.1-1.4v-3.4h-0.9v-1.6h0.9v-1.5l2.1-1.2v2.7H192.9z"/>
			<path class="st49" d="M196.4,456.9v3.9c0.7-0.8,1.5-1.2,2.4-1.2c0.5,0,0.9,0.1,1.3,0.3s0.7,0.4,0.9,0.7c0.2,0.3,0.3,0.6,0.4,0.9
				c0.1,0.3,0.1,0.8,0.1,1.5v4.6h-2.1v-4.1c0-0.8,0-1.3-0.1-1.6c-0.1-0.2-0.2-0.4-0.4-0.5c-0.2-0.1-0.4-0.2-0.7-0.2
				c-0.3,0-0.6,0.1-0.9,0.2c-0.3,0.2-0.5,0.4-0.6,0.8c-0.1,0.3-0.2,0.8-0.2,1.5v3.9h-2.1v-10.7H196.4z"/>
			<path class="st49" d="M162.4,482.7H160l-0.9-2.4h-4.3l-0.9,2.4h-2.3l4.2-10.7h2.3L162.4,482.7z M158.4,478.4l-1.5-4l-1.5,4H158.4
				z"/>
			<path class="st49" d="M163.3,474.9h1.9v1.1c0.7-0.8,1.5-1.2,2.4-1.2c0.5,0,0.9,0.1,1.3,0.3s0.7,0.5,0.9,0.9
				c0.3-0.4,0.7-0.7,1.1-0.9s0.8-0.3,1.3-0.3c0.6,0,1.1,0.1,1.5,0.3c0.4,0.2,0.7,0.6,0.9,1c0.1,0.3,0.2,0.9,0.2,1.6v5h-2.1v-4.4
				c0-0.8-0.1-1.3-0.2-1.5c-0.2-0.3-0.5-0.4-0.9-0.4c-0.3,0-0.6,0.1-0.8,0.3s-0.4,0.4-0.5,0.8c-0.1,0.3-0.2,0.9-0.2,1.6v3.7H168
				v-4.3c0-0.8,0-1.2-0.1-1.5s-0.2-0.4-0.3-0.5c-0.2-0.1-0.4-0.2-0.6-0.2c-0.3,0-0.6,0.1-0.9,0.3s-0.4,0.4-0.5,0.7
				c-0.1,0.3-0.2,0.9-0.2,1.6v3.8h-2.1V474.9z"/>
			<path class="st49" d="M181.3,480.2l2.1,0.3c-0.3,0.8-0.7,1.3-1.2,1.7c-0.6,0.4-1.3,0.6-2.1,0.6c-1.4,0-2.4-0.4-3-1.3
				c-0.5-0.7-0.8-1.6-0.8-2.7c0-1.3,0.3-2.3,1-3c0.7-0.7,1.5-1.1,2.6-1.1c1.2,0,2.1,0.4,2.7,1.1c0.7,0.8,1,1.9,1,3.5h-5.2
				c0,0.6,0.2,1.1,0.5,1.4c0.3,0.3,0.7,0.5,1.2,0.5c0.3,0,0.6-0.1,0.8-0.3S181.2,480.6,181.3,480.2z M181.4,478.1
				c0-0.6-0.2-1-0.5-1.4c-0.3-0.3-0.6-0.5-1.1-0.5c-0.4,0-0.8,0.2-1.1,0.5s-0.4,0.8-0.4,1.3H181.4z"/>
			<path class="st49" d="M187.1,482.7h-2.1v-7.8h1.9v1.1c0.3-0.5,0.6-0.9,0.9-1c0.3-0.2,0.6-0.2,0.9-0.2c0.5,0,0.9,0.1,1.4,0.4
				l-0.6,1.8c-0.3-0.2-0.7-0.3-1-0.3c-0.3,0-0.5,0.1-0.7,0.2c-0.2,0.2-0.4,0.4-0.5,0.9s-0.2,1.3-0.2,2.6V482.7z"/>
			<path class="st49" d="M191,473.8v-1.9h2.1v1.9H191z M191,482.7v-7.8h2.1v7.8H191z"/>
			<path class="st49" d="M202,477.2l-2,0.4c-0.1-0.4-0.2-0.7-0.5-0.9c-0.2-0.2-0.6-0.3-0.9-0.3c-0.5,0-0.9,0.2-1.2,0.5
				c-0.3,0.4-0.5,0.9-0.5,1.8c0,0.9,0.2,1.6,0.5,2s0.7,0.6,1.2,0.6c0.4,0,0.7-0.1,1-0.3c0.2-0.2,0.4-0.6,0.5-1.1l2,0.3
				c-0.2,0.9-0.6,1.6-1.2,2.1c-0.6,0.5-1.4,0.7-2.4,0.7c-1.1,0-2-0.4-2.7-1.1c-0.7-0.7-1-1.7-1-3c0-1.3,0.3-2.3,1-3
				c0.7-0.7,1.6-1.1,2.8-1.1c0.9,0,1.7,0.2,2.3,0.6C201.3,475.7,201.7,476.4,202,477.2z"/>
			<path class="st49" d="M205.1,477.3l-1.9-0.3c0.2-0.8,0.6-1.3,1.1-1.7s1.3-0.5,2.3-0.5c0.9,0,1.6,0.1,2.1,0.3
				c0.4,0.2,0.8,0.5,0.9,0.8c0.2,0.3,0.3,0.9,0.3,1.8l0,2.4c0,0.7,0,1.2,0.1,1.5c0.1,0.3,0.2,0.7,0.4,1h-2c-0.1-0.1-0.1-0.3-0.2-0.6
				c0-0.1-0.1-0.2-0.1-0.2c-0.4,0.3-0.7,0.6-1.1,0.8c-0.4,0.2-0.8,0.3-1.3,0.3c-0.8,0-1.4-0.2-1.9-0.7c-0.5-0.4-0.7-1-0.7-1.6
				c0-0.4,0.1-0.8,0.3-1.2c0.2-0.3,0.5-0.6,0.9-0.8c0.4-0.2,0.9-0.3,1.6-0.5c1-0.2,1.6-0.3,2-0.5v-0.2c0-0.4-0.1-0.7-0.3-0.8
				c-0.2-0.2-0.6-0.3-1.1-0.3c-0.4,0-0.7,0.1-0.9,0.2C205.3,476.7,205.2,476.9,205.1,477.3z M207.8,478.9c-0.3,0.1-0.7,0.2-1.3,0.3
				s-0.9,0.2-1.1,0.4c-0.3,0.2-0.4,0.4-0.4,0.7c0,0.3,0.1,0.5,0.3,0.7c0.2,0.2,0.5,0.3,0.8,0.3c0.4,0,0.7-0.1,1.1-0.4
				c0.2-0.2,0.4-0.4,0.5-0.7c0.1-0.2,0.1-0.5,0.1-1V478.9z"/>
			<path class="st49" d="M173.8,495.8v1.9h-7.2c0.1-0.7,0.3-1.4,0.7-2.1c0.4-0.6,1.2-1.5,2.3-2.6c0.9-0.9,1.5-1.5,1.7-1.8
				c0.3-0.4,0.4-0.8,0.4-1.3c0-0.5-0.1-0.8-0.4-1.1c-0.2-0.2-0.6-0.4-1-0.4c-0.4,0-0.8,0.1-1,0.4s-0.4,0.7-0.4,1.3l-2.1-0.2
				c0.1-1.1,0.5-1.9,1.1-2.4s1.5-0.7,2.4-0.7c1.1,0,1.9,0.3,2.5,0.9c0.6,0.6,0.9,1.3,0.9,2.1c0,0.5-0.1,0.9-0.3,1.4
				c-0.2,0.4-0.4,0.9-0.8,1.4c-0.2,0.3-0.7,0.8-1.3,1.4c-0.6,0.6-1.1,1-1.2,1.2s-0.3,0.4-0.4,0.6H173.8z"/>
			<path class="st49" d="M178.6,486.9c1,0,1.9,0.4,2.4,1.1c0.7,0.9,1,2.3,1,4.4c0,2-0.4,3.5-1.1,4.4c-0.6,0.7-1.4,1.1-2.4,1.1
				c-1,0-1.9-0.4-2.5-1.2c-0.6-0.8-1-2.2-1-4.3c0-2,0.4-3.5,1.1-4.4C176.8,487.3,177.6,486.9,178.6,486.9z M178.6,488.6
				c-0.2,0-0.5,0.1-0.7,0.2c-0.2,0.2-0.3,0.4-0.5,0.9c-0.1,0.5-0.2,1.4-0.2,2.7s0.1,2.1,0.2,2.6c0.1,0.5,0.3,0.8,0.5,0.9
				s0.4,0.2,0.7,0.2s0.5-0.1,0.7-0.2c0.2-0.2,0.3-0.4,0.5-0.9c0.1-0.5,0.2-1.4,0.2-2.7s-0.1-2.1-0.2-2.6c-0.1-0.5-0.3-0.8-0.5-0.9
				C179.1,488.7,178.9,488.6,178.6,488.6z"/>
			<path class="st49" d="M183.5,489.6c0-1,0.2-1.7,0.6-2.1s1-0.7,1.7-0.7c0.7,0,1.3,0.2,1.8,0.7c0.4,0.5,0.6,1.2,0.6,2.1
				c0,1-0.2,1.7-0.6,2.1s-1,0.7-1.7,0.7c-0.7,0-1.3-0.2-1.8-0.7C183.7,491.3,183.5,490.6,183.5,489.6z M185.1,489.6
				c0,0.7,0.1,1.2,0.2,1.4c0.1,0.2,0.3,0.3,0.5,0.3c0.2,0,0.4-0.1,0.5-0.3c0.2-0.2,0.2-0.7,0.2-1.4s-0.1-1.2-0.2-1.4
				c-0.1-0.2-0.3-0.3-0.5-0.3c-0.2,0-0.4,0.1-0.5,0.3C185.2,488.4,185.1,488.9,185.1,489.6z M187.4,498.1h-1.5l5.7-11.3h1.5
				L187.4,498.1z M190.8,495.3c0-1,0.2-1.7,0.6-2.1c0.4-0.5,1-0.7,1.7-0.7c0.7,0,1.3,0.2,1.7,0.7c0.4,0.5,0.6,1.2,0.6,2.1
				c0,1-0.2,1.7-0.6,2.1c-0.4,0.5-1,0.7-1.7,0.7c-0.7,0-1.3-0.2-1.8-0.7C191,497,190.8,496.2,190.8,495.3z M192.4,495.3
				c0,0.7,0.1,1.2,0.2,1.4c0.1,0.2,0.3,0.3,0.5,0.3c0.2,0,0.4-0.1,0.5-0.3c0.2-0.2,0.2-0.7,0.2-1.4s-0.1-1.2-0.2-1.4
				c-0.1-0.2-0.3-0.3-0.5-0.3s-0.4,0.1-0.5,0.3C192.4,494.1,192.4,494.6,192.4,495.3z"/>
		</g>
	</g>
</g>
</svg>
