<?xml version="1.0" encoding="utf-8"?>
<!-- Generator: Adobe Illustrator 21.0.2, SVG Export Plug-In . SVG Version: 6.00 Build 0)  -->
<svg version="1.1" id="Layer_1" xmlns="http://www.w3.org/2000/svg" xmlns:xlink="http://www.w3.org/1999/xlink" x="0px" y="0px"
	 viewBox="0 0 63.4 52.2" style="enable-background:new 0 0 63.4 52.2;" xml:space="preserve">
<style type="text/css">
	.st0{clip-path:url(#SVGID_2_);fill:#00B5EC;}
</style>
<title>key_figuresAsset 2icon</title>
<g>
	<g>
		<defs>
			<rect id="SVGID_1_" y="0.1" width="63.4" height="52.1"/>
		</defs>
		<clipPath id="SVGID_2_">
			<use xlink:href="#SVGID_1_"  style="overflow:visible;"/>
		</clipPath>
		<path class="st0" d="M60.8,17.5c-0.2-0.7-0.9-1.1-1.5-0.9c-0.7,0.2-1,0.9-0.8,1.6s0.9,1.1,1.5,0.9C60.7,18.8,61,18.1,60.8,17.5
			 M50.9,3.7c-0.1-0.4-0.4-0.6-0.8-0.5c-0.3,0.1-0.5,0.5-0.4,0.8c0.1,0.4,0.4,0.5,0.8,0.5C50.8,4.4,51,4,50.9,3.7 M36.9,13
			c-0.1-0.4-0.6-0.7-1-0.6c-0.4,0.1-0.6,0.6-0.5,1s0.6,0.7,1,0.6C36.8,13.9,37.1,13.4,36.9,13 M63.4,15.8c-0.3,2.9-0.6,5.9-0.9,8.8
			c0,0.2-0.1,0.3-0.3,0.4c-2.9,0.9-1.5,0.5-4.5,1.4c3.6-1.2-0.1,0-0.2,0c0-0.1,0.1-0.3,0.1-0.4c0.9-2.6-2.5-3.9-1.5-6.5
			c0.1-0.2,0.1-0.4,0-0.6c-2.1-3.8-4.2-7.5-6.4-11.3c0-0.1-0.1-0.1-0.2-0.3c-0.4,0.2-0.9,0.5-1.3,0.7c-3.2,1.8-6.5,3.6-9.7,5.4
			c-0.1,0-0.1,0.1-0.2,0.1c-0.7,0.4-0.7,0.4-0.7,1.3c0.7-0.7,1.4-1.1,2.3-0.8c0.9,0.3,1.4,1,1.5,2c0.1,0,0.1,0,0.2,0
			c1.4-0.2,2.7,0.7,3.2,2.1c0.4,1.3-0.1,2.8-1.2,3.5c-0.1,0.1-0.2,0.2-0.2,0.3c0,1-0.5,1.8-1.3,2.3c0,0,0,0,0,0.1
			c0.1,0.1,0.2,0.3,0.2,0.4c0,0.2-0.3,0.2-0.4,0.2c-1.7-0.1-3.3-0.2-5-0.4c-1.7-0.2-3.4-0.6-5-1.3c-1-0.5-1.9-1-2.5-2
			c-0.8-1.3-0.8-2.7-0.4-4c0.7-2.3,2.1-4,3.8-5.4c0.1-0.1,0.3-0.1,0.4-0.1c0.5,0,0.9-0.1,1.4-0.1c0.2,0,0.4,0.1,0.6,0.1v0.1
			c1.3-0.9,2.5-1.7,3.8-2.6c2.7-1.9,5.5-3.7,8.2-5.6c0.2-0.2,0.3-0.3,0.2-0.6c-0.1-0.4-0.1-0.9,0-1.3c0.1-0.7,0.7-1.1,1.3-1.4
			c0.9-0.4,1.7-0.4,2.4,0.4c0,0,0.1,0.1,0.2,0.1c1.2,0.1,2.3,0.1,3.5,0.2c0.5,0,1,0.1,1.5,0.1S57,1.5,56.8,2
			c-0.1,0.2-0.2,0.4-0.4,0.5c-0.7,0.6-1.5,1.3-2.2,1.9c0,0,0.1,0.1,0.2,0.2c2.9,3.5,5.8,7.1,8.7,10.6C63.3,15.5,63.4,15.7,63.4,15.8
			 M10.7,47.5c-1.2,0-2.3,1-2.3,2.3s1,2.4,2.2,2.3c1.4,0,2.3-1.2,2.3-2.3C12.9,48.6,11.9,47.5,10.7,47.5 M24,47.5
			c-1.2,0-2.3,1.1-2.3,2.4c0,1.3,1,2.3,2.3,2.3c1.2,0,2.3-1.1,2.3-2.3C26.2,48.6,25.2,47.5,24,47.5 M4.9,47.2c0.1,0.7,0.2,1.3,0.3,2
			h2.1c0-0.1,0.1-0.2,0.1-0.2c0.4-1.5,1.7-2.5,3.2-2.6c1.5,0,2.8,1,3.3,2.5c0.1,0.2,0.1,0.3,0.4,0.3c2,0,4.1,0,6.1,0
			c0.1,0,0.1,0,0.2,0c0.4-1.8,1.9-2.8,3.2-2.8c1.8,0,2.9,1,3.5,2.8h2.1c0.2-1.3,0.4-2.7,0.6-4H4.6C4.7,45.8,4.8,46.5,4.9,47.2 M0,30
			h34.6v-3.5H0V30z M8.3,23.8c0.2,0.2,0.5,0.1,0.7,0c0.7-0.3,1.7,0.7,2.4,0.3c0.7-0.4,1.1-1.8,1.9-1.3c0.6,0.4,1.3,0.6,2,0.9
			c0.4,0.2,0.8-0.1,0.8-0.5c0-0.3-0.2-0.5-0.5-0.6c-1.1-0.5-2.1-0.9-3.2-1.3c-0.2-0.1-0.5,0-0.7,0c-0.3,0.1-0.6,0.3-0.9,0.4
			c-0.8,0.4-1.6,0.8-2.4,1.1C8.1,23,8,23.5,8.3,23.8 M17.1,20c0,0.6,0.4,0.8,0.8,0.7c0.6-0.2,0.4,2.2,1,2c0.2-0.1,1.2-2.7,1.3-2.6
			c0.3,0.4,0.6,0.7,1,1.1c0.2,0.3,0.6,0.3,0.8,0.1c0.2-0.2,0.3-0.6,0-0.9c-0.5-0.5-0.9-1-1.4-1.5c-0.1-0.1-0.4-0.2-0.6-0.2
			c-0.9,0.3-1.7,0.6-2.6,0.9C17.3,19.7,17.2,19.9,17.1,20 M3.3,23.4c0-0.2,0-0.4,0.3-0.5c1.1-0.5,2.1-1,3.1-1.4
			c0.4-0.2,0.6-0.4,0.6-0.9c0-1.1,2.1-0.8,2.1-1.9c0.7-0.1-0.7-1.8,0-1.9c0.5-0.1,1.1-0.2,1.6-0.3c0.2,0,0.4,0,0.5,0.1
			c0.8,0.6,1.6,1.2,2.4,1.8c0.3,0.2,0.5,0.2,0.9,0.1c1.2-0.6,2.4-1.3,3.6-1.9c0.1-0.1,0.5,0.7,0.6,0.8c1.7,0.4,3.3,0,5,0.3
			c0.2,0,0.3,0.1,0.4,0.4c0.1,0.7,0.3,1.3,0.4,2c0,0.2,0.1,0.3,0.2,0.4c0.8,0.7,1.5,1.4,2.3,2.1c0.2,0.1,0.4,0.2,0.6,0.2
			c0.6,0,1.3,0,1.9,0c0.1,0,0.3,0.1,0.3,0.2c0.3,0.8,0.6,1.5,0.9,2.3v0.1h-7.1c0,0,0,0,0-0.1c0.4-0.2,0.9-0.4,1.3-0.6
			c0.2-0.1,0.4-0.2,0.6-0.3c0.3-0.1,0.3-0.4,0.2-0.7c-0.1-0.3-0.3-0.4-0.6-0.4c-0.1,0-2.1-0.8-2.1-0.8c-0.6,0.3,0.7,1.4,0.1,1.7
			c-0.5,0.3-0.6,0.6-0.2,1.1c-0.1,0-0.2,0-0.3,0c-6.4,0-12.8,0-19.2,0c-0.3,0-0.4-0.1-0.4-0.3C3.4,24.5,3.3,23.9,3.3,23.4 M2.7,31.2
			h29.2c-0.6,4.2-1.2,8.4-1.8,12.7H4.5C3.9,39.7,3.3,35.5,2.7,31.2"/>
	</g>
</g>
</svg>
