<?xml version="1.0" encoding="utf-8"?>
<!-- Generator: Adobe Illustrator 21.0.2, SVG Export Plug-In . SVG Version: 6.00 Build 0)  -->
<svg version="1.1" id="Layer_1" xmlns="http://www.w3.org/2000/svg" xmlns:xlink="http://www.w3.org/1999/xlink" x="0px" y="0px"
	 viewBox="0 0 63.4 56.2" style="enable-background:new 0 0 63.4 56.2;" xml:space="preserve">
<style type="text/css">
	.st0{clip-path:url(#SVGID_2_);fill:#00B5EC;}
</style>
<title>key_figuresAsset 2icon</title>
<g>
	<defs>
		<rect id="SVGID_1_" width="63.4" height="56.2"/>
	</defs>
	<clipPath id="SVGID_2_">
		<use xlink:href="#SVGID_1_"  style="overflow:visible;"/>
	</clipPath>
	<path class="st0" d="M59,38.8c0-1.9-1.4-3.4-3.2-3.4H36.2c-1.8,0-3.2,1.5-3.2,3.4s1.4,3.4,3.2,3.4h19.5C57.5,42.2,59,40.7,59,38.8
		 M63.4,54.9c0,0.8-0.5,1.3-1.2,1.3c-10.3,0-20.6,0-31,0c-0.8,0-1.1-0.3-1.2-1.1c0.3-0.1,0.5-0.2,0.8-0.3c0,0,0,0,0-0.1h-0.8
		c-0.1-1.2-0.2-2.4-0.3-3.6c-0.2-2-0.3-4.1-0.5-6.1c-0.2-2-0.3-3.9-0.5-5.9c-0.2-2-0.3-4.1-0.5-6.1c-0.2-2-0.3-3.9-0.5-5.9
		c-0.1-0.9-0.1-1.7-0.2-2.6c-0.1-0.5,0.1-0.9,0.4-1.2c2.3-2.2,4.5-4.4,6.8-6.6c0.4-0.4,0.8-0.5,1.3-0.3c0.5,0.2,0.7,0.7,0.7,1.2
		c0,2.8,0,5.6,0,8.4v0.6c0.8-0.7,1.5-1.3,2.2-1.9c3.1-2.7,6.2-5.4,9.3-8.1c0.4-0.3,0.8-0.4,1.3-0.2c0.5,0.2,0.6,0.6,0.6,1.2
		c0,2.8,0,5.6,0,8.5v0.6c0.7-0.6,1.3-1.1,1.9-1.7c3.1-2.8,6.3-5.5,9.4-8.3c0.3-0.3,0.7-0.5,1.2-0.4c0.5,0.2,0.8,0.5,0.8,1.1
		c0,2,0,4,0,6C63.4,34,63.3,44.4,63.4,54.9 M27.7,54.1c-0.1-1.2-0.2-2.5-0.3-3.7c-0.2-2-0.3-4.1-0.5-6.1c-0.2-2-0.3-3.9-0.5-5.9
		c-0.2-2-0.3-4.1-0.5-6.1c-0.2-2-0.3-3.9-0.5-5.9c-0.2-2-0.3-4.1-0.5-6.1c-0.2-2-0.3-3.9-0.5-5.9C24.2,12,24,9.6,23.8,7.2
		c-0.2-2-0.3-4.1-0.5-6.1C23.2,0.4,22.8,0,22,0c-2.1,0-4.3,0-6.4,0c-0.8,0-1.2,0.4-1.3,1.2C14.2,3.1,14,5.1,13.9,7
		c-0.2,2-0.3,4-0.5,5.9c-0.2,2-0.3,4-0.5,6c0,0.2,0,0.4-0.1,0.6c0.1,1.4,0.2,2.7,0.3,4.1c0.1,1.5,0.2,3.1,0.4,4.6
		c0.1,1.6,0.3,3.2,0.4,4.7c0.1,1.5,0.3,3.1,0.4,4.6c0.1,1.6,0.3,3.2,0.4,4.7c0.1,1.5,0.3,3.1,0.4,4.6c0.1,1.6,0.3,3.2,0.4,4.8
		c0.1,1,0.2,1.9,0.2,2.9c0,0.2,0,0.3,0.1,0.5c0.1,0.7-0.2,1.1-0.9,1.1c-0.6,0-1.3,0-1.9,0c2,0,3.9,0,5.9,0c2.6,0,5.2,0,7.8,0
		c0.8,0,1.3-0.6,1.2-1.4C27.7,54.5,27.7,54.3,27.7,54.1 M13,56.2c-2,0-4,0-6,0c-2,0-4,0-6,0c-0.6,0-1-0.4-0.9-1
		c0.1-1.5,0.2-3,0.4-4.5c0.1-1.6,0.3-3.2,0.4-4.7c0.1-1.6,0.3-3.1,0.4-4.7c0.1-1.5,0.3-3.1,0.4-4.6c0.1-1.6,0.3-3.2,0.4-4.8
		c0.1-1.5,0.2-3.1,0.4-4.6c0.1-1.6,0.3-3.1,0.4-4.7C2.8,21,3,19.5,3.1,17.9c0.1-1.5,0.2-3,0.4-4.5c0.1-0.6,0.4-0.9,1-0.9
		c1.7,0,3.3,0,5,0c0.6,0,0.9,0.3,0.9,0.9c0.1,1.6,0.3,3.2,0.4,4.7c0.2,1.9,0.3,3.7,0.5,5.6c0.1,1.5,0.2,3.1,0.4,4.6
		c0.1,1.6,0.3,3.2,0.4,4.7c0.1,1.5,0.2,3.1,0.4,4.6c0.1,1.6,0.3,3.2,0.4,4.7c0.1,1.5,0.3,3.1,0.4,4.6c0.1,1.6,0.3,3.2,0.4,4.8
		c0.1,1,0.2,1.9,0.2,2.9c0,0.2,0,0.3,0.1,0.5C14,55.7,13.6,56.2,13,56.2"/>
</g>
</svg>
