<?xml version="1.0" encoding="utf-8"?>
<!-- Generator: Adobe Illustrator 21.0.2, SVG Export Plug-In . SVG Version: 6.00 Build 0)  -->
<svg version="1.1" id="Layer_1" xmlns="http://www.w3.org/2000/svg" xmlns:xlink="http://www.w3.org/1999/xlink" x="0px" y="0px"
	 viewBox="0 0 66.8 55.5" style="enable-background:new 0 0 66.8 55.5;" xml:space="preserve">
<style type="text/css">
	.st0{clip-path:url(#SVGID_2_);fill:#00B5EC;}
</style>
<title>key_figuresAsset 2icon</title>
<g>
	<defs>
		<rect id="SVGID_1_" width="66.8" height="55.5"/>
	</defs>
	<clipPath id="SVGID_2_">
		<use xlink:href="#SVGID_1_"  style="overflow:visible;"/>
	</clipPath>
	<path class="st0" d="M16,1c0-0.6,0.5-1,1-1s1,0.5,1,1s-0.5,1-1,1S16,1.6,16,1 M10.8,4.8c0-1.5,1.2-2.7,2.7-2.7
		c1.5,0,2.7,1.2,2.7,2.7s-1.2,2.7-2.7,2.7C11.9,7.4,10.8,6.3,10.8,4.8 M59.5,50.6c-2.7,2.3-7.1,2.5-9.5-0.8
		c-0.2-0.2-0.3-0.6-0.3-0.9c0-7.5,0-15,0-22.5c0-0.1,0-0.2,0-0.4h5.9c0-0.1,0-0.2,0-0.3c0-0.9,0.8-1.7,1.7-1.7
		c0.9,0,1.7,0.8,1.7,1.7c0,0.1,0,0.2,0,0.4h1.6v0.8c0,7.1,0,14.3,0,21.4C60.5,49.2,60.2,50,59.5,50.6 M54.3,22.7
		c0.5,0,0.8,0.3,0.8,1c-0.2,0.1-0.5,0.5-0.8,0.5c-0.5,0.1-0.8-0.3-0.8-0.8C53.6,23,53.9,22.7,54.3,22.7 M55.5,20
		c0.5,0,0.9,0.4,0.9,0.8c0,0.5-0.4,0.8-0.9,0.9c-0.5,0-0.9-0.4-0.9-0.8C54.7,20.4,55,20,55.5,20 M37.8,50.6c-2.6,2.2-7,2.5-9.4-0.8
		c-0.2-0.3-0.4-0.7-0.4-1c0-7.5,0-15,0-22.4c0-0.1,0-0.2,0-0.4h2.3c0.1-0.5,0.6-1,1.1-1c0.6,0,1.1,0.4,1.2,1h6.2v0.8
		c0,7.2,0,14.3,0,21.5C38.8,49.3,38.5,50,37.8,50.6 M31.8,21.4c0.3,0,0.4,0.2,0.4,0.5c-0.1,0.1-0.2,0.3-0.4,0.3
		c-0.3,0-0.4-0.2-0.4-0.4C31.4,21.5,31.6,21.4,31.8,21.4 M33.4,22.7c0.5,0,0.8,0.3,0.8,1c-0.2,0.1-0.5,0.5-0.8,0.5
		c-0.5,0.1-0.8-0.3-0.8-0.8C32.6,23,32.9,22.7,33.4,22.7 M16,50.7c-2.6,2.2-6.9,2.5-9.4-0.8c-0.2-0.3-0.4-0.7-0.4-1.1
		c0-7.4,0-14.8,0-22.2V26h10.9v0.8c0,7.1,0,14.3,0,21.4C17.1,49.3,16.8,50,16,50.7 M8.3,15.4c0.9,0,1.7,0.8,1.7,1.7
		c0,0.9-0.8,1.7-1.7,1.7c-0.9,0-1.7-0.8-1.7-1.7C6.6,16.2,7.3,15.4,8.3,15.4 M9.4,23.7c-0.2,0.1-0.5,0.5-0.8,0.5
		c-0.5,0.1-0.8-0.3-0.8-0.8c0-0.4,0.3-0.7,0.8-0.7C9.1,22.7,9.4,23,9.4,23.7 M11.2,21.1c0,0.6-0.5,1.2-1.2,1.2
		c-0.6,0-1.2-0.5-1.2-1.2c0-0.6,0.5-1.2,1.2-1.2C10.7,20,11.2,20.5,11.2,21.1 M65.1,12c-0.5,0-0.9,0-1.4,0v-1.6h1.4V8.7H45v1.8h1.5
		V12H42v-1.5h1.4V8.7H23.3v1.7h1.5V12h-4.5v-1.6h1.5V8.7H1.6v1.7h1.5c0,0.4,0,0.8,0,1.1c0,0.1,0,0.3,0,0.4c-0.4,0-0.8,0-1.3,0
		C0.7,12,0,12.6,0,13.5c0,0.9,0.7,1.6,1.8,1.6c0.4,0,0.9,0,1.3,0V16c0,10.9,0,21.9,0,32.8c0,1.6,0.6,2.8,1.7,3.9
		c3.9,3.6,9.4,3.6,13.5,0.1c1.2-1,1.9-2.3,1.9-4c0-11,0-21.9,0-32.9v-0.8h4.6v0.9c0,10.9,0,21.9,0,32.8c0,1.5,0.6,2.8,1.7,3.8
		c4,3.6,9.5,3.6,13.6,0.1c1.2-1.1,1.9-2.3,1.9-4c0-10.9,0-21.9,0-32.8v-0.8h4.6V16c0,11,0,21.9,0,32.9c0,1.5,0.6,2.7,1.6,3.7
		c3.8,3.6,9.3,3.7,13.4,0.4c1.4-1.2,2.1-2.6,2.1-4.5c0-10.9,0-21.8,0-32.6v-0.9c0.6,0,1.2,0.1,1.7,0c0.9-0.1,1.5-0.8,1.4-1.6
		C66.7,12.7,66,12,65.1,12"/>
</g>
</svg>
