<?xml version="1.0" encoding="utf-8"?>
<!-- Generator: Adobe Illustrator 21.0.2, SVG Export Plug-In . SVG Version: 6.00 Build 0)  -->
<svg version="1.1" id="Layer_1" xmlns="http://www.w3.org/2000/svg" xmlns:xlink="http://www.w3.org/1999/xlink" x="0px" y="0px"
	 viewBox="0 0 281 68.5" style="enable-background:new 0 0 281 68.5;" xml:space="preserve">
<style type="text/css">
	.st0{clip-path:url(#SVGID_2_);fill:url(#SVGID_3_);}
	.st1{clip-path:url(#SVGID_5_);fill:url(#SVGID_6_);}
	.st2{clip-path:url(#SVGID_8_);fill:url(#SVGID_9_);}
	.st3{clip-path:url(#SVGID_11_);fill:url(#SVGID_12_);}
	.st4{clip-path:url(#SVGID_14_);fill:url(#SVGID_15_);}
	.st5{clip-path:url(#SVGID_17_);fill:url(#SVGID_18_);}
	.st6{clip-path:url(#SVGID_20_);fill:url(#SVGID_21_);}
	.st7{clip-path:url(#SVGID_23_);fill:url(#SVGID_24_);}
	.st8{clip-path:url(#SVGID_26_);fill:url(#SVGID_27_);}
	.st9{clip-path:url(#SVGID_29_);fill:url(#SVGID_30_);}
	.st10{clip-path:url(#SVGID_32_);fill:url(#SVGID_33_);}
	.st11{clip-path:url(#SVGID_35_);fill:url(#SVGID_36_);}
	.st12{clip-path:url(#SVGID_38_);fill:url(#SVGID_39_);}
	.st13{clip-path:url(#SVGID_41_);fill:url(#SVGID_42_);}
	.st14{clip-path:url(#SVGID_44_);fill:url(#SVGID_45_);}
	.st15{clip-path:url(#SVGID_47_);fill:url(#SVGID_48_);}
	.st16{clip-path:url(#SVGID_50_);fill:url(#SVGID_51_);}
	.st17{clip-path:url(#SVGID_53_);fill:url(#SVGID_54_);}
</style>
<g>
	<defs>
		<path id="SVGID_1_" d="M34.8,0C34.2,0,33.6,0,32.9,0c0.5,0.5,1.2,0.3,1.8,0.3c70.3,0,140.5,0,210.8,0c0.6,0,1.3,0.2,1.8-0.3
			C246.7,0,246,0,245.4,0c-33.6,0-67.3,0-100.9,0C108,0,71.4,0,34.8,0"/>
	</defs>
	<clipPath id="SVGID_2_">
		<use xlink:href="#SVGID_1_"  style="overflow:visible;"/>
	</clipPath>
	
		<linearGradient id="SVGID_3_" gradientUnits="userSpaceOnUse" x1="-3245.9749" y1="4831.3525" x2="-3242.887" y2="4831.3525" gradientTransform="matrix(0 0.1438 0.1438 0 -554.8254 466.8594)">
		<stop  offset="0" style="stop-color:#6AA6DE"/>
		<stop  offset="8.429736e-02" style="stop-color:#5490CD"/>
		<stop  offset="0.2085" style="stop-color:#3A77B9"/>
		<stop  offset="0.3456" style="stop-color:#2563AA"/>
		<stop  offset="0.5007" style="stop-color:#17569F"/>
		<stop  offset="0.6885" style="stop-color:#0F4D99"/>
		<stop  offset="1" style="stop-color:#0C4B97"/>
	</linearGradient>
	<rect x="32.9" y="0" class="st0" width="214.4" height="0.6"/>
</g>
<g>
	<defs>
		<path id="SVGID_4_" d="M9,39.1C6.1,24.8,16.4,10.5,30.8,8.8c0.5-0.1,1-0.2,1.5-0.3C32.8,8,33.4,8.3,34,8.3c70.9,0,141.7,0,212.6,0
			c0.6,0,1.2-0.2,1.7,0.2c4.4,0.6,8.6,1.7,12.4,4.2c15.1,10.1,15.6,31.8,0.9,42.5c-4.2,3-8.9,4.7-14.2,4.7c-16.7,0-33.5,0-50.2,0
			c-19.1,0-38.1,0-57.2,0c-18.8,0-37.7,0-56.5,0c-6.7,0-13.3,0-20,0c-9.7,0-19.3,0-29,0C21.9,59.9,11.6,51.5,9,39.1 M28.9,0.4
			C10.5,3.2-3,20.6,0.6,40.4c3,16.8,17.1,28.1,34.2,28.1c15.3,0,30.7,0,46,0c22.7,0,45.5,0,68.2,0c32.3,0,64.7,0.1,97,0
			c12.7,0,22.9-5.3,29.6-16.1c8.5-13.5,6.8-30.3-4.2-41.9C264.9,3.7,256.9,0.1,247.3,0c-0.6,0.3-1.3,0.1-1.9,0.1
			c-70.2,0-140.4,0-210.6,0c-0.6,0-1.3,0.1-1.9-0.1c-0.3,0-0.6,0-0.9,0C31,0,30,0.2,28.9,0.4"/>
	</defs>
	<clipPath id="SVGID_5_">
		<use xlink:href="#SVGID_4_"  style="overflow:visible;"/>
	</clipPath>
	
		<linearGradient id="SVGID_6_" gradientUnits="userSpaceOnUse" x1="-559.4988" y1="440.2464" x2="-556.41" y2="440.2464" gradientTransform="matrix(0 22.1866 22.1866 0 -9626.9688 12413.3691)">
		<stop  offset="0" style="stop-color:#6AA6DE"/>
		<stop  offset="8.429736e-02" style="stop-color:#5490CD"/>
		<stop  offset="0.2085" style="stop-color:#3A77B9"/>
		<stop  offset="0.3456" style="stop-color:#2563AA"/>
		<stop  offset="0.5007" style="stop-color:#17569F"/>
		<stop  offset="0.6885" style="stop-color:#0F4D99"/>
		<stop  offset="1" style="stop-color:#0C4B97"/>
	</linearGradient>
	<rect x="-3" class="st1" width="287.2" height="68.5"/>
</g>
<g>
	<defs>
		<path id="SVGID_7_" d="M30.7,8.1c0.4,0.3,0.7,0.3,1,0.3c0.2,0,0.4,0,0.6,0.1h212c1.3,0,2.7,0,4,0c0.2-0.1,0.4,0,0.6,0
			c0.3,0,0.7,0,1-0.3H30.7z"/>
	</defs>
	<clipPath id="SVGID_8_">
		<use xlink:href="#SVGID_7_"  style="overflow:visible;"/>
	</clipPath>
	
		<linearGradient id="SVGID_9_" gradientUnits="userSpaceOnUse" x1="-4063.8076" y1="6252.0752" x2="-4060.7195" y2="6252.0752" gradientTransform="matrix(0 0.1089 0.1089 0 -540.3815 450.5533)">
		<stop  offset="0" style="stop-color:#6AA6DE"/>
		<stop  offset="8.429736e-02" style="stop-color:#5490CD"/>
		<stop  offset="0.2085" style="stop-color:#3A77B9"/>
		<stop  offset="0.3456" style="stop-color:#2563AA"/>
		<stop  offset="0.5007" style="stop-color:#17569F"/>
		<stop  offset="0.6885" style="stop-color:#0F4D99"/>
		<stop  offset="1" style="stop-color:#0C4B97"/>
	</linearGradient>
	<rect x="30.7" y="8.1" class="st2" width="219.1" height="0.3"/>
</g>
<g>
	<defs>
		<path id="SVGID_10_" d="M33.4,60.2c0,0.1,0,0.1-0.1,0.2h214.6c0-0.1,0-0.1,0-0.2H33.4z"/>
	</defs>
	<clipPath id="SVGID_11_">
		<use xlink:href="#SVGID_10_"  style="overflow:visible;"/>
	</clipPath>
	
		<linearGradient id="SVGID_12_" gradientUnits="userSpaceOnUse" x1="-6728.0659" y1="11712.2422" x2="-6724.978" y2="11712.2422" gradientTransform="matrix(0 5.628630e-02 5.628630e-02 0 -518.6321 438.9259)">
		<stop  offset="0" style="stop-color:#6AA6DE"/>
		<stop  offset="8.429736e-02" style="stop-color:#5490CD"/>
		<stop  offset="0.2085" style="stop-color:#3A77B9"/>
		<stop  offset="0.3456" style="stop-color:#2563AA"/>
		<stop  offset="0.5007" style="stop-color:#17569F"/>
		<stop  offset="0.6885" style="stop-color:#0F4D99"/>
		<stop  offset="1" style="stop-color:#0C4B97"/>
	</linearGradient>
	<rect x="33.3" y="60.2" class="st3" width="214.6" height="0.2"/>
</g>
<g>
	<defs>
		<path id="SVGID_13_" d="M85.4,16.8c-3,0-6.1,0-9.1,0c-1.7,0-3.3,0-5,0c-0.1,0-0.1,0-0.2,0c-0.4,0-0.8,0-0.7,0.6
			c4.5,0,9.1,0.1,13.6,0c1.6,0,2.4,0.3,2.1,2.1c-0.1,1.1-0.1,2.2,0,3.3c0.1,1.5,0,2.7-2,2.4c-0.2,0-0.1,0.2,0,0.4
			c2.4,0.2,2.4,0.2,2.4-2.2c0-1.8,0-3.6,0-5.4C86.6,17.1,86.3,16.8,85.4,16.8L85.4,16.8z"/>
	</defs>
	<clipPath id="SVGID_14_">
		<use xlink:href="#SVGID_13_"  style="overflow:visible;"/>
	</clipPath>
	
		<linearGradient id="SVGID_15_" gradientUnits="userSpaceOnUse" x1="-673.6849" y1="618.8256" x2="-670.597" y2="618.8256" gradientTransform="matrix(0 2.8662 2.8662 0 -1695.2535 1947.765)">
		<stop  offset="0" style="stop-color:#6AA6DE"/>
		<stop  offset="8.429736e-02" style="stop-color:#5490CD"/>
		<stop  offset="0.2085" style="stop-color:#3A77B9"/>
		<stop  offset="0.3456" style="stop-color:#2563AA"/>
		<stop  offset="0.5007" style="stop-color:#17569F"/>
		<stop  offset="0.6885" style="stop-color:#0F4D99"/>
		<stop  offset="1" style="stop-color:#0C4B97"/>
	</linearGradient>
	<rect x="70.3" y="16.8" class="st4" width="16.3" height="9"/>
</g>
<g>
	<defs>
		<path id="SVGID_16_" d="M157.5,17.2c-0.3,2.1-0.1,4.3-0.1,6.4c0,2.3,0,2.3,2.4,2.1c0-0.1,0.1-0.2,0.1-0.3c0,0-0.1-0.1-0.1-0.1
			c-2,0.3-2.1-0.9-2-2.4c0.1-1,0.1-2.1,0-3.1c-0.2-1.7,0.4-2.3,2.2-2.2c4.3,0.1,8.6,0,12.9,0v-0.4H157.5z"/>
	</defs>
	<clipPath id="SVGID_17_">
		<use xlink:href="#SVGID_16_"  style="overflow:visible;"/>
	</clipPath>
	
		<linearGradient id="SVGID_18_" gradientUnits="userSpaceOnUse" x1="-678.2605" y1="647.2824" x2="-675.1725" y2="647.2824" gradientTransform="matrix(0 2.7685 2.7685 0 -1626.9796 1894.8981)">
		<stop  offset="0" style="stop-color:#6AA6DE"/>
		<stop  offset="8.429736e-02" style="stop-color:#5490CD"/>
		<stop  offset="0.2085" style="stop-color:#3A77B9"/>
		<stop  offset="0.3456" style="stop-color:#2563AA"/>
		<stop  offset="0.5007" style="stop-color:#17569F"/>
		<stop  offset="0.6885" style="stop-color:#0F4D99"/>
		<stop  offset="1" style="stop-color:#0C4B97"/>
	</linearGradient>
	<rect x="157.2" y="17.2" class="st5" width="15.6" height="8.7"/>
</g>
<g>
	<defs>
		<path id="SVGID_19_" d="M41.6,50.8c0.1,0.5,0.4,0.5,0.8,0.5c3.4,0,6.7,0,10.1,0c0.4,0,0.7-0.1,0.8-0.5c-2-0.1-4-0.1-6-0.1
			C45.4,50.7,43.5,50.7,41.6,50.8"/>
	</defs>
	<clipPath id="SVGID_20_">
		<use xlink:href="#SVGID_19_"  style="overflow:visible;"/>
	</clipPath>
	
		<linearGradient id="SVGID_21_" gradientUnits="userSpaceOnUse" x1="-2336.696" y1="3311.7778" x2="-2333.6082" y2="3311.7778" gradientTransform="matrix(0 0.1976 0.1976 0 -606.9702 512.4286)">
		<stop  offset="0" style="stop-color:#6AA6DE"/>
		<stop  offset="8.429736e-02" style="stop-color:#5490CD"/>
		<stop  offset="0.2085" style="stop-color:#3A77B9"/>
		<stop  offset="0.3456" style="stop-color:#2563AA"/>
		<stop  offset="0.5007" style="stop-color:#17569F"/>
		<stop  offset="0.6885" style="stop-color:#0F4D99"/>
		<stop  offset="1" style="stop-color:#0C4B97"/>
	</linearGradient>
	<rect x="41.6" y="50.7" class="st6" width="11.6" height="0.6"/>
</g>
<g>
	<defs>
		<path id="SVGID_22_" d="M150.3,50.7c-0.3,0-0.7,0-0.9,0.3c2.5,0.3,4.9,0.3,7.4,0.2c1.3,0,2.5-0.1,3.8,0c0.3,0,0.4-0.3,0.4-0.5
			c-3.5,0-7-0.1-10.5-0.1C150.4,50.7,150.4,50.7,150.3,50.7"/>
	</defs>
	<clipPath id="SVGID_23_">
		<use xlink:href="#SVGID_22_"  style="overflow:visible;"/>
	</clipPath>
	
		<linearGradient id="SVGID_24_" gradientUnits="userSpaceOnUse" x1="-2296.9929" y1="3608.3467" x2="-2293.9048" y2="3608.3467" gradientTransform="matrix(0 0.2021 0.2021 0 -573.9084 514.8537)">
		<stop  offset="0" style="stop-color:#6AA6DE"/>
		<stop  offset="8.429736e-02" style="stop-color:#5490CD"/>
		<stop  offset="0.2085" style="stop-color:#3A77B9"/>
		<stop  offset="0.3456" style="stop-color:#2563AA"/>
		<stop  offset="0.5007" style="stop-color:#17569F"/>
		<stop  offset="0.6885" style="stop-color:#0F4D99"/>
		<stop  offset="1" style="stop-color:#0C4B97"/>
	</linearGradient>
	<rect x="149.4" y="50.7" class="st7" width="11.6" height="0.7"/>
</g>
<g>
	<defs>
		<path id="SVGID_25_" d="M65.4,50.8c-0.2,0-0.5,0.2-0.7,0.4c3.9,0.3,7.7,0.3,11.6,0c-0.3-0.1-0.5-0.3-0.8-0.3c-1.6,0-3.1,0-4.7,0
			C69,50.7,67.2,50.8,65.4,50.8"/>
	</defs>
	<clipPath id="SVGID_26_">
		<use xlink:href="#SVGID_25_"  style="overflow:visible;"/>
	</clipPath>
	
		<linearGradient id="SVGID_27_" gradientUnits="userSpaceOnUse" x1="-2284.6174" y1="3304.4875" x2="-2281.5295" y2="3304.4875" gradientTransform="matrix(0 0.2035 0.2035 0 -601.9197 515.6324)">
		<stop  offset="0" style="stop-color:#6AA6DE"/>
		<stop  offset="8.429736e-02" style="stop-color:#5490CD"/>
		<stop  offset="0.2085" style="stop-color:#3A77B9"/>
		<stop  offset="0.3456" style="stop-color:#2563AA"/>
		<stop  offset="0.5007" style="stop-color:#17569F"/>
		<stop  offset="0.6885" style="stop-color:#0F4D99"/>
		<stop  offset="1" style="stop-color:#0C4B97"/>
	</linearGradient>
	<rect x="64.7" y="50.7" class="st8" width="11.6" height="0.7"/>
</g>
<g>
	<defs>
		<path id="SVGID_28_" d="M54.9,17.1c0.5,1,1.4,0.3,2.1,0.3c0.6,0,1.3,0,1.9,0.1c1.4,0.1,2.7,0.2,4-0.4c-1.4-0.2-2.8-0.3-4.1-0.3
			C57.6,16.8,56.2,16.9,54.9,17.1"/>
	</defs>
	<clipPath id="SVGID_29_">
		<use xlink:href="#SVGID_28_"  style="overflow:visible;"/>
	</clipPath>
	
		<linearGradient id="SVGID_30_" gradientUnits="userSpaceOnUse" x1="-1876.2349" y1="2464.416" x2="-1873.147" y2="2464.416" gradientTransform="matrix(0 0.283 0.283 0 -638.3624 547.7182)">
		<stop  offset="0" style="stop-color:#6AA6DE"/>
		<stop  offset="8.429736e-02" style="stop-color:#5490CD"/>
		<stop  offset="0.2085" style="stop-color:#3A77B9"/>
		<stop  offset="0.3456" style="stop-color:#2563AA"/>
		<stop  offset="0.5007" style="stop-color:#17569F"/>
		<stop  offset="0.6885" style="stop-color:#0F4D99"/>
		<stop  offset="1" style="stop-color:#0C4B97"/>
	</linearGradient>
	<rect x="54.9" y="16.8" class="st9" width="8.1" height="1.3"/>
</g>
<g>
	<defs>
		<path id="SVGID_31_" d="M244.6,28.8c0,4.8,0,9.5,0,14.3h0.4V28.9c0-0.2,0-0.4-0.1-0.6C244.8,28.5,244.6,28.6,244.6,28.8"/>
	</defs>
	<clipPath id="SVGID_32_">
		<use xlink:href="#SVGID_31_"  style="overflow:visible;"/>
	</clipPath>
	
		<linearGradient id="SVGID_33_" gradientUnits="userSpaceOnUse" x1="-619.781" y1="560.256" x2="-616.6935" y2="560.256" gradientTransform="matrix(0 4.7518 4.7518 0 -2417.4731 2973.4392)">
		<stop  offset="0" style="stop-color:#6AA6DE"/>
		<stop  offset="8.429736e-02" style="stop-color:#5490CD"/>
		<stop  offset="0.2085" style="stop-color:#3A77B9"/>
		<stop  offset="0.3456" style="stop-color:#2563AA"/>
		<stop  offset="0.5007" style="stop-color:#17569F"/>
		<stop  offset="0.6885" style="stop-color:#0F4D99"/>
		<stop  offset="1" style="stop-color:#0C4B97"/>
	</linearGradient>
	<rect x="244.6" y="28.4" class="st10" width="0.4" height="14.7"/>
</g>
<g>
	<defs>
		<path id="SVGID_34_" d="M197.8,42.6c-0.3,0-0.5,0.1-0.7,0.1c-0.6,0.1-1.2,0.1-1.9,0.2c0,0.1,0,0.2,0,0.3h4.2
			c-0.3-0.5-0.6-0.6-0.9-0.6C198.2,42.5,198,42.5,197.8,42.6"/>
	</defs>
	<clipPath id="SVGID_35_">
		<use xlink:href="#SVGID_34_"  style="overflow:visible;"/>
	</clipPath>
	
		<linearGradient id="SVGID_36_" gradientUnits="userSpaceOnUse" x1="-2486.8296" y1="4052.8994" x2="-2483.7417" y2="4052.8994" gradientTransform="matrix(0 0.1852 0.1852 0 -553.3367 503.045)">
		<stop  offset="0" style="stop-color:#6AA6DE"/>
		<stop  offset="8.429736e-02" style="stop-color:#5490CD"/>
		<stop  offset="0.2085" style="stop-color:#3A77B9"/>
		<stop  offset="0.3456" style="stop-color:#2563AA"/>
		<stop  offset="0.5007" style="stop-color:#17569F"/>
		<stop  offset="0.6885" style="stop-color:#0F4D99"/>
		<stop  offset="1" style="stop-color:#0C4B97"/>
	</linearGradient>
	<rect x="195.2" y="42.5" class="st11" width="4.2" height="0.6"/>
</g>
<g>
	<defs>
		<path id="SVGID_37_" d="M197.1,25.2c-0.2,0-0.4,0-0.6,0c-0.7,0-0.7,0-1.2,0.4c0.4,0,0.8,0,1.3,0.1c1,0.1,1.9,0.2,2.8-0.5
			C198.6,25.2,197.9,25.2,197.1,25.2"/>
	</defs>
	<clipPath id="SVGID_38_">
		<use xlink:href="#SVGID_37_"  style="overflow:visible;"/>
	</clipPath>
	
		<linearGradient id="SVGID_39_" gradientUnits="userSpaceOnUse" x1="-2550.4768" y1="4054.198" x2="-2547.3889" y2="4054.198" gradientTransform="matrix(0 0.1852 0.1852 0 -553.2971 497.4232)">
		<stop  offset="0" style="stop-color:#6AA6DE"/>
		<stop  offset="8.429736e-02" style="stop-color:#5490CD"/>
		<stop  offset="0.2085" style="stop-color:#3A77B9"/>
		<stop  offset="0.3456" style="stop-color:#2563AA"/>
		<stop  offset="0.5007" style="stop-color:#17569F"/>
		<stop  offset="0.6885" style="stop-color:#0F4D99"/>
		<stop  offset="1" style="stop-color:#0C4B97"/>
	</linearGradient>
	<rect x="195.3" y="25.2" class="st12" width="4.1" height="0.7"/>
</g>
<g>
	<defs>
		<path id="SVGID_40_" d="M32.4,16.8c-0.9,0-1.2,0.3-1.2,1.2c0.1,2.2,0.1,4.3,0,6.5c0,1.1,0.4,1.3,1.3,1.2c1.3-0.2,1.9,0.4,2.2,1.7
			c2.2,7.8,4.5,15.6,6.8,23.4c1.6,0.4,3.3,0.3,5,0.3c0.7,0,1.4,0,2.1,0c1.5,0,3,0.3,4.5-0.3c1.9-5.4,3.7-10.7,5.7-16.4
			c1.4,4.3,2.7,8.2,4,12.1c0.5,1.6,0.8,3.2,1.7,4.7c3.9-0.1,7.7,0,11.6,0c0.3-0.1,0.3-0.5,0.4-0.7c2.2-7.7,4.3-15.4,6.5-23.2
			c0.2-0.6,0.2-1.3,0.9-1.6c0.1-0.2,0.3-0.3,0.6-0.2c1.4,0.2,1.7-0.5,1.6-1.7c-0.1-1.6-0.1-3.2,0-4.9c0.1-1.3-0.5-1.7-1.7-1.7
			c-2.8,0-5.6,0-8.4,0c-1.4,0-2.8,0-4.3,0c0,0-0.1,0-0.2,0c-0.5,0-0.9,0-1.3,0.3c0,2.4,0,4.8-0.1,7.2c0,0.7,0.1,1.2,0.9,1
			c1.9-0.3,1.9,0.6,1.5,2c-0.1,0.4-0.2,0.9-0.3,1.4c-0.8,3.3-1.6,6.6-2.3,9.9c-1.5-4-2.7-8-3.9-12c-1-3.3-1.8-6.7-3.1-9.9
			c-2.7,0.1-5.4,0.1-8.1,0c-0.5,0.5-0.5,1.1-0.7,1.7c-1.9,6.9-3.8,13.8-5.7,20.7c-0.5-0.2-0.5-0.6-0.6-0.9
			c-0.9-3.8-1.8-7.7-2.9-11.5c-0.4-1.4,0.1-1.5,1.2-1.4c0.7,0.1,1.4,0.2,1.3-1c-0.1-2.3-0.1-4.5,0-6.8c0-0.9-0.4-1.1-1.2-1
			C41.8,16.9,37.1,16.9,32.4,16.8L32.4,16.8z"/>
	</defs>
	<clipPath id="SVGID_41_">
		<use xlink:href="#SVGID_40_"  style="overflow:visible;"/>
	</clipPath>
	
		<linearGradient id="SVGID_42_" gradientUnits="userSpaceOnUse" x1="-575.963" y1="463.868" x2="-572.875" y2="463.868" gradientTransform="matrix(0 11.1058 11.1058 0 -5092.8584 6413.3789)">
		<stop  offset="0" style="stop-color:#6AA6DE"/>
		<stop  offset="8.429736e-02" style="stop-color:#5490CD"/>
		<stop  offset="0.2085" style="stop-color:#3A77B9"/>
		<stop  offset="0.3456" style="stop-color:#2563AA"/>
		<stop  offset="0.5007" style="stop-color:#17569F"/>
		<stop  offset="0.6885" style="stop-color:#0F4D99"/>
		<stop  offset="1" style="stop-color:#0C4B97"/>
	</linearGradient>
	<rect x="31.2" y="16.8" class="st13" width="55.2" height="34.5"/>
</g>
<g>
	<defs>
		<path id="SVGID_43_" d="M244.7,39.5c0-0.2,0-0.3,0-0.5v0.7c0,0.3,0,0.6,0,0.9C244.7,40.2,244.7,39.9,244.7,39.5 M244.7,30.5
			c0,0,0,0.1,0,0.1c0,1.8,0,3.5,0,5.3C244.7,34.1,244.6,32.3,244.7,30.5 M231.2,16.3c-2.9,0-6.1,0.9-9.3,3.2c0-0.4,0-0.6,0-0.9
			c0.3-1.5-0.4-1.8-1.8-1.8c-3.3,0.1-6.5,0.1-9.8,0c-1.1,0-1.4,0.3-1.4,1.4c0.1,1.9,0.1,3.7,0,5.6c-0.1,1.4,0.2,2.2,1.8,1.9
			c1.3-0.2,1.7,0.3,1.6,1.6c-0.1,4.4-0.1,8.7,0,13.1c0,1.7-0.3,2.4-2.1,2.1c-1.2-0.2-1.5,0.3-1.4,1.5c0.1,2,0.1,4.1,0,6.1
			c0,0.9,0.2,1.3,1.2,1.3c5.5,0,11,0,16.4,0c0.9,0,1.3-0.2,1.2-1.2c-0.1-1.4,0-2.8,0-4.2c0-3.3,0-3.4-3.3-3.4
			c-0.8,0-1.2-0.1-1.2-1.1c0.1-3.6,0-7.1,0-10.7c0-2,0.9-3.6,2.6-4.7c1.9-1.2,3.9-1.4,5.9-0.2c2,1.1,3,2.8,3,5.1
			c0,6.3,0,12.6,0,18.9c0,1.1,0.1,1.6,1.4,1.6c4-0.1,7.9-0.1,11.9,0c1,0,1.3-0.3,1.3-1.3c-0.1-1.6-0.1-3.3,0-4.9
			c0.1-1.5-0.4-1.9-1.9-1.8c-2.3,0.1-2.3,0-2.3-2.4c-0.1-4,0.3-8-0.2-12c-0.1,0.1-0.1,0.1-0.1,0.2c0-0.3,0-0.5,0.1-0.8
			C244.3,22.1,238.5,16.3,231.2,16.3C231.2,16.3,231.2,16.3,231.2,16.3"/>
	</defs>
	<clipPath id="SVGID_44_">
		<use xlink:href="#SVGID_43_"  style="overflow:visible;"/>
	</clipPath>
	
		<linearGradient id="SVGID_45_" gradientUnits="userSpaceOnUse" x1="-575.2629" y1="472.8918" x2="-572.173" y2="472.8918" gradientTransform="matrix(0 11.3502 11.3502 0 -5138.2627 6545.6455)">
		<stop  offset="0" style="stop-color:#6AA6DE"/>
		<stop  offset="8.429736e-02" style="stop-color:#5490CD"/>
		<stop  offset="0.2085" style="stop-color:#3A77B9"/>
		<stop  offset="0.3456" style="stop-color:#2563AA"/>
		<stop  offset="0.5007" style="stop-color:#17569F"/>
		<stop  offset="0.6885" style="stop-color:#0F4D99"/>
		<stop  offset="1" style="stop-color:#0C4B97"/>
	</linearGradient>
	<rect x="208.8" y="16.3" class="st14" width="40.7" height="35.1"/>
</g>
<g>
	<defs>
		<path id="SVGID_46_" d="M172.2,17.2C172.3,17.2,172.3,17.2,172.2,17.2c0,0-0.1,0.1-0.3,0.1c-1.2,0-2.4,0-3.7,0c-0.9,0-1.7,0-2.6,0
			C167.9,17.3,170.1,17.3,172.2,17.2 M172.3,17.1C172.3,17,172.3,17.1,172.3,17.1 M172.1,16.9c-3.1,0-6.2,0-9.3,0
			c-1.4,0-2.9,0-4.3,0c-0.1,0-0.1,0-0.2,0c-0.3,0-0.6,0-0.7,0.3c1.6,0.1,3.2,0.2,4.8,0.2c-1,0-2,0-3.1,0c-1.4,0-1.7,0.4-1.6,1.7
			c0.1,1.2,0,2.4,0,3.7c0,2.4,0,2.4,2.2,3c0.5,0.6,0,1.1-0.2,1.6c-1,2.9-2,5.7-3,8.5c-0.4,1.2-0.9,2.4-1.5,3.9
			c-1.6-4.5-3.1-8.6-4.6-12.7c-0.4-1-0.2-1.4,0.9-1.2c1.3,0.2,1.5-0.4,1.5-1.6c-0.1-2-0.1-4,0-5.9c0-1-0.3-1.3-1.3-1.3
			c-4.6,0-9.2,0-13.8,0c-0.9,0-1.2,0.3-1.2,1.2c0.1,2,0.1,4.1,0,6.1c-0.1,1.2,0.3,1.7,1.5,1.5c0.8-0.1,1.5-0.1,1.9,1
			c1.4,4,2.9,8,4.5,11.9c1.6,4.1,3,8.4,4.9,12.4c0.7,0,1.4,0,2.1,0c1.7,0,3.3,0,5,0c0.4,0,0.9,0,1.3,0c1.1,0,2.1,0.1,3.2-0.3
			c0.1-0.2,0.3-0.4,0.3-0.6c2.9-7.6,5.8-15.2,8.7-22.8c0.5-1.2,1-1.9,2.3-1.7c1,0.2,1.3-0.2,1.3-1.2c-0.1-2-0.1-4.1,0-6.1
			C173.6,17.2,173.3,16.9,172.1,16.9C172.1,16.9,172.1,16.9,172.1,16.9"/>
	</defs>
	<clipPath id="SVGID_47_">
		<use xlink:href="#SVGID_46_"  style="overflow:visible;"/>
	</clipPath>
	
		<linearGradient id="SVGID_48_" gradientUnits="userSpaceOnUse" x1="-576.0107" y1="469.8123" x2="-572.9227" y2="469.8123" gradientTransform="matrix(0 11.0902 11.0902 0 -5055.2393 6404.9243)">
		<stop  offset="0" style="stop-color:#6AA6DE"/>
		<stop  offset="8.429736e-02" style="stop-color:#5490CD"/>
		<stop  offset="0.2085" style="stop-color:#3A77B9"/>
		<stop  offset="0.3456" style="stop-color:#2563AA"/>
		<stop  offset="0.5007" style="stop-color:#17569F"/>
		<stop  offset="0.6885" style="stop-color:#0F4D99"/>
		<stop  offset="1" style="stop-color:#0C4B97"/>
	</linearGradient>
	<rect x="136.5" y="16.9" class="st15" width="37.1" height="34.3"/>
</g>
<g>
	<defs>
		<path id="SVGID_49_" d="M195.5,42.8c0.2,0,0.5,0,0.7,0C195.9,42.9,195.7,42.8,195.5,42.8 M181.6,16.9c-0.8,0-1.1,0.3-1.1,1.1
			c0,1.9,0.1,3.9,0,5.8c-0.1,1.6,0.3,2.3,2,2c1.2-0.2,1.6,0.3,1.5,1.5c-0.1,4.4-0.1,8.7,0,13.1c0.1,1.7-0.3,2.5-2.1,2.2
			c-1.1-0.2-1.4,0.3-1.4,1.3c0.1,2,0.1,4.1,0,6.1c-0.1,1.1,0.4,1.4,1.4,1.4c5.4,0,10.8,0,16.3,0c0.9,0,1.3-0.2,1.2-1.1
			c-0.1-2.4-0.1-4.8-0.1-7.2c-0.7-0.2-1.5-0.2-2.2-0.2c-0.2,0-0.5,0-0.7,0c0.2,0,0.4-0.1,0.6-0.2c-1.9,0.2-2.3-0.7-2.2-2.5
			c0.2-4.2,0-8.5,0.1-12.7c0-0.6-0.3-1.3,0.4-1.8c0.7-0.3,1.4-0.3,2.1-0.3c0.7,0,1.3,0.1,1.9-0.2c0-2.4,0-4.9,0.1-7.3
			c0-0.8-0.2-1-1-1C192.8,16.9,187.3,16.9,181.6,16.9L181.6,16.9z"/>
	</defs>
	<clipPath id="SVGID_50_">
		<use xlink:href="#SVGID_49_"  style="overflow:visible;"/>
	</clipPath>
	
		<linearGradient id="SVGID_51_" gradientUnits="userSpaceOnUse" x1="-575.7604" y1="471.4949" x2="-572.6714" y2="471.4949" gradientTransform="matrix(0 11.1724 11.1724 0 -5077.7788 6449.4888)">
		<stop  offset="0" style="stop-color:#6AA6DE"/>
		<stop  offset="8.429736e-02" style="stop-color:#5490CD"/>
		<stop  offset="0.2085" style="stop-color:#3A77B9"/>
		<stop  offset="0.3456" style="stop-color:#2563AA"/>
		<stop  offset="0.5007" style="stop-color:#17569F"/>
		<stop  offset="0.6885" style="stop-color:#0F4D99"/>
		<stop  offset="1" style="stop-color:#0C4B97"/>
	</linearGradient>
	<rect x="180.4" y="16.8" class="st16" width="19" height="34.5"/>
</g>
<g>
	<defs>
		<path id="SVGID_52_" d="M99.7,34.1c0-4.7,4-8.6,8.8-8.6c4.7,0,8.7,4.1,8.6,8.7c-0.1,4.7-4.1,8.6-8.7,8.6c0,0,0,0-0.1,0
			C103.6,42.9,99.7,38.9,99.7,34.1 M94.2,21.9c-5.1,5.4-6.3,14.6-2.6,20.9c2.7,4.7,6.6,7.8,11.9,8.9c5.2,1.2,10.1,0,14.4-2.8
			c0.7,0.8-0.5,2.4,1.5,2.4c3.6-0.1,7.2,0,10.8,0c0.9,0,1.2-0.3,1.2-1.2c-0.1-2.1-0.1-4.2,0-6.3c0-1.1-0.3-1.5-1.4-1.3
			c-0.2,0-0.5,0-0.7,0c-0.2,0-0.4,0-0.7,0c-1.1,0.1-1.5-0.2-1.5-1.4c0.1-4.1,0-8.2,0-12.2c0-3,0-3.1,3.1-3.1c0.9,0,1.2-0.3,1.2-1.2
			c-0.1-2.1-0.1-4.2,0-6.3c0-1-0.2-1.4-1.3-1.4c-3.5,0.1-7,0.1-10.5,0c-1,0-1.6,0.2-1.4,1.3c0.1,0.4,0,0.8,0,1.4
			c-3.7-2.4-7.5-3.4-10.9-3.4C102.1,16.2,97.4,18.6,94.2,21.9"/>
	</defs>
	<clipPath id="SVGID_53_">
		<use xlink:href="#SVGID_52_"  style="overflow:visible;"/>
	</clipPath>
	
		<linearGradient id="SVGID_54_" gradientUnits="userSpaceOnUse" x1="-574.3319" y1="464.2303" x2="-571.244" y2="464.2303" gradientTransform="matrix(0 11.6795 11.6795 0 -5312.1978 6724.0659)">
		<stop  offset="0" style="stop-color:#6AA6DE"/>
		<stop  offset="8.429736e-02" style="stop-color:#5490CD"/>
		<stop  offset="0.2085" style="stop-color:#3A77B9"/>
		<stop  offset="0.3456" style="stop-color:#2563AA"/>
		<stop  offset="0.5007" style="stop-color:#17569F"/>
		<stop  offset="0.6885" style="stop-color:#0F4D99"/>
		<stop  offset="1" style="stop-color:#0C4B97"/>
	</linearGradient>
	<rect x="87.9" y="16.2" class="st17" width="43.7" height="36.8"/>
</g>
</svg>
