<?xml version="1.0" encoding="utf-8"?>
<!-- Generator: Adobe Illustrator 21.0.2, SVG Export Plug-In . SVG Version: 6.00 Build 0)  -->
<svg version="1.1" id="Layer_1" xmlns="http://www.w3.org/2000/svg" xmlns:xlink="http://www.w3.org/1999/xlink" x="0px" y="0px"
	 viewBox="0 0 280.6 87.8" style="enable-background:new 0 0 280.6 87.8;" xml:space="preserve">
<style type="text/css">
	.st0{fill:#2291D6;}
	.st1{fill:#2A78A8;}
	.st2{clip-path:url(#SVGID_2_);fill:#2291D6;}
	.st3{clip-path:url(#SVGID_2_);fill:#2A78A8;}
	.st4{clip-path:url(#SVGID_2_);fill:#C5D356;}
	.st5{clip-path:url(#SVGID_2_);fill:#2481A9;}
	.st6{clip-path:url(#SVGID_2_);fill:#2191D5;}
	.st7{clip-path:url(#SVGID_2_);fill:#AAC300;}
	.st8{clip-path:url(#SVGID_2_);fill:#69AD92;}
	.st9{clip-path:url(#SVGID_2_);fill:#1B85CE;}
	.st10{clip-path:url(#SVGID_2_);fill:#0F428A;}
	.st11{clip-path:url(#SVGID_2_);fill:#1161A6;}
</style>
<polygon class="st0" points="94.1,31.6 100.3,31.6 107.5,52.9 114.5,31.6 120.6,31.6 109.7,61.4 105,61.4 "/>
<path class="st1" d="M109.8,61.4h-4.9l-11-30.1h6.6l7,20.8l7-20.8h6.5L109.8,61.4z M105.1,61h4.4l10.8-29.4h-5.7l-7.2,21.6
	l-7.3-21.6h-5.8L105.1,61z"/>
<g>
	<defs>
		<rect id="SVGID_1_" width="280.6" height="87.8"/>
	</defs>
	<clipPath id="SVGID_2_">
		<use xlink:href="#SVGID_1_"  style="overflow:visible;"/>
	</clipPath>
	<path class="st2" d="M136.7,56.7c0,0-7.1-0.6-6.9-8.2l0.2-0.5h19.2c0,0,0-17.3-12.2-16.6c0,0-12-1.4-12.9,13.4
		c0,0-0.8,6.8,3.6,12.7c0,0,3.4,6.8,16.9,2.2c0,0,1.9-1,3.8-2.8l-3.8-3.5C144.7,53.4,142,57.2,136.7,56.7 M136.8,35.8
		c7.6,0,6.7,8.2,6.7,8.2h-13.4C130.1,34.5,136.8,35.8,136.8,35.8"/>
	<path class="st3" d="M136.2,61.4c-2.3,0-4-0.4-5.2-1c-2.6-1.1-3.5-2.8-3.5-2.9c-4.3-5.9-3.6-12.8-3.6-12.9
		c0.3-4.9,1.9-8.6,4.6-10.9c3.8-3.2,8.5-2.7,8.5-2.7c2.9-0.2,5.5,0.7,7.4,2.6c2.6,2.4,3.8,6.1,4.3,8.8c0.6,2.9,0.6,5.3,0.6,5.3V48
		h-19.3l-0.2,0.5c-0.2,7.3,6.4,8,6.7,8.1l0,0.2l0-0.2c5.1,0.5,7.8-3.2,7.8-3.3l0.1-0.2l4,3.7l-0.1,0.1c-1.9,1.9-3.8,2.8-3.9,2.9
		C141.2,61,138.4,61.4,136.2,61.4 M136.4,31.4c-1.4,0-4.8,0.3-7.5,2.6c-2.7,2.3-4.2,5.9-4.5,10.7c0,0.1-0.7,6.8,3.5,12.7
		c0,0.1,3.6,6.7,16.7,2.1c0,0,1.8-0.9,3.6-2.7l-3.5-3.2c-0.6,0.7-3.3,3.7-8.1,3.2c-0.1,0-7.3-0.8-7-8.5l0-0.1l0.3-0.7h19.2
		c0-1.3-0.4-9.5-4.8-13.7c-1.9-1.8-4.3-2.6-7.2-2.5C137.1,31.5,136.8,31.4,136.4,31.4 M143.7,44h-13.8v-0.2c0-3.3,0.8-5.7,2.5-7.1
		c1.9-1.6,4.2-1.4,4.4-1.3c2.2,0,3.9,0.7,5,2c2.2,2.5,1.9,6.3,1.8,6.4L143.7,44z M130.2,43.6h13.1c0-0.8,0.1-3.9-1.8-6
		c-1.1-1.2-2.7-1.9-4.8-1.9l0,0c0,0-2.3-0.3-4.2,1.2C131.1,38.3,130.3,40.5,130.2,43.6"/>
	<path class="st2" d="M173.6,37.9l3.6-3.6c0,0-4.5-4.1-13.5-3.1c0,0-6.4,1-8,6.5c0,0-1.8,5.7,3.6,9.2c0,0,3.5,1.6,8.6,1.5
		c0,0,5-0.9,5.1,3.9c0,0,0.2,4.9-6.7,4.4c0,0-5.6-0.3-8.8-3.3l-3.7,3.8c0,0,4.8,4.3,12.7,4.1c0,0,8.5,0.5,11.6-5.7
		c0,0,2.1-5.9-1.7-9.6c0,0-1.5-2.3-7.9-2.5c0,0-4.7,0.3-5.9-0.7c0,0-3.8-3.2,0-6.6C162.6,36.2,168.8,33.5,173.6,37.9"/>
	<path class="st3" d="M166.8,61.5c-0.2,0-0.4,0-0.4,0c-7.9,0.2-12.7-4.1-12.8-4.2l-0.1-0.1l4-4l0.1,0.1c3.1,3,8.6,3.3,8.7,3.3
		c2.4,0.2,4.2-0.3,5.3-1.4c1.2-1.2,1.2-2.8,1.2-2.8c0-1.3-0.4-2.3-1.2-2.9c-1.4-1.2-3.7-0.8-3.7-0.8c-5.1,0.1-8.7-1.5-8.7-1.5
		c-5.5-3.5-3.7-9.4-3.7-9.4c1.7-5.5,8.1-6.6,8.2-6.6c9-1.1,13.6,3.1,13.7,3.1l0.1,0.1l-3.9,3.9l-0.1-0.1c-4.5-4.1-10.4-1.9-10.8-1.7
		c-1.1,1-1.6,2-1.6,3.1c0,1.8,1.6,3.1,1.6,3.2c1.1,0.9,5.7,0.7,5.8,0.7c6.3,0.2,7.9,2.3,8.1,2.6c3.8,3.8,1.7,9.7,1.7,9.8
		C175.5,61.1,168.6,61.5,166.8,61.5 M166.5,61.1c0.1,0,8.5,0.4,11.5-5.6c0,0,2-5.8-1.6-9.4l0,0c0,0-1.6-2.2-7.8-2.4
		c-0.2,0-4.8,0.3-6-0.8c-0.1-0.1-1.7-1.5-1.7-3.4c0-1.2,0.6-2.4,1.8-3.4l0,0c0.1,0,6.3-2.6,11.1,1.6l3.4-3.4
		c-0.8-0.7-5.3-3.8-13.2-2.9c-0.1,0-6.3,1.1-7.9,6.3c0,0.1-1.7,5.6,3.5,9c0,0,3.5,1.6,8.5,1.5c0.1,0,2.4-0.4,4,0.9
		c0.9,0.7,1.3,1.8,1.3,3.2c0,0.1,0.1,1.8-1.3,3.1c-1.2,1.2-3.1,1.7-5.6,1.5c-0.2,0-5.6-0.3-8.8-3.2l-3.5,3.5
		C154.9,57.8,159.5,61.3,166.5,61.1"/>
	<path class="st2" d="M185.3,22.9h5.8v9.4h5.8v4h-5.8v16.3c0,0,0.1,3.3,3.3,3.6h2.1V61h-4.4c0,0-4.4,0-6.5-5.9V36.4H182v-4h3.3V22.9
		z"/>
	<path class="st3" d="M192.1,61c-0.3,0-4.4-0.1-6.5-5.8l0-0.1V36.4H182V32h3.3v-9.4h6.2V32h5.8v4.4h-5.8v16.3c0,0.1,0,2.9,3,3.3
		l2.5,0V61H192.1L192.1,61z M186,55.1c2.1,5.6,6.1,5.6,6.2,5.6h4.4v-4.4h-2.1c-3.3-0.4-3.3-3.6-3.3-3.6V36h5.8v-3.6h-5.8v-9.4h-5.4
		v9.4h-3.3V36h3.6V55.1z"/>
	<path class="st2" d="M217.6,30.9c0,0-13.2-2.4-14.5,13.7c0,0-2.1,16.7,12.3,16.7c0,0,11.7,0.7,12.3-14
		C227.7,47.2,229.5,33.2,217.6,30.9 M217,56c0,0-6.3,1.1-7.8-4.3c0,0-0.6-4.5-0.5-6.9c0,0-0.6-8.7,6.7-8.8c0,0,6-0.8,6.6,8.7
		C222,44.6,222.7,55.5,217,56"/>
	<path class="st3" d="M215.6,61.5c-0.2,0-0.2,0-0.2,0c-3.9,0-7-1.2-9.1-3.7c-4.3-4.9-3.3-13.2-3.3-13.2c0.4-5.3,2.2-9.2,5.3-11.5
		c4.2-3.2,9.4-2.3,9.5-2.3l0,0c11.9,2.3,10.2,16.4,10.2,16.5c-0.2,5-1.7,8.8-4.4,11.2C220.4,61.3,216.6,61.5,215.6,61.5 M215.8,31
		c-1.8,0-4.8,0.4-7.4,2.4c-3,2.3-4.7,6.1-5.1,11.3c0,0.1-1,8.2,3.2,13c2.1,2.3,5.1,3.5,8.9,3.5c0.1,0,4.4,0.2,7.9-2.9
		c2.6-2.4,4.1-6.1,4.2-11c0-0.2,1.7-13.9-9.9-16.2C217.6,31.1,216.9,31,215.8,31 M215.7,56.2c-2,0-5.6-0.6-6.7-4.5
		c0-0.2-0.6-4.6-0.5-6.9c0-0.2-0.3-4.5,2.2-7.1c1.2-1.2,2.7-1.9,4.7-1.9c0.1,0,2-0.2,3.8,1.2c1.8,1.5,2.8,4,3,7.6
		c0,0,0.2,2.8-0.4,5.5c-0.7,3.7-2.4,5.8-4.8,6C216.9,56.2,216.4,56.2,215.7,56.2 M215.7,36.2c-0.2,0-0.3,0-0.3,0
		c-1.9,0-3.3,0.6-4.4,1.8c-2.3,2.5-2.1,6.8-2.1,6.8c-0.1,2.4,0.5,6.8,0.5,6.9c1.4,5.2,7.5,4.2,7.6,4.2l0,0c5.5-0.4,4.8-11,4.8-11.1
		c-0.2-3.5-1.2-5.9-2.9-7.3C217.7,36.3,216.3,36.2,215.7,36.2"/>
	<path class="st2" d="M235.4,19.7h5.4v32.7c0,0,0.1,4,3.4,4h2.4V61h-4.4c0,0-6.9-0.7-6.9-6.4L235.4,19.7z"/>
	<path class="st3" d="M247,61h-4.7c-0.1,0-7-0.8-7-6.5l0-35.2h6v33c0,0,0,1.8,1,2.8c0.5,0.5,1.2,0.8,2,0.8h2.8V61z M235.5,19.7
		l0,34.9c0,5.4,6.6,6.2,6.7,6.2h4.3v-4.4h-2.4c-0.9,0-1.7-0.3-2.3-0.9c-1.1-1.2-1.1-3-1.1-3.1V19.7H235.5z"/>
	<rect x="252.8" y="19.3" class="st2" width="6.2" height="6.2"/>
	<path class="st3" d="M259.3,25.5h-6.5v-6.5h6.5V25.5z M253.2,25.1h5.8v-5.8h-5.8V25.1z"/>
	<rect x="252.8" y="31.3" class="st2" width="6.2" height="29.8"/>
	<path class="st3" d="M259.3,61h-6.5V30.9h6.5V61z M253.2,60.7h5.8V31.3h-5.8V60.7z"/>
	<path class="st2" d="M268.4,22.9h5.8v9.4h5.8v4h-5.8v16.3c0,0,0.1,3.3,3.3,3.6h2.1V61h-4.4c0,0-4.4,0-6.5-5.9V36.4h-3.6v-4h3.3
		V22.9z"/>
	<path class="st3" d="M275.3,61c-0.3,0-4.4-0.1-6.5-5.8l0-0.1V36.4h-3.6V32h3.3v-9.4h6.2V32h5.8v4.4h-5.8v16.3c0,0.1,0,2.9,3,3.3
		l2.5,0V61H275.3L275.3,61z M269.1,55.1c2.1,5.6,6.1,5.6,6.2,5.6h4.4v-4.4h-2.1c-3.3-0.4-3.3-3.6-3.3-3.6V36h5.8v-3.6h-5.8v-9.4
		h-5.4v9.4h-3.3V36h3.6V55.1z"/>
	<polygon class="st4" points="177,75 173.9,75 173.9,84.5 172.3,84.5 172.3,75 169.2,75 169.2,73.5 177,73.5 	"/>
	<path class="st4" d="M185.1,84.5h-1.6v-4.8c0-0.6-0.1-1-0.4-1.3c-0.3-0.3-0.7-0.4-1.1-0.4c-0.5,0-0.9,0.1-1.2,0.4
		c-0.3,0.3-0.4,0.7-0.4,1.3v4.8h-1.6V73.5h1.6v4c0.5-0.6,1.2-0.9,2-0.9c0.6,0,1.1,0.1,1.5,0.4c0.4,0.2,0.7,0.6,0.9,1
		c0.2,0.4,0.3,0.9,0.3,1.5V84.5z"/>
	<path class="st4" d="M193.8,81h-5.1c0,0.5,0.1,0.9,0.2,1.2c0.2,0.3,0.4,0.6,0.7,0.8c0.3,0.2,0.7,0.3,1.1,0.3c0.4,0,0.8-0.1,1.1-0.2
		c0.3-0.1,0.6-0.3,0.9-0.6l1,0.9c-0.4,0.4-0.9,0.7-1.3,0.9c-0.4,0.2-1,0.3-1.6,0.3c-0.5,0-1-0.1-1.4-0.2c-0.4-0.1-0.8-0.4-1.1-0.7
		c-0.3-0.3-0.6-0.7-0.7-1.3c-0.2-0.5-0.3-1.1-0.3-1.9c0-0.8,0.1-1.6,0.4-2.2c0.3-0.6,0.7-1.1,1.2-1.4c0.5-0.3,1.1-0.5,1.8-0.5
		c0.7,0,1.3,0.2,1.8,0.5c0.5,0.3,0.9,0.8,1.2,1.3c0.3,0.6,0.4,1.2,0.4,2V81z M192.2,79.9c0-0.4-0.1-0.8-0.2-1.1
		c-0.1-0.3-0.3-0.5-0.6-0.7c-0.3-0.2-0.6-0.3-1-0.3c-0.4,0-0.7,0.1-1,0.3c-0.3,0.2-0.5,0.4-0.6,0.7c-0.1,0.2-0.1,0.3-0.1,0.4
		c0,0.1,0,0.3-0.1,0.6H192.2z"/>
	<path class="st4" d="M205.5,77.3l-1.2,1.2c-0.2-0.2-0.4-0.3-0.5-0.4s-0.4-0.1-0.7-0.1c-0.3,0-0.5,0.1-0.8,0.2
		c-0.2,0.1-0.4,0.4-0.6,0.6c-0.1,0.3-0.2,0.6-0.2,0.9v4.8H200v-7.9h1.6v0.9c0.2-0.3,0.5-0.5,0.9-0.7c0.4-0.2,0.8-0.3,1.2-0.3
		c0.4,0,0.7,0.1,1,0.2C205,76.8,205.2,77,205.5,77.3"/>
	<path class="st4" d="M208.4,75.1h-1.7v-1.7h1.7V75.1z M208.4,84.5h-1.6v-7.9h1.6V84.5z"/>
	<path class="st4" d="M217.3,84.5c0,0.6-0.1,1.2-0.4,1.7c-0.3,0.5-0.7,0.9-1.2,1.2c-0.5,0.3-1.1,0.4-1.8,0.4c-0.4,0-0.8,0-1.1-0.1
		c-0.3-0.1-0.6-0.2-0.9-0.3c-0.3-0.2-0.6-0.4-0.8-0.6l1-1c0.3,0.2,0.5,0.4,0.8,0.5c0.2,0.1,0.6,0.2,0.9,0.2c0.6,0,1.1-0.2,1.4-0.6
		c0.3-0.4,0.5-0.9,0.5-1.4v-1c-0.3,0.3-0.6,0.6-0.9,0.7c-0.3,0.1-0.7,0.2-1.1,0.2c-0.4,0-0.7-0.1-1.1-0.2c-0.3-0.1-0.6-0.3-0.8-0.5
		c-0.4-0.4-0.6-0.8-0.7-1.3c-0.1-0.5-0.2-1.1-0.2-1.9c0-0.8,0.1-1.4,0.2-1.9c0.1-0.5,0.4-0.9,0.7-1.3c0.2-0.2,0.5-0.4,0.8-0.5
		c0.3-0.1,0.7-0.2,1.1-0.2c0.4,0,0.8,0.1,1.1,0.2c0.3,0.1,0.6,0.4,0.9,0.7v-0.8h1.5V84.5z M215.7,80.4c0-0.8-0.1-1.4-0.3-1.8
		c-0.2-0.4-0.6-0.7-1.3-0.7c-0.6,0-1.1,0.2-1.3,0.7c-0.2,0.4-0.3,1-0.3,1.8c0,0.8,0.1,1.4,0.3,1.8c0.2,0.4,0.6,0.7,1.3,0.7
		c0.6,0,1.1-0.2,1.3-0.7C215.6,81.8,215.7,81.2,215.7,80.4"/>
	<path class="st4" d="M226.1,84.5h-1.6v-4.8c0-0.6-0.1-1-0.4-1.3c-0.3-0.3-0.7-0.4-1.1-0.4c-0.5,0-0.9,0.1-1.2,0.4
		c-0.3,0.3-0.4,0.7-0.4,1.3v4.8h-1.6V73.5h1.6v4c0.5-0.6,1.2-0.9,2-0.9c0.6,0,1.1,0.1,1.5,0.4c0.4,0.2,0.7,0.6,0.9,1
		c0.2,0.4,0.3,0.9,0.3,1.5V84.5z"/>
	<path class="st4" d="M231.9,84.5h-0.9c-0.5,0-0.9-0.1-1.2-0.3c-0.3-0.2-0.6-0.5-0.7-0.8c-0.2-0.3-0.2-0.7-0.2-1.1V78h-0.9v-1.2h0.9
		v-2.4h1.6v2.4h1.5V78h-1.5v4.3c0,0.6,0.3,0.9,0.9,0.9h0.7V84.5z"/>
	<path class="st4" d="M243.7,83.5c-0.2,0.3-0.5,0.5-0.8,0.6c-0.3,0.2-0.6,0.3-0.8,0.4c-0.3,0.1-0.6,0.1-1,0.1
		c-0.6,0-1.2-0.1-1.7-0.4c-0.5-0.3-1-0.7-1.3-1.3c-0.3-0.6-0.5-1.4-0.5-2.3c0-0.7,0.1-1.3,0.3-1.8c0.2-0.5,0.5-0.9,0.8-1.3
		c0.3-0.3,0.7-0.6,1.1-0.7c0.4-0.1,0.9-0.2,1.3-0.2c0.6,0,1,0.1,1.4,0.3c0.4,0.2,0.8,0.5,1.2,0.9l-1.1,1.1c-0.2-0.3-0.5-0.5-0.7-0.6
		c-0.2-0.1-0.5-0.2-0.8-0.2c-0.6,0-1.1,0.2-1.5,0.7c-0.2,0.2-0.3,0.5-0.4,0.8c-0.1,0.3-0.1,0.7-0.1,1.1c0,0.9,0.2,1.5,0.5,1.9
		c0.4,0.5,0.8,0.7,1.5,0.7c0.3,0,0.6-0.1,0.8-0.2c0.2-0.1,0.5-0.3,0.7-0.6L243.7,83.5z"/>
	<path class="st4" d="M251.9,84.5h-1.6v-4.8c0-0.6-0.1-1-0.4-1.3c-0.3-0.3-0.7-0.4-1.1-0.4c-0.5,0-0.9,0.1-1.2,0.4
		c-0.3,0.3-0.4,0.7-0.4,1.3v4.8h-1.6V73.5h1.6v4c0.5-0.6,1.2-0.9,2-0.9c0.6,0,1.1,0.1,1.5,0.4c0.4,0.2,0.7,0.6,0.9,1
		c0.2,0.4,0.3,0.9,0.3,1.5V84.5z"/>
	<path class="st4" d="M260.5,80.6c0,0.7-0.1,1.3-0.2,1.8c-0.1,0.5-0.4,0.9-0.7,1.3c-0.6,0.6-1.4,0.9-2.4,0.9c-1,0-1.7-0.3-2.3-0.9
		c-0.4-0.4-0.6-0.8-0.7-1.3c-0.1-0.5-0.2-1.1-0.2-1.8c0-0.7,0.1-1.3,0.2-1.8c0.1-0.5,0.4-0.9,0.7-1.3c0.2-0.2,0.4-0.3,0.6-0.5
		c0.2-0.1,0.5-0.2,0.8-0.3c0.3-0.1,0.6-0.1,1-0.1c0.5,0,1,0.1,1.4,0.3c0.4,0.2,0.7,0.4,1,0.7c0.4,0.4,0.6,0.8,0.7,1.3
		C260.4,79.3,260.5,79.9,260.5,80.6 M258.9,80.6c0-0.5,0-0.9-0.1-1.3c-0.1-0.4-0.2-0.6-0.4-0.9c-0.3-0.3-0.7-0.4-1.2-0.4
		c-0.5,0-0.9,0.1-1.2,0.4c-0.2,0.2-0.4,0.5-0.4,0.9c-0.1,0.4-0.1,0.8-0.1,1.3c0,0.5,0,0.9,0.1,1.3c0.1,0.4,0.2,0.6,0.4,0.9
		c0.3,0.3,0.7,0.5,1.2,0.5c0.5,0,0.9-0.2,1.2-0.5c0.2-0.2,0.4-0.5,0.4-0.9C258.9,81.5,258.9,81.1,258.9,80.6"/>
	<path class="st4" d="M264.3,75.1h-1.7v-1.7h1.7V75.1z M264.2,84.5h-1.6v-7.9h1.6V84.5z"/>
	<path class="st4" d="M272.5,83.5c-0.2,0.3-0.5,0.5-0.8,0.6c-0.3,0.2-0.6,0.3-0.8,0.4c-0.3,0.1-0.6,0.1-1,0.1
		c-0.6,0-1.2-0.1-1.7-0.4c-0.5-0.3-1-0.7-1.3-1.3c-0.3-0.6-0.5-1.4-0.5-2.3c0-0.7,0.1-1.3,0.3-1.8s0.5-0.9,0.8-1.3s0.7-0.6,1.1-0.7
		c0.4-0.1,0.9-0.2,1.3-0.2c0.6,0,1,0.1,1.4,0.3c0.4,0.2,0.8,0.5,1.2,0.9l-1.1,1.1c-0.2-0.3-0.5-0.5-0.7-0.6
		c-0.2-0.1-0.5-0.2-0.8-0.2c-0.6,0-1.1,0.2-1.5,0.7c-0.2,0.2-0.3,0.5-0.4,0.8c-0.1,0.3-0.1,0.7-0.1,1.1c0,0.9,0.2,1.5,0.5,1.9
		c0.4,0.5,0.8,0.7,1.5,0.7c0.3,0,0.6-0.1,0.8-0.2c0.2-0.1,0.5-0.3,0.7-0.6L272.5,83.5z"/>
	<path class="st4" d="M280.6,81h-5.1c0,0.5,0.1,0.9,0.2,1.2c0.2,0.3,0.4,0.6,0.7,0.8c0.3,0.2,0.7,0.3,1.1,0.3c0.4,0,0.8-0.1,1.1-0.2
		c0.3-0.1,0.6-0.3,0.9-0.6l1,0.9c-0.4,0.4-0.9,0.7-1.3,0.9c-0.4,0.2-1,0.3-1.6,0.3c-0.5,0-1-0.1-1.4-0.2c-0.4-0.1-0.8-0.4-1.1-0.7
		c-0.3-0.3-0.6-0.7-0.7-1.3c-0.2-0.5-0.3-1.1-0.3-1.9c0-0.8,0.1-1.6,0.4-2.2c0.3-0.6,0.7-1.1,1.2-1.4c0.5-0.3,1.1-0.5,1.8-0.5
		c0.7,0,1.3,0.2,1.8,0.5c0.5,0.3,0.9,0.8,1.2,1.3c0.3,0.6,0.4,1.2,0.4,2V81z M279,79.9c0-0.4-0.1-0.8-0.2-1.1
		c-0.1-0.3-0.3-0.5-0.6-0.7c-0.3-0.2-0.6-0.3-1-0.3c-0.4,0-0.7,0.1-1,0.3c-0.3,0.2-0.5,0.4-0.6,0.7c-0.1,0.2-0.1,0.3-0.1,0.4
		c0,0.1,0,0.3-0.1,0.6H279z"/>
	<path class="st5" d="M0,61.4L40,0L81,61.4L0,61.4z M40,2.6L2.7,60l75.6,0L40,2.6z"/>
	<polygon class="st6" points="20.4,31.6 33.5,31.6 39.9,49 47,31.6 60,31.6 47.1,61.4 33.1,61.4 	"/>
	<polygon class="st7" points="20.4,31.6 33.5,31.6 35.9,38.2 22.2,35.8 	"/>
	<polygon class="st8" points="22.2,35.6 28.7,50.8 39.5,47.6 35.9,38.1 	"/>
	<polygon class="st9" points="39.5,47.7 45.3,61.4 33.1,61.4 28.7,50.9 	"/>
	<polygon class="st10" points="40,48.9 45.3,61.4 47.3,61.4 55,43 40.6,47.2 	"/>
	<polygon class="st11" points="44,38.9 56,40.6 55,42.9 40.6,47.1 	"/>
</g>
</svg>
