<?xml version="1.0" encoding="utf-8"?>
<!-- Generator: Adobe Illustrator 21.0.2, SVG Export Plug-In . SVG Version: 6.00 Build 0)  -->
<svg version="1.1" id="Layer_1" xmlns="http://www.w3.org/2000/svg" xmlns:xlink="http://www.w3.org/1999/xlink" x="0px" y="0px"
	 viewBox="0 0 114.8 109.8" style="enable-background:new 0 0 114.8 109.8;" xml:space="preserve">
<style type="text/css">
	.st0{clip-path:url(#SVGID_2_);fill:#00B5EC;}
</style>
<g>
	<defs>
		<rect id="SVGID_1_" y="17.6" width="114.8" height="69"/>
	</defs>
	<clipPath id="SVGID_2_">
		<use xlink:href="#SVGID_1_"  style="overflow:visible;"/>
	</clipPath>
	<path class="st0" d="M105.6,47c-2.3,0-4.4,0.5-6.4,1.8c-3,2-4.7,4.9-5.9,8.2c-0.2,0.4-0.3,1.8-0.4,2.1c-0.9-1.8-1.6-4.7-2.7-6.4
		C87.9,49,84.5,47,80.1,47c-0.9,0-1.3,0.4-1.4,1.3c-0.2,2.8,0.2,5.6,1,8.3c1.3,4.2,3.7,7.5,8,9c1.2,0.4,2.6,0.6,3.9,0.9v7.3h-0.8
		c-2,0-4,0-5.9,0c-1,0-1.5,0.4-1.5,1.2c0,0.8,0.5,1.1,1.4,1.1l9.2-2.3v-7.3c0.7-0.1,1.3-0.1,1.9-0.2c4-0.7,7.1-2.8,9-6.5
		c1.8-3.6,2.3-7.5,1.9-11.5C106.7,47.3,106.3,47,105.6,47 M69.7,47c-2.3,0-4.4,0.5-6.4,1.8c-3,2-4.7,4.9-5.9,8.2
		c-0.2,0.4-0.3,1.8-0.4,2.1c-0.9-1.8-1.6-4.7-2.7-6.4C52,49,48.6,47,44.2,47c-0.9,0-1.3,0.4-1.4,1.3c-0.2,2.8,0.2,5.6,1,8.3
		c1.3,4.2,3.7,7.5,8,9c1.2,0.4,2.6,0.6,3.9,0.9v7.3h-0.8c-2,0-4,0-5.9,0c-1,0-1.5,0.4-1.5,1.2c0,0.8,0.5,1.1,1.4,1.1l9.2-2.3v-7.3
		c0.7-0.1,1.3-0.1,1.9-0.2c4-0.7,7.1-2.8,9-6.5c1.8-3.6,2.3-7.5,1.9-11.5C70.8,47.3,70.4,47,69.7,47 M33.8,47
		c-2.3,0-4.4,0.5-6.4,1.8c-3,2-4.7,4.9-5.9,8.2c-0.2,0.4-0.3,1.8-0.4,2.1c-0.9-1.8-1.6-4.7-2.7-6.4C16.1,49,12.7,47,8.3,47
		c-0.9,0-1.3,0.4-1.4,1.3c-0.2,2.8,0.2,5.6,1,8.3c1.3,4.2,3.7,7.5,8,9c1.2,0.4,2.6,0.6,3.9,0.9v7.3H19c-2,0-4,0-5.9,0
		c-1,0-1.5,0.4-1.5,1.2c0,0.8,0.5,1.1,1.4,1.1l9.2-2.3v-7.3c0.7-0.1,1.3-0.1,1.9-0.2c4-0.7,7.1-2.8,9-6.5c1.8-3.6,2.3-7.5,1.9-11.5
		C34.9,47.3,34.5,47,33.8,47 M98.9,33h-3.2v6.7h3.2V33z M60.2,33h-3.3v6.7h3.3V33z M21.4,33h-3.3v6.7h3.3V33z M71.4,35.1
		c-1.6-1.7-3.3-3.3-4.8-4.9c-0.7,0.7-1.5,1.4-2.2,2c1.7,1.7,3.3,3.4,5,5C69.9,36.7,70.7,35.9,71.4,35.1 M11.8,30.2
		c-1.6,1.7-3.3,3.3-4.8,4.9c0.7,0.7,1.4,1.5,2.1,2.2c1.6-1.6,3.2-3.3,4.8-4.9C13.2,31.7,12.5,30.9,11.8,30.2 M84.6,35.1
		c0.7,0.7,1.4,1.5,2.1,2.2c1.6-1.6,3.2-3.3,4.9-5c-0.7-0.7-1.5-1.5-2.2-2.2C87.8,31.8,86.2,33.5,84.6,35.1 M103.2,32.3
		c1.7,1.7,3.3,3.4,4.9,5c0.7-0.6,1.4-1.4,2.1-2.1c-1.6-1.7-3.3-3.4-4.8-5C104.6,30.9,103.8,31.7,103.2,32.3 M50.7,30.2
		c-1.7,1.7-3.3,3.4-4.8,4.9c0.6,0.7,1.4,1.5,2,2.2c1.6-1.7,3.3-3.3,4.9-5C52.1,31.6,51.4,30.9,50.7,30.2 M27.6,30.2
		c-0.7,0.7-1.4,1.4-2.1,2.1c1.7,1.7,3.3,3.4,4.8,4.9c0.7-0.7,1.5-1.4,2.2-2C30.8,33.5,29.2,31.8,27.6,30.2 M61.8,21h-6.6v3.3h6.6V21
		z M23.1,21h-6.7v3.2h6.7V21z M94,24.3h6.6V21H94V24.3z M90.6,21H65.3c0,1.6,0,3.1,0,4.6c0,1.5-0.6,2.2-2.1,2.2c-3.1,0-6.2,0-9.4,0
		c-1.4,0-2-0.6-2-2.1c0-1.5,0-3.1,0-4.7H26.5c0,1.5,0,2.9,0,4.4c0,1.8-0.6,2.4-2.3,2.4c-3,0-5.9,0-8.9,0c-1.7,0-2.3-0.6-2.3-2.3
		c0-1.4,0-2.8,0-4.2c0-0.1,0-0.1-0.1-0.3H8v-3.4h101.1v3.4h-5v4.4c0,2-0.5,2.5-2.5,2.5c-2.9,0-5.9,0-8.8,0c-1.6,0-2.2-0.6-2.2-2.2
		C90.6,24.1,90.6,22.6,90.6,21"/>
	<path class="st0" d="M114.8,81.3c0,1.5,0,2.9,0,4.4c0,0.1-0.4,0.3-0.6,0.3c-3.7,0.8-7.4,0.8-11.2,0c-1.9-0.4-3.9-0.7-5.9-0.9
		c-2.5-0.2-4.9,0.2-7.2,0.6c-1.6,0.3-3.3,0.6-5,0.8c-2.7,0.3-5.3-0.1-7.8-0.6c-1.8-0.3-3.6-0.6-5.5-0.8c-2.6-0.2-5.1,0.2-7.5,0.7
		c-1.5,0.3-3.1,0.5-4.7,0.7c-2.8,0.3-5.4-0.1-8-0.6c-2.5-0.5-5.1-1-7.8-0.7c-1.7,0.1-3.4,0.4-5.1,0.7c-1.6,0.2-3.1,0.5-4.7,0.7
		c-2.8,0.3-5.4-0.1-7.9-0.6c-2.5-0.5-5.1-1-7.8-0.8c-1.7,0.1-3.4,0.4-5.1,0.7c-1.5,0.2-3,0.5-4.6,0.7c-2.6,0.3-5.1,0-7.5-0.5
		C0.3,85.9,0,85.6,0,85.3v-3.2c0-0.4,0.6-0.8,1.3-0.7c0,0,0,0,0,0c3.2,0.6,6.6,0.6,9.8,0c1.6-0.3,3.2-0.6,4.9-0.8
		c2.9-0.4,5.8-0.1,8.6,0.4c1.5,0.3,3.1,0.6,4.6,0.8c2.9,0.4,5.7,0,8.5-0.5c1.6-0.3,3.3-0.6,5-0.8c2.8-0.3,5.4,0.1,8,0.6
		c1.8,0.3,3.6,0.6,5.4,0.8c2.4,0.2,4.8-0.2,7-0.6c1.6-0.3,3.3-0.6,5-0.8c2.6-0.3,5,0.1,7.4,0.5c1.5,0.3,3.1,0.6,4.6,0.8
		c2.9,0.4,5.7,0,8.4-0.5c1.7-0.3,3.4-0.6,5.1-0.8c2.8-0.3,5.3,0.1,7.9,0.6c1.8,0.3,3.6,0.6,5.4,0.8c2.2,0.2,4.4-0.1,6.5-0.5
		C114.1,81.4,114.4,81.4,114.8,81.3"/>
</g>
</svg>
