<?xml version="1.0" encoding="utf-8"?>
<!-- Generator: Adobe Illustrator 21.0.2, SVG Export Plug-In . SVG Version: 6.00 Build 0)  -->
<svg version="1.1" id="Layer_1" xmlns="http://www.w3.org/2000/svg" xmlns:xlink="http://www.w3.org/1999/xlink" x="0px" y="0px"
	 viewBox="0 0 281 74.9" style="enable-background:new 0 0 281 74.9;" xml:space="preserve">
<style type="text/css">
	.st0{clip-path:url(#SVGID_2_);fill:#F28000;}
	.st1{clip-path:url(#SVGID_2_);fill:#241F21;}
	.st2{clip-path:url(#SVGID_2_);fill:#211F1F;}
</style>
<g>
	<defs>
		<rect id="SVGID_1_" width="281" height="74.9"/>
	</defs>
	<clipPath id="SVGID_2_">
		<use xlink:href="#SVGID_1_"  style="overflow:visible;"/>
	</clipPath>
	<path class="st0" d="M136.8,74.9c-45,0-89.9,0-134.9,0c-1.5,0-2-0.4-2-1.9c0.1-4,0.1-8,0-12c-0.1-1.8,0.3-2.6,2.3-2.4
		c1.7,0.2,3.4,0,5.1,0c80.6,0,161.2,0,241.8,0c2.6,0,4.8-0.7,6.9-2.3c7.3-5.7,14.8-11.2,22.2-16.8c2.2-1.6,2.1-2.6-0.1-4.2
		c-7.6-5.7-15.2-11.4-22.8-17.2c-1.6-1.3-3.4-1.9-5.4-1.9c-82.2,0-164.4,0-246.6,0c-3.4,0-3.4,0-3.4-3.5C0,9,0.1,5.3,0,1.6
		C0,0.4,0.4-0.1,1.6,0C3,0.1,4.4,0,5.8,0C94.2,0,182.6,0,271,0c3.2,0,4,0.6,5.1,3.7c4.7,13.6,5.5,27.6,4.7,41.8
		c-0.4,7.8-1.6,15.5-3.8,22.9c-0.1,0.2-0.1,0.5-0.2,0.7c-2.2,6.1-2.3,5.6-7.8,5.6C224.9,74.9,180.9,74.9,136.8,74.9"/>
	<path class="st1" d="M214.6,42c2.8-5.2,6-9.7,8.9-14.3c1.7-2.6,4.1-3.6,7-2.8c1.1,0.3,0.9,1.2,0.8,2c-0.3,5.6-0.6,11.2-0.9,16.8
		c-0.1,1.6-0.2,3.2-0.3,4.8c-0.1,1.1-0.5,1.8-1.8,1.7c-1.2-0.1-2.4-0.1-3.7,0c-1.4,0.1-1.9-0.5-1.8-1.9c0.3-3.1,0.5-6.1,0.8-9.2
		c0-0.3,0-0.6,0-1c-2.4,3.6-4.7,7.1-6.8,10.6c-1.2,2-2.9,1.5-4.5,1.5c-1.5,0-1.6-1.3-1.9-2.4c-1.1-3.2-2.2-6.5-3.5-10.1
		c-0.6,3.8-1.7,7.1-2.4,10.5c-0.3,1.3-1,2-2.4,1.9c-1-0.1-2.1-0.1-3.1,0c-1.7,0.2-2-0.6-1.7-2.1c0.8-3.3,1.6-6.6,2.5-9.8
		c1-3.9,2-7.7,2.9-11.6c0.3-1.3,0.9-1.8,2.3-1.8c5.3,0.1,4.1-0.5,5.7,4.1C212,33.1,213.5,37.2,214.6,42"/>
	<path class="st1" d="M164.8,36.2c1,0,2.1,0.1,3.1,0c1.6-0.1,1.9,0.6,1.6,2c-0.6,3.2-1,6.3-1.5,9.5c-0.1,0.6-0.1,1.2-0.9,1.4
		c-5.2,1.3-10.5,2.2-15.6-0.2c-5-2.3-7.1-7.5-5.6-13.2c1.6-6.2,6.5-10.1,13.7-10.9c2.8-0.3,5.6-0.2,8.4,0.2c1.1,0.2,1.6,0.5,1.3,1.9
		c-0.7,2.9-0.6,2.9-3.4,2.3c-7.6-1.6-13.3,3-12.9,10.3c0.2,4.1,4,6.9,7.9,5.8c0.5-0.1,0.9-0.4,0.9-1c0.1-0.8,0.2-1.6,0.4-2.4
		c0.4-1.4-0.1-1.8-1.4-1.8c-0.8,0-2,0.4-1.8-1.1c0.2-1.2-0.1-2.9,2-2.9C162.3,36.2,163.6,36.2,164.8,36.2L164.8,36.2z"/>
	<path class="st1" d="M95.7,50.5c-2.4-0.1-4.8-0.6-7.2-1.2c-1.5-0.4-1.7-1.3-1.3-2.6c0.4-1.2,0.7-2.1,2.3-1.5c2,0.7,4.1,0.6,6.2,0.5
		c1.1-0.1,2-0.4,2.9-1c1.5-1,1.6-2.4,0.1-3.4c-1-0.7-2.1-1.2-3.2-1.7c-1.3-0.6-2.6-1.3-3.8-2.2c-3.6-3-3.4-7.8,0.4-10.5
		c4.1-2.9,8.6-2.7,13.2-2.1c0.3,0,0.6,0.1,0.9,0.2c1.9,0.4,2.5,2.4,1.2,3.9c-0.5,0.5-1,0.5-1.7,0.3c-1.7-0.5-3.4-0.6-5.1-0.4
		c-0.9,0.1-1.7,0.4-2.4,0.9c-1.8,1.2-1.8,2.9,0.1,3.9c1.6,0.9,3.3,1.6,4.9,2.5c2.3,1.3,4.2,2.8,4.3,5.7c0.2,3.7-1.7,6.4-5.5,7.8
		C100,50.2,97.9,50.5,95.7,50.5"/>
	<path class="st2" d="M122,24.8c3.2,0,6.5,0,9.7,0c1.2,0,1.7,0.3,1.5,1.7c-0.8,4.6-0.3,3.9-4.4,3.9c-3.9,0-3.9,0-4.5,3.8
		c-0.7,4.7-1.5,9.4-2.2,14.1c-0.2,1.3-0.7,1.9-2,1.8c-1.3-0.1-2.7,0-4,0c-1.4,0-1.8-0.5-1.6-1.9c0.8-4.8,1.5-9.6,2.2-14.4
		c0.1-0.6,0.1-1.2,0.2-1.8c0.3-1.2-0.3-1.5-1.4-1.5c-1.4,0-2.8,0-4.2,0c-1.2,0-1.5-0.5-1.3-1.6c0.4-4.1,0.4-4.1,4.5-4.1
		C117,24.8,119.5,24.8,122,24.8"/>
	<path class="st1" d="M49.6,50.1c-2.4,0-4.9,0-7.3,0c-1.4,0-1.8-0.5-1.6-1.9c1.1-7.2,2.2-14.4,3.3-21.6c0.2-1.3,0.7-2,2.1-1.9
		c1.5,0.1,2.9,0,4.4,0c1.1,0,1.5,0.5,1.3,1.6C51,31.7,50.1,37,49.3,42.3c-0.3,2-0.2,2.2,1.9,2.2c2.2,0,4.4,0.1,6.6,0
		c1.6-0.1,2.1,0.4,1.8,2c-0.7,3.6-0.7,3.6-4.4,3.6C53.3,50.1,51.5,50.1,49.6,50.1"/>
	<path class="st1" d="M140.3,24.8c3.5,0.1,3.8-1,2.9,4c-1.1,6.4-2.1,12.9-3,19.4c-0.2,1.5-0.8,2.1-2.2,2c-1.4,0-2.8,0-4.2,0
		c-1.1,0-1.5-0.5-1.3-1.6c1.1-7.2,2.3-14.5,3.4-21.7c0.2-1.5,0.9-2.2,2.4-2C138.8,24.8,139.4,24.8,140.3,24.8"/>
	<path class="st1" d="M31.1,36.1c-1,0.6-2.1,0.9-3,0.8c-2.6-0.1-2.7,0.3-2.2-2.2c0.1-0.7,0.2-1.5,0.4-2.2c0.3-1.2,0-2.8,2.1-2.9
		c2.5,0,4.1,0.6,4.6,2.2C33.4,33.5,32.7,35.1,31.1,36.1 M40.7,31.8c-0.3-3-2.1-4.9-4.8-6c-2.7-1.1-5.5-1.2-8.3-1.3
		c-2,0.1-3.9,0.3-5.9,0.4c-1.3,0.1-2.1,0.5-2.2,2c-0.2,2.1-0.6,4.1-0.9,6.2c-0.8,5-1.5,10-2.3,15c-0.2,1.5,0.2,2.1,1.7,2
		c1.2-0.1,2.4,0,3.7,0c1.2,0,1.9-0.4,2.1-1.8c0.2-1.8,0.6-3.5,0.8-5.3c0.1-1.2,0.5-1.6,1.8-1.5c4,0.1,8-0.3,11.3-2.8
		C40,37,41,34.7,40.7,31.8"/>
	<path class="st1" d="M186,39.3c0,1.4-0.4,1.5-0.4,1.5h-3c-0.4-0.4-0.2-1.5-0.2-1.5l2.2-4.8c0.5-1,0.6-0.8,0.6-0.8
		c0.4,0,0.4,0.6,0.4,0.6L186,39c0-1,0,0.1,0,0.1l0-0.1C186,39.1,186,39.2,186,39.3 M195.4,49.2l-4.8-23.3c0.2-1.3-1.1-1.4-1.1-1.4
		h-5.3c-0.6,0-0.9,0.7-0.9,0.7s-11.9,22.7-12.6,24s0.2,1.2,0.2,1.2s3.9,0,5,0c1.1,0,1.4-1.1,1.4-1.1l2.3-4.1
		c0.6-1.1,1.1-0.9,1.1-0.9h4.4c1.7,0,1.8,0.5,1.8,0.5l0.7,3.9c0.2,2.1,1.1,2.3,1.1,2.3h6.1C195.9,50.8,195.4,49.2,195.4,49.2"/>
	<path class="st1" d="M247,39.3c0,1.4-0.4,1.5-0.4,1.5h-3c-0.4-0.4-0.2-1.5-0.2-1.5l2.2-4.8c0.5-1,0.6-0.8,0.6-0.8
		c0.4,0,0.4,0.6,0.4,0.6L247,39c0-1,0,0.1,0,0.1l0-0.1C247,39.1,247,39.2,247,39.3 M256.4,49.2l-4.8-23.3c0.2-1.3-1.1-1.4-1.1-1.4
		h-5.3c-0.6,0-0.9,0.7-0.9,0.7s-11.9,22.7-12.6,24c-0.7,1.2,0.2,1.2,0.2,1.2s3.9,0,5,0c1.1,0,1.4-1.1,1.4-1.1l2.3-4.1
		c0.6-1.1,1.1-0.9,1.1-0.9h4.4c1.7,0,1.8,0.5,1.8,0.5l0.7,3.9c0.2,2.1,1.1,2.3,1.1,2.3h6.1C256.9,50.8,256.4,49.2,256.4,49.2"/>
	<path class="st1" d="M76.5,39.3c0,1.4-0.4,1.5-0.4,1.5h-3c-0.4-0.4-0.2-1.5-0.2-1.5l2.2-4.8c0.5-1,0.6-0.8,0.6-0.8
		c0.4,0,0.4,0.6,0.4,0.6l0.4,4.7c0-1,0,0.1,0,0.1l0-0.1C76.5,39.1,76.5,39.2,76.5,39.3 M85.8,49.2L81,25.9c0.2-1.3-1.1-1.4-1.1-1.4
		h-5.3c-0.6,0-0.9,0.7-0.9,0.7s-11.9,22.7-12.6,24s0.2,1.2,0.2,1.2s3.9,0,5,0c1.1,0,1.4-1.1,1.4-1.1l2.3-4.1
		c0.6-1.1,1.1-0.9,1.1-0.9h4.4c1.7,0,1.8,0.5,1.8,0.5l0.7,3.9c0.2,2.1,1.1,2.3,1.1,2.3h6.1C86.3,50.8,85.8,49.2,85.8,49.2"/>
</g>
</svg>
