<?xml version="1.0" encoding="utf-8"?>
<!-- Generator: Adobe Illustrator 21.0.2, SVG Export Plug-In . SVG Version: 6.00 Build 0)  -->
<svg version="1.1" id="Layer_1" xmlns="http://www.w3.org/2000/svg" xmlns:xlink="http://www.w3.org/1999/xlink" x="0px" y="0px"
	 viewBox="0 0 114.8 109.8" style="enable-background:new 0 0 114.8 109.8;" xml:space="preserve">
<style type="text/css">
	.st0{clip-path:url(#SVGID_2_);fill:#00B5EC;}
</style>
<g>
	<defs>
		<rect id="SVGID_1_" y="9" width="114.8" height="91.9"/>
	</defs>
	<clipPath id="SVGID_2_">
		<use xlink:href="#SVGID_1_"  style="overflow:visible;"/>
	</clipPath>
	<path class="st0" d="M37.1,69.1c-0.8-0.8-2.1-0.7-2.9,0c-2.7,2.6-5.6,5.4-8.3,8c-0.8,0.8-0.8,2.1,0,2.9c0,0,0,0,0,0
		c0.8,0.8,2.1,0.8,2.9,0c2.7-2.6,5.5-5.3,8.3-8C38,71.3,38,69.9,37.1,69.1C37.1,69.1,37.1,69.1,37.1,69.1 M93.1,81.4L93.1,81.4
		c1.1-0.5,1.6-1.7,1.1-2.7c-1.7-3.8-3.4-7.5-5.1-11.3c-0.5-1-1.7-1.5-2.7-1l0,0c-1.1,0.5-1.5,1.7-1.1,2.7c1.7,3.8,3.4,7.6,5.1,11.3
		C90.9,81.4,92.1,81.9,93.1,81.4 M89.2,41.2C89.2,41.2,89.2,41.2,89.2,41.2c1,0.7,2.3,0.4,2.9-0.5c2.6-3.7,5.2-7.3,7.8-11
		c0.7-0.9,0.4-2.2-0.5-2.9l0,0c-0.9-0.6-2.2-0.4-2.9,0.5c-2.6,3.6-5.2,7.3-7.8,11C88,39.3,88.3,40.6,89.2,41.2 M68.6,58.2
		c-2.3,0.2-4.6,0.5-6.9,0.7c-0.3,0-0.6,0.3-0.5,0.7l0,0c0,0.3,0.3,0.6,0.7,0.5c2.3-0.2,4.6-0.5,6.9-0.7c0.3,0,0.6-0.3,0.5-0.7v0
		C69.2,58.4,68.9,58.2,68.6,58.2 M61.7,55.9c2.3-0.2,4.6-0.5,6.9-0.7c0.3,0,0.6-0.3,0.5-0.6l0,0c0-0.3-0.3-0.6-0.7-0.5
		c-2.3,0.2-4.6,0.5-6.9,0.7c-0.3,0-0.6,0.3-0.5,0.7v0C61.1,55.7,61.4,55.9,61.7,55.9 M18.4,28.5L18.4,28.5c-0.9,0.8-0.9,2.1-0.1,2.9
		c5.5,5.8,11,11.6,16.5,17.3c0.8,0.8,2.1,0.9,2.9,0.1l0,0c0.8-0.8,0.9-2.1,0.1-2.9c-5.5-5.8-11-11.5-16.5-17.3
		C20.5,27.8,19.2,27.7,18.4,28.5 M105.8,9c-5,0-8.9,3.9-8.9,8.9c0,4.9,4,8.9,9,8.8c4.9,0,8.9-4,8.9-8.9C114.8,12.9,110.8,9,105.8,9
		 M104.5,84.7c-3.7-2.8-9.5-1.9-12.4,2c-2.9,3.9-2.1,9.5,1.9,12.4c4.1,3,9.7,2,12.6-2C109.5,93.3,108.6,87.8,104.5,84.7 M20.1,19.8
		c0-5.5-4.5-10-10-10c-5.5,0-10,4.5-10,9.9c0,5.5,4.5,10,10,10C15.6,29.7,20.1,25.3,20.1,19.8 M16.9,78.8c-5.6,0-10,4.5-10,10
		c0,5.5,4.5,9.9,10.1,9.9c5.5,0,9.9-4.5,9.9-9.9C26.9,83.2,22.4,78.7,16.9,78.8 M94.5,53.1c0-6.9-5.6-12.5-12.6-12.5
		c-7,0-12.6,5.5-12.6,12.4c0,6.9,5.6,12.5,12.6,12.5C88.9,65.6,94.5,60,94.5,53.1 M59.8,58.5c0,6.9-5.6,12.5-12.6,12.5
		c-7,0-12.6-5.6-12.6-12.5c0-6.9,5.6-12.4,12.6-12.4C54.2,46,59.8,51.6,59.8,58.5"/>
</g>
</svg>
