<?xml version="1.0" encoding="utf-8"?>
<!-- Generator: Adobe Illustrator 21.0.2, SVG Export Plug-In . SVG Version: 6.00 Build 0)  -->
<svg version="1.1" id="Layer_1" xmlns="http://www.w3.org/2000/svg" xmlns:xlink="http://www.w3.org/1999/xlink" x="0px" y="0px"
	 viewBox="0 0 280.6 56.2" style="enable-background:new 0 0 280.6 56.2;" xml:space="preserve">
<style type="text/css">
	.st0{fill:#2DAECF;}
	.st1{fill:#0D1F74;}
	.st2{fill:#FFFFFF;}
	.st3{clip-path:url(#SVGID_2_);fill:#FFFFFF;}
	.st4{font-family:'ArialNarrow';}
	.st5{font-size:10.4203px;}
	.st6{fill-rule:evenodd;clip-rule:evenodd;fill:#FFFFFF;}
</style>
<rect x="126.1" y="-0.1" class="st0" width="154.2" height="56.1"/>
<polygon class="st1" points="0,-0.1 0,56 126.1,56 140.1,42 140.1,-0.1 "/>
<polygon class="st2" points="12,35 12,31.1 21.1,17.5 13,17.5 13,13.9 25.7,13.9 25.7,17.2 16.2,31.4 26,31.4 26,35 "/>
<g>
	<defs>
		<rect id="SVGID_1_" y="-0.1" width="280.3" height="67"/>
	</defs>
	<clipPath id="SVGID_2_">
		<use xlink:href="#SVGID_1_"  style="overflow:visible;"/>
	</clipPath>
	<path class="st3" d="M35.5,30.1l3.3,0.7c-0.4,1.5-1.1,2.7-2.1,3.4c-0.9,0.7-2.1,1.1-3.4,1.1c-1.9,0-3.3-0.6-4.3-1.9
		c-1.2-1.4-1.8-3.4-1.8-6c0-2.5,0.6-4.6,1.8-6.1c1-1.3,2.3-1.9,3.9-1.9c1.8,0,3.2,0.7,4.2,2c1.2,1.5,1.8,3.7,1.8,6.7l0,0.5h-8.3
		c0,1.2,0.3,2.1,0.8,2.8c0.5,0.7,1.2,1,1.9,1C34.4,32.3,35.1,31.6,35.5,30.1 M35.7,26c0-1.2-0.3-2.1-0.8-2.7c-0.5-0.6-1-0.9-1.7-0.9
		c-0.7,0-1.3,0.3-1.8,0.9c-0.5,0.6-0.7,1.5-0.7,2.7H35.7z"/>
	<path class="st3" d="M41.5,19.7h3.1v2.2c0.4-0.8,1-1.4,1.7-1.9c0.7-0.5,1.4-0.7,2.2-0.7c1.4,0,2.7,0.7,3.7,2c1,1.4,1.5,3.3,1.5,5.8
		c0,2.6-0.5,4.6-1.6,6c-1,1.4-2.3,2.1-3.7,2.1c-0.7,0-1.3-0.2-1.8-0.5c-0.6-0.3-1.2-0.9-1.8-1.7v7.7h-3.3V19.7z M44.8,27.1
		c0,1.7,0.3,3,0.8,3.8s1.2,1.2,2,1.2c0.8,0,1.4-0.4,1.9-1.1c0.5-0.8,0.8-2,0.8-3.7c0-1.6-0.3-2.8-0.8-3.6c-0.5-0.8-1.2-1.2-1.9-1.2
		c-0.8,0-1.5,0.4-2,1.1C45.1,24.4,44.8,25.6,44.8,27.1"/>
	<path class="st3" d="M59.7,13.9v7.7c0.5-0.8,1.1-1.3,1.7-1.7c0.6-0.4,1.3-0.6,2.1-0.6c1,0,1.8,0.3,2.5,0.8c0.7,0.5,1.1,1.3,1.4,2.2
		c0.2,0.7,0.3,1.9,0.3,3.6v9h-3.3v-8.1c0-1.9-0.1-3-0.4-3.5c-0.3-0.6-0.9-0.9-1.7-0.9c-0.8,0-1.5,0.3-2,1c-0.5,0.7-0.7,2-0.7,3.8V35
		h-3.3v-21H59.7z"/>
	<path class="st3" d="M78.3,30.1l3.3,0.7c-0.4,1.5-1.1,2.7-2.1,3.4c-0.9,0.7-2.1,1.1-3.4,1.1c-1.9,0-3.3-0.6-4.3-1.9
		c-1.2-1.4-1.8-3.4-1.8-6c0-2.5,0.6-4.6,1.8-6.1c1-1.3,2.3-1.9,3.9-1.9c1.8,0,3.2,0.7,4.2,2c1.2,1.5,1.8,3.7,1.8,6.7l0,0.5h-8.3
		c0,1.2,0.3,2.1,0.8,2.8c0.5,0.7,1.2,1,1.9,1C77.3,32.3,78,31.6,78.3,30.1 M78.5,26c0-1.2-0.3-2.1-0.8-2.7c-0.5-0.6-1-0.9-1.7-0.9
		c-0.7,0-1.3,0.3-1.8,0.9c-0.5,0.6-0.7,1.5-0.7,2.7H78.5z"/>
	<polygon class="st3" points="82.9,35 87.4,27.2 83.1,19.7 87.1,19.7 89.4,23.6 91.7,19.7 95.5,19.7 91.3,27 95.9,35 91.9,35 
		89.3,30.5 86.8,35 	"/>
	<path class="st3" d="M101.3,12.6c0.9,0,1.7,0.3,2.5,0.8c0.8,0.5,1.5,1.3,2,2.3c0.5,1,0.8,2.1,0.8,3.3s-0.3,2.3-0.8,3.3
		c-0.5,1-1.2,1.8-2,2.3c-0.8,0.5-1.6,0.8-2.5,0.8c-0.9,0-1.7-0.3-2.5-0.8c-0.8-0.5-1.5-1.3-2-2.3c-0.5-1-0.8-2.1-0.8-3.3
		s0.3-2.3,0.8-3.3c0.5-1,1.2-1.8,2-2.3C99.6,12.9,100.5,12.6,101.3,12.6 M101.4,13.9c-0.7,0-1.4,0.2-2,0.6c-0.6,0.4-1.2,1-1.6,1.9
		c-0.4,0.8-0.6,1.7-0.6,2.7s0.2,1.9,0.6,2.7c0.4,0.8,0.9,1.4,1.6,1.9c0.6,0.4,1.3,0.6,2,0.6c0.7,0,1.4-0.2,2-0.6
		c0.6-0.4,1.2-1,1.6-1.9c0.4-0.8,0.6-1.7,0.6-2.7s-0.2-1.9-0.6-2.7c-0.4-0.8-0.9-1.4-1.6-1.9C102.7,14.1,102.1,13.9,101.4,13.9
		 M99,22.5v-6.8h1.1c1.1,0,1.8,0,2,0c0.4,0.1,0.7,0.3,1,0.6c0.3,0.3,0.4,0.7,0.4,1.3c0,0.5-0.1,0.9-0.4,1.3
		c-0.3,0.3-0.6,0.5-1.1,0.6c0.2,0.1,0.4,0.3,0.6,0.5c0.1,0.2,0.4,0.6,0.6,1.1l0.7,1.4h-1.4l-0.5-1.1c-0.3-0.7-0.6-1.2-0.8-1.4
		c-0.2-0.2-0.5-0.3-0.8-0.3h-0.3v2.8H99z M100.1,18.6h0.4c0.6,0,1,0,1.1-0.1c0.2-0.1,0.3-0.2,0.4-0.3c0.1-0.2,0.2-0.3,0.2-0.6
		c0-0.2-0.1-0.4-0.2-0.5c-0.1-0.1-0.3-0.2-0.4-0.3c-0.1,0-0.5-0.1-1.1-0.1h-0.4V18.6z"/>
</g>
<text transform="matrix(1 0 0 1 153.7738 37.9755)" class="st2 st4 st5">Medical Propellant</text>
<text transform="matrix(1 0 0 1 224.0688 37.9755)" class="st2 st4 st5">s</text>
<g>
	<path class="st6" d="M212,18.2l3.3-1c0.3-0.1,0.7-0.1,1.1-0.1c1,0,1.8,0.8,1.8,2v8.2c0,0.2-0.2,0.4-0.4,0.4h-2.1
		c-0.2,0-0.4-0.2-0.4-0.4V20c0-0.3-0.2-0.5-0.5-0.5h-2.5c-0.2,0-0.5,0.2-0.5,0.5v7.3c0,0.2-0.2,0.4-0.4,0.4h-2.1
		c-0.2,0-0.4-0.2-0.4-0.4V14.4c0-0.2,0.2-0.4,0.4-0.5l1.9-0.5c0.1,0,0.1,0,0.2,0c0.2,0,0.3,0.2,0.3,0.4V18.2z M222.9,23.9
		c0-0.3,0.2-0.5,0.4-0.5h4.4c0.8,0,1.5-0.6,1.5-1.4v-2.4c0-1.3-1-2.4-2.3-2.4h-2.6c-0.4,0-0.8,0.2-1.2,0.4L221,19
		c-0.6,0.4-0.9,1.1-0.9,1.8v4.5c0,1.3,1,2.4,2.3,2.4h3.6c0.4,0,0.8,0,1-0.2l2.2-1.4c0.2-0.1,0.2-0.2,0.2-0.4c0-0.2-0.1-0.3-0.3-0.3
		h-5.7c-0.2,0-0.4-0.2-0.4-0.5V23.9z M222.9,19.9c0-0.3,0.2-0.5,0.4-0.5h2.9c0.3,0,0.5,0.2,0.5,0.5v1.2c0,0.3-0.2,0.5-0.5,0.5h-2.9
		c-0.2,0-0.4-0.2-0.4-0.5V19.9z M202.7,17.7l-2.4,1.3c-0.6,0.3-0.9,1-0.9,1.8v4.5c0,1.3,1,2.4,2.3,2.4h3.1c0.4,0,0.7,0,0.9-0.2
		l2.2-1.4c0.2-0.1,0.3-0.3,0.2-0.5c0-0.1-0.2-0.2-0.3-0.2h-5c-0.3,0-0.5-0.2-0.5-0.5v-5c0-0.3,0.2-0.5,0.5-0.5h4.2
		c0.2,0,0.4-0.2,0.4-0.4v-1.6c0-0.2-0.2-0.4-0.4-0.4h-3.4C203.3,17.2,203,17.5,202.7,17.7 M245.7,19c0-1.1-0.8-2-1.8-2
		c-0.4,0-0.8,0.1-1.1,0.1l-3.2,1c-0.3-0.7-0.9-1.2-1.7-1.2c-0.4,0-0.8,0.1-1.1,0.1l-3,0.9l-2.2-0.9c-0.1,0-0.2-0.1-0.4-0.1
		c-0.2,0-0.4,0.2-0.4,0.4v9.7c0,0.2,0.2,0.4,0.4,0.4h2.1c0.2,0,0.4-0.2,0.4-0.4V20c0-0.3,0.2-0.5,0.5-0.5h2.2c0.3,0,0.5,0.2,0.5,0.5
		v7.3c0,0.2,0.2,0.4,0.4,0.4h2.1c0.2,0,0.4-0.2,0.4-0.4V20c0-0.3,0.2-0.5,0.5-0.5h2.2c0.2,0,0.5,0.2,0.5,0.5v7.3
		c0,0.2,0.2,0.4,0.4,0.4h2.1c0.2,0,0.4-0.2,0.4-0.4V19z"/>
	<path class="st2" d="M170.9,16.3v11c0,0.2-0.2,0.4-0.4,0.4h-2.3c-0.2,0-0.4-0.2-0.4-0.4v-9.5c0-0.3-0.2-0.5-0.5-0.5h-2.8
		c-0.2,0-0.4,0.2-0.4,0.5v9.5c0,0.2-0.2,0.4-0.4,0.4h-2.3c-0.2,0-0.4-0.2-0.4-0.4v-9.5c0-0.3-0.2-0.5-0.5-0.5h-2.8
		c-0.3,0-0.5,0.2-0.5,0.5v9.5c0,0.2-0.2,0.4-0.4,0.4h-2.3c-0.2,0-0.4-0.2-0.4-0.5v-12c0-0.5,0.4-0.7,0.6-0.7c0.1,0,0.2,0,0.4,0.1
		l2.1,0.8l3.5-0.9c0.5-0.1,0.8-0.2,1.3-0.2c0.8,0,1.4,0.5,1.7,1.2v0l3.8-1c0.5-0.1,0.8-0.2,1.3-0.2
		C170.2,14.3,170.9,15.2,170.9,16.3 M196.9,17.2h-0.4h-1.7h-2.4h-1.2h-0.8c-0.3,0-0.5,0-0.7,0.4l-1.7,2.9c-0.1,0.2-0.2,0.2-0.3,0
		l-1.7-3c-0.1-0.2-0.4-0.4-0.7-0.4h-2.1c-0.2,0-0.4,0.2-0.4,0.5c0,0.1,0,0.2,0.1,0.3l2.9,4.1c0.1,0.1,0.1,0.2,0.1,0.3
		c0,0.1,0,0.2-0.1,0.2l-3.1,4.3c0,0.1-0.1,0.2-0.1,0.3c0,0.3,0.2,0.5,0.4,0.5h2.1c0.2,0,0.5-0.2,0.7-0.4l1.9-3.2
		c0-0.1,0.1-0.1,0.2,0l1.8,3.2c0.2,0.4,0.4,0.4,0.7,0.4h2c0.2,0,0.5-0.2,0.5-0.5c0-0.2,0-0.2-0.2-0.4l-2.8-4.1
		c-0.1-0.1-0.1-0.2-0.1-0.3c0-0.1,0-0.2,0.1-0.3l2-2.9h2.5v8.1c0,0.2,0.2,0.4,0.4,0.4h2.1c0.2,0,0.4-0.2,0.4-0.4v-9.7
		C197.3,17.4,197.1,17.2,196.9,17.2 M196.7,13.4l-1.9,0.5c-0.2,0.1-0.4,0.3-0.4,0.5v1.2c0,0.2,0.2,0.4,0.4,0.4h2.1
		c0.2,0,0.4-0.2,0.4-0.4v-1.7C197.3,13.5,197.1,13.3,196.7,13.4 M182.2,25.8c0,0.1-0.1,0.3-0.2,0.4l-2.2,1.4c-0.2,0.1-0.6,0.2-1,0.2
		h-3.6c-1.2,0-2.3-1.1-2.3-2.4c0,0,0-3.8,0-4.5c0-0.7,0.3-1.5,0.9-1.8c0.6-0.4,2.2-1.4,2.2-1.4c0.4-0.2,0.8-0.4,1.2-0.4h2.6
		c1.3,0,2.3,1.1,2.3,2.4V22c0,0.8-0.7,1.4-1.5,1.4h-4.4c-0.2,0-0.5,0.2-0.5,0.5V25c0,0.3,0.2,0.5,0.5,0.5h5.7
		C182.1,25.5,182.2,25.6,182.2,25.8 M175.8,21.1c0,0.3,0.2,0.5,0.5,0.5h2.9c0.3,0,0.5-0.2,0.5-0.5v-1.2c0-0.3-0.2-0.5-0.5-0.5h-2.9
		c-0.2,0-0.5,0.2-0.5,0.5V21.1z"/>
	<path class="st2" d="M248.2,26.8c0,0-0.1-0.1-0.1-0.1v0c0,0,0.2-0.1,0.2-0.3c0-0.2-0.1-0.2-0.4-0.2h-0.4v1h0.3v-0.4h0.2l0.2,0.4
		h0.3L248.2,26.8z M247.9,26.6h-0.1v-0.2h0.1c0.1,0,0.1,0,0.1,0.1C248,26.6,248,26.6,247.9,26.6"/>
	<path class="st2" d="M247.9,25.7c-0.5,0-1,0.4-1,1c0,0.6,0.4,1,1,1c0.5,0,1-0.4,1-1C248.9,26.1,248.4,25.7,247.9,25.7 M247.9,27.4
		c-0.4,0-0.7-0.3-0.7-0.7c0-0.5,0.3-0.7,0.7-0.7c0.4,0,0.7,0.3,0.7,0.7C248.6,27.1,248.3,27.4,247.9,27.4"/>
</g>
</svg>
