<?xml version="1.0" encoding="utf-8"?>
<!-- Generator: Adobe Illustrator 21.0.2, SVG Export Plug-In . SVG Version: 6.00 Build 0)  -->
<svg version="1.1" id="Layer_1" xmlns="http://www.w3.org/2000/svg" xmlns:xlink="http://www.w3.org/1999/xlink" x="0px" y="0px"
	 viewBox="0 0 114.8 109.8" style="enable-background:new 0 0 114.8 109.8;" xml:space="preserve">
<style type="text/css">
	.st0{clip-path:url(#SVGID_2_);fill:#00B5EC;}
</style>
<title>Asset 2icon_background</title>
<g>
	<defs>
		<rect id="SVGID_1_" width="114.8" height="109.8"/>
	</defs>
	<clipPath id="SVGID_2_">
		<use xlink:href="#SVGID_1_"  style="overflow:visible;"/>
	</clipPath>
	<path class="st0" d="M87,86.1c-8.3,0-15-6.7-15-15c0-8.3,6.7-15,15-15s15,6.7,15,15C102,79.4,95.3,86.1,87,86.1 M57.2,103.9
		c-8.3,0-15-6.7-15-15s6.7-15,15-15s15,6.7,15,15S65.5,103.9,57.2,103.9 M27.4,86.1c-8.3,0-15-6.7-15-15c0-8.3,6.7-15,15-15
		c8.3,0,15,6.7,15,15C42.3,79.4,35.6,86.1,27.4,86.1 M27.9,22.4c8.3,0,15,6.7,15,15c0,8.3-6.7,15-15,15c-8.3,0-15-6.7-15-15
		C13,29.1,19.7,22.4,27.9,22.4 M57.2,6.8c8.3,0,15,6.7,15,15c0,8.3-6.7,15-15,15s-15-6.7-15-15C42.3,13.5,49,6.8,57.2,6.8
		 M72.2,55.5c0,8.3-6.7,15-15,15s-15-6.7-15-15c0-8.3,6.7-15,15-15S72.2,47.3,72.2,55.5 M86.7,22.1c8.3,0,15,6.7,15,15
		c0,8.3-6.7,15-15,15c-8.3,0-15-6.7-15-15C71.7,28.8,78.4,22.1,86.7,22.1 M109.6,35.6l-9.4-16.3C93.3,7.3,80.6,0,66.8,0H48
		C34.2,0,21.5,7.3,14.6,19.3L5.2,35.6c-6.9,11.9-6.9,26.6,0,38.6l9.4,16.3c6.9,11.9,19.6,19.3,33.4,19.3h18.9
		c13.8,0,26.5-7.3,33.4-19.3l9.4-16.3C116.5,62.2,116.5,47.5,109.6,35.6"/>
</g>
</svg>
