<?xml version="1.0" encoding="utf-8"?>
<!-- Generator: Adobe Illustrator 21.0.2, SVG Export Plug-In . SVG Version: 6.00 Build 0)  -->
<svg version="1.1" id="Layer_1" xmlns="http://www.w3.org/2000/svg" xmlns:xlink="http://www.w3.org/1999/xlink" x="0px" y="0px"
	 viewBox="0 0 281 70.4" style="enable-background:new 0 0 281 70.4;" xml:space="preserve">
<style type="text/css">
	.st0{clip-path:url(#SVGID_2_);fill:#D6D4D4;}
	.st1{clip-path:url(#SVGID_2_);fill:#D9D9D9;}
	.st2{clip-path:url(#SVGID_2_);fill:#005CA8;}
	.st3{clip-path:url(#SVGID_2_);fill:#B2B0B0;}
</style>
<g>
	<defs>
		<rect id="SVGID_1_" y="10.8" width="281.5" height="50.2"/>
	</defs>
	<clipPath id="SVGID_2_">
		<use xlink:href="#SVGID_1_"  style="overflow:visible;"/>
	</clipPath>
	<path class="st0" d="M33.6,15.2c-1.8-0.7-3.8,4.7-5.4-4.5h5.4C33.6,12.3,33.6,13.8,33.6,15.2"/>
	<path class="st1" d="M0.4,32.7c1.6,0,3.2,0,4.9,0c-0.5,1.9,3.7,3.9-4.9,5.4V32.7z"/>
	<path class="st2" d="M118.4,55.4c-1.3,0.8-2.4,1.5-3.7,2c-6.3,2.5-15.8-0.5-17.1-9.2c-0.1-0.8-0.2-1.6-0.2-2.4c0-6.4,0-12.7,0-19.1
		c0-0.7,0.1-0.9,0.9-0.9c2.3,0.1,4.5,0.1,6.8,0c0.8,0,0.9,0.3,0.9,0.9c0,6,0,12.1,0,18.1c0,2.8,1.1,4.4,4,5.3c2.6,0.8,5,0.3,7.1-1.3
		c1-0.8,1.5-1.8,1.5-3.1c0-6.3,0-12.6,0-18.9c0-0.7,0.1-0.9,0.9-0.9c2.1,0.1,4.3,0,6.4,0c0.6,0,0.8,0.2,0.8,0.8c0,9.8,0,19.5,0,29.3
		c0,0.6-0.2,0.8-0.8,0.8c-2,0-4.1,0-6.1,0C118.9,56.7,118.1,56.7,118.4,55.4"/>
	<path class="st2" d="M219,41.1c0-4.9,0-9.7,0-14.6c0-0.7,0.1-0.9,0.9-0.9c2.1,0.1,4.2,0,6.2,0c0.3,0,0.8-0.1,0.9,0.4
		c0.1,0.8,0.6,0.6,1.1,0.5c2-0.6,4-1.5,6.2-1.6c4.5-0.4,8.6,0.5,11.6,4.1c1,1.2,1.5,2.6,1.5,4.2c0,7.7,0,15.4,0,23.1
		c0,0.8-0.2,1-1,1c-1.8-0.1-3.7-0.1-5.6,0c-0.8,0-1-0.2-1-1c0-6.2,0-12.3,0-18.5c0-3.1-1.6-5-4.9-5.6c-3.3-0.6-7,1.5-7.7,4.6
		c-0.1,0.4-0.1,0.9-0.1,1.4c0,5.9,0,11.8,0,17.7c0,0.7-0.1,0.9-0.9,0.9c-2.1-0.1-4.2,0-6.3,0c-0.7,0-0.8-0.2-0.8-0.8
		C219,50.9,219,46,219,41.1"/>
	<path class="st2" d="M197.3,35.5c0-6.7,0-13.4,0-20.1c0-0.6,0.1-0.9,0.9-0.9c2.3,0.1,4.5,0,6.8,0c0.7,0,0.8,0.2,0.8,0.8
		c0,13.5,0,26.9,0,40.4c0,0.8-0.2,0.9-1,0.9c-2.2,0-4.4-0.1-6.6,0c-0.8,0-0.9-0.2-0.9-0.9C197.3,49,197.3,42.3,197.3,35.5"/>
	<path class="st2" d="M129.3,41.1c0-4.9,0-9.7,0-14.6c0-0.7,0.1-0.9,0.9-0.9c1.6,0,3.2-0.3,4.7,0.1c1.3,0.3,2.3,0,3.4-0.5
		c1.4-0.7,2.9-0.4,4.4-0.4c1.7,0,1.7,0,1.7,1.6c0,1.6,0,3.2,0,4.8c0,0.6-0.2,0.8-0.8,0.9c-1.4,0.1-2.8,0.3-4.1,0.8
		c-1.8,0.7-2.7,1.9-2.7,3.9c0.1,6.3,0,12.7,0,19c0,0.7-0.1,1-0.9,0.9c-1.9-0.1-3.8-0.1-5.7,0c-0.7,0-0.9-0.2-0.9-0.9
		C129.3,50.9,129.3,46,129.3,41.1"/>
	<path class="st2" d="M208.4,41.2c0-4.9,0-9.7,0-14.6c0-0.7,0.2-0.9,0.9-0.8c2.1,0,4.2,0,6.3,0c0.7,0,0.8,0.2,0.8,0.8
		c0,9.8,0,19.5,0,29.3c0,0.7-0.2,0.8-0.9,0.8c-2.1,0-4.2,0-6.3,0c-0.7,0-0.8-0.2-0.8-0.8C208.4,51,208.4,46.1,208.4,41.2"/>
	<path class="st2" d="M189,45.1c-2.9,0-5.1-2.2-5.1-5.1c0-2.6,2.2-4.7,4.9-4.7c3,0,5.4,2.1,5.4,4.7C194.2,43,192,45.1,189,45.1"/>
	<path class="st2" d="M212.3,22.2c-1.1,0-2.2,0-3.4,0c-0.4,0-0.6-0.1-0.6-0.6c0-2.2,0-4.3,0-6.5c0-0.4,0.1-0.6,0.6-0.6
		c2.3,0,4.5,0,6.8,0c0.4,0,0.6,0.1,0.6,0.6c0,2.2,0,4.3,0,6.5c0,0.5-0.2,0.6-0.7,0.6C214.6,22.2,213.5,22.2,212.3,22.2"/>
	<path class="st3" d="M26.5,58c-12.6,0.6-23.2-10.4-23-22.6c0.2-11.5,10.2-21.7,23.3-21.7c13.3,0,23,10.5,22.7,22.8
		C49.2,48.1,39.2,58.4,26.5,58 M52,30.4c-1.1-5.8-4.3-10.5-9-14.2c-3.9-3-8.4-4.8-13.4-5.3c-0.4-0.2-0.9-0.1-1.4-0.1h-5
		c-1.3,0-2.6,0.2-3.9,0.6c-6.9,1.9-12,5.9-15.7,11.7c-1.8,2.9-3.3,6-3.3,9.5c0,0.3,0.1,0.6-0.3,0.9V39c0.4,0.1,0.4,0.3,0.4,0.5
		c0.8,4.9,2.9,9.2,6.2,12.9c6,6.8,13.9,9.3,22.9,8.4c7-0.7,12.7-3.9,17.1-9.1C52,45.4,53.6,38.2,52,30.4"/>
	<path class="st2" d="M78.4,50.4c-4.8,0-8.9-4.1-8.9-9c0-4.9,4.1-9,9.1-9c5,0,9.1,4.1,9.1,9.1C87.7,46.5,83.5,50.4,78.4,50.4
		 M95.2,15.7c0-0.7-0.2-0.8-0.9-0.8c-2,0-4,0-6,0c-0.7,0-1.2,0.1-1.1,0.9c0,3.2-0.2,6.3-0.2,9.5V28c-0.7-0.6-1.4-1.2-2.2-1.6
		c-6.9-3.2-16.1-2.1-21.1,5.5c-2.7,4.2-2.9,8.7-1.9,13.4c0.7,3.4,2.4,6.3,4.9,8.8c3.9,4,8.9,4.7,14.2,3.8c2.5-0.4,4.9-1.1,6.6-3.2
		c0,0.7,0,1.3,0,2c0,0.6,0.1,0.8,0.8,0.8c2,0,4.1,0,6.1,0c0.7,0,0.9-0.2,0.9-0.8C95.2,43,95.2,29.3,95.2,15.7"/>
	<path class="st2" d="M160.3,49.9c-5.1,0-9.2-4-9.2-8.9c0-5.1,4.1-9,9.4-9c5.2,0,9.3,3.9,9.3,9C169.8,46,165.6,49.9,160.3,49.9
		 M177.3,39.7c0-4.4,0-8.8,0-13.1c0-0.4,0.1-0.8-0.6-0.8c-2.2,0-4.5,0-6.7,0c-0.4,0-0.6,0.1-0.5,0.5c0,0.5,0,1.1,0,1.7
		c-0.2-0.2-0.3-0.2-0.4-0.3c-7.7-5.5-18.3-3.6-23.4,4.2c-3.2,4.8-3.3,9.9-1.9,15.2c1.1,4.2,3.5,7.5,7.7,9.4c6.1,2.8,13.2,1.6,18.5-3
		c0,0.9,0,1.6,0,2.3c0,0.7,0.1,1,0.9,0.9c1.8-0.1,3.6-0.1,5.4,0c0.8,0,1-0.2,1-0.9C177.3,50.4,177.3,45.1,177.3,39.7"/>
	<path class="st2" d="M257.7,43.5c-1.4-2.2-0.9-5.9,1-8.2c3.5-4.3,6.3-4.6,11.6-3.3C266.1,35.9,261.9,39.7,257.7,43.5 M281.4,32.4
		c-0.2-1.1-1.1-1.9-2-2.8c-0.1-0.1-0.1-0.1-0.2-0.2c-7.4-6.9-20.3-8-27.9,2.6c-5.1,7.1-2.9,17.2,4.7,22.6c4,2.8,8.6,3.4,13.4,2.9
		c1.8-0.2,3.6-0.6,5-1.9c0.4-0.3,0.5-0.7,0.5-1.2c-0.1-2.2-0.1-4.5-0.1-6.7c0-0.9,0-1.9,0-2.8c-1.3,2.2-3.2,3.6-5.5,4.5
		c-1.1,0.4-2.3,0.7-3.5,0.4c-1-0.3-1-0.5-0.3-1.2c4.6-4.6,9.3-9.1,13.9-13.7C280.2,34.1,281.7,33.6,281.4,32.4"/>
	<path class="st3" d="M27.2,52.4c-9.7,0-18-8.2-17.7-17.2c-0.3-9.3,8-17.5,18.1-17.4c9.7,0.1,17.4,7.8,17.4,17.3
		C45,44.8,36.3,52.4,27.2,52.4 M26.9,14.6c-11.9-0.2-22,9.4-22,21.1c0,11.7,9.8,21.6,21.3,21.4c12.1,0.2,22.5-9.3,22.4-21.3
		C48.6,23.7,38.3,14.8,26.9,14.6"/>
	<path class="st3" d="M29.3,45.5c-6.6,0-12.3-5.5-12-11.8c-0.4-6.1,5.6-11.5,12-11.4c6.8,0.1,12.1,5.1,12.2,11.6
		C41.5,40.2,36,45.5,29.3,45.5 M43.9,32.3c-1.1-6.8-7.3-12.6-14.3-13.3c-6.3-0.6-11.3,1.4-15.2,6.1c-3.2,3.9-4,8.4-3.1,13.2
		C13,46.8,21.2,53,31.1,50.9c7.1-1.5,13-8.2,13-16.1C44.2,34,44,33.1,43.9,32.3"/>
	<path class="st3" d="M31.8,37.2c-2.7,0.2-5.1-1.8-5.1-5.3c0-3.4,2.8-5.3,5.2-5.3c3.1,0.1,5.5,2.4,5.5,5.3
		C37.4,34.9,34.8,37.5,31.8,37.2 M39.9,33.9c0-6-4.7-10.6-10.9-10.6c-5.8,0-10.4,4.6-10.5,10.4c0,5.9,4.8,10.5,10.9,10.6
		C35.4,44.2,40.2,39,39.9,33.9"/>
</g>
</svg>
