<?xml version="1.0" encoding="utf-8"?>
<!-- Generator: Adobe Illustrator 21.0.2, SVG Export Plug-In . SVG Version: 6.00 Build 0)  -->
<svg version="1.1" id="Layer_1" xmlns="http://www.w3.org/2000/svg" xmlns:xlink="http://www.w3.org/1999/xlink" x="0px" y="0px"
	 viewBox="0 0 114.8 109.8" style="enable-background:new 0 0 114.8 109.8;" xml:space="preserve">
<style type="text/css">
	.st0{clip-path:url(#SVGID_2_);fill:#00B5EC;}
</style>
<g>
	<defs>
		<rect id="SVGID_1_" y="5" width="114.8" height="98.7"/>
	</defs>
	<clipPath id="SVGID_2_">
		<use xlink:href="#SVGID_1_"  style="overflow:visible;"/>
	</clipPath>
	<path class="st0" d="M114.8,69.1h-9.6v3.7h-1.1c-10.4,0-20.7,0-31.1,0c-0.3,0-0.5,0-0.7,0c-0.2-0.1-0.5-0.3-0.5-0.4
		c0-1.3,0-2.7,0-4.1h4.7v-8.9H38.3v9H43v1.2c0,5.7,0,11.3,0,17c0,1,0.1,2,0.3,2.9c1.6,6.4,7.2,10.6,14.2,10.6c15.4,0,30.8,0,46.3,0
		h1.4v3.7h9.5V69.1z M0,41.1V5h9.4v4.4h1.4c15.4,0,30.8,0,46.2,0c7,0,12.6,4,14.3,10.3c0.3,1.2,0.4,2.4,0.4,3.6c0,5.5,0,11,0,16.5
		v1.3h4.8v9H38.3v-8.9H43v-4.5H9.5v4.4H0z"/>
</g>
</svg>
