<?xml version="1.0" encoding="utf-8"?>
<!-- Generator: Adobe Illustrator 21.0.2, SVG Export Plug-In . SVG Version: 6.00 Build 0)  -->
<svg version="1.1" id="Layer_1" xmlns="http://www.w3.org/2000/svg" xmlns:xlink="http://www.w3.org/1999/xlink" x="0px" y="0px"
	 viewBox="0 0 114.8 109.8" style="enable-background:new 0 0 114.8 109.8;" xml:space="preserve">
<style type="text/css">
	.st0{clip-path:url(#SVGID_2_);fill:#00B5EC;}
</style>
<g>
	<defs>
		<rect id="SVGID_1_" x="4" width="107.8" height="109.8"/>
	</defs>
	<clipPath id="SVGID_2_">
		<use xlink:href="#SVGID_1_"  style="overflow:visible;"/>
	</clipPath>
	<path class="st0" d="M37.2,95.4c-3.9,0-7,3.2-7,7.1c0,3.9,3.1,7.2,7,7.2c4.4,0,7.1-3.6,7.1-7.1C44.3,98.6,41.1,95.4,37.2,95.4
		 M78.6,95.4c-3.9,0-7.1,3.3-7.1,7.2c0,3.9,3.3,7.2,7.1,7.1c3.9,0,7-3.2,7-7.2C85.6,98.6,82.5,95.4,78.6,95.4 M19.4,94.3
		c0.3,2,0.6,4,0.9,6.1h6.6c0.1-0.3,0.2-0.5,0.2-0.7c1.4-4.7,5.3-7.8,10.1-7.8c4.7-0.1,8.8,3,10.1,7.7c0.2,0.7,0.4,0.9,1.1,0.9
		c6.4,0,12.7,0,19.1,0c0.2,0,0.5,0,0.7,0c1.4-5.5,5.8-8.5,10-8.5c5.7,0,9.1,3.1,10.7,8.5h6.6c0.6-4.1,1.2-8.2,1.7-12.3H18.5
		C18.8,90.3,19.1,92.3,19.4,94.3 M4,41.8h107.8V31H4V41.8z M30,22.7c0.7,0.5,1.4,0.4,2.2,0.1c2.2-1,5.4,2,7.5,0.8
		c2.3-1.4,3.5-5.4,5.9-4.1c2,1.1,4.2,1.8,6.3,2.7c1.4,0.5,2.6-0.2,2.6-1.5c0.1-1-0.6-1.5-1.4-1.8c-3.3-1.4-6.6-2.8-9.9-4.1
		c-0.6-0.2-1.4-0.1-2.1,0.1c-1,0.3-1.9,0.9-2.9,1.3c-2.5,1.2-5,2.3-7.5,3.5C29.2,20.3,28.9,21.9,30,22.7 M57.3,11.1
		c0,1.7,1.1,2.5,2.5,2c1.9-0.7,1.2,6.8,3.1,6.1c0.6-0.2,3.7-8.4,4.1-7.8c0.9,1.1,2,2.2,3,3.3c0.8,0.8,1.8,0.8,2.5,0.2
		c0.8-0.7,0.8-1.8,0-2.6c-1.4-1.6-2.8-3.2-4.3-4.6c-0.4-0.4-1.3-0.7-1.8-0.5c-2.7,0.9-5.4,1.8-8,2.9C57.9,10.2,57.5,10.9,57.3,11.1
		 M14.2,21.4c-0.1-0.7,0.1-1.1,0.8-1.5c3.3-1.4,6.5-3,9.8-4.4c1.3-0.6,1.8-1.3,1.8-2.8c-0.1-3.5,6.7-2.3,6.7-5.9
		c2.3-0.4-2.2-5.5,0.1-5.9c1.7-0.3,3.3-0.7,5-0.9c0.5-0.1,1.2,0,1.6,0.3c2.6,1.8,5.1,3.6,7.6,5.5c0.9,0.7,1.7,0.7,2.7,0.2
		c3.7-2,7.5-3.9,11.2-5.8c0.4-0.2,1.5,2.2,2,2.3c5.3,1.2,10.2-0.1,15.5,1c0.7,0.2,1,0.4,1.2,1.2c0.4,2.1,0.8,4.1,1.3,6.1
		c0.1,0.5,0.4,1,0.7,1.3c2.4,2.2,4.8,4.4,7.2,6.5c0.5,0.4,1.2,0.7,1.9,0.7c2,0.1,3.9,0,5.9,0.1c0.3,0,0.8,0.2,0.9,0.5
		c0.9,2.3,1.8,4.7,2.7,7.1c0,0.1,0,0.2,0,0.4H78.5c0-0.1,0-0.1-0.1-0.2c1.4-0.6,2.7-1.3,4.1-1.9c0.6-0.3,1.3-0.6,1.9-0.9
		c0.8-0.5,1-1.2,0.8-2.1c-0.3-0.9-1-1.3-1.9-1.1c-0.3,0-6.4-2.6-6.7-2.4c-1.8,0.8,2.2,4.3,0.4,5.2c-1.6,0.8-1.9,2-0.6,3.4
		c-0.4,0-0.6,0.1-0.9,0.1c-19.9,0-39.9,0-59.9,0c-0.8,0-1.1-0.2-1.1-1.1C14.5,24.7,14.4,23,14.2,21.4 M12.4,45.5h91
		c-1.8,13-3.7,25.9-5.5,38.9H18C16.1,71.5,14.3,58.5,12.4,45.5"/>
</g>
</svg>
