<?xml version="1.0" encoding="utf-8"?>
<!-- Generator: Adobe Illustrator 21.0.2, SVG Export Plug-In . SVG Version: 6.00 Build 0)  -->
<svg version="1.1" id="Layer_1" xmlns="http://www.w3.org/2000/svg" xmlns:xlink="http://www.w3.org/1999/xlink" x="0px" y="0px"
	 viewBox="0 0 280.6 66.9" style="enable-background:new 0 0 280.6 66.9;" xml:space="preserve">
<style type="text/css">
	.st0{fill:#2C4278;}
	.st1{fill:url(#SVGID_1_);}
	.st2{fill:#0C2F6D;}
	.st3{fill:#0B2F6D;}
	.st4{fill:#0E306E;}
	.st5{fill:#0F306E;}
	.st6{fill:#2B4177;}
</style>
<g id="NkTHTs.tif">
	<g>
		<path class="st0" d="M214.4,23.8c-0.6,2.9-2.8,2.4-4.7,2c-4.6-0.9-9.1-1.9-13.7-2.9c-0.8-0.2-1.6-0.3-2.5-0.3
			c-10.8-0.6-15.2,3.5-15.4,14.2c0,1.8,0,3.5,0,5.3c0.3,9.8,5.3,14.1,15.1,13.2c5.4-0.5,10.6-1.9,15.9-3.1c2.2-0.5,4.7-1.1,5.3,2.2
			c-0.5,2.5-0.3,4.9-0.1,7.4c-1.3,2.2-3.7,2.5-5.8,3c-4.2,1.1-8.5,1.7-12.8,1.9c-2.7-0.4-5.4-0.3-8.1,0c-10.2-0.9-19.1-4-23.3-14.3
			c-3.7-8.8-3.6-17.9-0.2-26.8c3.4-9,11-13,20-14.3c9-1.3,18-0.5,26.8,2.3c1.4,0.4,3.1,0.7,3.6,2.6C214,18.8,214.1,21.3,214.4,23.8z
			"/>
		<path class="st0" d="M142.8,65.2c-0.7,1.4-2,1.3-3.2,1.3c-3.5,0-7.1-0.1-10.6,0c-2,0.1-3-0.8-3.8-2.5
			c-7.3-16.3-14.7-32.6-22.1-48.9c-1.5-3.3-1.3-3.7,2.4-3.7c3.1,0,6.2,0,9.4,0c2.7,0,4.4,1,5.5,3.6c4.4,10.5,9,21,13.5,31.5
			c1.1,0.3,1.4,1.2,1.8,2C138,54.1,140.6,59.6,142.8,65.2z"/>
		<linearGradient id="SVGID_1_" gradientUnits="userSpaceOnUse" x1="141.1862" y1="49.3054" x2="166.1756" y2="5.1461">
			<stop  offset="2.343750e-03" style="stop-color:#0085AF"/>
			<stop  offset="1" style="stop-color:#32A340"/>
		</linearGradient>
		<path class="st1" d="M170.9,0.5c-0.9-1-1.9-0.3-2.9,0.1c-6,2.6-10.8,6.8-14.8,12l0,0c-0.8,0.4-1.2,1-1.5,1.8l0,0c0,0,0,0,0,0
			c-1.3,1.1-2.2,2.4-2.9,3.8c-1.3,1.5-2.5,3.1-3.3,5c-1.4,1.7-2.3,3.6-3.1,5.5c0,0,0,0,0,0c0,0,0,0,0,0c-1.8,2.9-3.4,6-4.5,9.3
			c0,0,0,0,0,0c0,0,0,0,0,0c-1.4,2.9-2.8,5.7-4.1,8.6c1.9,4.3,3.6,8.6,5.6,12.8c1,2,1.1,4.5,3.3,5.8c2.1-5.6,4.4-11.2,6-17
			c1.6-3.2,3.1-6.5,3.8-10c1.3-1.9,2.1-4,2.6-6.2c1.1-1.7,1.9-3.6,2.4-5.6c1.1-1.6,1.9-3.3,2.5-5.1c0.2-0.4,0.4-0.8,0.6-1.2l0,0
			c3.3-5.5,6.5-11,9.8-16.6C171.1,2.6,172,1.6,170.9,0.5z"/>
		<path class="st2" d="M244.6,66.9c3.1-0.8,6.2-0.8,9.3,0C250.8,66.9,247.7,66.9,244.6,66.9z"/>
		<path class="st3" d="M187.6,66.9c2.7-0.8,5.4-0.8,8.1,0C193,66.9,190.3,66.9,187.6,66.9z"/>
		<path class="st4" d="M214.4,23.8c-0.8-2.5-0.8-5,0-7.4C214.7,18.8,214.7,21.3,214.4,23.8z"/>
		<path class="st5" d="M214.3,61.9c-0.6-2.5-0.9-5,0.1-7.4C214.6,57,214.8,59.4,214.3,61.9z"/>
		<path class="st6" d="M46,13.1c-2.2-0.7-4.4-1.1-6.7-1.3C27.8,11,16.3,11.6,4.9,11.5c-1.8,0-3.4,0.7-4.9,1.7c0,17.7,0,35.4,0,53.2
			c3.8,0,7.7,0.2,11.5,0.1c3.2-0.1,4.5-1.5,4.6-4.7c0.1-2.8,0.3-5.7,0-8.4c-0.4-3.4,1-4,4.1-4c8.1,0,16.2,0.8,24.3-1.1
			c8.9-2.1,14.2-8,14.5-16.4C59.4,22,55.3,16.1,46,13.1z M35.2,36.9c-5.8,0.8-11.6,0.3-17.5,0.4c-1.3,0-1.6-0.5-1.6-1.7
			c0-3.4,0.1-6.9,0-10.3c0-1.4,0.6-1.7,1.9-1.7c2.7,0.1,5.4,0,8.1,0c0,0.1,0,0.1,0,0.2c3,0,6-0.2,9,0.1c4.4,0.4,6.1,2.4,6.1,6.3
			C41.3,34.6,39.8,36.3,35.2,36.9z"/>
		<path class="st0" d="M279.9,31.2c-1.9-10.3-8.3-16.5-18.4-18.8c-8-1.9-16.1-1.9-24.1-0.2c-7.1,1.5-13.3,4.8-16.5,11.6
			c-5,10.7-4.7,21.7,1.1,32.1c4.8,8.5,13.6,10.3,22.5,11c3.1-0.3,6.2-0.3,9.3,0c1.6-0.2,3.3-0.3,4.9-0.6c9.1-1.6,16.5-5.7,19.7-15.1
			C280.8,44.7,281.1,37.9,279.9,31.2z M262.6,45.9c-0.7,4.5-3.3,7.3-7.8,8.2c-4,0.8-8.1,0.8-12.1-0.2c-4-1-6.5-3.5-7.3-7.6
			c-0.9-5-1.1-9.9-0.1-14.9c0.8-4,3.1-6.7,7.2-7.7c4.2-1.1,8.5-1,12.7-0.2c4.4,0.9,6.8,3.7,7.6,8.1c0.4,2.4,0.5,4.8,0.7,7.2
			C263.1,41.2,263,43.6,262.6,45.9z"/>
		<path class="st0" d="M116.2,63.6c-7.7-16.4-15.3-32.7-22.9-49.1c-1-2.1-2.4-3-4.6-3c-3.2,0-6.5,0.1-9.7,0
			c-2.8-0.1-4.3,1.1-5.5,3.6c-7,15.2-14,30.4-21.1,45.5c-3,6.5-3.2,5.5,3.6,6.1c6.7,0.6,10.9-1.3,12.4-8.1c0.5-2,1.8-2.4,3.7-2.4
			c7.1,0.1,14.2,0.3,21.2-0.1c3.3-0.1,5,0.9,5.9,3.9c1.4,5.1,4.2,8,9.1,6.4c2.5,0,4.2-0.1,5.9,0C116.9,66.7,117.2,65.7,116.2,63.6z
			 M90,44.3c-4.3,0-8.5,0-12.8,0c-1.4,0-1.6-0.4-1-1.7c2.4-5,4.8-10.1,7.4-15.6c2.6,5.5,5,10.6,7.4,15.6
			C91.6,43.8,91.3,44.3,90,44.3z"/>
	</g>
</g>
</svg>
