<?xml version="1.0" encoding="utf-8"?>
<!-- Generator: Adobe Illustrator 21.0.2, SVG Export Plug-In . SVG Version: 6.00 Build 0)  -->
<svg version="1.1" id="Layer_1" xmlns="http://www.w3.org/2000/svg" xmlns:xlink="http://www.w3.org/1999/xlink" x="0px" y="0px"
	 viewBox="0 0 54.5 56.2" style="enable-background:new 0 0 54.5 56.2;" xml:space="preserve">
<style type="text/css">
	.st0{clip-path:url(#SVGID_2_);fill:#00B5EC;}
</style>
<title>key_figuresAsset 2icon</title>
<g>
	<defs>
		<rect id="SVGID_1_" width="54.5" height="56.2"/>
	</defs>
	<clipPath id="SVGID_2_">
		<use xlink:href="#SVGID_1_"  style="overflow:visible;"/>
	</clipPath>
	<path class="st0" d="M49.3,44.8c1.3,0,2.3-1.1,2.3-2.4c0-1.3-1-2.4-2.3-2.4C48,40,47,41,47,42.4C47,43.7,48,44.8,49.3,44.8
		 M53.3,46.6c-0.5-0.8-1.2-1.2-2.2-1.2c-1.2,0-2.4,0-3.6,0c-0.5,0-0.9,0.1-1.3,0.4c-0.6,0.5-1,1.1-1.3,1.8c-0.5,1.3-0.7,2.7-0.7,4.1
		c0,1,0,2.1,0,3.1c0,0.6,0.7,1,1.3,0.7c0.4-0.2,0.4-0.6,0.4-1c-0.1-1.3-0.1-2.6,0-3.9c0.1-0.8,0.2-1.6,0.5-2.4
		c0-0.1,0.1-0.1,0.1-0.2c0,0,0,0,0,0V56l5.6,0v-7.9c0,0,0,0,0,0c0,0.1,0.1,0.1,0.1,0.2c0.4,1,0.5,2.1,0.6,3.2c0,1.1,0,2.2,0,3.3
		c0,0.5,0.3,0.9,0.8,0.9c0.5,0,0.8-0.3,0.9-0.8c0-0.4,0-0.7,0-1.1c0.1-1.5,0-3.1-0.3-4.6C54.1,48.3,53.8,47.4,53.3,46.6 M47,22.9
		c0,1.3,1,2.4,2.3,2.4c1.3,0,2.3-1.1,2.3-2.4c0-1.3-1-2.4-2.3-2.4C48,20.4,47,21.5,47,22.9 M53.3,27.1c-0.5-0.8-1.2-1.2-2.2-1.2
		c-1.2,0-2.4,0-3.6,0c-0.5,0-0.9,0.1-1.3,0.4c-0.6,0.5-1,1.1-1.3,1.8c-0.5,1.3-0.7,2.7-0.7,4.1c0,1,0,2.1,0,3.1c0,0.6,0.7,1,1.3,0.7
		c0.4-0.2,0.4-0.6,0.4-1c-0.1-1.3-0.1-2.6,0-3.9c0.1-0.8,0.2-1.6,0.5-2.4c0-0.1,0.1-0.1,0.1-0.2c0,0,0,0,0,0v7.9l5.6,0v-7.9
		c0,0,0,0,0,0c0,0.1,0.1,0.1,0.1,0.2c0.4,1,0.5,2.1,0.6,3.2c0,1.1,0,2.2,0,3.3c0,0.5,0.3,0.9,0.8,0.9c0.5,0,0.8-0.3,0.9-0.8
		c0-0.4,0-0.7,0-1.1c0.1-1.5,0-3.1-0.3-4.6C54.1,28.8,53.8,27.9,53.3,27.1 M49.3,4.8c1.3,0,2.3-1.1,2.3-2.4c0-1.3-1-2.4-2.3-2.4
		C48,0,47,1.1,47,2.4C47,3.7,48,4.8,49.3,4.8 M45.5,15.6c0.4-0.2,0.4-0.6,0.4-1c-0.1-1.3-0.1-2.6,0-3.9c0.1-0.8,0.2-1.6,0.5-2.4
		c0-0.1,0.1-0.1,0.1-0.2c0,0,0,0,0,0V16l5.6,0V8.1c0,0,0,0,0,0c0,0.1,0.1,0.1,0.1,0.2c0.4,1,0.5,2.1,0.6,3.2c0,1.1,0,2.2,0,3.3
		c0,0.5,0.3,0.9,0.8,0.9c0.5,0,0.8-0.3,0.9-0.8c0-0.4,0-0.7,0-1.1c0.1-1.5,0-3.1-0.3-4.6c-0.2-0.9-0.4-1.8-1-2.6
		c-0.5-0.8-1.2-1.2-2.2-1.2c-1.2,0-2.4,0-3.6,0c-0.5,0-0.9,0.1-1.3,0.4c-0.6,0.5-1,1.1-1.3,1.8c-0.5,1.3-0.7,2.7-0.7,4.1
		c0,1,0,2.1,0,3.1C44.2,15.5,44.9,15.9,45.5,15.6 M34.7,44.8c1.3,0,2.3-1.1,2.3-2.4c0-1.3-1-2.4-2.3-2.4c-1.3,0-2.3,1.1-2.3,2.4
		C32.3,43.7,33.4,44.8,34.7,44.8 M38.6,46.6c-0.5-0.8-1.2-1.2-2.2-1.2c-1.2,0-2.4,0-3.6,0c-0.5,0-0.9,0.1-1.3,0.4
		c-0.6,0.5-1,1.1-1.3,1.8c-0.5,1.3-0.7,2.7-0.7,4.1c0,1,0,2.1,0,3.1c0,0.6,0.7,1,1.3,0.7c0.4-0.2,0.4-0.6,0.4-1
		c-0.1-1.3-0.1-2.6,0-3.9c0.1-0.8,0.2-1.6,0.5-2.4c0-0.1,0.1-0.1,0.1-0.2c0,0,0,0,0,0V56l5.6,0v-7.9c0,0,0,0,0,0
		c0,0.1,0.1,0.1,0.1,0.2c0.4,1,0.5,2.1,0.6,3.2c0,1.1,0,2.2,0,3.3c0,0.5,0.3,0.9,0.8,0.9c0.5,0,0.8-0.3,0.9-0.8c0-0.4,0-0.7,0-1.1
		c0.1-1.5,0-3.1-0.3-4.6C39.4,48.3,39.1,47.4,38.6,46.6 M34.7,25.3c1.3,0,2.3-1.1,2.3-2.4c0-1.3-1-2.4-2.3-2.4
		c-1.3,0-2.3,1.1-2.3,2.4C32.3,24.2,33.4,25.3,34.7,25.3 M38.6,27.1c-0.5-0.8-1.2-1.2-2.2-1.2c-1.2,0-2.4,0-3.6,0
		c-0.5,0-0.9,0.1-1.3,0.4c-0.6,0.5-1,1.1-1.3,1.8c-0.5,1.3-0.7,2.7-0.7,4.1c0,1,0,2.1,0,3.1c0,0.6,0.7,1,1.3,0.7
		c0.4-0.2,0.4-0.6,0.4-1c-0.1-1.3-0.1-2.6,0-3.9c0.1-0.8,0.2-1.6,0.5-2.4c0-0.1,0.1-0.1,0.1-0.2c0,0,0,0,0,0v7.9l5.6,0v-7.9
		c0,0,0,0,0,0c0,0.1,0.1,0.1,0.1,0.2c0.4,1,0.5,2.1,0.6,3.2c0,1.1,0,2.2,0,3.3c0,0.5,0.3,0.9,0.8,0.9c0.5,0,0.8-0.3,0.9-0.8
		c0-0.4,0-0.7,0-1.1c0.1-1.5,0-3.1-0.3-4.6C39.4,28.8,39.1,27.9,38.6,27.1 M34.7,4.8c1.3,0,2.3-1.1,2.3-2.4c0-1.3-1-2.4-2.3-2.4
		c-1.3,0-2.3,1.1-2.3,2.4C32.3,3.7,33.4,4.8,34.7,4.8 M38.6,6.6c-0.5-0.8-1.2-1.2-2.2-1.2c-1.2,0-2.4,0-3.6,0
		c-0.5,0-0.9,0.1-1.3,0.4c-0.6,0.5-1,1.1-1.3,1.8c-0.5,1.3-0.7,2.7-0.7,4.1c0,1,0,2.1,0,3.1c0,0.6,0.7,1,1.3,0.7
		c0.4-0.2,0.4-0.6,0.4-1c-0.1-1.3-0.1-2.6,0-3.9c0.1-0.8,0.2-1.6,0.5-2.4c0-0.1,0.1-0.1,0.1-0.2c0,0,0,0,0,0V16l5.6,0V8.1
		c0,0,0,0,0,0c0,0.1,0.1,0.1,0.1,0.2c0.4,1,0.5,2.1,0.6,3.2c0,1.1,0,2.2,0,3.3c0,0.5,0.3,0.9,0.8,0.9c0.5,0,0.8-0.3,0.9-0.8
		c0-0.4,0-0.7,0-1.1c0.1-1.5,0-3.1-0.3-4.6C39.4,8.3,39.1,7.4,38.6,6.6 M11.4,10.7c2.8,0,5.2-2.4,5.2-5.4c0-2.9-2.3-5.3-5.2-5.3
		C8.6,0,6.3,2.4,6.3,5.3C6.3,8.2,8.6,10.7,11.4,10.7 M22.3,20.5c0.6,3.3,0.7,6.7,0.6,10.1c0,0.8-0.1,1.6-0.1,2.4
		c-0.1,1-0.9,1.8-1.9,1.7c-1-0.1-1.7-1-1.7-2c0-2.4,0.1-4.9,0.1-7.3c-0.1-2.4-0.4-4.8-1.2-7.1c-0.1-0.1-0.1-0.3-0.2-0.4
		c0,0-0.1,0-0.1,0v0.4c0,11.6,0,23.2,0,34.8c0,1.8-1.2,3-2.9,2.9c-1.5,0-2.7-1.3-2.7-3c0-6.9,0-13.8,0-20.7c0-0.2,0-0.3,0-0.5h-1.1
		v0.5c0,6.9,0,13.8,0,20.7c0,1.2-0.5,2.1-1.6,2.7c-1,0.5-2.1,0.4-3-0.3c-0.7-0.6-1.1-1.4-1.1-2.4c0-11.6,0-23.2,0-34.7v-0.5
		c0,0,0,0-0.1,0C5.1,18.1,5,18.2,5,18.4c-0.7,1.7-0.9,3.5-1.1,5.2c-0.3,2.9-0.3,5.8-0.1,8.6c0,0.9-0.1,1.6-0.9,2.1
		c-1.2,0.7-2.7-0.1-2.8-1.5C0.1,30.6,0,28.3,0,26c0.1-3.1,0.4-6.1,1.5-9c0.6-1.6,1.5-3,2.8-4C5.2,12.3,6.2,12,7.2,12
		c2.7,0,5.4,0.1,8.1,0c2.2-0.1,3.7,0.9,4.9,2.7C21.3,16.4,21.9,18.4,22.3,20.5"/>
</g>
</svg>
