<?xml version="1.0" encoding="utf-8"?>
<!-- Generator: Adobe Illustrator 21.0.2, SVG Export Plug-In . SVG Version: 6.00 Build 0)  -->
<svg version="1.1" id="Layer_1" xmlns="http://www.w3.org/2000/svg" xmlns:xlink="http://www.w3.org/1999/xlink" x="0px" y="0px"
	 viewBox="0 0 280.6 56.2" style="enable-background:new 0 0 280.6 56.2;" xml:space="preserve">
<style type="text/css">
	.st0{fill:#2DAECF;}
	.st1{fill:#5FB640;}
	.st2{fill:#FFFFFF;}
	.st3{font-family:'ArialNarrow-Bold';}
	.st4{font-size:29.3768px;}
	.st5{font-size:17.1757px;}
	.st6{font-family:'ArialNarrow';}
	.st7{font-size:10.1473px;}
	.st8{fill-rule:evenodd;clip-rule:evenodd;fill:#FFFFFF;}
</style>
<g>
	<rect x="126.3" y="0" class="st0" width="154.3" height="56.2"/>
	<polygon class="st1" points="0,0 0,56.2 126.3,56.2 140.3,42.1 140.3,0 	"/>
	<text transform="matrix(1 0 0 1 10.5346 35.1044)" class="st2 st3 st4">Klea</text>
	<text transform="matrix(1 0 0 1 61.4135 25.2958)" class="st2 st3 st5">®</text>
	<text transform="matrix(1 0 0 1 153.976 37.4286)" class="st2 st6 st7">Refrigerant</text>
	<text transform="matrix(1 0 0 1 195.1322 37.4286)" class="st2 st6 st7">s</text>
	<g>
		<path class="st8" d="M212.2,18.3l3.4-1c0.3-0.1,0.7-0.1,1.1-0.1c1,0,1.8,0.8,1.8,2v8.3c0,0.2-0.2,0.4-0.4,0.4H216
			c-0.2,0-0.4-0.2-0.4-0.4v-7.3c0-0.3-0.2-0.5-0.5-0.5h-2.5c-0.2,0-0.5,0.2-0.5,0.5v7.3c0,0.2-0.2,0.4-0.4,0.4h-2.1
			c-0.2,0-0.4-0.2-0.4-0.4l0-12.9c0-0.2,0.2-0.4,0.4-0.5l1.9-0.5c0.1,0,0.1,0,0.2,0c0.2,0,0.4,0.2,0.4,0.4V18.3z M223.1,23.9
			c0-0.3,0.2-0.5,0.5-0.5h4.4c0.8,0,1.5-0.6,1.5-1.4v-2.4c0-1.3-1-2.4-2.3-2.4h-2.6c-0.4,0-0.8,0.1-1.2,0.4l-2.2,1.4
			c-0.6,0.4-0.9,1.1-0.9,1.8v4.5c0,1.3,1,2.4,2.3,2.4h3.6c0.4,0,0.8,0,1-0.2l2.2-1.4c0.2-0.1,0.2-0.2,0.2-0.4c0-0.2-0.1-0.3-0.3-0.3
			h-5.7c-0.2,0-0.5-0.2-0.5-0.5V23.9z M223.1,19.9c0-0.3,0.2-0.5,0.5-0.5h2.9c0.2,0,0.5,0.2,0.5,0.5v1.2c0,0.3-0.2,0.5-0.5,0.5h-2.9
			c-0.2,0-0.5-0.2-0.5-0.5V19.9z M202.9,17.7l-2.4,1.3c-0.6,0.3-0.9,1-0.9,1.8v4.5c0,1.3,1,2.4,2.3,2.4h3.1c0.4,0,0.7,0,0.9-0.2
			l2.2-1.4c0.2-0.1,0.3-0.3,0.2-0.5c0-0.1-0.2-0.2-0.3-0.2h-5c-0.3,0-0.5-0.2-0.5-0.5v-5c0-0.3,0.2-0.5,0.5-0.5h4.2
			c0.2,0,0.4-0.2,0.4-0.4v-1.6c0-0.2-0.2-0.4-0.4-0.4h-3.4C203.5,17.3,203.1,17.6,202.9,17.7 M245.9,19.1c0-1.1-0.8-2-1.8-2
			c-0.4,0-0.8,0.1-1.1,0.1l-3.2,1c-0.3-0.7-0.9-1.2-1.7-1.2c-0.4,0-0.8,0.1-1.1,0.1l-3,0.9l-2.2-0.9c-0.1,0-0.2-0.1-0.4-0.1
			c-0.2,0-0.4,0.2-0.4,0.4v9.7c0,0.2,0.2,0.4,0.4,0.4h2.1c0.2,0,0.4-0.2,0.4-0.4V20c0-0.3,0.2-0.5,0.5-0.5h2.2
			c0.3,0,0.5,0.2,0.5,0.5v7.3c0,0.2,0.2,0.4,0.4,0.4h2.1c0.2,0,0.4-0.2,0.4-0.4V20c0-0.3,0.2-0.5,0.5-0.5h2.2c0.3,0,0.5,0.2,0.5,0.5
			v7.3c0,0.2,0.2,0.4,0.4,0.4h2.1c0.2,0,0.4-0.2,0.4-0.4V19.1z"/>
		<path class="st2" d="M171.1,16.4v11c0,0.2-0.2,0.4-0.4,0.4h-2.3c-0.2,0-0.4-0.2-0.4-0.4v-9.5c0-0.3-0.2-0.5-0.5-0.5h-2.8
			c-0.2,0-0.5,0.2-0.5,0.5v9.5c0,0.2-0.2,0.4-0.4,0.4h-2.3c-0.2,0-0.4-0.2-0.4-0.4v-9.5c0-0.3-0.2-0.5-0.5-0.5h-2.8
			c-0.3,0-0.5,0.2-0.5,0.5v9.5c0,0.2-0.2,0.4-0.4,0.4h-2.3c-0.2,0-0.4-0.2-0.4-0.5v-12c0-0.5,0.4-0.7,0.6-0.7c0.1,0,0.2,0,0.4,0.1
			l2.1,0.8l3.5-0.9c0.5-0.1,0.8-0.2,1.3-0.2c0.8,0,1.4,0.5,1.7,1.2v0l3.8-1c0.5-0.1,0.8-0.2,1.3-0.2
			C170.3,14.4,171.1,15.2,171.1,16.4 M197.1,17.3h-0.4H195h-2.4h-1.2h-0.8c-0.3,0-0.5,0-0.7,0.4l-1.7,2.9c-0.1,0.2-0.2,0.2-0.3,0
			l-1.7-3c-0.1-0.2-0.4-0.4-0.7-0.4h-2.1c-0.2,0-0.4,0.2-0.4,0.5c0,0.1,0,0.2,0.1,0.3l2.9,4.1c0.1,0.1,0.1,0.2,0.1,0.3
			c0,0.1,0,0.2,0,0.2L183,27c0,0.1-0.1,0.2-0.1,0.3c0,0.3,0.2,0.5,0.4,0.5h2.1c0.2,0,0.5-0.2,0.7-0.4l1.9-3.2c0-0.1,0.2-0.1,0.2,0
			l1.8,3.2c0.2,0.4,0.4,0.4,0.7,0.4h2c0.2,0,0.5-0.2,0.5-0.5c0-0.2,0-0.2-0.2-0.5l-2.8-4.1c-0.1-0.1-0.1-0.2-0.1-0.3
			c0-0.1,0-0.2,0.1-0.3l2-2.9h2.5v8.1c0,0.2,0.2,0.4,0.4,0.4h2.1c0.2,0,0.4-0.2,0.4-0.4v-9.7C197.5,17.5,197.3,17.3,197.1,17.3
			 M196.9,13.5L195,14c-0.2,0-0.4,0.3-0.4,0.5v1.2c0,0.2,0.2,0.4,0.4,0.4h2.1c0.2,0,0.4-0.2,0.4-0.4v-1.7
			C197.5,13.6,197.3,13.4,196.9,13.5 M182.4,25.9c0,0.1-0.1,0.3-0.2,0.4l-2.2,1.4c-0.2,0.1-0.6,0.2-1,0.2h-3.6
			c-1.2,0-2.3-1.1-2.3-2.4c0,0,0-3.8,0-4.5c0-0.7,0.3-1.5,0.9-1.8c0.6-0.4,2.2-1.4,2.2-1.4c0.4-0.2,0.8-0.4,1.2-0.4h2.6
			c1.3,0,2.3,1.1,2.3,2.4V22c0,0.8-0.7,1.4-1.5,1.4h-4.4c-0.3,0-0.5,0.2-0.5,0.5v1.1c0,0.3,0.2,0.5,0.5,0.5h5.7
			C182.3,25.5,182.4,25.6,182.4,25.9 M176,21.1c0,0.3,0.2,0.5,0.5,0.5h2.9c0.2,0,0.5-0.2,0.5-0.5v-1.2c0-0.3-0.2-0.5-0.5-0.5h-2.9
			c-0.3,0-0.5,0.2-0.5,0.5V21.1z"/>
		<path class="st2" d="M248.4,26.9C248.4,26.8,248.4,26.8,248.4,26.9L248.4,26.9c-0.1-0.1,0.1-0.2,0.1-0.4c0-0.2-0.1-0.2-0.4-0.2
			h-0.4v1h0.3v-0.4h0.2l0.2,0.4h0.3L248.4,26.9z M248.1,26.7H248v-0.2h0.1c0.1,0,0.1,0,0.1,0.1C248.2,26.6,248.2,26.7,248.1,26.7"/>
		<path class="st2" d="M248.1,25.8c-0.5,0-1,0.4-1,1c0,0.6,0.4,1,1,1c0.6,0,1-0.4,1-1C249.1,26.2,248.6,25.8,248.1,25.8 M248.1,27.5
			c-0.4,0-0.7-0.3-0.7-0.7c0-0.5,0.3-0.7,0.7-0.7c0.4,0,0.7,0.3,0.7,0.7C248.8,27.2,248.5,27.5,248.1,27.5"/>
	</g>
</g>
</svg>
