<?xml version="1.0" encoding="utf-8"?>
<!-- Generator: Adobe Illustrator 21.0.2, SVG Export Plug-In . SVG Version: 6.00 Build 0)  -->
<svg version="1.1" id="Layer_1" xmlns="http://www.w3.org/2000/svg" xmlns:xlink="http://www.w3.org/1999/xlink" x="0px" y="0px"
	 viewBox="0 0 280.6 67" style="enable-background:new 0 0 280.6 67;" xml:space="preserve">
<style type="text/css">
	.st0{clip-path:url(#SVGID_2_);fill-rule:evenodd;clip-rule:evenodd;}
</style>
<g>
	<defs>
		<rect id="SVGID_1_" width="280.6" height="67"/>
	</defs>
	<clipPath id="SVGID_2_">
		<use xlink:href="#SVGID_1_"  style="overflow:visible;"/>
	</clipPath>
	<path class="st0" d="M42.2,39.5c0.6,1.4,1.3,3.1,2,4.6c0.8,1.3,1.5,2,2.7,2.3l2.3,0.1v2c-3-0.1-5.9-0.2-8.9-0.2
		c-2.3,0-5.2,0.1-8.9,0.2v-2l3.2-0.1c1.4-0.1,2.7-0.6,2.7-1.4c0-0.9-0.8-2.7-1.5-4.3L33,33H13.8L12,37.4c-0.6,1.5-2.4,5.9-2.4,6.9
		c0,1.4,1.1,1.7,3.2,1.9l2.5,0.1v2c-3.2-0.1-5.7-0.2-7.6-0.2c-2.6,0-5.1,0.1-7.6,0.2v-2l2.4-0.1C4,46.1,5.2,44.7,6,43l11.8-27
		c2-4.7,4.3-9.6,6.1-14.3h2L42.2,39.5z M31.8,30.4l-8.4-19.8l-8.4,19.8H31.8z"/>
	<path class="st0" d="M51,7.1c0-1.6-0.2-2.7-1.7-2.7h-3.8V2.4C49.1,1.9,52.6,1.3,56,0l0.6,0.5v41c0,1.8,0.1,3.2,0.3,3.9
		c0.2,0.7,1,0.9,2.2,1l3,0.1v2c-2.4-0.1-5-0.2-8.3-0.2c-3.2,0-5.9,0.1-8.3,0.2v-2l3.1-0.1c1.1-0.1,1.9-0.3,2.2-1
		c0.2-0.7,0.3-2,0.3-3.9V7.1z"/>
	<path class="st0" d="M62.8,26.5c0-2.2-0.1-3.6-0.5-4.1c-0.5-0.6-1.1-0.8-2.5-0.8h-2.5v-1.8c4-0.5,8-1.7,10.5-2.7l0.6,0.2v6.3h0.1
		l5.3-4.8c1.1-1,3.4-1.7,6.3-1.7c7.1,0,13.4,5.4,13.4,13.5c0,4.4-3.5,11-5.7,12.4l-7.6,5c-1.1,0.7-2.8,1-4.6,1
		c-2.2,0-5.1-0.2-7.3-1.7V60c0,1.8,0,3.1,0.3,3.9c0.2,0.6,1,0.8,2,0.9l3.1,0.2v1.9c-2.4,0-5-0.1-8.3-0.1c-3.2,0-5.9,0.1-8.3,0.1V65
		l3.1-0.2c1.1-0.1,1.8-0.3,2.2-0.9c0.2-0.8,0.3-2,0.3-3.9V26.5z M68.4,41.8c2.5,2.8,5.7,3.9,9.4,3.9c5.4,0,10-5.5,10-13
		c0-6.3-3.4-11.3-10.5-11.3c-4.9,0-7.5,3-8.7,5c-0.3,0.7-0.3,1.3-0.3,1.8V41.8z"/>
	<path class="st0" d="M96,7.1c0-1.6-0.2-2.7-1.7-2.7h-3.8V2.4C94,1.9,97.5,1.3,101,0l0.6,0.5V23h0.1l4.9-4.2
		c1.5-1.4,2.7-1.7,5.5-1.7c7.7,0,10.9,4.3,10.9,11.6v12.7c0,1.8,0.1,3.2,0.3,3.9c0.2,0.7,1,0.9,2.2,1l2.7,0.1v2
		c-1.7-0.1-3.6-0.2-5.5-0.2c-1.9,0-3.9,0.1-5.4,0.2V29.6c0-5.6-3.1-8.4-7.6-8.4c-4.1,0-8.2,3.5-8.2,6.1v14.1c0,1.8,0,3.2,0.3,3.9
		c0.2,0.7,1,0.9,2.2,1l3,0.1v2c-2.4-0.1-5-0.2-8.3-0.2c-3.2,0-5.9,0.1-8.2,0.2v-2l3-0.1c1.1-0.1,1.9-0.3,2.2-1
		c0.2-0.7,0.3-2,0.3-3.9V7.1z"/>
	<path class="st0" d="M146.4,29.1c0-5.2-2.5-8.5-8.4-8.5c-2.8,0-3.8,0.2-4.7,1.4c-0.3,0.6-0.7,1.4-1.1,2.2l-0.8,2.2l-1.8-0.6v-4.3
		l3.5-2c3-1.7,5.7-2.3,7.7-2.3c8.3,0,10.9,3.6,10.9,13.2v12.2c0,1.1,0,2.2,0.1,2.8c0.1,0.7,0.8,1,1.7,1l2.6,0.1v2
		c-1.7-0.1-3.4-0.2-5-0.2c-1.7,0-3.4,0.1-5.1,0.2l0.3-5.7l-8.3,5.7c-0.5,0.5-1.8,0.6-3.1,0.6c-4.4,0-8.1-2.6-8.1-8.1
		c0-7.6,6.7-9.6,12.9-10.7L146.4,29.1z M146.4,31.2c-3.3,0.5-6.4,1-9.8,2.4c-2.3,0.9-4,3.8-4,6.3c0,3.4,2.6,5.5,5.2,5.5
		c2,0,4.2-1.5,6.4-3.1c1-0.8,1.8-1.8,2.2-2.2V31.2z"/>
	<path class="st0" d="M191.1,35.1c0-1.6-0.6-2.3-2.3-2.4l-5.6-0.5v-1.9c2.7,0,5.5,0.1,8.2,0.1c2.6,0,5.3-0.1,8.1-0.1l0.3,1.6
		l-1.9,0.7c-0.8,0.2-0.8,0.6-0.8,2.5v11.2c-5.7,1.7-12.9,3.4-17.4,3.4c-14.9,0-26.9-7.7-26.9-24.5c0-14.6,12.1-24,28.1-24
		c8.2,0,13.4,1.8,16.5,2.7c-0.8,3.1-1.4,6.6-1.4,10h-2v-3.5c0-3.1-2.4-4.1-5.6-5.2c-2-0.8-4.9-1.3-9.2-1.3
		C166.5,3.9,160,12.2,160,24c0,13.3,7.6,22.8,21.4,22.8c5.1,0,8.9-1.1,9.3-2.3c0.2-0.8,0.3-1.1,0.3-2.7V35.1z"/>
	<path class="st0" d="M217.1,29.1c0.1-5.2-2.5-8.5-8.4-8.5c-2.8,0-3.8,0.2-4.6,1.4c-0.5,0.6-0.8,1.4-1.1,2.2l-0.9,2.2l-1.7-0.6v-4.3
		l3.5-2c2.8-1.7,5.6-2.3,7.7-2.3c8.3,0,10.8,3.6,10.8,13.2v12.2c0,1.1,0,2.2,0.2,2.8c0.1,0.7,0.7,1,1.6,1l2.6,0.1v2
		c-1.7-0.1-3.3-0.2-5-0.2c-1.7,0-3.4,0.1-5.1,0.2l0.3-5.7l-8.2,5.7c-0.6,0.5-1.9,0.6-3.1,0.6c-4.6,0-8.2-2.6-8.2-8.1
		c0-7.6,6.7-9.6,12.9-10.7L217.1,29.1z M217.1,31.2c-3.3,0.5-6.3,1-9.7,2.4c-2.4,0.9-4,3.8-4,6.3c0,3.4,2.5,5.5,5.1,5.5
		c2,0,4.2-1.5,6.4-3.1c1.1-0.8,1.9-1.8,2.2-2.2V31.2z"/>
	<path class="st0" d="M229,26.5c0-2.2-0.1-3.6-0.5-4.1c-0.3-0.6-1-0.8-2.4-0.8h-2.5v-1.8c4-0.5,8-1.7,10.4-2.7l0.6,0.2V24h0.2
		l3.5-4.2c1.6-1.9,3.9-2.7,5.6-2.7c1.1,0,2.6,0.3,3.1,0.7l-0.6,8h-1.4c-0.8-1.6-2.2-3-4.6-3c-3,0-5.9,3-5.9,7.3v11.4
		c0,1.8,0.1,3.2,0.3,3.9c0.3,0.7,1.4,0.9,2.8,1l3.4,0.1v2c-3.4-0.1-6-0.2-9.3-0.2c-3.3,0-5.9,0.1-8.3,0.2v-2l3.1-0.1
		c1.1-0.1,1.8-0.3,2-1c0.3-0.7,0.3-2,0.3-3.9V26.5z"/>
	<path class="st0" d="M272,23.1c1-2.5,0-3.2-2.4-3.4l-1.7-0.1v-1.8c2.2,0,4.2,0.1,6.4,0.1c2,0,4.2-0.1,6.3-0.1v1.8l-1.8,0.1
		c-1.6,0.1-3.1,2.3-5.6,8.1L259.6,59c-2.2,4.8-4.6,8.1-10.1,8.1c-1.1,0-2.6-0.5-3.3-0.9l1.6-5h0.9c0.8,0.8,2.4,1.6,3.3,1.5
		c3.9-0.2,6-5.6,7.3-8.7l1.6-4.1l-11-26.9c-1-2.5-1.9-3.2-3.4-3.3l-1.3-0.1v-1.8c2.6,0,5.1,0.1,7.7,0.1c2.6,0,5.1-0.1,7.7-0.1v1.8
		l-2.5,0.1c-1.9,0.1-3.1,0.8-1.6,4.3l7.6,18.6L272,23.1z"/>
	<path class="st0" d="M35.2,59v0.5c0,0.2,0.2,0.5,0.7,0.5h0.5v0.5c-0.6,0-1.1-0.1-1.7-0.1c-0.7,0-1.3,0.1-1.8,0.1v-0.5h0.5
		c0.5,0,0.8,0,0.9-0.5l0.5-6.9l-0.7,1.1c-1.4,2.3-2.7,4.6-4,6.8h-0.2l-2-7.6L26.1,59C26,59.2,26,59.4,26,59.5c0,0.2,0.2,0.3,0.7,0.3
		h0.5v0.5c-0.5,0-1-0.1-1.5-0.1c-0.5,0-1,0.1-1.5,0.1V60c0.7-0.1,1-0.3,1.1-0.9l1.9-6.8c0.2-0.7-0.5-0.8-0.9-0.8H26l0.1-0.3h1h1.1
		l2,7.6l3.2-5.6c0.5-0.7,0.8-1.4,1.1-2h1.1h1.1v0.3h-0.6c-0.3,0-0.6,0.1-0.6,0.5L35.2,59z"/>
	<path class="st0" d="M40.6,59.1c0,0.1,0,0.3,0.2,0.3c0.2,0,0.6-0.2,0.9-0.6l0.1,0.2c-1,0.9-1.6,1.3-1.9,1.3c-0.2,0-0.3-0.1-0.3-0.3
		c0-0.3,0.1-0.6,0.1-0.8l0.3-1.6c-0.7,1-1.6,1.9-2,2.3c-0.6,0.5-0.8,0.6-1,0.6c-0.3,0-0.5-0.9-0.5-1.1c0-1.3,0.9-4,1.7-4.6
		c0.9-0.8,1.3-0.9,1.9-0.9c0.5,0,0.8,0.1,1.1,0.2l0.5-0.2l0.1,0.1L40.6,59.1z M38.2,55.8c-0.3,0.8-0.7,2.2-0.7,3.1
		c0,0.5,0,0.6,0.2,0.6c0.5,0,1.3-0.9,1.7-1.5c0.5-0.7,0.9-1.4,1.3-3.2c-0.5-0.1-0.8-0.2-1.1-0.2C38.8,54.5,38.6,55,38.2,55.8"/>
	<path class="st0" d="M46.8,55.4c-0.2-0.2-0.3-0.2-0.6-0.2c-0.3,0-0.8,0.6-1,0.8c-0.7,0.8-0.9,1.6-1.1,2.6l-0.3,1.6
		c-0.3,0-0.6,0.1-0.9,0.1h-0.1c0.5-1.5,0.8-3.3,0.9-4.3c0.1-0.6,0.1-0.8,0.1-0.9c0-0.1,0-0.3-0.2-0.3c-0.1,0-0.3,0.2-0.7,0.3
		l-0.3,0.2l-0.1-0.2l0.5-0.2c1.3-0.9,1.5-1,1.7-1c0.3,0,0.3,0.3,0.2,1c-0.1,0.6-0.2,1.1-0.3,1.8v0.1c0.2-0.6,0.7-1.3,0.9-1.6
		c0.3-0.6,0.9-1.4,1.6-1.4c0.1,0,0.1,0,0.2,0.1c-0.1,0.5-0.1,0.9-0.2,1.5H46.8z"/>
	<path class="st0" d="M48.5,57.1L48.5,57.1c1-1.5,2.6-3.3,3.6-3.3c0.2,0,0.5,0,0.7,0.1l-0.2,0.8c-1-0.2-1.9,0.5-2.6,1.1L49.7,56
		c0.5,1.1,0.8,2.3,1.4,3.3c0,0.1,0.1,0.2,0.3,0.2c0.1,0,0.2,0,0.3-0.1l0.6-0.3l0.1,0.3l-0.6,0.3c-0.3,0.2-0.9,0.6-1.1,0.6
		c-0.1,0-0.2-0.1-0.5-0.5c-0.2-0.3-0.9-2.3-1.1-3.1c-0.5,0.5-0.8,1-0.9,1.7l-0.3,1.6L47,60.3l-0.1-0.1c0.5-1.7,0.8-3.2,1.1-4.7
		l0.6-3.5c0.1-0.1,0.1-0.3,0.1-0.3c0-0.3-0.2-0.3-0.5-0.3h-0.7v-0.2c0.3-0.1,0.8-0.1,1.1-0.2c0.3-0.1,0.7-0.2,1-0.3l0.2,0.1
		L48.5,57.1z"/>
	<path class="st0" d="M53.6,57.4c-0.1,0.5-0.1,0.8-0.1,1.1c0,0.7,0.3,1.3,1.1,1.3c0.5,0,1.3-0.5,1.7-0.8l0.3-0.2l0.1,0.3
		c-0.7,0.6-1.8,1.4-2.6,1.4c-1.1,0-1.7-0.7-1.7-1.7c0-0.7,0.2-1.6,0.5-2.2c0.2-0.7,0.5-1.3,1-1.6c0.6-0.5,1.4-1.1,2.2-1.1
		c0.7,0,1.1,0.3,1.1,1c0,1-0.8,1.6-1.6,1.9c-0.3,0.1-0.7,0.2-0.9,0.3L53.6,57.4z M53.7,57.1c0.5-0.1,0.9-0.3,1.4-0.5
		c0.6-0.3,1.3-0.9,1.3-1.6c0-0.5-0.2-0.7-0.7-0.7c-0.2,0-0.5,0.1-0.7,0.1c-0.7,0.3-1,1.4-1.1,2L53.7,57.1z"/>
	<path class="st0" d="M57.6,55.1l0.1-0.2c0.2,0,0.8-0.3,1.1-0.5l0.3-2.3c0.2-0.1,0.7-0.2,1-0.5l0.1,0.2c-0.2,0.8-0.5,1.6-0.6,2.6
		c0.5,0,0.9-0.1,1.5-0.1L61,55.1h-1.4c-0.2,1.3-0.6,3-0.7,3.6c0,0.1-0.1,0.3-0.1,0.6c0,0.1,0.1,0.2,0.2,0.2c0.2,0,0.5-0.2,0.8-0.5
		l0.6-0.3l0.2,0.2c-0.8,0.6-1.3,1-1.7,1.3c-0.2,0.1-0.6,0.1-0.7,0.1c-0.3,0-0.5-0.1-0.5-0.5c0-0.3,0.1-0.8,0.2-1l0.7-3.8H57.6z"/>
	<path class="st0" d="M72,59.2v0.5c0.6,0,1.1,0.1,1.7,0.1c0.6,0,1.6,0,2-0.1c0.1,0,0.2-0.1,0.5-0.8l0.2-0.8h0.3
		c-0.1,0.6-0.2,1.4-0.2,1.6v0.6c-0.5,0.1-1,0.1-1.4,0.1c-1.1,0-2.2-0.1-3.2-0.1c-0.9,0-1.4,0.1-1.9,0.1l0.1-0.3
		c0.3-0.1,0.7-0.1,0.8-0.5l1.1-6.7c0-0.6,0.1-0.8,0.1-1c0-0.2-0.1-0.3-0.5-0.3h-0.7v-0.3h1.9h1.5v0.3H74c-0.5,0-0.6,0.1-0.7,0.7
		L72,59.2z"/>
	<path class="st0" d="M78.2,57.4c-0.1,0.5-0.1,0.8-0.1,1.1c0,0.7,0.3,1.3,1.1,1.3c0.5,0,1.3-0.5,1.7-0.8l0.3-0.2l0.1,0.3
		c-0.7,0.6-1.8,1.4-2.6,1.4c-1.1,0-1.7-0.7-1.7-1.7c0-0.7,0.2-1.6,0.5-2.2c0.2-0.7,0.5-1.3,1-1.6c0.6-0.5,1.4-1.1,2.2-1.1
		c0.7,0,1.1,0.3,1.1,1c0,1-0.8,1.6-1.6,1.9c-0.3,0.1-0.7,0.2-0.9,0.3L78.2,57.4z M78.3,57.1c0.5-0.1,0.9-0.3,1.4-0.5
		c0.7-0.3,1.3-0.9,1.3-1.6c0-0.5-0.2-0.7-0.7-0.7c-0.2,0-0.5,0.1-0.7,0.1c-0.7,0.3-1,1.4-1.1,2L78.3,57.1z"/>
	<path class="st0" d="M85.8,59.1c0,0.1-0.1,0.3,0.1,0.3c0.3,0,0.7-0.2,1-0.6l0.1,0.2c-1,0.9-1.7,1.3-1.9,1.3c-0.2,0-0.3-0.1-0.3-0.3
		c0-0.3,0-0.6,0.1-0.8l0.3-1.6c-0.8,1-1.6,1.9-2,2.3c-0.6,0.5-0.8,0.6-1,0.6c-0.5,0-0.5-0.9-0.5-1.1c0-1.3,0.8-4,1.6-4.6
		c1-0.8,1.4-0.9,2-0.9c0.3,0,0.7,0.1,1.1,0.2l0.3-0.2l0.2,0.1L85.8,59.1z M83.4,55.8c-0.3,0.8-0.8,2.2-0.8,3.1
		c0,0.5,0.1,0.6,0.3,0.6c0.5,0,1.3-0.9,1.7-1.5c0.5-0.7,0.9-1.4,1.3-3.2c-0.5-0.1-0.8-0.2-1.1-0.2C84,54.5,83.7,55,83.4,55.8"/>
	<path class="st0" d="M92,58.5c-0.1,0.2-0.1,0.5-0.1,0.7c0,0.1,0,0.2,0.1,0.2c0.1,0,0.3,0,0.6-0.1l0.6-0.5l0.1,0.2l-1,0.8
		c-0.5,0.3-0.8,0.5-1,0.5c-0.2,0-0.3-0.1-0.3-0.3c0-0.5,0.1-0.9,0.2-1.4l0.2-1.1c-1.1,1.7-2.4,3-3.3,3c-0.6,0-0.6-0.9-0.6-1.5
		c0-0.7,0.2-3.2,1.7-4.2c0.7-0.6,1-0.9,1.7-0.9c0.3,0,0.8,0.1,1.1,0.2l0.3-2v-0.3c0-0.3-0.1-0.3-0.5-0.3h-0.6v-0.2
		c0.3-0.1,0.7-0.1,1.1-0.2c0.3-0.1,0.7-0.2,1-0.3l0.1,0.1L92,58.5z M89.6,54.7c-0.7,0.5-1.3,2.8-1.3,4.1c0,0.3,0,0.6,0.3,0.6
		c0.2,0,0.8-0.2,1.3-0.7c0.9-0.8,1.5-2,1.7-3.2l0.2-0.8c-0.5-0.2-0.9-0.2-1.5-0.2C90.1,54.5,89.9,54.5,89.6,54.7"/>
	<path class="st0" d="M94.7,57.4v1.1c0,0.7,0.2,1.3,1,1.3c0.6,0,1.3-0.5,1.7-0.8l0.3-0.2l0.1,0.3c-0.7,0.6-1.8,1.4-2.6,1.4
		c-1.1,0-1.6-0.7-1.6-1.7c0-0.7,0.2-1.6,0.3-2.2c0.2-0.7,0.5-1.3,1-1.6c0.6-0.5,1.5-1.1,2.2-1.1c0.7,0,1.3,0.3,1.3,1
		c0,1-0.8,1.6-1.7,1.9c-0.3,0.1-0.6,0.2-0.9,0.3L94.7,57.4z M94.8,57.1c0.5-0.1,1-0.3,1.5-0.5c0.6-0.3,1.1-0.9,1.1-1.6
		c0-0.5-0.2-0.7-0.7-0.7c-0.2,0-0.5,0.1-0.6,0.1c-0.8,0.3-1,1.4-1.3,2L94.8,57.1z"/>
	<path class="st0" d="M102.9,55.4c-0.1-0.2-0.2-0.2-0.5-0.2c-0.5,0-0.9,0.6-1.1,0.8c-0.6,0.8-0.9,1.6-1.1,2.6l-0.3,1.6
		c-0.2,0-0.6,0.1-0.8,0.1h-0.2c0.5-1.5,0.8-3.3,1-4.3c0.1-0.6,0.1-0.8,0.1-0.9c0-0.1-0.1-0.3-0.2-0.3c-0.1,0-0.3,0.2-0.7,0.3
		l-0.3,0.2l-0.1-0.2l0.3-0.2c1.4-0.9,1.6-1,1.8-1c0.3,0,0.3,0.3,0.2,1c-0.2,0.6-0.3,1.1-0.5,1.8v0.1c0.3-0.6,0.7-1.3,1-1.6
		c0.3-0.6,0.8-1.4,1.5-1.4c0.1,0,0.2,0,0.3,0.1c-0.1,0.5-0.2,0.9-0.2,1.5H102.9z"/>
	<path class="st0" d="M103.7,58.3v1.1c0.3,0.2,0.8,0.5,1.3,0.5c0.9,0,1.6-0.5,1.6-1.5c0-0.6-0.2-0.7-0.8-0.8l-0.8-0.2
		c-0.8-0.1-1.4-0.5-1.4-1.4c0-0.5,0.2-0.8,0.6-1.1c0.5-0.6,1.3-1,2-1c0.5,0,0.9,0.1,1.4,0.3c-0.1,0.6-0.2,1-0.2,1.5H107V55
		c-0.2-0.5-0.8-0.6-1.3-0.6c-0.7,0-1.4,0.5-1.4,1.3c0,0.7,0.6,0.8,1,0.9l0.6,0.1c0.8,0.1,1.5,0.3,1.5,1.3c0,0.8-0.3,1.3-1,1.7
		c-0.6,0.5-1.1,0.8-1.9,0.8c-0.5,0-0.9-0.1-1.4-0.3c0.1-0.7,0.2-1.3,0.2-1.8H103.7z"/>
	<path class="st0" d="M109.6,56.6h0.1c0.3-0.5,0.7-0.9,1.1-1.3c0.9-0.9,1.9-1.5,2.4-1.5c0.3,0,0.5,0.2,0.5,0.5c0,0.3-0.1,0.7-0.2,1
		l-0.8,3.4c-0.1,0.2-0.1,0.3-0.1,0.6c0,0.1,0.1,0.2,0.1,0.2c0.2,0,0.6-0.2,0.9-0.5l0.3-0.2l0.1,0.2c-0.6,0.5-1,0.8-1.5,1
		c-0.2,0.1-0.5,0.2-0.7,0.2c-0.2,0-0.3-0.1-0.3-0.5c0-0.3,0-0.8,0.1-1l0.7-2.6c0.1-0.6,0.2-0.9,0.2-1.3c0-0.1-0.1-0.2-0.3-0.2
		c-0.6,0-1.9,1.3-2.5,2.4c-0.6,0.9-0.7,2.3-0.8,3.1l-0.9,0.1l-0.1-0.1c0.3-1,0.9-3.5,1.1-5.1l0.6-3.1v-0.3c0-0.3-0.1-0.3-0.5-0.3
		h-0.6v-0.2c0.3-0.1,0.7-0.1,1.1-0.2c0.3-0.1,0.7-0.2,1-0.3l0.1,0.1L109.6,56.6z"/>
	<path class="st0" d="M115.9,58.7c-0.1,0.2-0.1,0.3-0.1,0.6c0,0.1,0.1,0.2,0.2,0.2c0.1,0,0.5-0.2,0.8-0.5l0.3-0.2l0.1,0.2
		c-0.6,0.5-1,0.8-1.5,1c-0.2,0.1-0.5,0.2-0.7,0.2s-0.3-0.1-0.3-0.5c0-0.3,0.1-0.8,0.1-1l0.9-3.2c0-0.2,0.1-0.5,0.1-0.6
		c0-0.1-0.1-0.3-0.2-0.3c-0.2,0-0.3,0.2-0.7,0.3l-0.3,0.2l-0.1-0.2l0.3-0.2c1.3-0.9,1.6-1,1.7-1c0.5,0,0.5,0.2,0.3,0.8L115.9,58.7z
		 M116.3,51.7c0-0.5,0.3-0.9,0.7-0.9c0.3,0,0.6,0.2,0.6,0.6c0,0.5-0.3,0.9-0.8,0.9C116.4,52.2,116.3,52,116.3,51.7"/>
	<path class="st0" d="M118.3,63.7c-0.3,0-0.6,0.1-0.9,0.2l-0.1-0.1c0.1-0.7,0.5-2.2,0.8-3.8l0.6-3.5c0.1-0.6,0.2-1.1,0.2-1.5
		c0-0.1-0.1-0.3-0.2-0.3c-0.2,0-0.3,0.2-0.7,0.3l-0.5,0.2v-0.2l0.3-0.2c1.3-0.9,1.6-1,1.7-1c0.3,0,0.3,0.3,0.2,1l-0.2,1.5
		c0.6-1,2-2.5,3.2-2.5c0.7,0,0.8,1.1,0.8,1.6c0,0.9-0.5,2.4-1,3.2c-0.5,0.7-1.1,1.1-1.9,1.5c-0.2,0.2-0.6,0.3-0.9,0.3
		c-0.2,0-0.6-0.1-0.8-0.2L118.3,63.7z M118.9,59.4c0.3,0.2,0.8,0.3,1.1,0.3c0.5,0,0.9-0.1,1.3-0.6c0.6-1,1.3-2.5,1.3-3.6
		c0-0.3-0.1-0.9-0.5-0.9c-0.3,0-0.6,0-0.8,0.1c-1,0.7-1.9,2-2.2,3.3L118.9,59.4z"/>
	<path class="st0" d="M128.3,58.7v0.6c0,0.1,0,0.2,0.1,0.2c0.2,0,0.6-0.2,0.8-0.5l0.3-0.2l0.2,0.2c-0.6,0.5-1,0.8-1.5,1
		c-0.2,0.1-0.5,0.2-0.7,0.2c-0.2,0-0.5-0.1-0.5-0.5c0-0.3,0.1-0.8,0.2-1l0.9-3.2v-0.6c0-0.1,0-0.3-0.2-0.3c-0.1,0-0.3,0.2-0.7,0.3
		l-0.3,0.2l-0.1-0.2l0.5-0.2c1.3-0.9,1.6-1,1.7-1c0.3,0,0.5,0.2,0.3,0.8L128.3,58.7z M128.7,51.7c0-0.5,0.3-0.9,0.8-0.9
		c0.2,0,0.5,0.2,0.5,0.6c0,0.5-0.2,0.9-0.7,0.9C129,52.2,128.7,52,128.7,51.7"/>
	<path class="st0" d="M132,56.9L132,56.9c0.6-0.9,1.1-1.6,1.8-2c0.7-0.7,1.5-1,1.9-1c0.3,0,0.5,0.2,0.5,0.5c0,0.3-0.1,0.7-0.1,1
		l-0.9,3.4v0.6c0,0.1,0,0.2,0.1,0.2c0.1,0,0.6-0.2,0.8-0.5l0.3-0.2l0.1,0.2c-0.5,0.5-0.9,0.8-1.4,1c-0.2,0.1-0.5,0.2-0.7,0.2
		c-0.3,0-0.5-0.1-0.5-0.5c0-0.3,0.1-0.8,0.2-1L135,56c0.1-0.3,0.1-0.7,0.1-0.9c0-0.2,0-0.3-0.2-0.3s-0.6,0.2-0.9,0.5
		c-0.7,0.3-1.4,1.4-1.8,2.2c-0.3,0.8-0.6,1.9-0.7,2.7c-0.3,0.1-0.7,0.2-0.9,0.2l-0.1-0.1c0.3-1.1,0.6-2.5,0.8-3.6
		c0.1-0.6,0.2-1.1,0.2-1.5c0-0.1,0-0.3-0.2-0.3c-0.1,0-0.3,0.2-0.7,0.3l-0.3,0.2l-0.1-0.2l0.3-0.2c1.4-0.9,1.6-1,1.8-1
		c0.3,0,0.3,0.3,0.2,1L132,56.9z"/>
	<path class="st0" d="M145.5,52.1c-0.3-0.5-0.9-0.7-1.5-0.7c-1.1,0-2.2,0.8-2.2,2c0,0.9,0.5,1.4,1.3,1.6l0.9,0.1
		c1,0.2,1.9,0.7,1.9,1.9c0,2-2,3.3-3.9,3.3c-0.6,0-1.5-0.1-2-0.5c0.1-0.7,0.2-1.4,0.3-2h0.3v1.4c0.6,0.5,1.3,0.6,1.9,0.6
		c1.3,0,2.3-0.9,2.3-2.2c0-0.8-0.3-1.3-1.1-1.4l-1.3-0.3c-1.1-0.2-1.6-0.9-1.6-2c0-1.8,1.8-3.1,3.5-3.1c0.6,0,1.3,0.1,1.7,0.5
		c-0.1,0.6-0.2,1.1-0.3,1.8h-0.3V52.1z"/>
	<path class="st0" d="M147.4,63.7c-0.3,0-0.6,0.1-0.9,0.2l-0.1-0.1c0.1-0.7,0.5-2.2,0.8-3.8l0.6-3.5c0.1-0.6,0.2-1.1,0.2-1.5
		c0-0.1-0.1-0.3-0.2-0.3c-0.2,0-0.3,0.2-0.7,0.3l-0.5,0.2v-0.2l0.3-0.2c1.3-0.9,1.6-1,1.7-1c0.3,0,0.5,0.3,0.2,1l-0.2,1.5
		c0.6-1,2-2.5,3.2-2.5c0.7,0,0.8,1.1,0.8,1.6c0,0.9-0.5,2.4-1,3.2c-0.5,0.7-1.1,1.1-1.9,1.5c-0.2,0.2-0.6,0.3-0.9,0.3
		c-0.2,0-0.6-0.1-0.8-0.2L147.4,63.7z M148.1,59.4c0.3,0.2,0.8,0.3,1.1,0.3c0.5,0,0.9-0.1,1.3-0.6c0.7-1,1.3-2.5,1.3-3.6
		c0-0.3-0.1-0.9-0.5-0.9c-0.3,0-0.6,0-0.8,0.1c-1,0.7-1.9,2-2.2,3.3L148.1,59.4z"/>
	<path class="st0" d="M154,57.4c0,0.5-0.1,0.8-0.1,1.1c0,0.7,0.3,1.3,1.1,1.3c0.5,0,1.3-0.5,1.7-0.8l0.3-0.2l0.1,0.3
		c-0.7,0.6-1.8,1.4-2.6,1.4c-1.1,0-1.7-0.7-1.7-1.7c0-0.7,0.2-1.6,0.5-2.2c0.2-0.7,0.5-1.3,1-1.6c0.6-0.5,1.5-1.1,2.2-1.1
		s1.1,0.3,1.1,1c0,1-0.8,1.6-1.6,1.9c-0.3,0.1-0.6,0.2-0.9,0.3L154,57.4z M154.1,57.1c0.5-0.1,0.9-0.3,1.5-0.5
		c0.6-0.3,1.1-0.9,1.1-1.6c0-0.5-0.2-0.7-0.7-0.7c-0.2,0-0.5,0.1-0.7,0.1c-0.7,0.3-1,1.4-1.1,2L154.1,57.1z"/>
	<path class="st0" d="M162.1,55.1c0-0.2-0.2-0.3-0.3-0.5c-0.2-0.1-0.5-0.1-0.8-0.1c-0.2,0-0.5,0-0.7,0.1c-1.1,0.5-1.5,2.4-1.5,3.5
		c0,0.8,0.2,1.6,1.3,1.6c0.6,0,1.4-0.6,1.8-0.9l0.2-0.1l0.1,0.2l-0.7,0.6c-0.6,0.5-1.3,0.9-2,0.9c-1.3,0-1.6-0.9-1.6-2
		c0-1.4,0.6-3,1.4-3.5c1.1-0.8,1.5-1,2.2-1c0.3,0,0.9,0.1,1.3,0.3c-0.1,0.5-0.2,1.1-0.3,1.7h-0.2V55.1z"/>
	<path class="st0" d="M164.4,58.7c-0.1,0.2-0.1,0.3-0.1,0.6c0,0.1,0.1,0.2,0.2,0.2c0.1,0,0.5-0.2,0.8-0.5l0.3-0.2l0.1,0.2
		c-0.6,0.5-1,0.8-1.5,1c-0.2,0.1-0.5,0.2-0.7,0.2c-0.2,0-0.3-0.1-0.3-0.5c0-0.3,0-0.8,0.1-1l0.9-3.2c0-0.2,0.1-0.5,0.1-0.6
		c0-0.1-0.1-0.3-0.2-0.3c-0.2,0-0.3,0.2-0.7,0.3l-0.5,0.2v-0.2l0.3-0.2c1.3-0.9,1.6-1,1.7-1c0.5,0,0.5,0.2,0.3,0.8L164.4,58.7z
		 M164.8,51.7c0-0.5,0.3-0.9,0.7-0.9c0.3,0,0.6,0.2,0.6,0.6c0,0.5-0.3,0.9-0.8,0.9C164.9,52.2,164.8,52,164.8,51.7"/>
	<path class="st0" d="M169.9,59.1c0,0.1,0,0.3,0.2,0.3c0.2,0,0.6-0.2,0.9-0.6l0.1,0.2c-1,0.9-1.6,1.3-1.9,1.3
		c-0.2,0-0.3-0.1-0.3-0.3c0-0.3,0-0.6,0.1-0.8l0.3-1.6c-0.8,1-1.6,1.9-2,2.3c-0.6,0.5-0.8,0.6-1,0.6c-0.3,0-0.5-0.9-0.5-1.1
		c0-1.3,0.9-4,1.6-4.6c1-0.8,1.4-0.9,2-0.9c0.5,0,0.8,0.1,1.1,0.2l0.3-0.2l0.2,0.1L169.9,59.1z M167.5,55.8
		c-0.3,0.8-0.7,2.2-0.7,3.1c0,0.5,0,0.6,0.2,0.6c0.5,0,1.3-0.9,1.7-1.5c0.5-0.7,0.9-1.4,1.3-3.2c-0.5-0.1-0.8-0.2-1.1-0.2
		C168.1,54.5,167.9,55,167.5,55.8"/>
	<path class="st0" d="M172.9,58.7v0.6c0,0.1,0,0.2,0.1,0.2c0.2,0,0.6-0.2,0.8-0.5l0.3-0.2l0.1,0.2c-0.5,0.5-0.9,0.8-1.4,1
		c-0.2,0.1-0.5,0.2-0.7,0.2c-0.3,0-0.5-0.1-0.5-0.5c0-0.3,0.1-0.8,0.5-2c0.3-1.3,1-5.1,1.1-5.8v-0.3c0-0.3-0.1-0.3-0.5-0.3h-0.6
		v-0.2c0.3-0.1,0.7-0.1,1.1-0.2c0.3-0.1,0.7-0.2,1-0.3l0.1,0.1L172.9,58.7z"/>
	<path class="st0" d="M175.2,55.1v-0.2c0.3,0,0.8-0.3,1.1-0.5l0.3-2.3c0.3-0.1,0.8-0.2,1-0.5l0.2,0.2c-0.3,0.8-0.5,1.6-0.7,2.6
		c0.6,0,1-0.1,1.5-0.1l-0.1,0.7h-1.5c-0.2,1.3-0.6,3-0.7,3.6v0.6c0,0.1,0,0.2,0.2,0.2c0.1,0,0.5-0.2,0.8-0.5l0.6-0.3l0.1,0.2
		c-0.7,0.6-1.3,1-1.7,1.3c-0.2,0.1-0.5,0.1-0.7,0.1c-0.2,0-0.3-0.1-0.3-0.5c0-0.3,0.1-0.8,0.1-1l0.8-3.8H175.2z"/>
	<path class="st0" d="M179.2,62.1l0.1,0.1c-0.1,0.7,0.3,1.1,0.8,1.1c0.8,0,1.3-0.7,1.6-1.4c0.3-0.7,0.6-1.5,0.7-1.9l0.7-2.2v-0.1
		c-0.3,0.6-0.8,1-1.1,1.5c-0.3,0.5-1,1.1-1.5,1.1c-0.3,0-0.6-0.5-0.6-0.8V59l0.2-3.3c0.1-0.5,0-0.9-0.2-0.9c-0.1,0-0.2,0.1-0.3,0.2
		l-0.7,0.3l-0.1-0.2l1-0.7c0.7-0.5,0.9-0.6,1-0.6c0.2,0,0.5,0.2,0.2,2.2l-0.1,2.5c-0.1,0.5,0,0.9,0.2,0.9s0.9-0.6,1.4-1.4
		c0.5-0.6,0.9-1.5,1.1-2.2l0.5-1.8c0.3,0,0.7-0.1,0.9-0.2l0.2,0.1l-1.9,5.9c-0.3,0.9-0.7,1.8-1.4,2.6c-0.5,0.7-1.3,1.5-2.3,1.5
		c-0.7,0-1.1-0.6-1-1.4L179.2,62.1z"/>
	<path class="st0" d="M195.8,52.2c-0.7-0.6-1.6-0.7-2.5-0.7c-2.6,0-3.6,2.3-3.6,4.7c0,2,0.9,3.5,3.2,3.5c1.1,0,1.9-0.3,3-0.9h0.1
		l-0.1,0.6c-1,0.7-2.2,1-3.4,1c-2.5,0-4-1.4-4-3.9c0-1.5,0.3-3.4,2.4-4.8c1.3-0.8,2.4-0.9,3.1-0.9c0.9,0,1.8,0.2,2.6,0.6
		c-0.2,0.6-0.2,1.3-0.3,1.9h-0.3V52.2z"/>
	<path class="st0" d="M196.6,58.3c0-1.8,0.7-3.3,2-4.1c0.5-0.2,0.8-0.3,1.4-0.3c1.3,0,1.8,0.9,1.8,2s-0.5,2.4-1.1,3.3
		c-0.6,0.7-1.6,1.3-2.4,1.3C196.9,60.4,196.6,59.4,196.6,58.3 M199.8,59.4c0.7-0.8,1-2.3,1-3.4c0-0.8-0.2-1.7-1.3-1.7
		c-0.3,0-0.6,0.1-0.8,0.2c-0.8,0.7-1.3,2.7-1.3,3.6c0,0.9,0.3,1.7,1.3,1.7C199.2,59.9,199.5,59.8,199.8,59.4"/>
	<path class="st0" d="M206.7,60.2l-0.9,0.1l-0.1-0.1c0.3-1.5,0.8-3.1,1-4.6c0-0.5,0.1-0.9-0.1-0.9c-0.6,0-1.3,0.7-1.5,1
		c-0.9,0.8-1.3,1.9-1.5,3.1l-0.2,1.4l-0.9,0.1l-0.1-0.1c0.5-1.1,0.7-2.5,0.9-3.6c0.1-0.6,0.2-1.1,0.2-1.5c0-0.1-0.1-0.3-0.2-0.3
		c-0.1,0-0.3,0.2-0.7,0.3l-0.3,0.2l-0.1-0.2l0.3-0.2c1.3-0.9,1.6-1,1.7-1c0.3,0,0.5,0.3,0.3,1l-0.5,1.6v0.1c0.7-0.9,1.1-1.5,2-2.2
		c0.3-0.2,0.9-0.6,1.4-0.6c0.6,0,0.3,0.7,0.2,1l-0.3,1.7c0.7-1,1.6-1.7,2.3-2.2c0.3-0.2,0.9-0.6,1.4-0.6c0.5,0,0.3,0.7,0.2,0.9l-1,4
		v0.6c0,0.1,0,0.2,0.1,0.2c0.2,0,0.6-0.2,0.8-0.5l0.3-0.2l0.1,0.2c-0.5,0.5-0.9,0.8-1.4,1c-0.2,0.1-0.5,0.2-0.7,0.2
		c-0.3,0-0.5-0.1-0.5-0.5c0-0.3,0.1-0.8,0.2-1c0.2-0.7,0.7-2.5,0.8-3.2c0.1-0.3,0.1-0.9-0.1-0.9c-0.5,0-1,0.5-1.6,1
		c-0.5,0.5-1.1,1.3-1.5,3L206.7,60.2z"/>
	<path class="st0" d="M212.7,63.7c-0.3,0-0.7,0.1-1,0.2v-0.1c0.1-0.7,0.5-2.2,0.7-3.8l0.7-3.5c0.1-0.6,0.2-1.1,0.2-1.5
		c0-0.1-0.1-0.3-0.3-0.3c-0.1,0-0.3,0.2-0.7,0.3l-0.3,0.2l-0.1-0.2l0.5-0.2c1.3-0.9,1.6-1,1.7-1c0.3,0,0.3,0.3,0.2,1l-0.2,1.5
		c0.5-1,1.9-2.5,3.2-2.5c0.7,0,0.8,1.1,0.8,1.6c0,0.9-0.6,2.4-1,3.2c-0.5,0.7-1.3,1.1-1.9,1.5c-0.3,0.2-0.6,0.3-0.9,0.3
		c-0.2,0-0.6-0.1-0.8-0.2L212.7,63.7z M213.4,59.4c0.3,0.2,0.8,0.3,1.1,0.3c0.5,0,0.9-0.1,1.1-0.6c0.7-1,1.3-2.5,1.3-3.6
		c0-0.3,0-0.9-0.5-0.9c-0.2,0-0.5,0-0.7,0.1c-1.1,0.7-1.9,2-2.2,3.3L213.4,59.4z"/>
	<path class="st0" d="M218.2,58.3c0-1.8,0.7-3.3,2.2-4.1c0.5-0.2,0.8-0.3,1.4-0.3c1.3,0,1.7,0.9,1.7,2s-0.3,2.4-1.1,3.3
		c-0.5,0.7-1.5,1.3-2.3,1.3C218.6,60.4,218.2,59.4,218.2,58.3 M221.5,59.4c0.7-0.8,1-2.3,1-3.4c0-0.8-0.3-1.7-1.3-1.7
		c-0.3,0-0.7,0.1-0.8,0.2c-0.9,0.7-1.3,2.7-1.3,3.6c0,0.9,0.2,1.7,1.3,1.7C220.9,59.9,221.3,59.8,221.5,59.4"/>
	<path class="st0" d="M225.3,55.7c0-0.1,0.1-0.5,0.1-0.6c0-0.1-0.1-0.3-0.2-0.3c-0.2,0-0.5,0.2-0.7,0.3l-0.5,0.2l-0.1-0.2l0.5-0.2
		c1.3-0.9,1.6-1,1.7-1c0.3,0,0.3,0.3,0.2,1l-0.7,3.5c-0.1,0.2-0.1,0.5-0.1,0.8c0,0.1,0,0.2,0.1,0.2c0.2,0,0.5,0,0.6-0.1
		c0.8-0.6,1.9-1.9,2.3-2.8c0.2-0.7,0.5-1.3,0.5-1.7l0.1-0.7l0.9-0.2L230,54c-0.3,1.6-0.9,3.8-1.1,4.8v0.6c0,0.1,0,0.1,0.1,0.1
		c0.2,0,0.6-0.1,0.8-0.3l0.3-0.2l0.2,0.2c-0.6,0.5-1,0.8-1.5,1c-0.2,0.1-0.5,0.2-0.7,0.2c-0.2,0-0.5-0.1-0.5-0.5
		c0-0.3,0.1-0.8,0.2-1l0.5-1.6h-0.1c-0.3,0.7-0.9,1.1-1.4,1.7c-0.5,0.6-1.4,1.5-2,1.5c-0.2,0-0.5-0.2-0.5-0.6v-0.7L225.3,55.7z"/>
	<path class="st0" d="M232.4,56.9h0.1c0.6-0.9,1.1-1.6,1.7-2c0.8-0.7,1.6-1,2-1c0.3,0,0.3,0.2,0.3,0.5c0,0.3,0,0.7-0.1,1l-0.8,3.4
		c-0.1,0.2-0.1,0.3-0.1,0.6c0,0.1,0.1,0.2,0.2,0.2c0.1,0,0.5-0.2,0.8-0.5l0.3-0.2l0.1,0.2c-0.6,0.5-1,0.8-1.5,1
		c-0.2,0.1-0.5,0.2-0.7,0.2c-0.2,0-0.3-0.1-0.3-0.5c0-0.3,0.1-0.8,0.1-1l0.7-2.8c0.1-0.3,0.2-0.7,0.2-0.9c0-0.2-0.1-0.3-0.2-0.3
		c-0.3,0-0.6,0.2-0.9,0.5c-0.7,0.3-1.5,1.4-1.8,2.2c-0.5,0.8-0.7,1.9-0.8,2.7c-0.2,0.1-0.6,0.2-0.9,0.2l-0.1-0.1
		c0.3-1.1,0.7-2.5,0.9-3.6c0.1-0.6,0.2-1.1,0.2-1.5c0-0.1-0.1-0.3-0.2-0.3c-0.2,0-0.3,0.2-0.7,0.3l-0.3,0.2l-0.1-0.2l0.3-0.2
		c1.3-0.9,1.6-1,1.7-1c0.3,0,0.5,0.3,0.3,1L232.4,56.9z"/>
	<path class="st0" d="M242,58.5c0,0.2-0.1,0.5-0.1,0.7c0,0.1,0.1,0.2,0.2,0.2c0.1,0,0.3,0,0.5-0.1l0.7-0.5l0.1,0.2l-1.1,0.8
		c-0.3,0.3-0.7,0.5-0.9,0.5c-0.3,0-0.5-0.1-0.5-0.3c0-0.5,0.1-0.9,0.2-1.4l0.3-1.1h-0.1c-1,1.7-2.4,3-3.2,3c-0.6,0-0.7-0.9-0.7-1.5
		c0-0.7,0.2-3.2,1.7-4.2c0.8-0.6,1.1-0.9,1.8-0.9c0.3,0,0.8,0.1,1,0.2l0.5-2v-0.3c0-0.3-0.2-0.3-0.5-0.3h-0.7l0.1-0.2
		c0.3-0.1,0.7-0.1,1-0.2c0.3-0.1,0.7-0.2,1-0.3l0.2,0.1L242,58.5z M239.7,54.7c-0.7,0.5-1.3,2.8-1.3,4.1c0,0.3,0,0.6,0.3,0.6
		c0.2,0,0.7-0.2,1.3-0.7c0.8-0.8,1.5-2,1.7-3.2l0.1-0.8c-0.5-0.2-0.9-0.2-1.4-0.2C240.3,54.5,239.9,54.5,239.7,54.7"/>
	<path class="st0" d="M244,58.3v1.1c0.2,0.2,0.8,0.5,1.1,0.5c0.9,0,1.6-0.5,1.6-1.5c0-0.6-0.2-0.7-0.8-0.8l-0.8-0.2
		c-0.8-0.1-1.4-0.5-1.4-1.4c0-0.5,0.2-0.8,0.6-1.1c0.5-0.6,1.4-1,2-1c0.5,0,0.9,0.1,1.4,0.3c-0.1,0.6-0.1,1-0.2,1.5h-0.3V55
		c-0.1-0.5-0.8-0.6-1.3-0.6c-0.7,0-1.4,0.5-1.4,1.3c0,0.7,0.6,0.8,1.1,0.9l0.6,0.1c0.7,0.1,1.4,0.3,1.4,1.3c0,0.8-0.3,1.3-0.9,1.7
		c-0.6,0.5-1.3,0.8-1.9,0.8c-0.6,0-1-0.1-1.5-0.3c0.1-0.7,0.2-1.3,0.3-1.8H244z"/>
</g>
</svg>
