<?xml version="1.0" encoding="utf-8"?>
<!-- Generator: Adobe Illustrator 21.0.2, SVG Export Plug-In . SVG Version: 6.00 Build 0)  -->
<svg version="1.1" id="Layer_1" xmlns="http://www.w3.org/2000/svg" xmlns:xlink="http://www.w3.org/1999/xlink" x="0px" y="0px"
	 viewBox="0 0 312.1 48.9" style="enable-background:new 0 0 312.1 48.9;" xml:space="preserve">
<style type="text/css">
	.st0{fill:#00B5EC;}
</style>
<title>Asset 1</title>
<g>
	<path class="st0" d="M177.6,41c0.1,0.4,0,1-0.7,1.5l-7.2,4.6c-0.8,0.5-1.8,0.6-3,0.6h-10.3c-4.1,0-7.5-3.5-7.5-7.8V25
		c0-2.5,1-4.8,3-6l7.8-4.4c1-0.6,2.1-1.4,3.3-1.4H174c0.7,0,1.2,0.6,1.2,1.2v5.1c0,0.7-0.5,1.2-1.2,1.2h-13.8
		c-0.8,0-1.5,0.7-1.5,1.6v16.4c0,0.9,0.7,1.5,1.5,1.5h16.4C177,40.3,177.4,40.6,177.6,41 M205,12.8c-1.2,0-2.7,0.2-3.7,0.5
		l-11.1,3.2V1.8c0-0.8-0.3-1.3-1.2-1.3c-0.3,0-0.4,0-0.7,0.1l-6.3,1.6C181.5,2.4,181,3,181,3.7l0,42.7c0,0.7,0.5,1.3,1.2,1.3h7
		c0.7,0,1.2-0.6,1.2-1.3V22.3c0-0.9,0.7-1.6,1.5-1.6h8.3c0.8,0,1.5,0.7,1.5,1.6v24.1c0,0.7,0.5,1.3,1.2,1.3h6.9
		c0.7,0,1.2-0.6,1.2-1.3V19.2C211,15.5,208.5,12.8,205,12.8 M247.6,41.4c0,0.4-0.3,0.9-0.8,1.2l-7.3,4.6c-0.8,0.5-2,0.6-3.3,0.6
		h-11.8c-4.1,0-7.5-3.5-7.5-7.8V25.1c0-2.4,1-4.8,3-6l7.2-4.6c1.2-0.8,2.6-1.3,4-1.3h8.5c4.2,0,7.5,3.5,7.5,7.8v7.8
		c0,2.6-2.3,4.7-4.8,4.7h-14.6c-0.8,0-1.5,0.7-1.5,1.5v3.7c0,0.9,0.7,1.5,1.5,1.5h18.7C247.3,40.3,247.6,40.7,247.6,41.4
		 M226.4,25.8c0,0.9,0.7,1.5,1.5,1.5h9.4c0.8,0,1.5-0.7,1.5-1.5v-4c0-0.9-0.7-1.6-1.5-1.6h-9.4c-0.8,0-1.5,0.7-1.5,1.6V25.8z
		 M295.7,12.6c-1.2,0-2.7,0.2-3.7,0.5l-10.5,3.4c-0.9-2.3-2.9-3.8-5.5-3.8c-1.2,0-2.7,0.2-3.6,0.5l-9.8,3.1l-7.2-3.1
		c-0.4-0.2-0.7-0.2-1.2-0.2c-0.7,0-1.3,0.5-1.3,1.4v32c0,0.7,0.5,1.3,1.2,1.3h6.9c0.7,0,1.2-0.6,1.2-1.3V22.2c0-0.9,0.7-1.6,1.5-1.6
		h7.3c0.8,0,1.5,0.7,1.5,1.6v24.2c0,0.7,0.5,1.3,1.2,1.3h6.9c0.7,0,1.2-0.6,1.2-1.3V22.2c0-0.9,0.7-1.6,1.5-1.6h7.3
		c0.8,0,1.5,0.7,1.5,1.6v24.2c0,0.7,0.5,1.3,1.2,1.3h6.9c0.7,0,1.2-0.6,1.2-1.3V19.1C301.7,15.4,299.1,12.6,295.7,12.6 M92,41.4
		c0,0.4-0.3,0.9-0.8,1.2L84,47.1c-0.8,0.5-2,0.6-3.3,0.6H68.9c-4.1,0-7.5-3.5-7.5-7.8c0,0,0-12.5,0-14.7c0-2.2,1.1-4.8,3-6
		c1.9-1.2,7.2-4.6,7.2-4.6c1.2-0.8,2.6-1.3,4-1.3h8.5c4.2,0,7.5,3.5,7.5,7.8v7.8c0,2.6-2.3,4.7-4.8,4.7H72.3c-0.8,0-1.5,0.7-1.5,1.5
		v3.7c0,0.9,0.7,1.5,1.5,1.5H91C91.7,40.3,92,40.7,92,41.4 M70.8,25.8c0,0.9,0.7,1.5,1.5,1.5h9.4c0.8,0,1.5-0.7,1.5-1.5v-4
		c0-0.9-0.7-1.6-1.5-1.6h-9.4c-0.8,0-1.5,0.7-1.5,1.6V25.8z M48.8,3.5c-1.6,0-2.6,0.2-4.4,0.6L31.9,7.5l0,0
		c-0.9-2.4-2.9-3.9-5.5-3.9c-1.6,0-2.6,0.2-4.4,0.6L10.5,7.2l-7-2.6C2.8,4.3,2.6,4.3,2.2,4.3c-0.8,0-2,0.6-2,2.3V46
		c0,0.9,0.5,1.7,1.2,1.7H9c0.7,0,1.2-0.6,1.2-1.2V14.9c0-0.9,0.7-1.6,1.5-1.6H21c0.8,0,1.5,0.7,1.5,1.6v31.5c0,0.7,0.5,1.2,1.2,1.2
		h7.6c0.7,0,1.2-0.6,1.2-1.2V14.9c0-0.9,0.7-1.6,1.5-1.6h9.2c0.8,0,1.5,0.7,1.5,1.6v31.5c0,0.7,0.5,1.2,1.2,1.2h7.6
		c0.7,0,1.2-0.6,1.2-1.2V10.1C54.7,6.4,52.3,3.5,48.8,3.5 M140.5,13.2h-1.3h-5.6h-8h-3.9h-2.6c-1,0-1.5,0.1-2.2,1.3l-5.6,9.7
		c-0.3,0.6-0.8,0.6-1.1,0l-5.6-9.7c-0.4-0.7-1.4-1.2-2.2-1.2h-6.9c-0.6,0-1.4,0.5-1.4,1.6c0,0.5,0.1,0.8,0.3,1l9.6,13.4
		c0.2,0.3,0.3,0.6,0.3,1c0,0.3-0.1,0.7-0.2,0.8L93.9,45.1c-0.1,0.2-0.3,0.6-0.3,1c0,0.9,0.7,1.6,1.4,1.6h6.9c0.7,0,1.8-0.6,2.2-1.4
		l6.3-10.5c0.2-0.3,0.5-0.3,0.7,0l5.8,10.5c0.7,1.3,1.2,1.4,2.2,1.4h6.5c0.8,0,1.7-0.5,1.7-1.6c0-0.5-0.1-0.8-0.6-1.5l-9.4-13.5
		c-0.2-0.3-0.3-0.6-0.3-0.9c0-0.3,0.1-0.7,0.3-0.9l6.7-9.4h8.1v26.6c0,0.7,0.5,1.3,1.2,1.3h6.9c0.7,0,1.2-0.6,1.2-1.3v-32
		C141.7,13.7,141.2,13.2,140.5,13.2 M139.8,0.6l-6.3,1.6c-0.6,0.2-1.2,0.8-1.2,1.5v3.8c0,0.7,0.5,1.2,1.2,1.2h6.9
		c0.7,0,1.2-0.5,1.2-1.2V1.8C141.7,0.8,141.2,0.2,139.8,0.6"/>
	<g>
		<path class="st0" d="M309.9,44.8c0-0.1-0.2-0.2-0.3-0.2v-0.1c0,0,0.6-0.2,0.6-0.9c0-0.5-0.4-0.8-1.2-0.8h-1.5V46h0.9v-1.2h0.5
			l0.6,1.2h1.1L309.9,44.8z M308.8,44.2h-0.4v-0.7h0.5c0.3,0,0.4,0,0.4,0.3C309.2,44.1,309.1,44.2,308.8,44.2"/>
		<path class="st0" d="M308.8,41.2c-1.8,0-3.3,1.2-3.3,3.3c0,2.1,1.5,3.3,3.3,3.3s3.3-1.3,3.3-3.3C312.1,42.5,310.6,41.2,308.8,41.2
			 M308.8,46.9c-1.4,0-2.4-0.9-2.4-2.4c0-1.6,0.9-2.4,2.4-2.4c1.4,0,2.3,0.9,2.3,2.4C311.1,46,310.1,46.9,308.8,46.9"/>
	</g>
</g>
</svg>
